<svg xmlns="http://www.w3.org/2000/svg" id="Layer_1" data-name="Layer 1" viewBox="0 0 700 700"><defs><style>.cls-1{fill:#fff}.cls-1,.cls-2,.cls-3,.cls-4{stroke:#202124;stroke-width:2px}.cls-1,.cls-2,.cls-3{stroke-miterlimit:10}.cls-2,.cls-4{fill:none}.cls-3{fill:#99c941}.cls-4{stroke-linecap:round;stroke-linejoin:round}</style></defs><path d="M323.62,600h316.9V283.09m0,0v-157H142.32V600h181.3" class="cls-1"/><path d="M147.32,228.85H635.53" class="cls-2"/><path d="M194.43,178.17h17.13" class="cls-2"/><path d="M245.82,178.17H263" class="cls-2"/><path d="M297.21,178.17h17.13" class="cls-2"/><circle cx="592.49" cy="546.45" r="85.9" class="cls-3"/><path d="M564.26,519.32l-27,27.13,27,27.14" class="cls-4"/><path d="M612.25,573.59l27.13-27.14-27.13-27.13" class="cls-4"/><path d="M576.13,581.3l20.69-73" class="cls-4"/><path d="M72,541.3a29.35,29.35,0,1,0,29.3,29.3A29.34,29.34,0,0,0,72,541.3Z" class="cls-4"/><path d="M601.13,111a29.35,29.35,0,1,0-29.3-29.3A29.34,29.34,0,0,0,601.13,111Z" class="cls-4"/><path d="M95.27,363H112.4" class="cls-2"/><path d="M68.47,363H85.6" class="cls-2"/><path d="M41.57,363.13H58.7" class="cls-2"/><path d="M113.38,323.58h7.5a8.43,8.43,0,0,1,5.8,2.4,8.25,8.25,0,0,1,2.4,5.8v62.5a8.43,8.43,0,0,1-2.4,5.8,8.25,8.25,0,0,1-5.8,2.4h-7.5" class="cls-4"/><path d="M43.88,402.48h-7.5a7.92,7.92,0,0,1-5.8-2.3,8.43,8.43,0,0,1-2.4-5.8v-62.6a8.43,8.43,0,0,1,2.4-5.8,8.25,8.25,0,0,1,5.8-2.4h7.5" class="cls-4"/><line x1="199.61" x2="261.44" y1="275.48" y2="275.48" class="cls-4"/><line x1="199.61" x2="327.84" y1="314.77" y2="314.77" class="cls-4"/><line x1="353.84" x2="420.38" y1="314.77" y2="314.77" class="cls-4"/><line x1="261.44" x2="327.84" y1="354.05" y2="354.05" class="cls-4"/><line x1="353.84" x2="420.38" y1="354.05" y2="354.05" class="cls-4"/><line x1="261.44" x2="334.91" y1="393.34" y2="393.34" class="cls-4"/><line x1="353.84" x2="482.07" y1="393.34" y2="393.34" class="cls-4"/><line x1="199.61" x2="261.44" y1="432.76" y2="432.76" class="cls-4"/><line x1="199.61" x2="327.84" y1="471.91" y2="471.91" class="cls-4"/><line x1="261.44" x2="327.84" y1="511.33" y2="511.33" class="cls-4"/><line x1="261.44" x2="327.84" y1="550.61" y2="550.61" class="cls-4"/><line x1="111.38" x2="111.38" y1="541.3" y2="600" class="cls-4"/><line x1="536.73" x2="536.73" y1="52.26" y2="110.96" class="cls-4"/><line x1="561.73" x2="561.73" y1="52.26" y2="110.96" class="cls-4"/></svg>