<?xml version="1.0" encoding="UTF-8" standalone="no"?>
<svg
   width="1440"
   height="696"
   viewbox="0 0 120 220"
   version="1.1"
   style="clip-rule:evenodd;fill-rule:evenodd;stroke-linejoin:round;stroke-miterlimit:2"
   xml:space="preserve"
   class="align-center"
   id="svg130"
   sodipodi:docname="logo_newsmall5.svg"
   inkscape:version="1.3.2 (091e20e, 2023-11-25)"
   viewBox="0 0 17280 8352"
   xmlns:inkscape="http://www.inkscape.org/namespaces/inkscape"
   xmlns:sodipodi="http://sodipodi.sourceforge.net/DTD/sodipodi-0.dtd"
   xmlns="http://www.w3.org/2000/svg"
   xmlns:svg="http://www.w3.org/2000/svg"><defs
     id="defs130"><rect
       x="22.054054"
       y="87.567566"
       width="38.43243"
       height="15.891892"
       id="rect135" /><rect
       x="18"
       y="90.324326"
       width="46.540543"
       height="17.513514"
       id="rect131" /></defs><sodipodi:namedview
     id="namedview130"
     pagecolor="#ffffff"
     bordercolor="#000000"
     borderopacity="0.25"
     inkscape:showpageshadow="2"
     inkscape:pageopacity="0.0"
     inkscape:pagecheckerboard="0"
     inkscape:deskcolor="#d1d1d1"
     inkscape:zoom="0.6"
     inkscape:cx="720"
     inkscape:cy="335"
     inkscape:window-width="1392"
     inkscape:window-height="1027"
     inkscape:window-x="323"
     inkscape:window-y="25"
     inkscape:window-maximized="0"
     inkscape:current-layer="svg130"
     showguides="true"><sodipodi:guide
       position="968.75,228.75"
       orientation="0,-1"
       id="guide4"
       inkscape:locked="false" /></sodipodi:namedview><rect
     transform="matrix(0.8757531,0.48275926,0,1,0,0)"
     x="14684.785"
     y="-5442.2026"
     width="1490.4045"
     height="1246.222"
     stroke="#ffffff"
     style="fill:#ffffff;stroke-width:27.2571"
     id="rect1" /><rect
     style="fill:#f18d3b;fill-opacity:0.5;stroke-width:27.2571"
     transform="matrix(0.8757531,0.48275926,0,1,0,0)"
     x="14684.785"
     y="-5442.2026"
     width="298.0809"
     height="249.24438"
     stroke="#ffffff"
     id="rect2" /><rect
     style="fill:#f18d3b;fill-opacity:1;stroke-width:27.2571"
     transform="matrix(0.8757531,0.48275926,0,1,0,0)"
     x="14684.785"
     y="-5192.9575"
     width="298.0809"
     height="249.24438"
     stroke="#ffffff"
     id="rect3" /><rect
     style="fill:#f18d3b;fill-opacity:0.2;stroke-width:27.2571"
     transform="matrix(0.8757531,0.48275926,0,1,0,0)"
     x="14684.785"
     y="-4943.7139"
     width="298.0809"
     height="249.24438"
     stroke="#ffffff"
     id="rect4" /><rect
     style="fill:#f18d3b;fill-opacity:0.2;stroke-width:27.2571"
     transform="matrix(0.8757531,0.48275926,0,1,0,0)"
     x="14684.785"
     y="-4694.4697"
     width="298.0809"
     height="249.24438"
     stroke="#ffffff"
     id="rect5" /><rect
     style="fill:#f18d3b;fill-opacity:0.2;stroke-width:27.2571"
     transform="matrix(0.8757531,0.48275926,0,1,0,0)"
     x="14684.785"
     y="-4445.2251"
     width="298.0809"
     height="249.24438"
     stroke="#ffffff"
     id="rect6" /><rect
     style="fill:#f18d3b;fill-opacity:0.2;stroke-width:27.2571"
     transform="matrix(0.8757531,0.48275926,0,1,0,0)"
     x="14982.877"
     y="-5442.2026"
     width="298.0809"
     height="249.24438"
     stroke="#ffffff"
     id="rect7" /><rect
     style="fill:#f18d3b;fill-opacity:0.2;stroke-width:27.2571"
     transform="matrix(0.8757531,0.48275926,0,1,0,0)"
     x="14982.877"
     y="-5192.9575"
     width="298.0809"
     height="249.24438"
     stroke="#ffffff"
     id="rect8" /><rect
     style="fill:#f18d3b;fill-opacity:0.2;stroke-width:27.2571"
     transform="matrix(0.8757531,0.48275926,0,1,0,0)"
     x="14982.877"
     y="-4943.7139"
     width="298.0809"
     height="249.24438"
     stroke="#ffffff"
     id="rect9" /><rect
     style="fill:#f18d3b;fill-opacity:0.5;stroke-width:27.2571"
     transform="matrix(0.8757531,0.48275926,0,1,0,0)"
     x="14982.877"
     y="-4694.4697"
     width="298.0809"
     height="249.24438"
     stroke="#ffffff"
     id="rect10" /><rect
     style="fill:#f18d3b;fill-opacity:0.5;stroke-width:27.2571"
     transform="matrix(0.8757531,0.48275926,0,1,0,0)"
     x="14982.877"
     y="-4445.2251"
     width="298.0809"
     height="249.24438"
     stroke="#ffffff"
     id="rect11" /><rect
     style="fill:#f18d3b;fill-opacity:0.5;stroke-width:27.2571"
     transform="matrix(0.8757531,0.48275926,0,1,0,0)"
     x="15280.96"
     y="-5442.2026"
     width="298.0809"
     height="249.24438"
     stroke="#ffffff"
     id="rect12" /><rect
     style="fill:#f18d3b;fill-opacity:1;stroke-width:27.2571"
     transform="matrix(0.8757531,0.48275926,0,1,0,0)"
     x="15280.96"
     y="-5192.9575"
     width="298.0809"
     height="249.24438"
     stroke="#ffffff"
     id="rect13" /><rect
     style="fill:#f18d3b;fill-opacity:0.2;stroke-width:27.2571"
     transform="matrix(0.8757531,0.48275926,0,1,0,0)"
     x="15280.96"
     y="-4943.7139"
     width="298.0809"
     height="249.24438"
     stroke="#ffffff"
     id="rect14" /><rect
     style="fill:#f18d3b;fill-opacity:1;stroke-width:27.2571"
     transform="matrix(0.8757531,0.48275926,0,1,0,0)"
     x="15280.96"
     y="-4694.4697"
     width="298.0809"
     height="249.24438"
     stroke="#ffffff"
     id="rect15" /><rect
     style="fill:#f18d3b;fill-opacity:0.2;stroke-width:27.2571"
     transform="matrix(0.8757531,0.48275926,0,1,0,0)"
     x="15280.96"
     y="-4445.2251"
     width="298.0809"
     height="249.24438"
     stroke="#ffffff"
     id="rect16" /><rect
     style="fill:#f18d3b;fill-opacity:1;stroke-width:27.2571"
     transform="matrix(0.8757531,0.48275926,0,1,0,0)"
     x="15579.043"
     y="-5442.2026"
     width="298.0809"
     height="249.24438"
     stroke="#ffffff"
     id="rect17" /><rect
     style="fill:#f18d3b;fill-opacity:0.5;stroke-width:27.2571"
     transform="matrix(0.8757531,0.48275926,0,1,0,0)"
     x="15579.043"
     y="-5192.9575"
     width="298.0809"
     height="249.24438"
     stroke="#ffffff"
     id="rect18" /><rect
     style="fill:#f18d3b;fill-opacity:0.5;stroke-width:27.2571"
     transform="matrix(0.8757531,0.48275926,0,1,0,0)"
     x="15579.043"
     y="-4943.7139"
     width="298.0809"
     height="249.24438"
     stroke="#ffffff"
     id="rect19" /><rect
     style="fill:#f18d3b;fill-opacity:0.2;stroke-width:27.2571"
     transform="matrix(0.8757531,0.48275926,0,1,0,0)"
     x="15579.043"
     y="-4694.4697"
     width="298.0809"
     height="249.24438"
     stroke="#ffffff"
     id="rect20" /><rect
     style="fill:#f18d3b;fill-opacity:0.2;stroke-width:27.2571"
     transform="matrix(0.8757531,0.48275926,0,1,0,0)"
     x="15579.043"
     y="-4445.2251"
     width="298.0809"
     height="249.24438"
     stroke="#ffffff"
     id="rect21" /><rect
     style="fill:#f18d3b;fill-opacity:1;stroke-width:27.2571"
     transform="matrix(0.8757531,0.48275926,0,1,0,0)"
     x="15877.124"
     y="-5442.2026"
     width="298.0809"
     height="249.24438"
     stroke="#ffffff"
     id="rect22" /><rect
     style="fill:#f18d3b;fill-opacity:1;stroke-width:27.2571"
     transform="matrix(0.8757531,0.48275926,0,1,0,0)"
     x="15877.124"
     y="-5192.9575"
     width="298.0809"
     height="249.24438"
     stroke="#ffffff"
     id="rect23" /><rect
     style="fill:#f18d3b;fill-opacity:0.2;stroke-width:27.2571"
     transform="matrix(0.8757531,0.48275926,0,1,0,0)"
     x="15877.124"
     y="-4943.7139"
     width="298.0809"
     height="249.24438"
     stroke="#ffffff"
     id="rect24" /><rect
     style="fill:#f18d3b;fill-opacity:1;stroke-width:27.2571"
     transform="matrix(0.8757531,0.48275926,0,1,0,0)"
     x="15877.124"
     y="-4694.4697"
     width="298.0809"
     height="249.24438"
     stroke="#ffffff"
     id="rect25" /><rect
     style="fill:#f18d3b;fill-opacity:1;stroke-width:27.2571"
     transform="matrix(0.8757531,0.48275926,0,1,0,0)"
     x="15877.124"
     y="-4445.2251"
     width="298.0809"
     height="249.24438"
     stroke="#ffffff"
     id="rect26" /><rect
     transform="matrix(0.8757531,0.48275926,-0.8757531,0.48275926,0,0)"
     x="10338.966"
     y="-4345.8311"
     width="1490.4045"
     height="1490.4045"
     stroke="#ffffff"
     style="fill:#ffffff;stroke-width:29.8081"
     id="rect27" /><rect
     style="fill:#f18d3b;fill-opacity:1;stroke-width:29.8081"
     transform="matrix(0.8757531,0.48275926,-0.8757531,0.48275926,0,0)"
     x="10338.966"
     y="-4345.8311"
     width="298.0809"
     height="298.0809"
     stroke="#ffffff"
     id="rect28" /><rect
     style="fill:#f18d3b;fill-opacity:0.2;stroke-width:29.8081"
     transform="matrix(0.8757531,0.48275926,-0.8757531,0.48275926,0,0)"
     x="10338.966"
     y="-4047.7512"
     width="298.0809"
     height="298.0809"
     stroke="#ffffff"
     id="rect29" /><rect
     style="fill:#f18d3b;fill-opacity:0.2;stroke-width:29.8081"
     transform="matrix(0.8757531,0.48275926,-0.8757531,0.48275926,0,0)"
     x="10338.966"
     y="-3749.6687"
     width="298.0809"
     height="298.0809"
     stroke="#ffffff"
     id="rect30" /><rect
     style="fill:#f18d3b;fill-opacity:0.2;stroke-width:29.8081"
     transform="matrix(0.8757531,0.48275926,-0.8757531,0.48275926,0,0)"
     x="10338.966"
     y="-3451.5876"
     width="298.0809"
     height="298.0809"
     stroke="#ffffff"
     id="rect31" /><rect
     style="fill:#f18d3b;fill-opacity:1;stroke-width:29.8081"
     transform="matrix(0.8757531,0.48275926,-0.8757531,0.48275926,0,0)"
     x="10338.966"
     y="-3153.5076"
     width="298.0809"
     height="298.0809"
     stroke="#ffffff"
     id="rect32" /><rect
     style="fill:#f18d3b;fill-opacity:0.2;stroke-width:29.8081"
     transform="matrix(0.8757531,0.48275926,-0.8757531,0.48275926,0,0)"
     x="10637.049"
     y="-4345.8311"
     width="298.0809"
     height="298.0809"
     stroke="#ffffff"
     id="rect33" /><rect
     style="fill:#f18d3b;fill-opacity:0.5;stroke-width:29.8081"
     transform="matrix(0.8757531,0.48275926,-0.8757531,0.48275926,0,0)"
     x="10637.049"
     y="-4047.7512"
     width="298.0809"
     height="298.0809"
     stroke="#ffffff"
     id="rect34" /><rect
     style="fill:#f18d3b;fill-opacity:1;stroke-width:29.8081"
     transform="matrix(0.8757531,0.48275926,-0.8757531,0.48275926,0,0)"
     x="10637.049"
     y="-3749.6687"
     width="298.0809"
     height="298.0809"
     stroke="#ffffff"
     id="rect35" /><rect
     style="fill:#f18d3b;fill-opacity:0.5;stroke-width:29.8081"
     transform="matrix(0.8757531,0.48275926,-0.8757531,0.48275926,0,0)"
     x="10637.049"
     y="-3451.5876"
     width="298.0809"
     height="298.0809"
     stroke="#ffffff"
     id="rect36" /><rect
     style="fill:#f18d3b;fill-opacity:1;stroke-width:29.8081"
     transform="matrix(0.8757531,0.48275926,-0.8757531,0.48275926,0,0)"
     x="10637.049"
     y="-3153.5076"
     width="298.0809"
     height="298.0809"
     stroke="#ffffff"
     id="rect37" /><rect
     style="fill:#f18d3b;fill-opacity:0.2;stroke-width:29.8081"
     transform="matrix(0.8757531,0.48275926,-0.8757531,0.48275926,0,0)"
     x="10935.134"
     y="-4345.8311"
     width="298.0809"
     height="298.0809"
     stroke="#ffffff"
     id="rect38" /><rect
     style="fill:#f18d3b;fill-opacity:1;stroke-width:29.8081"
     transform="matrix(0.8757531,0.48275926,-0.8757531,0.48275926,0,0)"
     x="10935.134"
     y="-4047.7512"
     width="298.0809"
     height="298.0809"
     stroke="#ffffff"
     id="rect39" /><rect
     style="fill:#f18d3b;fill-opacity:1;stroke-width:29.8081"
     transform="matrix(0.8757531,0.48275926,-0.8757531,0.48275926,0,0)"
     x="10935.134"
     y="-3749.6687"
     width="298.0809"
     height="298.0809"
     stroke="#ffffff"
     id="rect40" /><rect
     style="fill:#f18d3b;fill-opacity:0.2;stroke-width:29.8081"
     transform="matrix(0.8757531,0.48275926,-0.8757531,0.48275926,0,0)"
     x="10935.134"
     y="-3451.5876"
     width="298.0809"
     height="298.0809"
     stroke="#ffffff"
     id="rect41" /><rect
     style="fill:#f18d3b;fill-opacity:1;stroke-width:29.8081"
     transform="matrix(0.8757531,0.48275926,-0.8757531,0.48275926,0,0)"
     x="10935.134"
     y="-3153.5076"
     width="298.0809"
     height="298.0809"
     stroke="#ffffff"
     id="rect42" /><rect
     style="fill:#f18d3b;fill-opacity:1;stroke-width:29.8081"
     transform="matrix(0.8757531,0.48275926,-0.8757531,0.48275926,0,0)"
     x="11233.202"
     y="-4345.8311"
     width="298.0809"
     height="298.0809"
     stroke="#ffffff"
     id="rect43" /><rect
     style="fill:#f18d3b;fill-opacity:1;stroke-width:29.8081"
     transform="matrix(0.8757531,0.48275926,-0.8757531,0.48275926,0,0)"
     x="11233.202"
     y="-4047.7512"
     width="298.0809"
     height="298.0809"
     stroke="#ffffff"
     id="rect44" /><rect
     style="fill:#f18d3b;fill-opacity:0.2;stroke-width:29.8081"
     transform="matrix(0.8757531,0.48275926,-0.8757531,0.48275926,0,0)"
     x="11233.202"
     y="-3749.6687"
     width="298.0809"
     height="298.0809"
     stroke="#ffffff"
     id="rect45" /><rect
     style="fill:#f18d3b;fill-opacity:1;stroke-width:29.8081"
     transform="matrix(0.8757531,0.48275926,-0.8757531,0.48275926,0,0)"
     x="11233.202"
     y="-3451.5876"
     width="298.0809"
     height="298.0809"
     stroke="#ffffff"
     id="rect46" /><rect
     style="fill:#f18d3b;fill-opacity:0.2;stroke-width:29.8081"
     transform="matrix(0.8757531,0.48275926,-0.8757531,0.48275926,0,0)"
     x="11233.202"
     y="-3153.5076"
     width="298.0809"
     height="298.0809"
     stroke="#ffffff"
     id="rect47" /><rect
     style="fill:#f18d3b;fill-opacity:0.5;stroke-width:29.8081"
     transform="matrix(0.8757531,0.48275926,-0.8757531,0.48275926,0,0)"
     x="11531.283"
     y="-4345.8311"
     width="298.0809"
     height="298.0809"
     stroke="#ffffff"
     id="rect48" /><rect
     style="fill:#f18d3b;fill-opacity:1;stroke-width:29.8081"
     transform="matrix(0.8757531,0.48275926,-0.8757531,0.48275926,0,0)"
     x="11531.283"
     y="-4047.7512"
     width="298.0809"
     height="298.0809"
     stroke="#ffffff"
     id="rect49" /><rect
     style="fill:#f18d3b;fill-opacity:0.2;stroke-width:29.8081"
     transform="matrix(0.8757531,0.48275926,-0.8757531,0.48275926,0,0)"
     x="11531.283"
     y="-3749.6687"
     width="298.0809"
     height="298.0809"
     stroke="#ffffff"
     id="rect50" /><rect
     style="fill:#f18d3b;fill-opacity:0.2;stroke-width:29.8081"
     transform="matrix(0.8757531,0.48275926,-0.8757531,0.48275926,0,0)"
     x="11531.283"
     y="-3451.5876"
     width="298.0809"
     height="298.0809"
     stroke="#ffffff"
     id="rect51" /><rect
     style="fill:#f18d3b;fill-opacity:0.2;stroke-width:29.8081"
     transform="matrix(0.8757531,0.48275926,-0.8757531,0.48275926,0,0)"
     x="11531.283"
     y="-3153.5076"
     width="298.0809"
     height="298.0809"
     stroke="#ffffff"
     id="rect52" /><rect
     transform="matrix(0.8757531,0.48275926,0,1,0,0)"
     x="13194.383"
     y="-2756.967"
     width="1490.4045"
     height="1246.222"
     stroke="#ffffff"
     style="fill:#ffffff;stroke-width:27.2571"
     id="rect53" /><rect
     style="fill:#459bb5;fill-opacity:0.2;stroke-width:27.2571"
     transform="matrix(0.8757531,0.48275926,0,1,0,0)"
     x="13194.383"
     y="-2756.967"
     width="298.0809"
     height="249.24438"
     stroke="#ffffff"
     id="rect54" /><rect
     style="fill:#459bb5;fill-opacity:1;stroke-width:27.2571"
     transform="matrix(0.8757531,0.48275926,0,1,0,0)"
     x="13194.383"
     y="-2507.7214"
     width="298.0809"
     height="249.24438"
     stroke="#ffffff"
     id="rect55" /><rect
     style="fill:#459bb5;fill-opacity:0.2;stroke-width:27.2571"
     transform="matrix(0.8757531,0.48275926,0,1,0,0)"
     x="13194.383"
     y="-2258.4775"
     width="298.0809"
     height="249.24438"
     stroke="#ffffff"
     id="rect56" /><rect
     style="fill:#459bb5;fill-opacity:0.2;stroke-width:27.2571"
     transform="matrix(0.8757531,0.48275926,0,1,0,0)"
     x="13194.383"
     y="-2009.2339"
     width="298.0809"
     height="249.24438"
     stroke="#ffffff"
     id="rect57" /><rect
     style="fill:#459bb5;fill-opacity:0.5;stroke-width:27.2571"
     transform="matrix(0.8757531,0.48275926,0,1,0,0)"
     x="13194.383"
     y="-1759.9878"
     width="298.0809"
     height="249.24438"
     stroke="#ffffff"
     id="rect58" /><rect
     style="fill:#459bb5;fill-opacity:0.2;stroke-width:27.2571"
     transform="matrix(0.8757531,0.48275926,0,1,0,0)"
     x="13492.467"
     y="-2756.967"
     width="298.0809"
     height="249.24438"
     stroke="#ffffff"
     id="rect59" /><rect
     style="fill:#459bb5;fill-opacity:0.5;stroke-width:27.2571"
     transform="matrix(0.8757531,0.48275926,0,1,0,0)"
     x="13492.467"
     y="-2507.7214"
     width="298.0809"
     height="249.24438"
     stroke="#ffffff"
     id="rect60" /><rect
     style="fill:#459bb5;fill-opacity:0.2;stroke-width:27.2571"
     transform="matrix(0.8757531,0.48275926,0,1,0,0)"
     x="13492.467"
     y="-2258.4775"
     width="298.0809"
     height="249.24438"
     stroke="#ffffff"
     id="rect61" /><rect
     style="fill:#459bb5;fill-opacity:0.5;stroke-width:27.2571"
     transform="matrix(0.8757531,0.48275926,0,1,0,0)"
     x="13492.467"
     y="-2009.2339"
     width="298.0809"
     height="249.24438"
     stroke="#ffffff"
     id="rect62" /><rect
     style="fill:#459bb5;fill-opacity:1;stroke-width:27.2571"
     transform="matrix(0.8757531,0.48275926,0,1,0,0)"
     x="13492.467"
     y="-1759.9878"
     width="298.0809"
     height="249.24438"
     stroke="#ffffff"
     id="rect63" /><rect
     style="fill:#459bb5;fill-opacity:0.2;stroke-width:27.2571"
     transform="matrix(0.8757531,0.48275926,0,1,0,0)"
     x="13790.55"
     y="-2756.967"
     width="298.0809"
     height="249.24438"
     stroke="#ffffff"
     id="rect64" /><rect
     style="fill:#459bb5;fill-opacity:0.5;stroke-width:27.2571"
     transform="matrix(0.8757531,0.48275926,0,1,0,0)"
     x="13790.55"
     y="-2507.7214"
     width="298.0809"
     height="249.24438"
     stroke="#ffffff"
     id="rect65" /><rect
     style="fill:#459bb5;fill-opacity:1;stroke-width:27.2571"
     transform="matrix(0.8757531,0.48275926,0,1,0,0)"
     x="13790.55"
     y="-2258.4775"
     width="298.0809"
     height="249.24438"
     stroke="#ffffff"
     id="rect66" /><rect
     style="fill:#459bb5;fill-opacity:0.5;stroke-width:27.2571"
     transform="matrix(0.8757531,0.48275926,0,1,0,0)"
     x="13790.55"
     y="-2009.2339"
     width="298.0809"
     height="249.24438"
     stroke="#ffffff"
     id="rect67" /><rect
     style="fill:#459bb5;fill-opacity:0.2;stroke-width:27.2571"
     transform="matrix(0.8757531,0.48275926,0,1,0,0)"
     x="13790.55"
     y="-1759.9878"
     width="298.0809"
     height="249.24438"
     stroke="#ffffff"
     id="rect68" /><rect
     style="fill:#459bb5;fill-opacity:0.5;stroke-width:27.2571"
     transform="matrix(0.8757531,0.48275926,0,1,0,0)"
     x="14088.633"
     y="-2756.967"
     width="298.0809"
     height="249.24438"
     stroke="#ffffff"
     id="rect69" /><rect
     style="fill:#459bb5;fill-opacity:1;stroke-width:27.2571"
     transform="matrix(0.8757531,0.48275926,0,1,0,0)"
     x="14088.633"
     y="-2507.7214"
     width="298.0809"
     height="249.24438"
     stroke="#ffffff"
     id="rect70" /><rect
     style="fill:#459bb5;fill-opacity:0.5;stroke-width:27.2571"
     transform="matrix(0.8757531,0.48275926,0,1,0,0)"
     x="14088.633"
     y="-2258.4775"
     width="298.0809"
     height="249.24438"
     stroke="#ffffff"
     id="rect71" /><rect
     style="fill:#459bb5;fill-opacity:1;stroke-width:27.2571"
     transform="matrix(0.8757531,0.48275926,0,1,0,0)"
     x="14088.633"
     y="-2009.2339"
     width="298.0809"
     height="249.24438"
     stroke="#ffffff"
     id="rect72" /><rect
     style="fill:#459bb5;fill-opacity:0.5;stroke-width:27.2571"
     transform="matrix(0.8757531,0.48275926,0,1,0,0)"
     x="14088.633"
     y="-1759.9878"
     width="298.0809"
     height="249.24438"
     stroke="#ffffff"
     id="rect73" /><rect
     style="fill:#459bb5;fill-opacity:1;stroke-width:27.2571"
     transform="matrix(0.8757531,0.48275926,0,1,0,0)"
     x="14386.717"
     y="-2756.967"
     width="298.0809"
     height="249.24438"
     stroke="#ffffff"
     id="rect74" /><rect
     style="fill:#459bb5;fill-opacity:0.2;stroke-width:27.2571"
     transform="matrix(0.8757531,0.48275926,0,1,0,0)"
     x="14386.717"
     y="-2507.7214"
     width="298.0809"
     height="249.24438"
     stroke="#ffffff"
     id="rect75" /><rect
     style="fill:#459bb5;fill-opacity:0.2;stroke-width:27.2571"
     transform="matrix(0.8757531,0.48275926,0,1,0,0)"
     x="14386.717"
     y="-2258.4775"
     width="298.0809"
     height="249.24438"
     stroke="#ffffff"
     id="rect76" /><rect
     style="fill:#459bb5;fill-opacity:1;stroke-width:27.2571"
     transform="matrix(0.8757531,0.48275926,0,1,0,0)"
     x="14386.717"
     y="-2009.2339"
     width="298.0809"
     height="249.24438"
     stroke="#ffffff"
     id="rect77" /><rect
     style="fill:#459bb5;fill-opacity:0.5;stroke-width:27.2571"
     transform="matrix(0.8757531,0.48275926,0,1,0,0)"
     x="14386.717"
     y="-1759.9878"
     width="298.0809"
     height="249.24438"
     stroke="#ffffff"
     id="rect78" /><rect
     transform="matrix(0.8757531,0.48275926,0,1,0,0)"
     x="13194.383"
     y="-1510.7448"
     width="1490.4045"
     height="1246.222"
     stroke="#ffffff"
     style="fill:#ffffff;stroke-width:27.2571"
     id="rect79" /><rect
     style="fill:#459bb5;fill-opacity:0.2;stroke-width:27.2571"
     transform="matrix(0.8757531,0.48275926,0,1,0,0)"
     x="13194.383"
     y="-1510.7448"
     width="298.0809"
     height="249.24438"
     stroke="#ffffff"
     id="rect80" /><rect
     style="fill:#459bb5;fill-opacity:1;stroke-width:27.2571"
     transform="matrix(0.8757531,0.48275926,0,1,0,0)"
     x="13194.383"
     y="-1261.4987"
     width="298.0809"
     height="249.24438"
     stroke="#ffffff"
     id="rect81" /><rect
     style="fill:#459bb5;fill-opacity:0.2;stroke-width:27.2571"
     transform="matrix(0.8757531,0.48275926,0,1,0,0)"
     x="13194.383"
     y="-1012.2556"
     width="298.0809"
     height="249.24438"
     stroke="#ffffff"
     id="rect82" /><rect
     style="fill:#459bb5;fill-opacity:1;stroke-width:27.2571"
     transform="matrix(0.8757531,0.48275926,0,1,0,0)"
     x="13194.383"
     y="-763.0105"
     width="298.0809"
     height="249.24438"
     stroke="#ffffff"
     id="rect83" /><rect
     style="fill:#459bb5;fill-opacity:1;stroke-width:27.2571"
     transform="matrix(0.8757531,0.48275926,0,1,0,0)"
     x="13194.383"
     y="-513.76752"
     width="298.0809"
     height="249.24438"
     stroke="#ffffff"
     id="rect84" /><rect
     style="fill:#459bb5;fill-opacity:1;stroke-width:27.2571"
     transform="matrix(0.8757531,0.48275926,0,1,0,0)"
     x="13492.467"
     y="-1510.7448"
     width="298.0809"
     height="249.24438"
     stroke="#ffffff"
     id="rect85" /><rect
     style="fill:#459bb5;fill-opacity:1;stroke-width:27.2571"
     transform="matrix(0.8757531,0.48275926,0,1,0,0)"
     x="13492.467"
     y="-1261.4987"
     width="298.0809"
     height="249.24438"
     stroke="#ffffff"
     id="rect86" /><rect
     style="fill:#459bb5;fill-opacity:1;stroke-width:27.2571"
     transform="matrix(0.8757531,0.48275926,0,1,0,0)"
     x="13492.467"
     y="-1012.2556"
     width="298.0809"
     height="249.24438"
     stroke="#ffffff"
     id="rect87" /><rect
     style="fill:#459bb5;fill-opacity:0.2;stroke-width:27.2571"
     transform="matrix(0.8757531,0.48275926,0,1,0,0)"
     x="13492.467"
     y="-763.0105"
     width="298.0809"
     height="249.24438"
     stroke="#ffffff"
     id="rect88" /><rect
     style="fill:#459bb5;fill-opacity:0.2;stroke-width:27.2571"
     transform="matrix(0.8757531,0.48275926,0,1,0,0)"
     x="13492.467"
     y="-513.76752"
     width="298.0809"
     height="249.24438"
     stroke="#ffffff"
     id="rect89" /><rect
     style="fill:#459bb5;fill-opacity:1;stroke-width:27.2571"
     transform="matrix(0.8757531,0.48275926,0,1,0,0)"
     x="13790.55"
     y="-1510.7448"
     width="298.0809"
     height="249.24438"
     stroke="#ffffff"
     id="rect90" /><rect
     style="fill:#459bb5;fill-opacity:0.5;stroke-width:27.2571"
     transform="matrix(0.8757531,0.48275926,0,1,0,0)"
     x="13790.55"
     y="-1261.4987"
     width="298.0809"
     height="249.24438"
     stroke="#ffffff"
     id="rect91" /><rect
     style="fill:#459bb5;fill-opacity:1;stroke-width:27.2571"
     transform="matrix(0.8757531,0.48275926,0,1,0,0)"
     x="13790.55"
     y="-1012.2556"
     width="298.0809"
     height="249.24438"
     stroke="#ffffff"
     id="rect92" /><rect
     style="fill:#459bb5;fill-opacity:1;stroke-width:27.2571"
     transform="matrix(0.8757531,0.48275926,0,1,0,0)"
     x="13790.55"
     y="-763.0105"
     width="298.0809"
     height="249.24438"
     stroke="#ffffff"
     id="rect93" /><rect
     style="fill:#459bb5;fill-opacity:1;stroke-width:27.2571"
     transform="matrix(0.8757531,0.48275926,0,1,0,0)"
     x="13790.55"
     y="-513.76752"
     width="298.0809"
     height="249.24438"
     stroke="#ffffff"
     id="rect94" /><rect
     style="fill:#459bb5;fill-opacity:0.2;stroke-width:27.2571"
     transform="matrix(0.8757531,0.48275926,0,1,0,0)"
     x="14088.633"
     y="-1510.7448"
     width="298.0809"
     height="249.24438"
     stroke="#ffffff"
     id="rect95" /><rect
     style="fill:#459bb5;fill-opacity:1;stroke-width:27.2571"
     transform="matrix(0.8757531,0.48275926,0,1,0,0)"
     x="14088.633"
     y="-1261.4987"
     width="298.0809"
     height="249.24438"
     stroke="#ffffff"
     id="rect96" /><rect
     style="fill:#459bb5;fill-opacity:0.5;stroke-width:27.2571"
     transform="matrix(0.8757531,0.48275926,0,1,0,0)"
     x="14088.633"
     y="-1012.2556"
     width="298.0809"
     height="249.24438"
     stroke="#ffffff"
     id="rect97" /><rect
     style="fill:#459bb5;fill-opacity:0.5;stroke-width:27.2571"
     transform="matrix(0.8757531,0.48275926,0,1,0,0)"
     x="14088.633"
     y="-763.0105"
     width="298.0809"
     height="249.24438"
     stroke="#ffffff"
     id="rect98" /><rect
     style="fill:#459bb5;fill-opacity:0.5;stroke-width:27.2571"
     transform="matrix(0.8757531,0.48275926,0,1,0,0)"
     x="14088.633"
     y="-513.76752"
     width="298.0809"
     height="249.24438"
     stroke="#ffffff"
     id="rect99" /><rect
     style="fill:#459bb5;fill-opacity:0.2;stroke-width:27.2571"
     transform="matrix(0.8757531,0.48275926,0,1,0,0)"
     x="14386.717"
     y="-1510.7448"
     width="298.0809"
     height="249.24438"
     stroke="#ffffff"
     id="rect100" /><rect
     style="fill:#459bb5;fill-opacity:1;stroke-width:27.2571"
     transform="matrix(0.8757531,0.48275926,0,1,0,0)"
     x="14386.717"
     y="-1261.4987"
     width="298.0809"
     height="249.24438"
     stroke="#ffffff"
     id="rect101" /><rect
     style="fill:#459bb5;fill-opacity:0.5;stroke-width:27.2571"
     transform="matrix(0.8757531,0.48275926,0,1,0,0)"
     x="14386.717"
     y="-1012.2556"
     width="298.0809"
     height="249.24438"
     stroke="#ffffff"
     id="rect102" /><rect
     style="fill:#459bb5;fill-opacity:0.2;stroke-width:27.2571"
     transform="matrix(0.8757531,0.48275926,0,1,0,0)"
     x="14386.717"
     y="-763.0105"
     width="298.0809"
     height="249.24438"
     stroke="#ffffff"
     id="rect103" /><rect
     style="fill:#459bb5;fill-opacity:1;stroke-width:27.2571"
     transform="matrix(0.8757531,0.48275926,0,1,0,0)"
     x="14386.717"
     y="-513.76752"
     width="298.0809"
     height="249.24438"
     stroke="#ffffff"
     id="rect104" /><rect
     transform="matrix(0.8757531,-0.48275926,0,1,0,0)"
     x="14684.785"
     y="11421.476"
     width="1490.4045"
     height="1246.222"
     stroke="#ffffff"
     style="fill:#ffffff;stroke-width:27.2571"
     id="rect105" /><rect
     style="fill:#677c83;fill-opacity:0.2;stroke-width:27.2571"
     transform="matrix(0.8757531,-0.48275926,0,1,0,0)"
     x="14684.785"
     y="11421.476"
     width="298.0809"
     height="249.24438"
     stroke="#ffffff"
     id="rect106" /><rect
     style="fill:#677c83;fill-opacity:0.5;stroke-width:27.2571"
     transform="matrix(0.8757531,-0.48275926,0,1,0,0)"
     x="14684.785"
     y="11670.722"
     width="298.0809"
     height="249.24438"
     stroke="#ffffff"
     id="rect107" /><rect
     style="fill:#677c83;fill-opacity:1;stroke-width:27.2571"
     transform="matrix(0.8757531,-0.48275926,0,1,0,0)"
     x="14684.785"
     y="11919.962"
     width="298.0809"
     height="249.24438"
     stroke="#ffffff"
     id="rect108" /><rect
     style="fill:#677c83;fill-opacity:0.5;stroke-width:27.2571"
     transform="matrix(0.8757531,-0.48275926,0,1,0,0)"
     x="14684.785"
     y="12169.212"
     width="298.0809"
     height="249.24438"
     stroke="#ffffff"
     id="rect109" /><rect
     style="fill:#677c83;fill-opacity:1;stroke-width:27.2571"
     transform="matrix(0.8757531,-0.48275926,0,1,0,0)"
     x="14684.785"
     y="12418.453"
     width="298.0809"
     height="249.24438"
     stroke="#ffffff"
     id="rect110" /><rect
     style="fill:#677c83;fill-opacity:1;stroke-width:27.2571"
     transform="matrix(0.8757531,-0.48275926,0,1,0,0)"
     x="14982.877"
     y="11421.476"
     width="298.0809"
     height="249.24438"
     stroke="#ffffff"
     id="rect111" /><rect
     style="fill:#677c83;fill-opacity:0.2;stroke-width:27.2571"
     transform="matrix(0.8757531,-0.48275926,0,1,0,0)"
     x="14982.877"
     y="11670.722"
     width="298.0809"
     height="249.24438"
     stroke="#ffffff"
     id="rect112" /><rect
     style="fill:#677c83;fill-opacity:1;stroke-width:27.2571"
     transform="matrix(0.8757531,-0.48275926,0,1,0,0)"
     x="14982.877"
     y="11919.962"
     width="298.0809"
     height="249.24438"
     stroke="#ffffff"
     id="rect113" /><rect
     style="fill:#677c83;fill-opacity:1;stroke-width:27.2571"
     transform="matrix(0.8757531,-0.48275926,0,1,0,0)"
     x="14982.877"
     y="12169.212"
     width="298.0809"
     height="249.24438"
     stroke="#ffffff"
     id="rect114" /><rect
     style="fill:#677c83;fill-opacity:1;stroke-width:27.2571"
     transform="matrix(0.8757531,-0.48275926,0,1,0,0)"
     x="14982.877"
     y="12418.453"
     width="298.0809"
     height="249.24438"
     stroke="#ffffff"
     id="rect115" /><rect
     style="fill:#677c83;fill-opacity:0.2;stroke-width:27.2571"
     transform="matrix(0.8757531,-0.48275926,0,1,0,0)"
     x="15280.96"
     y="11421.476"
     width="298.0809"
     height="249.24438"
     stroke="#ffffff"
     id="rect116" /><rect
     style="fill:#677c83;fill-opacity:0.2;stroke-width:27.2571"
     transform="matrix(0.8757531,-0.48275926,0,1,0,0)"
     x="15280.96"
     y="11670.722"
     width="298.0809"
     height="249.24438"
     stroke="#ffffff"
     id="rect117" /><rect
     style="fill:#677c83;fill-opacity:1;stroke-width:27.2571"
     transform="matrix(0.8757531,-0.48275926,0,1,0,0)"
     x="15280.96"
     y="11919.962"
     width="298.0809"
     height="249.24438"
     stroke="#ffffff"
     id="rect118" /><rect
     style="fill:#677c83;fill-opacity:1;stroke-width:27.2571"
     transform="matrix(0.8757531,-0.48275926,0,1,0,0)"
     x="15280.96"
     y="12169.212"
     width="298.0809"
     height="249.24438"
     stroke="#ffffff"
     id="rect119" /><rect
     style="fill:#677c83;fill-opacity:0.2;stroke-width:27.2571"
     transform="matrix(0.8757531,-0.48275926,0,1,0,0)"
     x="15280.96"
     y="12418.453"
     width="298.0809"
     height="249.24438"
     stroke="#ffffff"
     id="rect120" /><rect
     style="fill:#677c83;fill-opacity:1;stroke-width:27.2571"
     transform="matrix(0.8757531,-0.48275926,0,1,0,0)"
     x="15579.043"
     y="11421.476"
     width="298.0809"
     height="249.24438"
     stroke="#ffffff"
     id="rect121" /><rect
     style="fill:#677c83;fill-opacity:1;stroke-width:27.2571"
     transform="matrix(0.8757531,-0.48275926,0,1,0,0)"
     x="15579.043"
     y="11670.722"
     width="298.0809"
     height="249.24438"
     stroke="#ffffff"
     id="rect122" /><rect
     style="fill:#677c83;fill-opacity:1;stroke-width:27.2571"
     transform="matrix(0.8757531,-0.48275926,0,1,0,0)"
     x="15579.043"
     y="11919.962"
     width="298.0809"
     height="249.24438"
     stroke="#ffffff"
     id="rect123" /><rect
     style="fill:#677c83;fill-opacity:1;stroke-width:27.2571"
     transform="matrix(0.8757531,-0.48275926,0,1,0,0)"
     x="15579.043"
     y="12169.212"
     width="298.0809"
     height="249.24438"
     stroke="#ffffff"
     id="rect124" /><rect
     style="fill:#677c83;fill-opacity:0.2;stroke-width:27.2571"
     transform="matrix(0.8757531,-0.48275926,0,1,0,0)"
     x="15579.043"
     y="12418.453"
     width="298.0809"
     height="249.24438"
     stroke="#ffffff"
     id="rect125" /><rect
     style="fill:#677c83;fill-opacity:0.2;stroke-width:27.2571"
     transform="matrix(0.8757531,-0.48275926,0,1,0,0)"
     x="15877.124"
     y="11421.476"
     width="298.0809"
     height="249.24438"
     stroke="#ffffff"
     id="rect126" /><rect
     style="fill:#677c83;fill-opacity:0.2;stroke-width:27.2571"
     transform="matrix(0.8757531,-0.48275926,0,1,0,0)"
     x="15877.124"
     y="11670.722"
     width="298.0809"
     height="249.24438"
     stroke="#ffffff"
     id="rect127" /><rect
     style="fill:#677c83;fill-opacity:0.2;stroke-width:27.2571"
     transform="matrix(0.8757531,-0.48275926,0,1,0,0)"
     x="15877.124"
     y="11919.962"
     width="298.0809"
     height="249.24438"
     stroke="#ffffff"
     id="rect128" /><rect
     style="fill:#677c83;fill-opacity:0.2;stroke-width:27.2571"
     transform="matrix(0.8757531,-0.48275926,0,1,0,0)"
     x="15877.124"
     y="12169.212"
     width="298.0809"
     height="249.24438"
     stroke="#ffffff"
     id="rect129" /><rect
     style="fill:#677c83;fill-opacity:1;stroke-width:27.2571"
     transform="matrix(0.8757531,-0.48275926,0,1,0,0)"
     x="15877.124"
     y="12418.453"
     width="298.0809"
     height="249.24438"
     stroke="#ffffff"
     id="rect130" /><text
     xml:space="preserve"
     id="text131"
     style="white-space:pre;shape-inside:url(#rect131);display:inline;fill:#000000"
     transform="matrix(0.50639671,0,0,0.4835044,3271.2622,1621.6203)" /><text
     xml:space="preserve"
     style="font-style:normal;font-variant:normal;font-weight:normal;font-stretch:normal;font-size:5.93782px;font-family:'Hiragino Maru Gothic ProN';-inkscape-font-specification:'Hiragino Maru Gothic ProN';fill:#000000;stroke-width:0.494818"
     x="3210.5889"
     y="1699.766"
     id="text132"
     transform="scale(1.0233995,0.97713551)"><tspan
       sodipodi:role="line"
       id="tspan132"
       x="3210.5889"
       y="1699.766"
       style="stroke-width:0.494818" /></text><text
     xml:space="preserve"
     style="font-style:normal;font-variant:normal;font-weight:normal;font-stretch:normal;font-size:5.93782px;font-family:'Hiragino Maru Gothic ProN';-inkscape-font-specification:'Hiragino Maru Gothic ProN';fill:#000000;stroke-width:0.494818"
     x="3214.8416"
     y="1697.4391"
     id="text133"
     transform="scale(1.0233995,0.97713551)"><tspan
       sodipodi:role="line"
       id="tspan133"
       x="3214.8416"
       y="1697.4391"
       style="stroke-width:0.494818" /></text><text
     xml:space="preserve"
     id="text135"
     style="font-style:normal;font-variant:normal;font-weight:normal;font-stretch:normal;font-family:'Hiragino Maru Gothic ProN';-inkscape-font-specification:'Hiragino Maru Gothic ProN';white-space:pre;shape-inside:url(#rect135);display:inline;fill:#000000"
     transform="matrix(0.50639671,0,0,0.4835044,3271.2622,1621.6203)" /><path
     d="m 6648.0937,3969.375 c -231.7213,8.2283 -348.7314,31.0561 -432.2343,75.5625 -87.8336,46.8146 -133.9453,119.395 -133.9453,231.75 0,8.3175 1.3968,15.9504 2.2031,23.8828 37.4179,53.1497 102.2402,84.8438 184.1015,84.8438 138.338,0 252.5379,-72.5427 322.8047,-166.1719 41.721,-56.1775 57.0703,-100.6617 57.0703,-189.6094 z"
     style="font-size:2267.13px;font-family:'Hiragino Maru Gothic ProN';-inkscape-font-specification:'Hiragino Maru Gothic ProN';fill:#459bb5;stroke-width:188.926"
     id="path64" /><path
     d="m 6648.0937,3969.375 v 60.2578 c 0,88.9477 -15.3493,133.4319 -57.0703,189.6094 -70.2668,93.6292 -184.4667,166.1719 -322.8047,166.1719 -81.8613,0 -146.6836,-31.6941 -184.1015,-84.8438 10.9927,108.1504 94.6354,179.7422 217.3828,179.7422 138.3379,0 252.5144,-72.5427 322.7812,-166.1719 41.721,-56.1775 57.0938,-100.6616 57.0938,-189.6094 v -156.8203 c -12.6673,0.3463 -21.2636,1.2374 -33.2813,1.6641 z"
     style="font-size:2267.13px;font-family:'Hiragino Maru Gothic ProN';-inkscape-font-specification:'Hiragino Maru Gothic ProN';fill:#459bb5;stroke-width:188.926"
     id="path63" /><path
     d="m 5423.0625,3669.4453 c -56.0991,-120.0984 -152.4223,-188.625 -285.3516,-188.625 -241.5424,0 -377.6953,208.3325 -377.6953,496.2422 0,68.8107 8.5938,132.6865 23.9063,190.8047 62.0513,132.778 171.8774,215.2265 316.1015,215.2265 221.7799,10e-5 346.9453,-201.3193 346.9453,-503.2734 0,-78.2477 -8.2707,-148.569 -23.9062,-210.375 z"
     style="font-size:2267.13px;font-family:'Hiragino Maru Gothic ProN';-inkscape-font-specification:'Hiragino Maru Gothic ProN';fill:#459bb5;stroke-width:188.926"
     id="path61" /><path
     d="m 5423.0625,3669.4453 c 15.6355,61.806 23.9062,132.1273 23.9062,210.375 0,301.9541 -125.1654,503.2735 -346.9453,503.2734 -144.2241,0 -254.0502,-82.4485 -316.1015,-215.2265 49.277,187.0302 173.48,310.125 349.3828,310.125 221.7798,0 346.9453,-201.3193 346.9453,-503.2734 0,-121.9083 -19.6905,-224.9991 -57.1875,-305.2735 z"
     style="font-size:2267.13px;font-family:'Hiragino Maru Gothic ProN';-inkscape-font-specification:'Hiragino Maru Gothic ProN';fill:#459bb5;stroke-width:188.926"
     id="path60" /><path
     d="m 10098.117,3660.9375 c -49.499,-107.3796 -137.343,-191.8125 -278.8826,-191.8125 -179.902,0 -288.8398,109.7277 -334.8281,284.2969 h 591.3987 c 24.154,0 32.953,-9.3553 32.953,-30.4219 v -11.7187 c -2.667,-16.8193 -6.539,-33.6106 -10.641,-50.3438 z"
     style="font-size:2267.13px;font-family:'Hiragino Maru Gothic ProN';-inkscape-font-specification:'Hiragino Maru Gothic ProN';fill:#459bb5;stroke-width:188.926"
     id="path58" /><path
     d="m 10098.117,3660.9375 c 4.102,16.7332 7.974,33.5245 10.641,50.3438 V 3723 c 0,21.0666 -8.799,30.4219 -32.953,30.4219 h -591.3987 c -7.8987,29.9828 -14.519,61.2747 -18.7032,94.8984 h 643.3829 c 24.154,0 32.953,-9.3553 32.953,-30.4219 v -11.6953 c -7.888,-49.7526 -22.772,-99.3839 -43.922,-145.2656 z"
     style="font-size:2267.13px;font-family:'Hiragino Maru Gothic ProN';-inkscape-font-specification:'Hiragino Maru Gothic ProN';fill:#459bb5;stroke-width:188.926"
     id="path57" /><path
     d="M 7228.1484,4527.0234 V 3408.2578 c 0,-60.859 41.7118,-91.289 103.1953,-91.289 25.4921,0 48.0726,7.267 65.5313,20.3906 v -24 c 0,-60.859 -43.9165,-91.2891 -98.8125,-91.2891 -61.4835,0 -103.1953,30.4301 -103.1953,91.2891 v 1139.9531 c 0,34.0961 12.4429,58.3233 33.2812,73.7109 z"
     style="font-size:2267.13px;font-family:'Hiragino Maru Gothic ProN';-inkscape-font-specification:'Hiragino Maru Gothic ProN';fill:#459bb5;stroke-width:188.926"
     id="path54" /><path
     d="m 7767.9844,3208.0313 c -15.3709,0 -30.738,0 -48.3047,2.3437 -139.6317,5.1923 -236.9752,85.9608 -292.5703,173.0859 1.8182,7.676 3.0468,15.7871 3.0468,24.7969 v 51.5156 c 0,32.7702 -8.7801,72.564 -13.1718,110.0157 35.1334,-112.3551 147.1343,-257.4935 335.9765,-264.5157 17.5668,-2.3407 32.9338,-2.3437 48.3047,-2.3437 32.9376,0 57.102,4.6965 87.8438,11.7187 13.92,1.9355 25.0208,6.1888 34.5,11.7422 0.9986,-7.6471 2.4843,-15.8001 2.4843,-22.3828 0,-44.4738 -19.7613,-77.2356 -70.2656,-84.2578 -30.7417,-7.0222 -54.9061,-11.7187 -87.8437,-11.7187 z"
     style="font-size:2267.13px;font-family:'Hiragino Maru Gothic ProN';-inkscape-font-specification:'Hiragino Maru Gothic ProN';fill:#459bb5;stroke-width:188.926"
     id="path51" /><path
     d="m 9482.2969,4194.9609 c 47.4669,183.0108 168.3662,292.3828 352.3125,292.3828 158.1005,0 245.9406,-84.2538 298.6406,-208.3125 19.763,-42.1331 48.313,-58.5234 79.055,-58.5234 15.371,0 30.73,4.6701 46.101,9.3516 10.826,3.3941 20.731,8.5552 29.86,14.6484 3.123,-9.2053 4.945,-18.4041 4.945,-27.6094 0,-42.1331 -30.757,-70.2338 -68.086,-81.9375 -15.371,-4.6814 -30.731,-9.3515 -46.102,-9.3515 -30.741,0 -59.292,16.3668 -79.054,58.5 -52.7,124.0586 -140.5404,208.3359 -298.6409,208.3359 -149.7542,0 -258.2193,-72.0148 -319.0312,-197.4844 z"
     style="font-size:2267.13px;font-family:'Hiragino Maru Gothic ProN';-inkscape-font-specification:'Hiragino Maru Gothic ProN';fill:#459bb5;stroke-width:188.926"
     id="path49" /><path
     d="m 9785.9531,3203.3438 c -357.9219,0 -555.539,283.2491 -555.539,688.1953 0,133.3853 23.0552,251.8771 66.2812,351.375 -21.4388,-77.431 -33,-163.1994 -33,-256.4766 0,-404.9462 197.6171,-688.1719 555.5391,-688.1719 226.2346,0 382.1386,133.126 462.2346,319.1016 -64.043,-234.059 -232.325,-414.0234 -495.5159,-414.0234 z"
     style="font-size:2267.13px;font-family:'Hiragino Maru Gothic ProN';-inkscape-font-specification:'Hiragino Maru Gothic ProN';fill:#459bb5;stroke-width:188.926"
     id="path46" /><path
     d="m 5891.2266,4381.4062 c -7.2058,-33.2424 -11.3204,-68.7853 -11.3204,-107.0625 0,-220.0285 122.9656,-360.4769 331.5704,-421.3359 120.7712,-35.1109 234.9435,-49.1545 469.8984,-53.8359 v -100.6641 c 0,-59.5898 -12.0639,-105.9896 -36.4688,-140.8828 1.8163,14.5266 3.1875,29.511 3.1875,45.9844 v 100.664 c -234.9548,4.6815 -349.1272,18.725 -469.8984,53.836 -208.6048,60.8589 -331.5703,201.3073 -331.5703,421.3359 0,77.9805 15.6025,145.7236 44.6016,201.9609 z"
     style="font-size:2267.13px;font-family:'Hiragino Maru Gothic ProN';-inkscape-font-specification:'Hiragino Maru Gothic ProN';fill:#459bb5;stroke-width:188.926"
     id="path44" /><path
     d="m 6690.2344,4527.75 c -1.8837,-18.3505 -3.4628,-38.0188 -4.4532,-59.1328 -6.313,7.6151 -13.2491,15.0041 -19.9687,22.4765 3.5652,16.6748 12.8265,27.9579 24.4219,36.6563 z"
     style="font-size:2267.13px;font-family:'Hiragino Maru Gothic ProN';-inkscape-font-specification:'Hiragino Maru Gothic ProN';fill:#459bb5;stroke-width:188.926"
     id="path42" /><path
     d="m 6397.7812,3203.3438 c -177.863,0 -276.6768,39.8081 -353.5312,103.0078 -50.5043,42.1331 -107.6041,110.0155 -129.5625,182.5781 -2.1958,9.3629 -4.3828,18.7152 -4.3828,28.0781 0,28.7069 14.9509,52.4865 37.2422,69.5391 0.2106,-0.9065 0.2093,-1.8123 0.4218,-2.7188 21.9585,-72.5626 79.0582,-140.445 129.5625,-182.5781 76.8545,-63.1997 175.6683,-102.9844 353.5313,-102.9844 199.008,0 329.4502,56.9918 393.2109,179.1797 -40.6403,-187.8738 -181.7174,-274.1016 -426.4922,-274.1015 z"
     style="font-size:2267.13px;font-family:'Hiragino Maru Gothic ProN';-inkscape-font-specification:'Hiragino Maru Gothic ProN';fill:#459bb5;stroke-width:188.926"
     id="path39" /><path
     d="M 4568.9766,5019.7734 V 3408.2578 c 0,-60.859 37.3289,-91.289 98.8125,-91.289 24.9603,0 46.5221,6.6347 63.3515,18.4687 v -26.7422 c 0,-58.5182 -41.7368,-86.625 -96.6328,-86.625 -61.4835,0 -98.8125,30.4301 -98.8125,91.2891 v 1633.8281 c 0,32.8254 12.1149,57.2036 33.2813,72.5859 z"
     style="font-size:2267.13px;font-family:'Hiragino Maru Gothic ProN';-inkscape-font-specification:'Hiragino Maru Gothic ProN';fill:#459bb5;stroke-width:188.926"
     id="path37" /><path
     d="m 5132.9766,3203.3438 c -178.0976,0 -291.1984,77.5849 -368.5782,199.9453 3e-4,0.1082 0.024,0.1963 0.024,0.3047 v 42.1171 c 0,32.7702 -2.2016,88.9498 -8.7891,128.7422 76.8544,-166.1918 197.6285,-276.1875 410.625,-276.1875 214.2651,0 367.639,108.5018 449.0156,298.6641 -67.5043,-249.0343 -234.4513,-393.5859 -482.2968,-393.5859 z"
     style="font-size:2267.13px;font-family:'Hiragino Maru Gothic ProN';-inkscape-font-specification:'Hiragino Maru Gothic ProN';fill:#459bb5;stroke-width:188.926"
     id="path34" /><path
     d="m 8080.5937,4325.5547 c -1.1249,-6.1982 -2.6484,-12.7688 -2.6484,-18.4453 0,-46.8146 37.3337,-79.5824 79.0547,-88.9453 10.9792,-2.3408 21.9432,-4.6875 30.7266,-4.6875 41.7209,0 81.2546,18.737 94.4297,63.2109 39.5251,135.7623 129.552,203.625 303.0234,203.625 175.6672,0 289.8516,-81.904 289.8516,-201.2813 -1e-4,-46.5448 -10.2071,-84.281 -34.7344,-115.8984 0.4982,6.9792 1.4531,13.5768 1.4531,20.9766 0,119.3772 -114.1844,201.3047 -289.8516,201.3047 -173.4713,0 -263.4983,-67.8627 -303.0234,-203.625 -13.175,-44.4739 -52.7087,-63.211 -94.4297,-63.211 -8.7833,0 -19.7473,2.3468 -30.7266,4.6875 -41.7209,9.3629 -79.0546,42.1307 -79.0546,88.9453 0,9.363 2.1869,18.7183 4.3828,30.4219 8.1236,29.6426 19.041,56.9687 31.5468,82.9219 z"
     style="font-size:2267.13px;font-family:'Hiragino Maru Gothic ProN';-inkscape-font-specification:'Hiragino Maru Gothic ProN';fill:#459bb5;stroke-width:188.926"
     id="path32" /><path
     d="m 8311.6641,3666.0703 c 4.6675,95.4816 50.9965,140.1113 225.2109,179.9063 l 136.1484,30.4453 c 185.5804,41.0868 298.3775,93.3663 354.8672,192.2344 -33.5416,-163.01 -151.13,-234.6578 -388.1484,-287.1329 l -136.1484,-30.4453 c -102.8501,-23.4935 -160.3229,-48.8637 -191.9297,-85.0078 z"
     style="font-size:2267.13px;font-family:'Hiragino Maru Gothic ProN';-inkscape-font-specification:'Hiragino Maru Gothic ProN';fill:#459bb5;stroke-width:188.926"
     id="path30" /><path
     d="m 8532.1406,3201.0234 c -283.2633,0 -454.5468,145.1187 -454.5469,358.125 0,77.4506 13.9592,139.8562 43.0782,191.0391 -5.8462,-29.5099 -9.7969,-60.7884 -9.7969,-96.1406 0,-213.0064 171.2835,-358.125 454.5469,-358.125 210.1093,0 354.5157,82.0403 425.6484,214.0547 -0,-9.3553 -2.2122,-18.7229 -4.4062,-28.0782 -54.896,-170.8732 -210.7852,-280.875 -454.5235,-280.875 z"
     style="font-size:2267.13px;font-family:'Hiragino Maru Gothic ProN';-inkscape-font-specification:'Hiragino Maru Gothic ProN';fill:#459bb5;stroke-width:188.926"
     id="path27" /><path
     d="m 3328.8047,4325.5781 c -1.1272,-6.2076 -2.6719,-12.7847 -2.6719,-18.4687 0,-46.8146 37.3337,-79.5824 79.0547,-88.9453 10.9792,-2.3408 21.9666,-4.6875 30.75,-4.6875 41.721,0 81.2312,18.737 94.4063,63.2109 39.5251,135.7623 129.552,203.625 303.0234,203.625 175.6672,0 289.8515,-81.904 289.8515,-201.2813 0,-46.5463 -10.2053,-84.2804 -34.7343,-115.8984 0.4982,6.9792 1.4531,13.5768 1.4531,20.9766 0,119.3772 -114.1844,201.3047 -289.8516,201.3047 -173.4713,0 -263.4983,-67.8627 -303.0234,-203.625 -13.175,-44.4739 -52.6853,-63.211 -94.4062,-63.211 -8.7834,0 -19.7708,2.3468 -30.75,4.6875 -41.721,9.3629 -79.0547,42.1307 -79.0547,88.9453 0,9.363 2.2104,18.7183 4.4062,30.4219 8.1267,29.6537 19.0347,56.9838 31.5469,82.9453 z"
     style="font-size:2267.13px;font-family:'Hiragino Maru Gothic ProN';-inkscape-font-specification:'Hiragino Maru Gothic ProN';fill:#459bb5;stroke-width:188.926"
     id="path25" /><path
     d="m 3559.8516,3666.0469 c 4.6609,95.4979 50.9822,140.1315 225.2109,179.9297 l 136.1484,30.4453 c 185.552,41.0805 298.3688,93.3489 354.8672,192.1875 -33.5549,-162.9762 -151.153,-234.616 -388.1484,-287.086 l -136.1484,-30.4453 c -102.8678,-23.4976 -160.3267,-48.877 -191.9297,-85.0312 z"
     style="font-size:2267.13px;font-family:'Hiragino Maru Gothic ProN';-inkscape-font-specification:'Hiragino Maru Gothic ProN';fill:#459bb5;stroke-width:188.926"
     id="path23" /><path
     d="m 3780.3281,3201.0234 c -283.2633,0 -454.5234,145.1187 -454.5234,358.125 0,77.4506 13.9357,139.8562 43.0547,191.0391 -5.8462,-29.5099 -9.7735,-60.7884 -9.7735,-96.1406 0,-213.0064 171.2601,-358.125 454.5235,-358.125 210.0848,0 354.5068,82.0205 425.6484,214.0078 -0.011,-9.3401 -2.1923,-18.6912 -4.3828,-28.0313 -54.896,-170.8732 -210.8086,-280.875 -454.5469,-280.875 z"
     style="font-size:2267.13px;font-family:'Hiragino Maru Gothic ProN';-inkscape-font-specification:'Hiragino Maru Gothic ProN';fill:#459bb5;stroke-width:188.926"
     id="path20" /><path
     d="m 6648.0937,3872.8125 c -256.9132,7.0222 -377.682,30.412 -465.5156,77.2266 -87.8336,46.8146 -133.9453,119.3949 -133.9453,231.75 0,46.09 12.6807,86.3901 35.4844,118.7812 -0.8063,-7.9324 -2.2031,-15.5653 -2.2031,-23.8828 0,-112.355 46.1117,-184.9354 133.9453,-231.75 83.5029,-44.5064 200.513,-67.3342 432.2343,-75.5625 z"
     style="font-size:2267.13px;font-family:'Hiragino Maru Gothic ProN';-inkscape-font-specification:'Hiragino Maru Gothic ProN';fill:#de7100;stroke-width:188.926"
     id="path62" /><path
     d="m 5104.4297,3385.9219 c -241.5424,0 -377.6953,208.3324 -377.6953,496.2422 0,108.6902 20.0407,206.2161 57.1875,285.7031 -15.3125,-58.1182 -23.9063,-121.994 -23.9063,-190.8047 0,-287.9097 136.1529,-496.2422 377.6953,-496.2422 132.9293,0 229.2525,68.5266 285.3516,188.625 -45.169,-178.5492 -153.8824,-283.5234 -318.6328,-283.5234 z"
     style="font-size:2267.13px;font-family:'Hiragino Maru Gothic ProN';-inkscape-font-specification:'Hiragino Maru Gothic ProN';fill:#de7100;stroke-width:188.926"
     id="path59" /><path
     d="m 9785.9531,3374.2266 c -210.8006,0 -324.9853,149.8038 -353.5312,379.1953 h 51.9844 c 45.9883,-174.5692 154.9261,-284.2969 334.8281,-284.2969 141.5396,0 229.3836,84.4329 278.8826,191.8125 -36.431,-148.6081 -130.5916,-286.7109 -312.1639,-286.7109 z"
     style="font-size:2267.13px;font-family:'Hiragino Maru Gothic ProN';-inkscape-font-specification:'Hiragino Maru Gothic ProN';fill:#de7100;stroke-width:188.926"
     id="path56" /><path
     d="m 7396.875,3337.3594 v 27.5156 c 0,32.7702 -8.7802,72.5405 -13.1719,109.9922 9.1555,-29.2787 23.8128,-60.7007 43.4063,-91.4063 -4.7601,-20.096 -15.6625,-35.1479 -30.2344,-46.1015 z"
     style="font-size:2267.13px;font-family:'Hiragino Maru Gothic ProN';-inkscape-font-specification:'Hiragino Maru Gothic ProN';fill:#de7100;stroke-width:188.926"
     id="path55" /><path
     d="m 7923.6094,3326.3906 c -9.4792,-5.5534 -20.58,-9.8067 -34.5,-11.7422 -30.7418,-7.0222 -54.9062,-11.7187 -87.8438,-11.7187 -15.3709,0 -30.7379,0 -48.3047,2.3437 -188.8422,7.0222 -300.8431,152.1606 -335.9765,264.5157 4.3917,-37.4517 13.1718,-77.2455 13.1718,-110.0157 v -51.5156 c 0,-9.0098 -1.2286,-17.1209 -3.0468,-24.7969 -19.5935,30.7056 -34.2508,62.1276 -43.4063,91.4063 4.3917,-37.4517 13.1719,-77.222 13.1719,-109.9922 v -27.5156 c -17.4587,-13.1236 -40.0392,-20.3906 -65.5313,-20.3906 -61.4835,0 -103.1953,30.43 -103.1953,91.289 v 1118.7656 c 17.7872,13.1346 41.6008,19.9219 69.9141,19.9219 54.896,0 98.8125,-30.4331 98.8125,-93.6328 v -646.0547 c 2.1958,-98.3106 35.1347,-184.9248 92.2266,-259.8281 54.896,-74.9034 127.3679,-126.378 221.789,-128.7188 46.1127,0 74.6567,7.0169 105.3985,14.0391 6.5875,2.3407 13.1703,2.3438 19.7578,2.3438 46.1126,0 76.8572,-42.1338 85.6406,-91.2891 0.9608,-6.1452 1.145,-11.465 1.9219,-17.4141 z"
     style="font-size:2267.13px;font-family:'Hiragino Maru Gothic ProN';-inkscape-font-specification:'Hiragino Maru Gothic ProN';fill:#de7100;stroke-width:188.926"
     id="path53" /><path
     d="m 7923.6094,3326.3906 c -0.7769,5.9491 -0.9611,11.2689 -1.9219,17.4141 -8.7834,49.1553 -39.528,91.2891 -85.6406,91.2891 -6.5875,0 -13.1703,-0 -19.7578,-2.3438 -30.7418,-7.0222 -59.2858,-14.0391 -105.3985,-14.0391 -94.4211,2.3408 -166.893,53.8154 -221.789,128.7188 -57.0919,74.9033 -90.0308,161.5175 -92.2266,259.8281 v 646.0547 c 0,63.1997 -43.9165,93.6328 -98.8125,93.6328 -28.3133,0 -52.1269,-6.7873 -69.9141,-19.9219 v 21.1875 c 0,63.1997 41.7118,93.6329 103.1953,93.6328 54.8961,0 98.8125,-30.4331 98.8125,-93.6328 v -646.0546 c 2.1959,-98.3107 35.1348,-184.9014 92.2266,-259.8047 54.896,-74.9034 127.368,-126.4015 221.7891,-128.7422 46.1126,0 74.6567,7.0168 105.3984,14.039 6.5875,2.3408 13.1703,2.3438 19.7578,2.3438 46.1127,0 76.8573,-42.1338 85.6406,-91.2891 2.1959,-14.0444 4.4063,-28.0932 4.4063,-39.7968 0,-32.216 -10.8526,-57.9204 -35.7656,-72.5157 z"
     style="font-size:2267.13px;font-family:'Hiragino Maru Gothic ProN';-inkscape-font-specification:'Hiragino Maru Gothic ProN';fill:#de7100;stroke-width:188.926"
     id="path52" /><path
     d="m 10288.266,4244.5078 c -1.642,4.8391 -3.021,9.6687 -6.047,14.5078 -70.267,154.4882 -197.635,308.9766 -483.094,308.9766 -241.4985,0 -414.4253,-122.5092 -502.4297,-325.0781 71.634,258.7218 258.5444,419.9765 535.711,419.9765 285.4587,0 412.8267,-154.4884 483.0937,-308.9765 8.783,-14.0444 10.992,-28.0728 10.992,-42.1172 0,-29.9141 -15.878,-52.3719 -38.226,-67.2891 z"
     style="font-size:2267.13px;font-family:'Hiragino Maru Gothic ProN';-inkscape-font-specification:'Hiragino Maru Gothic ProN';fill:#de7100;stroke-width:188.926"
     id="path50" /><path
     d="m 10281.469,3617.3672 c -80.096,-185.9756 -236,-319.1016 -462.2346,-319.1016 -357.922,0 -555.5391,283.2257 -555.5391,688.1719 0,93.2772 11.5612,179.0456 33,256.4766 88.0044,202.5689 260.9312,325.0781 502.4297,325.0781 285.459,0 412.827,-154.4884 483.094,-308.9766 3.026,-4.8391 4.405,-9.6687 6.047,-14.5078 -9.129,-6.0932 -19.034,-11.2543 -29.86,-14.6484 -15.371,-4.6815 -30.73,-9.3516 -46.101,-9.3516 -30.742,0 -59.292,16.3903 -79.055,58.5234 -52.7,124.0587 -140.5401,208.3125 -298.6406,208.3125 -183.9463,0 -304.8456,-109.372 -352.3125,-292.3828 -35.4898,-73.2239 -54.8425,-164.5537 -56.461,-270.6562 h 772.9451 c 68.071,0 109.782,-44.4759 109.782,-128.7422 v -18.7266 c -3.932,-54.9027 -13.127,-108.4206 -27.094,-159.4687 z m -495.5159,-243.1406 c 181.5723,0 275.7329,138.1028 312.1639,286.7109 21.15,45.8817 36.034,95.513 43.922,145.2656 v 11.6953 c 0,21.0666 -8.799,30.4219 -32.953,30.4219 h -643.3829 c 4.1842,-33.6237 10.8045,-64.9156 18.7032,-94.8984 h -51.9844 c 28.5459,-229.3915 142.7306,-379.1953 353.5312,-379.1953 z"
     style="font-size:2267.13px;font-family:'Hiragino Maru Gothic ProN';-inkscape-font-specification:'Hiragino Maru Gothic ProN';fill:#de7100;stroke-width:188.926"
     id="path48" /><path
     d="m 10281.469,3617.3672 c 13.967,51.0481 23.162,104.566 27.094,159.4687 v 18.7266 c 0,84.2663 -41.711,128.7422 -109.782,128.7422 h -772.9451 c 1.6185,106.1025 20.9712,197.4323 56.461,270.6562 -13.7293,-52.9338 -22.1944,-111.1656 -23.1797,-175.7578 h 772.9458 c 68.071,0 109.781,-44.4759 109.781,-128.7422 v -18.7265 c -6.463,-90.2506 -26.969,-176.7999 -60.375,-254.3672 z"
     style="font-size:2267.13px;font-family:'Hiragino Maru Gothic ProN';-inkscape-font-specification:'Hiragino Maru Gothic ProN';fill:#de7100;stroke-width:188.926"
     id="path47" /><path
     d="m 6644.9062,3557.625 c -15.217,-121.7044 -94.3543,-176.3672 -249.3281,-176.3672 -160.2963,0 -239.3504,65.5296 -276.6797,173.2031 -15.3708,44.4739 -48.3113,60.8672 -85.6406,60.8672 -17.5667,0 -35.1135,-2.3528 -50.4844,-9.375 -13.2948,-4.4754 -24.8009,-11.4307 -35.2265,-19.4062 -1.9647,8.4564 -3.961,16.9029 -3.961,25.3594 0,42.1331 30.7478,74.9009 72.4688,88.9453 15.3709,7.0222 32.9176,9.375 50.4844,9.375 37.3292,0 70.2697,-16.3934 85.6406,-60.8672 37.3293,-107.6736 116.3833,-173.2031 276.6797,-173.2031 106.5592,0 177.1815,25.9005 216.0468,81.4687 z"
     style="font-size:2267.13px;font-family:'Hiragino Maru Gothic ProN';-inkscape-font-specification:'Hiragino Maru Gothic ProN';fill:#de7100;stroke-width:188.926"
     id="path45" /><path
     d="m 6665.8125,4491.0937 c -0.028,-0.1286 -0.1137,-0.1989 -0.1406,-0.3281 -6.5875,-28.0887 -10.9761,-70.2323 -13.1719,-117.0469 -83.4419,100.6514 -199.8228,191.9297 -417.2109,191.9297 -163.4173,0 -283.4042,-66.6083 -344.0625,-184.2422 38.1809,176.1406 174.1495,279.1641 377.3437,279.1641 200.941,0 315.1463,-78.1833 397.2422,-169.4766 z"
     style="font-size:2267.13px;font-family:'Hiragino Maru Gothic ProN';-inkscape-font-specification:'Hiragino Maru Gothic ProN';fill:#de7100;stroke-width:188.926"
     id="path43" /><path
     d="m 6824.2734,3477.4453 c -63.7607,-122.1879 -194.2029,-179.1797 -393.2109,-179.1797 -177.863,0 -276.6768,39.7847 -353.5313,102.9844 -50.5043,42.1331 -107.604,110.0155 -129.5625,182.5781 -0.2125,0.9065 -0.2112,1.8123 -0.4218,2.7188 10.4256,7.9755 21.9317,14.9308 35.2265,19.4062 15.3709,7.0222 32.9177,9.375 50.4844,9.375 37.3293,0 70.2698,-16.3933 85.6406,-60.8672 37.3293,-107.6735 116.3834,-173.2031 276.6797,-173.2031 154.9738,0 234.1111,54.6628 249.3281,176.3672 24.4049,34.8932 36.4688,81.293 36.4688,140.8828 v 100.6641 c -234.9549,4.6814 -349.1272,18.725 -469.8984,53.8359 -208.6048,60.859 -331.5704,201.3074 -331.5704,421.3359 0,38.2772 4.1146,73.8201 11.3204,107.0625 60.6583,117.6339 180.6452,184.2422 344.0625,184.2422 217.3881,0 333.769,-91.2783 417.2109,-191.9297 2.1958,46.8146 6.5844,88.9582 13.1719,117.0469 0.027,0.1292 0.1131,0.1995 0.1406,0.3281 6.7196,-7.4724 13.6557,-14.8614 19.9687,-22.4765 0.9904,21.114 2.5695,40.7823 4.4532,59.1328 17.4942,13.1235 41.3338,19.1953 67.664,19.1953 h 19.7578 c 54.8961,-4.6814 87.8438,-37.4546 87.8438,-74.9062 0,-7.0222 -2.2104,-16.3919 -4.4063,-23.4141 -13.175,-44.4739 -24.1406,-124.0667 -24.1406,-205.9922 v -639.0234 c 0,-46.4355 -4.4664,-88.1957 -12.6797,-126.1641 z m -176.1797,395.3672 v 96.5625 c 12.0177,-0.4267 20.614,-1.3178 33.2813,-1.6641 v 156.8203 c 0,88.9478 -15.3728,133.4319 -57.0938,189.6094 -70.2668,93.6292 -184.4433,166.1719 -322.7812,166.1719 -122.7474,0 -206.3901,-71.5918 -217.3828,-179.7422 -22.8037,-32.3911 -35.4844,-72.6912 -35.4844,-118.7812 0,-112.3551 46.1117,-184.9354 133.9453,-231.75 87.8336,-46.8146 208.6024,-70.2044 465.5156,-77.2266 z"
     style="font-size:2267.13px;font-family:'Hiragino Maru Gothic ProN';-inkscape-font-specification:'Hiragino Maru Gothic ProN';fill:#de7100;stroke-width:188.926"
     id="path41" /><path
     d="m 6824.2734,3477.4453 c 8.2133,37.9684 12.6797,79.7286 12.6797,126.1641 v 639.0234 c 0,81.9255 10.9656,161.5183 24.1406,205.9922 2.1959,7.0222 4.4063,16.3919 4.4063,23.4141 0,37.4516 -32.9477,70.2248 -87.8438,74.9062 h -19.7578 c -26.3302,0 -50.1698,-6.0718 -67.664,-19.1953 2.2928,22.3367 5.1023,42.4937 8.7187,57.9141 8.7834,42.1331 48.3098,56.1797 92.2266,56.1796 h 19.7578 c 54.896,-4.6814 87.8437,-37.4545 87.8437,-74.9062 0,-7.0222 -2.2104,-16.3919 -4.4062,-23.4141 -13.175,-44.4738 -24.1406,-124.0666 -24.1406,-205.9922 v -639.0234 c 0,-89.3969 -15.4485,-162.5899 -45.961,-221.0625 z"
     style="font-size:2267.13px;font-family:'Hiragino Maru Gothic ProN';-inkscape-font-specification:'Hiragino Maru Gothic ProN';fill:#de7100;stroke-width:188.926"
     id="path40" /><path
     d="m 4731.1406,3335.4375 v 15.375 c 0,32.7702 -2.2015,88.9498 -8.789,128.7422 12.5924,-27.2301 26.884,-52.2886 42.0468,-76.2656 -0.084,-31.7413 -13.1423,-53.7069 -33.2578,-67.8516 z"
     style="font-size:2267.13px;font-family:'Hiragino Maru Gothic ProN';-inkscape-font-specification:'Hiragino Maru Gothic ProN';fill:#de7100;stroke-width:188.926"
     id="path38" /><path
     d="m 5615.2734,3596.9297 c -81.3766,-190.1623 -234.7505,-298.6641 -449.0156,-298.6641 -212.9965,0 -333.7706,109.9957 -410.625,276.1875 6.5875,-39.7924 8.7891,-95.972 8.7891,-128.7422 v -42.1171 c 0,-0.1084 -0.023,-0.1965 -0.024,-0.3047 -15.1628,23.977 -29.4544,49.0355 -42.0468,76.2656 6.5875,-39.7924 8.789,-95.972 8.789,-128.7422 v -15.375 c -16.8294,-11.834 -38.3912,-18.4687 -63.3515,-18.4687 -61.4836,0 -98.8125,30.43 -98.8125,91.289 v 1611.5156 c 16.5672,12.04 38.5364,18.7032 65.5312,18.7032 59.2877,0 96.6328,-32.7709 96.6328,-91.2891 v -514.9453 c 0,-42.1331 -2.2088,-91.2996 -10.9922,-135.7735 74.6586,163.8511 199.826,271.5235 404.0391,271.5235 327.1802,0 524.8125,-276.2095 524.8125,-692.8594 0,-103.1333 -11.5206,-196.2816 -33.7266,-278.2031 z m -510.8437,-211.0078 c 164.7504,0 273.4638,104.9742 318.6328,283.5234 37.497,80.2744 57.1875,183.3652 57.1875,305.2735 0,301.9541 -125.1655,503.2734 -346.9453,503.2734 -175.9028,0 -300.1058,-123.0948 -349.3828,-310.125 -37.1468,-79.487 -57.1875,-177.0129 -57.1875,-285.7031 0,-287.9098 136.1529,-496.2422 377.6953,-496.2422 z"
     style="font-size:2267.13px;font-family:'Hiragino Maru Gothic ProN';-inkscape-font-specification:'Hiragino Maru Gothic ProN';fill:#de7100;stroke-width:188.926"
     id="path36" /><path
     d="m 5615.2734,3596.9297 c 22.206,81.9215 33.7266,175.0698 33.7266,278.2031 0,416.6499 -197.6323,692.8594 -524.8125,692.8594 -204.2131,0 -329.3805,-107.6724 -404.0391,-271.5235 8.7834,44.4739 10.9922,93.6404 10.9922,135.7735 v 514.9453 c 0,58.5182 -37.3451,91.2891 -96.6328,91.2891 -26.9948,0 -48.964,-6.6632 -65.5312,-18.7032 v 22.336 c 0,58.5182 37.3289,91.289 98.8125,91.289 59.2876,0 96.6328,-32.7708 96.6328,-91.289 v -514.9688 c 0,-42.1331 -2.2089,-91.2996 -10.9922,-135.7734 74.6586,163.851 199.8259,271.5234 404.039,271.5234 327.1802,0 524.8126,-276.1861 524.8125,-692.8359 0,-145.6116 -23.2893,-270.963 -67.0078,-373.125 z"
     style="font-size:2267.13px;font-family:'Hiragino Maru Gothic ProN';-inkscape-font-specification:'Hiragino Maru Gothic ProN';fill:#de7100;stroke-width:188.926"
     id="path35" /><path
     d="m 8840.2969,4163.1328 c -7.2249,-101.1985 -68.539,-159.6164 -255.4688,-199.0312 l -125.1562,-25.7578 c -176.0174,-36.6111 -284.515,-92.3873 -339,-188.1563 30.9269,156.1103 145.1315,235.8083 372.2812,283.0547 L 8618.1094,4059 c 118.7316,25.035 186.2746,57.8387 222.1875,104.1328 z"
     style="font-size:2267.13px;font-family:'Hiragino Maru Gothic ProN';-inkscape-font-specification:'Hiragino Maru Gothic ProN';fill:#de7100;stroke-width:188.926"
     id="path33" /><path
     d="m 9027.8906,4068.6563 c 6.8551,33.3153 11.4844,69.0821 11.4844,110.789 0,224.71 -180.0589,390.8906 -487.4766,390.8906 -241.0743,0 -395.921,-88.3383 -471.3047,-244.7812 0.7306,4.0251 0.8699,7.3685 1.7344,11.9765 57.0919,208.325 221.7841,327.7032 502.8516,327.7032 307.4176,0 487.4765,-166.1806 487.4766,-390.8907 0,-85.9943 -14.363,-152.4769 -44.7657,-205.6874 z"
     style="font-size:2267.13px;font-family:'Hiragino Maru Gothic ProN';-inkscape-font-specification:'Hiragino Maru Gothic ProN';fill:#de7100;stroke-width:188.926"
     id="path31" /><path
     d="m 8991.0703,3510 c 0,44.4739 -37.3264,74.8979 -76.8515,86.6016 -10.9793,2.3407 -24.1537,4.6875 -35.1329,4.6875 -39.5251,0 -79.0676,-18.7371 -90.0468,-63.211 -28.546,-105.3328 -125.1497,-159.164 -250.3125,-159.164 -177.8631,0 -261.3047,77.2362 -261.3047,175.5468 0,47.6346 9.1655,82.9329 34.2422,111.6094 -0.2743,-5.6101 -0.961,-10.7355 -0.961,-16.7109 0,-98.3107 83.4417,-175.5469 261.3047,-175.5469 125.1629,0 221.7666,53.8312 250.3125,159.1641 10.9792,44.4738 50.5218,63.2109 90.0469,63.2109 10.9792,0 24.1536,-2.3468 35.1328,-4.6875 39.5251,-11.7036 76.8516,-42.1277 76.8516,-86.6016 0,-9.3629 -2.2104,-18.7386 -4.4063,-28.1015 -7.572,-23.5692 -17.4941,-45.6725 -28.875,-66.7969 z"
     style="font-size:2267.13px;font-family:'Hiragino Maru Gothic ProN';-inkscape-font-specification:'Hiragino Maru Gothic ProN';fill:#de7100;stroke-width:188.926"
     id="path29" /><path
     d="m 8991.0703,3509.9766 c -71.1327,-132.0144 -215.5391,-214.0547 -425.6484,-214.0547 -283.2634,0 -454.5469,145.1186 -454.5469,358.125 0,35.3522 3.9507,66.6307 9.7969,96.1406 54.485,95.769 162.9826,151.5452 339,188.1563 l 125.1562,25.7578 c 186.9298,39.4148 248.2439,97.8327 255.4688,199.0312 24.5273,31.6174 34.7343,69.3536 34.7344,115.8984 0,119.3773 -114.1844,201.2813 -289.8516,201.2813 -173.4714,0 -263.4983,-67.8627 -303.0234,-203.625 -13.1751,-44.4739 -52.7088,-63.2109 -94.4297,-63.2109 -8.7834,0 -19.7474,2.3467 -30.7266,4.6875 -41.721,9.3629 -79.0547,42.1307 -79.0547,88.9453 0,5.6765 1.5235,12.2471 2.6484,18.4453 75.3837,156.4429 230.2304,244.7812 471.3047,244.7812 307.4177,0 487.4766,-166.1806 487.4766,-390.8906 0,-41.7069 -4.6293,-77.4737 -11.4844,-110.789 -56.4897,-98.8681 -169.2868,-151.1476 -354.8672,-192.2344 l -136.1484,-30.4453 c -174.2144,-39.795 -220.5434,-84.4247 -225.2109,-179.9063 -25.0767,-28.6765 -34.2422,-63.9748 -34.2422,-111.6094 0,-98.3106 83.4416,-175.5468 261.3047,-175.5468 125.1628,0 221.7665,53.8312 250.3125,159.164 10.9792,44.4739 50.5217,63.211 90.0468,63.211 10.9792,0 24.1536,-2.3468 35.1329,-4.6875 39.5251,-11.7037 76.8515,-42.1277 76.8515,-86.6016 z"
     style="font-size:2267.13px;font-family:'Hiragino Maru Gothic ProN';-inkscape-font-specification:'Hiragino Maru Gothic ProN';fill:#de7100;stroke-width:188.926"
     id="path28" /><path
     d="m 4088.4844,4163.1328 c -7.2249,-101.1985 -68.5156,-159.6164 -255.4453,-199.0312 l -125.1797,-25.7578 c -176.0174,-36.6111 -284.515,-92.3873 -339,-188.1563 30.9269,156.1103 145.1315,235.8083 372.2812,283.0547 L 3866.3203,4059 c 118.7291,25.0345 186.2506,57.8402 222.1641,104.1328 z"
     style="font-size:2267.13px;font-family:'Hiragino Maru Gothic ProN';-inkscape-font-specification:'Hiragino Maru Gothic ProN';fill:#de7100;stroke-width:188.926"
     id="path26" /><path
     d="m 4276.0781,4068.6094 c 6.8618,33.3274 11.4844,69.1092 11.4844,110.8359 0,224.71 -180.0589,390.8906 -487.4766,390.8906 -241.0593,0 -395.8923,-88.3332 -471.2812,-244.7578 0.7296,4.0179 0.8716,7.3545 1.7344,11.9531 57.0918,208.325 221.7606,327.7032 502.8281,327.7032 307.4176,0 487.4765,-166.1806 487.4765,-390.8907 0,-86.0188 -14.3449,-152.5164 -44.7656,-205.7343 z"
     style="font-size:2267.13px;font-family:'Hiragino Maru Gothic ProN';-inkscape-font-specification:'Hiragino Maru Gothic ProN';fill:#de7100;stroke-width:188.926"
     id="path24" /><path
     d="m 4239.2578,3509.9297 c -71.1416,-131.9873 -215.5636,-214.0078 -425.6484,-214.0078 -283.2634,0 -454.5235,145.1186 -454.5235,358.125 0,35.3522 3.9273,66.6307 9.7735,96.1406 54.485,95.769 162.9826,151.5452 339,188.1563 l 125.1797,25.7578 c 186.9297,39.4148 248.2204,97.8327 255.4453,199.0312 24.529,31.618 34.7343,69.3521 34.7343,115.8984 0,119.3773 -114.1843,201.2813 -289.8515,201.2813 -173.4714,0 -263.4983,-67.8627 -303.0234,-203.625 -13.1751,-44.4739 -52.6853,-63.2109 -94.4063,-63.2109 -8.7834,0 -19.7708,2.3467 -30.75,4.6875 -41.721,9.3629 -79.0547,42.1307 -79.0547,88.9453 0,5.684 1.5447,12.2611 2.6719,18.4687 75.3889,156.4246 230.2219,244.7578 471.2812,244.7578 307.4177,0 487.4766,-166.1806 487.4766,-390.8906 0,-41.7267 -4.6226,-77.5085 -11.4844,-110.8359 -56.4984,-98.8386 -169.3152,-151.107 -354.8672,-192.1875 l -136.1484,-30.4453 c -174.2287,-39.7982 -220.55,-84.4318 -225.2109,-179.9297 -25.0639,-28.6734 -34.2422,-63.9618 -34.2422,-111.586 0,-98.3106 83.4416,-175.5468 261.3047,-175.5468 125.1628,0 221.79,53.8312 250.3359,159.164 10.9792,44.4739 50.4983,63.211 90.0234,63.211 10.9792,0 24.1536,-2.3468 35.1328,-4.6875 39.5252,-11.7037 76.8516,-42.1277 76.8516,-86.6016 0,-0.023 0,-0.047 0,-0.07 z"
     style="font-size:2267.13px;font-family:'Hiragino Maru Gothic ProN';-inkscape-font-specification:'Hiragino Maru Gothic ProN';fill:#de7100;stroke-width:188.926"
     id="path22" /><path
     d="m 4239.2578,3509.9297 c 0,0.023 0,0.047 0,0.07 0,44.4739 -37.3264,74.8979 -76.8516,86.6016 -10.9792,2.3407 -24.1536,4.6875 -35.1328,4.6875 -39.5251,0 -79.0442,-18.7371 -90.0234,-63.211 -28.5459,-105.3328 -125.1731,-159.164 -250.3359,-159.164 -177.8631,0 -261.3047,77.2362 -261.3047,175.5468 0,47.6242 9.1783,82.9126 34.2422,111.586 -0.2735,-5.6028 -0.961,-10.7205 -0.961,-16.6875 0,-98.3107 83.4417,-175.5469 261.3047,-175.5469 125.1629,0 221.79,53.8312 250.336,159.1641 10.9792,44.4738 50.4983,63.2109 90.0234,63.2109 10.9792,0 24.1536,-2.3468 35.1328,-4.6875 39.5251,-11.7036 76.8516,-42.1277 76.8516,-86.6016 0,-9.3629 -2.187,-18.7386 -4.3829,-28.1015 -7.5796,-23.5929 -17.5022,-45.7242 -28.8984,-66.8672 z"
     style="font-size:2267.13px;font-family:'Hiragino Maru Gothic ProN';-inkscape-font-specification:'Hiragino Maru Gothic ProN';fill:#de7100;stroke-width:188.926"
     id="path21" /></svg>
