<svg xmlns="http://www.w3.org/2000/svg" xmlns:svg="http://www.w3.org/2000/svg" id="Layer_1" width="449.8" height="406.6" x="0" y="0" version="1.1" viewBox="0 0 674.7 609.9" xml:space="preserve"><metadata id="metadata171"/><style id="style2" type="text/css">.st0{fill:#452392}.st1{fill:#404040}.st2{fill:#c32452}</style><g id="g164" transform="translate(-8.5994861,-15.863297)"><path id="path4" d="M 93.7,317.9 C 68.5,317.9 57,298.1 54.1,292.1 l -0.4,-0.9 0.4,-0.9 c 2.9,-6 14.4,-25.8 39.6,-25.8 25.2,0 36.7,19.8 39.6,25.8 l 0.4,0.9 -0.4,0.9 c -2.9,6.1 -14.4,25.8 -39.6,25.8 z M 58.1,291.3 c 3.8,7.5 14.2,22.7 35.6,22.7 21.4,0 31.8,-15.2 35.6,-22.7 -3.8,-7.5 -14.2,-22.7 -35.6,-22.7 -21.4,0 -31.8,15.2 -35.6,22.7 z" class="st0"/><path id="path6" d="m 93.7,304.8 c -7.5,0 -13.5,-6 -13.5,-13.5 0,-7.5 6,-13.5 13.5,-13.5 7.5,0 13.5,6 13.5,13.5 0,0 0,0 0,0 0,7.4 -6,13.5 -13.5,13.5 z m 0,-23 c -5.3,0 -9.5,4.3 -9.5,9.5 0,5.3 4.3,9.5 9.5,9.5 5.2,0 9.5,-4.3 9.5,-9.5 0,0 0,0 0,0 0,-5.3 -4.2,-9.5 -9.5,-9.5 0,-0.1 0,-0.1 0,0 z" class="st0"/><path id="path8" d="m 639.9,307.2 c 5.8,0 10.5,-4.7 10.5,-10.5 0,-5.8 -4.7,-10.5 -10.5,-10.5 -5.8,0 -10.5,4.7 -10.5,10.5 v 0 c 0,5.8 4.7,10.5 10.5,10.5 0,0 0,0 0,0 z m 0,-18.2 c 4.2,0 7.7,3.4 7.7,7.7 0,4.3 -3.4,7.7 -7.7,7.7 -4.2,0 -7.7,-3.4 -7.7,-7.7 v 0 c 0.1,-4.2 3.5,-7.6 7.7,-7.7 z" class="st0"/><path id="path10" d="m 602.7,284.3 c 3.6,0 6.5,-2.9 6.5,-6.5 0,-3.6 -2.9,-6.5 -6.5,-6.5 -3.6,0 -6.5,2.9 -6.5,6.5 0,0 0,0 0,0 v 0 c 0,3.6 2.9,6.5 6.5,6.5 z m 0,-10.2 c 2,0 3.6,1.5 3.7,3.5 0,2 -1.5,3.6 -3.5,3.7 -2,0 -3.6,-1.5 -3.7,-3.5 v -0.2 c 0.1,-1.9 1.6,-3.4 3.5,-3.5 z" class="st0"/><path id="path12" d="m 590,284.2 -3.3,3.8 5.8,5.7 3.8,-3.3 c 0.7,0.3 1.2,0.5 1.8,0.8 l 0.5,5 h 8.2 l 0.5,-5 c 0.7,-0.2 1.3,-0.5 1.8,-0.8 l 3.8,3.2 v 7 l 7,0.7 c 0.5,2.1 1.3,4.2 2.5,6 l -4.5,5.3 5.8,5.9 5.3,-4.5 c 1.9,1.2 4,2 6.2,2.5 l 0.5,7 h 8.2 l 0.7,-7 c 2.2,-0.5 4.3,-1.4 6.2,-2.5 l 5.3,4.5 5.8,-5.9 -4.5,-5.3 c 1.1,-1.9 2,-3.9 2.5,-6 l 7,-0.7 v -8 l -7,-0.7 c -0.5,-2.1 -1.3,-4.2 -2.5,-6 l 4.5,-5.3 -5.8,-5.9 -5.5,4.5 c -1.9,-1.2 -4,-2 -6.2,-2.5 l -0.7,-7 h -8 l -0.7,7 c -2.1,0.5 -4.2,1.3 -6,2.5 l -5.5,-4.5 -2.4,2.3 v -3.3 l -5,-0.5 c -0.2,-0.6 -0.5,-1.3 -0.8,-1.8 l 3.3,-3.8 -5.8,-5.8 -3.9,3.4 c -0.6,-0.3 -1.2,-0.6 -1.8,-0.8 l -0.5,-5 h -8.2 l -0.5,5 c -0.6,0.2 -1.3,0.5 -1.8,0.8 l -3.8,-3.3 -5.8,5.8 3.3,3.8 c -0.3,0.6 -0.6,1.2 -0.8,1.8 l -5,0.5 v 8.2 l 5,0.5 c 0.4,0.5 0.7,1.1 1,1.7 z m 33.9,-5.6 5,4.2 0.8,-0.7 c 2.1,-1.5 4.5,-2.5 7,-3 l 1.2,-0.2 0.7,-6.5 h 2.8 l 0.5,6.5 1.2,0.2 c 2.5,0.5 4.9,1.5 7,2.8 l 0.8,0.7 5,-4.2 2,2 -4.2,5 0.7,0.8 c 1.5,2.1 2.5,4.5 2.8,7 l 0.2,1 6.6,0.7 v 3 l -6.3,0.7 -0.2,1 c -0.5,2.5 -1.5,4.9 -2.8,7 l -0.7,0.8 4.2,5 -2.2,2.2 -5,-4.2 -0.8,0.7 c -2.1,1.5 -4.5,2.5 -7,2.8 l -1.2,0.2 -0.5,6.5 h -2.9 l -0.7,-6.5 -1.2,-0.2 c -2.5,-0.5 -4.9,-1.5 -7,-2.8 l -0.8,-0.7 -5,4.2 -2,-2.2 4.2,-5 -0.7,-0.8 c -1.5,-2.1 -2.5,-4.5 -2.8,-7 l -0.2,-1 -6.5,-0.7 v -3 l 6.5,-0.7 0.2,-1 c 0.5,-2.5 1.5,-4.9 2.8,-7 l 0.7,-0.8 -4.2,-5 z m -1.3,7.2 c -1.1,1.9 -2,3.9 -2.5,6 l -5.5,0.5 4.4,-4.3 -3.3,-4 c 0.3,-0.7 0.5,-1.2 0.8,-1.8 l 3,-0.3 z m -35.4,-9.5 4.3,-0.5 0.2,-1 c 0.3,-1 0.7,-2 1.2,-3 l 0.5,-0.8 -2.8,-3.3 2,-2 3.5,2.8 0.8,-0.5 c 0.9,-0.6 1.9,-1 3,-1.2 l 1,-0.3 0.3,-4.5 h 3 l 0.3,4.5 1,0.3 c 1,0.3 2,0.7 3,1.2 l 0.8,0.5 3.5,-2.8 2,2 -2.8,3.5 0.5,0.8 c 0.6,0.9 1,1.9 1.2,3 l 0.3,1 4.5,0.3 v 2.8 l -4.5,0.3 -0.3,1 c -0.3,1.1 -0.8,2.1 -1.3,3 l -0.5,0.8 2.8,3.3 -2,2.2 -3.3,-2.8 -0.8,0.5 c -0.9,0.6 -1.9,1 -3,1.2 l -1,0.3 -0.3,4.5 h -2.8 l -0.5,-4.4 -1,-0.2 c -1.1,-0.3 -2.1,-0.8 -3,-1.3 l -0.8,-0.5 -3.5,2.8 -2,-2 2.8,-3.3 -0.5,-0.8 c -0.5,-0.9 -0.9,-1.9 -1.2,-3 l -0.2,-1 -4.7,-0.5 z" class="st0"/><polygon id="polygon14" points="198.1 293.1 356.7 295.1 356.7 437.4 352.2 437.4 358.3 450.3 364.6 437.3 360.7 437.4 360.7 291.2 198.2 289.1" class="st1"/><polygon id="polygon16" points="292.7 75.6 292.7 71.6 94.6 71.6 94.6 231.4 90.8 231.4 96.8 244.3 103.2 231.3 98.8 231.4 98.7 224.8 98.6 224.9 98.6 75.6" class="st1"/><polygon id="polygon18" points="98.6 549.6 98.6 381.1 94.6 381.1 94.6 553.6 279.8 553.6 279.8 557.8 292.7 551.8 279.7 545.4 279.8 549.6" class="st1"/><polygon id="polygon20" points="427.3 73.4 440.3 79.8 440.2 75.4 440.2 75.6 622.9 75.6 622.9 246.1 626.9 246.1 626.9 71.6 440.2 71.6 440.2 71.9 440.2 67.4" class="st1"/><polygon id="polygon22" points="424.7 553.6 627.2 553.6 627.2 393.8 631.2 393.8 625.2 380.9 618.8 393.9 623.2 393.8 623.2 395 623.2 549.6 424.7 549.6" class="st1"/><path id="path24" d="m 278.5,134.9 h 10.1 v 2.2 h -7.4 v 4.5 h 6.7 v 2.2 h -6.7 v 5.2 h 7.4 v 2.2 h -10.2 v -16.3 z"/><path id="path26" d="m 291.6,134.9 h 2.5 l 6.9,9.8 c 0.3,0.4 0.6,0.9 0.9,1.4 0.3,0.5 0.5,0.9 0.7,1.2 v 0 c -0.1,-1.3 -0.1,-2.6 -0.1,-3.8 V 135 h 2.7 v 16.4 h -2.5 l -6.6,-9.5 c -0.3,-0.5 -0.6,-1 -1,-1.5 -0.4,-0.5 -0.6,-1 -0.8,-1.5 v 0 c 0.1,1.4 0.1,2.7 0.1,4 v 8.5 h -2.7 z"/><path id="path28" d="m 310,134.9 3.2,9 c 0.1,0.3 0.2,0.6 0.4,1 l 0.4,1.1 c 0.1,0.4 0.3,0.8 0.4,1.2 0.1,0.4 0.2,0.8 0.4,1.1 h 0.1 c 0.1,-0.3 0.2,-0.7 0.3,-1.1 l 0.4,-1.1 c 0.1,-0.4 0.2,-0.8 0.4,-1.1 0.2,-0.3 0.2,-0.6 0.3,-0.9 l 3.3,-9.1 h 2.9 l -6.2,16.4 h -2.9 L 307.2,135 Z"/><path id="path30" d="m 327.1,134.9 v 16.4 h -2.8 v -16.4 z"/><path id="path32" d="m 331.1,134.9 h 5.6 c 0.8,0 1.6,0.1 2.3,0.4 0.6,0.2 1.2,0.6 1.7,1 0.4,0.4 0.8,1 1,1.6 0.2,0.6 0.4,1.3 0.3,2 0,0.6 -0.1,1.2 -0.3,1.7 -0.2,0.5 -0.4,0.9 -0.8,1.3 -0.3,0.4 -0.7,0.7 -1.1,1 -0.4,0.3 -0.8,0.5 -1.2,0.6 l 4.2,6.8 h -3.1 l -3.6,-6.3 h -2.4 v 6.3 H 331 v -16.4 z m 2.7,7.9 h 1.8 c 0.5,0 1,0 1.4,-0.2 0.4,-0.1 0.8,-0.3 1.1,-0.5 0.3,-0.2 0.6,-0.5 0.8,-0.9 0.2,-0.4 0.3,-0.8 0.3,-1.3 0.1,-0.8 -0.2,-1.6 -0.8,-2.2 -0.7,-0.5 -1.5,-0.8 -2.4,-0.7 h -2.1 v 5.8 z"/><path id="path34" d="m 352.4,134.6 c 1.1,0 2.1,0.2 3.1,0.6 0.9,0.3 1.8,0.9 2.5,1.6 0.7,0.8 1.3,1.7 1.6,2.6 0.4,1.2 0.6,2.4 0.6,3.6 0,1.2 -0.2,2.4 -0.6,3.6 -0.4,1 -0.9,1.9 -1.7,2.6 -0.7,0.7 -1.6,1.3 -2.5,1.6 -1,0.4 -2.1,0.6 -3.1,0.6 -1.1,0 -2.1,-0.2 -3.1,-0.5 -0.9,-0.4 -1.8,-0.9 -2.5,-1.6 -0.7,-0.8 -1.3,-1.7 -1.6,-2.6 -0.8,-2.4 -0.8,-4.9 0,-7.2 0.4,-1 0.9,-1.9 1.7,-2.6 0.7,-0.7 1.6,-1.3 2.5,-1.6 0.9,-0.5 2,-0.7 3.1,-0.7 z m -4.9,8.5 c 0,0.9 0.1,1.9 0.4,2.8 0.2,0.7 0.6,1.4 1,2 0.4,0.5 1,0.9 1.6,1.2 0.6,0.3 1.3,0.4 1.9,0.4 0.7,0 1.3,-0.1 1.9,-0.4 0.6,-0.3 1.1,-0.7 1.5,-1.2 0.5,-0.6 0.8,-1.3 1,-2 0.3,-0.9 0.4,-1.8 0.4,-2.8 0,-1 -0.1,-1.9 -0.4,-2.8 -0.2,-0.7 -0.6,-1.4 -1,-1.9 -0.4,-0.5 -1,-0.9 -1.6,-1.1 -0.6,-0.2 -1.3,-0.4 -1.9,-0.4 -0.7,0 -1.3,0.1 -1.9,0.4 -0.6,0.3 -1.1,0.7 -1.5,1.2 -0.5,0.6 -0.8,1.3 -1,2 -0.3,0.8 -0.4,1.7 -0.4,2.6 z"/><path id="path36" d="m 363.3,134.9 h 2.5 l 6.9,9.8 c 0.3,0.4 0.6,0.9 0.9,1.4 0.3,0.5 0.5,0.9 0.7,1.2 v 0 c -0.1,-1.3 -0.1,-2.6 -0.1,-3.8 V 135 h 2.7 v 16.4 h -2.5 l -6.7,-9.5 c -0.3,-0.5 -0.6,-1 -1,-1.5 -0.4,-0.5 -0.6,-1 -0.8,-1.5 v 0 c 0.1,1.4 0.1,2.7 0.1,4 v 8.5 h -2.6 v -16.5 z"/><path id="path38" d="m 381.8,134.9 h 3.6 l 2.9,8.8 c 0.2,0.8 0.5,1.4 0.6,2 0.1,0.6 0.4,1.3 0.6,2 h 0.1 c 0.2,-0.6 0.4,-1.3 0.6,-2 0.2,-0.7 0.4,-1.4 0.6,-2 l 2.8,-8.8 h 3.6 l 1.4,16.4 h -2.7 c -0.1,-1.7 -0.3,-3.5 -0.4,-5.2 -0.1,-1.7 -0.2,-3.5 -0.3,-5.3 l -0.1,-3 v 0 c -0.3,1.1 -0.6,2.2 -0.9,3.3 -0.3,1.1 -0.7,2.2 -1,3.2 l -2.3,7 h -2.4 l -2.3,-7.1 c -0.2,-0.8 -0.5,-1.4 -0.6,-2 -0.1,-0.6 -0.4,-1.2 -0.5,-1.7 -0.1,-0.5 -0.3,-1 -0.4,-1.4 l -0.3,-1.3 H 384 c 0,1.5 -0.1,3 -0.2,4.5 -0.1,1.5 -0.2,3 -0.3,4.4 l -0.3,4.6 h -2.6 z"/><path id="path40" d="m 402,134.9 h 10.1 v 2.2 h -7.4 v 4.5 h 6.7 v 2.2 h -6.7 v 5.2 h 7.4 v 2.2 H 402 Z"/><path id="path42" d="m 415.2,134.9 h 2.5 l 6.9,9.8 c 0.3,0.4 0.6,0.9 0.9,1.4 0.3,0.5 0.5,0.9 0.7,1.2 v 0 c -0.1,-1.3 -0.1,-2.6 -0.1,-3.8 V 135 h 2.7 v 16.4 h -2.5 l -6.7,-9.5 c -0.3,-0.5 -0.6,-1 -1,-1.5 -0.4,-0.5 -0.6,-1 -0.8,-1.5 h -0.1 c 0.1,1.4 0.1,2.7 0.1,4 v 8.5 h -2.6 z"/><path id="path44" d="m 443.5,134.9 v 2.3 h -4.9 v 14.1 h -2.8 V 137.2 H 431 v -2.3 z"/><path id="path46" d="m 592.7,347.9 h 2.7 l 6.4,16.4 h -2.9 l -1.6,-4.3 h -6.4 l -1.6,4.3 h -2.9 z m -1.2,10 h 5 l -1,-2.6 c -0.3,-0.7 -0.5,-1.4 -0.8,-2 -0.3,-0.6 -0.5,-1.4 -0.7,-2.2 v 0 c -0.3,0.8 -0.5,1.5 -0.7,2.1 -0.2,0.6 -0.5,1.4 -0.8,2.1 z"/><path id="path48" d="m 611.3,362.3 c 0.7,0 1.4,-0.1 2.1,-0.2 0.6,-0.1 1.1,-0.3 1.6,-0.6 l 0.6,2.2 c -0.6,0.3 -1.3,0.5 -1.9,0.6 -0.9,0.2 -1.8,0.3 -2.7,0.2 -1.1,0 -2.1,-0.2 -3.2,-0.6 -1,-0.4 -1.8,-0.9 -2.5,-1.6 -0.7,-0.8 -1.3,-1.7 -1.7,-2.6 -0.8,-2.3 -0.8,-4.8 0,-7.1 0.4,-1 0.9,-1.9 1.7,-2.7 0.7,-0.7 1.6,-1.3 2.6,-1.7 1.1,-0.4 2.2,-0.6 3.3,-0.6 0.9,0 1.8,0.1 2.7,0.3 0.6,0.2 1.3,0.4 1.9,0.7 l -0.7,2.1 c -0.5,-0.2 -1.1,-0.4 -1.7,-0.6 -0.6,-0.2 -1.2,-0.2 -1.9,-0.2 -0.7,0 -1.4,0.1 -2.1,0.3 -0.7,0.2 -1.3,0.6 -1.7,1.1 -0.5,0.6 -0.9,1.2 -1.2,1.9 -0.6,1.9 -0.6,3.8 0,5.7 0.2,0.7 0.6,1.4 1.1,1.9 0.5,0.5 1,0.9 1.7,1.1 0.6,0.3 1.3,0.4 2,0.4 z"/><path id="path50" d="m 629.3,347.9 v 2.3 h -4.9 v 14.1 h -2.8 v -14.1 h -4.9 v -2.3 z"/><path id="path52" d="m 634.3,347.9 v 16.4 h -2.8 v -16.4 z"/><path id="path54" d="m 645.3,347.6 c 1.1,0 2.1,0.2 3.1,0.5 0.9,0.3 1.8,0.9 2.5,1.6 0.7,0.8 1.3,1.7 1.6,2.6 0.4,1.2 0.6,2.4 0.6,3.6 0,1.2 -0.2,2.4 -0.6,3.6 -0.4,1 -0.9,1.9 -1.7,2.6 -0.7,0.7 -1.6,1.3 -2.5,1.6 -1,0.4 -2.1,0.6 -3.1,0.6 -1.1,0 -2.1,-0.2 -3.1,-0.5 -0.9,-0.3 -1.8,-0.9 -2.5,-1.6 -0.7,-0.8 -1.3,-1.7 -1.6,-2.6 -0.4,-1.2 -0.6,-2.4 -0.6,-3.6 0,-1.2 0.2,-2.4 0.6,-3.6 0.4,-1 0.9,-1.9 1.7,-2.6 0.7,-0.7 1.6,-1.3 2.5,-1.6 1,-0.4 2.1,-0.6 3.1,-0.6 z m -4.9,8.5 c 0,0.9 0.1,1.9 0.4,2.8 0.2,0.7 0.5,1.4 1,2 0.4,0.5 1,0.9 1.6,1.2 0.6,0.3 1.3,0.4 1.9,0.4 0.7,0 1.3,-0.1 1.9,-0.4 0.6,-0.3 1.1,-0.7 1.5,-1.2 0.5,-0.6 0.8,-1.3 1,-2 0.3,-0.9 0.4,-1.8 0.4,-2.8 0,-1 -0.1,-1.9 -0.4,-2.8 -0.2,-0.7 -0.5,-1.4 -1,-2 -0.4,-0.5 -1,-0.9 -1.6,-1.1 -0.6,-0.2 -1.3,-0.4 -1.9,-0.4 -0.7,0 -1.3,0.1 -1.9,0.4 -0.6,0.3 -1.1,0.7 -1.5,1.2 -0.5,0.6 -0.8,1.3 -1,2 -0.3,0.9 -0.4,1.8 -0.4,2.7 z"/><path id="path56" d="m 656.3,347.9 h 2.5 l 6.9,9.8 c 0.3,0.5 0.6,0.9 0.9,1.4 0.3,0.5 0.5,0.9 0.7,1.2 v 0 c -0.1,-1.3 -0.1,-2.6 -0.1,-3.8 V 348 h 2.7 v 16.4 h -2.5 l -6.7,-9.5 c -0.3,-0.5 -0.7,-1 -1,-1.5 -0.3,-0.5 -0.6,-1 -0.8,-1.5 v 0 c 0.1,1.4 0.1,2.7 0.1,4 v 8.5 h -2.7 z"/><path id="path58" d="m 329.9,592.4 h 2.6 l 6.4,16.4 H 336 l -1.6,-4.3 h -6.5 l -1.6,4.3 h -2.9 z m -1.3,10 h 5 l -1,-2.7 c -0.3,-0.7 -0.5,-1.4 -0.8,-2 -0.3,-0.6 -0.5,-1.4 -0.7,-2.2 v 0 c -0.3,0.8 -0.5,1.5 -0.7,2.1 -0.2,0.6 -0.5,1.4 -0.8,2.1 z"/><path id="path60" d="m 348.3,592.2 c 1.7,0 3.3,0.3 4.8,1 l -0.6,2.1 c -0.6,-0.3 -1.2,-0.5 -1.9,-0.7 -0.7,-0.1 -1.3,-0.2 -2,-0.2 -0.7,0 -1.4,0.1 -2.1,0.3 -0.7,0.2 -1.3,0.6 -1.8,1.1 -0.6,0.6 -1,1.3 -1.2,2 -0.3,0.9 -0.5,1.9 -0.5,2.9 -0.1,1.7 0.4,3.3 1.4,4.6 1,1.1 2.4,1.7 3.9,1.6 0.5,0 1,0 1.5,-0.1 0.4,-0.1 0.8,-0.2 1.2,-0.3 v -4.3 h -3 V 600 h 5.6 v 8 c -0.8,0.3 -1.5,0.5 -2.3,0.7 -1,0.2 -2,0.3 -3,0.3 -1.1,0 -2.2,-0.2 -3.2,-0.5 -1,-0.4 -1.9,-0.9 -2.6,-1.6 -0.8,-0.7 -1.4,-1.6 -1.8,-2.6 -0.4,-1.2 -0.7,-2.4 -0.6,-3.6 0,-1.2 0.2,-2.5 0.6,-3.6 0.4,-1 1,-1.9 1.7,-2.7 0.7,-0.7 1.6,-1.2 2.6,-1.6 1.1,-0.5 2.2,-0.7 3.3,-0.6 z"/><path id="path62" d="m 357.1,592.4 h 10.1 v 2.2 h -7.4 v 4.5 h 6.7 v 2.2 h -6.7 v 5.2 h 7.4 v 2.2 H 357 v -16.3 z"/><path id="path64" d="m 370.3,592.4 h 2.5 l 6.9,9.8 c 0.3,0.5 0.6,0.9 0.9,1.4 0.3,0.5 0.5,0.8 0.7,1.2 v 0 c -0.1,-1.3 -0.1,-2.6 -0.1,-3.8 v -8.5 h 2.7 v 16.4 h -2.5 l -6.7,-9.5 c -0.3,-0.5 -0.6,-1 -1,-1.5 -0.4,-0.5 -0.6,-1 -0.8,-1.5 h -0.1 c 0.1,1.3 0.1,2.7 0.1,4 v 8.5 h -2.7 z"/><path id="path66" d="m 398.6,592.4 v 2.3 h -4.9 v 14.1 h -2.8 V 594.7 H 386 v -2.3 z"/><path id="path68" d="m 169.8,513.2 c 1.6,0 3.2,0.3 4.7,1 l -0.6,2.2 c -0.6,-0.3 -1.3,-0.6 -2,-0.8 -0.6,-0.2 -1.2,-0.2 -1.9,-0.2 -0.8,0 -1.6,0.2 -2.2,0.6 -0.5,0.4 -0.8,1 -0.8,1.7 0,0.6 0.2,1.1 0.6,1.5 0.6,0.5 1.3,0.8 2,1 l 1.6,0.5 c 1.2,0.3 2.3,1 3.1,1.9 0.7,0.8 1,1.8 1,2.8 0,0.7 -0.1,1.4 -0.4,2 -0.3,0.6 -0.7,1.1 -1.2,1.5 -0.6,0.4 -1.2,0.8 -1.9,1 -0.8,0.2 -1.6,0.4 -2.4,0.3 -0.9,0 -1.8,-0.1 -2.6,-0.2 -0.9,-0.2 -1.8,-0.5 -2.6,-0.8 l 0.6,-2.2 c 0.7,0.3 1.4,0.6 2.2,0.8 0.7,0.2 1.5,0.3 2.2,0.3 0.8,0 1.6,-0.2 2.3,-0.6 0.6,-0.4 0.9,-1.1 0.9,-1.8 0,-0.6 -0.2,-1.1 -0.6,-1.5 -0.7,-0.6 -1.5,-1 -2.4,-1.2 l -1.5,-0.5 c -1,-0.3 -2,-0.9 -2.8,-1.6 -0.7,-0.8 -1.1,-1.8 -1,-2.8 -0.1,-1.3 0.5,-2.6 1.5,-3.5 1.2,-1 2.7,-1.5 4.2,-1.4 z"/><path id="path70" d="m 189.2,513.4 v 2.3 h -4.9 v 14.1 h -2.8 v -14.1 h -4.9 v -2.3 z"/><path id="path72" d="m 196,513.4 h 2.6 l 6.4,16.4 h -2.9 l -1.6,-4.3 H 194 l -1.6,4.3 h -2.9 z m -1.2,10 h 5 l -1,-2.7 c -0.3,-0.7 -0.6,-1.4 -0.8,-2 -0.2,-0.6 -0.4,-1.4 -0.7,-2.2 v 0 l -0.7,2.1 c -0.2,0.7 -0.5,1.4 -0.8,2.1 z"/><path id="path74" d="m 217.9,513.4 v 2.3 H 213 v 14.1 h -2.8 v -14.1 h -4.9 v -2.3 z"/><path id="path76" d="m 220.1,513.4 h 10.1 v 2.2 h -7.4 v 4.5 h 6.7 v 2.2 h -6.7 v 5.2 h 7.4 v 2.2 H 220 v -16.3 z"/><path id="path78" d="m 241.8,256.4 h 5.6 c 0.8,0 1.6,0.1 2.3,0.4 0.6,0.2 1.2,0.6 1.7,1 0.4,0.4 0.8,1 1,1.6 0.2,0.6 0.3,1.3 0.3,2 0,0.6 -0.1,1.2 -0.3,1.7 -0.2,0.5 -0.4,0.9 -0.8,1.3 -0.3,0.4 -0.7,0.7 -1.1,1 -0.4,0.3 -0.8,0.5 -1.2,0.6 l 4.2,6.8 h -3.1 l -3.6,-6.3 h -2.4 v 6.3 h -2.7 z m 2.6,7.9 h 1.8 c 0.5,0 1,0 1.4,-0.2 0.4,-0.1 0.8,-0.3 1.1,-0.5 0.3,-0.2 0.6,-0.5 0.8,-0.9 0.2,-0.4 0.3,-0.8 0.3,-1.3 0.1,-0.8 -0.2,-1.6 -0.8,-2.2 -0.7,-0.5 -1.5,-0.8 -2.4,-0.7 h -2.2 z"/><path id="path80" d="m 256,256.4 h 10.1 v 2.2 h -7.4 v 4.5 h 6.7 v 2.2 h -6.7 v 5.2 h 7.4 v 2.2 H 256 Z"/><path id="path82" d="m 270.2,256.4 2.5,9 c 0,0.2 0.1,0.5 0.2,0.9 0.1,0.4 0.2,0.7 0.2,1.1 0,0.4 0.2,0.8 0.2,1.2 0,0.4 0.1,0.7 0.2,1 v 0 c 0,-0.3 0.1,-0.7 0.2,-1 0.1,-0.4 0.2,-0.8 0.2,-1.2 0.1,-0.4 0.2,-0.8 0.3,-1.1 0.1,-0.3 0.2,-0.6 0.2,-0.9 l 2.6,-9 h 2.7 l 2.6,9 c 0.1,0.2 0.1,0.5 0.2,0.9 0.1,0.4 0.2,0.8 0.3,1.1 0.1,0.3 0.2,0.8 0.2,1.2 0,0.4 0.1,0.8 0.2,1 v 0 c 0.1,-0.3 0.1,-0.7 0.2,-1 0.1,-0.3 0.1,-0.8 0.2,-1.2 0.1,-0.4 0.2,-0.8 0.2,-1.1 0,-0.3 0.2,-0.7 0.2,-0.9 l 2.3,-9 h 2.8 l -4.6,16.4 h -2.9 l -2.4,-8.8 c -0.2,-0.7 -0.4,-1.4 -0.5,-2.1 -0.1,-0.7 -0.4,-1.4 -0.5,-2.2 v 0 c -0.2,0.8 -0.4,1.5 -0.5,2.1 -0.1,0.6 -0.3,1.3 -0.5,2.1 l -2.3,8.8 H 272 l -4.7,-16.4 z"/><path id="path84" d="m 296.1,256.4 h 2.6 l 6.4,16.4 h -2.9 l -1.6,-4.3 h -6.4 l -1.6,4.3 h -2.9 z m -1.3,10 h 5 l -1,-2.6 c -0.3,-0.7 -0.5,-1.4 -0.8,-2 -0.3,-0.6 -0.5,-1.4 -0.7,-2.2 v 0 c -0.3,0.8 -0.5,1.5 -0.7,2.1 -0.2,0.6 -0.5,1.4 -0.8,2.1 z"/><path id="path86" d="m 307.1,256.4 h 5.6 c 0.8,0 1.6,0.1 2.3,0.4 0.6,0.2 1.2,0.6 1.7,1 0.4,0.4 0.8,1 1,1.6 0.2,0.6 0.3,1.3 0.3,2 0,0.6 -0.1,1.2 -0.3,1.7 -0.2,0.5 -0.4,0.9 -0.8,1.3 -0.3,0.4 -0.7,0.7 -1,1 -0.4,0.3 -0.8,0.5 -1.2,0.6 l 4.2,6.8 h -3.1 l -3.6,-6.3 h -2.4 v 6.3 h -2.7 z m 2.7,7.9 h 1.8 c 0.5,0 1,0 1.4,-0.2 0.4,-0.1 0.8,-0.3 1.1,-0.5 0.3,-0.2 0.6,-0.5 0.8,-0.9 0.2,-0.4 0.3,-0.8 0.3,-1.3 0.1,-0.8 -0.2,-1.6 -0.8,-2.2 -0.7,-0.5 -1.5,-0.8 -2.4,-0.7 h -2.2 z"/><path id="path88" d="m 326.8,256.4 c 1.1,0 2.2,0.2 3.3,0.5 1,0.3 1.8,0.8 2.6,1.5 0.7,0.7 1.3,1.5 1.7,2.5 0.4,1.1 0.6,2.3 0.6,3.4 0,1.4 -0.2,2.7 -0.7,3.9 -0.5,1 -1.1,1.9 -2,2.6 -0.8,0.7 -1.8,1.2 -2.9,1.5 -1.1,0.3 -2.3,0.5 -3.5,0.5 h -4.6 v -16.4 z m -2.6,14.2 h 1.6 c 0.8,0 1.6,-0.1 2.3,-0.3 1.6,-0.4 2.8,-1.4 3.4,-2.9 0.4,-1 0.6,-2.1 0.5,-3.1 0.1,-1.5 -0.5,-3.1 -1.5,-4.1 -1.1,-1 -2.6,-1.5 -4.1,-1.4 h -2.2 z"/><path id="path90" d="m 28,341.9 v 16.4 h -2.8 v -16.4 z"/><path id="path92" d="m 32,341.9 h 2.5 l 6.9,9.8 c 0.3,0.5 0.6,0.9 0.9,1.4 0.3,0.5 0.5,0.9 0.7,1.2 v 0 c -0.1,-1.3 -0.1,-2.6 -0.1,-3.8 V 342 h 2.7 v 16.4 H 43 l -6.7,-9.5 c -0.3,-0.5 -0.7,-1 -1,-1.5 -0.3,-0.5 -0.6,-1 -0.8,-1.5 v 0 c 0.1,1.4 0.1,2.7 0.1,4 v 8.5 H 32 Z"/><path id="path94" d="m 60.3,341.9 v 2.3 h -4.9 v 14.1 h -2.8 v -14.1 h -4.9 v -2.3 z"/><path id="path96" d="m 62.5,341.9 h 10.1 v 2.2 h -7.3 v 4.5 H 72 v 2.2 h -6.7 v 5.2 h 7.4 v 2.2 H 62.5 Z"/><path id="path98" d="m 75.7,341.9 h 5.6 c 0.8,0 1.6,0.1 2.3,0.4 0.6,0.2 1.2,0.6 1.7,1 0.4,0.4 0.8,1 1,1.6 0.2,0.6 0.4,1.3 0.3,2 0,0.6 -0.1,1.2 -0.3,1.7 -0.2,0.5 -0.4,0.9 -0.8,1.3 -0.3,0.4 -0.7,0.7 -1.1,1 -0.4,0.3 -0.8,0.5 -1.2,0.6 l 4.2,6.8 H 84.3 L 80.7,352 h -2.4 v 6.3 h -2.7 v -16.4 z m 2.7,7.9 h 1.8 c 0.5,0 1,0 1.4,-0.2 0.4,-0.1 0.8,-0.3 1.2,-0.5 0.3,-0.2 0.6,-0.5 0.8,-0.9 0.5,-1.2 0.3,-2.5 -0.6,-3.5 -0.7,-0.5 -1.5,-0.8 -2.4,-0.7 h -2.2 z"/><path id="path100" d="m 89.9,341.9 h 5.3 c 0.8,0 1.6,0.1 2.4,0.3 0.7,0.2 1.3,0.6 1.8,1 0.5,0.4 0.9,1 1.2,1.6 0.3,0.7 0.4,1.4 0.4,2.1 0,0.8 -0.1,1.6 -0.5,2.3 -0.3,0.6 -0.7,1.2 -1.3,1.6 -0.6,0.4 -1.3,0.8 -2,1 -0.8,0.2 -1.6,0.3 -2.5,0.3 h -2.2 v 6.2 h -2.8 v -16.4 z m 2.8,8 h 1.5 c 0.5,0 1.1,0 1.6,-0.1 0.5,-0.1 0.9,-0.2 1.3,-0.5 0.4,-0.2 0.7,-0.5 0.9,-0.9 0.2,-0.4 0.3,-0.9 0.3,-1.4 0,-0.5 -0.1,-0.9 -0.3,-1.3 -0.2,-0.4 -0.5,-0.7 -0.8,-0.9 -0.3,-0.2 -0.7,-0.4 -1.1,-0.5 -0.4,-0.1 -0.9,-0.2 -1.3,-0.1 h -2 z"/><path id="path102" d="m 103.8,341.9 h 5.6 c 0.8,0 1.6,0.1 2.3,0.4 0.6,0.2 1.2,0.6 1.7,1 0.4,0.4 0.8,1 1,1.6 0.2,0.6 0.4,1.3 0.3,2 0,0.6 -0.1,1.2 -0.3,1.7 -0.2,0.5 -0.4,0.9 -0.8,1.3 -0.3,0.4 -0.6,0.7 -1,1 -0.4,0.3 -0.8,0.5 -1.2,0.6 l 4.2,6.8 h -3.2 l -3.6,-6.3 h -2.4 v 6.3 h -2.7 z m 2.7,7.9 h 1.8 c 0.5,0 1,0 1.4,-0.2 0.4,-0.1 0.8,-0.3 1.1,-0.5 0.3,-0.2 0.6,-0.5 0.8,-0.9 0.2,-0.4 0.3,-0.8 0.3,-1.3 0.1,-0.8 -0.2,-1.6 -0.8,-2.2 -0.7,-0.5 -1.5,-0.8 -2.4,-0.7 h -2.2 z"/><path id="path104" d="m 118.1,341.9 h 10.1 v 2.2 h -7.4 v 4.5 h 6.7 v 2.2 h -6.7 v 5.2 h 7.4 v 2.2 H 118 v -16.3 z"/><path id="path106" d="m 142.1,341.9 v 2.3 h -4.9 v 14.1 h -2.8 v -14.1 h -4.9 v -2.3 z"/><path id="path108" d="m 144.3,341.9 h 10.1 v 2.2 H 147 v 4.5 h 6.7 v 2.2 H 147 v 5.2 h 7.4 v 2.2 h -10.2 v -16.3 z"/><path id="path110" d="m 157.5,341.9 h 5.6 c 0.8,0 1.6,0.1 2.3,0.4 0.6,0.2 1.2,0.6 1.7,1 0.4,0.4 0.8,1 1,1.6 0.2,0.6 0.3,1.3 0.3,2 0,0.6 -0.1,1.2 -0.3,1.7 -0.2,0.5 -0.4,0.9 -0.8,1.3 -0.3,0.4 -0.7,0.7 -1.1,1 -0.4,0.3 -0.8,0.5 -1.2,0.6 l 4.2,6.8 h -3.1 l -3.6,-6.3 h -2.4 v 6.3 h -2.7 v -16.4 z m 2.7,7.9 h 1.8 c 0.5,0 1,0 1.4,-0.2 0.4,-0.1 0.8,-0.3 1.1,-0.5 0.3,-0.2 0.6,-0.5 0.8,-0.9 0.2,-0.4 0.3,-0.8 0.3,-1.3 0.1,-0.8 -0.2,-1.6 -0.8,-2.2 -0.7,-0.5 -1.5,-0.8 -2.4,-0.7 h -2.2 z"/><path id="path112" d="m 487.5,454.9 c -0.2,0.1 -0.4,0.1 -0.6,-0.1 -0.2,-0.2 -0.2,-0.4 0,-0.6 0,0 0,0 0,0 0.2,-0.2 0.4,-0.2 0.6,0 0,0 0,0 0,0 0.2,0.2 0.2,0.5 0,0.7 0,-0.1 0,-0.1 0,0" class="st2"/><polygon id="polygon114" points="365.6 70 365.6 63.3 372.4 63.3 373.6 63.3 373.6 62.1 373.6 55.3 380.4 55.3 380.4 62.1 380.4 63.3 381.5 63.3 381.5 62.1 381.5 55.3 381.5 54.1 380.4 54.1 373.6 54.1 372.4 54.1 372.4 55.3 372.4 62.1 365.6 62.1 364.4 62.1 357.6 62.1 356.4 62.1 356.4 63.3 356.4 70 356.4 71.2 357.6 71.2 357.6 70 357.6 63.3 364.4 63.3 364.4 70 364.4 71.2 364.4 78 364.4 79.2 364.4 86 357.6 86 357.6 79.2 357.6 78 356.4 78 349.6 78 348.4 78 341.6 78 340.5 78 340.5 79.2 340.5 86 340.5 87.2 341.6 87.2 348.4 87.2 348.4 94 348.4 95.2 348.4 102 341.6 102 340.5 102 333.7 102 332.5 102 332.5 103.2 332.5 109.9 332.5 111.2 333.7 111.2 333.7 109.9 333.7 103.2 340.5 103.2 341.6 103.2 348.4 103.2 348.4 109.9 341.6 109.9 340.5 109.9 340.5 111.2 340.5 117.9 333.7 117.9 332.5 117.9 325.7 117.9 325.7 111.2 325.7 109.9 325.7 103.2 325.7 102 325.7 95.2 325.7 94 325.7 87.2 325.7 86 324.5 86 324.5 87.2 324.5 94 324.5 95.2 324.5 102 324.5 103.2 324.5 109.9 324.5 111.2 324.5 117.9 317.7 117.9 317.7 111.2 317.7 109.9 317.7 103.2 317.7 102 317.7 95.2 317.7 94 317.7 87.2 317.7 86 317.7 79.2 324.5 79.2 325.7 79.2 325.7 78 325.7 71.2 325.7 70 325.7 63.3 332.5 63.3 333.7 63.3 333.7 62.1 333.7 55.3 333.7 54.1 332.5 54.1 325.7 54.1 324.5 54.1 324.5 55.3 325.7 55.3 332.5 55.3 332.5 62.1 325.7 62.1 324.5 62.1 324.5 63.3 324.5 70 324.5 71.2 324.5 78 317.7 78 317.7 71.2 317.7 70 317.7 63.3 317.7 62.1 317.7 55.3 317.7 54.1 317.7 47.3 324.5 47.3 325.7 47.3 332.5 47.3 333.7 47.3 333.7 46.1 332.5 46.1 325.7 46.1 324.5 46.1 317.7 46.1 316.5 46.1 316.5 47.3 316.5 54.1 316.5 55.3 316.5 62.1 316.5 63.3 316.5 70 316.5 71.2 316.5 78 316.5 79.2 316.5 86 316.5 87.2 316.5 94 316.5 95.2 316.5 102 316.5 103.2 316.5 109.9 316.5 111.2 316.5 117.9 316.5 119.1 317.7 119.1 324.5 119.1 325.7 119.1 332.5 119.1 333.7 119.1 340.5 119.1 341.6 119.1 348.4 119.1 349.6 119.1 356.4 119.1 357.6 119.1 364.4 119.1 365.6 119.1 372.4 119.1 373.6 119.1 380.4 119.1 381.5 119.1 388.3 119.1 389.5 119.1 396.3 119.1 397.5 119.1 404.3 119.1 405.5 119.1 405.5 117.9 405.5 111.2 405.5 109.9 404.3 109.9 397.5 109.9 396.3 109.9 389.5 109.9 388.3 109.9 388.3 111.2 389.5 111.2 396.3 111.2 397.5 111.2 404.3 111.2 404.3 117.9 397.5 117.9 396.3 117.9 389.5 117.9 388.3 117.9 381.5 117.9 381.5 111.2 381.5 109.9 380.4 109.9 380.4 111.2 380.4 117.9 373.6 117.9 372.4 117.9 365.6 117.9 364.4 117.9 357.6 117.9 356.4 117.9 349.6 117.9 348.4 117.9 341.6 117.9 341.6 111.2 348.4 111.2 349.6 111.2 356.4 111.2 357.6 111.2 357.6 109.9 356.4 109.9 349.6 109.9 349.6 103.2 349.6 102 349.6 95.2 349.6 94 349.6 87.2 349.6 86 348.4 86 341.6 86 341.6 79.2 348.4 79.2 349.6 79.2 356.4 79.2 356.4 86 356.4 87.2 356.4 94 356.4 95.2 356.4 102 356.4 103.2 357.6 103.2 357.6 102 357.6 95.2 357.6 94 357.6 87.2 364.4 87.2 365.6 87.2 365.6 86 365.6 79.2 365.6 78 365.6 71.2" class="st0"/><polygon id="polygon116" points="379.4 108.9 382.5 108.9 382.5 116.9 403.3 116.9 403.3 112.2 387.3 112.2 387.3 108.9 406.5 108.9 406.5 120.1 315.5 120.1 315.5 45.1 334.7 45.1 334.7 48.3 318.7 48.3 318.7 77 323.5 77 323.5 61.1 331.5 61.1 331.5 56.3 323.5 56.3 323.5 53.1 334.7 53.1 334.7 64.3 326.7 64.3 326.7 80.2 318.7 80.2 318.7 116.9 323.5 116.9 323.5 85 326.7 85 326.7 116.9 339.5 116.9 339.5 108.9 347.4 108.9 347.4 104.2 334.7 104.2 334.7 112.2 331.5 112.2 331.5 101 347.4 101 347.4 88.2 339.5 88.2 339.5 77 358.6 77 358.6 85 363.4 85 363.4 64.3 358.6 64.3 358.6 72.2 355.4 72.2 355.4 61.1 371.4 61.1 371.4 53.1 382.5 53.1 382.5 64.3 379.4 64.3 379.4 56.3 374.6 56.3 374.6 64.3 366.6 64.3 366.6 88.2 358.6 88.2 358.6 104.2 355.4 104.2 355.4 80.2 342.6 80.2 342.6 85 350.6 85 350.6 108.9 358.6 108.9 358.6 112.2 342.6 112.2 342.6 116.9 379.4 116.9" class="st0"/><polygon id="polygon118" points="372.4 38.1 365.6 38.1 364.4 38.1 364.4 39.3 364.4 46.1 357.6 46.1 356.4 46.1 349.6 46.1 349.6 39.3 349.6 38.1 348.4 38.1 348.4 39.3 348.4 46.1 348.4 47.3 349.6 47.3 356.4 47.3 357.6 47.3 364.4 47.3 364.4 54.1 357.6 54.1 356.4 54.1 349.6 54.1 348.4 54.1 341.6 54.1 341.6 47.3 341.6 46.1 340.5 46.1 340.5 47.3 340.5 54.1 340.5 55.3 340.5 62.1 340.5 63.3 341.6 63.3 341.6 62.1 341.6 55.3 348.4 55.3 348.4 62.1 348.4 63.3 348.4 70 341.6 70 340.5 70 333.7 70 332.5 70 332.5 71.2 332.5 78 332.5 79.2 332.5 86 332.5 87.2 332.5 94 332.5 95.2 333.7 95.2 340.5 95.2 341.6 95.2 341.6 94 340.5 94 333.7 94 333.7 87.2 333.7 86 333.7 79.2 333.7 78 333.7 71.2 340.5 71.2 341.6 71.2 348.4 71.2 349.6 71.2 349.6 70 349.6 63.3 349.6 62.1 349.6 55.3 356.4 55.3 357.6 55.3 364.4 55.3 365.6 55.3 365.6 54.1 365.6 47.3 372.4 47.3 373.6 47.3 373.6 46.1 372.4 46.1 365.6 46.1 365.6 39.3 372.4 39.3 373.6 39.3 380.4 39.3 381.5 39.3 388.3 39.3 389.5 39.3 389.5 38.1 389.5 31.3 396.3 31.3 396.3 38.1 396.3 39.3 396.3 46.1 396.3 47.3 396.3 54.1 389.5 54.1 389.5 47.3 389.5 46.1 388.3 46.1 381.5 46.1 380.4 46.1 380.4 47.3 381.5 47.3 388.3 47.3 388.3 54.1 388.3 55.3 388.3 62.1 388.3 63.3 389.5 63.3 389.5 62.1 389.5 55.3 396.3 55.3 397.5 55.3 397.5 54.1 397.5 47.3 397.5 46.1 397.5 39.3 397.5 38.1 397.5 31.3 404.3 31.3 404.3 38.1 404.3 39.3 404.3 46.1 404.3 47.3 404.3 54.1 404.3 55.3 404.3 62.1 397.5 62.1 396.3 62.1 396.3 63.3 396.3 70 396.3 71.2 396.3 78 389.5 78 389.5 71.2 389.5 70 388.3 70 381.5 70 380.4 70 380.4 71.2 381.5 71.2 388.3 71.2 388.3 78 388.3 79.2 389.5 79.2 396.3 79.2 397.5 79.2 397.5 78 397.5 71.2 397.5 70 397.5 63.3 404.3 63.3 404.3 70 404.3 71.2 404.3 78 404.3 79.2 404.3 86 397.5 86 396.3 86 389.5 86 388.3 86 381.5 86 381.5 79.2 381.5 78 380.4 78 373.6 78 373.6 71.2 373.6 70 372.4 70 372.4 71.2 372.4 78 372.4 79.2 372.4 86 372.4 87.2 373.6 87.2 373.6 86 373.6 79.2 380.4 79.2 380.4 86 380.4 87.2 380.4 94 373.6 94 372.4 94 365.6 94 364.4 94 364.4 95.2 364.4 102 364.4 103.2 364.4 109.9 364.4 111.2 365.6 111.2 372.4 111.2 373.6 111.2 373.6 109.9 372.4 109.9 365.6 109.9 365.6 103.2 365.6 102 365.6 95.2 372.4 95.2 372.4 102 372.4 103.2 373.6 103.2 373.6 102 373.6 95.2 380.4 95.2 381.5 95.2 381.5 94 381.5 87.2 388.3 87.2 389.5 87.2 396.3 87.2 397.5 87.2 404.3 87.2 404.3 94 404.3 95.2 404.3 102 397.5 102 396.3 102 389.5 102 389.5 95.2 396.3 95.2 397.5 95.2 397.5 94 396.3 94 389.5 94 388.3 94 388.3 95.2 388.3 102 381.5 102 380.4 102 380.4 103.2 381.5 103.2 388.3 103.2 389.5 103.2 396.3 103.2 397.5 103.2 404.3 103.2 405.5 103.2 405.5 102 405.5 95.2 405.5 94 405.5 87.2 405.5 86 405.5 79.2 405.5 78 405.5 71.2 405.5 70 405.5 63.3 405.5 62.1 405.5 55.3 405.5 54.1 405.5 47.3 405.5 46.1 405.5 39.3 405.5 38.1 405.5 31.3 405.5 30.1 404.3 30.1 397.5 30.1 396.3 30.1 389.5 30.1 388.3 30.1 381.5 30.1 380.4 30.1 373.6 30.1 372.4 30.1 365.6 30.1 364.4 30.1 357.6 30.1 356.4 30.1 349.6 30.1 348.4 30.1 341.6 30.1 340.5 30.1 333.7 30.1 332.5 30.1 325.7 30.1 324.5 30.1 317.7 30.1 316.5 30.1 316.5 31.3 316.5 38.1 316.5 39.3 317.7 39.3 324.5 39.3 325.7 39.3 332.5 39.3 333.7 39.3 340.5 39.3 341.6 39.3 341.6 38.1 340.5 38.1 333.7 38.1 332.5 38.1 325.7 38.1 324.5 38.1 317.7 38.1 317.7 31.3 324.5 31.3 325.7 31.3 332.5 31.3 333.7 31.3 340.5 31.3 341.6 31.3 348.4 31.3 349.6 31.3 356.4 31.3 356.4 38.1 356.4 39.3 357.6 39.3 357.6 38.1 357.6 31.3 364.4 31.3 365.6 31.3 372.4 31.3 373.6 31.3 380.4 31.3 381.5 31.3 388.3 31.3 388.3 38.1 381.5 38.1 380.4 38.1 373.6 38.1" class="st0"/><polygon id="polygon120" points="347.4 37.1 350.6 37.1 350.6 45.1 363.4 45.1 363.4 37.1 387.3 37.1 387.3 32.3 358.6 32.3 358.6 40.3 355.4 40.3 355.4 32.3 318.7 32.3 318.7 37.1 342.6 37.1 342.6 40.3 315.5 40.3 315.5 29.1 406.5 29.1 406.5 104.2 379.4 104.2 379.4 101 387.3 101 387.3 93 398.5 93 398.5 96.2 390.5 96.2 390.5 101 403.3 101 403.3 88.2 382.5 88.2 382.5 96.2 374.6 96.2 374.6 104.2 371.4 104.2 371.4 96.2 366.6 96.2 366.6 108.9 374.6 108.9 374.6 112.2 363.4 112.2 363.4 93 379.4 93 379.4 80.2 374.6 80.2 374.6 88.2 371.4 88.2 371.4 69 374.6 69 374.6 77 382.5 77 382.5 85 403.3 85 403.3 64.3 398.5 64.3 398.5 80.2 387.3 80.2 387.3 72.2 379.4 72.2 379.4 69 390.5 69 390.5 77 395.3 77 395.3 61.1 403.3 61.1 403.3 32.3 398.5 32.3 398.5 56.3 390.5 56.3 390.5 64.3 387.3 64.3 387.3 48.3 379.4 48.3 379.4 45.1 390.5 45.1 390.5 53.1 395.3 53.1 395.3 32.3 390.5 32.3 390.5 40.3 366.6 40.3 366.6 45.1 374.6 45.1 374.6 48.3 366.6 48.3 366.6 56.3 350.6 56.3 350.6 72.2 334.7 72.2 334.7 93 342.6 93 342.6 96.2 331.5 96.2 331.5 69 347.4 69 347.4 56.3 342.6 56.3 342.6 64.3 339.5 64.3 339.5 45.1 342.6 45.1 342.6 53.1 363.4 53.1 363.4 48.3 347.4 48.3" class="st0"/><path id="path122" d="m 373.6,566.1 c -3.8,-0.2 -7.1,2.5 -7.7,6.2 l 15.2,0.1 c -0.5,-3.7 -3.7,-6.4 -7.5,-6.3 z" class="st0"/><path id="path124" d="m 343.4,566 c -3.8,-0.2 -7.1,2.5 -7.7,6.2 l 15.2,0.1 c -0.5,-3.7 -3.7,-6.4 -7.5,-6.3 z" class="st0"/><rect id="rect126" width="3" height="17.4" x="342.1" y="550.2" class="st0"/><rect id="rect128" width="3" height="17.4" x="372.3" y="549.3" class="st0"/><circle id="circle130" cx="343.6" cy="557.5" r="3.7" class="st0"/><circle id="circle132" cx="373.8" cy="557.5" r="3.7" class="st0"/><path id="path134" d="m 381.7,550.8 h -46 v -24.9 h 46 z m -43,-3 h 40 v -18.9 h -40 z" class="st0"/><path id="path136" d="m 389.9,528.9 h -62.4 v -37.7 h 62.4 z m -59.4,-3 h 56.4 v -31.7 h -56.4 z" class="st0"/><path id="path138" d="m 359.5,470.1 c -2.8,0 -5.2,2.3 -5.2,5.1 0,2.8 2.3,5.2 5.1,5.2 2.8,0 5.2,-2.3 5.2,-5.1 0,0 0,0 0,0 0,-2.8 -2.3,-5.1 -5.1,-5.2 0,0 0,0 0,0 z m 3.4,5.8 c -0.5,0.2 -1.4,-0.5 -1.9,-1.6 -0.5,-1.1 -0.5,-2.2 0,-2.5 0.5,-0.3 1.4,0.5 1.9,1.6 0.5,1.1 0.6,2.3 0,2.5 z" class="st0"/><path id="path140" d="m 376.2,508.2 c 0,2.1 -1.8,3.8 -3.9,3.8 -2.1,0 -3.8,-1.8 -3.8,-3.9 0,-2.1 1.8,-3.8 3.9,-3.8 2.2,0 3.9,1.8 3.8,3.9 0.1,0 0.1,0 0,0" class="st0"/><path id="path142" d="m 374.5,508.2 c 0,1.2 -1,2.1 -2.1,2.1 -1.2,0 -2.1,-1 -2.1,-2.1 0,-1.2 1,-2.1 2.1,-2.1 1.2,0 2.1,0.9 2.1,2.1" class="st0"/><path id="path144" d="m 349,508 c 0,2.1 -1.8,3.8 -3.9,3.8 -2.1,0 -3.8,-1.8 -3.8,-3.9 0,-2.1 1.8,-3.8 3.9,-3.8 2.1,0 3.8,1.8 3.8,3.9 0,0 0,0 0,0" class="st0"/><path id="path146" d="m 347.3,508 c 0,1.2 -1,2.1 -2.1,2.1 -1.2,0 -2.1,-1 -2.1,-2.1 0,-1.2 1,-2.1 2.1,-2.1 1.1,0 2.1,0.9 2.1,2.1 0,0 0,0 0,0" class="st0"/><path id="path148" d="m 368,518.5 c -7.4,2 -11.4,1.9 -18.7,-0.2 0,-0.9 0,-1.3 0,-2.2 7.3,2.1 11.3,2.1 18.7,0.2 0,0.9 0,1.4 0,2.2" class="st0"/><path id="path150" d="m 307.6,532 c -0.3,0 -0.7,0 -1,-0.1 -2.1,-0.2 -4.1,-1.3 -5.4,-3 -1.7,-2.1 -2.2,-4.9 -1.3,-7.5 l 2.9,0.9 c -0.8,2.7 0.6,5.5 3.3,6.4 2.7,0.8 5.5,-0.6 6.4,-3.3 0.1,-0.3 0.2,-0.6 0.2,-0.9 0.2,-1.3 -0.2,-2.7 -1,-3.8 -1.1,-1.4 -2.8,-2.1 -4.5,-1.9 l -0.3,-3 c 4.4,-0.4 8.4,2.8 8.8,7.2 0.4,4.4 -2.8,8.4 -7.2,8.8 -0.3,0.2 -0.5,0.2 -0.9,0.2 z" class="st0"/><path id="path152" d="m 325.1,535 c -5.3,0 -11.2,-1.4 -15.2,-6.3 l 2.3,-1.9 c 8,9.6 25.2,2.9 25.4,2.9 l 1.1,2.8 c -4.3,1.5 -8.9,2.4 -13.6,2.5 z" class="st0"/><path id="path154" d="m 394,561.9 c -3.7,-2.4 -4.8,-7.4 -2.4,-11.2 1.5,-2.3 4,-3.7 6.7,-3.7 h 0.1 c 4.5,0.1 8,3.8 8,8.2 0,2.7 -1.4,5.2 -3.7,6.6 l -1.6,-2.5 c 2.4,-1.5 3,-4.7 1.5,-7 -0.9,-1.4 -2.5,-2.3 -4.2,-2.3 h -0.1 c -2.8,0 -5.1,2.3 -5.1,5.1 0,1.7 0.9,3.3 2.3,4.2 z" class="st0"/><path id="path156" d="m 396.6,550 c -0.2,-12.6 -17.8,-18.1 -18,-18.2 l 0.9,-2.9 c 0.8,0.2 19.9,6.3 20.1,21 z" class="st0"/><rect id="rect158" width="3" height="15.5" x="324.8" y="502.7" class="st0"/><rect id="rect160" width="3" height="15.5" x="389.7" y="502.7" class="st0"/><rect id="rect162" width="3" height="14" x="357.8" y="478.6" class="st0"/></g></svg>