<svg width="391" height="174" viewBox="0 0 391 174" fill="none" xmlns="http://www.w3.org/2000/svg">
<g clip-path="url(#clip0_8_1623)">
<rect width="391" height="174" fill="white"/>
<path fill-rule="evenodd" clip-rule="evenodd" d="M-150.576 -34H149.424V191H-150.576V-34Z" fill="white"/>
<path fill-rule="evenodd" clip-rule="evenodd" d="M261.272 -19C251.971 -19 242.485 -17.6811 233.047 -14.9093C180.841 0.764767 150.176 55.5287 164.537 107.584C176.352 151.518 215.742 180 259.053 180C268.394 180 277.918 178.675 287.389 175.895C340.759 161.575 371.617 106.616 355.897 53.3996C343.915 9.59517 304.579 -19 261.272 -19Z" fill="#E5E5E5"/>
<path fill-rule="evenodd" clip-rule="evenodd" d="M43.2399 122.552C42.3908 124.462 41.7551 126.371 41.3306 128.28L198.518 255.559C200.217 254.498 201.913 253.436 203.611 252.376L43.2399 122.552Z" fill="#E5E5E5"/>
<path fill-rule="evenodd" clip-rule="evenodd" d="M137.637 51.2769C136.576 51.2769 135.305 51.488 134.031 51.7014C132.758 51.7014 131.273 51.9126 129.788 52.126L254.308 152.887C254.308 150.341 253.886 147.796 253.672 145.038L137.637 51.2769Z" fill="#E5E5E5"/>
<path fill-rule="evenodd" clip-rule="evenodd" d="M195.548 63.1553L229.914 90.9444C220.578 79.4905 208.7 69.9436 195.548 63.1553Z" fill="#E5E5E5"/>
<path fill-rule="evenodd" clip-rule="evenodd" d="M36.4514 159.464C36.4514 162.009 36.6648 164.554 36.6648 166.888L161.609 267.862C164.154 267.65 166.488 267.226 168.82 266.588L36.4514 159.464Z" fill="#E5E5E5"/>
<path fill-rule="evenodd" clip-rule="evenodd" d="M50.2401 107.28C49.1798 108.975 48.3307 110.46 47.4839 112.37L212.732 246.012C214.43 244.74 215.701 243.678 217.186 242.406L50.2401 107.28Z" fill="#E5E5E5"/>
<path fill-rule="evenodd" clip-rule="evenodd" d="M38.3613 139.948C37.9367 142.068 37.7256 144.189 37.301 146.312L181.548 262.983C183.671 262.347 185.791 261.498 187.701 260.649L38.3613 139.948Z" fill="#E5E5E5"/>
<path fill-rule="evenodd" clip-rule="evenodd" d="M155.033 51.4878L249.854 128.067C248.794 124.673 247.522 121.281 246.249 118.098L165.64 52.9726C162.246 52.1258 158.638 51.7012 155.033 51.4878Z" fill="#E5E5E5"/>
<path fill-rule="evenodd" clip-rule="evenodd" d="M116.214 55.0955C114.091 55.52 111.97 56.3668 109.848 57.0048L253.886 173.676C254.097 171.342 254.308 169.008 254.521 166.888L116.214 55.0955Z" fill="#E5E5E5"/>
<path fill-rule="evenodd" clip-rule="evenodd" d="M70.1805 81.1863C68.9092 82.46 67.6355 83.7336 66.3618 85.2184L235.43 222.041C236.491 220.345 237.551 218.861 238.4 217.376L70.1805 81.1863Z" fill="#E5E5E5"/>
<path fill-rule="evenodd" clip-rule="evenodd" d="M98.3933 61.6704C96.484 62.5195 94.788 63.5798 92.8787 64.4289L250.067 191.494C250.702 189.587 251.127 187.677 251.551 185.768L98.3933 61.6704Z" fill="#E5E5E5"/>
<path fill-rule="evenodd" clip-rule="evenodd" d="M59.3622 93.4917C58.0885 94.9765 57.0283 96.4613 55.968 97.9461L225.037 234.769C226.308 233.284 227.582 232.013 228.853 230.528L59.3622 93.4917Z" fill="#E5E5E5"/>
<path fill-rule="evenodd" clip-rule="evenodd" d="M83.3325 70.5815C81.6366 71.6418 80.1518 72.702 78.667 73.9757L243.703 207.618C244.55 205.92 245.399 204.224 246.249 202.314L83.3325 70.5815Z" fill="#E5E5E5"/>
<path fill-rule="evenodd" clip-rule="evenodd" d="M128.517 -2.39209C127.457 5.24539 119.819 17.1239 116.85 22.4274C113.88 27.731 115.151 37.9135 115.151 37.9135C115.151 37.9135 118.546 36.6398 124.698 24.7613C130.637 12.8829 128.517 -2.38979 128.517 -2.39209Z" fill="white"/>
<path fill-rule="evenodd" clip-rule="evenodd" d="M87.7874 22.0029C87.7874 22.0029 90.1213 33.4569 107.728 35.5796C107.728 35.5796 103.698 30.0627 98.1833 27.9422C92.6663 25.8217 87.7874 22.0029 87.7874 22.0029Z" fill="white"/>
<path fill-rule="evenodd" clip-rule="evenodd" d="M244.34 70.3681L243.915 70.7927L243.066 70.5816C243.49 70.5816 243.915 70.3681 244.34 70.3681ZM246.63 55.4856C246.361 55.4856 246.093 55.4971 245.824 55.52C244.34 55.7312 242.855 56.3668 241.37 57.0048L214.005 69.3079C213.156 69.519 212.52 69.9436 212.096 70.3681C210.4 71.8529 211.036 74.8225 212.732 76.3074C214.079 77.4846 215.956 77.8633 217.735 77.8633C218.2 77.8633 218.657 77.8358 219.095 77.7922C226.733 77.1565 234.157 74.1869 240.734 71.2172C239.036 72.2775 237.551 73.3377 236.28 74.6114C231.187 78.8547 225.884 82.6712 221.643 87.5501C219.309 90.5198 217.399 93.4917 215.49 96.6724C214.43 98.5818 213.37 100.491 212.52 102.401C212.52 102.612 212.307 102.612 212.307 102.825C211.885 103.672 209.975 106.219 212.52 107.704C213.567 108.349 214.921 108.595 216.266 108.595C218.464 108.595 220.64 107.936 221.429 107.28C224.188 105.157 226.944 99.8555 228.853 96.8836C230.552 94.7631 232.886 93.0671 235.217 91.3689C233.946 94.5519 232.886 97.7327 232.248 101.127C231.612 104.096 230.976 107.28 230.338 110.249C229.916 111.098 229.916 111.945 230.338 112.794C230.763 113.643 231.823 114.279 232.886 114.492C233.202 114.545 233.535 114.57 233.872 114.57C234.887 114.57 235.961 114.332 236.915 113.854C238.611 113.008 240.521 110.249 241.159 108.551C243.066 103.036 243.279 98.1572 246.673 93.4917L247.098 93.0671C250.492 94.7631 254.309 96.0367 257.916 97.3081L250.492 95.1876L245.824 111.523C245.613 112.159 245.4 113.008 245.613 113.643C246.038 114.279 246.673 114.492 247.309 114.492C247.945 114.492 248.583 114.279 249.218 114.068C252.188 112.583 255.796 109.4 257.492 106.43C258.976 103.461 259.826 101.127 260.886 97.9461C265.554 99.6421 269.159 102.401 273.189 105.581C278.492 109.613 282.098 115.128 286.13 120.218C299.842 137.256 324.953 142.286 345.91 142.286C346.351 142.286 346.787 142.284 347.223 142.282C354.011 135.493 367.374 121.703 365.254 108.34C358.677 107.704 341.708 107.066 335.344 105.581C333.857 105.157 332.161 105.37 330.677 104.734C329.192 103.885 327.918 103.036 326.647 101.976C313.919 92.218 301.614 81.8243 289.949 70.5816C289.949 70.5816 284.221 64.0043 274.249 62.7307C267.25 61.2458 260.25 59.3388 253.462 57.0048C251.185 56.2452 248.909 55.4856 246.63 55.4856Z" fill="#E68C47"/>
<path d="M250.491 95.1877C249.429 98.3708 248.369 101.34 247.308 104.521C246.884 106.006 246.248 107.491 245.823 109.189C245.399 110.249 244.763 111.734 245.188 112.794C246.248 115.553 249.642 114.279 251.338 113.219C253.672 111.734 255.37 109.825 256.642 107.491C258.34 104.521 259.825 101.34 260.674 97.9462" stroke="#161615" stroke-width="0.727034" stroke-miterlimit="92.4347"/>
<path d="M266.614 77.3677C265.341 77.1566 264.067 77.3677 262.796 77.7923C261.311 78.2168 259.613 78.4302 258.128 78.8548C255.158 79.7016 252.189 80.3396 249.43 81.1864C246.46 82.0356 243.915 82.8847 241.159 84.1561C239.036 85.2186 237.127 87.1257 236.28 89.4596C233.308 95.3988 232.461 102.187 230.977 108.551C230.763 109.825 230.339 111.098 230.763 112.159C231.188 113.219 232.037 113.855 233.097 114.068C235.218 114.915 237.552 114.068 239.25 112.37C241.159 109.825 241.795 106.219 242.644 103.25C243.704 99.8556 245.189 96.4614 246.885 93.2783" stroke="#161615" stroke-width="0.727034" stroke-miterlimit="92.4347"/>
<path d="M237.975 72.7021C236.065 74.6115 232.036 77.7923 230.126 79.4905C226.096 83.0958 221.642 87.1257 218.67 91.5824C217.185 94.1275 215.7 96.4614 214.429 99.0065C213.58 100.491 212.944 102.187 212.306 103.672C210.821 107.704 215.7 108.764 218.248 108.551C219.944 108.34 221.428 107.915 222.702 106.855C224.187 105.37 225.247 103.672 226.307 101.763C227.368 100.067 228.428 98.1574 229.702 96.4614C231.186 94.552 232.885 92.8538 234.792 91.369C238.824 87.9748 242.218 83.7338 245.612 79.7016C246.248 79.2771 246.672 78.6414 247.097 78.0057C247.097 78.2168 246.672 78.2168 246.884 78.2168C247.097 78.2168 247.308 78.0057 247.522 78.0057L249.006 77.1566L255.581 73.9758" stroke="#161615" stroke-width="0.727034" stroke-miterlimit="92.4347"/>
<path d="M288.675 69.9436C285.706 66.3383 281.462 64.8535 277.219 63.7933C271.918 62.3084 266.825 61.2459 261.522 59.7611C258.766 59.1254 256.007 58.2763 253.249 57.216C250.917 56.5803 248.583 55.5201 246.038 55.7312C243.491 55.7312 241.37 56.7915 239.25 57.6406L231.401 61.0348L215.915 67.8231C214.006 68.6722 211.672 69.3079 211.247 71.4284C210.823 73.1267 211.461 74.8226 212.732 76.0963C216.126 79.0659 221.854 78.0057 225.884 76.9454C230.338 75.6717 234.371 73.9758 238.825 72.4887C241.37 71.6419 244.551 70.5816 247.309 70.7927C248.794 71.2173 250.279 71.6419 251.553 72.2775L256.218 73.7624C258.766 74.6115 261.311 75.4606 263.856 76.3074C266.401 77.1565 268.946 78.4302 270.644 80.3396" stroke="#161615" stroke-width="0.727034" stroke-miterlimit="92.4347"/>
<path d="M350.192 107.704C345.524 107.279 340.858 106.644 336.404 105.795C334.07 105.37 331.95 104.734 329.827 104.096C327.493 103.25 325.372 101.976 323.463 100.491C315.614 94.5519 308.19 88.1881 300.766 81.8243C296.523 78.2167 291.855 72.9131 287.825 69.0967" stroke="#161615" stroke-width="0.727034" stroke-miterlimit="92.4347"/>
<path fill-rule="evenodd" clip-rule="evenodd" d="M219.366 67.1689C219.272 67.1689 219.181 67.1735 219.096 67.1873C216.551 67.3984 214.217 68.4587 212.521 70.1569C212.096 70.3681 212.096 70.7926 212.096 71.0037C212.096 71.2172 212.307 71.4283 212.521 71.4283C213.393 71.9515 214.265 72.3325 215.256 72.3325C215.47 72.3325 215.69 72.3141 215.915 72.2774C218.035 72.0663 219.945 71.4283 221.43 70.1569C223.63 68.757 220.929 67.1689 219.366 67.1689Z" fill="#452391"/>
<path fill-rule="evenodd" clip-rule="evenodd" d="M216.711 96.7964C216.587 96.7964 216.463 96.8216 216.339 96.8836C215.915 96.8836 215.49 97.097 215.065 97.5216C213.792 98.5818 210.4 104.946 214.216 104.946C214.854 104.946 215.49 104.735 215.915 104.31C217.399 102.825 218.035 100.702 218.035 98.5818C218.248 98.1573 218.035 97.5216 217.61 97.097C217.312 96.9478 217.011 96.7964 216.711 96.7964Z" fill="#452391"/>
<path fill-rule="evenodd" clip-rule="evenodd" d="M233.578 103.585C233.291 103.585 233.034 103.734 232.885 103.885C232.461 104.096 232.036 104.31 231.823 104.734C231.049 105.896 229.923 111.472 232.149 111.472C232.362 111.472 232.605 111.422 232.885 111.309C233.521 111.098 233.946 110.674 234.157 110.249C235.217 108.764 235.217 106.644 234.792 104.946C234.792 104.521 234.37 104.096 233.946 103.672C233.822 103.61 233.695 103.585 233.578 103.585Z" fill="#452391"/>
<path fill-rule="evenodd" clip-rule="evenodd" d="M247.627 105.847C247.467 105.847 247.308 105.9 247.097 106.006C246.884 106.219 246.459 106.43 246.248 106.644C245.649 107.442 244.109 112 246.055 112C246.177 112 246.31 111.984 246.459 111.945C246.884 111.734 247.308 111.523 247.733 111.098C248.582 110.036 248.793 108.34 248.582 107.066C248.582 106.644 248.369 106.219 248.157 106.006C247.944 105.9 247.786 105.847 247.627 105.847Z" fill="#452391"/>
<path fill-rule="evenodd" clip-rule="evenodd" d="M88.6362 114.492C88.6362 114.492 92.6661 116.402 93.3041 116.613L88.6362 114.492Z" fill="#F7CEC6"/>
<path fill-rule="evenodd" clip-rule="evenodd" d="M206.367 87.5503C206.58 95.3989 201.063 108.551 198.943 114.493C197.034 120.218 200.003 130.401 200.003 130.401C200.003 130.401 203.186 128.28 207.216 115.339C211.246 102.401 206.369 87.5526 206.367 87.5503Z" fill="white"/>
<path fill-rule="evenodd" clip-rule="evenodd" d="M206.367 87.5503C206.58 95.3989 201.063 108.551 198.943 114.493C197.034 120.218 200.003 130.401 200.003 130.401C200.003 130.401 203.186 128.28 207.216 115.339C211.246 102.401 206.369 87.5526 206.367 87.5503Z" stroke="black" stroke-width="0.727034" stroke-miterlimit="92.4347"/>
<path fill-rule="evenodd" clip-rule="evenodd" d="M169.879 119.158C169.882 119.158 174.013 129.386 190.419 129.386C191.05 129.386 191.699 129.373 192.367 129.34C192.367 129.34 187.275 124.461 181.547 123.188C175.607 122.128 169.882 119.158 169.879 119.158Z" fill="white"/>
<path fill-rule="evenodd" clip-rule="evenodd" d="M169.879 119.158C169.882 119.158 174.013 129.386 190.419 129.386C191.05 129.386 191.699 129.373 192.367 129.34C192.367 129.34 187.275 124.461 181.547 123.188C175.607 122.128 169.882 119.158 169.879 119.158Z" stroke="black" stroke-width="0.727034" stroke-miterlimit="92.4347"/>
<path fill-rule="evenodd" clip-rule="evenodd" d="M214.641 129.341C214.641 129.341 211.247 136.765 208.702 140.583C206.156 144.402 206.581 157.341 206.581 157.341C207.006 153.1 210.611 147.583 213.156 144.189C215.49 140.797 214.641 129.343 214.641 129.341Z" fill="white"/>
<path fill-rule="evenodd" clip-rule="evenodd" d="M214.641 129.341C214.641 129.341 211.247 136.765 208.702 140.583C206.156 144.402 206.581 157.341 206.581 157.341C207.006 153.1 210.611 147.583 213.156 144.189C215.49 140.797 214.641 129.343 214.641 129.341Z" stroke="black" stroke-width="0.727034" stroke-miterlimit="92.4347"/>
<path fill-rule="evenodd" clip-rule="evenodd" d="M167.336 146.098C167.336 146.1 178.792 157.341 186.005 159.675C193.005 162.22 203.187 165.403 203.187 165.403C203.187 165.403 195.55 153.311 188.337 151.402C180.913 149.492 167.338 146.1 167.336 146.098Z" fill="white"/>
<path fill-rule="evenodd" clip-rule="evenodd" d="M167.336 146.098C167.336 146.1 178.792 157.341 186.005 159.675C193.005 162.22 203.187 165.403 203.187 165.403C203.187 165.403 195.55 153.311 188.337 151.402C180.913 149.492 167.338 146.1 167.336 146.098Z" stroke="black" stroke-width="0.727034" stroke-miterlimit="92.4347"/>
<path fill-rule="evenodd" clip-rule="evenodd" d="M278.068 109.614C273.402 114.915 263.22 116.824 259.825 118.522C256.431 120.218 252.188 127.431 252.188 127.431C252.188 127.431 252.688 128.076 254.687 128.076C256.131 128.076 258.354 127.739 261.735 126.582C274.885 122.341 278.068 109.614 278.068 109.614Z" fill="white"/>
<path fill-rule="evenodd" clip-rule="evenodd" d="M278.068 109.614C273.402 114.915 263.22 116.824 259.825 118.522C256.431 120.218 252.188 127.431 252.188 127.431C252.188 127.431 252.688 128.076 254.687 128.076C256.131 128.076 258.354 127.739 261.735 126.582C274.885 122.341 278.068 109.614 278.068 109.614Z" stroke="black" stroke-width="0.727034" stroke-miterlimit="92.4347"/>
<path fill-rule="evenodd" clip-rule="evenodd" d="M243.066 117.249C243.066 117.249 237.551 121.706 235.855 127.645C234.157 133.795 231.612 141.644 231.612 141.644C241.795 127.22 243.066 117.251 243.066 117.249Z" fill="white"/>
<path fill-rule="evenodd" clip-rule="evenodd" d="M243.066 117.249C243.066 117.249 237.551 121.706 235.855 127.645C234.157 133.795 231.612 141.644 231.612 141.644C241.795 127.22 243.066 117.251 243.066 117.249Z" stroke="black" stroke-width="0.727034" stroke-miterlimit="92.4347"/>
<path fill-rule="evenodd" clip-rule="evenodd" d="M150.656 91.3689C149.972 91.3689 149.435 91.4354 149.093 91.5823C146.123 93.0671 145.487 99.6421 144.638 102.612C143.789 105.37 145.91 107.28 147.608 109.4C149.423 111.619 156.03 115.371 160.87 115.371C161.12 115.371 161.368 115.36 161.609 115.339C170.518 114.492 178.153 108.551 178.153 108.551L169.669 95.1876C169.669 95.1876 155.89 91.3689 150.656 91.3689Z" fill="#452391"/>
<path d="M178.153 108.551C178.153 108.551 170.518 114.493 161.609 115.339C156.73 115.764 149.517 111.734 147.608 109.4C145.91 107.28 143.789 105.37 144.638 102.612C145.487 99.6422 146.123 93.0673 149.093 91.5825C152.062 90.3088 169.669 95.1878 169.669 95.1878" stroke="black" stroke-width="0.727034" stroke-miterlimit="92.4347"/>
<path fill-rule="evenodd" clip-rule="evenodd" d="M198.9 64.9866C197.241 64.9866 196.008 67.9837 194.064 69.7325C191.944 71.4284 186.427 86.7034 186.427 86.7034L189.185 100.491C194.276 97.7327 195.338 90.9444 197.034 86.7034C198.732 82.4601 201.277 78.8547 201.913 76.0963C202.338 73.3378 201.277 65.7026 199.368 65.0646C199.207 65.0118 199.054 64.9866 198.9 64.9866Z" fill="#452391"/>
<path d="M189.185 100.491C194.276 97.7326 195.338 90.9443 197.034 86.7032C198.732 82.4599 201.277 78.8546 201.913 76.0961C202.338 73.3377 201.277 65.7025 199.368 65.0645C197.459 64.4288 196.185 67.823 194.064 69.7324C191.944 71.4283 186.427 86.7032 186.427 86.7032" stroke="black" stroke-width="0.727034" stroke-miterlimit="92.4347"/>
<path fill-rule="evenodd" clip-rule="evenodd" d="M164.433 74.4507C162.843 74.4507 161.61 75.4054 157.153 75.8827C153.548 76.0961 152.488 82.2465 151.639 84.7939C150.579 88.3992 157.578 94.3384 172.64 97.7326L176.883 89.884C176.883 89.884 170.519 76.0961 166.276 74.8225C165.535 74.5585 164.963 74.4507 164.433 74.4507Z" fill="#452391"/>
<path d="M172.64 97.7328C157.578 94.3386 150.579 88.3994 151.639 84.7941C152.488 82.2467 153.548 76.0964 157.153 75.8829C163.095 75.2472 163.306 73.7624 166.276 74.8227C170.519 76.0964 176.883 89.8842 176.883 89.8842" stroke="black" stroke-width="0.727034" stroke-miterlimit="92.4347"/>
<path fill-rule="evenodd" clip-rule="evenodd" d="M176.882 108.34C176.882 108.34 174.337 110.674 168.82 110.036C163.941 109.614 162.032 110.036 157.366 111.523C152.274 113.219 148.033 110.036 148.033 110.036" fill="#452391"/>
<path d="M176.882 108.34C176.882 108.34 174.337 110.674 168.82 110.036C163.941 109.614 162.032 110.036 157.366 111.523C152.274 113.219 148.033 110.036 148.033 110.036" stroke="black" stroke-width="0.727034" stroke-miterlimit="92.4347"/>
<path fill-rule="evenodd" clip-rule="evenodd" d="M184.078 60.0112C180.752 60.0112 177.138 61.2046 176.034 62.3084C174.338 64.0044 172.853 68.0343 171.58 72.2775C169.881 77.3677 176.883 89.8841 176.883 89.8841L187.277 89.2484C187.277 89.2484 190.035 80.7618 190.884 75.2472C191.307 71.4284 192.156 63.5798 188.762 61.2459C187.575 60.3555 185.868 60.0112 184.078 60.0112Z" fill="#452391"/>
<path d="M187.277 89.2484C187.277 89.2484 190.035 80.7618 190.884 75.2471C191.307 71.4284 192.156 63.5798 188.762 61.2458C185.367 58.7008 177.732 60.6102 176.034 62.3084C174.338 64.0043 172.853 68.0342 171.58 72.2775C169.881 77.3676 176.883 89.8841 176.883 89.8841" stroke="black" stroke-width="0.727034" stroke-miterlimit="92.4347"/>
<path d="M188.336 102.612C195.974 99.4309 197.67 93.7028 199.368 88.8238C200.853 84.1559 201.913 76.0962 201.913 76.0962" stroke="black" stroke-width="0.727034" stroke-miterlimit="92.4347"/>
<path d="M208.491 254.285C205.097 240.708 216.34 190.647 204.034 146.947C199.155 129.341 186.006 105.37 186.006 105.37" stroke="black" stroke-width="0.727034" stroke-miterlimit="92.4347"/>
<path d="M204.882 109.825C197.883 128.28 200.641 136.554 200.641 136.554" stroke="black" stroke-width="0.727034" stroke-miterlimit="92.4347"/>
<path d="M192.369 129.341C199.579 133.584 201.489 138.674 201.489 138.674" stroke="black" stroke-width="0.727034" stroke-miterlimit="92.4347"/>
<path d="M183.458 153.524C202.127 160.735 208.702 171.556 208.702 171.556" stroke="black" stroke-width="0.727034" stroke-miterlimit="92.4347"/>
<path d="M267.249 118.947C261.945 123.188 257.28 124.037 241.158 133.795C225.247 143.553 221.642 160.099 221.642 160.099" stroke="black" stroke-width="0.727034" stroke-miterlimit="92.4347"/>
<path fill-rule="evenodd" clip-rule="evenodd" d="M182.666 86.3201C181.931 86.3201 181.101 86.6689 180.488 87.1256C179.754 87.6787 178.858 88.2294 177.945 88.2294C177.803 88.2294 177.661 88.2157 177.518 88.1881C176.883 87.9747 176.247 87.339 175.609 87.1256C175.529 87.1164 175.451 87.1118 175.375 87.1118C173.851 87.1118 173.206 89.0671 171.79 89.6729C171.154 89.8841 170.519 89.8841 170.094 90.3086C169.459 90.7332 169.245 91.7934 169.459 92.6426C169.459 93.4917 169.67 94.3385 169.67 95.1876C169.67 95.3988 167.125 100.278 166.489 101.127C166.39 101.276 166.553 101.354 166.932 101.354C168.187 101.354 171.797 100.487 176.033 98.3707C180.063 96.2479 184.731 92.8537 186.005 90.9443L186.216 90.7332V90.5198L186.005 90.3086C186.005 90.3086 186.005 90.3086 185.791 90.0975H185.58C184.518 89.2484 184.731 87.339 183.458 86.4899C183.221 86.3729 182.95 86.3201 182.666 86.3201Z" fill="black"/>
<path fill-rule="evenodd" clip-rule="evenodd" d="M182.666 86.3201C181.931 86.3201 181.101 86.6689 180.488 87.1256C179.754 87.6787 178.858 88.2294 177.945 88.2294C177.803 88.2294 177.661 88.2157 177.518 88.1881C176.883 87.9747 176.247 87.339 175.609 87.1256C175.529 87.1164 175.451 87.1118 175.375 87.1118C173.851 87.1118 173.206 89.0671 171.79 89.6729C171.154 89.8841 170.519 89.8841 170.094 90.3086C169.459 90.7332 169.245 91.7934 169.459 92.6426C169.459 93.4917 169.67 94.3385 169.67 95.1876C169.67 95.3988 167.125 100.278 166.489 101.127C166.39 101.276 166.553 101.354 166.932 101.354C168.187 101.354 171.797 100.487 176.033 98.3707C180.063 96.2479 184.731 92.8537 186.005 90.9443L186.216 90.7332V90.5198L186.005 90.3086C186.005 90.3086 186.005 90.3086 185.791 90.0975H185.58C184.518 89.2484 184.731 87.339 183.458 86.4899C183.221 86.3729 182.95 86.3201 182.666 86.3201Z" stroke="black" stroke-width="0.727034" stroke-miterlimit="92.4347"/>
<path fill-rule="evenodd" clip-rule="evenodd" d="M188.975 88.8767C187.648 88.8767 186.205 89.5652 185.367 90.5199C183.882 92.0047 180.913 94.7632 180.913 94.7632L173.7 98.1573C170.944 100.702 166.7 100.491 164.58 101.763C163.306 102.612 167.336 105.581 174.338 107.915C175.451 108.264 176.578 108.422 177.686 108.422C183.327 108.422 188.511 104.287 189.397 99.8556C190.035 95.1877 192.156 91.5824 191.52 90.3087C190.964 89.2898 190.003 88.8767 188.975 88.8767Z" fill="#452391"/>
<path fill-rule="evenodd" clip-rule="evenodd" d="M188.975 88.8767C187.648 88.8767 186.205 89.5652 185.367 90.5199C183.882 92.0047 180.913 94.7632 180.913 94.7632L173.7 98.1573C170.944 100.702 166.7 100.491 164.58 101.763C163.306 102.612 167.336 105.581 174.338 107.915C175.451 108.264 176.578 108.422 177.686 108.422C183.327 108.422 188.511 104.287 189.397 99.8556C190.035 95.1877 192.156 91.5824 191.52 90.3087C190.964 89.2898 190.003 88.8767 188.975 88.8767Z" stroke="black" stroke-width="0.727034" stroke-miterlimit="92.4347"/>
<path fill-rule="evenodd" clip-rule="evenodd" d="M242.854 30.7007C242.854 30.703 236.066 44.702 238.186 58.0652C240.309 71.642 243.065 73.9759 243.065 73.9759C243.065 73.9759 247.522 64.429 246.46 58.2764C245.188 52.3371 241.794 38.5493 242.854 30.7007Z" fill="white"/>
<path fill-rule="evenodd" clip-rule="evenodd" d="M242.854 30.7007C242.854 30.703 236.066 44.702 238.186 58.0652C240.309 71.642 243.065 73.9759 243.065 73.9759C243.065 73.9759 247.522 64.429 246.46 58.2764C245.188 52.3371 241.794 38.5493 242.854 30.7007Z" stroke="black" stroke-width="0.727034" stroke-miterlimit="92.4347"/>
<path fill-rule="evenodd" clip-rule="evenodd" d="M274.673 66.9741C274.673 66.9741 268.52 69.3081 262.581 69.5192C256.642 69.9437 250.916 73.9759 250.916 73.9759C253.504 74.4992 255.843 74.7218 257.947 74.7218C270.333 74.7218 274.673 66.9741 274.673 66.9741Z" fill="white"/>
<path fill-rule="evenodd" clip-rule="evenodd" d="M274.673 66.9741C274.673 66.9741 268.52 69.3081 262.581 69.5192C256.642 69.9437 250.916 73.9759 250.916 73.9759C253.504 74.4992 255.843 74.7218 257.947 74.7218C270.333 74.7218 274.673 66.9741 274.673 66.9741Z" stroke="black" stroke-width="0.727034" stroke-miterlimit="92.4347"/>
<path fill-rule="evenodd" clip-rule="evenodd" d="M228.853 71.0039C228.853 71.0039 226.308 82.0356 228.217 85.6409C230.126 89.4596 232.885 95.3989 232.885 99.6422C232.885 99.6422 235.217 87.1257 233.096 82.8847C231.187 78.8548 228.853 71.0039 228.853 71.0039Z" fill="white"/>
<path fill-rule="evenodd" clip-rule="evenodd" d="M228.853 71.0039C228.853 71.0039 226.308 82.0356 228.217 85.6409C230.126 89.4596 232.885 95.3989 232.885 99.6422C232.885 99.6422 235.217 87.1257 233.096 82.8847C231.187 78.8548 228.853 71.0039 228.853 71.0039Z" stroke="black" stroke-width="0.727034" stroke-miterlimit="92.4347"/>
<path fill-rule="evenodd" clip-rule="evenodd" d="M273.402 94.3386C273.4 94.3386 259.401 95.6123 251.764 96.4614C244.34 97.3082 235.006 108.129 235.006 108.129C235.006 108.129 245.613 106.431 252.824 104.946C260.25 103.672 273.4 94.3386 273.402 94.3386Z" fill="white"/>
<path fill-rule="evenodd" clip-rule="evenodd" d="M273.402 94.3386C273.4 94.3386 259.401 95.6123 251.764 96.4614C244.34 97.3082 235.006 108.129 235.006 108.129C235.006 108.129 245.613 106.431 252.824 104.946C260.25 103.672 273.4 94.3386 273.402 94.3386Z" stroke="black" stroke-width="0.727034" stroke-miterlimit="92.4347"/>
<path fill-rule="evenodd" clip-rule="evenodd" d="M294.411 42.1729C288.091 42.1729 278.28 43.4282 278.28 43.4282L268.098 55.5201C268.098 55.5201 274.673 62.5196 283.159 64.4289C283.976 64.6424 284.876 64.7365 285.819 64.7365C290.508 64.7365 296.243 62.4117 298.007 60.8236C300.128 58.7008 302.462 57.216 302.037 54.2464C301.613 51.4879 301.826 44.6996 299.281 42.7925C298.544 42.3381 296.708 42.1729 294.411 42.1729Z" fill="#973896"/>
<path d="M278.28 43.4281C278.28 43.4281 296.522 41.0942 299.281 42.7925C301.826 44.6995 301.613 51.4879 302.037 54.2464C302.462 57.216 300.128 58.7008 298.007 60.8236C295.887 62.7307 288.038 65.7026 283.159 64.4289C274.673 62.5195 268.098 55.5201 268.098 55.5201" stroke="black" stroke-width="0.727034" stroke-miterlimit="92.4347"/>
<path fill-rule="evenodd" clip-rule="evenodd" d="M253.554 9.4519C253.455 9.4519 253.354 9.46338 253.249 9.48633C251.339 9.69975 249.219 17.1238 249.219 19.8823C249.219 22.6385 251.339 26.6707 252.402 31.1251C253.462 35.5795 253.462 42.3679 258.128 45.9732L262.796 32.6099C262.796 32.6099 259.613 16.6992 257.703 14.7899C256.099 12.7841 255.255 9.4519 253.554 9.4519Z" fill="#973896"/>
<path d="M262.796 32.6098C262.796 32.6098 259.613 16.6992 257.703 14.7898C256.007 12.6693 255.158 9.06172 253.249 9.48628C251.339 9.69971 249.219 17.1238 249.219 19.8822C249.219 22.6384 251.339 26.6706 252.402 31.125C253.462 35.5795 253.462 42.3678 258.128 45.9731" stroke="black" stroke-width="0.727034" stroke-miterlimit="92.4347"/>
<path fill-rule="evenodd" clip-rule="evenodd" d="M285.592 23.6252C285.308 23.6252 284.998 23.6482 284.644 23.6987C280.19 24.5478 271.917 37.2754 271.917 37.2754L275.098 45.762C290.159 44.4883 298.219 39.6093 297.583 35.7906C297.159 33.2455 297.159 26.8817 293.34 26.0326C288.296 24.9127 287.694 23.6252 285.592 23.6252Z" fill="#973896"/>
<path d="M271.917 37.2755C271.917 37.2755 280.19 24.5479 284.644 23.6988C287.614 23.2765 287.614 24.7613 293.34 26.0327C297.159 26.8818 297.159 33.2456 297.583 35.7907C298.219 39.6094 290.159 44.4884 275.098 45.7621" stroke="black" stroke-width="0.727034" stroke-miterlimit="92.4347"/>
<path d="M297.583 61.2458C297.583 61.2458 292.917 63.7932 288.25 61.4593C283.795 59.3388 281.886 58.4896 277.007 58.2762C271.492 58.0651 269.158 55.52 269.158 55.52" stroke="black" stroke-width="0.727034" stroke-miterlimit="92.4347"/>
<path fill-rule="evenodd" clip-rule="evenodd" d="M267.316 6.51221C266.185 6.51221 265.131 6.70269 264.28 7.15478C260.461 9.06186 260.037 16.9128 260.037 20.9426C260.25 26.4573 261.735 35.155 261.735 35.155L271.917 37.2755C271.917 37.2755 280.613 25.8216 279.766 20.7292C278.917 16.2748 278.068 12.0338 276.583 10.1244C275.449 8.50419 270.974 6.51221 267.316 6.51221Z" fill="#973896"/>
<path d="M271.917 37.2754C271.917 37.2754 280.613 25.8215 279.766 20.729C278.917 16.2746 278.068 12.0336 276.583 10.1242C275.098 8.00144 267.885 5.24525 264.28 7.15462C260.461 9.0617 260.037 16.9126 260.037 20.9425C260.25 26.4572 261.735 35.1549 261.735 35.1549" stroke="black" stroke-width="0.727034" stroke-miterlimit="92.4347"/>
<path d="M249.218 19.8823C249.218 19.8823 249.007 28.1555 249.853 33.0345C250.703 37.9135 251.552 43.8527 258.765 48.0937" stroke="black" stroke-width="0.727034" stroke-miterlimit="92.4347"/>
<path d="M260.674 51.0657C260.674 51.0657 244.128 73.1267 236.702 89.673C218.459 131.25 222.489 182.374 216.975 195.313" stroke="black" stroke-width="0.727034" stroke-miterlimit="92.4347"/>
<path d="M241.794 80.1261C241.794 80.1261 245.612 72.2775 241.369 52.9727" stroke="black" stroke-width="0.727034" stroke-miterlimit="92.4347"/>
<path d="M240.733 82.0356C240.733 82.0356 243.278 77.1566 250.915 73.9758" stroke="black" stroke-width="0.727034" stroke-miterlimit="92.4347"/>
<path d="M228.642 113.43C228.642 113.43 236.915 103.885 256.218 99.2175" stroke="black" stroke-width="0.727034" stroke-miterlimit="92.4347"/>
<path fill-rule="evenodd" clip-rule="evenodd" d="M266.477 32.8967C266.243 32.8967 266.004 32.938 265.765 33.0344C264.492 33.6701 264.492 35.5795 263.22 36.2152H263.007C262.796 36.2152 262.796 36.4286 262.796 36.4286H262.582C262.582 36.6397 262.582 36.6397 262.582 36.6397C262.582 36.8509 262.582 36.8509 262.582 36.8509C263.645 39.1848 267.675 43.0035 271.705 45.762C275.778 48.5939 279.409 49.9502 280.249 49.9502C280.416 49.9502 280.471 49.8975 280.402 49.7919C279.978 48.9428 278.282 43.6392 278.282 43.4281C278.282 42.579 278.704 41.7299 278.918 40.883C279.129 40.0339 279.129 39.1848 278.493 38.5491C278.068 38.1245 277.433 38.1245 277.008 37.7C275.523 36.8509 275.099 34.7304 273.614 34.7304C272.765 34.7304 272.129 35.3661 271.28 35.3661C271.168 35.389 271.06 35.4005 270.952 35.4005C270.041 35.4005 269.281 34.6409 268.524 33.8813C268.03 33.3901 267.282 32.8967 266.477 32.8967Z" fill="black"/>
<path fill-rule="evenodd" clip-rule="evenodd" d="M266.477 32.8967C266.243 32.8967 266.004 32.938 265.765 33.0344C264.492 33.6701 264.492 35.5795 263.22 36.2152H263.007C262.796 36.2152 262.796 36.4286 262.796 36.4286H262.582C262.582 36.6397 262.582 36.6397 262.582 36.6397C262.582 36.8509 262.582 36.8509 262.582 36.8509C263.645 39.1848 267.675 43.0035 271.705 45.762C275.778 48.5939 279.409 49.9502 280.249 49.9502C280.416 49.9502 280.471 49.8975 280.402 49.7919C279.978 48.9428 278.282 43.6392 278.282 43.4281C278.282 42.579 278.704 41.7299 278.918 40.883C279.129 40.0339 279.129 39.1848 278.493 38.5491C278.068 38.1245 277.433 38.1245 277.008 37.7C275.523 36.8509 275.099 34.7304 273.614 34.7304C272.765 34.7304 272.129 35.3661 271.28 35.3661C271.168 35.389 271.06 35.4005 270.952 35.4005C270.041 35.4005 269.281 34.6409 268.524 33.8813C268.03 33.3901 267.282 32.8967 266.477 32.8967Z" stroke="black" stroke-width="0.727034" stroke-miterlimit="92.4347"/>
<path fill-rule="evenodd" clip-rule="evenodd" d="M259.582 34.478C258.726 34.478 257.902 34.7993 257.28 35.5796C256.431 36.6398 257.916 40.6697 258.127 45.3376C258.32 50.1477 263.75 55.4811 269.98 55.4811C270.618 55.4811 271.265 55.426 271.917 55.3067C279.128 54.0353 283.371 51.9125 282.311 50.8522C280.613 49.1563 276.158 48.7317 273.824 45.9733L267.249 41.5188C267.249 41.5188 264.704 38.3358 263.431 36.6398C262.625 35.4327 261.055 34.478 259.582 34.478Z" fill="#973896"/>
<path fill-rule="evenodd" clip-rule="evenodd" d="M259.582 34.478C258.726 34.478 257.902 34.7993 257.28 35.5796C256.431 36.6398 257.916 40.6697 258.127 45.3376C258.32 50.1477 263.75 55.4811 269.98 55.4811C270.618 55.4811 271.265 55.426 271.917 55.3067C279.128 54.0353 283.371 51.9125 282.311 50.8522C280.613 49.1563 276.158 48.7317 273.824 45.9733L267.249 41.5188C267.249 41.5188 264.704 38.3358 263.431 36.6398C262.625 35.4327 261.055 34.478 259.582 34.478Z" stroke="black" stroke-width="0.727034" stroke-miterlimit="92.4347"/>
<path fill-rule="evenodd" clip-rule="evenodd" d="M242.229 76.856C240.228 76.856 238.461 77.4549 237.55 79.2771C234.369 80.3396 235.854 85.2186 237.55 87.1257C239.035 89.0351 242.004 90.9444 244.338 91.7936C253.672 96.6725 264.49 99.8556 272.763 106.431C277.856 110.46 280.612 115.339 284.855 120.643C298.643 137.825 324.736 142.068 345.948 142.068L289.948 89.2485C288.674 86.9146 285.704 86.2789 283.159 86.2789C277.007 85.8543 270.854 86.49 264.915 84.7941C258.764 83.0958 253.672 79.2771 247.521 77.7923C245.851 77.3012 243.953 76.856 242.229 76.856Z" fill="#E68C47"/>
<path d="M289.309 89.0349C287.825 86.4898 285.279 85.8541 282.734 85.4296C279.127 85.2184 275.733 85.4296 272.127 85.2184C268.522 85.2184 265.128 84.3693 261.734 83.3091C258.551 82.0354 255.37 80.126 252.187 78.8546C247.944 77.1564 241.369 75.247 237.55 79.2769C236.065 81.1863 235.64 84.1559 236.914 86.2787C238.399 89.0349 241.157 90.7331 243.703 92.2179C249.642 95.1875 256.217 97.0969 262.158 99.8554C265.339 101.127 268.309 102.825 271.067 104.946C273.401 106.855 275.733 109.189 277.642 111.734C281.461 116.402 284.855 121.492 289.523 125.311C293.977 129.129 298.856 132.099 304.16 134.219C316.249 139.098 329.402 140.797 342.343 140.797" stroke="#161615" stroke-width="0.727034" stroke-miterlimit="92.4347"/>
<path fill-rule="evenodd" clip-rule="evenodd" d="M242.271 78.4714C241.082 78.4714 240.004 78.857 239.249 79.9149C238.824 80.3395 238.4 80.9752 238.186 81.6109C236.701 86.2787 241.794 89.2484 245.612 89.884C246.012 89.9345 246.402 89.9598 246.781 89.9598C248.011 89.9598 249.144 89.6844 250.278 89.0349C252.823 87.1256 252.612 83.5202 250.278 81.6109C249.642 81.1863 249.218 80.7618 248.582 80.5506C246.941 79.7313 244.424 78.4714 242.271 78.4714Z" fill="#452391"/>
<path fill-rule="evenodd" clip-rule="evenodd" d="M354.112 101.976C349.109 101.976 344.111 102.258 339.16 102.825C339.037 102.809 338.913 102.802 338.793 102.802C337.281 102.802 336.161 103.996 335.766 105.37L320.707 144.189C320.282 144.827 320.282 145.676 320.282 146.312C320.707 146.947 321.554 147.372 322.192 147.583L392.405 173.887C393.678 174.312 394.952 175.161 395.799 176.221L398.982 106.855C397.816 107.05 396.653 107.133 395.489 107.133C391.572 107.133 387.684 106.187 383.92 105.37C374.162 103.107 364.122 101.976 354.112 101.976Z" fill="white"/>
<path d="M395.799 176.221C394.952 175.161 393.678 174.312 392.405 173.887L322.192 147.583C321.554 147.372 320.707 146.947 320.282 146.311C320.282 145.676 320.282 144.827 320.707 144.189L335.766 105.37C336.191 103.885 337.464 102.612 339.16 102.825C354.011 101.127 369.283 101.976 383.92 105.37C388.799 106.43 393.892 107.704 398.982 106.855" stroke="black" stroke-width="0.727034" stroke-miterlimit="92.4347"/>
<path d="M375.223 105.581C375.861 105.795 376.284 106.006 376.708 106.43C380.316 108.551 382.647 112.159 383.71 116.188C384.981 120.643 384.981 125.522 384.77 129.976C384.135 135.069 383.285 139.948 382.012 144.827C380.952 148.857 379.678 152.886 378.193 156.919C377.346 159.039 376.708 161.16 375.648 163.282C375.648 163.493 375.648 163.705 375.861 163.918C376.073 163.918 376.284 163.918 376.497 163.705C378.406 160.948 380.527 158.19 382.436 155.434C389.014 145.462 395.377 135.069 398.558 123.612" stroke="black" stroke-width="0.727034" stroke-miterlimit="92.4347"/>
<path fill-rule="evenodd" clip-rule="evenodd" d="M-36.3088 47.6714C-37.5825 47.8825 -39.2784 47.6714 -39.9141 48.9428C-39.8406 48.8188 -39.6433 48.7615 -39.3564 48.7615C-38.9135 48.7615 -38.2571 48.8946 -37.4929 49.1264L-36.3088 47.6714ZM-37.4929 49.1264L-93.7964 118.309C-88.0683 122.977 -81.2799 125.946 -74.2804 128.067C-63.3084 131.319 -50.7805 133.598 -39.3036 133.598C-38.7988 133.598 -38.2939 133.593 -37.7936 133.584C-26.9753 133.37 -16.1571 131.039 -5.76115 128.28C-1.94471 127.431 2.29858 126.16 4.20795 122.552C4.63251 121.916 5.05708 121.067 5.69276 120.432C6.29862 119.674 7.33822 119.564 8.34569 119.564C8.74959 119.564 9.14661 119.583 9.51151 119.583C12.0566 119.371 14.3905 119.371 16.7244 118.947C17.149 118.947 23.5128 117.462 22.8748 117.037C18.8449 114.279 17.7847 108.551 17.9958 103.885C18.2092 101.127 18.4204 98.3707 19.2695 95.8233C20.5409 91.1577 23.2994 87.1256 26.0578 83.0957C26.6935 82.2466 27.3292 81.1863 28.3918 80.9752C29.0275 80.7618 29.8766 80.7618 30.2988 80.1261C30.5123 79.4904 29.6631 78.8547 29.0275 78.4301C26.7991 77.581 24.4124 77.581 22.0532 77.581C19.694 77.581 17.3601 77.581 15.2396 76.7319C12.9057 75.8828 12.0566 73.1266 8.87582 72.4886L-12.7629 67.3985C-15.9437 66.7628 -18.4888 66.3382 -21.0361 64.8534C-23.5812 63.3686 -25.7017 61.6704 -28.2467 60.6101C-29.3093 60.1856 -34.1883 59.3387 -34.6128 58.0651C-35.2485 55.7311 -30.3695 56.1557 -30.1561 53.8218C-30.0092 52.3369 -34.544 50.0168 -37.4929 49.1264Z" fill="white"/>
<path fill-rule="evenodd" clip-rule="evenodd" d="M13.9669 76.9453C-5.33791 78.2167 -1.94374 115.764 5.69374 120.432L13.9669 76.9453Z" fill="white"/>
<path d="M365.253 12.2449V23.9122" stroke="#231F20" stroke-width="0.727034" stroke-miterlimit="92.4347"/>
<path d="M365.253 31.3362V43.0035" stroke="#231F20" stroke-width="0.727034" stroke-miterlimit="92.4347"/>
<path d="M380.526 27.093H368.858" stroke="#231F20" stroke-width="0.727034" stroke-miterlimit="92.4347"/>
<path d="M361.435 27.093H349.768" stroke="#231F20" stroke-width="0.727034" stroke-miterlimit="92.4347"/>
<path fill-rule="evenodd" clip-rule="evenodd" d="M80.5742 39.8206C80.5765 39.8229 89.9099 52.5504 96.4848 56.1558H96.2737C102.849 59.7611 111.971 64.4289 111.971 64.4289C111.971 64.4289 106.879 51.4879 100.09 48.3072C93.3041 45.3375 80.5765 39.8228 80.5742 39.8206Z" fill="white"/>
<path fill-rule="evenodd" clip-rule="evenodd" d="M26.4355 15.9373V17.2835H74.4623V15.9373H26.4355Z" fill="#452391"/>
<path fill-rule="evenodd" clip-rule="evenodd" d="M70.1976 16.0488C67.1687 16.0488 64.6995 18.518 64.6995 21.5469V25.4752C64.6995 26.9332 64.1387 28.2807 63.1287 29.2895C62.3432 29.9633 61.4461 30.4124 60.4361 30.5241C59.5378 30.637 57.6306 30.637 56.1715 30.637H54.6006V31.9833H56.1715C57.7423 31.9833 59.6507 31.9833 60.5478 31.8704C61.8941 31.7587 63.1287 31.1979 64.027 30.2995C65.3733 29.0661 66.1587 27.3824 66.0458 25.4752V21.5469C66.0458 19.1906 67.9542 17.3951 70.1976 17.3951H74.3505V16.0488H70.1976Z" fill="#452391"/>
<path fill-rule="evenodd" clip-rule="evenodd" d="M26.4355 15.9373V17.2835H32.1582C34.4028 17.3952 36.1982 19.1907 36.1982 21.547V25.4754C36.1982 27.2708 36.9837 28.9534 38.3299 30.1879C39.2271 31.0851 40.4617 31.6471 41.6963 31.8705C42.7063 31.9834 43.7163 31.9834 44.6134 31.9834H45.848V30.5242H44.7263C43.7163 30.5242 42.818 30.5242 41.8079 30.4125C40.9108 30.2996 39.9008 29.8517 39.2271 29.1779C38.1054 28.2808 37.5445 26.8216 37.5445 25.3625V21.4353C37.5445 18.4052 35.0753 16.0489 32.1582 15.9373H26.4355Z" fill="#452391"/>
<path fill-rule="evenodd" clip-rule="evenodd" d="M50.2242 26.7087C47.8679 26.7087 45.8479 28.7288 45.8479 31.198V31.3097C45.8479 33.7133 47.8679 35.6908 50.2522 35.6908C50.3177 35.6908 50.3833 35.6896 50.4488 35.686C52.918 35.686 54.9368 33.666 54.9368 31.198C54.9368 28.7288 52.918 26.7087 50.4488 26.7087H50.2242Z" fill="#99C941"/>
<path fill-rule="evenodd" clip-rule="evenodd" d="M78.8382 12.1216C76.369 12.1216 74.4619 14.1416 74.4619 16.4979V16.6096C74.4619 19.0788 76.4819 20.9859 78.9499 20.9859C81.4191 20.9859 83.4392 18.9659 83.4392 16.4979C83.4392 14.1416 81.5308 12.1216 79.0628 12.1216H78.8382Z" fill="#452391"/>
<path fill-rule="evenodd" clip-rule="evenodd" d="M21.4982 11.6726C18.8044 11.6726 16.561 13.8043 16.561 16.4981V16.7227C16.6703 19.3473 18.8056 21.4389 21.4072 21.4389C21.4752 21.4389 21.5419 21.4377 21.6099 21.4353C24.3037 21.3236 26.4354 19.1907 26.5471 16.4981C26.5471 13.8043 24.3037 11.6726 21.6099 11.6726H21.4982Z" fill="#973896"/>
<path fill-rule="evenodd" clip-rule="evenodd" d="M50.4485 27.2706C51.4586 27.3823 52.3557 27.7186 53.1411 28.504C53.8149 29.1778 54.264 30.1878 54.264 31.1978C54.264 33.4424 52.4686 35.1249 50.3369 35.1249C49.3268 35.1249 48.3168 34.7887 47.6431 34.0033C46.8576 33.2178 46.5214 32.2078 46.5214 31.1978C46.5214 29.0661 48.2039 27.2706 50.3369 27.2706H50.4485ZM50.3369 26.1477C47.756 26.2606 45.7359 28.3923 45.5114 30.9732C45.3985 33.7787 47.5314 36.135 50.3369 36.3595V36.2467C53.1411 36.2467 55.3857 34.0033 55.4986 31.1978C55.4986 29.8515 54.9366 28.6169 53.9265 27.7186C53.0294 26.7086 51.6831 26.1477 50.3369 26.1477Z" fill="#452391"/>
<path fill-rule="evenodd" clip-rule="evenodd" d="M78.9501 12.6826C81.083 12.6826 82.7656 14.478 82.7656 16.6098C82.7656 18.7427 81.083 20.4252 78.9501 20.5381C77.8284 20.5381 76.8184 20.089 76.1446 19.3035C75.3592 18.6298 75.0229 17.6198 75.0229 16.6098C75.0229 14.3664 76.7067 12.6826 78.9501 12.6826ZM78.8384 11.448C76.0329 11.448 73.7883 13.8043 73.7883 16.4981C73.7883 17.9573 74.3504 19.1906 75.3592 20.2007C76.2575 21.099 77.6038 21.6598 78.9501 21.6598C81.7556 21.6598 84.0002 19.3035 84.0002 16.4981C84.0002 13.6926 81.7556 11.448 78.9501 11.448L78.8384 11.448Z" fill="#452391"/>
<path fill-rule="evenodd" clip-rule="evenodd" d="M21.6097 12.2334C22.7326 12.2334 23.8543 12.6826 24.6398 13.5809C25.4252 14.3663 25.8744 15.3751 25.8744 16.498C25.8744 18.966 23.966 20.8744 21.498 20.8744C20.3751 20.8744 19.2534 20.4252 18.468 19.6398C17.6826 18.8543 17.2334 17.7326 17.2334 16.498C17.2334 14.2534 19.1417 12.3463 21.498 12.3463L21.6097 12.2334ZM21.3851 11C18.3563 11 16 13.468 16 16.498C16 17.9572 16.5609 19.4152 17.5709 20.4252C18.5809 21.4352 20.0388 22.109 21.498 22.109V21.9961C24.5281 21.9961 26.9961 19.5281 26.9961 16.498C26.9961 15.0389 26.4352 13.6926 25.3135 12.6826C24.3035 11.6725 22.956 11 21.498 11H21.3851Z" fill="#452391"/>
<path d="M14 116H160.157V141.5H14V116Z" fill="white"/>
<path d="M21.5703 122.753C22.5332 122.753 23.4242 122.914 24.2432 123.235C25.0622 123.556 25.7705 124.015 26.3682 124.613C26.9658 125.199 27.4307 125.93 27.7627 126.804C28.1058 127.667 28.2773 128.641 28.2773 129.726C28.2773 131.298 27.9176 132.659 27.1982 133.81C26.4788 134.961 25.5215 135.858 24.3262 136.5L21.9688 137.828C22.2344 137.85 22.5055 137.905 22.7822 137.994C23.0589 138.093 23.3467 138.187 23.6455 138.276C23.9443 138.375 24.2598 138.464 24.5918 138.542C24.9238 138.619 25.2891 138.658 25.6875 138.658C26.0749 138.658 26.4401 138.597 26.7832 138.475C27.1263 138.364 27.3919 138.226 27.5801 138.06L28.6758 140.202C28.5098 140.368 28.1833 140.561 27.6963 140.783C27.2093 141.004 26.584 141.115 25.8203 141.115C25.1784 141.115 24.5863 141.048 24.0439 140.916C23.5127 140.783 23.0036 140.633 22.5166 140.467C22.0407 140.301 21.5758 140.152 21.1221 140.019C20.6794 139.886 20.2256 139.82 19.7607 139.82C19.307 139.82 18.9141 139.864 18.582 139.953C18.2611 140.052 17.9235 140.207 17.5693 140.417L16.5234 138.458L20.043 136.45C19.235 136.306 18.5046 136.046 17.8516 135.669C17.2096 135.293 16.6618 134.817 16.208 134.242C15.7542 133.666 15.4056 133.002 15.1621 132.25C14.9297 131.486 14.8135 130.645 14.8135 129.726C14.8135 128.664 14.9795 127.706 15.3115 126.854C15.6546 125.991 16.125 125.255 16.7227 124.646C17.3314 124.037 18.0508 123.572 18.8809 123.251C19.7109 122.919 20.6074 122.753 21.5703 122.753ZM18.2002 129.709C18.2002 130.462 18.2887 131.126 18.4658 131.702C18.6429 132.266 18.8809 132.742 19.1797 133.129C19.4896 133.506 19.8438 133.793 20.2422 133.993C20.6517 134.181 21.0833 134.275 21.5371 134.275C22.0241 134.275 22.4668 134.175 22.8652 133.976C23.2747 133.777 23.6289 133.484 23.9277 133.096C24.2266 132.709 24.459 132.233 24.625 131.668C24.791 131.093 24.874 130.44 24.874 129.709C24.874 128.924 24.7855 128.249 24.6084 127.684C24.4313 127.12 24.1878 126.649 23.8779 126.273C23.5791 125.897 23.2249 125.62 22.8154 125.443C22.417 125.266 21.9854 125.177 21.5205 125.177C21.0667 125.177 20.6351 125.277 20.2256 125.476C19.8271 125.664 19.4785 125.946 19.1797 126.323C18.8809 126.699 18.6429 127.169 18.4658 127.734C18.2887 128.298 18.2002 128.957 18.2002 129.709ZM36.8285 126.207H39.9662V136.4H37.6585L37.3265 135.288H37.2435C37.0996 135.431 36.9281 135.581 36.7289 135.736C36.5407 135.891 36.3083 136.04 36.0316 136.184C35.7549 136.317 35.4395 136.422 35.0853 136.5C34.7311 136.588 34.3272 136.632 33.8734 136.632C32.7666 136.632 31.8978 136.328 31.2669 135.719C30.6471 135.111 30.3373 134.208 30.3373 133.013V126.207H33.4915V132.764C33.4915 133.284 33.6188 133.672 33.8734 133.926C34.139 134.17 34.4766 134.292 34.8861 134.292C35.3841 134.292 35.7936 134.192 36.1146 133.993C36.4356 133.782 36.6735 133.567 36.8285 133.345V126.207ZM42.6277 127.086C43.2032 126.754 43.8562 126.489 44.5867 126.29C45.3172 126.079 46.0642 125.974 46.8279 125.974C48.0896 125.974 49.1023 126.278 49.866 126.887C50.6297 127.496 51.0115 128.464 51.0115 129.792V136.4H48.6209L48.3386 135.387H48.2556C47.9679 135.752 47.5694 136.051 47.0603 136.284C46.5623 136.516 45.9757 136.632 45.3006 136.632C44.725 136.632 44.2159 136.549 43.7732 136.383C43.3416 136.206 42.9819 135.979 42.6941 135.703C42.4174 135.415 42.2016 135.077 42.0467 134.69C41.9028 134.303 41.8308 133.888 41.8308 133.445C41.8308 132.847 41.9636 132.338 42.2293 131.917C42.4949 131.497 42.8491 131.154 43.2918 130.888C43.7345 130.611 44.2547 130.412 44.8523 130.291C45.461 130.158 46.1085 130.091 46.7947 130.091H47.8572V129.543C47.8572 129.156 47.7189 128.863 47.4422 128.664C47.1765 128.453 46.7947 128.348 46.2967 128.348C45.8761 128.348 45.461 128.415 45.0515 128.547C44.642 128.669 44.1883 128.874 43.6902 129.162L42.6277 127.086ZM47.8738 132L47.1765 132.017C46.7781 132.039 46.4405 132.083 46.1638 132.15C45.8982 132.216 45.6824 132.305 45.5164 132.416C45.3614 132.526 45.2452 132.653 45.1677 132.797C45.1013 132.941 45.0681 133.096 45.0681 133.262C45.0681 133.694 45.1954 133.993 45.45 134.159C45.7156 134.325 46.02 134.408 46.3631 134.408C46.7062 134.408 47.0161 134.308 47.2927 134.109C47.5694 133.91 47.7631 133.688 47.8738 133.445V132ZM56.4628 136.4H53.3085V126.207H55.7489L56.1141 127.468C56.5679 127.003 57.077 126.638 57.6415 126.373C58.217 126.107 58.8368 125.974 59.5009 125.974C60.6408 125.974 61.5152 126.284 62.1239 126.904C62.7326 127.524 63.037 128.437 63.037 129.643V136.4H59.8993V129.958C59.8993 129.46 59.7831 129.068 59.5507 128.78C59.3182 128.492 58.9751 128.348 58.5214 128.348C58.1783 128.348 57.8186 128.448 57.4423 128.647C57.066 128.846 56.7395 129.106 56.4628 129.427V136.4ZM71.798 128.813C71.4217 128.625 71.0177 128.481 70.5861 128.381C70.1655 128.271 69.756 128.215 69.3575 128.215C68.9923 128.215 68.6935 128.282 68.4611 128.415C68.2397 128.536 68.129 128.713 68.129 128.946C68.129 129.178 68.2342 129.377 68.4445 129.543C68.6658 129.709 69.103 129.887 69.756 130.075L70.4034 130.257C71.2446 130.512 71.8865 130.883 72.3292 131.37C72.7719 131.857 72.9933 132.487 72.9933 133.262C72.9933 133.771 72.8826 134.236 72.6612 134.657C72.451 135.066 72.1521 135.42 71.7648 135.719C71.3774 136.018 70.907 136.245 70.3536 136.4C69.8113 136.555 69.2081 136.632 68.5441 136.632C67.8247 136.632 67.1827 136.566 66.6183 136.433C66.0649 136.311 65.5447 136.129 65.0577 135.885L65.7384 133.611C66.1479 133.832 66.574 134.009 67.0167 134.142C67.4705 134.275 67.9298 134.341 68.3946 134.341C68.937 134.341 69.3188 134.264 69.5402 134.109C69.7615 133.954 69.8722 133.766 69.8722 133.544C69.8722 133.423 69.8445 133.318 69.7892 133.229C69.7449 133.129 69.6564 133.041 69.5236 132.963C69.4018 132.875 69.2192 132.792 68.9757 132.714C68.7433 132.637 68.4445 132.543 68.0792 132.432L67.4152 132.233C66.5851 131.967 65.9764 131.597 65.589 131.121C65.2127 130.645 65.0245 130.003 65.0245 129.195C65.0245 128.73 65.1131 128.304 65.2902 127.917C65.4783 127.518 65.7439 127.175 66.087 126.887C66.4412 126.599 66.8673 126.378 67.3653 126.223C67.8745 126.057 68.4555 125.974 69.1085 125.974C69.7504 125.974 70.3536 126.035 70.9181 126.157C71.4825 126.267 71.9917 126.428 72.4454 126.638L71.798 128.813ZM75.1734 136.4V126.207H78.3277V136.4H75.1734ZM76.7505 124.198C76.2082 124.198 75.7932 124.048 75.5054 123.75C75.2287 123.44 75.0904 123.074 75.0904 122.654C75.0904 122.222 75.2343 121.857 75.522 121.558C75.8208 121.248 76.2304 121.093 76.7505 121.093C77.2707 121.093 77.6747 121.243 77.9624 121.542C78.2613 121.84 78.4107 122.211 78.4107 122.654C78.4107 123.097 78.2668 123.467 77.979 123.766C77.7024 124.054 77.2929 124.198 76.7505 124.198ZM80.9189 129.709C80.9189 129.156 81.0295 128.653 81.2509 128.199C81.4833 127.734 81.7987 127.335 82.1972 127.003C82.6067 126.671 83.0826 126.417 83.6249 126.24C84.1672 126.063 84.7649 125.974 85.4179 125.974C85.6614 125.974 85.9381 125.996 86.248 126.041C86.5579 126.074 86.8401 126.129 87.0946 126.207H91.4276V128.132H90.4648L89.2694 127.95C89.4244 128.16 89.5517 128.431 89.6513 128.763C89.762 129.084 89.8173 129.405 89.8173 129.726C89.8173 130.268 89.7177 130.761 89.5185 131.204C89.3192 131.635 89.026 132.017 88.6386 132.349C88.2623 132.67 87.7974 132.919 87.244 133.096C86.6907 133.273 86.0709 133.362 85.3847 133.362C85.2297 133.362 85.0803 133.356 84.9364 133.345C84.7926 133.323 84.6487 133.301 84.5048 133.279C84.4052 133.334 84.3111 133.412 84.2226 133.511C84.1451 133.611 84.1064 133.738 84.1064 133.893C84.1064 134.081 84.1728 134.231 84.3056 134.341C84.4384 134.452 84.7095 134.507 85.119 134.507H87.2773C87.8196 134.507 88.3232 134.568 88.788 134.69C89.2639 134.801 89.6679 134.983 89.9999 135.238C90.3319 135.492 90.5865 135.824 90.7636 136.234C90.9517 136.632 91.0458 137.114 91.0458 137.678C91.0458 138.232 90.913 138.741 90.6474 139.206C90.3817 139.67 89.9999 140.074 89.5019 140.417C89.0149 140.761 88.4228 141.026 87.7255 141.214C87.0282 141.403 86.2535 141.497 85.4013 141.497C83.8186 141.497 82.5735 141.22 81.6659 140.667C80.7584 140.113 80.3046 139.327 80.3046 138.309C80.3046 137.855 80.454 137.457 80.7528 137.114C81.0627 136.771 81.4944 136.5 82.0478 136.3C81.8707 136.179 81.677 135.979 81.4667 135.703C81.2564 135.426 81.1513 135.083 81.1513 134.673C81.1513 134.197 81.2952 133.788 81.5829 133.445C81.8707 133.091 82.2359 132.808 82.6786 132.598C82.4905 132.499 82.2913 132.36 82.081 132.183C81.8817 132.006 81.6936 131.796 81.5165 131.552C81.3394 131.309 81.1955 131.038 81.0849 130.739C80.9742 130.429 80.9189 130.086 80.9189 129.709ZM83.7909 136.848C83.6138 136.937 83.4589 137.064 83.3261 137.23C83.2043 137.396 83.1435 137.606 83.1435 137.861C83.1435 138.215 83.3095 138.519 83.6415 138.774C83.9735 139.028 84.5878 139.156 85.4843 139.156C86.3254 139.156 86.9452 139.017 87.3437 138.741C87.7532 138.464 87.9579 138.143 87.9579 137.778C87.9579 137.457 87.8417 137.219 87.6093 137.064C87.3879 136.92 87.0061 136.848 86.4638 136.848H83.7909ZM86.7626 129.66C86.7626 129.162 86.6298 128.785 86.3642 128.531C86.0985 128.265 85.772 128.132 85.3847 128.132C84.9752 128.132 84.6376 128.265 84.372 128.531C84.1174 128.785 83.9901 129.162 83.9901 129.66C83.9901 130.158 84.123 130.54 84.3886 130.805C84.6542 131.06 84.9862 131.187 85.3847 131.187C85.7942 131.187 86.1262 131.06 86.3808 130.805C86.6353 130.54 86.7626 130.158 86.7626 129.66ZM96.446 136.4H93.3083V121.209H96.446V127.003C96.8333 126.705 97.2871 126.461 97.8073 126.273C98.3385 126.074 98.8975 125.974 99.484 125.974C100.115 125.974 100.657 126.068 101.111 126.256C101.565 126.433 101.936 126.688 102.223 127.02C102.522 127.352 102.743 127.745 102.887 128.199C103.042 128.653 103.12 129.156 103.12 129.709V136.4H99.9821V130.224C99.9821 129.538 99.8437 129.056 99.567 128.78C99.2904 128.492 98.903 128.348 98.4049 128.348C98.0618 128.348 97.7132 128.426 97.359 128.581C97.0049 128.736 96.7005 128.94 96.446 129.195V136.4ZM111.913 128.448H109.307V132.764C109.307 133.229 109.406 133.556 109.606 133.744C109.816 133.932 110.104 134.026 110.469 134.026C110.757 134.026 111.039 133.998 111.316 133.943C111.603 133.876 111.825 133.793 111.98 133.694L112.445 135.852C112.212 135.974 111.847 136.096 111.349 136.217C110.862 136.339 110.342 136.4 109.788 136.4C108.471 136.4 107.542 136.145 106.999 135.636C106.457 135.127 106.186 134.352 106.186 133.312V128.448H104.592V126.207H106.186V123.102H109.307V126.207H111.913V128.448ZM118.946 123.019H122.183V133.893H127.479V136.4H118.946V123.019ZM129.009 127.086C129.584 126.754 130.237 126.489 130.968 126.29C131.698 126.079 132.445 125.974 133.209 125.974C134.471 125.974 135.484 126.278 136.247 126.887C137.011 127.496 137.393 128.464 137.393 129.792V136.4H135.002L134.72 135.387H134.637C134.349 135.752 133.951 136.051 133.442 136.284C132.943 136.516 132.357 136.632 131.682 136.632C131.106 136.632 130.597 136.549 130.154 136.383C129.723 136.206 129.363 135.979 129.075 135.703C128.799 135.415 128.583 135.077 128.428 134.69C128.284 134.303 128.212 133.888 128.212 133.445C128.212 132.847 128.345 132.338 128.61 131.917C128.876 131.497 129.23 131.154 129.673 130.888C130.116 130.611 130.636 130.412 131.234 130.291C131.842 130.158 132.49 130.091 133.176 130.091H134.238V129.543C134.238 129.156 134.1 128.863 133.823 128.664C133.558 128.453 133.176 128.348 132.678 128.348C132.257 128.348 131.842 128.415 131.433 128.547C131.023 128.669 130.569 128.874 130.071 129.162L129.009 127.086ZM134.255 132L133.558 132.017C133.159 132.039 132.822 132.083 132.545 132.15C132.279 132.216 132.064 132.305 131.898 132.416C131.743 132.526 131.626 132.653 131.549 132.797C131.483 132.941 131.449 133.096 131.449 133.262C131.449 133.694 131.577 133.993 131.831 134.159C132.097 134.325 132.401 134.408 132.744 134.408C133.087 134.408 133.397 134.308 133.674 134.109C133.951 133.91 134.144 133.688 134.255 133.445V132ZM150.016 131.336C150.016 132.167 149.894 132.908 149.651 133.561C149.407 134.203 149.064 134.756 148.621 135.221C148.19 135.686 147.681 136.04 147.094 136.284C146.507 136.516 145.865 136.632 145.168 136.632C144.504 136.632 143.94 136.533 143.475 136.333C143.01 136.123 142.612 135.835 142.28 135.47H142.197L142.014 136.4H139.739V121.209H142.861V126.904C143.182 126.638 143.563 126.417 144.006 126.24C144.449 126.063 144.936 125.974 145.467 125.974C146.884 125.974 147.996 126.444 148.804 127.385C149.612 128.326 150.016 129.643 150.016 131.336ZM146.795 131.419C146.795 130.39 146.596 129.621 146.197 129.112C145.799 128.603 145.24 128.348 144.521 128.348C144.178 128.348 143.851 128.437 143.541 128.614C143.242 128.791 143.021 128.962 142.877 129.128V133.727C143.032 133.904 143.237 134.054 143.491 134.175C143.746 134.286 144.017 134.341 144.305 134.341C144.626 134.341 144.936 134.286 145.235 134.175C145.533 134.054 145.799 133.876 146.031 133.644C146.264 133.401 146.447 133.096 146.579 132.731C146.723 132.355 146.795 131.917 146.795 131.419ZM158.243 128.813C157.867 128.625 157.463 128.481 157.031 128.381C156.61 128.271 156.201 128.215 155.802 128.215C155.437 128.215 155.138 128.282 154.906 128.415C154.685 128.536 154.574 128.713 154.574 128.946C154.574 129.178 154.679 129.377 154.889 129.543C155.111 129.709 155.548 129.887 156.201 130.075L156.848 130.257C157.69 130.512 158.331 130.883 158.774 131.37C159.217 131.857 159.438 132.487 159.438 133.262C159.438 133.771 159.328 134.236 159.106 134.657C158.896 135.066 158.597 135.42 158.21 135.719C157.822 136.018 157.352 136.245 156.799 136.4C156.256 136.555 155.653 136.632 154.989 136.632C154.27 136.632 153.628 136.566 153.063 136.433C152.51 136.311 151.99 136.129 151.503 135.885L152.183 133.611C152.593 133.832 153.019 134.009 153.462 134.142C153.915 134.275 154.375 134.341 154.84 134.341C155.382 134.341 155.764 134.264 155.985 134.109C156.206 133.954 156.317 133.766 156.317 133.544C156.317 133.423 156.289 133.318 156.234 133.229C156.19 133.129 156.101 133.041 155.968 132.963C155.847 132.875 155.664 132.792 155.421 132.714C155.188 132.637 154.889 132.543 154.524 132.432L153.86 132.233C153.03 131.967 152.421 131.597 152.034 131.121C151.658 130.645 151.469 130.003 151.469 129.195C151.469 128.73 151.558 128.304 151.735 127.917C151.923 127.518 152.189 127.175 152.532 126.887C152.886 126.599 153.312 126.378 153.81 126.223C154.319 126.057 154.9 125.974 155.553 125.974C156.195 125.974 156.799 126.035 157.363 126.157C157.927 126.267 158.437 126.428 158.89 126.638L158.243 128.813Z" fill="#452391"/>
<path d="M14 142H200V174H14V142Z" fill="white"/>
<path d="M18.6982 150.644C18.2555 150.644 17.8294 150.727 17.4199 150.893C17.0215 151.048 16.6064 151.308 16.1748 151.673L14.8965 149.731C15.4167 149.299 16.0088 148.945 16.6729 148.668C17.3369 148.392 18.167 148.253 19.1631 148.253C19.8161 148.253 20.4082 148.353 20.9395 148.552C21.4707 148.751 21.9189 149.028 22.2842 149.382C22.6494 149.725 22.9372 150.14 23.1475 150.627C23.3577 151.103 23.4629 151.624 23.4629 152.188C23.4629 153.084 23.153 154.036 22.5332 155.043C21.9134 156.04 21.0003 157.102 19.7939 158.231L18.4492 159.493H23.5625V161.9H15.2949L14.7471 159.841L16.7061 157.882C17.3923 157.185 17.9622 156.582 18.416 156.073C18.8698 155.553 19.235 155.082 19.5117 154.662C19.7884 154.241 19.9821 153.854 20.0928 153.5C20.2145 153.145 20.2754 152.802 20.2754 152.47C20.2754 151.828 20.1149 151.363 19.7939 151.076C19.484 150.788 19.1188 150.644 18.6982 150.644ZM30.8346 148.253C31.6426 148.253 32.3896 148.386 33.0758 148.652C33.762 148.917 34.3486 149.333 34.8356 149.897C35.3337 150.45 35.7266 151.164 36.0143 152.039C36.3021 152.902 36.446 153.942 36.446 155.16C36.446 156.355 36.291 157.39 35.9811 158.264C35.6823 159.139 35.2673 159.863 34.736 160.439C34.2158 161.014 33.6126 161.441 32.9264 161.717C32.2513 161.994 31.543 162.132 30.8014 162.132C29.9935 162.132 29.2464 162 28.5602 161.734C27.874 161.457 27.2764 161.037 26.7673 160.472C26.2692 159.908 25.8763 159.188 25.5885 158.314C25.3118 157.429 25.1735 156.377 25.1735 155.16C25.1735 153.998 25.3284 152.985 25.6383 152.122C25.9593 151.247 26.3743 150.528 26.8835 149.963C27.4036 149.388 28.0013 148.962 28.6764 148.685C29.3626 148.397 30.082 148.253 30.8346 148.253ZM28.4108 155.16C28.4108 156.056 28.4772 156.803 28.61 157.401C28.7428 157.987 28.9199 158.463 29.1413 158.829C29.3626 159.194 29.6172 159.454 29.9049 159.609C30.1927 159.753 30.5026 159.825 30.8346 159.825C31.1445 159.825 31.4434 159.753 31.7311 159.609C32.0189 159.454 32.2734 159.194 32.4948 158.829C32.7161 158.463 32.8877 157.987 33.0094 157.401C33.1423 156.803 33.2087 156.056 33.2087 155.16C33.2087 154.274 33.1423 153.538 33.0094 152.952C32.8877 152.354 32.7161 151.884 32.4948 151.541C32.2734 151.197 32.0189 150.954 31.7311 150.81C31.4434 150.655 31.1445 150.578 30.8346 150.578C30.5026 150.578 30.1927 150.65 29.9049 150.793C29.6172 150.926 29.3626 151.17 29.1413 151.524C28.9199 151.878 28.7428 152.354 28.61 152.952C28.4772 153.538 28.4108 154.274 28.4108 155.16ZM41.8182 150.644C41.3755 150.644 40.9494 150.727 40.5399 150.893C40.1415 151.048 39.7264 151.308 39.2948 151.673L38.0165 149.731C38.5366 149.299 39.1288 148.945 39.7928 148.668C40.4569 148.392 41.287 148.253 42.2831 148.253C42.9361 148.253 43.5282 148.353 44.0594 148.552C44.5907 148.751 45.0389 149.028 45.4042 149.382C45.7694 149.725 46.0572 150.14 46.2674 150.627C46.4777 151.103 46.5829 151.624 46.5829 152.188C46.5829 153.084 46.273 154.036 45.6532 155.043C45.0334 156.04 44.1203 157.102 42.9139 158.231L41.5692 159.493H46.6825V161.9H38.4149L37.867 159.841L39.826 157.882C40.5122 157.185 41.0822 156.582 41.536 156.073C41.9898 155.553 42.355 155.082 42.6317 154.662C42.9084 154.241 43.1021 153.854 43.2128 153.5C43.3345 153.145 43.3954 152.802 43.3954 152.47C43.3954 151.828 43.2349 151.363 42.9139 151.076C42.604 150.788 42.2388 150.644 41.8182 150.644ZM52.2945 150.644C51.8517 150.644 51.4256 150.727 51.0161 150.893C50.6177 151.048 50.2027 151.308 49.771 151.673L48.4927 149.731C49.0129 149.299 49.605 148.945 50.2691 148.668C50.9331 148.392 51.7632 148.253 52.7593 148.253C53.4123 148.253 54.0044 148.353 54.5357 148.552C55.0669 148.751 55.5152 149.028 55.8804 149.382C56.2456 149.725 56.5334 150.14 56.7437 150.627C56.954 151.103 57.0591 151.624 57.0591 152.188C57.0591 153.084 56.7492 154.036 56.1294 155.043C55.5096 156.04 54.5965 157.102 53.3902 158.231L52.0454 159.493H57.1587V161.9H48.8911L48.3433 159.841L50.3023 157.882C50.9885 157.185 51.5585 156.582 52.0122 156.073C52.466 155.553 52.8312 155.082 53.1079 154.662C53.3846 154.241 53.5783 153.854 53.689 153.5C53.8107 153.145 53.8716 152.802 53.8716 152.47C53.8716 151.828 53.7111 151.363 53.3902 151.076C53.0803 150.788 52.715 150.644 52.2945 150.644ZM68.2153 148.519H71.6519L76.4829 161.9H73.0464L72.1333 159.028H67.6343L66.7212 161.9H63.3345L68.2153 148.519ZM68.3315 156.687H71.4028L70.8882 155.077C70.7222 154.556 70.5506 153.998 70.3735 153.4C70.1965 152.802 70.0415 152.254 69.9087 151.756H69.8589C69.7261 152.254 69.5656 152.797 69.3774 153.383C69.1893 153.959 69.0122 154.523 68.8462 155.077L68.3315 156.687ZM81.2402 161.9H78.086V151.707H80.5264L80.8916 152.968C81.3454 152.503 81.8545 152.138 82.419 151.873C82.9945 151.607 83.6143 151.474 84.2783 151.474C85.4183 151.474 86.2927 151.784 86.9014 152.404C87.5101 153.024 87.8145 153.937 87.8145 155.143V161.9H84.6768V155.458C84.6768 154.96 84.5606 154.568 84.3281 154.28C84.0957 153.992 83.7526 153.848 83.2988 153.848C82.9557 153.848 82.596 153.948 82.2197 154.147C81.8434 154.346 81.5169 154.606 81.2402 154.927V161.9ZM93.4377 161.9H90.2834V151.707H92.7239L93.0891 152.968C93.5429 152.503 94.052 152.138 94.6165 151.873C95.192 151.607 95.8118 151.474 96.4758 151.474C97.6158 151.474 98.4902 151.784 99.0989 152.404C99.7076 153.024 100.012 153.937 100.012 155.143V161.9H96.8743V155.458C96.8743 154.96 96.7581 154.568 96.5256 154.28C96.2932 153.992 95.9501 153.848 95.4963 153.848C95.1532 153.848 94.7935 153.948 94.4172 154.147C94.0409 154.346 93.7144 154.606 93.4377 154.927V161.9ZM108.972 151.707H112.11V161.9H109.802L109.47 160.788H109.387C109.243 160.931 109.072 161.081 108.873 161.236C108.684 161.391 108.452 161.54 108.175 161.684C107.899 161.817 107.583 161.922 107.229 162C106.875 162.088 106.471 162.132 106.017 162.132C104.91 162.132 104.041 161.828 103.411 161.219C102.791 160.611 102.481 159.708 102.481 158.513V151.707H105.635V158.264C105.635 158.784 105.763 159.172 106.017 159.426C106.283 159.67 106.62 159.792 107.03 159.792C107.528 159.792 107.937 159.692 108.258 159.493C108.579 159.282 108.817 159.067 108.972 158.845V151.707ZM114.771 152.586C115.347 152.254 116 151.989 116.73 151.79C117.461 151.579 118.208 151.474 118.972 151.474C120.233 151.474 121.246 151.778 122.01 152.387C122.773 152.996 123.155 153.964 123.155 155.292V161.9H120.765L120.482 160.887H120.399C120.112 161.252 119.713 161.551 119.204 161.784C118.706 162.016 118.119 162.132 117.444 162.132C116.869 162.132 116.36 162.049 115.917 161.883C115.485 161.706 115.126 161.479 114.838 161.203C114.561 160.915 114.345 160.577 114.19 160.19C114.046 159.803 113.975 159.388 113.975 158.945C113.975 158.347 114.107 157.838 114.373 157.417C114.639 156.997 114.993 156.654 115.435 156.388C115.878 156.111 116.398 155.912 116.996 155.791C117.605 155.658 118.252 155.591 118.938 155.591H120.001V155.043C120.001 154.656 119.863 154.363 119.586 154.164C119.32 153.953 118.938 153.848 118.44 153.848C118.02 153.848 117.605 153.915 117.195 154.047C116.786 154.169 116.332 154.374 115.834 154.662L114.771 152.586ZM120.017 157.5L119.32 157.517C118.922 157.539 118.584 157.583 118.308 157.65C118.042 157.716 117.826 157.805 117.66 157.916C117.505 158.026 117.389 158.153 117.311 158.297C117.245 158.441 117.212 158.596 117.212 158.762C117.212 159.194 117.339 159.493 117.594 159.659C117.859 159.825 118.164 159.908 118.507 159.908C118.85 159.908 119.16 159.808 119.436 159.609C119.713 159.41 119.907 159.188 120.017 158.945V157.5ZM125.731 161.9V146.709H128.836V161.9H125.731ZM136.477 148.519H141.789C142.564 148.519 143.245 148.63 143.831 148.851C144.418 149.061 144.905 149.36 145.292 149.748C145.68 150.124 145.973 150.572 146.172 151.092C146.371 151.601 146.471 152.144 146.471 152.719C146.471 153.273 146.388 153.76 146.222 154.18C146.067 154.59 145.862 154.955 145.608 155.276C145.353 155.586 145.077 155.84 144.778 156.04C144.479 156.239 144.202 156.394 143.948 156.504L147.152 161.9H143.433L141.059 157.069H139.714V161.9H136.477V148.519ZM139.714 154.628H140.694C141.424 154.628 142.016 154.479 142.47 154.18C142.924 153.881 143.151 153.4 143.151 152.736C143.151 152.182 142.968 151.745 142.603 151.424C142.238 151.103 141.706 150.943 141.009 150.943H139.714V154.628ZM157.897 157.716H151.323V157.799C151.323 158.508 151.599 159.028 152.153 159.36C152.706 159.681 153.398 159.841 154.228 159.841C154.815 159.841 155.324 159.786 155.755 159.675C156.198 159.554 156.569 159.415 156.868 159.26L157.432 161.435C157.056 161.612 156.574 161.773 155.988 161.917C155.401 162.06 154.682 162.132 153.83 162.132C153.066 162.132 152.335 162.033 151.638 161.833C150.952 161.623 150.349 161.308 149.829 160.887C149.319 160.456 148.91 159.913 148.6 159.26C148.301 158.607 148.152 157.827 148.152 156.919C148.152 156.123 148.274 155.387 148.517 154.711C148.772 154.036 149.126 153.461 149.58 152.985C150.033 152.498 150.576 152.127 151.206 151.873C151.837 151.607 152.535 151.474 153.298 151.474C154.693 151.474 155.805 151.9 156.635 152.752C157.476 153.594 157.897 154.8 157.897 156.372V157.716ZM154.693 155.575C154.693 155.331 154.665 155.099 154.61 154.877C154.554 154.645 154.466 154.44 154.344 154.263C154.222 154.086 154.067 153.948 153.879 153.848C153.691 153.737 153.459 153.682 153.182 153.682C152.695 153.682 152.286 153.854 151.954 154.197C151.633 154.54 151.444 155.01 151.389 155.608L154.693 155.575ZM164.832 162.132C164.478 162.132 164.129 162.094 163.786 162.016C163.454 161.939 163.177 161.845 162.956 161.734V166.781H159.835V151.707H162.175L162.474 152.786C162.884 152.376 163.36 152.055 163.902 151.823C164.455 151.59 165.059 151.474 165.712 151.474C166.354 151.474 166.946 151.596 167.488 151.839C168.03 152.072 168.484 152.415 168.849 152.869C169.215 153.311 169.497 153.854 169.696 154.496C169.906 155.126 170.011 155.829 170.011 156.604C170.011 157.489 169.879 158.275 169.613 158.961C169.347 159.648 168.977 160.223 168.501 160.688C168.036 161.153 167.488 161.513 166.857 161.767C166.226 162.011 165.551 162.132 164.832 162.132ZM164.815 153.798C164.383 153.798 164.002 153.898 163.67 154.097C163.349 154.296 163.111 154.496 162.956 154.695V159.376C163.31 159.686 163.802 159.841 164.433 159.841C164.71 159.841 164.992 159.786 165.28 159.675C165.568 159.554 165.817 159.371 166.027 159.127C166.248 158.884 166.431 158.563 166.575 158.165C166.719 157.766 166.791 157.274 166.791 156.687C166.791 155.879 166.619 155.198 166.276 154.645C165.933 154.081 165.446 153.798 164.815 153.798ZM182.041 156.737C182.041 157.567 181.903 158.319 181.626 158.995C181.349 159.659 180.967 160.223 180.48 160.688C180.004 161.153 179.44 161.513 178.787 161.767C178.145 162.011 177.448 162.132 176.695 162.132C175.943 162.132 175.24 162.016 174.587 161.784C173.945 161.551 173.391 161.214 172.927 160.771C172.462 160.328 172.091 159.786 171.814 159.144C171.549 158.502 171.416 157.772 171.416 156.953C171.416 156.089 171.554 155.32 171.831 154.645C172.108 153.959 172.484 153.383 172.96 152.918C173.447 152.443 174.017 152.083 174.67 151.839C175.323 151.596 176.026 151.474 176.778 151.474C177.531 151.474 178.228 151.585 178.87 151.806C179.512 152.028 180.065 152.365 180.53 152.819C181.006 153.262 181.377 153.809 181.642 154.462C181.908 155.115 182.041 155.874 182.041 156.737ZM178.82 156.836C178.82 156.283 178.759 155.813 178.638 155.425C178.527 155.038 178.372 154.722 178.173 154.479C177.974 154.224 177.747 154.042 177.492 153.931C177.238 153.82 176.977 153.765 176.712 153.765C176.446 153.765 176.186 153.815 175.932 153.915C175.688 154.014 175.467 154.186 175.267 154.429C175.079 154.662 174.93 154.977 174.819 155.375C174.709 155.763 174.653 156.25 174.653 156.836C174.653 157.877 174.863 158.64 175.284 159.127C175.716 159.603 176.208 159.841 176.762 159.841C177.027 159.841 177.282 159.792 177.525 159.692C177.78 159.581 178.001 159.41 178.189 159.177C178.377 158.934 178.527 158.624 178.638 158.248C178.759 157.86 178.82 157.39 178.82 156.836ZM183.975 161.9V151.707H186.448L186.764 153.483C186.885 153.228 187.04 152.979 187.229 152.736C187.417 152.481 187.638 152.265 187.893 152.088C188.147 151.9 188.44 151.751 188.772 151.64C189.105 151.529 189.475 151.474 189.885 151.474C190.195 151.474 190.482 151.513 190.748 151.59C191.014 151.668 191.224 151.756 191.379 151.856L190.864 154.296C190.709 154.208 190.51 154.13 190.267 154.064C190.023 153.986 189.724 153.948 189.37 153.948C188.717 153.948 188.175 154.164 187.743 154.595C187.312 155.016 187.096 155.752 187.096 156.803V161.9H183.975ZM199.336 153.948H196.729V158.264C196.729 158.729 196.829 159.056 197.028 159.244C197.238 159.432 197.526 159.526 197.891 159.526C198.179 159.526 198.461 159.498 198.738 159.443C199.026 159.376 199.247 159.293 199.402 159.194L199.867 161.352C199.635 161.474 199.269 161.596 198.771 161.717C198.284 161.839 197.764 161.9 197.211 161.9C195.894 161.9 194.964 161.645 194.422 161.136C193.879 160.627 193.608 159.852 193.608 158.812V153.948H192.014V151.707H193.608V148.602H196.729V151.707H199.336V153.948Z" fill="#452391"/>
</g>
<defs>
<clipPath id="clip0_8_1623">
<rect width="391" height="174" fill="white"/>
</clipPath>
</defs>
</svg>
