<?xml version="1.0" encoding="UTF-8"?><svg id="Layer_1" xmlns="http://www.w3.org/2000/svg" xmlns:xlink="http://www.w3.org/1999/xlink" viewBox="0 0 1024 684"><defs><style>.cls-1{fill:#452391;}.cls-2,.cls-3{fill:#98c841;}.cls-4{fill:#fff;}.cls-5,.cls-6{fill:#963895;}.cls-7,.cls-8,.cls-9,.cls-10,.cls-3,.cls-11,.cls-12,.cls-6{stroke-miterlimit:10;}.cls-7,.cls-8,.cls-9,.cls-10,.cls-3,.cls-11,.cls-6{stroke:#000;}.cls-7,.cls-10,.cls-12,.cls-13{fill:none;}.cls-14{clip-path:url(#clippath-2);}.cls-15{fill:#d2d1d1;}.cls-16{clip-path:url(#clippath-6);}.cls-17,.cls-9{fill:#452390;}.cls-18{opacity:.86;}.cls-10{stroke-width:.75px;}.cls-11{fill:#f6cdc5;}.cls-19{clip-path:url(#clippath-7);}.cls-20{clip-path:url(#clippath-1);}.cls-21{opacity:.89;}.cls-22{fill:#99c941;}.cls-12{stroke:#e9e8e8;stroke-width:5px;}.cls-23{clip-path:url(#clippath);}.cls-24{clip-path:url(#clippath-3);}.cls-25{clip-path:url(#clippath-5);}.cls-26{fill:#e58b47;}</style><clipPath id="clippath"><rect class="cls-13" x="-29.46" y="77.2" width="513.17" height="515.57" transform="translate(-170.35 258.72) rotate(-45)"/></clipPath><clipPath id="clippath-1"><rect class="cls-13" x="-29.46" y="77.2" width="513.17" height="515.57" transform="translate(-170.35 258.72) rotate(-45)"/></clipPath><clipPath id="clippath-2"><rect class="cls-13" x="386.39" y="455.23" width="103.09" height="149.75" transform="translate(-246.57 464.93) rotate(-45)"/></clipPath><clipPath id="clippath-3"><rect class="cls-13" x="386.39" y="455.23" width="103.09" height="149.75" transform="translate(-246.57 464.93) rotate(-45)"/></clipPath><clipPath id="clippath-5"><rect class="cls-13" x="327.69" y="485.55" width="123.43" height="124" transform="translate(-273.12 435.72) rotate(-45)"/></clipPath><clipPath id="clippath-6"><rect class="cls-13" x="327.69" y="485.55" width="123.43" height="124" transform="translate(-273.12 435.72) rotate(-45)"/></clipPath><clipPath id="clippath-7"><path class="cls-13" d="m852.23,281.33c0,63.15-51.19,114.34-114.34,114.34s-114.34-51.19-114.34-114.34,51.19-114.34,114.34-114.34,114.34,51.19,114.34,114.34"/></clipPath></defs><g><g class="cls-23"><g class="cls-20"><path class="cls-1" d="m45.69,516.42c100.67,100.67,263.51,101.05,363.72.85,100.2-100.2,99.82-263.05-.85-363.72-100.67-100.67-263.51-101.05-363.72-.85-100.2,100.2-99.82,263.05.85,363.72"/></g></g><g class="cls-21"><g class="cls-14"><g class="cls-24"><path class="cls-22" d="m400.26,497.9c-18.62,18.62-18.55,48.88.16,67.59,18.71,18.71,48.97,18.78,67.59.16,18.62-18.62,18.55-48.88-.16-67.59-18.71-18.71-48.97-18.78-67.59-.16"/></g></g></g><g class="cls-18"><g class="cls-25"><g class="cls-16"><path class="cls-10" d="m346.33,590.62c23.9,23.9,62.55,23.99,86.34.2,23.79-23.79,23.69-62.44-.2-86.34s-62.55-23.99-86.34-.2c-23.79,23.79-23.7,62.44.2,86.34Z"/></g></g></g></g><g><path class="cls-1" d="m977.86,134.94l-.3,17.43c-.02,1.6,1.25,2.91,2.85,2.94.53,0,1.05-.13,1.5-.4l14.51-8.42c1.38-.8,1.85-2.58,1.04-3.95-.23-.4-.56-.74-.95-.99l-14.2-8.92c-1.35-.86-3.13-.45-3.99.89-.27.43-.42.92-.45,1.42Z"/><path class="cls-15" d="m842.56,177.84c0,29.21-23.68,52.88-52.88,52.88s-52.88-23.67-52.88-52.88,23.68-52.88,52.88-52.88,52.88,23.67,52.88,52.88"/><g class="cls-19"><path class="cls-12" d="m-269.64,401.75c6.52,0,9.88-6.08,16.1-6.08s9.58,6.08,16.1,6.08,9.88-6.08,16.1-6.08,9.58,6.08,16.1,6.08,9.88-6.08,16.1-6.08,9.58,6.08,16.09,6.08,9.88-6.08,16.1-6.08,9.58,6.08,16.1,6.08,9.87-6.08,16.1-6.08,9.58,6.08,16.1,6.08,9.87-6.08,16.1-6.08,9.58,6.08,16.1,6.08,9.88-6.08,16.1-6.08,9.58,6.08,16.1,6.08,9.88-6.08,16.1-6.08,9.58,6.08,16.09,6.08,9.88-6.08,16.1-6.08,9.58,6.08,16.1,6.08,9.88-6.08,16.1-6.08,9.58,6.08,16.09,6.08,9.88-6.08,16.1-6.08,9.58,6.08,16.1,6.08,9.87-6.08,16.1-6.08,9.58,6.08,16.1,6.08,9.87-6.08,16.1-6.08,9.58,6.08,16.1,6.08,9.88-6.08,16.1-6.08,9.58,6.08,16.09,6.08,9.88-6.08,16.1-6.08,9.58,6.08,16.1,6.08,9.88-6.08,16.1-6.08,9.58,6.08,16.1,6.08,9.88-6.08,16.1-6.08,9.58,6.08,16.09,6.08,9.88-6.08,16.1-6.08,9.58,6.08,16.1,6.08,9.87-6.08,16.09-6.08,9.58,6.08,16.1,6.08,9.87-6.08,16.1-6.08,9.58,6.08,16.1,6.08,9.88-6.08,16.1-6.08,9.58,6.08,16.1,6.08,9.88-6.08,16.1-6.08,9.58,6.08,16.1,6.08,9.88-6.08,16.1-6.08,9.58,6.08,16.1,6.08,9.88-6.08,16.1-6.08,9.58,6.08,16.09,6.08,9.88-6.08,16.1-6.08,9.58,6.08,16.1,6.08,9.87-6.08,16.1-6.08,9.58,6.08,16.1,6.08,9.87-6.08,16.1-6.08,9.58,6.08,16.1,6.08,9.88-6.08,16.1-6.08,9.58,6.08,16.1,6.08,9.88-6.08,16.1-6.08,9.58,6.08,16.09,6.08,9.88-6.08,16.1-6.08,9.58,6.08,16.1,6.08,9.88-6.08,16.1-6.08,9.58,6.08,16.09,6.08,9.88-6.08,16.1-6.08,9.58,6.08,16.1,6.08,9.87-6.08,16.1-6.08,9.58,6.08,16.1,6.08,9.87-6.08,16.1-6.08,9.58,6.08,16.1,6.08,9.88-6.08,16.1-6.08,9.58,6.08,16.1,6.08,9.88-6.08,16.1-6.08,9.58,6.08,16.1,6.08,9.88-6.08,16.1-6.08,9.58,6.08,16.1,6.08,9.88-6.08,16.1-6.08,9.58,6.08,16.09,6.08,9.88-6.08,16.1-6.08,9.58,6.08,16.1,6.08,9.87-6.08,16.1-6.08,9.58,6.08,16.1,6.08m-1287.86-15.52c6.52,0,9.88-6.08,16.1-6.08s9.58,6.08,16.1,6.08,9.88-6.08,16.1-6.08,9.58,6.08,16.1,6.08,9.88-6.08,16.1-6.08,9.58,6.08,16.09,6.08,9.88-6.08,16.1-6.08,9.58,6.08,16.1,6.08,9.87-6.08,16.1-6.08,9.58,6.08,16.1,6.08,9.87-6.08,16.1-6.08,9.58,6.08,16.1,6.08,9.88-6.08,16.1-6.08,9.58,6.08,16.1,6.08,9.88-6.08,16.1-6.08,9.58,6.08,16.09,6.08,9.88-6.08,16.1-6.08,9.58,6.08,16.1,6.08,9.88-6.08,16.1-6.08,9.58,6.08,16.09,6.08,9.88-6.08,16.1-6.08,9.58,6.08,16.1,6.08,9.87-6.08,16.1-6.08,9.58,6.08,16.1,6.08,9.87-6.08,16.1-6.08,9.58,6.08,16.1,6.08,9.88-6.08,16.1-6.08,9.58,6.08,16.09,6.08,9.88-6.08,16.1-6.08,9.58,6.08,16.1,6.08,9.88-6.08,16.1-6.08,9.58,6.08,16.1,6.08,9.88-6.08,16.1-6.08,9.58,6.08,16.09,6.08,9.88-6.08,16.1-6.08,9.58,6.08,16.1,6.08,9.87-6.08,16.09-6.08,9.58,6.08,16.1,6.08,9.87-6.08,16.1-6.08,9.58,6.08,16.1,6.08,9.88-6.08,16.1-6.08,9.58,6.08,16.1,6.08,9.88-6.08,16.1-6.08,9.58,6.08,16.1,6.08,9.88-6.08,16.1-6.08,9.58,6.08,16.1,6.08,9.88-6.08,16.1-6.08,9.58,6.08,16.09,6.08,9.88-6.08,16.1-6.08,9.58,6.08,16.1,6.08,9.87-6.08,16.1-6.08,9.58,6.08,16.1,6.08,9.87-6.08,16.1-6.08,9.58,6.08,16.1,6.08,9.88-6.08,16.1-6.08,9.58,6.08,16.1,6.08,9.88-6.08,16.1-6.08,9.58,6.08,16.09,6.08,9.88-6.08,16.1-6.08,9.58,6.08,16.1,6.08,9.88-6.08,16.1-6.08,9.58,6.08,16.09,6.08,9.88-6.08,16.1-6.08,9.58,6.08,16.1,6.08,9.87-6.08,16.1-6.08,9.58,6.08,16.1,6.08,9.87-6.08,16.1-6.08,9.58,6.08,16.1,6.08,9.88-6.08,16.1-6.08,9.58,6.08,16.1,6.08,9.88-6.08,16.1-6.08,9.58,6.08,16.1,6.08,9.88-6.08,16.1-6.08,9.58,6.08,16.1,6.08,9.88-6.08,16.1-6.08,9.58,6.08,16.09,6.08,9.88-6.08,16.1-6.08,9.58,6.08,16.1,6.08,9.87-6.08,16.1-6.08,9.58,6.08,16.1,6.08m-1287.86-15.52c6.52,0,9.88-6.08,16.1-6.08s9.58,6.08,16.1,6.08,9.88-6.08,16.1-6.08,9.58,6.08,16.1,6.08,9.88-6.08,16.1-6.08,9.58,6.08,16.09,6.08,9.88-6.08,16.1-6.08,9.58,6.08,16.1,6.08,9.87-6.08,16.1-6.08,9.58,6.08,16.1,6.08,9.87-6.08,16.1-6.08,9.58,6.08,16.1,6.08,9.88-6.08,16.1-6.08,9.58,6.08,16.1,6.08,9.88-6.08,16.1-6.08,9.58,6.08,16.09,6.08,9.88-6.08,16.1-6.08,9.58,6.08,16.1,6.08,9.88-6.08,16.1-6.08,9.58,6.08,16.09,6.08,9.88-6.08,16.1-6.08,9.58,6.08,16.1,6.08,9.87-6.08,16.1-6.08,9.58,6.08,16.1,6.08,9.87-6.08,16.1-6.08,9.58,6.08,16.1,6.08,9.88-6.08,16.1-6.08,9.58,6.08,16.09,6.08,9.88-6.08,16.1-6.08,9.58,6.08,16.1,6.08,9.88-6.08,16.1-6.08,9.58,6.08,16.1,6.08,9.88-6.08,16.1-6.08,9.58,6.08,16.09,6.08,9.88-6.08,16.1-6.08,9.58,6.08,16.1,6.08,9.87-6.08,16.09-6.08,9.58,6.08,16.1,6.08,9.87-6.08,16.1-6.08,9.58,6.08,16.1,6.08,9.88-6.08,16.1-6.08,9.58,6.08,16.1,6.08,9.88-6.08,16.1-6.08,9.58,6.08,16.1,6.08,9.88-6.08,16.1-6.08,9.58,6.08,16.1,6.08,9.88-6.08,16.1-6.08,9.58,6.08,16.09,6.08,9.88-6.08,16.1-6.08,9.58,6.08,16.1,6.08,9.87-6.08,16.1-6.08,9.58,6.08,16.1,6.08,9.87-6.08,16.1-6.08,9.58,6.08,16.1,6.08,9.88-6.08,16.1-6.08,9.58,6.08,16.1,6.08,9.88-6.08,16.1-6.08,9.58,6.08,16.09,6.08,9.88-6.08,16.1-6.08,9.58,6.08,16.1,6.08,9.88-6.08,16.1-6.08,9.58,6.08,16.09,6.08,9.88-6.08,16.1-6.08,9.58,6.08,16.1,6.08,9.87-6.08,16.1-6.08,9.58,6.08,16.1,6.08,9.87-6.08,16.1-6.08,9.58,6.08,16.1,6.08,9.88-6.08,16.1-6.08,9.58,6.08,16.1,6.08,9.88-6.08,16.1-6.08,9.58,6.08,16.1,6.08,9.88-6.08,16.1-6.08,9.58,6.08,16.1,6.08,9.88-6.08,16.1-6.08,9.58,6.08,16.09,6.08,9.88-6.08,16.1-6.08,9.58,6.08,16.1,6.08,9.87-6.08,16.1-6.08,9.58,6.08,16.1,6.08m-1287.86-15.52c6.52,0,9.88-6.08,16.1-6.08s9.58,6.08,16.1,6.08,9.88-6.08,16.1-6.08,9.58,6.08,16.1,6.08,9.88-6.08,16.1-6.08,9.58,6.08,16.09,6.08,9.88-6.08,16.1-6.08,9.58,6.08,16.1,6.08,9.87-6.08,16.1-6.08,9.58,6.08,16.1,6.08,9.87-6.08,16.1-6.08,9.58,6.08,16.1,6.08,9.88-6.08,16.1-6.08,9.58,6.08,16.1,6.08,9.88-6.08,16.1-6.08,9.58,6.08,16.09,6.08,9.88-6.08,16.1-6.08,9.58,6.08,16.1,6.08,9.88-6.08,16.1-6.08,9.58,6.08,16.09,6.08,9.88-6.08,16.1-6.08,9.58,6.08,16.1,6.08,9.87-6.08,16.1-6.08,9.58,6.08,16.1,6.08,9.87-6.08,16.1-6.08,9.58,6.08,16.1,6.08,9.88-6.08,16.1-6.08,9.58,6.08,16.09,6.08,9.88-6.08,16.1-6.08,9.58,6.08,16.1,6.08,9.88-6.08,16.1-6.08,9.58,6.08,16.1,6.08,9.88-6.08,16.1-6.08,9.58,6.08,16.09,6.08,9.88-6.08,16.1-6.08,9.58,6.08,16.1,6.08,9.87-6.08,16.09-6.08,9.58,6.08,16.1,6.08,9.87-6.08,16.1-6.08,9.58,6.08,16.1,6.08,9.88-6.08,16.1-6.08,9.58,6.08,16.1,6.08,9.88-6.08,16.1-6.08,9.58,6.08,16.1,6.08,9.88-6.08,16.1-6.08,9.58,6.08,16.1,6.08,9.88-6.08,16.1-6.08,9.58,6.08,16.09,6.08,9.88-6.08,16.1-6.08,9.58,6.08,16.1,6.08,9.87-6.08,16.1-6.08,9.58,6.08,16.1,6.08,9.87-6.08,16.1-6.08,9.58,6.08,16.1,6.08,9.88-6.08,16.1-6.08,9.58,6.08,16.1,6.08,9.88-6.08,16.1-6.08,9.58,6.08,16.09,6.08,9.88-6.08,16.1-6.08,9.58,6.08,16.1,6.08,9.88-6.08,16.1-6.08,9.58,6.08,16.09,6.08,9.88-6.08,16.1-6.08,9.58,6.08,16.1,6.08,9.87-6.08,16.1-6.08,9.58,6.08,16.1,6.08,9.87-6.08,16.1-6.08,9.58,6.08,16.1,6.08,9.88-6.08,16.1-6.08,9.58,6.08,16.1,6.08,9.88-6.08,16.1-6.08,9.58,6.08,16.1,6.08,9.88-6.08,16.1-6.08,9.58,6.08,16.1,6.08,9.88-6.08,16.1-6.08,9.58,6.08,16.09,6.08,9.88-6.08,16.1-6.08,9.58,6.08,16.1,6.08,9.87-6.08,16.1-6.08,9.58,6.08,16.1,6.08m-1287.86-15.52c6.52,0,9.88-6.08,16.1-6.08s9.58,6.08,16.1,6.08,9.88-6.08,16.1-6.08,9.58,6.08,16.1,6.08,9.88-6.08,16.1-6.08,9.58,6.08,16.09,6.08,9.88-6.08,16.1-6.08,9.58,6.08,16.1,6.08,9.87-6.08,16.1-6.08,9.58,6.08,16.1,6.08,9.87-6.08,16.1-6.08,9.58,6.08,16.1,6.08,9.88-6.08,16.1-6.08,9.58,6.08,16.1,6.08,9.88-6.08,16.1-6.08,9.58,6.08,16.09,6.08,9.88-6.08,16.1-6.08,9.58,6.08,16.1,6.08,9.88-6.08,16.1-6.08,9.58,6.08,16.09,6.08,9.88-6.08,16.1-6.08,9.58,6.08,16.1,6.08,9.87-6.08,16.1-6.08,9.58,6.08,16.1,6.08,9.87-6.08,16.1-6.08,9.58,6.08,16.1,6.08,9.88-6.08,16.1-6.08,9.58,6.08,16.09,6.08,9.88-6.08,16.1-6.08,9.58,6.08,16.1,6.08,9.88-6.08,16.1-6.08,9.58,6.08,16.1,6.08,9.88-6.08,16.1-6.08,9.58,6.08,16.09,6.08,9.88-6.08,16.1-6.08,9.58,6.08,16.1,6.08,9.87-6.08,16.09-6.08,9.58,6.08,16.1,6.08,9.87-6.08,16.1-6.08,9.58,6.08,16.1,6.08,9.88-6.08,16.1-6.08,9.58,6.08,16.1,6.08,9.88-6.08,16.1-6.08,9.58,6.08,16.1,6.08,9.88-6.08,16.1-6.08,9.58,6.08,16.1,6.08,9.88-6.08,16.1-6.08,9.58,6.08,16.09,6.08,9.88-6.08,16.1-6.08,9.58,6.08,16.1,6.08,9.87-6.08,16.1-6.08,9.58,6.08,16.1,6.08,9.87-6.08,16.1-6.08,9.58,6.08,16.1,6.08,9.88-6.08,16.1-6.08,9.58,6.08,16.1,6.08,9.88-6.08,16.1-6.08,9.58,6.08,16.09,6.08,9.88-6.08,16.1-6.08,9.58,6.08,16.1,6.08,9.88-6.08,16.1-6.08,9.58,6.08,16.09,6.08,9.88-6.08,16.1-6.08,9.58,6.08,16.1,6.08,9.87-6.08,16.1-6.08,9.58,6.08,16.1,6.08,9.87-6.08,16.1-6.08,9.58,6.08,16.1,6.08,9.88-6.08,16.1-6.08,9.58,6.08,16.1,6.08,9.88-6.08,16.1-6.08,9.58,6.08,16.1,6.08,9.88-6.08,16.1-6.08,9.58,6.08,16.1,6.08,9.88-6.08,16.1-6.08,9.58,6.08,16.09,6.08,9.88-6.08,16.1-6.08,9.58,6.08,16.1,6.08,9.87-6.08,16.1-6.08,9.58,6.08,16.1,6.08m-1287.86-15.52c6.52,0,9.88-6.08,16.1-6.08s9.58,6.08,16.1,6.08,9.88-6.08,16.1-6.08,9.58,6.08,16.1,6.08,9.88-6.08,16.1-6.08,9.58,6.08,16.09,6.08,9.88-6.08,16.1-6.08,9.58,6.08,16.1,6.08,9.87-6.08,16.1-6.08,9.58,6.08,16.1,6.08,9.87-6.08,16.1-6.08,9.58,6.08,16.1,6.08,9.88-6.08,16.1-6.08,9.58,6.08,16.1,6.08,9.88-6.08,16.1-6.08,9.58,6.08,16.09,6.08,9.88-6.08,16.1-6.08,9.58,6.08,16.1,6.08,9.88-6.08,16.1-6.08,9.58,6.08,16.09,6.08,9.88-6.08,16.1-6.08,9.58,6.08,16.1,6.08,9.87-6.08,16.1-6.08,9.58,6.08,16.1,6.08,9.87-6.08,16.1-6.08,9.58,6.08,16.1,6.08,9.88-6.08,16.1-6.08,9.58,6.08,16.09,6.08,9.88-6.08,16.1-6.08,9.58,6.08,16.1,6.08,9.88-6.08,16.1-6.08,9.58,6.08,16.1,6.08,9.88-6.08,16.1-6.08,9.58,6.08,16.09,6.08,9.88-6.08,16.1-6.08,9.58,6.08,16.1,6.08,9.87-6.08,16.09-6.08,9.58,6.08,16.1,6.08,9.87-6.08,16.1-6.08,9.58,6.08,16.1,6.08,9.88-6.08,16.1-6.08,9.58,6.08,16.1,6.08,9.88-6.08,16.1-6.08,9.58,6.08,16.1,6.08,9.88-6.08,16.1-6.08,9.58,6.08,16.1,6.08,9.88-6.08,16.1-6.08,9.58,6.08,16.09,6.08,9.88-6.08,16.1-6.08,9.58,6.08,16.1,6.08,9.87-6.08,16.1-6.08,9.58,6.08,16.1,6.08,9.87-6.08,16.1-6.08,9.58,6.08,16.1,6.08,9.88-6.08,16.1-6.08,9.58,6.08,16.1,6.08,9.88-6.08,16.1-6.08,9.58,6.08,16.09,6.08,9.88-6.08,16.1-6.08,9.58,6.08,16.1,6.08,9.88-6.08,16.1-6.08,9.58,6.08,16.09,6.08,9.88-6.08,16.1-6.08,9.58,6.08,16.1,6.08,9.87-6.08,16.1-6.08,9.58,6.08,16.1,6.08,9.87-6.08,16.1-6.08,9.58,6.08,16.1,6.08,9.88-6.08,16.1-6.08,9.58,6.08,16.1,6.08,9.88-6.08,16.1-6.08,9.58,6.08,16.1,6.08,9.88-6.08,16.1-6.08,9.58,6.08,16.1,6.08,9.88-6.08,16.1-6.08,9.58,6.08,16.09,6.08,9.88-6.08,16.1-6.08,9.58,6.08,16.1,6.08,9.87-6.08,16.1-6.08,9.58,6.08,16.1,6.08m-1287.86-15.52c6.52,0,9.88-6.08,16.1-6.08s9.58,6.08,16.1,6.08,9.88-6.08,16.1-6.08,9.58,6.08,16.1,6.08,9.88-6.08,16.1-6.08,9.58,6.08,16.09,6.08,9.88-6.08,16.1-6.08,9.58,6.08,16.1,6.08,9.87-6.08,16.1-6.08,9.58,6.08,16.1,6.08,9.87-6.08,16.1-6.08,9.58,6.08,16.1,6.08,9.88-6.08,16.1-6.08,9.58,6.08,16.1,6.08,9.88-6.08,16.1-6.08,9.58,6.08,16.09,6.08,9.88-6.08,16.1-6.08,9.58,6.08,16.1,6.08,9.88-6.08,16.1-6.08,9.58,6.08,16.09,6.08,9.88-6.08,16.1-6.08,9.58,6.08,16.1,6.08,9.87-6.08,16.1-6.08,9.58,6.08,16.1,6.08,9.87-6.08,16.1-6.08,9.58,6.08,16.1,6.08,9.88-6.08,16.1-6.08,9.58,6.08,16.09,6.08,9.88-6.08,16.1-6.08,9.58,6.08,16.1,6.08,9.88-6.08,16.1-6.08,9.58,6.08,16.1,6.08,9.88-6.08,16.1-6.08,9.58,6.08,16.09,6.08,9.88-6.08,16.1-6.08,9.58,6.08,16.1,6.08,9.87-6.08,16.09-6.08,9.58,6.08,16.1,6.08,9.87-6.08,16.1-6.08,9.58,6.08,16.1,6.08,9.88-6.08,16.1-6.08,9.58,6.08,16.1,6.08,9.88-6.08,16.1-6.08,9.58,6.08,16.1,6.08,9.88-6.08,16.1-6.08,9.58,6.08,16.1,6.08,9.88-6.08,16.1-6.08,9.58,6.08,16.09,6.08,9.88-6.08,16.1-6.08,9.58,6.08,16.1,6.08,9.87-6.08,16.1-6.08,9.58,6.08,16.1,6.08,9.87-6.08,16.1-6.08,9.58,6.08,16.1,6.08,9.88-6.08,16.1-6.08,9.58,6.08,16.1,6.08,9.88-6.08,16.1-6.08,9.58,6.08,16.09,6.08,9.88-6.08,16.1-6.08,9.58,6.08,16.1,6.08,9.88-6.08,16.1-6.08,9.58,6.08,16.09,6.08,9.88-6.08,16.1-6.08,9.58,6.08,16.1,6.08,9.87-6.08,16.1-6.08,9.58,6.08,16.1,6.08,9.87-6.08,16.1-6.08,9.58,6.08,16.1,6.08,9.88-6.08,16.1-6.08,9.58,6.08,16.1,6.08,9.88-6.08,16.1-6.08,9.58,6.08,16.1,6.08,9.88-6.08,16.1-6.08,9.58,6.08,16.1,6.08,9.88-6.08,16.1-6.08,9.58,6.08,16.09,6.08,9.88-6.08,16.1-6.08,9.58,6.08,16.1,6.08,9.87-6.08,16.1-6.08,9.58,6.08,16.1,6.08m-1287.86-15.52c6.52,0,9.88-6.08,16.1-6.08s9.58,6.08,16.1,6.08,9.88-6.08,16.1-6.08,9.58,6.08,16.1,6.08,9.88-6.08,16.1-6.08,9.58,6.08,16.09,6.08,9.88-6.08,16.1-6.08,9.58,6.08,16.1,6.08,9.87-6.08,16.1-6.08,9.58,6.08,16.1,6.08,9.87-6.08,16.1-6.08,9.58,6.08,16.1,6.08,9.88-6.08,16.1-6.08,9.58,6.08,16.1,6.08,9.88-6.08,16.1-6.08,9.58,6.08,16.09,6.08,9.88-6.08,16.1-6.08,9.58,6.08,16.1,6.08,9.88-6.08,16.1-6.08,9.58,6.08,16.09,6.08,9.88-6.08,16.1-6.08,9.58,6.08,16.1,6.08,9.87-6.08,16.1-6.08,9.58,6.08,16.1,6.08,9.87-6.08,16.1-6.08,9.58,6.08,16.1,6.08,9.88-6.08,16.1-6.08,9.58,6.08,16.09,6.08,9.88-6.08,16.1-6.08,9.58,6.08,16.1,6.08,9.88-6.08,16.1-6.08,9.58,6.08,16.1,6.08,9.88-6.08,16.1-6.08,9.58,6.08,16.09,6.08,9.88-6.08,16.1-6.08,9.58,6.08,16.1,6.08,9.87-6.08,16.09-6.08,9.58,6.08,16.1,6.08,9.87-6.08,16.1-6.08,9.58,6.08,16.1,6.08,9.88-6.08,16.1-6.08,9.58,6.08,16.1,6.08,9.88-6.08,16.1-6.08,9.58,6.08,16.1,6.08,9.88-6.08,16.1-6.08,9.58,6.08,16.1,6.08,9.88-6.08,16.1-6.08,9.58,6.08,16.09,6.08,9.88-6.08,16.1-6.08,9.58,6.08,16.1,6.08,9.87-6.08,16.1-6.08,9.58,6.08,16.1,6.08,9.87-6.08,16.1-6.08,9.58,6.08,16.1,6.08,9.88-6.08,16.1-6.08,9.58,6.08,16.1,6.08,9.88-6.08,16.1-6.08,9.58,6.08,16.09,6.08,9.88-6.08,16.1-6.08,9.58,6.08,16.1,6.08,9.88-6.08,16.1-6.08,9.58,6.08,16.09,6.08,9.88-6.08,16.1-6.08,9.58,6.08,16.1,6.08,9.87-6.08,16.1-6.08,9.58,6.08,16.1,6.08,9.87-6.08,16.1-6.08,9.58,6.08,16.1,6.08,9.88-6.08,16.1-6.08,9.58,6.08,16.1,6.08,9.88-6.08,16.1-6.08,9.58,6.08,16.1,6.08,9.88-6.08,16.1-6.08,9.58,6.08,16.1,6.08,9.88-6.08,16.1-6.08,9.58,6.08,16.09,6.08,9.88-6.08,16.1-6.08,9.58,6.08,16.1,6.08,9.87-6.08,16.1-6.08,9.58,6.08,16.1,6.08m-1287.86-15.52c6.52,0,9.88-6.08,16.1-6.08s9.58,6.08,16.1,6.08,9.88-6.08,16.1-6.08,9.58,6.08,16.1,6.08,9.88-6.08,16.1-6.08,9.58,6.08,16.09,6.08,9.88-6.08,16.1-6.08,9.58,6.08,16.1,6.08,9.87-6.08,16.1-6.08,9.58,6.08,16.1,6.08,9.87-6.08,16.1-6.08,9.58,6.08,16.1,6.08,9.88-6.08,16.1-6.08,9.58,6.08,16.1,6.08,9.88-6.08,16.1-6.08,9.58,6.08,16.09,6.08,9.88-6.08,16.1-6.08,9.58,6.08,16.1,6.08,9.88-6.08,16.1-6.08,9.58,6.08,16.09,6.08,9.88-6.08,16.1-6.08,9.58,6.08,16.1,6.08,9.87-6.08,16.1-6.08,9.58,6.08,16.1,6.08,9.87-6.08,16.1-6.08,9.58,6.08,16.1,6.08,9.88-6.08,16.1-6.08,9.58,6.08,16.09,6.08,9.88-6.08,16.1-6.08,9.58,6.08,16.1,6.08,9.88-6.08,16.1-6.08,9.58,6.08,16.1,6.08,9.88-6.08,16.1-6.08,9.58,6.08,16.09,6.08,9.88-6.08,16.1-6.08,9.58,6.08,16.1,6.08,9.87-6.08,16.09-6.08,9.58,6.08,16.1,6.08,9.87-6.08,16.1-6.08,9.58,6.08,16.1,6.08,9.88-6.08,16.1-6.08,9.58,6.08,16.1,6.08,9.88-6.08,16.1-6.08,9.58,6.08,16.1,6.08,9.88-6.08,16.1-6.08,9.58,6.08,16.1,6.08,9.88-6.08,16.1-6.08,9.58,6.08,16.09,6.08,9.88-6.08,16.1-6.08,9.58,6.08,16.1,6.08,9.87-6.08,16.1-6.08,9.58,6.08,16.1,6.08,9.87-6.08,16.1-6.08,9.58,6.08,16.1,6.08,9.88-6.08,16.1-6.08,9.58,6.08,16.1,6.08,9.88-6.08,16.1-6.08,9.58,6.08,16.09,6.08,9.88-6.08,16.1-6.08,9.58,6.08,16.1,6.08,9.88-6.08,16.1-6.08,9.58,6.08,16.09,6.08,9.88-6.08,16.1-6.08,9.58,6.08,16.1,6.08,9.87-6.08,16.1-6.08,9.58,6.08,16.1,6.08,9.87-6.08,16.1-6.08,9.58,6.08,16.1,6.08,9.88-6.08,16.1-6.08,9.58,6.08,16.1,6.08,9.88-6.08,16.1-6.08,9.58,6.08,16.1,6.08,9.88-6.08,16.1-6.08,9.58,6.08,16.1,6.08,9.88-6.08,16.1-6.08,9.58,6.08,16.09,6.08,9.88-6.08,16.1-6.08,9.58,6.08,16.1,6.08,9.87-6.08,16.1-6.08,9.58,6.08,16.1,6.08m-1287.86-15.52c6.52,0,9.88-6.08,16.1-6.08s9.58,6.08,16.1,6.08,9.88-6.08,16.1-6.08,9.58,6.08,16.1,6.08,9.88-6.08,16.1-6.08,9.58,6.08,16.09,6.08,9.88-6.08,16.1-6.08,9.58,6.08,16.1,6.08,9.87-6.08,16.1-6.08,9.58,6.08,16.1,6.08,9.87-6.08,16.1-6.08,9.58,6.08,16.1,6.08,9.88-6.08,16.1-6.08,9.58,6.08,16.1,6.08,9.88-6.08,16.1-6.08,9.58,6.08,16.09,6.08,9.88-6.08,16.1-6.08,9.58,6.08,16.1,6.08,9.88-6.08,16.1-6.08,9.58,6.08,16.09,6.08,9.88-6.08,16.1-6.08,9.58,6.08,16.1,6.08,9.87-6.08,16.1-6.08,9.58,6.08,16.1,6.08,9.87-6.08,16.1-6.08,9.58,6.08,16.1,6.08,9.88-6.08,16.1-6.08,9.58,6.08,16.09,6.08,9.88-6.08,16.1-6.08,9.58,6.08,16.1,6.08,9.88-6.08,16.1-6.08,9.58,6.08,16.1,6.08,9.88-6.08,16.1-6.08,9.58,6.08,16.09,6.08,9.88-6.08,16.1-6.08,9.58,6.08,16.1,6.08,9.87-6.08,16.09-6.08,9.58,6.08,16.1,6.08,9.87-6.08,16.1-6.08,9.58,6.08,16.1,6.08,9.88-6.08,16.1-6.08,9.58,6.08,16.1,6.08,9.88-6.08,16.1-6.08,9.58,6.08,16.1,6.08,9.88-6.08,16.1-6.08,9.58,6.08,16.1,6.08,9.88-6.08,16.1-6.08,9.58,6.08,16.09,6.08,9.88-6.08,16.1-6.08,9.58,6.08,16.1,6.08,9.87-6.08,16.1-6.08,9.58,6.08,16.1,6.08,9.87-6.08,16.1-6.08,9.58,6.08,16.1,6.08,9.88-6.08,16.1-6.08,9.58,6.08,16.1,6.08,9.88-6.08,16.1-6.08,9.58,6.08,16.09,6.08,9.88-6.08,16.1-6.08,9.58,6.08,16.1,6.08,9.88-6.08,16.1-6.08,9.58,6.08,16.09,6.08,9.88-6.08,16.1-6.08,9.58,6.08,16.1,6.08,9.87-6.08,16.1-6.08,9.58,6.08,16.1,6.08,9.87-6.08,16.1-6.08,9.58,6.08,16.1,6.08,9.88-6.08,16.1-6.08,9.58,6.08,16.1,6.08,9.88-6.08,16.1-6.08,9.58,6.08,16.1,6.08,9.88-6.08,16.1-6.08,9.58,6.08,16.1,6.08,9.88-6.08,16.1-6.08,9.58,6.08,16.09,6.08,9.88-6.08,16.1-6.08,9.58,6.08,16.1,6.08,9.87-6.08,16.1-6.08,9.58,6.08,16.1,6.08m-1287.86-15.52c6.52,0,9.88-6.08,16.1-6.08s9.58,6.08,16.1,6.08,9.88-6.08,16.1-6.08,9.58,6.08,16.1,6.08,9.88-6.08,16.1-6.08,9.58,6.08,16.09,6.08,9.88-6.08,16.1-6.08,9.58,6.08,16.1,6.08,9.87-6.08,16.1-6.08,9.58,6.08,16.1,6.08,9.87-6.08,16.1-6.08,9.58,6.08,16.1,6.08,9.88-6.08,16.1-6.08,9.58,6.08,16.1,6.08,9.88-6.08,16.1-6.08,9.58,6.08,16.09,6.08,9.88-6.08,16.1-6.08,9.58,6.08,16.1,6.08,9.88-6.08,16.1-6.08,9.58,6.08,16.09,6.08,9.88-6.08,16.1-6.08,9.58,6.08,16.1,6.08,9.87-6.08,16.1-6.08,9.58,6.08,16.1,6.08,9.87-6.08,16.1-6.08,9.58,6.08,16.1,6.08,9.88-6.08,16.1-6.08,9.58,6.08,16.09,6.08,9.88-6.08,16.1-6.08,9.58,6.08,16.1,6.08,9.88-6.08,16.1-6.08,9.58,6.08,16.1,6.08,9.88-6.08,16.1-6.08,9.58,6.08,16.09,6.08,9.88-6.08,16.1-6.08,9.58,6.08,16.1,6.08,9.87-6.08,16.09-6.08,9.58,6.08,16.1,6.08,9.87-6.08,16.1-6.08,9.58,6.08,16.1,6.08,9.88-6.08,16.1-6.08,9.58,6.08,16.1,6.08,9.88-6.08,16.1-6.08,9.58,6.08,16.1,6.08,9.88-6.08,16.1-6.08,9.58,6.08,16.1,6.08,9.88-6.08,16.1-6.08,9.58,6.08,16.09,6.08,9.88-6.08,16.1-6.08,9.58,6.08,16.1,6.08,9.87-6.08,16.1-6.08,9.58,6.08,16.1,6.08,9.87-6.08,16.1-6.08,9.58,6.08,16.1,6.08,9.88-6.08,16.1-6.08,9.58,6.08,16.1,6.08,9.88-6.08,16.1-6.08,9.58,6.08,16.09,6.08,9.88-6.08,16.1-6.08,9.58,6.08,16.1,6.08,9.88-6.08,16.1-6.08,9.58,6.08,16.09,6.08,9.88-6.08,16.1-6.08,9.58,6.08,16.1,6.08,9.87-6.08,16.1-6.08,9.58,6.08,16.1,6.08,9.87-6.08,16.1-6.08,9.58,6.08,16.1,6.08,9.88-6.08,16.1-6.08,9.58,6.08,16.1,6.08,9.88-6.08,16.1-6.08,9.58,6.08,16.1,6.08,9.88-6.08,16.1-6.08,9.58,6.08,16.1,6.08,9.88-6.08,16.1-6.08,9.58,6.08,16.09,6.08,9.88-6.08,16.1-6.08,9.58,6.08,16.1,6.08,9.87-6.08,16.1-6.08,9.58,6.08,16.1,6.08m-1287.86-15.52c6.52,0,9.88-6.08,16.1-6.08s9.58,6.08,16.1,6.08,9.88-6.08,16.1-6.08,9.58,6.08,16.1,6.08,9.88-6.08,16.1-6.08,9.58,6.08,16.09,6.08,9.88-6.08,16.1-6.08,9.58,6.08,16.1,6.08,9.87-6.08,16.1-6.08,9.58,6.08,16.1,6.08,9.87-6.08,16.1-6.08,9.58,6.08,16.1,6.08,9.88-6.08,16.1-6.08,9.58,6.08,16.1,6.08,9.88-6.08,16.1-6.08,9.58,6.08,16.09,6.08,9.88-6.08,16.1-6.08,9.58,6.08,16.1,6.08,9.88-6.08,16.1-6.08,9.58,6.08,16.09,6.08,9.88-6.08,16.1-6.08,9.58,6.08,16.1,6.08,9.87-6.08,16.1-6.08,9.58,6.08,16.1,6.08,9.87-6.08,16.1-6.08,9.58,6.08,16.1,6.08,9.88-6.08,16.1-6.08,9.58,6.08,16.09,6.08,9.88-6.08,16.1-6.08,9.58,6.08,16.1,6.08,9.88-6.08,16.1-6.08,9.58,6.08,16.1,6.08,9.88-6.08,16.1-6.08,9.58,6.08,16.09,6.08,9.88-6.08,16.1-6.08,9.58,6.08,16.1,6.08,9.87-6.08,16.09-6.08,9.58,6.08,16.1,6.08,9.87-6.08,16.1-6.08,9.58,6.08,16.1,6.08,9.88-6.08,16.1-6.08,9.58,6.08,16.1,6.08,9.88-6.08,16.1-6.08,9.58,6.08,16.1,6.08,9.88-6.08,16.1-6.08,9.58,6.08,16.1,6.08,9.88-6.08,16.1-6.08,9.58,6.08,16.09,6.08,9.88-6.08,16.1-6.08,9.58,6.08,16.1,6.08,9.87-6.08,16.1-6.08,9.58,6.08,16.1,6.08,9.87-6.08,16.1-6.08,9.58,6.08,16.1,6.08,9.88-6.08,16.1-6.08,9.58,6.08,16.1,6.08,9.88-6.08,16.1-6.08,9.58,6.08,16.09,6.08,9.88-6.08,16.1-6.08,9.58,6.08,16.1,6.08,9.88-6.08,16.1-6.08,9.58,6.08,16.09,6.08,9.88-6.08,16.1-6.08,9.58,6.08,16.1,6.08,9.87-6.08,16.1-6.08,9.58,6.08,16.1,6.08,9.87-6.08,16.1-6.08,9.58,6.08,16.1,6.08,9.88-6.08,16.1-6.08,9.58,6.08,16.1,6.08,9.88-6.08,16.1-6.08,9.58,6.08,16.1,6.08,9.88-6.08,16.1-6.08,9.58,6.08,16.1,6.08,9.88-6.08,16.1-6.08,9.58,6.08,16.09,6.08,9.88-6.08,16.1-6.08,9.58,6.08,16.1,6.08,9.87-6.08,16.1-6.08,9.58,6.08,16.1,6.08m-1287.86-15.52c6.52,0,9.88-6.08,16.1-6.08s9.58,6.08,16.1,6.08,9.88-6.08,16.1-6.08,9.58,6.08,16.1,6.08,9.88-6.08,16.1-6.08,9.58,6.08,16.09,6.08,9.88-6.08,16.1-6.08,9.58,6.08,16.1,6.08,9.87-6.08,16.1-6.08,9.58,6.08,16.1,6.08,9.87-6.08,16.1-6.08,9.58,6.08,16.1,6.08,9.88-6.08,16.1-6.08,9.58,6.08,16.1,6.08,9.88-6.08,16.1-6.08,9.58,6.08,16.09,6.08,9.88-6.08,16.1-6.08,9.58,6.08,16.1,6.08,9.88-6.08,16.1-6.08,9.58,6.08,16.09,6.08,9.88-6.08,16.1-6.08,9.58,6.08,16.1,6.08,9.87-6.08,16.1-6.08,9.58,6.08,16.1,6.08,9.87-6.08,16.1-6.08,9.58,6.08,16.1,6.08,9.88-6.08,16.1-6.08,9.58,6.08,16.09,6.08,9.88-6.08,16.1-6.08,9.58,6.08,16.1,6.08,9.88-6.08,16.1-6.08,9.58,6.08,16.1,6.08,9.88-6.08,16.1-6.08,9.58,6.08,16.09,6.08,9.88-6.08,16.1-6.08,9.58,6.08,16.1,6.08,9.87-6.08,16.09-6.08,9.58,6.08,16.1,6.08,9.87-6.08,16.1-6.08,9.58,6.08,16.1,6.08,9.88-6.08,16.1-6.08,9.58,6.08,16.1,6.08,9.88-6.08,16.1-6.08,9.58,6.08,16.1,6.08,9.88-6.08,16.1-6.08,9.58,6.08,16.1,6.08,9.88-6.08,16.1-6.08,9.58,6.08,16.09,6.08,9.88-6.08,16.1-6.08,9.58,6.08,16.1,6.08,9.87-6.08,16.1-6.08,9.58,6.08,16.1,6.08,9.87-6.08,16.1-6.08,9.58,6.08,16.1,6.08,9.88-6.08,16.1-6.08,9.58,6.08,16.1,6.08,9.88-6.08,16.1-6.08,9.58,6.08,16.09,6.08,9.88-6.08,16.1-6.08,9.58,6.08,16.1,6.08,9.88-6.08,16.1-6.08,9.58,6.08,16.09,6.08,9.88-6.08,16.1-6.08,9.58,6.08,16.1,6.08,9.87-6.08,16.1-6.08,9.58,6.08,16.1,6.08,9.87-6.08,16.1-6.08,9.58,6.08,16.1,6.08,9.88-6.08,16.1-6.08,9.58,6.08,16.1,6.08,9.88-6.08,16.1-6.08,9.58,6.08,16.1,6.08,9.88-6.08,16.1-6.08,9.58,6.08,16.1,6.08,9.88-6.08,16.1-6.08,9.58,6.08,16.09,6.08,9.88-6.08,16.1-6.08,9.58,6.08,16.1,6.08,9.87-6.08,16.1-6.08,9.58,6.08,16.1,6.08m-1287.86-15.52c6.52,0,9.88-6.08,16.1-6.08s9.58,6.08,16.1,6.08,9.88-6.08,16.1-6.08,9.58,6.08,16.1,6.08,9.88-6.08,16.1-6.08,9.58,6.08,16.09,6.08,9.88-6.08,16.1-6.08,9.58,6.08,16.1,6.08,9.87-6.08,16.1-6.08,9.58,6.08,16.1,6.08,9.87-6.08,16.1-6.08,9.58,6.08,16.1,6.08,9.88-6.08,16.1-6.08,9.58,6.08,16.1,6.08,9.88-6.08,16.1-6.08,9.58,6.08,16.09,6.08,9.88-6.08,16.1-6.08,9.58,6.08,16.1,6.08,9.88-6.08,16.1-6.08,9.58,6.08,16.09,6.08,9.88-6.08,16.1-6.08,9.58,6.08,16.1,6.08,9.87-6.08,16.1-6.08,9.58,6.08,16.1,6.08,9.87-6.08,16.1-6.08,9.58,6.08,16.1,6.08,9.88-6.08,16.1-6.08,9.58,6.08,16.09,6.08,9.88-6.08,16.1-6.08,9.58,6.08,16.1,6.08,9.88-6.08,16.1-6.08,9.58,6.08,16.1,6.08,9.88-6.08,16.1-6.08,9.58,6.08,16.09,6.08,9.88-6.08,16.1-6.08,9.58,6.08,16.1,6.08,9.87-6.08,16.09-6.08,9.58,6.08,16.1,6.08,9.87-6.08,16.1-6.08,9.58,6.08,16.1,6.08,9.88-6.08,16.1-6.08,9.58,6.08,16.1,6.08,9.88-6.08,16.1-6.08,9.58,6.08,16.1,6.08,9.88-6.08,16.1-6.08,9.58,6.08,16.1,6.08,9.88-6.08,16.1-6.08,9.58,6.08,16.09,6.08,9.88-6.08,16.1-6.08,9.58,6.08,16.1,6.08,9.87-6.08,16.1-6.08,9.58,6.08,16.1,6.08,9.87-6.08,16.1-6.08,9.58,6.08,16.1,6.08,9.88-6.08,16.1-6.08,9.58,6.08,16.1,6.08,9.88-6.08,16.1-6.08,9.58,6.08,16.09,6.08,9.88-6.08,16.1-6.08,9.58,6.08,16.1,6.08,9.88-6.08,16.1-6.08,9.58,6.08,16.09,6.08,9.88-6.08,16.1-6.08,9.58,6.08,16.1,6.08,9.87-6.08,16.1-6.08,9.58,6.08,16.1,6.08,9.87-6.08,16.1-6.08,9.58,6.08,16.1,6.08,9.88-6.08,16.1-6.08,9.58,6.08,16.1,6.08,9.88-6.08,16.1-6.08,9.58,6.08,16.1,6.08,9.88-6.08,16.1-6.08,9.58,6.08,16.1,6.08,9.88-6.08,16.1-6.08,9.58,6.08,16.09,6.08,9.88-6.08,16.1-6.08,9.58,6.08,16.1,6.08,9.87-6.08,16.1-6.08,9.58,6.08,16.1,6.08m-1287.86-15.52c6.52,0,9.88-6.08,16.1-6.08s9.58,6.08,16.1,6.08,9.88-6.08,16.1-6.08,9.58,6.08,16.1,6.08,9.88-6.08,16.1-6.08,9.58,6.08,16.09,6.08,9.88-6.08,16.1-6.08,9.58,6.08,16.1,6.08,9.87-6.08,16.1-6.08,9.58,6.08,16.1,6.08,9.87-6.08,16.1-6.08,9.58,6.08,16.1,6.08,9.88-6.08,16.1-6.08,9.58,6.08,16.1,6.08,9.88-6.08,16.1-6.08,9.58,6.08,16.09,6.08,9.88-6.08,16.1-6.08,9.58,6.08,16.1,6.08,9.88-6.08,16.1-6.08,9.58,6.08,16.09,6.08,9.88-6.08,16.1-6.08,9.58,6.08,16.1,6.08,9.87-6.08,16.1-6.08,9.58,6.08,16.1,6.08,9.87-6.08,16.1-6.08,9.58,6.08,16.1,6.08,9.88-6.08,16.1-6.08,9.58,6.08,16.09,6.08,9.88-6.08,16.1-6.08,9.58,6.08,16.1,6.08,9.88-6.08,16.1-6.08,9.58,6.08,16.1,6.08,9.88-6.08,16.1-6.08,9.58,6.08,16.09,6.08,9.88-6.08,16.1-6.08,9.58,6.08,16.1,6.08,9.87-6.08,16.09-6.08,9.58,6.08,16.1,6.08,9.87-6.08,16.1-6.08,9.58,6.08,16.1,6.08,9.88-6.08,16.1-6.08,9.58,6.08,16.1,6.08,9.88-6.08,16.1-6.08,9.58,6.08,16.1,6.08,9.88-6.08,16.1-6.08,9.58,6.08,16.1,6.08,9.88-6.08,16.1-6.08,9.58,6.08,16.09,6.08,9.88-6.08,16.1-6.08,9.58,6.08,16.1,6.08,9.87-6.08,16.1-6.08,9.58,6.08,16.1,6.08,9.87-6.08,16.1-6.08,9.58,6.08,16.1,6.08,9.88-6.08,16.1-6.08,9.58,6.08,16.1,6.08,9.88-6.08,16.1-6.08,9.58,6.08,16.09,6.08,9.88-6.08,16.1-6.08,9.58,6.08,16.1,6.08,9.88-6.08,16.1-6.08,9.58,6.08,16.09,6.08,9.88-6.08,16.1-6.08,9.58,6.08,16.1,6.08,9.87-6.08,16.1-6.08,9.58,6.08,16.1,6.08,9.87-6.08,16.1-6.08,9.58,6.08,16.1,6.08,9.88-6.08,16.1-6.08,9.58,6.08,16.1,6.08,9.88-6.08,16.1-6.08,9.58,6.08,16.1,6.08,9.88-6.08,16.1-6.08,9.58,6.08,16.1,6.08,9.88-6.08,16.1-6.08,9.58,6.08,16.09,6.08,9.88-6.08,16.1-6.08,9.58,6.08,16.1,6.08,9.87-6.08,16.1-6.08,9.58,6.08,16.1,6.08m-1287.86-15.52c6.52,0,9.88-6.08,16.1-6.08s9.58,6.08,16.1,6.08,9.88-6.08,16.1-6.08,9.58,6.08,16.1,6.08,9.88-6.08,16.1-6.08,9.58,6.08,16.09,6.08,9.88-6.08,16.1-6.08,9.58,6.08,16.1,6.08,9.87-6.08,16.1-6.08,9.58,6.08,16.1,6.08,9.87-6.08,16.1-6.08,9.58,6.08,16.1,6.08,9.88-6.08,16.1-6.08,9.58,6.08,16.1,6.08,9.88-6.08,16.1-6.08,9.58,6.08,16.09,6.08,9.88-6.08,16.1-6.08,9.58,6.08,16.1,6.08,9.88-6.08,16.1-6.08,9.58,6.08,16.09,6.08,9.88-6.08,16.1-6.08,9.58,6.08,16.1,6.08,9.87-6.08,16.1-6.08,9.58,6.08,16.1,6.08,9.87-6.08,16.1-6.08,9.58,6.08,16.1,6.08,9.88-6.08,16.1-6.08,9.58,6.08,16.09,6.08,9.88-6.08,16.1-6.08,9.58,6.08,16.1,6.08,9.88-6.08,16.1-6.08,9.58,6.08,16.1,6.08,9.88-6.08,16.1-6.08,9.58,6.08,16.09,6.08,9.88-6.08,16.1-6.08,9.58,6.08,16.1,6.08,9.87-6.08,16.09-6.08,9.58,6.08,16.1,6.08,9.87-6.08,16.1-6.08,9.58,6.08,16.1,6.08,9.88-6.08,16.1-6.08,9.58,6.08,16.1,6.08,9.88-6.08,16.1-6.08,9.58,6.08,16.1,6.08,9.88-6.08,16.1-6.08,9.58,6.08,16.1,6.08,9.88-6.08,16.1-6.08,9.58,6.08,16.09,6.08,9.88-6.08,16.1-6.08,9.58,6.08,16.1,6.08,9.87-6.08,16.1-6.08,9.58,6.08,16.1,6.08,9.87-6.08,16.1-6.08,9.58,6.08,16.1,6.08,9.88-6.08,16.1-6.08,9.58,6.08,16.1,6.08,9.88-6.08,16.1-6.08,9.58,6.08,16.09,6.08,9.88-6.08,16.1-6.08,9.58,6.08,16.1,6.08,9.88-6.08,16.1-6.08,9.58,6.08,16.09,6.08,9.88-6.08,16.1-6.08,9.58,6.08,16.1,6.08,9.87-6.08,16.1-6.08,9.58,6.08,16.1,6.08,9.87-6.08,16.1-6.08,9.58,6.08,16.1,6.08,9.88-6.08,16.1-6.08,9.58,6.08,16.1,6.08,9.88-6.08,16.1-6.08,9.58,6.08,16.1,6.08,9.88-6.08,16.1-6.08,9.58,6.08,16.1,6.08,9.88-6.08,16.1-6.08,9.58,6.08,16.09,6.08,9.88-6.08,16.1-6.08,9.58,6.08,16.1,6.08,9.87-6.08,16.1-6.08,9.58,6.08,16.1,6.08"/></g><path class="cls-3" d="m699.26,226.66c6.41-12.65,4.19-28.62,4.19-28.62-1.28,8.07-9.25,20.53-12.42,26.14-3.17,5.61-1.81,16.58-1.81,16.58,0,0,3.64-1.44,10.04-14.09Z"/><path class="cls-3" d="m660.31,223.72s5.23,4.14,11.04,6.36c5.81,2.22,10.12,8.15,10.12,8.15-18.78-2.28-21.16-14.51-21.16-14.51Z"/><path class="cls-3" d="m700.14,257.3c3.12-3.1,4.14-14.9,4.14-14.9,0,0-4.87,7.03-8.15,10.5-3.29,3.47-5.11,16.72-5.11,16.72,1.28-4.27,6.01-9.22,9.13-12.31Z"/><path class="cls-3" d="m669.38,268.36c-6.79-3.79-16.71-17.26-16.71-17.26,0,0,13.4,5.79,20.58,9.09,7.18,3.3,12.78,17.07,12.78,17.07,0,0-9.86-5.11-16.65-8.9Z"/><g><path class="cls-26" d="m801.11,282.16c1.83,1.54,4.41,1.71,6.77,1.55,7.94-.55,15.98-3.88,22.77-6.92-1.68,1.03-3.27,2.23-4.73,3.56-5.27,4.45-10.95,8.49-15.36,13.78-2.42,3.03-4.6,6.26-6.5,9.64-1.14,1.95-2.28,3.92-3.22,5.97-.06.22-.19.43-.28.63-.38.87-2.41,3.51.36,5.17,2.78,1.66,7.95.62,9.38-.52,2.94-2.33,5.74-7.91,7.94-10.92,1.76-2.42,4.19-4.2,6.56-6.04-1.36,3.37-2.38,6.87-3.05,10.44-.7,3.21-1.4,6.44-2.1,9.65-.29.87-.29,1.8-.01,2.67.58.98,1.6,1.62,2.73,1.72,1.45.34,2.97.16,4.3-.5,1.74-.98,3.78-3.88,4.49-5.76,2.13-5.73,2.19-11.03,5.8-15.97l.49-.32c3.71,1.68,7.56,3.08,11.38,4.56l-7.76-2.39-4.93,17.42c-.31.67-.36,1.43-.15,2.13.34.62.99,1.01,1.7,1.01.69-.01,1.37-.18,1.99-.5,3.15-1.63,7.02-4.98,8.68-8.11,1.61-3.03,2.62-5.66,3.6-8.95,5.1,1.85,8.9,4.7,13.23,7.97,5.41,4.34,9.34,10.21,13.68,15.64,4.37,6.22,18.85,17.51,38.23,21.05,2.91-3.57,3.18-8.14,7.6-19.49.74-3.42,6.21-17.18,6.21-17.18-1.66-.37-3.38-.18-4.92-.89-1.5-.79-2.92-1.73-4.24-2.8-13.58-10.33-26.56-21.42-38.89-33.21,0,0-6.12-7.17-16.74-8.42-7.43-1.6-14.75-3.63-21.94-6.08-2.63-.9-5.35-1.86-8.1-1.51-1.66.3-3.27.83-4.77,1.59l-29.01,12.88c-.73.28-1.4.68-2,1.19-1.7,1.66-1.04,4.77.82,6.26Zm33.07-5.87l-.91-.19c.46-.09.93-.2,1.4-.28l-.49.47Z"/><path class="cls-7" d="m841.07,302.16c-1.1,3.3-2.2,6.59-3.27,9.89-.54,1.62-1.08,3.24-1.6,4.86-.39,1.2-1.18,2.7-.72,4,1.08,2.93,4.82,1.42,6.62.28,2.29-1.5,4.21-3.51,5.61-5.87,1.8-3.21,3.23-6.62,4.25-10.16"/><path class="cls-7" d="m858.18,283.35c-1.32-.24-2.69-.12-3.99.34-1.66.39-3.3.79-4.95,1.21-3.12.8-6.24,1.61-9.36,2.5-2.95.75-5.84,1.79-8.65,3.1-2.31,1.13-4.19,3.18-5.25,5.71-2.98,6.24-4.04,13.41-5.54,20.14-.28,1.25-.72,2.66-.27,3.88.47,1.03,1.34,1.76,2.38,2,2.26.82,4.82.06,6.53-1.93,2.02-2.56,2.79-6.43,3.75-9.52,1-3.71,2.52-7.25,4.51-10.5"/><path class="cls-7" d="m827.86,278.39c-2.09,1.9-6.22,5.3-8.32,7.19-4.24,3.68-9.02,7.95-12.1,12.78-1.62,2.58-3.09,5.2-4.48,7.92-.87,1.58-1.64,3.22-2.32,4.91-1.54,4.27,3.58,5.36,6.39,5.05,1.65-.09,3.27-.71,4.64-1.76,1.53-1.52,2.85-3.28,3.91-5.21,1.17-1.91,2.22-3.93,3.53-5.74,1.63-2.03,3.48-3.84,5.51-5.38,4.21-3.57,7.7-8.09,11.39-12.29.56-.58,1.09-1.19,1.59-1.82-.14.2-.44.21-.16.18.18-.07.36-.15.52-.26l1.66-.82,6.85-3.4"/><path class="cls-7" d="m881.45,275.44c-3.01-3.76-7.5-5.47-12.01-6.62-5.52-1.41-11.12-2.5-16.62-4.06-2.91-.84-5.81-1.74-8.69-2.7-2.49-.84-5.03-1.78-7.7-1.73-2.67.05-4.89,1.17-7.19,2.16l-8.3,3.56-16.58,7.14c-1.91.82-4.43,1.51-4.92,3.8-.34,1.8.31,3.65,1.7,4.89,3.59,3.22,9.63,2.03,13.83.95,4.71-1.22,9.14-3.22,13.74-4.73,2.7-.88,6.09-2.11,8.99-1.71,1.57.33,3.11.81,4.58,1.42l4.88,1.67c2.68.92,5.39,1.77,8.06,2.72,2.67.96,5.37,2.13,7.27,4.25"/><path class="cls-7" d="m930.91,313.15c-2.4-.44-3.53-.78-5.86-1.48-2.44-.92-4.7-2.26-6.68-3.96-8.22-6.28-16.22-12.86-23.99-19.72-4.41-3.87-9.47-9.29-13.71-13.36"/><path class="cls-17" d="m807.75,272.44c1.79-.13,4.97,1.57,2.67,3.32-1.73,1.21-3.74,1.95-5.84,2.15-1.31.2-2.65-.11-3.74-.86-.16-.1-.28-.25-.36-.43-.05-.36.1-.71.38-.94,1.82-1.89,4.28-3.04,6.89-3.24Z"/><path class="cls-17" d="m803.66,304.58c.36-.33.79-.57,1.27-.7.48-.13.99-.01,1.37.31.39.46.57,1.06.5,1.66,0,2.19-.69,4.49-2.35,5.91-.51.47-1.16.75-1.85.8-3.96.04-.34-6.8,1.06-7.97Z"/><path class="cls-17" d="m821.42,312.33c.23-.39.55-.72.93-.96.39-.25.86-.3,1.27-.14.45.27.76.72.85,1.25.54,1.84.52,3.98-.58,5.67-.32.54-.82.97-1.41,1.22-3.44,1.2-1.98-5.63-1.06-7.02Z"/><path class="cls-17" d="m836.7,314.27c.22-.28.5-.52.83-.67.33-.16.71-.16,1.02.01.33.26.53.65.55,1.07.25,1.52.02,3.21-1.01,4.44-.31.4-.75.69-1.24.83-2.85.62-1.03-4.66-.16-5.68Z"/></g><path class="cls-7" d="m675.45,369.62c-1.04-14.66,19.55-64.09,14.91-111.15-1.86-18.93-11.19-46-11.19-46"/><path class="cls-11" d="m645.72,344.49s-2.63,5.43,1.57,9.75c3.55,3.54,7.3-4.02,7.3-4.02l8.47-23.76"/><path class="cls-11" d="m659.2,337.31s-3.99,9.41-4.6,12.91c-.74,3.58-2.64,9.91,1.34,10.74,4.1.75,6.44-2.56,6.44-2.56,0,0,6.67-10.22,7.61-11.56,3.58-4.58,7.66-16.14,7.66-16.14"/><path class="cls-11" d="m658.42,338.81s4.24,1.93,4.91,2.19"/><g><path class="cls-3" d="m795.28,323.56c4.19-13.78-.83-29.37-.83-29.37.14,8.3-5.65,22.17-7.84,28.33-2.18,6.16,1.1,16.91,1.1,16.91,0,0,3.39-2.08,7.58-15.86Z"/><path class="cls-3" d="m755.8,327.46s5.96,3.22,12.16,4.43c6.2,1.21,11.55,6.38,11.55,6.38-19.19,1.01-23.72-10.81-23.72-10.81Z"/><path class="cls-3" d="m801.54,354.07c2.58-3.65,1.53-15.64,1.53-15.64,0,0-3.64,7.88-6.32,11.94-2.68,4.05-2.18,17.63-2.18,17.63.53-4.5,4.4-10.28,6.97-13.92Z"/><path class="cls-3" d="m772.7,370.53c-7.46-2.6-19.75-14.34-19.75-14.34,0,0,14.42,3.44,22.18,5.48,7.76,2.04,15.79,14.84,15.79,14.84,0,0-10.76-3.39-18.22-5.98Z"/><path class="cls-3" d="m755.26,391.33c-14.07-4.58-17.36-18.14-17.36-18.14,4.91,5.7,15.74,7.68,19.34,9.45,3.59,1.77,8.07,9.6,8.07,9.6,0,0-1.52,1.87-10.05-.91Z"/><path class="cls-3" d="m775,381.43s5.7,4.59,7.58,11.02c1.88,6.44,4.43,14.79,4.43,14.79-10.83-15.43-12.01-25.82-12.01-25.82Z"/><path class="cls-9" d="m764.4,316.24s-8.06,6.45-17.35,7.22c-5.3.44-12.94-3.72-14.86-6.14-1.92-2.42-4.04-4.39-3.19-7.37.85-2.98,1.52-10.12,4.63-11.58,3.11-1.46,21.82,3.78,21.82,3.78"/><path class="cls-9" d="m776.17,307.78c5.47-2.95,6.44-10.15,8.29-14.66,1.85-4.51,4.6-8.34,5.1-11.28.5-2.93-.63-10.93-2.67-11.59-2.04-.66-3.28,3.04-5.5,4.86-2.22,1.82-8.12,18.03-8.12,18.03"/><path class="cls-9" d="m758.57,304.95c-15.81-3.61-23.41-9.94-22.14-13.72.92-2.69,1.86-9.23,5.85-9.58,6.24-.53,6.43-2.15,9.53-1.14,4.48,1.46,11.34,16,11.34,16"/><path class="cls-7" d="m763.2,316.16s-2.76,2.29-8.53,1.78c-5.25-.47-7.3.02-12.3,1.6-5.37,1.69-9.72-1.7-9.72-1.7"/><path class="cls-9" d="m774.1,295.87s2.88-8.94,3.79-14.71c.65-4.15,1.53-12.43-2.13-15.01-3.66-2.58-11.69-.68-13.52,1.15-1.82,1.83-3.35,6.21-4.8,10.7-1.72,5.34,5.7,18.51,5.7,18.51"/><path class="cls-7" d="m775.19,310.04c8.2-3.46,10-9.55,11.66-14.52,1.67-4.97,2.72-13.67,2.72-13.67"/><path class="cls-7" d="m796.56,470.78c-3.62-14.48,8.31-67.55-4.6-113.82-5.19-18.62-19.27-44.06-19.27-44.06"/><path class="cls-7" d="m792.8,317.7c-7.53,19.5-4.53,28.33-4.53,28.33"/><path class="cls-7" d="m779.51,338.27c7.63,4.46,9.58,9.92,9.58,9.92"/><path class="cls-7" d="m770.12,363.99c19.68,7.69,26.74,19.14,26.74,19.14"/><path class="cls-7" d="m749.37,383.14c5.52,4.46,10.53,5.47,27.52,15.74,16.99,10.27,20.78,27.8,20.78,27.8"/><path class="cls-8" d="m755.45,302.15c.15-.9-.15-1.82-.28-2.74-.12-.92.03-1.99.8-2.49.5-.32,1.15-.33,1.7-.55,1.54-.64,2.38-2.89,4.03-2.67.81.1,1.41.81,2.2,1.02,1.09.29,2.15-.44,3.09-1.06s2.18-1.17,3.13-.58c1.22.77.98,2.8,2.15,3.64.12.08.24.15.37.21.07.03.12.08.17.13s.08.12.1.19c.01.07.02.14,0,.21-.01.07-.04.14-.08.2-1.44,2.12-6.26,5.61-10.71,7.86-5.72,2.89-10.45,3.54-9.91,2.86.63-.79,3.2-5.96,3.23-6.22Z"/><path class="cls-9" d="m759.82,305.39c-2.95,2.64-7.58,2.44-9.62,3.81-1.36.91,2.83,4.03,10.14,6.36,7.2,2.29,15-2.8,15.97-8.46.84-4.88,3.07-8.71,2.36-10.01-1.44-2.61-4.89-1.64-6.52.09-1.62,1.72-4.77,4.52-4.77,4.52l-7.56,3.69Z"/></g><g><path class="cls-7" d="m957.66,572.47c-7.32-.26-12.09,2.01-32.49,4.08-20.4,2.06-34.4-10.06-34.4-10.06"/><path class="cls-3" d="m947.72,569.36c14.46-4.95,25.59,4.21,25.59,4.21-7.59-1.66-17.76,3.43-21.83,4.2-4.06.77-12.62-2.92-12.62-2.92,0,0,.09-2.49,8.86-5.48Z"/><path class="cls-3" d="m937.57,589.79s-7.55-.25-13.1-4.4c-5.55-4.15-12.84-9.47-12.84-9.47,18.52,6.02,25.93,13.86,25.93,13.86Z"/></g><g><path class="cls-7" d="m634.81,548.21s11.8-5.86,31.92-2.26"/><path class="cls-3" d="m692.05,555.59s-8.52-4.58-13.16-7.97c-4.64-3.39-12.18-1.66-12.18-1.66,0,0,5.11,9.94,25.33,9.63Z"/><path class="cls-3" d="m649.7,544.92s14.16-10.63,22.66-11.25c0,0-6.25,6.23-10.42,7.44-4.18,1.22-12.24,3.81-12.24,3.81Z"/></g><path class="cls-7" d="m852.4,547.94c-1.93-6.9-5.13-13.41-8.9-19.74-4.76-8.01-10.43-15.74-15.56-23.63-16.29-24.87-21.93-56.92-7.31-85.51,0,0-7.63,1.85-17.71,2.28-10.08.43-17.58-.76-17.58-.76,11.99,27.44,3.91,59.86-14.54,86.45-10.42,14.97-22.77,29.59-28.2,45.64-3.17,8.8-5.01,19.5.25,27.3,10,14.96,34.35,21.06,55.96,19.05,6.98-.67,13.8-2.17,20.27-4.4,8.87-3.05,17.06-7.46,24.08-12.9,5.21-4.12,8.24-9.08,9.71-14.31,1.8-6.4,1.27-13.22-.46-19.46Z"/><path class="cls-3" d="m670.56,214.31s-8.92,4.89-18.05,4.05c-5.21-.48-11.92-5.81-13.37-8.48-1.45-2.67-3.17-4.94-1.83-7.69,1.33-2.75,3.2-9.56,6.46-10.44s20.51,7.37,20.51,7.37"/><path class="cls-3" d="m683.41,208.11c5.81-1.93,7.98-8.74,10.54-12.81,2.56-4.06,5.88-7.31,6.86-10.07.98-2.76,1.25-10.71-.61-11.69-1.86-.98-3.7,2.39-6.16,3.77-2.46,1.38-10.94,16.1-10.94,16.1"/><path class="cls-3" d="m666.83,202.37c-14.72-6.19-21.01-13.62-19.13-17.07,1.35-2.45,3.38-8.64,7.3-8.29,6.14.54,6.6-.99,9.43.52,4.09,2.17,8.27,17.45,8.27,17.45"/><path class="cls-3" d="m669.41,214.02s-3.06,1.75-8.57.28c-5.01-1.35-7.08-1.22-12.2-.55-5.5.72-9.13-3.3-9.13-3.3"/><path class="cls-3" d="m683.43,196.2s4.31-8.17,6.18-13.62c1.34-3.91,3.59-11.79.49-14.91-3.11-3.13-11.22-2.65-13.3-1.19-2.08,1.46-4.31,5.45-6.47,9.56-2.58,4.89,2.38,18.92,2.38,18.92"/><path class="cls-7" d="m682.08,210.12c8.53-1.96,11.32-7.56,13.78-12.09,2.46-4.54,4.96-12.79,4.96-12.79"/><path class="cls-7" d="m697.84,220.55c-10.62,17.63-9.21,26.69-9.21,26.69"/><path class="cls-7" d="m681.47,238.24c6.64,5.62,7.6,11.25,7.6,11.25"/><path class="cls-7" d="m667.98,261.58c17.77,10.8,22.67,23.1,22.67,23.1"/><path class="cls-8" d="m664.28,199.12c.3-.84.16-1.79.2-2.7.04-.91.37-1.92,1.2-2.28.54-.23,1.17-.12,1.74-.25,1.6-.36,2.8-2.4,4.36-1.91.77.24,1.23,1.03,1.96,1.37,1.01.46,2.16-.06,3.17-.51s2.31-.77,3.14-.03c1.05.95.47,2.88,1.46,3.89.1.1.21.19.32.27.06.04.11.1.14.16s.05.13.06.2c0,.07,0,.14-.03.21-.02.06-.06.13-.11.18-1.76,1.81-7.03,4.38-11.72,5.8-6.04,1.83-10.73,1.65-10.1,1.09.74-.66,4.12-5.24,4.19-5.48Z"/><path class="cls-3" d="m667.96,203.01c-3.31,2.06-7.76,1.07-9.98,2.05-1.48.65,2.05,4.39,8.75,7.89,6.6,3.44,15.02-.17,16.93-5.48,1.64-4.59,4.46-7.93,3.99-9.31-.95-2.78-4.46-2.42-6.33-1.02-1.87,1.4-5.39,3.57-5.39,3.57l-7.96,2.29Z"/><g><path class="cls-3" d="m833.31,279.65s4.79-10.16,3.51-16.57c-1.28-6.41-5.02-20.97-3.7-29.16,0,0-7.21,14.71-5.04,28.95,2.17,14.24,5.22,16.79,5.22,16.79Z"/><path class="cls-3" d="m841.59,279.68s6.04-4.35,12.35-4.66c6.31-.3,12.67-2.64,12.67-2.64,0,0-6.17,11.05-25.02,7.3Z"/><path class="cls-3" d="m822.42,306.94s2.44-13.36.37-17.76c-2.07-4.39-4.54-12.72-4.54-12.72,0,0-2.76,11.72-.73,15.7,2.02,3.97,5.02,10.25,4.9,14.78Z"/><path class="cls-3" d="m824.81,315.89s9.78-11.51,17.75-12.42c7.97-.91,22.74-2.24,22.74-2.24,0,0-13.84,9.86-21.6,11.36-7.76,1.49-18.89,3.3-18.89,3.3Z"/><path class="cls-6" d="m870.58,247.38s19.27-2.5,22.13-.61c2.87,1.89,2.51,9.05,2.92,12.13.42,3.07-1.96,4.72-4.21,6.84-2.25,2.12-10.41,5.14-15.59,3.95-9.08-2.09-16.14-9.64-16.14-9.64"/><path class="cls-6" d="m854.23,235.92s-3.52-16.89-5.45-19.01c-1.93-2.12-2.63-5.95-4.74-5.59s-4.37,8.11-4.3,11.09c.07,2.97,2.24,7.16,3.43,11.89,1.18,4.73,1.11,11.99,6.11,15.7"/><path class="cls-6" d="m863.77,240.71s8.88-13.41,13.52-14.21c3.21-.56,3.16,1.07,9.26,2.49,3.9.91,3.89,7.52,4.42,10.32.71,3.93-7.72,9.1-23.88,10.41"/><path class="cls-7" d="m890.89,266.18s-4.78,2.73-9.86.29c-4.73-2.27-6.68-3.05-11.95-3.34-5.78-.32-8.18-2.99-8.18-2.99"/><path class="cls-6" d="m863.77,240.71s9.24-11.97,8.3-17.51c-.79-4.65-1.67-9.21-3.22-11.28-1.54-2.07-9.22-5.1-13.21-3.07-3.99,2.03-4.31,10.35-4.26,14.55.07,5.84,1.64,15.1,1.64,15.1"/><path class="cls-7" d="m839.72,222.4s-.2,8.76.73,13.92c.94,5.16,1.85,11.44,9.46,16.04"/><path class="cls-7" d="m851.97,255.55s-17.58,23.16-25.39,40.84c-19.41,43.94-15.21,98.17-20.87,111.99"/><path class="cls-7" d="m831.81,286.11s4.23-8.3-.42-28.68"/><path class="cls-7" d="m830.69,288.13s2.71-5.13,10.9-8.45"/><path class="cls-7" d="m817.99,321.59s8.63-10.32,29.21-15.1"/><path class="cls-8" d="m872.88,254c.44.75-4.15-.57-9.4-4.25-4.08-2.86-8.35-7.01-9.47-9.32-.03-.06-.05-.14-.05-.21,0-.07.01-.14.04-.21.03-.07.07-.13.12-.17s.12-.09.19-.11c.13-.04.27-.09.39-.15,1.28-.66,1.33-2.71,2.65-3.29,1.03-.45,2.18.27,3.02,1.02s1.78,1.62,2.9,1.49c.81-.09,1.51-.71,2.33-.7,1.67.02,2.17,2.37,3.6,3.22.52.3,1.15.4,1.61.79.69.61.69,1.69.44,2.58-.25.89-.69,1.76-.67,2.67,0,.26,1.8,5.75,2.31,6.62Z"/><path class="cls-6" d="m858.83,245.24s-2.71-3.22-4.07-5.16c-1.36-1.94-4.64-3.4-6.44-1.02-.89,1.18.77,5.29.9,10.25.16,5.73,7.14,11.89,14.6,10.66,7.58-1.26,12.17-3.75,10.95-4.84-1.83-1.65-6.44-2.11-8.98-5.15l-6.96-4.74Z"/></g><path class="cls-7" d="m852.77,553.19c-2.65-4.04-5.41-8.07-8.34-12.12-3.8,5.3-3,12-6.06,17.29-9.16-14.91-19.85-28.46-29.01-43.34-6.06,9.93-6.81,21.3-12.89,31.22-6.11-8.15-12.21-15.61-19.08-23.09-7.93,8.85-25.11,17.9-33.59,26.26"/><path class="cls-11" d="m584.78,319.07c1.11-6.59,8.43-15.64,9.72-15.86,3.05-.54,17.51-5.73,27.35-9.89,9.84-4.16,25.07-12.87,30.82-11.48s27.45,6.69,33.38,8.08c5.93,1.39,4.86,4.16,6.93,6.01,2,1.72,7.77,11.31,7.77,11.31l8.12,20.94,2.79,11.26s-10.66,10.98-16.97-9.07"/><path class="cls-11" d="m645.07,317.95c.37,1.55,2.41,1.71,7.37,1.94,4.93.32,12.3-4.42,19.43-5.04,7.13-.62,16.01.21,20.62,1.92,4.51,1.68,5.54,6.62,3.96,11.15-1.58,4.53-6.86,3.92-11.46,4.4-4.6.49-13.77,1.78-20.09,3.84-6.32,2.06-14.49,5.78-18.53,7.86-4.03,2.08-10.26,5.52-18.91,6.83-18.73-1.9-30.71-8.66-34.39-9-1.44-.13-13.92-.83-8.28-22.76"/><path class="cls-11" d="m660.98,316.78c.35-1.06,3.51-4.29,5.86-6.76,2.35-2.47,2.38-5.7,2.38-5.7"/><path class="cls-11" d="m669.12,304.3s.62,2.23,6.09,2.05c5.37-.2,6.45,1.41,6.78.86"/><path class="cls-11" d="m683.33,303.78s-2.01,2.34-.72,6.61c1.42,4.19,3.15,3.03,3.15,3.03"/><path class="cls-11" d="m665.9,312.72l6,1.09c6,1.09,11.58.42,11.58.42"/><path class="cls-4" d="m683.63,318.03l.33,11.03s.08.54,2.94.79,4.84-1.06,4.84-1.06c0,0,2.09-.45,2-4.54-.08-4.09-3.7-5.56-3.7-5.56l-6.41-.67Z"/><path class="cls-11" d="m672.32,330.71s-3-6.33-1.17-11.02"/><path class="cls-4" d="m705.59,330.48c-.16-1.46-.1-3.1.72-3.5.71-.28,1.6.23,2.23,1.28.6,1.03,1.05,2.22,1.29,3.43.56,2.29,2.06,8.35-.29,7.86-2.35-.49-3.66-6.44-3.95-9.07Z"/><path class="cls-7" d="m685.76,313.42c3.63-18.21,6.6-34.64,4.6-54.95"/><path class="cls-7" d="m675.45,369.62c-.45-6.32,3.13-19.12,6.96-35.4"/><g><path class="cls-26" d="m918.07,349.82c-19.86-5.69-24.61-5.69-40.64-20.74-4.33-5.42-7.3-10.62-12.71-14.96-8.76-7.04-20.21-10.38-30.19-15.45-2.35-1.05-5.48-2.94-7.14-4.91-1.82-2.19-3.23-7.28.11-8.48,1.77-3.6,6.61-2.53,10.51-1.56,6.42,1.6,11.99,5.69,18.38,7.47,6.39,1.78,12.82,1.18,19.28,1.51,2.78.14,6.04.75,7.3,3.2"/><path class="cls-7" d="m882.18,295.56c-1.45-2.52-4.21-3.35-6.96-3.62-3.69-.37-7.44-.16-11.16-.33-3.76-.09-7.48-.79-11.01-2.08-3.48-1.34-6.74-3.21-10.19-4.64-4.52-1.89-11.5-3.93-15.37.38-1.73,2.15-1.99,5.13-.65,7.55,1.46,2.93,4.33,4.74,7.16,6.18,6.28,3.19,13.08,5.18,19.49,8.07,3.32,1.43,6.46,3.24,9.34,5.42,2.62,2.15,5,4.58,7.1,7.25,4.09,4.99,7.66,10.3,12.61,14.47,4.61,3.86,9.8,6.99,15.37,9.26,12.77,5.33,18.81,5.85,18.81,5.85"/><path class="cls-17" d="m829.16,285.95c2.3-3.04,7.17-.64,9.97.75.59.28,1.16.62,1.68,1.02,2.5,2,2.81,5.89.04,7.84-1.42.9-3.14,1.23-4.79.93-4.05-.61-9.53-3.73-7.9-8.63.23-.69.58-1.34,1.01-1.92Z"/></g><path class="cls-7" d="m995.05,387.95c-.97-1.13-2.25-1.94-3.69-2.32l-74.23-27.83c-.81-.3-1.7-.68-2-1.47-.19-.74-.09-1.52.28-2.19l16.04-41.11c.3-1.72,1.84-2.94,3.58-2.83,15.85-1.64,31.87-.74,47.44,2.66,5.23,1.14,10.62,2.55,15.85,1.78"/><path class="cls-7" d="m973.31,313.23c.51.24,1.02.5,1.51.79,3.84,2.27,6.26,6.09,7.48,10.32,1.37,4.78,1.41,9.87.98,14.79-.51,5.26-1.45,10.46-2.83,15.56-1.14,4.37-2.51,8.69-4.05,12.94-.82,2.24-1.66,4.48-2.64,6.66h0c-.14.24-.05.55.19.68s.55.05.68-.19c2.08-2.93,4.16-5.86,6.18-8.83,7.12-10.43,13.69-21.43,17.13-33.68v-.02"/><path class="cls-7" d="m1009.2,334.98l-4.84,8.12-8.61,14.34-4.34,7.2"/><path class="cls-7" d="m465.16,342.85c5.88,5.04,13.23,8.05,20.64,10.28,12.04,3.63,26.03,6.09,38.57,5.91,11.45-.19,22.94-2.74,33.96-5.53,4.05-1.02,8.48-2.45,10.53-6.09.37-.86.87-1.65,1.49-2.34,1.09-.97,2.71-.97,4.17-.96,2.57-.04,5.14-.24,7.69-.59.31-.05,7.22-1.56,6.4-2.11-4.28-2.9-5.26-8.78-5.07-13.95.06-2.84.48-5.66,1.24-8.4,1.45-4.93,4.35-9.29,7.21-13.57.65-.97,1.39-2,2.51-2.3.72-.19,1.66-.14,1.94-.83.28-.69-.57-1.37-1.3-1.65-4.79-1.9-10.01-.02-14.65-1.87-2.29-.92-3.26-3.78-6.74-4.55l-22.91-5.25c-3.2-.72-5.98-1.3-8.78-2.9-2.55-1.46-4.8-3.25-7.58-4.32-1.11-.43-6.29-1.34-6.65-2.72-.65-2.44,4.44-2.11,4.62-4.57.16-2.29-9.71-6.3-10.37-5.22.73-1.19,2.44-1.05,3.83-1.18"/><path class="cls-7" d="m579.13,298.91c-20.33,1.54-16.74,41.28-8.79,46.17"/><path class="cls-7" d="m543.41,313.11c-5.3-2.02-31.91-10.37-33.87-1.96-1.12,4.79,5.87,10.4,5.39,16.42-10.12,2.51-11.29-18.98-23-16.15,1.55,7.41,11.81,9.5,11.05,18.76-6.33-4.15-10.7-14.52-20-11.71,2.73,3.54,7.09,7.45,7.01,12.41.02.46-14.89-15.21-16.78-18.22-5.04-7.91-8.26-16.26-19.28-11.17-2.36,1.05-1.55,5.5-5.79,5.85-3.79.32-4.58-3.67-7.09-5.26"/><g><line class="cls-7" x1="577.1" y1="101.06" x2="577.1" y2="126.75"/><line class="cls-7" x1="564.25" y1="113.9" x2="589.95" y2="113.9"/></g><path class="cls-7" d="m579.77,511.36c-.05,6.56-5.5,12.07-11.9,12.07-6.47,0-11.96-5.7-11.88-12.33.07-6.42,5.5-11.78,11.91-11.77,6.54.01,11.93,5.47,11.87,12.03"/><path class="cls-2" d="m939.67,466.49h15.52c.54,0,.97.43.97.97v15.52c0,.54-.43.97-.97.97h-15.52c-.54,0-.97-.43-.97-.97v-15.52c0-.54.43-.97.97-.97"/><path class="cls-5" d="m489.36,160.02c5.38,0,9.75,4.37,9.75,9.75s-4.37,9.75-9.75,9.75-9.75-4.37-9.75-9.75,4.37-9.75,9.75-9.75"/><path class="cls-7" d="m917.27,168.79c0,6.15-5,11.14-11.15,11.14s-11.15-4.99-11.15-11.14,5-11.14,11.15-11.14c6.15.06,11.15,5.05,11.15,11.14Z"/><path class="cls-7" d="m888.69,442.14c3.33-3.33,3.33-8.72,0-12.05-3.33-3.33-8.73-3.33-12.06,0-3.33,3.33-3.33,8.72,0,12.05,3.33,3.33,8.73,3.33,12.06,0Z"/><path class="cls-7" d="m597.31,212.31c2.41-9.88-3.67-19.85-13.56-22.25-9.89-2.4-19.86,3.66-22.27,13.55-2.4,9.88,3.67,19.84,13.56,22.25,9.89,2.4,19.86-3.66,22.27-13.55Z"/></g></svg>