<?xml version="1.0" encoding="UTF-8"?><svg id="Layer_1" xmlns="http://www.w3.org/2000/svg" xmlns:xlink="http://www.w3.org/1999/xlink" viewBox="0 0 1440 600"><defs><style>.cls-1{fill:#452391;}.cls-2,.cls-3{fill:#98c841;}.cls-4{fill:#fff;}.cls-5,.cls-6{fill:#963895;}.cls-7,.cls-8,.cls-9,.cls-10,.cls-3,.cls-11,.cls-12,.cls-6{stroke-miterlimit:10;}.cls-7,.cls-8,.cls-9,.cls-10,.cls-3,.cls-11,.cls-6{stroke:#000;}.cls-7,.cls-10,.cls-12,.cls-13{fill:none;}.cls-14{clip-path:url(#clippath-2);}.cls-15{fill:#d2d1d1;}.cls-16{clip-path:url(#clippath-6);}.cls-17,.cls-9{fill:#452390;}.cls-18{opacity:.86;}.cls-10{stroke-width:.75px;}.cls-11{fill:#f6cdc5;}.cls-19{clip-path:url(#clippath-7);}.cls-20{clip-path:url(#clippath-1);}.cls-21{clip-path:url(#clippath-4);}.cls-22{opacity:.89;}.cls-23{fill:#99c941;}.cls-12{stroke:#e9e8e8;stroke-width:5px;}.cls-24{clip-path:url(#clippath);}.cls-25{clip-path:url(#clippath-3);}.cls-26{fill:#e58b47;}</style><clipPath id="clippath"><path class="cls-13" d="m1119.64,235.53c0,63.38-51.38,114.76-114.76,114.76s-114.76-51.38-114.76-114.76,51.38-114.76,114.76-114.76,114.76,51.38,114.76,114.76"/></clipPath><clipPath id="clippath-1"><rect class="cls-13" x="104.95" y="19.31" width="545.22" height="547.77" transform="translate(-96.74 352.85) rotate(-45)"/></clipPath><clipPath id="clippath-2"><rect class="cls-13" x="104.95" y="19.31" width="545.22" height="547.77" transform="translate(-96.74 352.85) rotate(-45)"/></clipPath><clipPath id="clippath-3"><rect class="cls-13" x="546.77" y="420.95" width="109.53" height="159.11" transform="translate(-177.72 571.95) rotate(-45)"/></clipPath><clipPath id="clippath-4"><rect class="cls-13" x="546.77" y="420.95" width="109.53" height="159.11" transform="translate(-177.72 571.95) rotate(-45)"/></clipPath><clipPath id="clippath-6"><rect class="cls-13" x="484.4" y="453.16" width="131.14" height="131.75" transform="translate(-205.93 540.91) rotate(-45)"/></clipPath><clipPath id="clippath-7"><rect class="cls-13" x="484.4" y="453.16" width="131.14" height="131.75" transform="translate(-205.93 540.91) rotate(-45)"/></clipPath><clipPath id="clippath-8"><rect class="cls-13" x="-20.59" y="659.21" width="436.23" height="438.27" transform="translate(-563.23 396.93) rotate(-45)"/></clipPath></defs><g><path class="cls-1" d="m1245.73,88.61l-.31,17.5c-.02,1.6,1.25,2.92,2.86,2.95.53,0,1.05-.13,1.51-.4l14.56-8.45c1.38-.81,1.85-2.59,1.04-3.97-.23-.4-.56-.74-.96-.99l-14.25-8.96c-1.35-.86-3.15-.46-4,.9-.27.43-.43.92-.45,1.43Z"/><path class="cls-15" d="m1109.93,131.66c0,29.31-23.76,53.07-53.07,53.07s-53.08-23.76-53.08-53.07,23.76-53.07,53.08-53.07,53.07,23.76,53.07,53.07"/><g class="cls-24"><path class="cls-12" d="m-6.37,356.4c6.55,0,9.92-6.1,16.16-6.1s9.62,6.1,16.15,6.1,9.92-6.1,16.16-6.1,9.62,6.1,16.16,6.1,9.91-6.1,16.16-6.1,9.61,6.1,16.15,6.1,9.92-6.1,16.16-6.1,9.61,6.1,16.16,6.1,9.91-6.1,16.15-6.1,9.61,6.1,16.16,6.1,9.91-6.1,16.15-6.1,9.61,6.1,16.16,6.1,9.92-6.1,16.16-6.1,9.62,6.1,16.15,6.1,9.92-6.1,16.16-6.1,9.62,6.1,16.15,6.1,9.92-6.1,16.16-6.1,9.62,6.1,16.16,6.1,9.91-6.1,16.16-6.1,9.61,6.1,16.15,6.1,9.92-6.1,16.16-6.1,9.61,6.1,16.16,6.1,9.91-6.1,16.15-6.1,9.61,6.1,16.16,6.1,9.91-6.1,16.15-6.1,9.61,6.1,16.16,6.1,9.91-6.1,16.16-6.1,9.62,6.1,16.15,6.1,9.92-6.1,16.16-6.1,9.62,6.1,16.15,6.1,9.92-6.1,16.16-6.1,9.62,6.1,16.16,6.1,9.91-6.1,16.16-6.1,9.61,6.1,16.15,6.1,9.92-6.1,16.16-6.1,9.61,6.1,16.16,6.1,9.91-6.1,16.15-6.1,9.61,6.1,16.16,6.1,9.91-6.1,16.15-6.1,9.61,6.1,16.16,6.1,9.92-6.1,16.16-6.1,9.62,6.1,16.15,6.1,9.92-6.1,16.16-6.1,9.62,6.1,16.15,6.1,9.92-6.1,16.16-6.1,9.62,6.1,16.16,6.1,9.91-6.1,16.16-6.1,9.61,6.1,16.15,6.1,9.92-6.1,16.16-6.1,9.61,6.1,16.16,6.1,9.91-6.1,16.16-6.1,9.61,6.1,16.16,6.1,9.91-6.1,16.15-6.1,9.61,6.1,16.16,6.1,9.92-6.1,16.16-6.1,9.62,6.1,16.15,6.1,9.92-6.1,16.16-6.1,9.62,6.1,16.15,6.1,9.92-6.1,16.16-6.1,9.62,6.1,16.16,6.1,9.91-6.1,16.16-6.1,9.61,6.1,16.15,6.1,9.92-6.1,16.16-6.1,9.61,6.1,16.16,6.1,9.91-6.1,16.15-6.1,9.61,6.1,16.16,6.1,9.91-6.1,16.15-6.1,9.61,6.1,16.16,6.1,9.92-6.1,16.16-6.1,9.62,6.1,16.15,6.1,9.92-6.1,16.16-6.1,9.62,6.1,16.15,6.1,9.92-6.1,16.16-6.1,9.62,6.1,16.16,6.1,9.91-6.1,16.16-6.1,9.61,6.1,16.15,6.1,9.92-6.1,16.16-6.1,9.61,6.1,16.16,6.1,9.91-6.1,16.16-6.1,9.61,6.1,16.16,6.1M-6.37,340.82c6.55,0,9.92-6.1,16.16-6.1s9.62,6.1,16.15,6.1,9.92-6.1,16.16-6.1,9.62,6.1,16.16,6.1,9.91-6.1,16.16-6.1,9.61,6.1,16.15,6.1,9.92-6.1,16.16-6.1,9.61,6.1,16.16,6.1,9.91-6.1,16.15-6.1,9.61,6.1,16.16,6.1,9.91-6.1,16.15-6.1,9.61,6.1,16.16,6.1,9.92-6.1,16.16-6.1,9.62,6.1,16.15,6.1,9.92-6.1,16.16-6.1,9.62,6.1,16.15,6.1,9.92-6.1,16.16-6.1,9.62,6.1,16.16,6.1,9.91-6.1,16.16-6.1,9.61,6.1,16.15,6.1,9.92-6.1,16.16-6.1,9.61,6.1,16.16,6.1,9.91-6.1,16.15-6.1,9.61,6.1,16.16,6.1,9.91-6.1,16.15-6.1,9.61,6.1,16.16,6.1,9.91-6.1,16.16-6.1,9.62,6.1,16.15,6.1,9.92-6.1,16.16-6.1,9.62,6.1,16.15,6.1,9.92-6.1,16.16-6.1,9.62,6.1,16.16,6.1,9.91-6.1,16.16-6.1,9.61,6.1,16.15,6.1,9.92-6.1,16.16-6.1,9.61,6.1,16.16,6.1,9.91-6.1,16.15-6.1,9.61,6.1,16.16,6.1,9.91-6.1,16.15-6.1,9.61,6.1,16.16,6.1,9.92-6.1,16.16-6.1,9.62,6.1,16.15,6.1,9.92-6.1,16.16-6.1,9.62,6.1,16.15,6.1,9.92-6.1,16.16-6.1,9.62,6.1,16.16,6.1,9.91-6.1,16.16-6.1,9.61,6.1,16.15,6.1,9.92-6.1,16.16-6.1,9.61,6.1,16.16,6.1,9.91-6.1,16.16-6.1,9.61,6.1,16.16,6.1,9.91-6.1,16.15-6.1,9.61,6.1,16.16,6.1,9.92-6.1,16.16-6.1,9.62,6.1,16.15,6.1,9.92-6.1,16.16-6.1,9.62,6.1,16.15,6.1,9.92-6.1,16.16-6.1,9.62,6.1,16.16,6.1,9.91-6.1,16.16-6.1,9.61,6.1,16.15,6.1,9.92-6.1,16.16-6.1,9.61,6.1,16.16,6.1,9.91-6.1,16.15-6.1,9.61,6.1,16.16,6.1,9.91-6.1,16.15-6.1,9.61,6.1,16.16,6.1,9.92-6.1,16.16-6.1,9.62,6.1,16.15,6.1,9.92-6.1,16.16-6.1,9.62,6.1,16.15,6.1,9.92-6.1,16.16-6.1,9.62,6.1,16.16,6.1,9.91-6.1,16.16-6.1,9.61,6.1,16.15,6.1,9.92-6.1,16.16-6.1,9.61,6.1,16.16,6.1,9.91-6.1,16.16-6.1,9.61,6.1,16.16,6.1M-6.37,325.24c6.55,0,9.92-6.1,16.16-6.1s9.62,6.1,16.15,6.1,9.92-6.1,16.16-6.1,9.62,6.1,16.16,6.1,9.91-6.1,16.16-6.1,9.61,6.1,16.15,6.1,9.92-6.1,16.16-6.1,9.61,6.1,16.16,6.1,9.91-6.1,16.15-6.1,9.61,6.1,16.16,6.1,9.91-6.1,16.15-6.1,9.61,6.1,16.16,6.1,9.92-6.1,16.16-6.1,9.62,6.1,16.15,6.1,9.92-6.1,16.16-6.1,9.62,6.1,16.15,6.1,9.92-6.1,16.16-6.1,9.62,6.1,16.16,6.1,9.91-6.1,16.16-6.1,9.61,6.1,16.15,6.1,9.92-6.1,16.16-6.1,9.61,6.1,16.16,6.1,9.91-6.1,16.15-6.1,9.61,6.1,16.16,6.1,9.91-6.1,16.15-6.1,9.61,6.1,16.16,6.1,9.91-6.1,16.16-6.1,9.62,6.1,16.15,6.1,9.92-6.1,16.16-6.1,9.62,6.1,16.15,6.1,9.92-6.1,16.16-6.1,9.62,6.1,16.16,6.1,9.91-6.1,16.16-6.1,9.61,6.1,16.15,6.1,9.92-6.1,16.16-6.1,9.61,6.1,16.16,6.1,9.91-6.1,16.15-6.1,9.61,6.1,16.16,6.1,9.91-6.1,16.15-6.1,9.61,6.1,16.16,6.1,9.92-6.1,16.16-6.1,9.62,6.1,16.15,6.1,9.92-6.1,16.16-6.1,9.62,6.1,16.15,6.1,9.92-6.1,16.16-6.1,9.62,6.1,16.16,6.1,9.91-6.1,16.16-6.1,9.61,6.1,16.15,6.1,9.92-6.1,16.16-6.1,9.61,6.1,16.16,6.1,9.91-6.1,16.16-6.1,9.61,6.1,16.16,6.1,9.91-6.1,16.15-6.1,9.61,6.1,16.16,6.1,9.92-6.1,16.16-6.1,9.62,6.1,16.15,6.1,9.92-6.1,16.16-6.1,9.62,6.1,16.15,6.1,9.92-6.1,16.16-6.1,9.62,6.1,16.16,6.1,9.91-6.1,16.16-6.1,9.61,6.1,16.15,6.1,9.92-6.1,16.16-6.1,9.61,6.1,16.16,6.1,9.91-6.1,16.15-6.1,9.61,6.1,16.16,6.1,9.91-6.1,16.15-6.1,9.61,6.1,16.16,6.1,9.92-6.1,16.16-6.1,9.62,6.1,16.15,6.1,9.92-6.1,16.16-6.1,9.62,6.1,16.15,6.1,9.92-6.1,16.16-6.1,9.62,6.1,16.16,6.1,9.91-6.1,16.16-6.1,9.61,6.1,16.15,6.1,9.92-6.1,16.16-6.1,9.61,6.1,16.16,6.1,9.91-6.1,16.16-6.1,9.61,6.1,16.16,6.1M-6.37,309.66c6.55,0,9.92-6.1,16.16-6.1s9.62,6.1,16.15,6.1,9.92-6.1,16.16-6.1,9.62,6.1,16.16,6.1,9.91-6.1,16.16-6.1,9.61,6.1,16.15,6.1,9.92-6.1,16.16-6.1,9.61,6.1,16.16,6.1,9.91-6.1,16.15-6.1,9.61,6.1,16.16,6.1,9.91-6.1,16.15-6.1,9.61,6.1,16.16,6.1,9.92-6.1,16.16-6.1,9.62,6.1,16.15,6.1,9.92-6.1,16.16-6.1,9.62,6.1,16.15,6.1,9.92-6.1,16.16-6.1,9.62,6.1,16.16,6.1,9.91-6.1,16.16-6.1,9.61,6.1,16.15,6.1,9.92-6.1,16.16-6.1,9.61,6.1,16.16,6.1,9.91-6.1,16.15-6.1,9.61,6.1,16.16,6.1,9.91-6.1,16.15-6.1,9.61,6.1,16.16,6.1,9.91-6.1,16.16-6.1,9.62,6.1,16.15,6.1,9.92-6.1,16.16-6.1,9.62,6.1,16.15,6.1,9.92-6.1,16.16-6.1,9.62,6.1,16.16,6.1,9.91-6.1,16.16-6.1,9.61,6.1,16.15,6.1,9.92-6.1,16.16-6.1,9.61,6.1,16.16,6.1,9.91-6.1,16.15-6.1,9.61,6.1,16.16,6.1,9.91-6.1,16.15-6.1,9.61,6.1,16.16,6.1,9.92-6.1,16.16-6.1,9.62,6.1,16.15,6.1,9.92-6.1,16.16-6.1,9.62,6.1,16.15,6.1,9.92-6.1,16.16-6.1,9.62,6.1,16.16,6.1,9.91-6.1,16.16-6.1,9.61,6.1,16.15,6.1,9.92-6.1,16.16-6.1,9.61,6.1,16.16,6.1,9.91-6.1,16.16-6.1,9.61,6.1,16.16,6.1,9.91-6.1,16.15-6.1,9.61,6.1,16.16,6.1,9.92-6.1,16.16-6.1,9.62,6.1,16.15,6.1,9.92-6.1,16.16-6.1,9.62,6.1,16.15,6.1,9.92-6.1,16.16-6.1,9.62,6.1,16.16,6.1,9.91-6.1,16.16-6.1,9.61,6.1,16.15,6.1,9.92-6.1,16.16-6.1,9.61,6.1,16.16,6.1,9.91-6.1,16.15-6.1,9.61,6.1,16.16,6.1,9.91-6.1,16.15-6.1,9.61,6.1,16.16,6.1,9.92-6.1,16.16-6.1,9.62,6.1,16.15,6.1,9.92-6.1,16.16-6.1,9.62,6.1,16.15,6.1,9.92-6.1,16.16-6.1,9.62,6.1,16.16,6.1,9.91-6.1,16.16-6.1,9.61,6.1,16.15,6.1,9.92-6.1,16.16-6.1,9.61,6.1,16.16,6.1,9.91-6.1,16.16-6.1,9.61,6.1,16.16,6.1M-6.37,294.08c6.55,0,9.92-6.11,16.16-6.11s9.62,6.11,16.15,6.11,9.92-6.11,16.16-6.11,9.62,6.11,16.16,6.11,9.91-6.11,16.16-6.11,9.61,6.11,16.15,6.11,9.92-6.11,16.16-6.11,9.61,6.11,16.16,6.11,9.91-6.11,16.15-6.11,9.61,6.11,16.16,6.11,9.91-6.11,16.15-6.11,9.61,6.11,16.16,6.11,9.92-6.11,16.16-6.11,9.62,6.11,16.15,6.11,9.92-6.11,16.16-6.11,9.62,6.11,16.15,6.11,9.92-6.11,16.16-6.11,9.62,6.11,16.16,6.11,9.91-6.11,16.16-6.11,9.61,6.11,16.15,6.11,9.92-6.11,16.16-6.11,9.61,6.11,16.16,6.11,9.91-6.11,16.15-6.11,9.61,6.11,16.16,6.11,9.91-6.11,16.15-6.11,9.61,6.11,16.16,6.11,9.91-6.11,16.16-6.11,9.62,6.11,16.15,6.11,9.92-6.11,16.16-6.11,9.62,6.11,16.15,6.11,9.92-6.11,16.16-6.11,9.62,6.11,16.16,6.11,9.91-6.11,16.16-6.11,9.61,6.11,16.15,6.11,9.92-6.11,16.16-6.11,9.61,6.11,16.16,6.11,9.91-6.11,16.15-6.11,9.61,6.11,16.16,6.11,9.91-6.11,16.15-6.11,9.61,6.11,16.16,6.11,9.92-6.11,16.16-6.11,9.62,6.11,16.15,6.11,9.92-6.11,16.16-6.11,9.62,6.11,16.15,6.11,9.92-6.11,16.16-6.11,9.62,6.11,16.16,6.11,9.91-6.11,16.16-6.11,9.61,6.11,16.15,6.11,9.92-6.11,16.16-6.11,9.61,6.11,16.16,6.11,9.91-6.11,16.16-6.11,9.61,6.11,16.16,6.11,9.91-6.11,16.15-6.11,9.61,6.11,16.16,6.11,9.92-6.11,16.16-6.11,9.62,6.11,16.15,6.11,9.92-6.11,16.16-6.11,9.62,6.11,16.15,6.11,9.92-6.11,16.16-6.11,9.62,6.11,16.16,6.11,9.91-6.11,16.16-6.11,9.61,6.11,16.15,6.11,9.92-6.11,16.16-6.11,9.61,6.11,16.16,6.11,9.91-6.11,16.15-6.11,9.61,6.11,16.16,6.11,9.91-6.11,16.15-6.11,9.61,6.11,16.16,6.11,9.92-6.11,16.16-6.11,9.62,6.11,16.15,6.11,9.92-6.11,16.16-6.11,9.62,6.11,16.15,6.11,9.92-6.11,16.16-6.11,9.62,6.11,16.16,6.11,9.91-6.11,16.16-6.11,9.61,6.11,16.15,6.11,9.92-6.11,16.16-6.11,9.61,6.11,16.16,6.11,9.91-6.11,16.16-6.11,9.61,6.11,16.16,6.11M-6.37,278.5c6.55,0,9.92-6.1,16.16-6.1s9.62,6.1,16.15,6.1,9.92-6.1,16.16-6.1,9.62,6.1,16.16,6.1,9.91-6.1,16.16-6.1,9.61,6.1,16.15,6.1,9.92-6.1,16.16-6.1,9.61,6.1,16.16,6.1,9.91-6.1,16.15-6.1,9.61,6.1,16.16,6.1,9.91-6.1,16.15-6.1,9.61,6.1,16.16,6.1,9.92-6.1,16.16-6.1,9.62,6.1,16.15,6.1,9.92-6.1,16.16-6.1,9.62,6.1,16.15,6.1,9.92-6.1,16.16-6.1,9.62,6.1,16.16,6.1,9.91-6.1,16.16-6.1,9.61,6.1,16.15,6.1,9.92-6.1,16.16-6.1,9.61,6.1,16.16,6.1,9.91-6.1,16.15-6.1,9.61,6.1,16.16,6.1,9.91-6.1,16.15-6.1,9.61,6.1,16.16,6.1,9.91-6.1,16.16-6.1,9.62,6.1,16.15,6.1,9.92-6.1,16.16-6.1,9.62,6.1,16.15,6.1,9.92-6.1,16.16-6.1,9.62,6.1,16.16,6.1,9.91-6.1,16.16-6.1,9.61,6.1,16.15,6.1,9.92-6.1,16.16-6.1,9.61,6.1,16.16,6.1,9.91-6.1,16.15-6.1,9.61,6.1,16.16,6.1,9.91-6.1,16.15-6.1,9.61,6.1,16.16,6.1,9.92-6.1,16.16-6.1,9.62,6.1,16.15,6.1,9.92-6.1,16.16-6.1,9.62,6.1,16.15,6.1,9.92-6.1,16.16-6.1,9.62,6.1,16.16,6.1,9.91-6.1,16.16-6.1,9.61,6.1,16.15,6.1,9.92-6.1,16.16-6.1,9.61,6.1,16.16,6.1,9.91-6.1,16.16-6.1,9.61,6.1,16.16,6.1,9.91-6.1,16.15-6.1,9.61,6.1,16.16,6.1,9.92-6.1,16.16-6.1,9.62,6.1,16.15,6.1,9.92-6.1,16.16-6.1,9.62,6.1,16.15,6.1,9.92-6.1,16.16-6.1,9.62,6.1,16.16,6.1,9.91-6.1,16.16-6.1,9.61,6.1,16.15,6.1,9.92-6.1,16.16-6.1,9.61,6.1,16.16,6.1,9.91-6.1,16.15-6.1,9.61,6.1,16.16,6.1,9.91-6.1,16.15-6.1,9.61,6.1,16.16,6.1,9.92-6.1,16.16-6.1,9.62,6.1,16.15,6.1,9.92-6.1,16.16-6.1,9.62,6.1,16.15,6.1,9.92-6.1,16.16-6.1,9.62,6.1,16.16,6.1,9.91-6.1,16.16-6.1,9.61,6.1,16.15,6.1,9.92-6.1,16.16-6.1,9.61,6.1,16.16,6.1,9.91-6.1,16.16-6.1,9.61,6.1,16.16,6.1M-6.37,262.92c6.55,0,9.92-6.1,16.16-6.1s9.62,6.1,16.15,6.1,9.92-6.1,16.16-6.1,9.62,6.1,16.16,6.1,9.91-6.1,16.16-6.1,9.61,6.1,16.15,6.1,9.92-6.1,16.16-6.1,9.61,6.1,16.16,6.1,9.91-6.1,16.15-6.1,9.61,6.1,16.16,6.1,9.91-6.1,16.15-6.1,9.61,6.1,16.16,6.1,9.92-6.1,16.16-6.1,9.62,6.1,16.15,6.1,9.92-6.1,16.16-6.1,9.62,6.1,16.15,6.1,9.92-6.1,16.16-6.1,9.62,6.1,16.16,6.1,9.91-6.1,16.16-6.1,9.61,6.1,16.15,6.1,9.92-6.1,16.16-6.1,9.61,6.1,16.16,6.1,9.91-6.1,16.15-6.1,9.61,6.1,16.16,6.1,9.91-6.1,16.15-6.1,9.61,6.1,16.16,6.1,9.91-6.1,16.16-6.1,9.62,6.1,16.15,6.1,9.92-6.1,16.16-6.1,9.62,6.1,16.15,6.1,9.92-6.1,16.16-6.1,9.62,6.1,16.16,6.1,9.91-6.1,16.16-6.1,9.61,6.1,16.15,6.1,9.92-6.1,16.16-6.1,9.61,6.1,16.16,6.1,9.91-6.1,16.15-6.1,9.61,6.1,16.16,6.1,9.91-6.1,16.15-6.1,9.61,6.1,16.16,6.1,9.92-6.1,16.16-6.1,9.62,6.1,16.15,6.1,9.92-6.1,16.16-6.1,9.62,6.1,16.15,6.1,9.92-6.1,16.16-6.1,9.62,6.1,16.16,6.1,9.91-6.1,16.16-6.1,9.61,6.1,16.15,6.1,9.92-6.1,16.16-6.1,9.61,6.1,16.16,6.1,9.91-6.1,16.16-6.1,9.61,6.1,16.16,6.1,9.91-6.1,16.15-6.1,9.61,6.1,16.16,6.1,9.92-6.1,16.16-6.1,9.62,6.1,16.15,6.1,9.92-6.1,16.16-6.1,9.62,6.1,16.15,6.1,9.92-6.1,16.16-6.1,9.62,6.1,16.16,6.1,9.91-6.1,16.16-6.1,9.61,6.1,16.15,6.1,9.92-6.1,16.16-6.1,9.61,6.1,16.16,6.1,9.91-6.1,16.15-6.1,9.61,6.1,16.16,6.1,9.91-6.1,16.15-6.1,9.61,6.1,16.16,6.1,9.92-6.1,16.16-6.1,9.62,6.1,16.15,6.1,9.92-6.1,16.16-6.1,9.62,6.1,16.15,6.1,9.92-6.1,16.16-6.1,9.62,6.1,16.16,6.1,9.91-6.1,16.16-6.1,9.61,6.1,16.15,6.1,9.92-6.1,16.16-6.1,9.61,6.1,16.16,6.1,9.91-6.1,16.16-6.1,9.61,6.1,16.16,6.1M-6.37,247.34c6.55,0,9.92-6.1,16.16-6.1s9.62,6.1,16.15,6.1,9.92-6.1,16.16-6.1,9.62,6.1,16.16,6.1,9.91-6.1,16.16-6.1,9.61,6.1,16.15,6.1,9.92-6.1,16.16-6.1,9.61,6.1,16.16,6.1,9.91-6.1,16.15-6.1,9.61,6.1,16.16,6.1,9.91-6.1,16.15-6.1,9.61,6.1,16.16,6.1,9.92-6.1,16.16-6.1,9.62,6.1,16.15,6.1,9.92-6.1,16.16-6.1,9.62,6.1,16.15,6.1,9.92-6.1,16.16-6.1,9.62,6.1,16.16,6.1,9.91-6.1,16.16-6.1,9.61,6.1,16.15,6.1,9.92-6.1,16.16-6.1,9.61,6.1,16.16,6.1,9.91-6.1,16.15-6.1,9.61,6.1,16.16,6.1,9.91-6.1,16.15-6.1,9.61,6.1,16.16,6.1,9.91-6.1,16.16-6.1,9.62,6.1,16.15,6.1,9.92-6.1,16.16-6.1,9.62,6.1,16.15,6.1,9.92-6.1,16.16-6.1,9.62,6.1,16.16,6.1,9.91-6.1,16.16-6.1,9.61,6.1,16.15,6.1,9.92-6.1,16.16-6.1,9.61,6.1,16.16,6.1,9.91-6.1,16.15-6.1,9.61,6.1,16.16,6.1,9.91-6.1,16.15-6.1,9.61,6.1,16.16,6.1,9.92-6.1,16.16-6.1,9.62,6.1,16.15,6.1,9.92-6.1,16.16-6.1,9.62,6.1,16.15,6.1,9.92-6.1,16.16-6.1,9.62,6.1,16.16,6.1,9.91-6.1,16.16-6.1,9.61,6.1,16.15,6.1,9.92-6.1,16.16-6.1,9.61,6.1,16.16,6.1,9.91-6.1,16.16-6.1,9.61,6.1,16.16,6.1,9.91-6.1,16.15-6.1,9.61,6.1,16.16,6.1,9.92-6.1,16.16-6.1,9.62,6.1,16.15,6.1,9.92-6.1,16.16-6.1,9.62,6.1,16.15,6.1,9.92-6.1,16.16-6.1,9.62,6.1,16.16,6.1,9.91-6.1,16.16-6.1,9.61,6.1,16.15,6.1,9.92-6.1,16.16-6.1,9.61,6.1,16.16,6.1,9.91-6.1,16.15-6.1,9.61,6.1,16.16,6.1,9.91-6.1,16.15-6.1,9.61,6.1,16.16,6.1,9.92-6.1,16.16-6.1,9.62,6.1,16.15,6.1,9.92-6.1,16.16-6.1,9.62,6.1,16.15,6.1,9.92-6.1,16.16-6.1,9.62,6.1,16.16,6.1,9.91-6.1,16.16-6.1,9.61,6.1,16.15,6.1,9.92-6.1,16.16-6.1,9.61,6.1,16.16,6.1,9.91-6.1,16.16-6.1,9.61,6.1,16.16,6.1M-6.37,231.76c6.55,0,9.92-6.11,16.16-6.11s9.62,6.11,16.15,6.11,9.92-6.11,16.16-6.11,9.62,6.11,16.16,6.11,9.91-6.11,16.16-6.11,9.61,6.11,16.15,6.11,9.92-6.11,16.16-6.11,9.61,6.11,16.16,6.11,9.91-6.11,16.15-6.11,9.61,6.11,16.16,6.11,9.91-6.11,16.15-6.11,9.61,6.11,16.16,6.11,9.92-6.11,16.16-6.11,9.62,6.11,16.15,6.11,9.92-6.11,16.16-6.11,9.62,6.11,16.15,6.11,9.92-6.11,16.16-6.11,9.62,6.11,16.16,6.11,9.91-6.11,16.16-6.11,9.61,6.11,16.15,6.11,9.92-6.11,16.16-6.11,9.61,6.11,16.16,6.11,9.91-6.11,16.15-6.11,9.61,6.11,16.16,6.11,9.91-6.11,16.15-6.11,9.61,6.11,16.16,6.11,9.91-6.11,16.16-6.11,9.62,6.11,16.15,6.11,9.92-6.11,16.16-6.11,9.62,6.11,16.15,6.11,9.92-6.11,16.16-6.11,9.62,6.11,16.16,6.11,9.91-6.11,16.16-6.11,9.61,6.11,16.15,6.11,9.92-6.11,16.16-6.11,9.61,6.11,16.16,6.11,9.91-6.11,16.15-6.11,9.61,6.11,16.16,6.11,9.91-6.11,16.15-6.11,9.61,6.11,16.16,6.11,9.92-6.11,16.16-6.11,9.62,6.11,16.15,6.11,9.92-6.11,16.16-6.11,9.62,6.11,16.15,6.11,9.92-6.11,16.16-6.11,9.62,6.11,16.16,6.11,9.91-6.11,16.16-6.11,9.61,6.11,16.15,6.11,9.92-6.11,16.16-6.11,9.61,6.11,16.16,6.11,9.91-6.11,16.16-6.11,9.61,6.11,16.16,6.11,9.91-6.11,16.15-6.11,9.61,6.11,16.16,6.11,9.92-6.11,16.16-6.11,9.62,6.11,16.15,6.11,9.92-6.11,16.16-6.11,9.62,6.11,16.15,6.11,9.92-6.11,16.16-6.11,9.62,6.11,16.16,6.11,9.91-6.11,16.16-6.11,9.61,6.11,16.15,6.11,9.92-6.11,16.16-6.11,9.61,6.11,16.16,6.11,9.91-6.11,16.15-6.11,9.61,6.11,16.16,6.11,9.91-6.11,16.15-6.11,9.61,6.11,16.16,6.11,9.92-6.11,16.16-6.11,9.62,6.11,16.15,6.11,9.92-6.11,16.16-6.11,9.62,6.11,16.15,6.11,9.92-6.11,16.16-6.11,9.62,6.11,16.16,6.11,9.91-6.11,16.16-6.11,9.61,6.11,16.15,6.11,9.92-6.11,16.16-6.11,9.61,6.11,16.16,6.11,9.91-6.11,16.16-6.11,9.61,6.11,16.16,6.11M-6.37,216.18c6.55,0,9.92-6.1,16.16-6.1s9.62,6.1,16.15,6.1,9.92-6.1,16.16-6.1,9.62,6.1,16.16,6.1,9.91-6.1,16.16-6.1,9.61,6.1,16.15,6.1,9.92-6.1,16.16-6.1,9.61,6.1,16.16,6.1,9.91-6.1,16.15-6.1,9.61,6.1,16.16,6.1,9.91-6.1,16.15-6.1,9.61,6.1,16.16,6.1,9.92-6.1,16.16-6.1,9.62,6.1,16.15,6.1,9.92-6.1,16.16-6.1,9.62,6.1,16.15,6.1,9.92-6.1,16.16-6.1,9.62,6.1,16.16,6.1,9.91-6.1,16.16-6.1,9.61,6.1,16.15,6.1,9.92-6.1,16.16-6.1,9.61,6.1,16.16,6.1,9.91-6.1,16.15-6.1,9.61,6.1,16.16,6.1,9.91-6.1,16.15-6.1,9.61,6.1,16.16,6.1,9.91-6.1,16.16-6.1,9.62,6.1,16.15,6.1,9.92-6.1,16.16-6.1,9.62,6.1,16.15,6.1,9.92-6.1,16.16-6.1,9.62,6.1,16.16,6.1,9.91-6.1,16.16-6.1,9.61,6.1,16.15,6.1,9.92-6.1,16.16-6.1,9.61,6.1,16.16,6.1,9.91-6.1,16.15-6.1,9.61,6.1,16.16,6.1,9.91-6.1,16.15-6.1,9.61,6.1,16.16,6.1,9.92-6.1,16.16-6.1,9.62,6.1,16.15,6.1,9.92-6.1,16.16-6.1,9.62,6.1,16.15,6.1,9.92-6.1,16.16-6.1,9.62,6.1,16.16,6.1,9.91-6.1,16.16-6.1,9.61,6.1,16.15,6.1,9.92-6.1,16.16-6.1,9.61,6.1,16.16,6.1,9.91-6.1,16.16-6.1,9.61,6.1,16.16,6.1,9.91-6.1,16.15-6.1,9.61,6.1,16.16,6.1,9.92-6.1,16.16-6.1,9.62,6.1,16.15,6.1,9.92-6.1,16.16-6.1,9.62,6.1,16.15,6.1,9.92-6.1,16.16-6.1,9.62,6.1,16.16,6.1,9.91-6.1,16.16-6.1,9.61,6.1,16.15,6.1,9.92-6.1,16.16-6.1,9.61,6.1,16.16,6.1,9.91-6.1,16.15-6.1,9.61,6.1,16.16,6.1,9.91-6.1,16.15-6.1,9.61,6.1,16.16,6.1,9.92-6.1,16.16-6.1,9.62,6.1,16.15,6.1,9.92-6.1,16.16-6.1,9.62,6.1,16.15,6.1,9.92-6.1,16.16-6.1,9.62,6.1,16.16,6.1,9.91-6.1,16.16-6.1,9.61,6.1,16.15,6.1,9.92-6.1,16.16-6.1,9.61,6.1,16.16,6.1,9.91-6.1,16.16-6.1,9.61,6.1,16.16,6.1M-6.37,200.6c6.55,0,9.92-6.11,16.16-6.11s9.62,6.11,16.15,6.11,9.92-6.11,16.16-6.11,9.62,6.11,16.16,6.11,9.91-6.11,16.16-6.11,9.61,6.11,16.15,6.11,9.92-6.11,16.16-6.11,9.61,6.11,16.16,6.11,9.91-6.11,16.15-6.11,9.61,6.11,16.16,6.11,9.91-6.11,16.15-6.11,9.61,6.11,16.16,6.11,9.92-6.11,16.16-6.11,9.62,6.11,16.15,6.11,9.92-6.11,16.16-6.11,9.62,6.11,16.15,6.11,9.92-6.11,16.16-6.11,9.62,6.11,16.16,6.11,9.91-6.11,16.16-6.11,9.61,6.11,16.15,6.11,9.92-6.11,16.16-6.11,9.61,6.11,16.16,6.11,9.91-6.11,16.15-6.11,9.61,6.11,16.16,6.11,9.91-6.11,16.15-6.11,9.61,6.11,16.16,6.11,9.91-6.11,16.16-6.11,9.62,6.11,16.15,6.11,9.92-6.11,16.16-6.11,9.62,6.11,16.15,6.11,9.92-6.11,16.16-6.11,9.62,6.11,16.16,6.11,9.91-6.11,16.16-6.11,9.61,6.11,16.15,6.11,9.92-6.11,16.16-6.11,9.61,6.11,16.16,6.11,9.91-6.11,16.15-6.11,9.61,6.11,16.16,6.11,9.91-6.11,16.15-6.11,9.61,6.11,16.16,6.11,9.92-6.11,16.16-6.11,9.62,6.11,16.15,6.11,9.92-6.11,16.16-6.11,9.62,6.11,16.15,6.11,9.92-6.11,16.16-6.11,9.62,6.11,16.16,6.11,9.91-6.11,16.16-6.11,9.61,6.11,16.15,6.11,9.92-6.11,16.16-6.11,9.61,6.11,16.16,6.11,9.91-6.11,16.16-6.11,9.61,6.11,16.16,6.11,9.91-6.11,16.15-6.11,9.61,6.11,16.16,6.11,9.92-6.11,16.16-6.11,9.62,6.11,16.15,6.11,9.92-6.11,16.16-6.11,9.62,6.11,16.15,6.11,9.92-6.11,16.16-6.11,9.62,6.11,16.16,6.11,9.91-6.11,16.16-6.11,9.61,6.11,16.15,6.11,9.92-6.11,16.16-6.11,9.61,6.11,16.16,6.11,9.91-6.11,16.15-6.11,9.61,6.11,16.16,6.11,9.91-6.11,16.15-6.11,9.61,6.11,16.16,6.11,9.92-6.11,16.16-6.11,9.62,6.11,16.15,6.11,9.92-6.11,16.16-6.11,9.62,6.11,16.15,6.11,9.92-6.11,16.16-6.11,9.62,6.11,16.16,6.11,9.91-6.11,16.16-6.11,9.61,6.11,16.15,6.11,9.92-6.11,16.16-6.11,9.61,6.11,16.16,6.11,9.91-6.11,16.16-6.11,9.61,6.11,16.16,6.11M-6.37,185.02c6.55,0,9.92-6.1,16.16-6.1s9.62,6.1,16.15,6.1,9.92-6.1,16.16-6.1,9.62,6.1,16.16,6.1,9.91-6.1,16.16-6.1,9.61,6.1,16.15,6.1,9.92-6.1,16.16-6.1,9.61,6.1,16.16,6.1,9.91-6.1,16.15-6.1,9.61,6.1,16.16,6.1,9.91-6.1,16.15-6.1,9.61,6.1,16.16,6.1,9.92-6.1,16.16-6.1,9.62,6.1,16.15,6.1,9.92-6.1,16.16-6.1,9.62,6.1,16.15,6.1,9.92-6.1,16.16-6.1,9.62,6.1,16.16,6.1,9.91-6.1,16.16-6.1,9.61,6.1,16.15,6.1,9.92-6.1,16.16-6.1,9.61,6.1,16.16,6.1,9.91-6.1,16.15-6.1,9.61,6.1,16.16,6.1,9.91-6.1,16.15-6.1,9.61,6.1,16.16,6.1,9.91-6.1,16.16-6.1,9.62,6.1,16.15,6.1,9.92-6.1,16.16-6.1,9.62,6.1,16.15,6.1,9.92-6.1,16.16-6.1,9.62,6.1,16.16,6.1,9.91-6.1,16.16-6.1,9.61,6.1,16.15,6.1,9.92-6.1,16.16-6.1,9.61,6.1,16.16,6.1,9.91-6.1,16.15-6.1,9.61,6.1,16.16,6.1,9.91-6.1,16.15-6.1,9.61,6.1,16.16,6.1,9.92-6.1,16.16-6.1,9.62,6.1,16.15,6.1,9.92-6.1,16.16-6.1,9.62,6.1,16.15,6.1,9.92-6.1,16.16-6.1,9.62,6.1,16.16,6.1,9.91-6.1,16.16-6.1,9.61,6.1,16.15,6.1,9.92-6.1,16.16-6.1,9.61,6.1,16.16,6.1,9.91-6.1,16.16-6.1,9.61,6.1,16.16,6.1,9.91-6.1,16.15-6.1,9.61,6.1,16.16,6.1,9.92-6.1,16.16-6.1,9.62,6.1,16.15,6.1,9.92-6.1,16.16-6.1,9.62,6.1,16.15,6.1,9.92-6.1,16.16-6.1,9.62,6.1,16.16,6.1,9.91-6.1,16.16-6.1,9.61,6.1,16.15,6.1,9.92-6.1,16.16-6.1,9.61,6.1,16.16,6.1,9.91-6.1,16.15-6.1,9.61,6.1,16.16,6.1,9.91-6.1,16.15-6.1,9.61,6.1,16.16,6.1,9.92-6.1,16.16-6.1,9.62,6.1,16.15,6.1,9.92-6.1,16.16-6.1,9.62,6.1,16.15,6.1,9.92-6.1,16.16-6.1,9.62,6.1,16.16,6.1,9.91-6.1,16.16-6.1,9.61,6.1,16.15,6.1,9.92-6.1,16.16-6.1,9.61,6.1,16.16,6.1,9.91-6.1,16.16-6.1,9.61,6.1,16.16,6.1M-6.37,169.44c6.55,0,9.92-6.11,16.16-6.11s9.62,6.11,16.15,6.11,9.92-6.11,16.16-6.11,9.62,6.11,16.16,6.11,9.91-6.11,16.16-6.11,9.61,6.11,16.15,6.11,9.92-6.11,16.16-6.11,9.61,6.11,16.16,6.11,9.91-6.11,16.15-6.11,9.61,6.11,16.16,6.11,9.91-6.11,16.15-6.11,9.61,6.11,16.16,6.11,9.92-6.11,16.16-6.11,9.62,6.11,16.15,6.11,9.92-6.11,16.16-6.11,9.62,6.11,16.15,6.11,9.92-6.11,16.16-6.11,9.62,6.11,16.16,6.11,9.91-6.11,16.16-6.11,9.61,6.11,16.15,6.11,9.92-6.11,16.16-6.11,9.61,6.11,16.16,6.11,9.91-6.11,16.15-6.11,9.61,6.11,16.16,6.11,9.91-6.11,16.15-6.11,9.61,6.11,16.16,6.11,9.91-6.11,16.16-6.11,9.62,6.11,16.15,6.11,9.92-6.11,16.16-6.11,9.62,6.11,16.15,6.11,9.92-6.11,16.16-6.11,9.62,6.11,16.16,6.11,9.91-6.11,16.16-6.11,9.61,6.11,16.15,6.11,9.92-6.11,16.16-6.11,9.61,6.11,16.16,6.11,9.91-6.11,16.15-6.11,9.61,6.11,16.16,6.11,9.91-6.11,16.15-6.11,9.61,6.11,16.16,6.11,9.92-6.11,16.16-6.11,9.62,6.11,16.15,6.11,9.92-6.11,16.16-6.11,9.62,6.11,16.15,6.11,9.92-6.11,16.16-6.11,9.62,6.11,16.16,6.11,9.91-6.11,16.16-6.11,9.61,6.11,16.15,6.11,9.92-6.11,16.16-6.11,9.61,6.11,16.16,6.11,9.91-6.11,16.16-6.11,9.61,6.11,16.16,6.11,9.91-6.11,16.15-6.11,9.61,6.11,16.16,6.11,9.92-6.11,16.16-6.11,9.62,6.11,16.15,6.11,9.92-6.11,16.16-6.11,9.62,6.11,16.15,6.11,9.92-6.11,16.16-6.11,9.62,6.11,16.16,6.11,9.91-6.11,16.16-6.11,9.61,6.11,16.15,6.11,9.92-6.11,16.16-6.11,9.61,6.11,16.16,6.11,9.91-6.11,16.15-6.11,9.61,6.11,16.16,6.11,9.91-6.11,16.15-6.11,9.61,6.11,16.16,6.11,9.92-6.11,16.16-6.11,9.62,6.11,16.15,6.11,9.92-6.11,16.16-6.11,9.62,6.11,16.15,6.11,9.92-6.11,16.16-6.11,9.62,6.11,16.16,6.11,9.91-6.11,16.16-6.11,9.61,6.11,16.15,6.11,9.92-6.11,16.16-6.11,9.61,6.11,16.16,6.11,9.91-6.11,16.16-6.11,9.61,6.11,16.16,6.11M-6.37,153.86c6.55,0,9.92-6.1,16.16-6.1s9.62,6.1,16.15,6.1,9.92-6.1,16.16-6.1,9.62,6.1,16.16,6.1,9.91-6.1,16.16-6.1,9.61,6.1,16.15,6.1,9.92-6.1,16.16-6.1,9.61,6.1,16.16,6.1,9.91-6.1,16.15-6.1,9.61,6.1,16.16,6.1,9.91-6.1,16.15-6.1,9.61,6.1,16.16,6.1,9.92-6.1,16.16-6.1,9.62,6.1,16.15,6.1,9.92-6.1,16.16-6.1,9.62,6.1,16.15,6.1,9.92-6.1,16.16-6.1,9.62,6.1,16.16,6.1,9.91-6.1,16.16-6.1,9.61,6.1,16.15,6.1,9.92-6.1,16.16-6.1,9.61,6.1,16.16,6.1,9.91-6.1,16.15-6.1,9.61,6.1,16.16,6.1,9.91-6.1,16.15-6.1,9.61,6.1,16.16,6.1,9.91-6.1,16.16-6.1,9.62,6.1,16.15,6.1,9.92-6.1,16.16-6.1,9.62,6.1,16.15,6.1,9.92-6.1,16.16-6.1,9.62,6.1,16.16,6.1,9.91-6.1,16.16-6.1,9.61,6.1,16.15,6.1,9.92-6.1,16.16-6.1,9.61,6.1,16.16,6.1,9.91-6.1,16.15-6.1,9.61,6.1,16.16,6.1,9.91-6.1,16.15-6.1,9.61,6.1,16.16,6.1,9.92-6.1,16.16-6.1,9.62,6.1,16.15,6.1,9.92-6.1,16.16-6.1,9.62,6.1,16.15,6.1,9.92-6.1,16.16-6.1,9.62,6.1,16.16,6.1,9.91-6.1,16.16-6.1,9.61,6.1,16.15,6.1,9.92-6.1,16.16-6.1,9.61,6.1,16.16,6.1,9.91-6.1,16.16-6.1,9.61,6.1,16.16,6.1,9.91-6.1,16.15-6.1,9.61,6.1,16.16,6.1,9.92-6.1,16.16-6.1,9.62,6.1,16.15,6.1,9.92-6.1,16.16-6.1,9.62,6.1,16.15,6.1,9.92-6.1,16.16-6.1,9.62,6.1,16.16,6.1,9.91-6.1,16.16-6.1,9.61,6.1,16.15,6.1,9.92-6.1,16.16-6.1,9.61,6.1,16.16,6.1,9.91-6.1,16.15-6.1,9.61,6.1,16.16,6.1,9.91-6.1,16.15-6.1,9.61,6.1,16.16,6.1,9.92-6.1,16.16-6.1,9.62,6.1,16.15,6.1,9.92-6.1,16.16-6.1,9.62,6.1,16.15,6.1,9.92-6.1,16.16-6.1,9.62,6.1,16.16,6.1,9.91-6.1,16.16-6.1,9.61,6.1,16.15,6.1,9.92-6.1,16.16-6.1,9.61,6.1,16.16,6.1,9.91-6.1,16.16-6.1,9.61,6.1,16.16,6.1M-6.37,138.29c6.55,0,9.92-6.11,16.16-6.11s9.62,6.11,16.15,6.11,9.92-6.11,16.16-6.11,9.62,6.11,16.16,6.11,9.91-6.11,16.16-6.11,9.61,6.11,16.15,6.11,9.92-6.11,16.16-6.11,9.61,6.11,16.16,6.11,9.91-6.11,16.15-6.11,9.61,6.11,16.16,6.11,9.91-6.11,16.15-6.11,9.61,6.11,16.16,6.11,9.92-6.11,16.16-6.11,9.62,6.11,16.15,6.11,9.92-6.11,16.16-6.11,9.62,6.11,16.15,6.11,9.92-6.11,16.16-6.11,9.62,6.11,16.16,6.11,9.91-6.11,16.16-6.11,9.61,6.11,16.15,6.11,9.92-6.11,16.16-6.11,9.61,6.11,16.16,6.11,9.91-6.11,16.15-6.11,9.61,6.11,16.16,6.11,9.91-6.11,16.15-6.11,9.61,6.11,16.16,6.11,9.91-6.11,16.16-6.11,9.62,6.11,16.15,6.11,9.92-6.11,16.16-6.11,9.62,6.11,16.15,6.11,9.92-6.11,16.16-6.11,9.62,6.11,16.16,6.11,9.91-6.11,16.16-6.11,9.61,6.11,16.15,6.11,9.92-6.11,16.16-6.11,9.61,6.11,16.16,6.11,9.91-6.11,16.15-6.11,9.61,6.11,16.16,6.11,9.91-6.11,16.15-6.11,9.61,6.11,16.16,6.11,9.92-6.11,16.16-6.11,9.62,6.11,16.15,6.11,9.92-6.11,16.16-6.11,9.62,6.11,16.15,6.11,9.92-6.11,16.16-6.11,9.62,6.11,16.16,6.11,9.91-6.11,16.16-6.11,9.61,6.11,16.15,6.11,9.92-6.11,16.16-6.11,9.61,6.11,16.16,6.11,9.91-6.11,16.16-6.11,9.61,6.11,16.16,6.11,9.91-6.11,16.15-6.11,9.61,6.11,16.16,6.11,9.92-6.11,16.16-6.11,9.62,6.11,16.15,6.11,9.92-6.11,16.16-6.11,9.62,6.11,16.15,6.11,9.92-6.11,16.16-6.11,9.62,6.11,16.16,6.11,9.91-6.11,16.16-6.11,9.61,6.11,16.15,6.11,9.92-6.11,16.16-6.11,9.61,6.11,16.16,6.11,9.91-6.11,16.15-6.11,9.61,6.11,16.16,6.11,9.91-6.11,16.15-6.11,9.61,6.11,16.16,6.11,9.92-6.11,16.16-6.11,9.62,6.11,16.15,6.11,9.92-6.11,16.16-6.11,9.62,6.11,16.15,6.11,9.92-6.11,16.16-6.11,9.62,6.11,16.16,6.11,9.91-6.11,16.16-6.11,9.61,6.11,16.15,6.11,9.92-6.11,16.16-6.11,9.61,6.11,16.16,6.11,9.91-6.11,16.16-6.11,9.61,6.11,16.16,6.11M-6.37,122.71c6.55,0,9.92-6.1,16.16-6.1s9.62,6.1,16.15,6.1,9.92-6.1,16.16-6.1,9.62,6.1,16.16,6.1,9.91-6.1,16.16-6.1,9.61,6.1,16.15,6.1,9.92-6.1,16.16-6.1,9.61,6.1,16.16,6.1,9.91-6.1,16.15-6.1,9.61,6.1,16.16,6.1,9.91-6.1,16.15-6.1,9.61,6.1,16.16,6.1,9.92-6.1,16.16-6.1,9.62,6.1,16.15,6.1,9.92-6.1,16.16-6.1,9.62,6.1,16.15,6.1,9.92-6.1,16.16-6.1,9.62,6.1,16.16,6.1,9.91-6.1,16.16-6.1,9.61,6.1,16.15,6.1,9.92-6.1,16.16-6.1,9.61,6.1,16.16,6.1,9.91-6.1,16.15-6.1,9.61,6.1,16.16,6.1,9.91-6.1,16.15-6.1,9.61,6.1,16.16,6.1,9.91-6.1,16.16-6.1,9.62,6.1,16.15,6.1,9.92-6.1,16.16-6.1,9.62,6.1,16.15,6.1,9.92-6.1,16.16-6.1,9.62,6.1,16.16,6.1,9.91-6.1,16.16-6.1,9.61,6.1,16.15,6.1,9.92-6.1,16.16-6.1,9.61,6.1,16.16,6.1,9.91-6.1,16.15-6.1,9.61,6.1,16.16,6.1,9.91-6.1,16.15-6.1,9.61,6.1,16.16,6.1,9.92-6.1,16.16-6.1,9.62,6.1,16.15,6.1,9.92-6.1,16.16-6.1,9.62,6.1,16.15,6.1,9.92-6.1,16.16-6.1,9.62,6.1,16.16,6.1,9.91-6.1,16.16-6.1,9.61,6.1,16.15,6.1,9.92-6.1,16.16-6.1,9.61,6.1,16.16,6.1,9.91-6.1,16.16-6.1,9.61,6.1,16.16,6.1,9.91-6.1,16.15-6.1,9.61,6.1,16.16,6.1,9.92-6.1,16.16-6.1,9.62,6.1,16.15,6.1,9.92-6.1,16.16-6.1,9.62,6.1,16.15,6.1,9.92-6.1,16.16-6.1,9.62,6.1,16.16,6.1,9.91-6.1,16.16-6.1,9.61,6.1,16.15,6.1,9.92-6.1,16.16-6.1,9.61,6.1,16.16,6.1,9.91-6.1,16.15-6.1,9.61,6.1,16.16,6.1,9.91-6.1,16.15-6.1,9.61,6.1,16.16,6.1,9.92-6.1,16.16-6.1,9.62,6.1,16.15,6.1,9.92-6.1,16.16-6.1,9.62,6.1,16.15,6.1,9.92-6.1,16.16-6.1,9.62,6.1,16.16,6.1,9.91-6.1,16.16-6.1,9.61,6.1,16.15,6.1,9.92-6.1,16.16-6.1,9.61,6.1,16.16,6.1,9.91-6.1,16.16-6.1,9.61,6.1,16.16,6.1"/></g><path class="cls-3" d="m966.1,180.66c6.43-12.7,4.2-28.73,4.2-28.73-1.28,8.1-9.28,20.61-12.47,26.23-3.18,5.63-1.82,16.64-1.82,16.64,0,0,3.65-1.45,10.08-14.15Z"/><path class="cls-3" d="m927.01,177.72s5.25,4.15,11.08,6.39c5.83,2.23,10.15,8.18,10.15,8.18-18.85-2.29-21.23-14.57-21.23-14.57Z"/><path class="cls-3" d="m966.98,211.42c3.13-3.11,4.16-14.96,4.16-14.96,0,0-4.89,7.05-8.18,10.54-3.3,3.49-5.13,16.78-5.13,16.78,1.29-4.28,6.03-9.26,9.16-12.36Z"/><path class="cls-3" d="m936.11,222.51c-6.82-3.8-16.77-17.33-16.77-17.33,0,0,13.45,5.81,20.65,9.12,7.21,3.31,12.83,17.14,12.83,17.14,0,0-9.89-5.13-16.71-8.93Z"/><g><path class="cls-26" d="m1068.33,236.37c1.84,1.54,4.42,1.72,6.8,1.55,7.97-.55,16.04-3.89,22.85-6.95-1.69,1.04-3.28,2.24-4.75,3.57-5.29,4.46-10.99,8.52-15.42,13.83-2.43,3.04-4.61,6.28-6.53,9.67-1.14,1.96-2.28,3.94-3.23,5.99-.06.22-.19.43-.29.63-.38.87-2.42,3.52.36,5.19,2.79,1.67,7.98.62,9.41-.52,2.95-2.34,5.77-7.94,7.97-10.96,1.76-2.43,4.21-4.21,6.59-6.06-1.37,3.38-2.39,6.9-3.06,10.48-.7,3.22-1.41,6.46-2.1,9.69-.29.87-.29,1.81-.01,2.68.58.98,1.6,1.63,2.74,1.73,1.45.34,2.98.16,4.31-.51,1.75-.98,3.79-3.89,4.51-5.78,2.14-5.75,2.2-11.07,5.82-16.03l.5-.33c3.72,1.68,7.59,3.09,11.42,4.58l-7.79-2.4-4.95,17.48c-.31.67-.36,1.43-.15,2.14.34.62,1,1.01,1.71,1.02.7-.01,1.38-.18,2-.51,3.16-1.63,7.04-5,8.72-8.14,1.62-3.05,2.63-5.68,3.61-8.99,5.12,1.86,8.93,4.72,13.28,8,5.43,4.36,9.38,10.25,13.73,15.69,4.38,6.24,18.92,17.57,38.37,21.13,2.92-3.58,3.19-8.17,7.63-19.56.74-3.43,6.24-17.24,6.24-17.24-1.67-.37-3.39-.18-4.94-.89-1.51-.79-2.93-1.73-4.25-2.81-13.63-10.37-26.66-21.5-39.04-33.33,0,0-6.14-7.19-16.81-8.45-7.45-1.6-14.81-3.64-22.02-6.1-2.64-.9-5.37-1.87-8.13-1.52-1.66.3-3.28.84-4.79,1.6l-29.12,12.93c-.73.28-1.41.68-2,1.19-1.7,1.67-1.04,4.78.82,6.28Zm33.19-5.89l-.91-.19c.46-.09.93-.2,1.4-.28l-.49.47Z"/><path class="cls-7" d="m1108.43,256.45c-1.11,3.31-2.2,6.62-3.29,9.93-.54,1.63-1.08,3.25-1.61,4.88-.4,1.21-1.19,2.71-.72,4.02,1.08,2.94,4.83,1.43,6.65.28,2.3-1.51,4.23-3.52,5.63-5.89,1.81-3.22,3.24-6.65,4.27-10.2"/><path class="cls-7" d="m1125.6,237.56c-1.32-.24-2.7-.13-4,.34-1.66.39-3.31.79-4.97,1.21-3.13.8-6.27,1.62-9.39,2.51-2.96.75-5.86,1.79-8.68,3.11-2.32,1.14-4.2,3.19-5.27,5.73-2.99,6.26-4.06,13.45-5.57,20.22-.28,1.26-.72,2.67-.27,3.9.48,1.04,1.35,1.77,2.39,2.01,2.27.82,4.83.06,6.55-1.94,2.03-2.57,2.8-6.45,3.77-9.55,1.01-3.72,2.53-7.28,4.52-10.54"/><path class="cls-7" d="m1095.17,232.59c-2.09,1.91-6.25,5.32-8.35,7.21-4.25,3.69-9.05,7.98-12.15,12.83-1.62,2.59-3.1,5.22-4.5,7.95-.87,1.59-1.65,3.23-2.33,4.93-1.55,4.29,3.59,5.38,6.42,5.06,1.66-.09,3.28-.71,4.66-1.77,1.54-1.53,2.86-3.29,3.92-5.23,1.17-1.91,2.23-3.94,3.54-5.76,1.64-2.03,3.49-3.85,5.53-5.4,4.23-3.58,7.73-8.12,11.43-12.33.56-.58,1.09-1.19,1.59-1.83-.14.2-.44.22-.16.18.18-.07.36-.15.52-.26l1.66-.82,6.88-3.41"/><path class="cls-7" d="m1148.96,229.62c-3.02-3.77-7.52-5.49-12.06-6.64-5.54-1.42-11.16-2.51-16.68-4.08-2.92-.84-5.83-1.74-8.72-2.71-2.5-.84-5.05-1.79-7.73-1.73-2.68.05-4.91,1.18-7.22,2.17l-8.33,3.58-16.64,7.16c-1.92.82-4.45,1.52-4.94,3.81-.34,1.81.31,3.66,1.7,4.91,3.6,3.23,9.67,2.04,13.88.96,4.72-1.23,9.17-3.23,13.79-4.75,2.71-.88,6.11-2.11,9.03-1.72,1.58.33,3.12.81,4.6,1.43l4.9,1.68c2.69.92,5.41,1.77,8.09,2.73,2.68.96,5.39,2.14,7.3,4.27"/><path class="cls-7" d="m1198.6,267.48c-2.41-.45-3.54-.78-5.89-1.49-2.45-.92-4.72-2.27-6.7-3.97-8.25-6.31-16.28-12.9-24.08-19.79-4.42-3.89-9.5-9.32-13.76-13.41"/><path class="cls-17" d="m1074.99,226.61c1.8-.13,4.99,1.57,2.68,3.33-1.74,1.21-3.76,1.95-5.86,2.16-1.32.2-2.66-.11-3.76-.87-.16-.1-.28-.25-.36-.43-.05-.36.1-.72.38-.94,1.83-1.89,4.29-3.05,6.92-3.25Z"/><path class="cls-17" d="m1070.88,258.87c.36-.33.8-.57,1.27-.7.48-.13,1-.01,1.37.31.39.46.57,1.06.51,1.66,0,2.2-.69,4.51-2.36,5.93-.51.47-1.16.75-1.85.8-3.98.04-.34-6.83,1.07-8Z"/><path class="cls-17" d="m1088.71,266.65c.23-.39.55-.72.93-.97.39-.25.86-.3,1.27-.14.45.28.76.73.85,1.25.54,1.85.52,4-.58,5.69-.32.55-.82.98-1.41,1.22-3.45,1.2-1.99-5.65-1.06-7.05Z"/><path class="cls-17" d="m1104.05,268.6c.22-.28.51-.52.83-.68.33-.16.71-.16,1.02.01.33.26.53.65.56,1.08.25,1.52.02,3.22-1.01,4.46-.31.4-.75.7-1.24.83-2.86.62-1.03-4.67-.16-5.7Z"/></g><path class="cls-7" d="m942.2,324.15c-1.05-14.71,19.62-64.32,14.96-111.56-1.87-19-11.23-46.17-11.23-46.17"/><path class="cls-11" d="m912.37,298.93s-2.64,5.45,1.58,9.79c3.56,3.56,7.33-4.04,7.33-4.04l8.5-23.85"/><path class="cls-11" d="m925.89,291.72s-4,9.44-4.62,12.96c-.74,3.59-2.65,9.95,1.34,10.78,4.11.76,6.46-2.57,6.46-2.57,0,0,6.7-10.26,7.64-11.6,3.59-4.6,7.69-16.2,7.69-16.2"/><path class="cls-11" d="m925.11,293.23s4.25,1.94,4.93,2.2"/><g><path class="cls-3" d="m1062.47,277.92c4.21-13.84-.84-29.48-.84-29.48.14,8.33-5.67,22.25-7.87,28.44-2.19,6.19,1.1,16.97,1.1,16.97,0,0,3.4-2.09,7.6-15.92Z"/><path class="cls-3" d="m1022.85,281.84s5.98,3.23,12.21,4.44c6.23,1.21,11.59,6.4,11.59,6.4-19.26,1.02-23.8-10.85-23.8-10.85Z"/><path class="cls-3" d="m1068.76,308.54c2.59-3.66,1.54-15.7,1.54-15.7,0,0-3.65,7.91-6.34,11.98-2.69,4.07-2.19,17.69-2.19,17.69.54-4.51,4.41-10.32,6.99-13.97Z"/><path class="cls-3" d="m1039.81,325.06c-7.49-2.61-19.82-14.39-19.82-14.39,0,0,14.47,3.45,22.26,5.5,7.79,2.05,15.85,14.89,15.85,14.89,0,0-10.8-3.4-18.29-6Z"/><path class="cls-3" d="m1022.3,345.94c-14.13-4.59-17.43-18.21-17.43-18.21,4.93,5.73,15.8,7.7,19.41,9.49,3.61,1.78,8.1,9.64,8.1,9.64,0,0-1.52,1.88-10.08-.91Z"/><path class="cls-3" d="m1042.12,336s5.72,4.61,7.61,11.06c1.89,6.46,4.44,14.85,4.44,14.85-10.87-15.49-12.06-25.91-12.06-25.91Z"/><path class="cls-9" d="m1031.48,270.58s-8.09,6.48-17.42,7.25c-5.32.44-12.99-3.74-14.92-6.16s-4.05-4.41-3.2-7.4c.86-2.99,1.53-10.16,4.65-11.62,3.12-1.46,21.9,3.79,21.9,3.79"/><path class="cls-9" d="m1043.3,262.08c5.49-2.96,6.47-10.19,8.33-14.72,1.86-4.53,4.62-8.37,5.12-11.32.5-2.94-.63-10.97-2.68-11.63-2.04-.66-3.3,3.05-5.52,4.87-2.23,1.82-8.15,18.1-8.15,18.1"/><path class="cls-9" d="m1025.63,259.24c-15.87-3.63-23.5-9.98-22.22-13.78.92-2.7,1.87-9.27,5.87-9.61,6.27-.54,6.45-2.16,9.56-1.14,4.49,1.46,11.38,16.06,11.38,16.06"/><path class="cls-7" d="m1030.28,270.49s-2.77,2.3-8.56,1.79c-5.27-.47-7.32.02-12.35,1.6-5.39,1.69-9.75-1.71-9.75-1.71"/><path class="cls-9" d="m1041.22,250.13s2.89-8.97,3.8-14.76c.66-4.17,1.53-12.47-2.14-15.06-3.67-2.59-11.74-.68-13.57,1.15-1.83,1.84-3.37,6.24-4.82,10.74-1.73,5.36,5.72,18.58,5.72,18.58"/><path class="cls-7" d="m1042.31,264.35c8.23-3.47,10.03-9.59,11.71-14.57,1.67-4.99,2.73-13.72,2.73-13.72"/><path class="cls-7" d="m1063.76,425.68c-3.63-14.54,8.34-67.8-4.61-114.24-5.21-18.69-19.34-44.22-19.34-44.22"/><path class="cls-7" d="m1059.98,272.04c-7.55,19.57-4.54,28.43-4.54,28.43"/><path class="cls-7" d="m1046.65,292.69c7.66,4.47,9.61,9.96,9.61,9.96"/><path class="cls-7" d="m1037.22,318.51c19.75,7.72,26.84,19.21,26.84,19.21"/><path class="cls-7" d="m1016.4,337.73c5.54,4.48,10.56,5.49,27.62,15.8,17.05,10.31,20.85,27.9,20.85,27.9"/><path class="cls-8" d="m1022.5,256.43c.15-.9-.15-1.82-.28-2.75-.12-.92.03-2,.81-2.5.5-.32,1.15-.33,1.71-.55,1.55-.64,2.39-2.9,4.04-2.68.81.1,1.42.82,2.21,1.03,1.09.29,2.16-.44,3.1-1.07s2.19-1.18,3.14-.58c1.22.77.98,2.81,2.16,3.65.12.08.24.15.37.21.07.03.12.08.17.13s.08.12.1.19c.01.07.02.14,0,.21-.01.07-.04.14-.08.2-1.45,2.13-6.28,5.63-10.75,7.89-5.74,2.9-10.49,3.55-9.95,2.87.63-.79,3.21-5.99,3.24-6.24Z"/><path class="cls-9" d="m1026.88,259.69c-2.96,2.65-7.61,2.45-9.66,3.82-1.37.91,2.84,4.05,10.18,6.38,7.23,2.29,15.05-2.81,16.03-8.49.84-4.9,3.08-8.75,2.36-10.05-1.45-2.62-4.91-1.64-6.54.09-1.63,1.73-4.79,4.54-4.79,4.54l-7.59,3.7Z"/></g><g><path class="cls-7" d="m1225.45,527.75c-7.35-.26-12.13,2.02-32.61,4.09-20.48,2.07-34.53-10.1-34.53-10.1"/><path class="cls-3" d="m1215.48,524.63c14.51-4.97,25.68,4.22,25.68,4.22-7.62-1.67-17.82,3.44-21.91,4.21-4.08.77-12.67-2.93-12.67-2.93,0,0,.09-2.49,8.89-5.5Z"/><path class="cls-3" d="m1205.29,545.13s-7.58-.25-13.15-4.41c-5.57-4.16-12.88-9.5-12.88-9.5,18.59,6.04,26.03,13.91,26.03,13.91Z"/></g><g><path class="cls-7" d="m901.41,503.4s11.85-5.88,32.04-2.27"/><path class="cls-3" d="m958.86,510.81s-8.55-4.6-13.2-8c-4.65-3.4-12.22-1.67-12.22-1.67,0,0,5.13,9.98,25.43,9.67Z"/><path class="cls-3" d="m916.35,500.1s14.21-10.67,22.74-11.29c0,0-6.27,6.25-10.46,7.47-4.2,1.22-12.28,3.82-12.28,3.82Z"/></g><path class="cls-7" d="m1119.8,503.13c-1.94-6.93-5.15-13.46-8.93-19.81-4.78-8.04-10.47-15.8-15.62-23.72-16.35-24.96-22.01-57.13-7.34-85.82,0,0-7.66,1.85-17.78,2.29-10.12.44-17.65-.76-17.65-.76,12.03,27.54,3.93,60.08-14.59,86.77-10.45,15.02-22.86,29.7-28.31,45.81-3.18,8.84-5.03,19.58.25,27.4,10.03,15.01,34.47,21.14,56.17,19.12,7.01-.67,13.85-2.18,20.34-4.41,8.9-3.06,17.12-7.48,24.17-12.95,5.22-4.14,8.27-9.11,9.75-14.36,1.81-6.42,1.28-13.27-.46-19.54Z"/><path class="cls-3" d="m937.3,168.27s-8.95,4.9-18.12,4.07c-5.23-.48-11.96-5.83-13.42-8.51-1.45-2.68-3.18-4.96-1.84-7.72,1.34-2.76,3.21-9.59,6.49-10.48,3.27-.89,20.59,7.4,20.59,7.4"/><path class="cls-3" d="m950.2,162.04c5.83-1.94,8-8.78,10.58-12.85,2.57-4.08,5.9-7.33,6.88-10.1.98-2.77,1.25-10.75-.62-11.73-1.87-.99-3.72,2.4-6.18,3.79-2.47,1.39-10.98,16.16-10.98,16.16"/><path class="cls-3" d="m933.55,156.28c-14.77-6.21-21.09-13.67-19.21-17.14,1.36-2.46,3.39-8.67,7.33-8.32,6.17.55,6.62-1,9.46.52,4.11,2.18,8.3,17.51,8.3,17.51"/><path class="cls-3" d="m936.14,167.98s-3.07,1.76-8.6.28c-5.03-1.35-7.11-1.22-12.25-.55-5.52.72-9.17-3.31-9.17-3.31"/><path class="cls-3" d="m950.21,150.09s4.33-8.2,6.2-13.67c1.35-3.93,3.61-11.83.49-14.97-3.12-3.14-11.26-2.66-13.35-1.19-2.09,1.47-4.33,5.47-6.5,9.59-2.59,4.91,2.39,18.99,2.39,18.99"/><path class="cls-7" d="m948.85,164.07c8.57-1.97,11.36-7.59,13.83-12.14,2.47-4.55,4.98-12.84,4.98-12.84"/><path class="cls-7" d="m964.68,174.53c-10.65,17.69-9.24,26.79-9.24,26.79"/><path class="cls-7" d="m948.24,192.28c6.66,5.64,7.63,11.29,7.63,11.29"/><path class="cls-7" d="m934.71,215.71c17.84,10.84,22.75,23.19,22.75,23.19"/><path class="cls-8" d="m930.99,153.02c.3-.85.16-1.8.2-2.71.04-.91.37-1.93,1.21-2.29.54-.23,1.17-.12,1.75-.25,1.61-.36,2.81-2.41,4.38-1.91.77.24,1.23,1.03,1.97,1.37,1.01.47,2.17-.06,3.18-.51s2.32-.77,3.15-.03c1.05.95.47,2.89,1.47,3.91.1.1.21.19.32.27.06.04.11.1.14.16s.05.13.06.2c0,.07,0,.14-.03.21-.02.06-.06.13-.11.18-1.76,1.82-7.05,4.39-11.77,5.82-6.06,1.84-10.77,1.66-10.13,1.09.75-.66,4.13-5.26,4.21-5.5Z"/><path class="cls-3" d="m934.69,156.93c-3.32,2.07-7.79,1.08-10.01,2.06-1.48.65,2.06,4.41,8.79,7.92,6.62,3.45,15.07-.17,16.99-5.5,1.65-4.61,4.48-7.96,4-9.34-.96-2.79-4.48-2.43-6.36-1.02-1.88,1.4-5.41,3.59-5.41,3.59l-7.99,2.3Z"/><g><path class="cls-3" d="m1100.65,233.85s4.81-10.2,3.52-16.63c-1.29-6.44-5.04-21.05-3.71-29.27,0,0-7.23,14.76-5.06,29.06,2.18,14.3,5.24,16.85,5.24,16.85Z"/><path class="cls-3" d="m1108.95,233.88s6.06-4.37,12.39-4.68c6.33-.3,12.72-2.65,12.72-2.65,0,0-6.19,11.09-25.11,7.32Z"/><path class="cls-3" d="m1089.71,261.24s2.45-13.41.37-17.82c-2.08-4.41-4.56-12.76-4.56-12.76,0,0-2.77,11.76-.73,15.75,2.03,3.99,5.04,10.29,4.92,14.83Z"/><path class="cls-3" d="m1092.11,270.22s9.81-11.56,17.82-12.47c8-.91,22.82-2.25,22.82-2.25,0,0-13.89,9.9-21.68,11.4-7.79,1.5-18.96,3.31-18.96,3.31Z"/><path class="cls-6" d="m1138.05,201.46s19.34-2.51,22.22-.61c2.88,1.89,2.52,9.08,2.93,12.17.42,3.09-1.97,4.74-4.22,6.87-2.25,2.12-10.45,5.16-15.65,3.96-9.12-2.1-16.2-9.67-16.2-9.67"/><path class="cls-6" d="m1121.64,189.96s-3.53-16.96-5.47-19.08c-1.94-2.12-2.64-5.97-4.76-5.62s-4.39,8.14-4.32,11.13c.07,2.98,2.25,7.18,3.44,11.93,1.19,4.75,1.12,12.04,6.13,15.76"/><path class="cls-6" d="m1131.22,194.76s8.91-13.46,13.57-14.27c3.23-.56,3.17,1.07,9.3,2.5,3.91.92,3.91,7.55,4.43,10.36.72,3.94-7.74,9.13-23.97,10.45"/><path class="cls-7" d="m1158.44,220.33s-4.8,2.74-9.9.29c-4.75-2.28-6.71-3.06-11.99-3.35-5.81-.33-8.21-3-8.21-3"/><path class="cls-6" d="m1131.22,194.76s9.27-12.02,8.33-17.57c-.79-4.66-1.68-9.24-3.23-11.32-1.55-2.08-9.26-5.12-13.26-3.08-4,2.04-4.33,10.38-4.27,14.6.07,5.86,1.65,15.15,1.65,15.15"/><path class="cls-7" d="m1107.08,176.39s-.2,8.79.74,13.97c.94,5.18,1.85,11.49,9.5,16.1"/><path class="cls-7" d="m1119.38,209.66s-17.65,23.24-25.48,40.99c-19.48,44.1-15.27,98.53-20.94,112.4"/><path class="cls-7" d="m1099.14,240.33s4.25-8.33-.42-28.79"/><path class="cls-7" d="m1098.01,242.36s2.72-5.15,10.94-8.48"/><path class="cls-7" d="m1085.27,275.95s8.66-10.35,29.31-15.16"/><path class="cls-8" d="m1140.36,208.11c.44.75-4.17-.57-9.43-4.26-4.1-2.87-8.38-7.04-9.51-9.35-.03-.06-.05-.14-.05-.21,0-.07.01-.14.04-.21.03-.07.07-.13.12-.17s.12-.09.19-.11c.13-.04.27-.1.39-.16,1.29-.66,1.34-2.72,2.66-3.31,1.03-.46,2.19.27,3.03,1.02s1.79,1.63,2.91,1.5c.82-.09,1.52-.71,2.34-.7,1.67.02,2.18,2.38,3.62,3.24.52.3,1.16.4,1.61.79.69.61.69,1.7.44,2.59-.25.9-.69,1.77-.67,2.68,0,.26,1.81,5.77,2.32,6.64Z"/><path class="cls-6" d="m1126.26,199.31s-2.72-3.23-4.09-5.18c-1.37-1.95-4.65-3.42-6.46-1.03-.9,1.19.77,5.31.9,10.29.16,5.76,7.17,11.93,14.65,10.7,7.6-1.26,12.21-3.76,10.99-4.86-1.83-1.65-6.46-2.12-9.01-5.17l-6.98-4.75Z"/></g><path class="cls-7" d="m1120.17,508.4c-2.66-4.06-5.43-8.1-8.37-12.16-3.82,5.32-3.01,12.04-6.08,17.35-9.2-14.97-19.92-28.57-29.12-43.5-6.08,9.96-6.84,21.38-12.94,31.34-6.13-8.18-12.26-15.66-19.15-23.17-7.96,8.89-25.21,17.96-33.71,26.36"/><path class="cls-11" d="m851.2,273.42c1.12-6.61,8.46-15.7,9.75-15.92,3.06-.54,17.58-5.75,27.45-9.93,9.88-4.17,25.16-12.92,30.93-11.52s27.55,6.71,33.51,8.11c5.95,1.4,4.88,4.18,6.96,6.03,2,1.73,7.8,11.36,7.8,11.36l8.15,21.02,2.8,11.31s-10.7,11.02-17.04-9.1"/><path class="cls-11" d="m911.71,272.29c.37,1.55,2.42,1.72,7.39,1.94,4.95.32,12.34-4.43,19.5-5.05,7.16-.62,16.07.21,20.69,1.92,4.52,1.69,5.56,6.64,3.97,11.19-1.59,4.55-6.89,3.93-11.5,4.42-4.62.49-13.82,1.78-20.16,3.85-6.35,2.07-14.55,5.8-18.6,7.88-4.05,2.09-10.3,5.54-18.98,6.85-18.8-1.91-30.83-8.7-34.51-9.04-1.44-.13-13.98-.83-8.31-22.84"/><path class="cls-11" d="m927.68,271.12c.36-1.07,3.52-4.3,5.88-6.78,2.36-2.48,2.39-5.72,2.39-5.72"/><path class="cls-11" d="m935.85,258.59s.63,2.24,6.11,2.06c5.39-.2,6.47,1.41,6.81.86"/><path class="cls-11" d="m950.11,258.07s-2.02,2.35-.72,6.63c1.42,4.21,3.16,3.04,3.16,3.04"/><path class="cls-11" d="m932.61,267.05l6.02,1.1c6.02,1.1,11.62.42,11.62.42"/><path class="cls-4" d="m950.41,272.37l.33,11.07s.08.54,2.95.8,4.85-1.06,4.85-1.06c0,0,2.09-.45,2.01-4.55-.08-4.1-3.71-5.58-3.71-5.58l-6.44-.67Z"/><path class="cls-11" d="m939.06,285.09s-3.01-6.36-1.17-11.06"/><path class="cls-4" d="m972.46,284.87c-.16-1.47-.1-3.12.73-3.51.72-.28,1.61.23,2.24,1.28.6,1.03,1.05,2.22,1.3,3.44.56,2.3,2.06,8.38-.3,7.89-2.36-.49-3.67-6.46-3.96-9.11Z"/><path class="cls-7" d="m952.55,267.74c3.64-18.27,6.63-34.77,4.62-55.15"/><path class="cls-7" d="m942.2,324.15c-.45-6.35,3.14-19.19,6.99-35.53"/><g><path class="cls-26" d="m1185.72,304.28c-19.94-5.71-24.7-5.71-40.79-20.82-4.35-5.44-7.33-10.66-12.76-15.02-8.8-7.06-20.28-10.41-30.3-15.51-2.36-1.05-5.5-2.95-7.17-4.92-1.83-2.2-3.24-7.31.11-8.52,1.78-3.61,6.63-2.54,10.55-1.56,6.45,1.6,12.03,5.71,18.44,7.5,6.41,1.78,12.87,1.19,19.35,1.52,2.79.14,6.06.75,7.33,3.21"/><path class="cls-7" d="m1149.69,249.82c-1.46-2.52-4.22-3.36-6.99-3.63-3.71-.37-7.47-.16-11.2-.33-3.77-.09-7.5-.79-11.05-2.08-3.49-1.35-6.76-3.22-10.22-4.66-4.54-1.9-11.55-3.94-15.43.38-1.74,2.16-1.99,5.15-.65,7.58,1.47,2.94,4.35,4.76,7.19,6.2,6.3,3.21,13.13,5.2,19.56,8.1,3.33,1.43,6.48,3.26,9.38,5.44,2.63,2.16,5.02,4.6,7.12,7.27,4.1,5,7.69,10.34,12.66,14.52,4.63,3.88,9.83,7.01,15.42,9.29,12.81,5.35,18.88,5.87,18.88,5.87"/><path class="cls-17" d="m1096.48,240.17c2.31-3.06,7.2-.64,10,.76.6.28,1.16.62,1.68,1.02,2.51,2,2.82,5.91.04,7.87-1.43.9-3.15,1.24-4.81.94-4.06-.61-9.56-3.74-7.93-8.67.23-.69.58-1.34,1.02-1.92Z"/></g><path class="cls-7" d="m1262.98,342.55c-.97-1.13-2.26-1.95-3.7-2.33l-74.5-27.93c-.81-.3-1.7-.68-2.01-1.48-.19-.74-.09-1.53.28-2.2l16.1-41.26c.3-1.72,1.84-2.95,3.59-2.84,15.91-1.64,31.98-.74,47.61,2.67,5.25,1.14,10.66,2.56,15.91,1.79"/><path class="cls-7" d="m1241.16,267.56c.52.24,1.03.5,1.52.79,3.86,2.27,6.29,6.11,7.51,10.36,1.37,4.8,1.41,9.91.99,14.84-.51,5.28-1.46,10.5-2.84,15.62-1.15,4.39-2.52,8.72-4.07,12.99-.82,2.25-1.66,4.5-2.65,6.68h0c-.14.24-.05.55.19.68s.55.05.68-.19c2.09-2.94,4.17-5.89,6.2-8.86,7.14-10.47,13.74-21.51,17.19-33.8v-.02"/><path class="cls-7" d="m1277.19,289.39l-4.86,8.15-8.64,14.4-4.35,7.23"/><path class="cls-7" d="m731.13,297.29c5.9,5.06,13.27,8.08,20.72,10.32,12.08,3.64,26.12,6.11,38.71,5.93,11.49-.19,23.02-2.75,34.09-5.55,4.06-1.03,8.51-2.46,10.57-6.11.37-.86.87-1.65,1.49-2.35,1.1-.98,2.72-.97,4.18-.96,2.58-.04,5.16-.24,7.72-.6.32-.05,7.24-1.56,6.43-2.12-4.3-2.91-5.28-8.81-5.09-14,.06-2.85.48-5.68,1.25-8.43,1.46-4.95,4.37-9.32,7.23-13.62.65-.97,1.39-2.01,2.52-2.31.73-.19,1.67-.14,1.95-.84.28-.7-.58-1.37-1.31-1.66-4.8-1.91-10.04-.02-14.7-1.88-2.3-.92-3.27-3.79-6.76-4.57l-23-5.27c-3.21-.73-6.01-1.31-8.81-2.91-2.56-1.46-4.82-3.26-7.6-4.34-1.12-.43-6.32-1.34-6.68-2.73-.65-2.45,4.46-2.11,4.64-4.59.16-2.3-9.74-6.33-10.41-5.24.73-1.19,2.45-1.05,3.84-1.19"/><path class="cls-7" d="m845.53,253.18c-20.4,1.55-16.8,41.43-8.82,46.34"/><path class="cls-7" d="m809.67,267.44c-5.32-2.02-32.03-10.41-34-1.97-1.13,4.8,5.89,10.44,5.41,16.48-10.16,2.52-11.33-19.05-23.09-16.21,1.56,7.43,11.85,9.54,11.09,18.83-6.36-4.17-10.74-14.57-20.07-11.75,2.74,3.55,7.12,7.48,7.04,12.46.03.46-14.94-15.27-16.84-18.29-5.06-7.94-8.29-16.32-19.35-11.21-2.37,1.05-1.55,5.52-5.81,5.87-3.8.32-4.6-3.68-7.11-5.28"/><g><line class="cls-7" x1="843.49" y1="54.6" x2="843.49" y2="80.39"/><line class="cls-7" x1="830.6" y1="67.49" x2="856.39" y2="67.49"/></g><path class="cls-7" d="m846.17,466.41c-.05,6.58-5.52,12.12-11.95,12.11-6.5,0-12-5.72-11.93-12.38.07-6.44,5.52-11.82,11.96-11.81,6.56.01,11.97,5.49,11.92,12.08"/><path class="cls-2" d="m1207.4,421.38h15.58c.54,0,.97.44.97.97v15.58c0,.54-.44.97-.97.97h-15.58c-.54,0-.97-.43-.97-.97v-15.58c0-.54.44-.97.97-.97"/><path class="cls-5" d="m755.42,113.78c5.4,0,9.79,4.38,9.79,9.79s-4.38,9.79-9.79,9.79-9.79-4.38-9.79-9.79,4.38-9.79,9.79-9.79"/><path class="cls-7" d="m1184.91,122.58c0,6.17-5.01,11.18-11.19,11.18s-11.19-5.01-11.19-11.18,5.01-11.18,11.19-11.18c6.18.06,11.19,5.07,11.19,11.18Z"/><path class="cls-7" d="m1156.23,396.94c3.34-3.34,3.34-8.76,0-12.1-3.34-3.34-8.76-3.34-12.11,0-3.34,3.34-3.34,8.76,0,12.1,3.34,3.34,8.76,3.34,12.11,0Z"/><path class="cls-7" d="m863.78,166.26c2.41-9.92-3.68-19.92-13.61-22.33-9.93-2.41-19.94,3.68-22.35,13.6-2.41,9.92,3.68,19.92,13.61,22.33,9.93,2.41,19.94-3.68,22.35-13.6Z"/></g><g><g class="cls-20"><g class="cls-14"><path class="cls-1" d="m184.79,485.96c106.96,106.96,279.97,107.36,386.43.9,106.46-106.46,106.06-279.47-.9-386.43-106.96-106.96-279.97-107.36-386.43-.9-106.46,106.46-106.06,279.47.9,386.43"/></g></g><g class="cls-22"><g class="cls-25"><g class="cls-21"><path class="cls-23" d="m561.51,466.29c-19.78,19.78-19.71,51.93.17,71.81,19.88,19.88,52.03,19.95,71.81.17,19.78-19.78,19.71-51.93-.17-71.81-19.88-19.88-52.03-19.95-71.81-.17"/></g></g></g><g class="cls-18"><g class="cls-16"><g class="cls-19"><path class="cls-10" d="m504.21,564.8c25.39,25.39,66.46,25.49,91.73.21,25.27-25.27,25.17-66.34-.22-91.73-25.39-25.39-66.46-25.49-91.73-.22-25.27,25.27-25.18,66.34.21,91.73Z"/></g></g></g></g></svg>