<?xml version="1.0" encoding="UTF-8"?><svg id="Layer_1" xmlns="http://www.w3.org/2000/svg" xmlns:xlink="http://www.w3.org/1999/xlink" viewBox="0 0 414 614"><defs><style>.cls-1{fill:#452391;}.cls-2,.cls-3{fill:#98c841;}.cls-4{fill:#fff;}.cls-5,.cls-6{fill:#963895;}.cls-7{clip-path:url(#clippath-2);}.cls-8{fill:#d2d1d1;}.cls-9{clip-path:url(#clippath-6);}.cls-10,.cls-11{fill:#452390;}.cls-12{opacity:.86;}.cls-13,.cls-14,.cls-15,.cls-16,.cls-6,.cls-11,.cls-3{stroke-miterlimit:10;}.cls-13,.cls-14,.cls-15,.cls-6,.cls-11,.cls-3{stroke:#000;stroke-width:.75px;}.cls-13,.cls-16,.cls-17{fill:none;}.cls-18{clip-path:url(#clippath-7);}.cls-19{clip-path:url(#clippath-1);}.cls-20{clip-path:url(#clippath-4);}.cls-21{opacity:.89;}.cls-22{fill:#99c941;}.cls-15{fill:#f6cdc5;}.cls-23{clip-path:url(#clippath);}.cls-16{stroke:#e9e8e8;stroke-width:4px;}.cls-24{clip-path:url(#clippath-3);}.cls-25{fill:#e58b47;}</style><clipPath id="clippath"><path class="cls-17" d="m288.71,393.77c0,40.91-33.17,74.08-74.08,74.08s-74.08-33.16-74.08-74.08,33.17-74.08,74.08-74.08,74.08,33.16,74.08,74.08"/></clipPath><clipPath id="clippath-1"><rect class="cls-17" x="-20.59" y="-186.45" width="436.23" height="438.27" transform="translate(34.74 149.24) rotate(-45)"/></clipPath><clipPath id="clippath-2"><rect class="cls-17" x="-20.59" y="-186.45" width="436.23" height="438.27" transform="translate(34.74 149.24) rotate(-45)"/></clipPath><clipPath id="clippath-3"><rect class="cls-17" x="332.91" y="134.9" width="87.64" height="127.3" transform="translate(-30.05 324.54) rotate(-45)"/></clipPath><clipPath id="clippath-4"><rect class="cls-17" x="332.91" y="134.9" width="87.64" height="127.3" transform="translate(-30.05 324.54) rotate(-45)"/></clipPath><clipPath id="clippath-6"><rect class="cls-17" x="283" y="160.67" width="104.92" height="105.41" transform="translate(-52.62 299.7) rotate(-45)"/></clipPath><clipPath id="clippath-7"><rect class="cls-17" x="283" y="160.67" width="104.92" height="105.41" transform="translate(-52.62 299.7) rotate(-45)"/></clipPath></defs><g><path class="cls-1" d="m370.09,298.93l-.2,11.29c-.02,1.04.81,1.89,1.84,1.9.34,0,.68-.08.97-.26l9.4-5.46c.89-.52,1.2-1.67.67-2.56-.15-.26-.36-.48-.62-.64l-9.2-5.78c-.87-.55-2.03-.29-2.58.58-.18.28-.27.59-.29.92Z"/><path class="cls-8" d="m282.44,326.72c0,18.92-15.34,34.26-34.26,34.26s-34.26-15.34-34.26-34.26,15.34-34.26,34.26-34.26,34.26,15.34,34.26,34.26"/><g class="cls-23"><path class="cls-16" d="m-438.13,471.79c4.23,0,6.4-3.94,10.43-3.94s6.21,3.94,10.43,3.94,6.4-3.94,10.43-3.94,6.21,3.94,10.43,3.94,6.4-3.94,10.43-3.94,6.2,3.94,10.43,3.94,6.4-3.94,10.43-3.94,6.21,3.94,10.43,3.94,6.4-3.94,10.43-3.94,6.21,3.94,10.43,3.94,6.4-3.94,10.43-3.94,6.21,3.94,10.43,3.94,6.4-3.94,10.43-3.94,6.21,3.94,10.43,3.94,6.4-3.94,10.43-3.94,6.21,3.94,10.43,3.94,6.4-3.94,10.43-3.94,6.21,3.94,10.43,3.94,6.4-3.94,10.43-3.94,6.2,3.94,10.43,3.94,6.4-3.94,10.43-3.94,6.21,3.94,10.43,3.94,6.4-3.94,10.43-3.94,6.21,3.94,10.43,3.94,6.4-3.94,10.43-3.94,6.21,3.94,10.43,3.94,6.4-3.94,10.43-3.94,6.21,3.94,10.43,3.94,6.4-3.94,10.43-3.94,6.21,3.94,10.43,3.94,6.4-3.94,10.43-3.94,6.21,3.94,10.43,3.94,6.4-3.94,10.43-3.94,6.2,3.94,10.43,3.94,6.4-3.94,10.43-3.94,6.21,3.94,10.43,3.94,6.4-3.94,10.43-3.94,6.21,3.94,10.43,3.94,6.4-3.94,10.43-3.94,6.21,3.94,10.43,3.94,6.4-3.94,10.43-3.94,6.21,3.94,10.43,3.94,6.4-3.94,10.43-3.94,6.21,3.94,10.43,3.94,6.4-3.94,10.43-3.94,6.21,3.94,10.43,3.94,6.4-3.94,10.43-3.94,6.2,3.94,10.43,3.94,6.4-3.94,10.43-3.94,6.21,3.94,10.43,3.94,6.4-3.94,10.43-3.94,6.2,3.94,10.43,3.94,6.4-3.94,10.43-3.94,6.21,3.94,10.43,3.94,6.4-3.94,10.43-3.94,6.21,3.94,10.43,3.94,6.4-3.94,10.43-3.94,6.21,3.94,10.43,3.94,6.4-3.94,10.43-3.94,6.21,3.94,10.43,3.94,6.4-3.94,10.43-3.94,6.2,3.94,10.43,3.94,6.4-3.94,10.43-3.94,6.21,3.94,10.43,3.94,6.4-3.94,10.43-3.94,6.21,3.94,10.43,3.94,6.4-3.94,10.43-3.94,6.21,3.94,10.43,3.94,6.4-3.94,10.43-3.94,6.21,3.94,10.43,3.94,6.4-3.94,10.43-3.94,6.21,3.94,10.43,3.94,6.4-3.94,10.43-3.94,6.21,3.94,10.43,3.94,6.4-3.94,10.43-3.94,6.2,3.94,10.43,3.94,6.4-3.94,10.43-3.94,6.21,3.94,10.43,3.94,6.4-3.94,10.43-3.94,6.21,3.94,10.43,3.94m-834.37-10.06c4.23,0,6.4-3.94,10.43-3.94s6.21,3.94,10.43,3.94,6.4-3.94,10.43-3.94,6.21,3.94,10.43,3.94,6.4-3.94,10.43-3.94,6.2,3.94,10.43,3.94,6.4-3.94,10.43-3.94,6.21,3.94,10.43,3.94,6.4-3.94,10.43-3.94,6.21,3.94,10.43,3.94,6.4-3.94,10.43-3.94,6.21,3.94,10.43,3.94,6.4-3.94,10.43-3.94,6.21,3.94,10.43,3.94,6.4-3.94,10.43-3.94,6.21,3.94,10.43,3.94,6.4-3.94,10.43-3.94,6.21,3.94,10.43,3.94,6.4-3.94,10.43-3.94,6.2,3.94,10.43,3.94,6.4-3.94,10.43-3.94,6.21,3.94,10.43,3.94,6.4-3.94,10.43-3.94,6.21,3.94,10.43,3.94,6.4-3.94,10.43-3.94,6.21,3.94,10.43,3.94,6.4-3.94,10.43-3.94,6.21,3.94,10.43,3.94,6.4-3.94,10.43-3.94,6.21,3.94,10.43,3.94,6.4-3.94,10.43-3.94,6.21,3.94,10.43,3.94,6.4-3.94,10.43-3.94,6.2,3.94,10.43,3.94,6.4-3.94,10.43-3.94,6.21,3.94,10.43,3.94,6.4-3.94,10.43-3.94,6.21,3.94,10.43,3.94,6.4-3.94,10.43-3.94,6.21,3.94,10.43,3.94,6.4-3.94,10.43-3.94,6.21,3.94,10.43,3.94,6.4-3.94,10.43-3.94,6.21,3.94,10.43,3.94,6.4-3.94,10.43-3.94,6.21,3.94,10.43,3.94,6.4-3.94,10.43-3.94,6.2,3.94,10.43,3.94,6.4-3.94,10.43-3.94,6.21,3.94,10.43,3.94,6.4-3.94,10.43-3.94,6.2,3.94,10.43,3.94,6.4-3.94,10.43-3.94,6.21,3.94,10.43,3.94,6.4-3.94,10.43-3.94,6.21,3.94,10.43,3.94,6.4-3.94,10.43-3.94,6.21,3.94,10.43,3.94,6.4-3.94,10.43-3.94,6.21,3.94,10.43,3.94,6.4-3.94,10.43-3.94,6.2,3.94,10.43,3.94,6.4-3.94,10.43-3.94,6.21,3.94,10.43,3.94,6.4-3.94,10.43-3.94,6.21,3.94,10.43,3.94,6.4-3.94,10.43-3.94,6.21,3.94,10.43,3.94,6.4-3.94,10.43-3.94,6.21,3.94,10.43,3.94,6.4-3.94,10.43-3.94,6.21,3.94,10.43,3.94,6.4-3.94,10.43-3.94,6.21,3.94,10.43,3.94,6.4-3.94,10.43-3.94,6.2,3.94,10.43,3.94,6.4-3.94,10.43-3.94,6.21,3.94,10.43,3.94,6.4-3.94,10.43-3.94,6.21,3.94,10.43,3.94m-834.37-10.06c4.23,0,6.4-3.94,10.43-3.94s6.21,3.94,10.43,3.94,6.4-3.94,10.43-3.94,6.21,3.94,10.43,3.94,6.4-3.94,10.43-3.94,6.2,3.94,10.43,3.94,6.4-3.94,10.43-3.94,6.21,3.94,10.43,3.94,6.4-3.94,10.43-3.94,6.21,3.94,10.43,3.94,6.4-3.94,10.43-3.94,6.21,3.94,10.43,3.94,6.4-3.94,10.43-3.94,6.21,3.94,10.43,3.94,6.4-3.94,10.43-3.94,6.21,3.94,10.43,3.94,6.4-3.94,10.43-3.94,6.21,3.94,10.43,3.94,6.4-3.94,10.43-3.94,6.2,3.94,10.43,3.94,6.4-3.94,10.43-3.94,6.21,3.94,10.43,3.94,6.4-3.94,10.43-3.94,6.21,3.94,10.43,3.94,6.4-3.94,10.43-3.94,6.21,3.94,10.43,3.94,6.4-3.94,10.43-3.94,6.21,3.94,10.43,3.94,6.4-3.94,10.43-3.94,6.21,3.94,10.43,3.94,6.4-3.94,10.43-3.94,6.21,3.94,10.43,3.94,6.4-3.94,10.43-3.94,6.2,3.94,10.43,3.94,6.4-3.94,10.43-3.94,6.21,3.94,10.43,3.94,6.4-3.94,10.43-3.94,6.21,3.94,10.43,3.94,6.4-3.94,10.43-3.94,6.21,3.94,10.43,3.94,6.4-3.94,10.43-3.94,6.21,3.94,10.43,3.94,6.4-3.94,10.43-3.94,6.21,3.94,10.43,3.94,6.4-3.94,10.43-3.94,6.21,3.94,10.43,3.94,6.4-3.94,10.43-3.94,6.2,3.94,10.43,3.94,6.4-3.94,10.43-3.94,6.21,3.94,10.43,3.94,6.4-3.94,10.43-3.94,6.2,3.94,10.43,3.94,6.4-3.94,10.43-3.94,6.21,3.94,10.43,3.94,6.4-3.94,10.43-3.94,6.21,3.94,10.43,3.94,6.4-3.94,10.43-3.94,6.21,3.94,10.43,3.94,6.4-3.94,10.43-3.94,6.21,3.94,10.43,3.94,6.4-3.94,10.43-3.94,6.2,3.94,10.43,3.94,6.4-3.94,10.43-3.94,6.21,3.94,10.43,3.94,6.4-3.94,10.43-3.94,6.21,3.94,10.43,3.94,6.4-3.94,10.43-3.94,6.21,3.94,10.43,3.94,6.4-3.94,10.43-3.94,6.21,3.94,10.43,3.94,6.4-3.94,10.43-3.94,6.21,3.94,10.43,3.94,6.4-3.94,10.43-3.94,6.21,3.94,10.43,3.94,6.4-3.94,10.43-3.94,6.2,3.94,10.43,3.94,6.4-3.94,10.43-3.94,6.21,3.94,10.43,3.94,6.4-3.94,10.43-3.94,6.21,3.94,10.43,3.94m-834.37-10.06c4.23,0,6.4-3.94,10.43-3.94s6.21,3.94,10.43,3.94,6.4-3.94,10.43-3.94,6.21,3.94,10.43,3.94,6.4-3.94,10.43-3.94,6.2,3.94,10.43,3.94,6.4-3.94,10.43-3.94,6.21,3.94,10.43,3.94,6.4-3.94,10.43-3.94,6.21,3.94,10.43,3.94,6.4-3.94,10.43-3.94,6.21,3.94,10.43,3.94,6.4-3.94,10.43-3.94,6.21,3.94,10.43,3.94,6.4-3.94,10.43-3.94,6.21,3.94,10.43,3.94,6.4-3.94,10.43-3.94,6.21,3.94,10.43,3.94,6.4-3.94,10.43-3.94,6.2,3.94,10.43,3.94,6.4-3.94,10.43-3.94,6.21,3.94,10.43,3.94,6.4-3.94,10.43-3.94,6.21,3.94,10.43,3.94,6.4-3.94,10.43-3.94,6.21,3.94,10.43,3.94,6.4-3.94,10.43-3.94,6.21,3.94,10.43,3.94,6.4-3.94,10.43-3.94,6.21,3.94,10.43,3.94,6.4-3.94,10.43-3.94,6.21,3.94,10.43,3.94,6.4-3.94,10.43-3.94,6.2,3.94,10.43,3.94,6.4-3.94,10.43-3.94,6.21,3.94,10.43,3.94,6.4-3.94,10.43-3.94,6.21,3.94,10.43,3.94,6.4-3.94,10.43-3.94,6.21,3.94,10.43,3.94,6.4-3.94,10.43-3.94,6.21,3.94,10.43,3.94,6.4-3.94,10.43-3.94,6.21,3.94,10.43,3.94,6.4-3.94,10.43-3.94,6.21,3.94,10.43,3.94,6.4-3.94,10.43-3.94,6.2,3.94,10.43,3.94,6.4-3.94,10.43-3.94,6.21,3.94,10.43,3.94,6.4-3.94,10.43-3.94,6.2,3.94,10.43,3.94,6.4-3.94,10.43-3.94,6.21,3.94,10.43,3.94,6.4-3.94,10.43-3.94,6.21,3.94,10.43,3.94,6.4-3.94,10.43-3.94,6.21,3.94,10.43,3.94,6.4-3.94,10.43-3.94,6.21,3.94,10.43,3.94,6.4-3.94,10.43-3.94,6.2,3.94,10.43,3.94,6.4-3.94,10.43-3.94,6.21,3.94,10.43,3.94,6.4-3.94,10.43-3.94,6.21,3.94,10.43,3.94,6.4-3.94,10.43-3.94,6.21,3.94,10.43,3.94,6.4-3.94,10.43-3.94,6.21,3.94,10.43,3.94,6.4-3.94,10.43-3.94,6.21,3.94,10.43,3.94,6.4-3.94,10.43-3.94,6.21,3.94,10.43,3.94,6.4-3.94,10.43-3.94,6.2,3.94,10.43,3.94,6.4-3.94,10.43-3.94,6.21,3.94,10.43,3.94,6.4-3.94,10.43-3.94,6.21,3.94,10.43,3.94m-834.37-10.06c4.23,0,6.4-3.94,10.43-3.94s6.21,3.94,10.43,3.94,6.4-3.94,10.43-3.94,6.21,3.94,10.43,3.94,6.4-3.94,10.43-3.94,6.2,3.94,10.43,3.94,6.4-3.94,10.43-3.94,6.21,3.94,10.43,3.94,6.4-3.94,10.43-3.94,6.21,3.94,10.43,3.94,6.4-3.94,10.43-3.94,6.21,3.94,10.43,3.94,6.4-3.94,10.43-3.94,6.21,3.94,10.43,3.94,6.4-3.94,10.43-3.94,6.21,3.94,10.43,3.94,6.4-3.94,10.43-3.94,6.21,3.94,10.43,3.94,6.4-3.94,10.43-3.94,6.2,3.94,10.43,3.94,6.4-3.94,10.43-3.94,6.21,3.94,10.43,3.94,6.4-3.94,10.43-3.94,6.21,3.94,10.43,3.94,6.4-3.94,10.43-3.94,6.21,3.94,10.43,3.94,6.4-3.94,10.43-3.94,6.21,3.94,10.43,3.94,6.4-3.94,10.43-3.94,6.21,3.94,10.43,3.94,6.4-3.94,10.43-3.94,6.21,3.94,10.43,3.94,6.4-3.94,10.43-3.94,6.2,3.94,10.43,3.94,6.4-3.94,10.43-3.94,6.21,3.94,10.43,3.94,6.4-3.94,10.43-3.94,6.21,3.94,10.43,3.94,6.4-3.94,10.43-3.94,6.21,3.94,10.43,3.94,6.4-3.94,10.43-3.94,6.21,3.94,10.43,3.94,6.4-3.94,10.43-3.94,6.21,3.94,10.43,3.94,6.4-3.94,10.43-3.94,6.21,3.94,10.43,3.94,6.4-3.94,10.43-3.94,6.2,3.94,10.43,3.94,6.4-3.94,10.43-3.94,6.21,3.94,10.43,3.94,6.4-3.94,10.43-3.94,6.2,3.94,10.43,3.94,6.4-3.94,10.43-3.94,6.21,3.94,10.43,3.94,6.4-3.94,10.43-3.94,6.21,3.94,10.43,3.94,6.4-3.94,10.43-3.94,6.21,3.94,10.43,3.94,6.4-3.94,10.43-3.94,6.21,3.94,10.43,3.94,6.4-3.94,10.43-3.94,6.2,3.94,10.43,3.94,6.4-3.94,10.43-3.94,6.21,3.94,10.43,3.94,6.4-3.94,10.43-3.94,6.21,3.94,10.43,3.94,6.4-3.94,10.43-3.94,6.21,3.94,10.43,3.94,6.4-3.94,10.43-3.94,6.21,3.94,10.43,3.94,6.4-3.94,10.43-3.94,6.21,3.94,10.43,3.94,6.4-3.94,10.43-3.94,6.21,3.94,10.43,3.94,6.4-3.94,10.43-3.94,6.2,3.94,10.43,3.94,6.4-3.94,10.43-3.94,6.21,3.94,10.43,3.94,6.4-3.94,10.43-3.94,6.21,3.94,10.43,3.94m-834.37-10.06c4.23,0,6.4-3.94,10.43-3.94s6.21,3.94,10.43,3.94,6.4-3.94,10.43-3.94,6.21,3.94,10.43,3.94,6.4-3.94,10.43-3.94,6.2,3.94,10.43,3.94,6.4-3.94,10.43-3.94,6.21,3.94,10.43,3.94,6.4-3.94,10.43-3.94,6.21,3.94,10.43,3.94,6.4-3.94,10.43-3.94,6.21,3.94,10.43,3.94,6.4-3.94,10.43-3.94,6.21,3.94,10.43,3.94,6.4-3.94,10.43-3.94,6.21,3.94,10.43,3.94,6.4-3.94,10.43-3.94,6.21,3.94,10.43,3.94,6.4-3.94,10.43-3.94,6.2,3.94,10.43,3.94,6.4-3.94,10.43-3.94,6.21,3.94,10.43,3.94,6.4-3.94,10.43-3.94,6.21,3.94,10.43,3.94,6.4-3.94,10.43-3.94,6.21,3.94,10.43,3.94,6.4-3.94,10.43-3.94,6.21,3.94,10.43,3.94,6.4-3.94,10.43-3.94,6.21,3.94,10.43,3.94,6.4-3.94,10.43-3.94,6.21,3.94,10.43,3.94,6.4-3.94,10.43-3.94,6.2,3.94,10.43,3.94,6.4-3.94,10.43-3.94,6.21,3.94,10.43,3.94,6.4-3.94,10.43-3.94,6.21,3.94,10.43,3.94,6.4-3.94,10.43-3.94,6.21,3.94,10.43,3.94,6.4-3.94,10.43-3.94,6.21,3.94,10.43,3.94,6.4-3.94,10.43-3.94,6.21,3.94,10.43,3.94,6.4-3.94,10.43-3.94,6.21,3.94,10.43,3.94,6.4-3.94,10.43-3.94,6.2,3.94,10.43,3.94,6.4-3.94,10.43-3.94,6.21,3.94,10.43,3.94,6.4-3.94,10.43-3.94,6.2,3.94,10.43,3.94,6.4-3.94,10.43-3.94,6.21,3.94,10.43,3.94,6.4-3.94,10.43-3.94,6.21,3.94,10.43,3.94,6.4-3.94,10.43-3.94,6.21,3.94,10.43,3.94,6.4-3.94,10.43-3.94,6.21,3.94,10.43,3.94,6.4-3.94,10.43-3.94,6.2,3.94,10.43,3.94,6.4-3.94,10.43-3.94,6.21,3.94,10.43,3.94,6.4-3.94,10.43-3.94,6.21,3.94,10.43,3.94,6.4-3.94,10.43-3.94,6.21,3.94,10.43,3.94,6.4-3.94,10.43-3.94,6.21,3.94,10.43,3.94,6.4-3.94,10.43-3.94,6.21,3.94,10.43,3.94,6.4-3.94,10.43-3.94,6.21,3.94,10.43,3.94,6.4-3.94,10.43-3.94,6.2,3.94,10.43,3.94,6.4-3.94,10.43-3.94,6.21,3.94,10.43,3.94,6.4-3.94,10.43-3.94,6.21,3.94,10.43,3.94m-834.37-10.06c4.23,0,6.4-3.94,10.43-3.94s6.21,3.94,10.43,3.94,6.4-3.94,10.43-3.94,6.21,3.94,10.43,3.94,6.4-3.94,10.43-3.94,6.2,3.94,10.43,3.94,6.4-3.94,10.43-3.94,6.21,3.94,10.43,3.94,6.4-3.94,10.43-3.94,6.21,3.94,10.43,3.94,6.4-3.94,10.43-3.94,6.21,3.94,10.43,3.94,6.4-3.94,10.43-3.94,6.21,3.94,10.43,3.94,6.4-3.94,10.43-3.94,6.21,3.94,10.43,3.94,6.4-3.94,10.43-3.94,6.21,3.94,10.43,3.94,6.4-3.94,10.43-3.94,6.2,3.94,10.43,3.94,6.4-3.94,10.43-3.94,6.21,3.94,10.43,3.94,6.4-3.94,10.43-3.94,6.21,3.94,10.43,3.94,6.4-3.94,10.43-3.94,6.21,3.94,10.43,3.94,6.4-3.94,10.43-3.94,6.21,3.94,10.43,3.94,6.4-3.94,10.43-3.94,6.21,3.94,10.43,3.94,6.4-3.94,10.43-3.94,6.21,3.94,10.43,3.94,6.4-3.94,10.43-3.94,6.2,3.94,10.43,3.94,6.4-3.94,10.43-3.94,6.21,3.94,10.43,3.94,6.4-3.94,10.43-3.94,6.21,3.94,10.43,3.94,6.4-3.94,10.43-3.94,6.21,3.94,10.43,3.94,6.4-3.94,10.43-3.94,6.21,3.94,10.43,3.94,6.4-3.94,10.43-3.94,6.21,3.94,10.43,3.94,6.4-3.94,10.43-3.94,6.21,3.94,10.43,3.94,6.4-3.94,10.43-3.94,6.2,3.94,10.43,3.94,6.4-3.94,10.43-3.94,6.21,3.94,10.43,3.94,6.4-3.94,10.43-3.94,6.2,3.94,10.43,3.94,6.4-3.94,10.43-3.94,6.21,3.94,10.43,3.94,6.4-3.94,10.43-3.94,6.21,3.94,10.43,3.94,6.4-3.94,10.43-3.94,6.21,3.94,10.43,3.94,6.4-3.94,10.43-3.94,6.21,3.94,10.43,3.94,6.4-3.94,10.43-3.94,6.2,3.94,10.43,3.94,6.4-3.94,10.43-3.94,6.21,3.94,10.43,3.94,6.4-3.94,10.43-3.94,6.21,3.94,10.43,3.94,6.4-3.94,10.43-3.94,6.21,3.94,10.43,3.94,6.4-3.94,10.43-3.94,6.21,3.94,10.43,3.94,6.4-3.94,10.43-3.94,6.21,3.94,10.43,3.94,6.4-3.94,10.43-3.94,6.21,3.94,10.43,3.94,6.4-3.94,10.43-3.94,6.2,3.94,10.43,3.94,6.4-3.94,10.43-3.94,6.21,3.94,10.43,3.94,6.4-3.94,10.43-3.94,6.21,3.94,10.43,3.94m-834.37-10.06c4.23,0,6.4-3.94,10.43-3.94s6.21,3.94,10.43,3.94,6.4-3.94,10.43-3.94,6.21,3.94,10.43,3.94,6.4-3.94,10.43-3.94,6.2,3.94,10.43,3.94,6.4-3.94,10.43-3.94,6.21,3.94,10.43,3.94,6.4-3.94,10.43-3.94,6.21,3.94,10.43,3.94,6.4-3.94,10.43-3.94,6.21,3.94,10.43,3.94,6.4-3.94,10.43-3.94,6.21,3.94,10.43,3.94,6.4-3.94,10.43-3.94,6.21,3.94,10.43,3.94,6.4-3.94,10.43-3.94,6.21,3.94,10.43,3.94,6.4-3.94,10.43-3.94,6.2,3.94,10.43,3.94,6.4-3.94,10.43-3.94,6.21,3.94,10.43,3.94,6.4-3.94,10.43-3.94,6.21,3.94,10.43,3.94,6.4-3.94,10.43-3.94,6.21,3.94,10.43,3.94,6.4-3.94,10.43-3.94,6.21,3.94,10.43,3.94,6.4-3.94,10.43-3.94,6.21,3.94,10.43,3.94,6.4-3.94,10.43-3.94,6.21,3.94,10.43,3.94,6.4-3.94,10.43-3.94,6.2,3.94,10.43,3.94,6.4-3.94,10.43-3.94,6.21,3.94,10.43,3.94,6.4-3.94,10.43-3.94,6.21,3.94,10.43,3.94,6.4-3.94,10.43-3.94,6.21,3.94,10.43,3.94,6.4-3.94,10.43-3.94,6.21,3.94,10.43,3.94,6.4-3.94,10.43-3.94,6.21,3.94,10.43,3.94,6.4-3.94,10.43-3.94,6.21,3.94,10.43,3.94,6.4-3.94,10.43-3.94,6.2,3.94,10.43,3.94,6.4-3.94,10.43-3.94,6.21,3.94,10.43,3.94,6.4-3.94,10.43-3.94,6.2,3.94,10.43,3.94,6.4-3.94,10.43-3.94,6.21,3.94,10.43,3.94,6.4-3.94,10.43-3.94,6.21,3.94,10.43,3.94,6.4-3.94,10.43-3.94,6.21,3.94,10.43,3.94,6.4-3.94,10.43-3.94,6.21,3.94,10.43,3.94,6.4-3.94,10.43-3.94,6.2,3.94,10.43,3.94,6.4-3.94,10.43-3.94,6.21,3.94,10.43,3.94,6.4-3.94,10.43-3.94,6.21,3.94,10.43,3.94,6.4-3.94,10.43-3.94,6.21,3.94,10.43,3.94,6.4-3.94,10.43-3.94,6.21,3.94,10.43,3.94,6.4-3.94,10.43-3.94,6.21,3.94,10.43,3.94,6.4-3.94,10.43-3.94,6.21,3.94,10.43,3.94,6.4-3.94,10.43-3.94,6.2,3.94,10.43,3.94,6.4-3.94,10.43-3.94,6.21,3.94,10.43,3.94,6.4-3.94,10.43-3.94,6.21,3.94,10.43,3.94m-834.37-10.06c4.23,0,6.4-3.94,10.43-3.94s6.21,3.94,10.43,3.94,6.4-3.94,10.43-3.94,6.21,3.94,10.43,3.94,6.4-3.94,10.43-3.94,6.2,3.94,10.43,3.94,6.4-3.94,10.43-3.94,6.21,3.94,10.43,3.94,6.4-3.94,10.43-3.94,6.21,3.94,10.43,3.94,6.4-3.94,10.43-3.94,6.21,3.94,10.43,3.94,6.4-3.94,10.43-3.94,6.21,3.94,10.43,3.94,6.4-3.94,10.43-3.94,6.21,3.94,10.43,3.94,6.4-3.94,10.43-3.94,6.21,3.94,10.43,3.94,6.4-3.94,10.43-3.94,6.2,3.94,10.43,3.94,6.4-3.94,10.43-3.94,6.21,3.94,10.43,3.94,6.4-3.94,10.43-3.94,6.21,3.94,10.43,3.94,6.4-3.94,10.43-3.94,6.21,3.94,10.43,3.94,6.4-3.94,10.43-3.94,6.21,3.94,10.43,3.94,6.4-3.94,10.43-3.94,6.21,3.94,10.43,3.94,6.4-3.94,10.43-3.94,6.21,3.94,10.43,3.94,6.4-3.94,10.43-3.94,6.2,3.94,10.43,3.94,6.4-3.94,10.43-3.94,6.21,3.94,10.43,3.94,6.4-3.94,10.43-3.94,6.21,3.94,10.43,3.94,6.4-3.94,10.43-3.94,6.21,3.94,10.43,3.94,6.4-3.94,10.43-3.94,6.21,3.94,10.43,3.94,6.4-3.94,10.43-3.94,6.21,3.94,10.43,3.94,6.4-3.94,10.43-3.94,6.21,3.94,10.43,3.94,6.4-3.94,10.43-3.94,6.2,3.94,10.43,3.94,6.4-3.94,10.43-3.94,6.21,3.94,10.43,3.94,6.4-3.94,10.43-3.94,6.2,3.94,10.43,3.94,6.4-3.94,10.43-3.94,6.21,3.94,10.43,3.94,6.4-3.94,10.43-3.94,6.21,3.94,10.43,3.94,6.4-3.94,10.43-3.94,6.21,3.94,10.43,3.94,6.4-3.94,10.43-3.94,6.21,3.94,10.43,3.94,6.4-3.94,10.43-3.94,6.2,3.94,10.43,3.94,6.4-3.94,10.43-3.94,6.21,3.94,10.43,3.94,6.4-3.94,10.43-3.94,6.21,3.94,10.43,3.94,6.4-3.94,10.43-3.94,6.21,3.94,10.43,3.94,6.4-3.94,10.43-3.94,6.21,3.94,10.43,3.94,6.4-3.94,10.43-3.94,6.21,3.94,10.43,3.94,6.4-3.94,10.43-3.94,6.21,3.94,10.43,3.94,6.4-3.94,10.43-3.94,6.2,3.94,10.43,3.94,6.4-3.94,10.43-3.94,6.21,3.94,10.43,3.94,6.4-3.94,10.43-3.94,6.21,3.94,10.43,3.94m-834.37-10.06c4.23,0,6.4-3.94,10.43-3.94s6.21,3.94,10.43,3.94,6.4-3.94,10.43-3.94,6.21,3.94,10.43,3.94,6.4-3.94,10.43-3.94,6.2,3.94,10.43,3.94,6.4-3.94,10.43-3.94,6.21,3.94,10.43,3.94,6.4-3.94,10.43-3.94,6.21,3.94,10.43,3.94,6.4-3.94,10.43-3.94,6.21,3.94,10.43,3.94,6.4-3.94,10.43-3.94,6.21,3.94,10.43,3.94,6.4-3.94,10.43-3.94,6.21,3.94,10.43,3.94,6.4-3.94,10.43-3.94,6.21,3.94,10.43,3.94,6.4-3.94,10.43-3.94,6.2,3.94,10.43,3.94,6.4-3.94,10.43-3.94,6.21,3.94,10.43,3.94,6.4-3.94,10.43-3.94,6.21,3.94,10.43,3.94,6.4-3.94,10.43-3.94,6.21,3.94,10.43,3.94,6.4-3.94,10.43-3.94,6.21,3.94,10.43,3.94,6.4-3.94,10.43-3.94,6.21,3.94,10.43,3.94,6.4-3.94,10.43-3.94,6.21,3.94,10.43,3.94,6.4-3.94,10.43-3.94,6.2,3.94,10.43,3.94,6.4-3.94,10.43-3.94,6.21,3.94,10.43,3.94,6.4-3.94,10.43-3.94,6.21,3.94,10.43,3.94,6.4-3.94,10.43-3.94,6.21,3.94,10.43,3.94,6.4-3.94,10.43-3.94,6.21,3.94,10.43,3.94,6.4-3.94,10.43-3.94,6.21,3.94,10.43,3.94,6.4-3.94,10.43-3.94,6.21,3.94,10.43,3.94,6.4-3.94,10.43-3.94,6.2,3.94,10.43,3.94,6.4-3.94,10.43-3.94,6.21,3.94,10.43,3.94,6.4-3.94,10.43-3.94,6.2,3.94,10.43,3.94,6.4-3.94,10.43-3.94,6.21,3.94,10.43,3.94,6.4-3.94,10.43-3.94,6.21,3.94,10.43,3.94,6.4-3.94,10.43-3.94,6.21,3.94,10.43,3.94,6.4-3.94,10.43-3.94,6.21,3.94,10.43,3.94,6.4-3.94,10.43-3.94,6.2,3.94,10.43,3.94,6.4-3.94,10.43-3.94,6.21,3.94,10.43,3.94,6.4-3.94,10.43-3.94,6.21,3.94,10.43,3.94,6.4-3.94,10.43-3.94,6.21,3.94,10.43,3.94,6.4-3.94,10.43-3.94,6.21,3.94,10.43,3.94,6.4-3.94,10.43-3.94,6.21,3.94,10.43,3.94,6.4-3.94,10.43-3.94,6.21,3.94,10.43,3.94,6.4-3.94,10.43-3.94,6.2,3.94,10.43,3.94,6.4-3.94,10.43-3.94,6.21,3.94,10.43,3.94,6.4-3.94,10.43-3.94,6.21,3.94,10.43,3.94m-834.37-10.06c4.23,0,6.4-3.94,10.43-3.94s6.21,3.94,10.43,3.94,6.4-3.94,10.43-3.94,6.21,3.94,10.43,3.94,6.4-3.94,10.43-3.94,6.2,3.94,10.43,3.94,6.4-3.94,10.43-3.94,6.21,3.94,10.43,3.94,6.4-3.94,10.43-3.94,6.21,3.94,10.43,3.94,6.4-3.94,10.43-3.94,6.21,3.94,10.43,3.94,6.4-3.94,10.43-3.94,6.21,3.94,10.43,3.94,6.4-3.94,10.43-3.94,6.21,3.94,10.43,3.94,6.4-3.94,10.43-3.94,6.21,3.94,10.43,3.94,6.4-3.94,10.43-3.94,6.2,3.94,10.43,3.94,6.4-3.94,10.43-3.94,6.21,3.94,10.43,3.94,6.4-3.94,10.43-3.94,6.21,3.94,10.43,3.94,6.4-3.94,10.43-3.94,6.21,3.94,10.43,3.94,6.4-3.94,10.43-3.94,6.21,3.94,10.43,3.94,6.4-3.94,10.43-3.94,6.21,3.94,10.43,3.94,6.4-3.94,10.43-3.94,6.21,3.94,10.43,3.94,6.4-3.94,10.43-3.94,6.2,3.94,10.43,3.94,6.4-3.94,10.43-3.94,6.21,3.94,10.43,3.94,6.4-3.94,10.43-3.94,6.21,3.94,10.43,3.94,6.4-3.94,10.43-3.94,6.21,3.94,10.43,3.94,6.4-3.94,10.43-3.94,6.21,3.94,10.43,3.94,6.4-3.94,10.43-3.94,6.21,3.94,10.43,3.94,6.4-3.94,10.43-3.94,6.21,3.94,10.43,3.94,6.4-3.94,10.43-3.94,6.2,3.94,10.43,3.94,6.4-3.94,10.43-3.94,6.21,3.94,10.43,3.94,6.4-3.94,10.43-3.94,6.2,3.94,10.43,3.94,6.4-3.94,10.43-3.94,6.21,3.94,10.43,3.94,6.4-3.94,10.43-3.94,6.21,3.94,10.43,3.94,6.4-3.94,10.43-3.94,6.21,3.94,10.43,3.94,6.4-3.94,10.43-3.94,6.21,3.94,10.43,3.94,6.4-3.94,10.43-3.94,6.2,3.94,10.43,3.94,6.4-3.94,10.43-3.94,6.21,3.94,10.43,3.94,6.4-3.94,10.43-3.94,6.21,3.94,10.43,3.94,6.4-3.94,10.43-3.94,6.21,3.94,10.43,3.94,6.4-3.94,10.43-3.94,6.21,3.94,10.43,3.94,6.4-3.94,10.43-3.94,6.21,3.94,10.43,3.94,6.4-3.94,10.43-3.94,6.21,3.94,10.43,3.94,6.4-3.94,10.43-3.94,6.2,3.94,10.43,3.94,6.4-3.94,10.43-3.94,6.21,3.94,10.43,3.94,6.4-3.94,10.43-3.94,6.21,3.94,10.43,3.94m-834.37-10.06c4.23,0,6.4-3.94,10.43-3.94s6.21,3.94,10.43,3.94,6.4-3.94,10.43-3.94,6.21,3.94,10.43,3.94,6.4-3.94,10.43-3.94,6.2,3.94,10.43,3.94,6.4-3.94,10.43-3.94,6.21,3.94,10.43,3.94,6.4-3.94,10.43-3.94,6.21,3.94,10.43,3.94,6.4-3.94,10.43-3.94,6.21,3.94,10.43,3.94,6.4-3.94,10.43-3.94,6.21,3.94,10.43,3.94,6.4-3.94,10.43-3.94,6.21,3.94,10.43,3.94,6.4-3.94,10.43-3.94,6.21,3.94,10.43,3.94,6.4-3.94,10.43-3.94,6.2,3.94,10.43,3.94,6.4-3.94,10.43-3.94,6.21,3.94,10.43,3.94,6.4-3.94,10.43-3.94,6.21,3.94,10.43,3.94,6.4-3.94,10.43-3.94,6.21,3.94,10.43,3.94,6.4-3.94,10.43-3.94,6.21,3.94,10.43,3.94,6.4-3.94,10.43-3.94,6.21,3.94,10.43,3.94,6.4-3.94,10.43-3.94,6.21,3.94,10.43,3.94,6.4-3.94,10.43-3.94,6.2,3.94,10.43,3.94,6.4-3.94,10.43-3.94,6.21,3.94,10.43,3.94,6.4-3.94,10.43-3.94,6.21,3.94,10.43,3.94,6.4-3.94,10.43-3.94,6.21,3.94,10.43,3.94,6.4-3.94,10.43-3.94,6.21,3.94,10.43,3.94,6.4-3.94,10.43-3.94,6.21,3.94,10.43,3.94,6.4-3.94,10.43-3.94,6.21,3.94,10.43,3.94,6.4-3.94,10.43-3.94,6.2,3.94,10.43,3.94,6.4-3.94,10.43-3.94,6.21,3.94,10.43,3.94,6.4-3.94,10.43-3.94,6.2,3.94,10.43,3.94,6.4-3.94,10.43-3.94,6.21,3.94,10.43,3.94,6.4-3.94,10.43-3.94,6.21,3.94,10.43,3.94,6.4-3.94,10.43-3.94,6.21,3.94,10.43,3.94,6.4-3.94,10.43-3.94,6.21,3.94,10.43,3.94,6.4-3.94,10.43-3.94,6.2,3.94,10.43,3.94,6.4-3.94,10.43-3.94,6.21,3.94,10.43,3.94,6.4-3.94,10.43-3.94,6.21,3.94,10.43,3.94,6.4-3.94,10.43-3.94,6.21,3.94,10.43,3.94,6.4-3.94,10.43-3.94,6.21,3.94,10.43,3.94,6.4-3.94,10.43-3.94,6.21,3.94,10.43,3.94,6.4-3.94,10.43-3.94,6.21,3.94,10.43,3.94,6.4-3.94,10.43-3.94,6.2,3.94,10.43,3.94,6.4-3.94,10.43-3.94,6.21,3.94,10.43,3.94,6.4-3.94,10.43-3.94,6.21,3.94,10.43,3.94m-834.37-10.06c4.23,0,6.4-3.94,10.43-3.94s6.21,3.94,10.43,3.94,6.4-3.94,10.43-3.94,6.21,3.94,10.43,3.94,6.4-3.94,10.43-3.94,6.2,3.94,10.43,3.94,6.4-3.94,10.43-3.94,6.21,3.94,10.43,3.94,6.4-3.94,10.43-3.94,6.21,3.94,10.43,3.94,6.4-3.94,10.43-3.94,6.21,3.94,10.43,3.94,6.4-3.94,10.43-3.94,6.21,3.94,10.43,3.94,6.4-3.94,10.43-3.94,6.21,3.94,10.43,3.94,6.4-3.94,10.43-3.94,6.21,3.94,10.43,3.94,6.4-3.94,10.43-3.94,6.2,3.94,10.43,3.94,6.4-3.94,10.43-3.94,6.21,3.94,10.43,3.94,6.4-3.94,10.43-3.94,6.21,3.94,10.43,3.94,6.4-3.94,10.43-3.94,6.21,3.94,10.43,3.94,6.4-3.94,10.43-3.94,6.21,3.94,10.43,3.94,6.4-3.94,10.43-3.94,6.21,3.94,10.43,3.94,6.4-3.94,10.43-3.94,6.21,3.94,10.43,3.94,6.4-3.94,10.43-3.94,6.2,3.94,10.43,3.94,6.4-3.94,10.43-3.94,6.21,3.94,10.43,3.94,6.4-3.94,10.43-3.94,6.21,3.94,10.43,3.94,6.4-3.94,10.43-3.94,6.21,3.94,10.43,3.94,6.4-3.94,10.43-3.94,6.21,3.94,10.43,3.94,6.4-3.94,10.43-3.94,6.21,3.94,10.43,3.94,6.4-3.94,10.43-3.94,6.21,3.94,10.43,3.94,6.4-3.94,10.43-3.94,6.2,3.94,10.43,3.94,6.4-3.94,10.43-3.94,6.21,3.94,10.43,3.94,6.4-3.94,10.43-3.94,6.2,3.94,10.43,3.94,6.4-3.94,10.43-3.94,6.21,3.94,10.43,3.94,6.4-3.94,10.43-3.94,6.21,3.94,10.43,3.94,6.4-3.94,10.43-3.94,6.21,3.94,10.43,3.94,6.4-3.94,10.43-3.94,6.21,3.94,10.43,3.94,6.4-3.94,10.43-3.94,6.2,3.94,10.43,3.94,6.4-3.94,10.43-3.94,6.21,3.94,10.43,3.94,6.4-3.94,10.43-3.94,6.21,3.94,10.43,3.94,6.4-3.94,10.43-3.94,6.21,3.94,10.43,3.94,6.4-3.94,10.43-3.94,6.21,3.94,10.43,3.94,6.4-3.94,10.43-3.94,6.21,3.94,10.43,3.94,6.4-3.94,10.43-3.94,6.21,3.94,10.43,3.94,6.4-3.94,10.43-3.94,6.2,3.94,10.43,3.94,6.4-3.94,10.43-3.94,6.21,3.94,10.43,3.94,6.4-3.94,10.43-3.94,6.21,3.94,10.43,3.94m-834.37-10.06c4.23,0,6.4-3.94,10.43-3.94s6.21,3.94,10.43,3.94,6.4-3.94,10.43-3.94,6.21,3.94,10.43,3.94,6.4-3.94,10.43-3.94,6.2,3.94,10.43,3.94,6.4-3.94,10.43-3.94,6.21,3.94,10.43,3.94,6.4-3.94,10.43-3.94,6.21,3.94,10.43,3.94,6.4-3.94,10.43-3.94,6.21,3.94,10.43,3.94,6.4-3.94,10.43-3.94,6.21,3.94,10.43,3.94,6.4-3.94,10.43-3.94,6.21,3.94,10.43,3.94,6.4-3.94,10.43-3.94,6.21,3.94,10.43,3.94,6.4-3.94,10.43-3.94,6.2,3.94,10.43,3.94,6.4-3.94,10.43-3.94,6.21,3.94,10.43,3.94,6.4-3.94,10.43-3.94,6.21,3.94,10.43,3.94,6.4-3.94,10.43-3.94,6.21,3.94,10.43,3.94,6.4-3.94,10.43-3.94,6.21,3.94,10.43,3.94,6.4-3.94,10.43-3.94,6.21,3.94,10.43,3.94,6.4-3.94,10.43-3.94,6.21,3.94,10.43,3.94,6.4-3.94,10.43-3.94,6.2,3.94,10.43,3.94,6.4-3.94,10.43-3.94,6.21,3.94,10.43,3.94,6.4-3.94,10.43-3.94,6.21,3.94,10.43,3.94,6.4-3.94,10.43-3.94,6.21,3.94,10.43,3.94,6.4-3.94,10.43-3.94,6.21,3.94,10.43,3.94,6.4-3.94,10.43-3.94,6.21,3.94,10.43,3.94,6.4-3.94,10.43-3.94,6.21,3.94,10.43,3.94,6.4-3.94,10.43-3.94,6.2,3.94,10.43,3.94,6.4-3.94,10.43-3.94,6.21,3.94,10.43,3.94,6.4-3.94,10.43-3.94,6.2,3.94,10.43,3.94,6.4-3.94,10.43-3.94,6.21,3.94,10.43,3.94,6.4-3.94,10.43-3.94,6.21,3.94,10.43,3.94,6.4-3.94,10.43-3.94,6.21,3.94,10.43,3.94,6.4-3.94,10.43-3.94,6.21,3.94,10.43,3.94,6.4-3.94,10.43-3.94,6.2,3.94,10.43,3.94,6.4-3.94,10.43-3.94,6.21,3.94,10.43,3.94,6.4-3.94,10.43-3.94,6.21,3.94,10.43,3.94,6.4-3.94,10.43-3.94,6.21,3.94,10.43,3.94,6.4-3.94,10.43-3.94,6.21,3.94,10.43,3.94,6.4-3.94,10.43-3.94,6.21,3.94,10.43,3.94,6.4-3.94,10.43-3.94,6.21,3.94,10.43,3.94,6.4-3.94,10.43-3.94,6.2,3.94,10.43,3.94,6.4-3.94,10.43-3.94,6.21,3.94,10.43,3.94,6.4-3.94,10.43-3.94,6.21,3.94,10.43,3.94m-834.37-10.06c4.23,0,6.4-3.94,10.43-3.94s6.21,3.94,10.43,3.94,6.4-3.94,10.43-3.94,6.21,3.94,10.43,3.94,6.4-3.94,10.43-3.94,6.2,3.94,10.43,3.94,6.4-3.94,10.43-3.94,6.21,3.94,10.43,3.94,6.4-3.94,10.43-3.94,6.21,3.94,10.43,3.94,6.4-3.94,10.43-3.94,6.21,3.94,10.43,3.94,6.4-3.94,10.43-3.94,6.21,3.94,10.43,3.94,6.4-3.94,10.43-3.94,6.21,3.94,10.43,3.94,6.4-3.94,10.43-3.94,6.21,3.94,10.43,3.94,6.4-3.94,10.43-3.94,6.2,3.94,10.43,3.94,6.4-3.94,10.43-3.94,6.21,3.94,10.43,3.94,6.4-3.94,10.43-3.94,6.21,3.94,10.43,3.94,6.4-3.94,10.43-3.94,6.21,3.94,10.43,3.94,6.4-3.94,10.43-3.94,6.21,3.94,10.43,3.94,6.4-3.94,10.43-3.94,6.21,3.94,10.43,3.94,6.4-3.94,10.43-3.94,6.21,3.94,10.43,3.94,6.4-3.94,10.43-3.94,6.2,3.94,10.43,3.94,6.4-3.94,10.43-3.94,6.21,3.94,10.43,3.94,6.4-3.94,10.43-3.94,6.21,3.94,10.43,3.94,6.4-3.94,10.43-3.94,6.21,3.94,10.43,3.94,6.4-3.94,10.43-3.94,6.21,3.94,10.43,3.94,6.4-3.94,10.43-3.94,6.21,3.94,10.43,3.94,6.4-3.94,10.43-3.94,6.21,3.94,10.43,3.94,6.4-3.94,10.43-3.94,6.2,3.94,10.43,3.94,6.4-3.94,10.43-3.94,6.21,3.94,10.43,3.94,6.4-3.94,10.43-3.94,6.2,3.94,10.43,3.94,6.4-3.94,10.43-3.94,6.21,3.94,10.43,3.94,6.4-3.94,10.43-3.94,6.21,3.94,10.43,3.94,6.4-3.94,10.43-3.94,6.21,3.94,10.43,3.94,6.4-3.94,10.43-3.94,6.21,3.94,10.43,3.94,6.4-3.94,10.43-3.94,6.2,3.94,10.43,3.94,6.4-3.94,10.43-3.94,6.21,3.94,10.43,3.94,6.4-3.94,10.43-3.94,6.21,3.94,10.43,3.94,6.4-3.94,10.43-3.94,6.21,3.94,10.43,3.94,6.4-3.94,10.43-3.94,6.21,3.94,10.43,3.94,6.4-3.94,10.43-3.94,6.21,3.94,10.43,3.94,6.4-3.94,10.43-3.94,6.21,3.94,10.43,3.94,6.4-3.94,10.43-3.94,6.2,3.94,10.43,3.94,6.4-3.94,10.43-3.94,6.21,3.94,10.43,3.94,6.4-3.94,10.43-3.94,6.21,3.94,10.43,3.94m-834.37-10.06c4.23,0,6.4-3.94,10.43-3.94s6.21,3.94,10.43,3.94,6.4-3.94,10.43-3.94,6.21,3.94,10.43,3.94,6.4-3.94,10.43-3.94,6.2,3.94,10.43,3.94,6.4-3.94,10.43-3.94,6.21,3.94,10.43,3.94,6.4-3.94,10.43-3.94,6.21,3.94,10.43,3.94,6.4-3.94,10.43-3.94,6.21,3.94,10.43,3.94,6.4-3.94,10.43-3.94,6.21,3.94,10.43,3.94,6.4-3.94,10.43-3.94,6.21,3.94,10.43,3.94,6.4-3.94,10.43-3.94,6.21,3.94,10.43,3.94,6.4-3.94,10.43-3.94,6.2,3.94,10.43,3.94,6.4-3.94,10.43-3.94,6.21,3.94,10.43,3.94,6.4-3.94,10.43-3.94,6.21,3.94,10.43,3.94,6.4-3.94,10.43-3.94,6.21,3.94,10.43,3.94,6.4-3.94,10.43-3.94,6.21,3.94,10.43,3.94,6.4-3.94,10.43-3.94,6.21,3.94,10.43,3.94,6.4-3.94,10.43-3.94,6.21,3.94,10.43,3.94,6.4-3.94,10.43-3.94,6.2,3.94,10.43,3.94,6.4-3.94,10.43-3.94,6.21,3.94,10.43,3.94,6.4-3.94,10.43-3.94,6.21,3.94,10.43,3.94,6.4-3.94,10.43-3.94,6.21,3.94,10.43,3.94,6.4-3.94,10.43-3.94,6.21,3.94,10.43,3.94,6.4-3.94,10.43-3.94,6.21,3.94,10.43,3.94,6.4-3.94,10.43-3.94,6.21,3.94,10.43,3.94,6.4-3.94,10.43-3.94,6.2,3.94,10.43,3.94,6.4-3.94,10.43-3.94,6.21,3.94,10.43,3.94,6.4-3.94,10.43-3.94,6.2,3.94,10.43,3.94,6.4-3.94,10.43-3.94,6.21,3.94,10.43,3.94,6.4-3.94,10.43-3.94,6.21,3.94,10.43,3.94,6.4-3.94,10.43-3.94,6.21,3.94,10.43,3.94,6.4-3.94,10.43-3.94,6.21,3.94,10.43,3.94,6.4-3.94,10.43-3.94,6.2,3.94,10.43,3.94,6.4-3.94,10.43-3.94,6.21,3.94,10.43,3.94,6.4-3.94,10.43-3.94,6.21,3.94,10.43,3.94,6.4-3.94,10.43-3.94,6.21,3.94,10.43,3.94,6.4-3.94,10.43-3.94,6.21,3.94,10.43,3.94,6.4-3.94,10.43-3.94,6.21,3.94,10.43,3.94,6.4-3.94,10.43-3.94,6.21,3.94,10.43,3.94,6.4-3.94,10.43-3.94,6.2,3.94,10.43,3.94,6.4-3.94,10.43-3.94,6.21,3.94,10.43,3.94,6.4-3.94,10.43-3.94,6.21,3.94,10.43,3.94"/></g><path class="cls-3" d="m189.6,358.35c4.15-8.2,2.71-18.54,2.71-18.54-.83,5.23-5.99,13.3-8.05,16.93-2.05,3.63-1.17,10.74-1.17,10.74,0,0,2.36-.93,6.51-9.13Z"/><path class="cls-3" d="m164.36,356.45s3.39,2.68,7.15,4.12c3.76,1.44,6.55,5.28,6.55,5.28-12.17-1.48-13.71-9.4-13.71-9.4Z"/><path class="cls-3" d="m190.17,378.21c2.02-2.01,2.68-9.66,2.68-9.66,0,0-3.15,4.55-5.28,6.8-2.13,2.25-3.31,10.83-3.31,10.83.83-2.77,3.89-5.97,5.91-7.98Z"/><path class="cls-3" d="m170.24,385.37c-4.4-2.45-10.82-11.19-10.82-11.19,0,0,8.68,3.75,13.33,5.89s8.28,11.06,8.28,11.06c0,0-6.39-3.31-10.79-5.76Z"/><g><path class="cls-25" d="m255.58,394.31c1.19.99,2.86,1.11,4.39,1,5.14-.36,10.36-2.51,14.75-4.48-1.09.67-2.12,1.44-3.06,2.31-3.41,2.88-7.09,5.5-9.95,8.93-1.57,1.97-2.98,4.05-4.21,6.24-.74,1.26-1.47,2.54-2.09,3.86-.04.14-.12.28-.18.41-.25.56-1.56,2.27.23,3.35s5.15.4,6.08-.33c1.9-1.51,3.72-5.12,5.15-7.08,1.14-1.57,2.72-2.72,4.25-3.91-.88,2.18-1.54,4.45-1.97,6.77-.45,2.08-.91,4.17-1.36,6.25-.19.56-.19,1.17,0,1.73.38.63,1.03,1.05,1.77,1.12.94.22,1.92.11,2.78-.33,1.13-.63,2.45-2.51,2.91-3.73,1.38-3.71,1.42-7.15,3.75-10.35l.32-.21c2.4,1.09,4.9,2,7.37,2.95l-5.03-1.55-3.2,11.29c-.2.43-.23.93-.1,1.38.22.4.64.65,1.1.66.45,0,.89-.12,1.29-.33,2.04-1.05,4.55-3.23,5.63-5.25,1.05-1.97,1.7-3.67,2.33-5.8,3.31,1.2,5.76,3.04,8.57,5.16,3.51,2.81,6.05,6.62,8.87,10.13,2.83,4.03,12.21,11.34,24.77,13.64,1.89-2.31,2.06-5.28,4.93-12.63.48-2.22,4.02-11.13,4.02-11.13-1.08-.24-2.19-.12-3.19-.58-.97-.51-1.89-1.12-2.75-1.81-8.79-6.69-17.21-13.88-25.2-21.52,0,0-3.96-4.64-10.85-5.46-4.81-1.04-9.56-2.35-14.22-3.94-1.7-.58-3.47-1.21-5.25-.98-1.07.19-2.12.54-3.09,1.03l-18.79,8.35c-.47.18-.91.44-1.29.77-1.1,1.08-.67,3.09.53,4.05Zm21.42-3.8l-.59-.12c.3-.06.6-.13.9-.18l-.32.31Z"/><path class="cls-13" d="m281.47,407.27c-.72,2.14-1.42,4.27-2.12,6.41-.35,1.05-.7,2.1-1.04,3.15-.26.78-.77,1.75-.47,2.59.7,1.9,3.12.92,4.29.18,1.49-.97,2.73-2.27,3.63-3.8,1.17-2.08,2.09-4.29,2.75-6.58"/><path class="cls-13" d="m292.56,395.08c-.85-.16-1.74-.08-2.58.22-1.07.25-2.14.51-3.21.78-2.02.52-4.05,1.05-6.06,1.62-1.91.49-3.78,1.16-5.6,2.01-1.5.73-2.71,2.06-3.4,3.7-1.93,4.04-2.62,8.68-3.59,13.05-.18.81-.47,1.73-.17,2.51.31.67.87,1.14,1.54,1.3,1.46.53,3.12.04,4.23-1.25,1.31-1.66,1.81-4.17,2.43-6.17.65-2.4,1.64-4.7,2.92-6.8"/><path class="cls-13" d="m272.91,391.87c-1.35,1.23-4.03,3.43-5.39,4.66-2.75,2.38-5.84,5.15-7.84,8.28-1.05,1.67-2,3.37-2.91,5.13-.56,1.03-1.06,2.09-1.5,3.18-1,2.77,2.32,3.47,4.14,3.27,1.07-.06,2.12-.46,3.01-1.14.99-.99,1.85-2.13,2.53-3.38.76-1.24,1.44-2.54,2.28-3.72,1.06-1.31,2.26-2.49,3.57-3.49,2.73-2.31,4.99-5.24,7.38-7.96.36-.38.7-.77,1.03-1.18-.09.13-.28.14-.1.12.12-.04.23-.1.34-.17l1.07-.53,4.44-2.2"/><path class="cls-13" d="m307.63,389.96c-1.95-2.43-4.86-3.54-7.78-4.29-3.58-.92-7.2-1.62-10.77-2.63-1.89-.54-3.76-1.13-5.63-1.75-1.61-.54-3.26-1.15-4.99-1.12-1.73.04-3.17.76-4.66,1.4l-5.37,2.31-10.74,4.62c-1.24.53-2.87.98-3.19,2.46-.22,1.17.2,2.37,1.1,3.17,2.32,2.08,6.24,1.32,8.96.62,3.05-.79,5.92-2.08,8.9-3.07,1.75-.57,3.95-1.36,5.83-1.11,1.02.21,2.01.52,2.97.92l3.16,1.08c1.74.6,3.49,1.15,5.22,1.77,1.73.62,3.48,1.38,4.71,2.75"/><path class="cls-13" d="m339.68,414.39c-1.56-.29-2.28-.5-3.8-.96-1.58-.6-3.04-1.46-4.33-2.56-5.33-4.07-10.51-8.33-15.54-12.77-2.86-2.51-6.13-6.02-8.88-8.66"/><path class="cls-10" d="m259.89,388.01c1.16-.08,3.22,1.01,1.73,2.15-1.12.78-2.42,1.26-3.78,1.39-.85.13-1.72-.07-2.43-.56-.1-.07-.18-.16-.23-.28-.03-.23.06-.46.25-.61,1.18-1.22,2.77-1.97,4.47-2.1Z"/><path class="cls-10" d="m257.23,408.83c.23-.22.51-.37.82-.45.31-.08.64,0,.89.2.25.3.37.69.33,1.07,0,1.42-.45,2.91-1.53,3.83-.33.3-.75.49-1.2.52-2.57.02-.22-4.41.69-5.17Z"/><path class="cls-10" d="m268.74,413.85c.15-.25.36-.46.6-.62.25-.16.56-.2.82-.09.29.18.49.47.55.81.35,1.2.34,2.58-.37,3.67-.21.35-.53.63-.91.79-2.23.78-1.29-3.64-.69-4.55Z"/><path class="cls-10" d="m278.64,415.11c.14-.18.33-.33.54-.44.21-.1.46-.1.66,0,.21.17.34.42.36.69.16.98.02,2.08-.65,2.88-.2.26-.48.45-.8.54-1.84.4-.67-3.02-.1-3.68Z"/></g><path class="cls-13" d="m174.17,450.97c-.68-9.5,12.66-41.52,9.66-72.01-1.21-12.27-7.25-29.8-7.25-29.8"/><path class="cls-15" d="m154.91,434.69s-1.7,3.52,1.02,6.32c2.3,2.3,4.73-2.61,4.73-2.61l5.49-15.39"/><path class="cls-15" d="m163.64,430.04s-2.58,6.09-2.98,8.36c-.48,2.32-1.71,6.42.87,6.96,2.66.49,4.17-1.66,4.17-1.66,0,0,4.32-6.62,4.93-7.49,2.32-2.97,4.96-10.46,4.96-10.46"/><path class="cls-15" d="m163.14,431.01s2.75,1.25,3.18,1.42"/><g><path class="cls-3" d="m251.81,421.13c2.71-8.93-.54-19.03-.54-19.03.09,5.38-3.66,14.36-5.08,18.36-1.42,3.99.71,10.95.71,10.95,0,0,2.19-1.35,4.91-10.28Z"/><path class="cls-3" d="m226.23,423.66s3.86,2.09,7.88,2.87c4.02.78,7.48,4.13,7.48,4.13-12.43.66-15.36-7-15.36-7Z"/><path class="cls-3" d="m255.86,440.9c1.67-2.36.99-10.13.99-10.13,0,0-2.36,5.11-4.09,7.73-1.74,2.63-1.41,11.42-1.41,11.42.35-2.91,2.85-6.66,4.51-9.02Z"/><path class="cls-3" d="m237.18,451.56c-4.83-1.68-12.79-9.29-12.79-9.29,0,0,9.34,2.23,14.37,3.55,5.03,1.32,10.23,9.61,10.23,9.61,0,0-6.97-2.19-11.81-3.87Z"/><path class="cls-3" d="m225.88,465.04c-9.12-2.97-11.25-11.75-11.25-11.75,3.18,3.7,10.2,4.97,12.53,6.12,2.33,1.15,5.23,6.22,5.23,6.22,0,0-.98,1.21-6.51-.59Z"/><path class="cls-3" d="m238.67,458.62s3.69,2.97,4.91,7.14c1.22,4.17,2.87,9.59,2.87,9.59-7.02-10-7.78-16.73-7.78-16.73Z"/><path class="cls-11" d="m231.8,416.39s-5.22,4.18-11.24,4.68c-3.43.28-8.39-2.41-9.63-3.98s-2.62-2.84-2.06-4.78c.55-1.93.99-6.56,3-7.5,2.01-.94,14.14,2.45,14.14,2.45"/><path class="cls-11" d="m239.43,410.91c3.55-1.91,4.18-6.57,5.37-9.5,1.2-2.92,2.98-5.41,3.3-7.31.32-1.9-.41-7.08-1.73-7.51-1.32-.43-2.13,1.97-3.56,3.15-1.44,1.18-5.26,11.68-5.26,11.68"/><path class="cls-11" d="m228.02,409.08c-10.24-2.34-15.17-6.44-14.35-8.89.6-1.74,1.21-5.98,3.79-6.21,4.04-.35,4.16-1.39,6.17-.74,2.9.94,7.35,10.37,7.35,10.37"/><path class="cls-13" d="m231.02,416.34s-1.79,1.48-5.52,1.16c-3.4-.3-4.73.01-7.97,1.03-3.48,1.09-6.3-1.1-6.3-1.1"/><path class="cls-11" d="m238.09,403.19s1.87-5.79,2.45-9.53c.42-2.69.99-8.05-1.38-9.72-2.37-1.67-7.58-.44-8.76.74-1.18,1.19-2.17,4.03-3.11,6.93-1.12,3.46,3.69,12,3.69,12"/><path class="cls-13" d="m238.79,412.37c5.31-2.24,6.48-6.19,7.56-9.41,1.08-3.22,1.76-8.86,1.76-8.86"/><path class="cls-13" d="m252.63,516.51c-2.34-9.38,5.38-43.77-2.98-73.74-3.36-12.06-12.48-28.54-12.48-28.54"/><path class="cls-13" d="m250.2,417.34c-4.88,12.64-2.93,18.35-2.93,18.35"/><path class="cls-13" d="m241.59,430.66c4.94,2.89,6.2,6.43,6.2,6.43"/><path class="cls-13" d="m235.51,447.33c12.75,4.98,17.32,12.4,17.32,12.4"/><path class="cls-13" d="m222.06,459.73c3.58,2.89,6.82,3.55,17.83,10.2,11.01,6.65,13.46,18.01,13.46,18.01"/><path class="cls-14" d="m226,407.26c.1-.58-.1-1.18-.18-1.77-.08-.6.02-1.29.52-1.62.33-.21.74-.21,1.1-.36,1-.41,1.54-1.87,2.61-1.73.52.07.91.53,1.43.66.71.19,1.39-.29,2-.69s1.41-.76,2.03-.37c.79.5.63,1.81,1.39,2.36.08.05.16.1.24.14.04.02.08.05.11.09s.05.08.06.12c0,.04.01.09,0,.14,0,.04-.02.09-.05.13-.93,1.37-4.06,3.64-6.94,5.09-3.71,1.87-6.77,2.29-6.42,1.85.41-.51,2.07-3.86,2.09-4.03Z"/><path class="cls-11" d="m228.83,409.36c-1.91,1.71-4.91,1.58-6.23,2.47-.88.59,1.83,2.61,6.57,4.12,4.67,1.48,9.72-1.82,10.35-5.48.54-3.16,1.99-5.65,1.53-6.49-.93-1.69-3.17-1.06-4.22.06-1.05,1.12-3.09,2.93-3.09,2.93l-4.9,2.39Z"/></g><g><path class="cls-13" d="m357.01,582.39c-4.74-.17-7.83,1.3-21.05,2.64-13.22,1.34-22.29-6.52-22.29-6.52"/><path class="cls-3" d="m350.57,580.38c9.37-3.21,16.58,2.73,16.58,2.73-4.92-1.08-11.5,2.22-14.14,2.72-2.63.5-8.18-1.89-8.18-1.89,0,0,.06-1.61,5.74-3.55Z"/><path class="cls-3" d="m343.99,593.61s-4.89-.16-8.49-2.85c-3.59-2.69-8.32-6.13-8.32-6.13,12,3.9,16.8,8.98,16.8,8.98Z"/></g><g><path class="cls-13" d="m147.84,566.67s7.65-3.8,20.68-1.46"/><path class="cls-3" d="m184.93,571.46s-5.52-2.97-8.52-5.16-7.89-1.08-7.89-1.08c0,0,3.31,6.44,16.41,6.24Z"/><path class="cls-3" d="m157.49,564.55s9.17-6.89,14.68-7.29c0,0-4.05,4.04-6.75,4.82-2.71.79-7.93,2.47-7.93,2.47Z"/></g><path class="cls-13" d="m288.81,566.5c-1.25-4.47-3.33-8.69-5.76-12.79-3.09-5.19-6.76-10.2-10.08-15.31-10.55-16.11-14.21-36.88-4.74-55.4,0,0-4.94,1.2-11.47,1.48-6.53.28-11.39-.49-11.39-.49,7.77,17.78,2.54,38.78-9.42,56.01-6.75,9.7-14.76,19.17-18.27,29.57-2.05,5.7-3.25,12.64.16,17.68,6.48,9.69,22.25,13.65,36.26,12.34,4.52-.43,8.94-1.41,13.13-2.85,5.74-1.98,11.05-4.83,15.6-8.36,3.37-2.67,5.34-5.88,6.29-9.27,1.17-4.15.83-8.56-.3-12.61Z"/><path class="cls-3" d="m171,350.35s-5.78,3.17-11.7,2.62c-3.38-.31-7.72-3.77-8.66-5.5-.94-1.73-2.05-3.2-1.19-4.98.86-1.78,2.07-6.19,4.19-6.76s13.29,4.78,13.29,4.78"/><path class="cls-3" d="m179.33,346.33c3.76-1.25,5.17-5.66,6.83-8.3,1.66-2.63,3.81-4.73,4.44-6.52.64-1.79.81-6.94-.4-7.57s-2.4,1.55-3.99,2.44c-1.59.9-7.09,10.43-7.09,10.43"/><path class="cls-3" d="m168.59,342.61c-9.53-4.01-13.61-8.83-12.4-11.06.87-1.59,2.19-5.59,4.73-5.37,3.98.35,4.27-.64,6.11.33,2.65,1.41,5.36,11.3,5.36,11.3"/><path class="cls-3" d="m170.26,350.16s-1.98,1.14-5.55.18c-3.25-.87-4.59-.79-7.9-.35-3.56.47-5.92-2.14-5.92-2.14"/><path class="cls-3" d="m179.34,338.62s2.8-5.3,4-8.82c.87-2.53,2.33-7.64.32-9.66-2.01-2.02-7.27-1.71-8.62-.77-1.35.95-2.79,3.53-4.19,6.19-1.67,3.17,1.54,12.26,1.54,12.26"/><path class="cls-13" d="m178.46,347.64c5.53-1.27,7.33-4.9,8.93-7.84,1.59-2.94,3.22-8.29,3.22-8.29"/><path class="cls-13" d="m188.68,354.39c-6.88,11.42-5.96,17.29-5.96,17.29"/><path class="cls-13" d="m178.07,365.85c4.3,3.64,4.92,7.29,4.92,7.29"/><path class="cls-13" d="m169.33,380.98c11.52,7,14.69,14.97,14.69,14.97"/><path class="cls-14" d="m166.94,340.51c.2-.55.1-1.16.13-1.75.03-.59.24-1.25.78-1.48.35-.15.76-.08,1.13-.16,1.04-.23,1.81-1.55,2.83-1.24.5.15.8.67,1.27.88.65.3,1.4-.04,2.06-.33s1.5-.5,2.03-.02c.68.62.3,1.87.95,2.52.07.06.14.12.21.17.04.03.07.06.09.1s.04.08.04.13c0,.04,0,.09-.02.13-.01.04-.04.08-.07.12-1.14,1.17-4.55,2.84-7.6,3.76-3.91,1.19-6.95,1.07-6.54.7.48-.43,2.67-3.39,2.72-3.55Z"/><path class="cls-3" d="m169.32,343.03c-2.14,1.34-5.03.7-6.46,1.33-.96.42,1.33,2.84,5.67,5.11,4.27,2.23,9.73-.11,10.97-3.55,1.06-2.98,2.89-5.14,2.58-6.03-.62-1.8-2.89-1.57-4.1-.66-1.21.9-3.5,2.32-3.5,2.32l-5.16,1.48Z"/><g><path class="cls-3" d="m276.45,392.69s3.1-6.58,2.27-10.74c-.83-4.16-3.26-13.59-2.4-18.89,0,0-4.67,9.53-3.26,18.76,1.41,9.23,3.38,10.88,3.38,10.88Z"/><path class="cls-3" d="m281.81,392.71s3.91-2.82,8-3.02c4.09-.2,8.21-1.71,8.21-1.71,0,0-4,7.16-16.21,4.73Z"/><path class="cls-3" d="m269.39,410.36s1.58-8.66.24-11.5c-1.34-2.85-2.94-8.24-2.94-8.24,0,0-1.79,7.59-.47,10.17,1.31,2.57,3.25,6.64,3.18,9.57Z"/><path class="cls-3" d="m270.94,416.16s6.33-7.46,11.5-8.05c5.17-.59,14.73-1.45,14.73-1.45,0,0-8.97,6.39-13.99,7.36-5.03.97-12.24,2.14-12.24,2.14Z"/><path class="cls-6" d="m300.59,371.78s12.48-1.62,14.34-.4c1.86,1.22,1.62,5.86,1.89,7.86.27,1.99-1.27,3.06-2.73,4.43-1.45,1.37-6.74,3.33-10.1,2.56-5.88-1.36-10.45-6.24-10.45-6.24"/><path class="cls-6" d="m290,364.35s-2.28-10.95-3.53-12.32c-1.25-1.37-1.71-3.86-3.07-3.62s-2.83,5.26-2.79,7.18c.04,1.93,1.45,4.64,2.22,7.7.77,3.07.72,7.77,3.96,10.17"/><path class="cls-6" d="m296.18,367.45s5.75-8.69,8.76-9.21c2.08-.36,2.05.69,6,1.62,2.52.59,2.52,4.87,2.86,6.68.46,2.54-5,5.9-15.47,6.74"/><path class="cls-13" d="m313.75,383.96s-3.1,1.77-6.39.19c-3.06-1.47-4.33-1.98-7.74-2.17-3.75-.21-5.3-1.94-5.3-1.94"/><path class="cls-6" d="m296.18,367.45s5.98-7.76,5.38-11.34c-.51-3.01-1.08-5.96-2.08-7.31-1-1.34-5.98-3.31-8.56-1.99-2.58,1.32-2.79,6.7-2.76,9.42.04,3.79,1.06,9.78,1.06,9.78"/><path class="cls-13" d="m280.6,355.59s-.13,5.68.47,9.02c.61,3.34,1.2,7.41,6.13,10.39"/><path class="cls-13" d="m288.54,377.07s-11.39,15-16.45,26.46c-12.57,28.47-9.86,63.6-13.52,72.55"/><path class="cls-13" d="m275.47,396.87s2.74-5.38-.27-18.58"/><path class="cls-13" d="m274.74,398.18s1.76-3.32,7.06-5.47"/><path class="cls-13" d="m266.52,419.86s5.59-6.68,18.92-9.79"/><path class="cls-14" d="m302.08,376.07c.28.49-2.69-.37-6.09-2.75-2.64-1.86-5.41-4.54-6.14-6.04-.02-.04-.03-.09-.03-.13,0-.05,0-.09.02-.13.02-.04.05-.08.08-.11s.08-.06.12-.07c.09-.03.17-.06.25-.1.83-.43.86-1.75,1.72-2.13.67-.29,1.41.18,1.95.66s1.15,1.05,1.88.97c.53-.06.98-.46,1.51-.45,1.08.01,1.4,1.53,2.33,2.09.34.2.75.26,1.04.51.45.4.44,1.1.28,1.67-.16.58-.45,1.14-.43,1.73,0,.17,1.17,3.72,1.49,4.29Z"/><path class="cls-6" d="m292.98,370.39s-1.76-2.09-2.64-3.34c-.88-1.26-3-2.21-4.17-.66-.58.77.5,3.43.58,6.64.1,3.71,4.63,7.7,9.46,6.91,4.91-.81,7.88-2.43,7.09-3.14-1.18-1.07-4.17-1.37-5.82-3.33l-4.51-3.07Z"/></g><path class="cls-13" d="m289.05,569.9c-1.72-2.62-3.5-5.23-5.4-7.85-2.46,3.43-1.95,7.77-3.93,11.2-5.94-9.66-12.86-18.44-18.8-28.08-3.93,6.43-4.41,13.8-8.35,20.23-3.96-5.28-7.91-10.11-12.36-14.96-5.14,5.74-16.27,11.6-21.76,17.01"/><path class="cls-15" d="m115.43,418.23c.72-4.27,5.46-10.13,6.3-10.28,1.97-.35,11.35-3.71,17.72-6.41,6.37-2.69,16.24-8.34,19.97-7.43s17.79,4.33,21.63,5.23c3.84.9,3.15,2.7,4.49,3.89,1.29,1.11,5.04,7.33,5.04,7.33l5.26,13.57,1.8,7.3s-6.91,7.11-11-5.87"/><path class="cls-15" d="m154.49,417.5c.24,1,1.56,1.11,4.77,1.25,3.19.21,7.97-2.86,12.59-3.26,4.62-.4,10.37.14,13.36,1.24,2.92,1.09,3.59,4.29,2.56,7.22-1.03,2.93-4.45,2.54-7.43,2.85s-8.92,1.15-13.01,2.49c-4.1,1.34-9.39,3.74-12,5.09-2.61,1.35-6.65,3.58-12.25,4.42-12.14-1.23-19.9-5.61-22.28-5.83-.93-.09-9.02-.54-5.36-14.75"/><path class="cls-15" d="m164.8,416.74c.23-.69,2.27-2.78,3.8-4.38,1.52-1.6,1.54-3.69,1.54-3.69"/><path class="cls-15" d="m170.07,408.66s.4,1.45,3.94,1.33c3.48-.13,4.18.91,4.4.56"/><path class="cls-15" d="m179.27,408.31s-1.3,1.52-.46,4.28c.92,2.71,2.04,1.96,2.04,1.96"/><path class="cls-15" d="m167.98,414.11l3.89.71c3.89.71,7.5.27,7.5.27"/><path class="cls-4" d="m179.47,417.55l.22,7.14s.05.35,1.91.51,3.13-.68,3.13-.68c0,0,1.35-.29,1.3-2.94s-2.4-3.6-2.4-3.6l-4.15-.43Z"/><path class="cls-15" d="m172.14,425.76s-1.94-4.1-.76-7.14"/><path class="cls-4" d="m193.7,425.62c-.1-.95-.06-2.01.47-2.27.46-.18,1.04.15,1.44.83.39.67.68,1.44.84,2.22.36,1.49,1.33,5.41-.19,5.1s-2.37-4.17-2.56-5.88Z"/><path class="cls-13" d="m180.85,414.56c2.35-11.8,4.28-22.44,2.98-35.6"/><path class="cls-13" d="m174.17,450.97c-.29-4.1,2.02-12.38,4.51-22.93"/><g><path class="cls-25" d="m331.36,438.14c-12.87-3.68-15.95-3.68-26.33-13.44-2.81-3.51-4.73-6.88-8.24-9.69-5.68-4.56-13.09-6.72-19.56-10.01-1.53-.68-3.55-1.9-4.63-3.18-1.18-1.42-2.09-4.72.07-5.5,1.15-2.33,4.28-1.64,6.81-1.01,4.16,1.04,7.77,3.69,11.9,4.84,4.14,1.15,8.31.77,12.49.98,1.8.09,3.91.48,4.73,2.07"/><path class="cls-13" d="m308.1,402.99c-.94-1.63-2.73-2.17-4.51-2.34-2.39-.24-4.82-.1-7.23-.21-2.43-.06-4.84-.51-7.13-1.35-2.25-.87-4.37-2.08-6.6-3.01-2.93-1.23-7.45-2.55-9.96.24-1.12,1.39-1.29,3.33-.42,4.89.95,1.9,2.81,3.07,4.64,4,4.07,2.07,8.47,3.36,12.63,5.23,2.15.92,4.18,2.1,6.05,3.51,1.7,1.39,3.24,2.97,4.6,4.7,2.65,3.23,4.96,6.67,8.17,9.37,2.99,2.5,6.35,4.53,9.96,6,8.27,3.45,12.18,3.79,12.18,3.79"/><path class="cls-10" d="m273.76,396.76c1.49-1.97,4.65-.41,6.46.49.38.18.75.4,1.09.66,1.62,1.29,1.82,3.82.03,5.08-.92.58-2.03.8-3.11.61-2.62-.39-6.17-2.42-5.12-5.59.15-.45.37-.87.66-1.24Z"/></g><path class="cls-13" d="m381.23,462.85c-.63-.73-1.46-1.26-2.39-1.51l-48.09-18.03c-.52-.19-1.1-.44-1.3-.96-.12-.48-.06-.98.18-1.42l10.39-26.63c.19-1.11,1.19-1.9,2.32-1.83,10.27-1.06,20.64-.48,30.73,1.72,3.39.74,6.88,1.65,10.27,1.15"/><path class="cls-13" d="m367.15,414.44c.33.16.66.32.98.51,2.49,1.47,4.06,3.94,4.85,6.68.89,3.1.91,6.4.64,9.58-.33,3.41-.94,6.78-1.83,10.08-.74,2.83-1.62,5.63-2.62,8.38-.53,1.45-1.07,2.9-1.71,4.31h0c-.09.16-.03.35.12.44s.35.03.44-.12c1.35-1.9,2.69-3.8,4-5.72,4.61-6.76,8.87-13.89,11.1-21.82h0"/><path class="cls-13" d="m390.4,428.53l-3.14,5.26-5.58,9.29-2.81,4.67"/><path class="cls-13" d="m37.93,433.63c3.81,3.26,8.57,5.21,13.37,6.66,7.8,2.35,16.86,3.95,24.99,3.83,7.42-.12,14.86-1.77,22-3.58,2.62-.66,5.5-1.59,6.82-3.95.24-.55.56-1.07.96-1.52.71-.63,1.76-.63,2.7-.62,1.67-.02,3.33-.15,4.98-.39.2-.03,4.68-1.01,4.15-1.37-2.78-1.88-3.41-5.69-3.28-9.04.04-1.84.31-3.67.8-5.44.94-3.19,2.82-6.02,4.67-8.79.42-.63.9-1.3,1.63-1.49.47-.12,1.08-.09,1.26-.54s-.37-.88-.84-1.07c-3.1-1.23-6.48-.01-9.49-1.21-1.48-.59-2.11-2.45-4.36-2.95l-14.85-3.4c-2.07-.47-3.88-.84-5.69-1.88-1.65-.94-3.11-2.11-4.91-2.8-.72-.28-4.08-.87-4.31-1.76-.42-1.58,2.88-1.36,2.99-2.96.1-1.48-6.29-4.08-6.72-3.38.47-.77,1.58-.68,2.48-.77"/><path class="cls-13" d="m111.77,405.16c-13.17,1-10.85,26.74-5.7,29.91"/><path class="cls-13" d="m88.62,414.36c-3.43-1.31-20.67-6.72-21.95-1.27-.73,3.1,3.8,6.74,3.49,10.64-6.56,1.63-7.31-12.3-14.9-10.46,1.01,4.8,7.65,6.15,7.16,12.16-4.1-2.69-6.93-9.4-12.96-7.58,1.77,2.29,4.59,4.83,4.54,8.04.02.3-9.64-9.85-10.87-11.8-3.26-5.12-5.35-10.54-12.49-7.24-1.53.68-1,3.56-3.75,3.79-2.45.21-2.97-2.38-4.59-3.41"/><g><line class="cls-13" x1="110.46" y1="276.98" x2="110.46" y2="293.62"/><line class="cls-13" x1="102.13" y1="285.3" x2="118.78" y2="285.3"/></g><path class="cls-13" d="m112.18,542.8c-.03,4.25-3.56,7.82-7.71,7.82-4.19,0-7.75-3.69-7.7-7.99.04-4.16,3.56-7.63,7.72-7.62,4.24,0,7.73,3.55,7.69,7.8"/><path class="cls-2" d="m345.35,513.73h10.05c.35,0,.63.28.63.63v10.05c0,.35-.28.63-.63.63h-10.05c-.35,0-.63-.28-.63-.63v-10.05c0-.35.28-.63.63-.63"/><path class="cls-5" d="m53.61,315.18c3.49,0,6.32,2.83,6.32,6.32s-2.83,6.32-6.32,6.32-6.32-2.83-6.32-6.32,2.83-6.32,6.32-6.32"/><path class="cls-13" d="m330.84,320.86c0,3.98-3.24,7.22-7.22,7.22s-7.22-3.23-7.22-7.22,3.24-7.22,7.22-7.22c3.99.04,7.22,3.27,7.22,7.22Z"/><path class="cls-13" d="m312.33,497.96c2.16-2.16,2.16-5.65,0-7.81-2.16-2.16-5.66-2.16-7.82,0-2.16,2.16-2.16,5.65,0,7.81,2.16,2.16,5.66,2.16,7.82,0Z"/><path class="cls-13" d="m123.55,349.06c1.56-6.4-2.37-12.86-8.78-14.41-6.41-1.56-12.87,2.37-14.43,8.78-1.56,6.4,2.37,12.86,8.78,14.41,6.41,1.56,12.87-2.37,14.43-8.78Z"/></g><g><g class="cls-19"><g class="cls-7"><path class="cls-1" d="m43.29,186.91c85.58,85.58,224,85.9,309.18.72,85.18-85.18,84.86-223.6-.72-309.18-85.58-85.58-224-85.9-309.18-.72-85.18,85.18-84.86,223.6.72,309.18"/></g></g><g class="cls-21"><g class="cls-24"><g class="cls-20"><path class="cls-22" d="m344.7,171.17c-15.83,15.83-15.77,41.55.13,57.45,15.9,15.9,41.63,15.96,57.45.13,15.83-15.83,15.77-41.55-.13-57.45-15.9-15.9-41.63-15.96-57.45-.13"/></g></g></g><g class="cls-12"><g class="cls-9"><g class="cls-18"><path class="cls-13" d="m298.85,249.99c20.31,20.31,53.17,20.39,73.39.17,20.22-20.22,20.14-53.08-.17-73.39-20.31-20.31-53.17-20.39-73.39-.17-20.22,20.22-20.14,53.08.17,73.39Z"/></g></g></g></g></svg>