<svg width="378" height="338" viewBox="0 0 378 338" fill="none" xmlns="http://www.w3.org/2000/svg">
<path d="M256.313 75.2791L256.434 74.9643L257.296 72.7218L256.313 75.2791ZM256.313 75.2791L256.559 75.5093M256.313 75.2791L256.559 75.5093M256.559 75.5093C259.011 77.7977 259.902 81.1363 258.926 84.2264L258.926 84.2264L258.923 84.2369L250.313 113.734H210.665L189.305 112.287L187.367 108.492C187.367 108.49 187.366 108.489 187.365 108.488C185.632 104.934 185.881 100.636 188.027 97.3344L188.667 96.3502L187.514 96.5708L178.54 98.2877M256.559 75.5093L178.54 98.2877M178.54 98.2877L182.023 90.6243L182.344 89.9174H181.568H173.442M178.54 98.2877L173.442 89.9174M173.442 89.9174L180.927 80.2829L181.104 80.0552L180.996 79.7881C178.651 74.0098 179.736 67.3855 183.68 62.5169C188.619 56.557 195.345 52.2157 202.921 50.2581L202.924 50.2573L207.147 49.1367C207.148 49.1365 207.149 49.1363 207.15 49.1361C211.849 47.9401 216.63 47.4286 221.408 47.6845L221.409 47.6846C231.483 48.1968 241.047 51.9533 248.819 58.2734L248.82 58.274L252.444 61.208L252.495 61.2495L252.555 61.2762C256.97 63.2383 259.014 68.2212 257.297 72.7207L173.442 89.9174Z" fill="#191919" stroke="#191919"/>
<path d="M375.293 284.401L339.137 203.545C330.594 185.338 317.65 162.471 292.021 158.674L204.09 157.034C204.09 157.034 200.897 157.034 196.583 157.034H173.802C147.137 157.034 124.356 176.191 119.783 202.424L110.032 258.168L88.6317 157.034L30.6436 168.08L54.1149 288.802C59.465 316.415 83.6268 336.348 111.758 336.348C124.098 336.348 136.092 332.465 146.102 325.303L154.472 319.263L156.802 336.952H277.179H326.538C326.538 336.952 390.739 338.247 375.293 284.401Z" fill="#99C941"/>
<path d="M196.583 157.121V331.344L240.678 336.953L240.419 285.178L263.632 285.696L258.195 158.07L196.583 157.121Z" fill="#191919"/>
<path d="M240.178 305.696V336.539H175.943C175.976 336.436 176.016 336.323 176.066 336.199C176.23 335.787 176.478 335.295 176.784 334.798C177.409 333.781 178.211 332.847 178.944 332.481L179.253 332.326L179.217 331.983L179.217 331.983L179.217 331.982L179.217 331.982L179.217 331.982L179.217 331.977L179.215 331.949C179.213 331.923 179.21 331.883 179.208 331.831C179.203 331.727 179.199 331.574 179.205 331.387C179.216 331.01 179.264 330.504 179.408 329.975C179.693 328.92 180.336 327.834 181.79 327.424L182.002 327.364L182.101 327.166C182.172 327.025 182.177 326.887 182.172 326.796C182.168 326.702 182.149 326.61 182.132 326.536C182.114 326.461 182.091 326.38 182.07 326.306L182.069 326.303L182.069 326.301C182.046 326.224 182.025 326.146 182.004 326.064C181.921 325.738 181.866 325.373 181.966 324.971C182.162 324.191 183.025 323.001 186.383 321.809L240.178 305.696Z" fill="white" stroke="#191919"/>
<path d="M339.568 292.771C339.482 292.771 339.482 292.771 339.395 292.771L317.65 286.127C317.305 286.041 317.218 285.695 317.305 285.523C317.391 285.178 317.736 285.091 317.909 285.178L339.654 291.822C339.999 291.908 340.086 292.254 339.999 292.426C339.999 292.599 339.74 292.771 339.568 292.771Z" fill="#191919"/>
<path d="M196.187 69.7887C200.593 76.0968 207.323 80.405 214.873 81.7626C214.873 81.7627 214.874 81.7628 214.874 81.7629L217.201 82.1939L217.792 82.3033V81.7022V76.4358C223.043 81.0196 229.362 84.3266 236.154 85.9838L237.575 86.3545C234.376 94.726 233.81 103.843 235.789 112.533L236.003 113.471L236.647 112.757L242.318 106.485C245.977 103.465 250.205 102.967 253.567 104.115C256.938 105.266 259.427 108.058 259.679 111.656C259.591 114.923 258.869 117.249 257.802 118.864C256.737 120.475 255.307 121.411 253.741 121.865C250.574 122.785 246.82 121.742 244.491 120.203L243.71 119.687L243.715 120.623L243.972 166.899L240.729 168.402C240.729 168.402 240.728 168.402 240.728 168.402C229.233 173.642 215.891 172.589 205.369 165.741L205.625 139.436L205.63 138.931H205.125C204.833 138.931 204.524 138.933 204.199 138.936C201.765 138.952 198.487 138.973 195.267 138.18C191.638 137.286 188.141 135.369 186.07 131.267L186.069 131.265C183.901 127.013 183.878 121.085 184.95 115.219C186.019 109.37 188.159 103.683 190.203 99.9787L190.257 99.8804L190.264 99.7684L191.041 87.3424L191.041 87.3424L191.041 87.3375C191.368 81.1314 193.182 75.1565 196.187 69.7887Z" fill="white" stroke="#191919"/>
<path d="M226.612 88.6044C226.525 88.6044 226.525 88.6044 226.525 88.6044C224.627 88.0867 221.693 88.0004 219.018 88.5181C218.673 88.6044 218.5 88.4319 218.414 88.0867C218.414 87.7415 218.5 87.5689 218.846 87.4826C221.779 86.9649 224.713 86.9649 226.871 87.5689C227.216 87.6552 227.302 88.0004 227.216 88.173C227.13 88.5182 226.957 88.6044 226.612 88.6044Z" fill="#191919"/>
<path d="M200.466 89.2089C200.38 89.2089 200.38 89.2089 200.38 89.2089C198.481 88.6912 195.547 88.6049 192.872 89.1226C192.527 89.1226 192.354 89.0363 192.268 88.6912C192.182 88.346 192.354 88.1734 192.7 88.0871C195.633 87.5694 198.567 87.5694 200.725 88.1734C201.07 88.2597 201.156 88.6049 201.07 88.7775C200.984 89.1226 200.638 89.2089 200.466 89.2089Z" fill="#191919"/>
<path d="M242.835 115.269C242.662 115.269 242.49 115.183 242.403 115.097C242.231 114.924 242.231 114.579 242.49 114.406L252.068 106.554C252.241 106.381 252.586 106.381 252.758 106.64C252.931 106.813 252.845 107.158 252.672 107.33L243.094 115.183C243.008 115.183 242.921 115.269 242.835 115.269Z" fill="#191919"/>
<path d="M254.399 114.32C254.312 114.32 254.226 114.32 254.054 114.234L249.221 109.747C249.049 109.574 249.049 109.229 249.221 109.056C249.394 108.884 249.739 108.884 249.912 109.056L254.744 113.543C254.916 113.716 254.916 114.061 254.744 114.234C254.571 114.32 254.485 114.32 254.399 114.32Z" fill="#191919"/>
<path d="M223.16 101.462C224.11 101.462 224.886 100.686 224.886 99.7366C224.886 98.7874 224.11 98.0107 223.16 98.0107C222.211 98.0107 221.435 98.7874 221.435 99.7366C221.435 100.599 222.297 101.462 223.16 101.462Z" fill="#191919"/>
<path d="M197.015 102.067C197.964 102.067 198.741 101.29 198.741 100.341C198.741 99.3919 197.964 98.6152 197.015 98.6152C196.066 98.6152 195.289 99.3919 195.289 100.341C195.289 101.204 196.066 102.067 197.015 102.067Z" fill="#191919"/>
<path d="M153.092 313.913C152.919 313.913 152.66 313.74 152.574 313.481L142.392 249.798C142.392 249.453 142.564 249.28 142.823 249.194C143.168 249.108 143.341 249.28 143.427 249.625L153.61 313.309C153.61 313.654 153.351 313.913 153.092 313.913Z" fill="#452393"/>
<path d="M184.847 303.904C184.588 303.904 184.416 303.731 184.329 303.472L163.102 195.262C163.102 195.176 163.102 195.004 163.188 194.917L181.741 161.695C181.913 161.436 182.172 161.35 182.431 161.522C182.69 161.695 182.776 161.954 182.603 162.213L164.137 195.349L185.365 303.386C185.451 303.645 185.279 303.904 184.933 303.99C184.933 303.904 184.933 303.904 184.847 303.904Z" fill="#191919"/>
<path d="M270.535 279.914H270.449C270.19 279.827 270.018 279.569 270.018 279.31L287.966 193.708L265.358 162.298C265.185 162.039 265.271 161.78 265.444 161.608C265.703 161.435 265.962 161.521 266.134 161.694L288.915 193.277C289.002 193.363 289.002 193.536 289.002 193.708L271.053 279.482C271.053 279.741 270.794 279.914 270.535 279.914Z" fill="#191919"/>
<path d="M297.458 248.591L296.767 249.454L317.046 285.179H240.419V335.832C240.419 336.177 240.592 336.35 240.937 336.35C241.282 336.35 241.454 336.004 241.541 335.832V286.214H318.858L297.458 248.591Z" fill="#191919"/>
<path d="M30.7 150.456L27.8536 137.604C27.8534 137.603 27.8532 137.602 27.853 137.601C26.7937 132.543 29.8775 130.186 31.471 129.731L31.9695 129.588L31.8091 129.095C30.6856 125.641 31.263 123.284 32.381 121.671C33.5178 120.031 35.2659 119.087 36.6004 118.586L36.8873 118.479L36.9217 118.174C37.1959 115.748 37.8286 114.094 38.6315 113.004C39.4269 111.924 40.4056 111.375 41.4376 111.177C43.5418 110.774 45.9586 111.823 47.4882 113.146L48.6655 114.165L48.3015 112.651C47.4841 109.252 46.2561 103.393 45.2311 98.3759C44.7189 95.869 44.258 93.5749 43.925 91.9076C43.7586 91.0739 43.6241 90.397 43.5313 89.9285L43.4245 89.3885L43.3967 89.248L43.3919 89.2235C43.1186 86.4646 43.405 84.7901 43.9273 83.8479C44.1831 83.3864 44.4918 83.1064 44.8206 82.9462C45.1526 82.7845 45.5397 82.7282 45.9745 82.7722C46.8591 82.8616 47.8771 83.3607 48.8048 84.0746C49.7281 84.7851 50.5008 85.6615 50.9131 86.4273L50.9129 86.4274L50.9199 86.4394L71.0657 121.479L76.8453 158.792L41.7617 165.438L36.5524 150.315L36.0278 148.792L35.5978 150.344C35.2251 151.69 34.7184 152.43 34.2307 152.798C33.7627 153.151 33.2631 153.199 32.7725 153.051C32.2642 152.898 31.7616 152.529 31.3728 152.045C30.9829 151.56 30.7448 151.007 30.7106 150.528L30.708 150.492L30.7 150.456Z" fill="white" stroke="#191919"/>
<path d="M24.7757 142.882L0.441404 100.772C-0.421513 99.2187 0.182528 97.4065 1.5632 96.6299L69.5611 57.3672C71.1143 56.5043 72.9265 57.1083 73.7031 58.489L98.0374 100.513C98.9003 102.066 98.2962 103.878 96.9156 104.655L29.004 144.004C27.4507 144.781 25.6386 144.349 24.7757 142.882Z" fill="#585858"/>
<path d="M0.441561 100.772L24.7759 142.796C25.6388 144.35 27.5372 144.695 28.9179 143.918L44.8818 134.685L17.4411 87.2246L1.47706 96.5441C0.0101019 97.4933 -0.421356 99.3054 0.441561 100.772Z" fill="#191919"/>
<path d="M18.3042 118.548C18.1317 118.375 18.0454 118.117 17.9591 117.771C17.8728 117.513 17.7865 117.167 17.7865 116.995C17.7002 116.736 17.7865 116.391 17.7002 116.132C17.7865 115.873 17.7865 115.614 17.8728 115.355C17.9591 115.096 17.9591 114.837 18.1317 114.579C18.2179 114.32 18.3905 114.147 18.5631 113.888C18.7357 113.716 18.9083 113.457 19.1672 113.284C19.3397 113.112 19.5986 112.939 19.7712 112.766C20.7204 112.162 21.9285 111.99 22.964 112.421C23.2229 112.508 23.4817 112.508 23.7406 112.68C23.9995 112.766 24.1721 112.939 24.431 113.112C24.6035 113.284 24.8624 113.457 25.035 113.716C25.3802 114.147 25.7253 114.665 25.8116 115.096C25.8979 115.355 25.9842 115.7 25.9842 115.873C25.9842 116.046 25.9842 116.477 26.0705 116.736C25.9842 116.995 25.9842 117.254 25.8979 117.513C25.639 118.548 24.8624 119.497 23.9132 120.015C23.7406 120.188 23.4817 120.274 23.1366 120.36C22.8777 120.446 22.5325 120.533 22.3599 120.533C22.1011 120.619 21.7559 120.533 21.497 120.619C21.2382 120.533 20.9793 120.533 20.7204 120.446C19.7712 120.188 18.9083 119.497 18.3042 118.548Z" fill="white"/>
<path d="M74 151.62C74 151.62 51.7247 154.74 51.6384 154.567C51.207 149.735 52.415 140.07 59.7498 137.223L51.5521 123.157C49.6537 119.36 49.4811 116.34 51.1207 114.873C52.6739 113.493 55.6078 114.01 59.0595 116.426L59.1458 116.513C61.2168 118.325 71.0541 126.436 71.0541 126.436" fill="white"/>
<path d="M50.577 153.582C50.4044 153.496 50.3181 153.324 50.3181 153.237C49.8866 148.405 51.0947 138.74 58.4295 135.893L50.2318 121.827C48.3334 118.03 48.1608 115.01 49.8004 113.543C51.3536 112.162 54.2875 112.68 57.7392 115.096L57.8255 115.183C59.8965 116.995 66.2821 122.259 69.7337 125.106C69.9926 125.365 69.9926 125.538 69.82 125.797C69.5612 126.055 69.3886 126.055 69.1297 125.883C65.678 123.035 59.3787 117.858 57.2214 115.959C54.2875 113.888 51.6988 113.371 50.4907 114.32C49.2826 115.442 49.5415 118.03 51.181 121.396L59.8965 136.583L59.2924 136.756C52.0439 139.085 50.8359 148.491 51.2673 153.237C51.3536 153.496 51.0947 153.841 50.7496 153.755C50.8359 153.582 50.6633 153.582 50.577 153.582Z" fill="#191919"/>
<path d="M202.278 148.232C202.106 146.679 203.227 145.385 204.781 145.212L244.13 141.761C247.323 141.502 249.911 144.349 249.307 147.542L244.302 173.343C231.617 176.364 218.329 176.105 205.816 172.48L204.694 172.135L202.278 148.232Z" fill="#191919"/>
<path d="M249.306 147.542L244.301 173.343C231.617 176.363 218.328 176.105 205.815 172.48L204.694 172.135L202.277 148.232" stroke="#191919" stroke-miterlimit="10"/>
<path d="M208.577 148.146L211.08 170.927" stroke="white" stroke-miterlimit="10"/>
<path d="M216.084 147.024L217.896 171.79" stroke="white" stroke-miterlimit="10"/>
<path d="M224.714 147.024V172.308" stroke="white" stroke-miterlimit="10"/>
<path d="M233.17 145.989L232.652 171.79" stroke="white" stroke-miterlimit="10"/>
<path d="M242.663 145.989L240.074 170.928" stroke="white" stroke-miterlimit="10"/>
<path d="M240.61 120.636L240.61 120.637C240.78 125.388 239.848 130.144 237.979 134.564C236.254 138.084 232.568 140.211 228.722 139.968C227.623 139.87 226.607 140.273 225.897 141.08C223.355 143.781 219.51 144.759 215.992 143.533C212.979 142.469 209.787 142.203 206.684 142.735C206.683 142.735 206.682 142.735 206.681 142.735L203.497 143.251C201.216 143.576 198.94 143.092 196.984 141.801C196.525 141.372 195.889 141.267 195.429 141.191C195.409 141.188 195.39 141.185 195.371 141.182L195.356 141.179L195.341 141.177L190.427 140.66C187.072 140.25 184.292 138.125 182.98 135.099C182.324 133.419 181.025 132.136 179.492 131.234L179.492 131.234L179.482 131.228C176.742 129.697 175.287 126.555 176.016 123.318L176.016 123.318L176.017 123.31C176.418 121.389 177.706 119.687 179.415 118.629L179.417 118.627L180.798 117.764C182.306 116.822 183.335 115.226 183.615 113.449L183.616 113.449L183.617 113.438C184.241 108.839 186.232 104.525 189.26 101.028L189.612 106.24C189.886 111.135 193.598 115.203 198.478 116.02C198.712 116.067 198.921 116.09 199.11 116.111L199.117 116.112C199.312 116.133 199.486 116.153 199.678 116.191L199.688 116.193L199.699 116.195C205.267 117.065 210.927 117.153 216.506 116.281C216.506 116.281 216.507 116.281 216.507 116.281L224.011 115.16L224.015 115.159C226.909 114.707 229.536 113.079 231.17 110.629C231.17 110.629 231.17 110.629 231.171 110.628L237.476 101.29L240.182 107.528L240.61 120.636Z" fill="#191919" stroke="#191919"/>
<path d="M207.369 121.31C205.126 121.31 202.882 120.965 200.725 120.361C200.466 120.275 200.38 120.016 200.466 119.843C200.552 119.584 200.811 119.498 200.984 119.584C205.643 120.965 210.735 120.792 215.222 119.153L217.983 118.117C218.242 118.031 218.415 118.117 218.501 118.376C218.587 118.635 218.501 118.808 218.242 118.894L215.481 119.929C212.892 120.879 210.131 121.31 207.369 121.31Z" fill="white"/>
<path d="M210.734 113.284H203.745L209.958 102.239L210.13 101.808L209.785 101.462C209.699 101.376 209.181 100.945 208.404 100.082C207.973 99.5639 207.283 99.2188 206.592 99.2188C207.455 100.513 208.318 101.462 208.836 101.894L201.933 114.147H210.734C211.08 114.147 211.252 113.802 211.252 113.629C211.252 113.457 211.08 113.284 210.734 113.284Z" fill="#191919"/>
<path d="M26.0707 337.038H183.467L178.548 325.648H162.757L166.122 218.042L21.9287 220.544L25.7255 323.49L139.889 325.648H26.0707V337.038Z" fill="#585858"/>
<path fill-rule="evenodd" clip-rule="evenodd" d="M67.1431 4.10869L65.7631 4.36438L64.2724 4.53186L62.9035 4.88692L61.5346 5.24198L60.1657 5.59705L58.8079 6.05148L57.4614 6.60529L56.2141 7.14794L54.9669 7.69059L53.7421 8.43198L52.506 9.07401L51.3805 9.80423L50.1668 10.645L49.0413 11.3752L47.9381 12.3042L46.9343 13.222L46.7579 13.4431L46.6808 13.653L46.7143 13.9512L46.8472 14.2381L47.0571 14.3152L47.267 14.3922L47.5652 14.3587L47.7528 14.237L48.8671 13.4074L49.882 12.589L50.897 11.7705L52.1219 11.0291L53.2474 10.2989L54.3729 9.56865L55.609 8.92663L56.8562 8.38399L58.1034 7.84134L59.3617 7.39807L60.609 6.85542L61.8785 6.51152L63.148 6.16763L64.5281 5.91194L65.9082 5.65625L67.2995 5.49994L68.9888 5.31013L70.7999 5.3079L72.3129 5.33918L73.8258 5.37045L75.2505 5.51226L76.7747 5.64291L78.2217 5.98347L79.6688 6.32402L81.127 6.76396L82.4859 7.21506L83.9441 7.655L85.2148 8.21664L86.4966 8.87765L87.8666 9.42813L89.0603 10.1997L90.3532 10.9601L91.558 11.831L92.7628 12.7019L93.8682 13.584L94.9847 14.5655L96.0019 15.5581L97.0303 16.6501L98.0475 17.6428L98.9876 18.8453L99.9278 20.0479L100.669 21.2728L101.51 22.4865L102.251 23.7114L103.103 25.0244L103.657 26.371L104.321 27.8058L104.875 29.1524L105.44 30.5984L105.906 32.0555L106.028 32.2431L106.249 32.4195L106.47 32.5959L106.768 32.5624L106.944 32.3413L107.132 32.2196L107.198 31.9104L107.264 31.6011L106.699 30.1551L106.233 28.698L105.569 27.2632L104.904 25.8284L104.24 24.3936L103.487 23.0693L102.735 21.7451L101.883 20.432L100.943 19.2294L100.102 18.0157L99.0624 16.8243L98.0341 15.7323L96.9946 14.5409L95.878 13.5595L94.7614 12.578L93.5455 11.6077L92.3407 10.7368L91.136 9.86584L89.8318 9.00607L88.5388 8.24569L87.1576 7.59584L85.7764 6.94598L84.4064 6.39551L82.937 5.8562L81.4788 5.41626L80.0205 4.97633L78.5734 4.63577L77.0382 4.40575L75.4917 4.07635L73.8794 4.05625L72.3553 3.9256L70.743 3.90549L68.943 4.00709L67.1431 4.10869Z" fill="#191919"/>
<path fill-rule="evenodd" clip-rule="evenodd" d="M66.5181 16.4562L64.5417 16.7789L62.6759 17.1898L60.7219 17.7112L58.9778 18.3097L57.1679 19.2174L55.5455 20.0035L53.8572 21.0988L52.2684 22.183L52.092 22.4041L52.0149 22.614L51.9379 22.8239L52.1701 23.0997L52.2918 23.2873L52.6011 23.3532L52.9104 23.4191L53.0868 23.198L54.5875 22.2243L56.0882 21.2507L57.7105 20.4646L59.4211 19.5681L61.1652 18.9696L63.0198 18.4593L64.8968 18.1478L66.6744 17.8475L68.0656 17.6911L69.3687 17.6454L70.5835 17.7101L71.7871 17.6755L72.9138 17.8508L74.0292 17.9268L75.167 18.2014L76.1942 18.3879L77.332 18.6626L78.4698 18.9373L79.5194 19.3225L80.4807 19.8183L81.5303 20.2035L82.5911 20.6881L83.4642 21.2944L84.4256 21.7901L85.4093 22.4847L86.2824 23.091L87.2661 23.7855L88.0399 24.4029L88.9354 25.208L89.7315 26.0242L90.4171 26.7522L91.2132 27.5684L91.9211 28.4952L92.6178 29.3226L93.2263 30.2605L93.9342 31.1872L94.5539 32.2245L95.0631 33.1736L95.5834 34.2221L96.1037 35.2705L96.5247 36.3302L96.9456 37.3898L97.0785 37.6768L97.2884 37.7538L97.6088 37.9191L97.8076 37.8967L97.984 37.6756L98.1604 37.4546L98.2375 37.2446L98.204 36.9465L97.7719 35.7875L97.3509 34.7279L96.8306 33.6794L96.2991 32.5316L95.6794 31.4943L95.0709 30.5564L94.4512 29.5191L93.7433 28.5923L93.0243 27.5662L92.2281 26.75L91.4209 25.8344L90.7241 25.007L89.8286 24.202L88.9443 23.4963L88.0488 22.6912L87.0651 21.9967L86.1808 21.291L85.2083 20.6959L84.2358 20.1008L83.1639 19.5168L82.1031 19.0322L81.0424 18.5476L79.9928 18.1624L78.8327 17.689L77.6837 17.3149L76.546 17.0402L75.4193 16.8649L74.2816 16.5902L73.0556 16.4261L71.8407 16.3613L70.6259 16.2966L69.4222 16.3312L67.9093 16.2999L66.5181 16.4562Z" fill="#191919"/>
<path fill-rule="evenodd" clip-rule="evenodd" d="M66.5181 16.4562L64.5417 16.7789L62.6759 17.1898L60.7219 17.7112L58.9778 18.3097L57.1679 19.2174L55.5455 20.0035L53.8572 21.0988L52.2684 22.183L52.092 22.4041L52.0149 22.614L51.9379 22.8239L52.1701 23.0997L52.2918 23.2873L52.6011 23.3532L52.9104 23.4191L53.0868 23.198L54.5875 22.2243L56.0882 21.2507L57.7105 20.4646L59.4211 19.5681L61.1652 18.9696L63.0198 18.4593L64.8968 18.1478L66.6744 17.8475L68.0656 17.6911L69.3687 17.6454L70.5835 17.7101L71.7871 17.6755L72.9138 17.8508L74.0292 17.9268L75.167 18.2014L76.1942 18.3879L77.332 18.6626L78.4698 18.9373L79.5194 19.3225L80.4807 19.8183L81.5303 20.2035L82.5911 20.6881L83.4642 21.2944L84.4256 21.7901L85.4093 22.4847L86.2824 23.091L87.2661 23.7855L88.0399 24.4029L88.9354 25.208L89.7315 26.0242L90.4171 26.7522L91.2132 27.5684L91.9211 28.4952L92.6178 29.3226L93.2263 30.2605L93.9342 31.1872L94.5539 32.2245L95.0631 33.1736L95.5834 34.2221L96.1037 35.2705L96.5247 36.3302L96.9456 37.3898L97.0785 37.6768L97.2884 37.7538L97.6088 37.9191L97.8076 37.8967L97.984 37.6756L98.1604 37.4546L98.2375 37.2446L98.204 36.9465L97.7719 35.7875L97.3509 34.7279L96.8306 33.6794L96.2991 32.5316L95.6794 31.4943L95.0709 30.5564L94.4512 29.5191L93.7433 28.5923L93.0243 27.5662L92.2281 26.75L91.4209 25.8344L90.7241 25.007L89.8286 24.202L88.9443 23.4963L88.0488 22.6912L87.0651 21.9967L86.1808 21.291L85.2083 20.6959L84.2358 20.1008L83.1639 19.5168L82.1031 19.0322L81.0424 18.5476L79.9928 18.1624L78.8327 17.689L77.6837 17.3149L76.546 17.0402L75.4193 16.8649L74.2816 16.5902L73.0556 16.4261L71.8407 16.3613L70.6259 16.2966L69.4222 16.3312L67.9093 16.2999L66.5181 16.4562Z" fill="#191919"/>
<path fill-rule="evenodd" clip-rule="evenodd" d="M65.4956 29.7526L64.513 29.9636L63.4422 30.2852L62.3714 30.6067L61.3007 30.9283L60.3404 31.3381L59.3802 31.7479L58.4422 32.3564L58.2547 32.4781L58.0782 32.6992L58.1117 32.9973L58.134 33.196L58.3551 33.3725L58.5762 33.5489L58.7861 33.6259L59.0731 33.4931L60.0222 32.9839L60.8831 32.5853L61.8433 32.1755L62.7153 31.8763L63.7861 31.5547L64.7576 31.2443L65.7401 31.0333L67.827 30.7988L68.8319 30.7865L70.3449 30.8178L71.8802 31.0478L73.3161 31.289L74.7631 31.6296L76.2214 32.0695L77.5032 32.7305L78.7738 33.2922L80.0668 34.0526L81.371 34.9123L82.4876 35.8938L83.5047 36.8864L84.5219 37.8791L85.4621 39.0816L86.3028 40.2953L87.1436 41.509L87.9073 42.9327L88.029 43.1203L88.2501 43.2967L88.5482 43.2632L88.8464 43.2297L89.0228 43.0086L89.0998 42.7987L89.1769 42.5888L89.1434 42.2907L88.2803 40.8782L87.5165 39.4546L86.5764 38.252L85.5369 37.0606L84.4974 35.8692L83.2703 34.7996L82.0543 33.8293L80.8495 32.9583L79.5454 32.0986L78.1642 31.4487L76.6836 30.81L75.2254 30.3701L73.5684 29.9525L72.0331 29.7225L70.3985 29.5036L68.775 29.3841L67.6819 29.5069L65.4956 29.7526Z" fill="#191919"/>
</svg>
