<svg xmlns="http://www.w3.org/2000/svg" xmlns:xlink="http://www.w3.org/1999/xlink" id="Layer_1" viewBox="0 0 2048 1152"><defs><style>.cls-1{fill:url(#linear-gradient);}.cls-1,.cls-2,.cls-3,.cls-4,.cls-5,.cls-6{stroke-width:0px;}.cls-2{fill:#0c1b2a;}.cls-7{clip-path:url(#clippath-2);}.cls-3{fill:none;}.cls-8{clip-path:url(#clippath-1);}.cls-4{fill:#fff;}.cls-9{clip-path:url(#clippath);}.cls-10{mask:url(#mask);}.cls-5{fill:#120d3e;}.cls-6{fill:#00bc87;}</style><clipPath id="clippath"><path class="cls-3" d="m1354.16,597.29c5.91,9.71,9.32,21.11,9.32,33.31v66.22c-35.39,0-64.09-28.69-64.09-64.09v-35.62s54.77.19,54.77.19Z"></path></clipPath><clipPath id="clippath-1"><path class="cls-3" d="m790.37,608.2v18c0,35.86-29.06,64.91-64.91,64.91v-67.06c0-5.48.7-10.78,1.99-15.85h62.92Z"></path></clipPath><clipPath id="clippath-2"><path class="cls-3" d="m514.92,688.58v32.63h-62.02c-1.86-6.01-2.89-12.39-2.89-19.01v-13.62s0-64.54,0-64.54c0-35.85,29.06-64.91,64.91-64.91v129.45Z"></path></clipPath><linearGradient id="linear-gradient" x1="-932.37" y1="1116.98" x2="-931.68" y2="1116.98" gradientTransform="translate(151387.34 181243.2) scale(161.32 -161.32)" gradientUnits="userSpaceOnUse"><stop offset="0" stop-color="#fff"></stop><stop offset=".43" stop-color="#fff"></stop><stop offset=".48" stop-color="#eee"></stop><stop offset=".6" stop-color="#c2c2c2"></stop><stop offset=".75" stop-color="#7c7c7c"></stop><stop offset=".95" stop-color="#1c1c1c"></stop><stop offset="1" stop-color="#000"></stop></linearGradient><mask id="mask" x="738.73" y="842.57" width="538.72" height="416.28" maskUnits="userSpaceOnUse"><rect class="cls-1" x="738.73" y="842.57" width="538.72" height="416.28"></rect></mask></defs><rect class="cls-2" x="-486.56" y="-39.38" width="3021.11" height="1230.77"></rect><path class="cls-4" d="m335.02,181.98c-6.68,0-12.88-1.09-18.61-3.28-5.73-2.18-10.7-5.3-14.9-9.34-4.2-4.04-7.48-8.78-9.83-14.22-2.35-5.44-3.52-11.42-3.52-17.93s1.17-12.49,3.52-17.93c2.35-5.44,5.65-10.18,9.89-14.22,4.25-4.04,9.21-7.15,14.9-9.34,5.69-2.18,11.91-3.28,18.67-3.28,7.5,0,14.28,1.3,20.34,3.9,6.06,2.6,11.15,6.41,15.27,11.44l-12.86,11.87c-2.97-3.38-6.27-5.91-9.89-7.61-3.63-1.69-7.59-2.54-11.87-2.54-4.04,0-7.75.66-11.13,1.98-3.38,1.32-6.31,3.22-8.78,5.69-2.47,2.47-4.39,5.4-5.75,8.78-1.36,3.38-2.04,7.13-2.04,11.25s.68,7.87,2.04,11.25c1.36,3.38,3.28,6.31,5.75,8.78,2.47,2.47,5.4,4.37,8.78,5.69,3.38,1.32,7.09,1.98,11.13,1.98,4.29,0,8.24-.84,11.87-2.54,3.63-1.69,6.93-4.27,9.89-7.73l12.86,11.87c-4.12,5.03-9.21,8.86-15.27,11.5-6.06,2.64-12.88,3.96-20.47,3.96Z"></path><path class="cls-4" d="m414.53,181.49c-7.09,0-13.38-1.48-18.86-4.45-5.48-2.97-9.81-7.03-12.98-12.18-3.17-5.15-4.76-11.03-4.76-17.62s1.59-12.59,4.76-17.75c3.17-5.15,7.5-9.19,12.98-12.12,5.48-2.93,11.77-4.39,18.86-4.39s13.27,1.46,18.8,4.39c5.52,2.93,9.85,6.95,12.98,12.06,3.13,5.11,4.7,11.05,4.7,17.81s-1.57,12.47-4.7,17.62c-3.13,5.15-7.46,9.21-12.98,12.18-5.52,2.97-11.79,4.45-18.8,4.45Zm0-15.83c3.22,0,6.1-.74,8.66-2.23,2.55-1.48,4.58-3.61,6.06-6.37,1.48-2.76,2.23-6.04,2.23-9.83s-.74-7.17-2.23-9.89-3.5-4.82-6.06-6.31c-2.56-1.48-5.44-2.23-8.66-2.23s-6.1.74-8.66,2.23c-2.56,1.48-4.6,3.59-6.12,6.31-1.53,2.72-2.29,6.02-2.29,9.89s.76,7.07,2.29,9.83c1.52,2.76,3.56,4.88,6.12,6.37,2.55,1.48,5.44,2.23,8.66,2.23Z"></path><path class="cls-4" d="m504.31,112.98c5.28,0,10,1.05,14.16,3.15,4.16,2.1,7.44,5.32,9.83,9.65,2.39,4.33,3.59,9.87,3.59,16.63v38.09h-19.29v-35.12c0-5.36-1.17-9.32-3.52-11.87-2.35-2.55-5.67-3.83-9.95-3.83-3.05,0-5.79.64-8.22,1.92-2.43,1.28-4.33,3.24-5.69,5.87-1.36,2.64-2.04,6.02-2.04,10.14v32.89h-19.29v-66.53h18.43v18.43l-3.46-5.56c2.39-4.45,5.81-7.87,10.26-10.26,4.45-2.39,9.52-3.59,15.21-3.59Z"></path><path class="cls-4" d="m571.71,181.49c-5.69,0-11.15-.68-16.39-2.04-5.24-1.36-9.38-3.07-12.43-5.13l6.43-13.85c3.05,1.9,6.66,3.44,10.82,4.64,4.16,1.2,8.26,1.79,12.3,1.79,4.45,0,7.61-.54,9.46-1.61,1.86-1.07,2.78-2.55,2.78-4.45,0-1.57-.72-2.74-2.16-3.52-1.44-.78-3.36-1.38-5.75-1.79-2.39-.41-5.01-.82-7.85-1.24-2.84-.41-5.71-.97-8.59-1.67-2.89-.7-5.52-1.75-7.91-3.15-2.39-1.4-4.31-3.3-5.75-5.69-1.44-2.39-2.16-5.48-2.16-9.27,0-4.2,1.22-7.91,3.65-11.13,2.43-3.22,5.95-5.75,10.57-7.61,4.62-1.86,10.14-2.78,16.57-2.78,4.53,0,9.15.49,13.85,1.48,4.7.99,8.61,2.43,11.75,4.33l-6.43,13.73c-3.22-1.9-6.45-3.19-9.71-3.9-3.26-.7-6.41-1.05-9.46-1.05-4.29,0-7.42.58-9.4,1.73-1.98,1.16-2.97,2.64-2.97,4.45,0,1.65.72,2.89,2.16,3.71,1.44.83,3.36,1.48,5.75,1.98,2.39.49,5.01.93,7.85,1.3s5.71.93,8.59,1.67c2.88.74,5.5,1.79,7.85,3.15,2.35,1.36,4.27,3.22,5.75,5.56s2.23,5.42,2.23,9.21c0,4.12-1.24,7.77-3.71,10.94-2.47,3.17-6.04,5.67-10.7,7.48-4.66,1.81-10.33,2.72-17,2.72Z"></path><path class="cls-4" d="m646.65,181.49c-7.09,0-13.38-1.48-18.86-4.45-5.48-2.97-9.81-7.03-12.98-12.18-3.17-5.15-4.76-11.03-4.76-17.62s1.59-12.59,4.76-17.75c3.17-5.15,7.5-9.19,12.98-12.12,5.48-2.93,11.77-4.39,18.86-4.39s13.27,1.46,18.8,4.39c5.52,2.93,9.85,6.95,12.98,12.06,3.13,5.11,4.7,11.05,4.7,17.81s-1.57,12.47-4.7,17.62c-3.13,5.15-7.46,9.21-12.98,12.18-5.52,2.97-11.79,4.45-18.8,4.45Zm0-15.83c3.22,0,6.1-.74,8.66-2.23,2.55-1.48,4.58-3.61,6.06-6.37,1.48-2.76,2.23-6.04,2.23-9.83s-.74-7.17-2.23-9.89-3.5-4.82-6.06-6.31c-2.56-1.48-5.44-2.23-8.66-2.23s-6.1.74-8.66,2.23c-2.56,1.48-4.6,3.59-6.12,6.31-1.53,2.72-2.29,6.02-2.29,9.89s.76,7.07,2.29,9.83c1.52,2.76,3.56,4.88,6.12,6.37,2.55,1.48,5.44,2.23,8.66,2.23Z"></path><path class="cls-4" d="m695.99,180.5v-66.53h18.43v18.8l-2.6-5.44c1.98-4.7,5.15-8.26,9.52-10.7,4.37-2.43,9.69-3.65,15.95-3.65v17.81c-.82-.08-1.57-.14-2.23-.19-.66-.04-1.36-.06-2.1-.06-5.28,0-9.54,1.5-12.8,4.51-3.26,3.01-4.88,7.69-4.88,14.04v31.41h-19.29Z"></path><path class="cls-4" d="m741.37,130.29v-14.84h46.13v14.84h-46.13Zm35.12,51.2c-7.83,0-13.93-2-18.3-6-4.37-4-6.55-9.95-6.55-17.87v-58.37h19.29v58.12c0,2.8.74,4.97,2.23,6.49,1.48,1.53,3.5,2.29,6.06,2.29,3.05,0,5.65-.82,7.79-2.47l5.19,13.6c-1.98,1.4-4.35,2.45-7.11,3.15-2.76.7-5.63,1.05-8.59,1.05Z"></path><path class="cls-4" d="m812.72,104.69c-3.55,0-6.43-1.03-8.66-3.09-2.23-2.06-3.34-4.62-3.34-7.67s1.11-5.61,3.34-7.67c2.23-2.06,5.11-3.09,8.66-3.09s6.43.97,8.66,2.91c2.23,1.94,3.34,4.43,3.34,7.48,0,3.22-1.09,5.87-3.28,7.98-2.19,2.1-5.09,3.15-8.72,3.15Zm-9.65,75.8v-66.53h19.29v66.53h-19.29Z"></path><path class="cls-4" d="m868.37,181.49c-5.52,0-10.45-1.07-14.78-3.22-4.33-2.14-7.69-5.42-10.08-9.83-2.39-4.41-3.59-10.04-3.59-16.88v-37.59h19.29v34.75c0,5.52,1.17,9.58,3.52,12.18,2.35,2.6,5.67,3.9,9.95,3.9,2.97,0,5.61-.64,7.91-1.92,2.31-1.28,4.12-3.26,5.44-5.94,1.32-2.68,1.98-6.04,1.98-10.08v-32.89h19.29v66.53h-18.3v-18.3l3.34,5.32c-2.23,4.62-5.5,8.1-9.83,10.45-4.33,2.35-9.05,3.52-14.16,3.52Z"></path><path class="cls-4" d="m1010.46,112.98c5.28,0,9.95,1.05,14.04,3.15,4.08,2.1,7.3,5.32,9.65,9.65,2.35,4.33,3.52,9.87,3.52,16.63v38.09h-19.29v-35.12c0-5.36-1.11-9.32-3.34-11.87-2.23-2.55-5.36-3.83-9.4-3.83-2.8,0-5.32.64-7.54,1.92-2.23,1.28-3.96,3.2-5.19,5.75-1.24,2.56-1.86,5.81-1.86,9.77v33.39h-19.29v-35.12c0-5.36-1.09-9.32-3.28-11.87-2.19-2.55-5.3-3.83-9.34-3.83-2.8,0-5.32.64-7.54,1.92-2.23,1.28-3.96,3.2-5.19,5.75-1.24,2.56-1.86,5.81-1.86,9.77v33.39h-19.29v-66.53h18.43v18.18l-3.46-5.32c2.31-4.53,5.58-7.98,9.83-10.33,4.25-2.35,9.09-3.52,14.53-3.52,6.1,0,11.44,1.55,16.01,4.64,4.58,3.09,7.61,7.81,9.09,14.16l-6.8-1.86c2.23-5.19,5.79-9.32,10.7-12.37,4.9-3.05,10.53-4.58,16.88-4.58Z"></path><path class="cls-4" d="m1082.06,130.29v-14.84h46.13v14.84h-46.13Zm10.26,50.21v-68.01c0-7.5,2.23-13.5,6.68-17.99,4.45-4.49,10.8-6.74,19.04-6.74,2.8,0,5.5.29,8.1.87,2.6.58,4.8,1.48,6.62,2.72l-5.07,13.97c-1.07-.74-2.27-1.32-3.59-1.73-1.32-.41-2.72-.62-4.2-.62-2.8,0-4.97.8-6.49,2.41-1.53,1.61-2.29,4.02-2.29,7.23v6.18l.49,8.29v53.42h-19.29Z"></path><path class="cls-4" d="m1169.49,181.49c-7.09,0-13.38-1.48-18.86-4.45-5.48-2.97-9.81-7.03-12.98-12.18-3.17-5.15-4.76-11.03-4.76-17.62s1.59-12.59,4.76-17.75c3.17-5.15,7.5-9.19,12.98-12.12,5.48-2.93,11.77-4.39,18.86-4.39s13.27,1.46,18.8,4.39c5.52,2.93,9.85,6.95,12.98,12.06,3.13,5.11,4.7,11.05,4.7,17.81s-1.57,12.47-4.7,17.62c-3.13,5.15-7.46,9.21-12.98,12.18-5.52,2.97-11.79,4.45-18.8,4.45Zm0-15.83c3.22,0,6.1-.74,8.66-2.23,2.55-1.48,4.58-3.61,6.06-6.37,1.48-2.76,2.23-6.04,2.23-9.83s-.74-7.17-2.23-9.89-3.5-4.82-6.06-6.31c-2.56-1.48-5.44-2.23-8.66-2.23s-6.1.74-8.66,2.23c-2.56,1.48-4.6,3.59-6.12,6.31-1.53,2.72-2.29,6.02-2.29,9.89s.76,7.07,2.29,9.83c1.52,2.76,3.56,4.88,6.12,6.37,2.55,1.48,5.44,2.23,8.66,2.23Z"></path><path class="cls-4" d="m1218.83,180.5v-66.53h18.43v18.8l-2.6-5.44c1.98-4.7,5.15-8.26,9.52-10.7,4.37-2.43,9.69-3.65,15.95-3.65v17.81c-.82-.08-1.57-.14-2.23-.19-.66-.04-1.36-.06-2.1-.06-5.28,0-9.54,1.5-12.8,4.51-3.26,3.01-4.88,7.69-4.88,14.04v31.41h-19.29Z"></path><path class="cls-4" d="m1308.48,180.5v-86.56h37.47c7.75,0,14.43,1.26,20.03,3.77,5.61,2.52,9.93,6.12,12.98,10.82,3.05,4.7,4.58,10.31,4.58,16.82s-1.53,12-4.58,16.69c-3.05,4.7-7.38,8.31-12.98,10.82-5.61,2.52-12.28,3.77-20.03,3.77h-26.34l8.9-9.03v32.89h-20.03Zm20.03-30.67l-8.9-9.52h25.23c6.18,0,10.8-1.32,13.85-3.96,3.05-2.64,4.58-6.31,4.58-11.01s-1.53-8.49-4.58-11.13c-3.05-2.64-7.67-3.96-13.85-3.96h-25.23l8.9-9.52v49.09Z"></path><path class="cls-4" d="m1406.05,205.48c-3.46,0-6.88-.54-10.26-1.61-3.38-1.07-6.14-2.56-8.29-4.45l7.05-13.73c1.48,1.32,3.19,2.35,5.13,3.09,1.94.74,3.85,1.11,5.75,1.11,2.72,0,4.88-.64,6.49-1.92,1.61-1.28,3.07-3.4,4.39-6.37l3.46-8.16,1.48-2.1,23.87-57.38h18.55l-30.05,70.61c-2.14,5.36-4.6,9.56-7.36,12.61-2.76,3.05-5.81,5.19-9.15,6.43-3.34,1.24-7.03,1.86-11.07,1.86Zm11.38-22.38l-29.68-69.13h19.91l23,55.65-13.23,13.48Z"></path><path class="cls-4" d="m1463.68,130.29v-14.84h46.13v14.84h-46.13Zm35.12,51.2c-7.83,0-13.93-2-18.3-6-4.37-4-6.55-9.95-6.55-17.87v-58.37h19.29v58.12c0,2.8.74,4.97,2.23,6.49,1.48,1.53,3.5,2.29,6.06,2.29,3.05,0,5.65-.82,7.79-2.47l5.19,13.6c-1.98,1.4-4.35,2.45-7.11,3.15-2.76.7-5.63,1.05-8.59,1.05Z"></path><path class="cls-4" d="m1565.82,112.98c5.28,0,10,1.05,14.16,3.15,4.16,2.1,7.44,5.32,9.83,9.65,2.39,4.33,3.59,9.87,3.59,16.63v38.09h-19.29v-35.12c0-5.36-1.17-9.32-3.52-11.87-2.35-2.55-5.67-3.83-9.95-3.83-3.05,0-5.79.64-8.22,1.92-2.43,1.28-4.33,3.24-5.69,5.87-1.36,2.64-2.04,6.02-2.04,10.14v32.89h-19.29v-91.76h19.29v43.65l-4.33-5.56c2.39-4.45,5.81-7.87,10.26-10.26,4.45-2.39,9.52-3.59,15.21-3.59Z"></path><path class="cls-4" d="m1642.49,181.49c-7.09,0-13.38-1.48-18.86-4.45-5.48-2.97-9.81-7.03-12.98-12.18-3.17-5.15-4.76-11.03-4.76-17.62s1.59-12.59,4.76-17.75c3.17-5.15,7.5-9.19,12.98-12.12,5.48-2.93,11.77-4.39,18.86-4.39s13.27,1.46,18.8,4.39c5.52,2.93,9.85,6.95,12.98,12.06,3.13,5.11,4.7,11.05,4.7,17.81s-1.57,12.47-4.7,17.62c-3.13,5.15-7.46,9.21-12.98,12.18-5.52,2.97-11.79,4.45-18.8,4.45Zm0-15.83c3.22,0,6.1-.74,8.66-2.23,2.55-1.48,4.58-3.61,6.06-6.37,1.48-2.76,2.23-6.04,2.23-9.83s-.74-7.17-2.23-9.89-3.5-4.82-6.06-6.31c-2.56-1.48-5.44-2.23-8.66-2.23s-6.1.74-8.66,2.23c-2.56,1.48-4.6,3.59-6.12,6.31-1.53,2.72-2.29,6.02-2.29,9.89s.76,7.07,2.29,9.83c1.52,2.76,3.56,4.88,6.12,6.37,2.55,1.48,5.44,2.23,8.66,2.23Z"></path><path class="cls-4" d="m1732.27,112.98c5.28,0,10,1.05,14.16,3.15,4.16,2.1,7.44,5.32,9.83,9.65,2.39,4.33,3.59,9.87,3.59,16.63v38.09h-19.29v-35.12c0-5.36-1.17-9.32-3.52-11.87-2.35-2.55-5.67-3.83-9.95-3.83-3.05,0-5.79.64-8.22,1.92-2.43,1.28-4.33,3.24-5.69,5.87-1.36,2.64-2.04,6.02-2.04,10.14v32.89h-19.29v-66.53h18.43v18.43l-3.46-5.56c2.39-4.45,5.81-7.87,10.26-10.26,4.45-2.39,9.52-3.59,15.21-3.59Z"></path><path class="cls-4" d="m386.04,328.89v-86.56h39.32c9.4,0,17.68,1.79,24.86,5.38s12.78,8.59,16.82,15.02c4.04,6.43,6.06,14.06,6.06,22.88s-2.02,16.34-6.06,22.82c-4.04,6.47-9.65,11.5-16.82,15.09-7.17,3.59-15.46,5.38-24.86,5.38h-39.32Zm20.03-16.45h18.3c5.77,0,10.78-1.09,15.02-3.28,4.24-2.18,7.54-5.3,9.89-9.34,2.35-4.04,3.52-8.78,3.52-14.22s-1.17-10.28-3.52-14.28c-2.35-4-5.65-7.09-9.89-9.27-4.25-2.18-9.26-3.28-15.02-3.28h-18.3v53.67Z"></path><path class="cls-4" d="m507.35,329.88c-5.19,0-9.65-.89-13.36-2.66s-6.55-4.18-8.53-7.23c-1.98-3.05-2.97-6.47-2.97-10.26s.97-7.42,2.91-10.39c1.94-2.97,5.01-5.3,9.21-6.99,4.2-1.69,9.69-2.54,16.45-2.54h17.68v11.25h-15.58c-4.53,0-7.65.74-9.34,2.23-1.69,1.48-2.54,3.34-2.54,5.56,0,2.47.97,4.43,2.91,5.87,1.94,1.44,4.6,2.16,7.98,2.16s6.1-.76,8.66-2.29c2.55-1.52,4.41-3.77,5.56-6.74l2.97,8.9c-1.4,4.29-3.96,7.54-7.67,9.77-3.71,2.23-8.49,3.34-14.34,3.34Zm20.28-.99v-12.98l-1.24-2.84v-23.25c0-4.12-1.26-7.34-3.77-9.65-2.52-2.31-6.37-3.46-11.56-3.46-3.55,0-7.03.56-10.45,1.67-3.42,1.11-6.33,2.62-8.72,4.51l-6.93-13.48c3.63-2.55,8-4.53,13.11-5.94,5.11-1.4,10.3-2.1,15.58-2.1,10.14,0,18.01,2.39,23.62,7.17,5.61,4.78,8.41,12.24,8.41,22.38v37.96h-18.05Z"></path><path class="cls-4" d="m555.2,278.68v-14.84h46.13v14.84h-46.13Zm35.12,51.2c-7.83,0-13.93-2-18.3-6-4.37-4-6.55-9.95-6.55-17.87v-58.37h19.29v58.12c0,2.8.74,4.97,2.23,6.49,1.48,1.53,3.5,2.29,6.06,2.29,3.05,0,5.65-.82,7.79-2.47l5.19,13.6c-1.98,1.4-4.35,2.45-7.11,3.15-2.76.7-5.63,1.05-8.59,1.05Z"></path><path class="cls-4" d="m637.44,329.88c-5.19,0-9.65-.89-13.36-2.66s-6.55-4.18-8.53-7.23c-1.98-3.05-2.97-6.47-2.97-10.26s.97-7.42,2.91-10.39c1.94-2.97,5.01-5.3,9.21-6.99,4.2-1.69,9.69-2.54,16.45-2.54h17.68v11.25h-15.58c-4.53,0-7.65.74-9.34,2.23-1.69,1.48-2.54,3.34-2.54,5.56,0,2.47.97,4.43,2.91,5.87,1.94,1.44,4.6,2.16,7.98,2.16s6.1-.76,8.66-2.29c2.55-1.52,4.41-3.77,5.56-6.74l2.97,8.9c-1.4,4.29-3.96,7.54-7.67,9.77-3.71,2.23-8.49,3.34-14.34,3.34Zm20.28-.99v-12.98l-1.24-2.84v-23.25c0-4.12-1.26-7.34-3.77-9.65-2.52-2.31-6.37-3.46-11.56-3.46-3.55,0-7.03.56-10.45,1.67-3.42,1.11-6.33,2.62-8.72,4.51l-6.93-13.48c3.63-2.55,8-4.53,13.11-5.94,5.11-1.4,10.3-2.1,15.58-2.1,10.14,0,18.01,2.39,23.62,7.17,5.61,4.78,8.41,12.24,8.41,22.38v37.96h-18.05Z"></path><path class="cls-4" d="m718.19,328.89l38.58-86.56h19.79l38.71,86.56h-21.02l-31.66-76.42h7.91l-31.78,76.42h-20.53Zm19.29-18.55l5.32-15.21h44.52l5.44,15.21h-55.28Z"></path><path class="cls-4" d="m824.29,328.89v-86.56h37.47c7.75,0,14.43,1.26,20.03,3.77,5.61,2.52,9.93,6.12,12.98,10.82,3.05,4.7,4.58,10.31,4.58,16.82s-1.53,12-4.58,16.69c-3.05,4.7-7.38,8.31-12.98,10.82-5.61,2.52-12.28,3.77-20.03,3.77h-26.34l8.9-9.03v32.89h-20.03Zm20.03-30.67l-8.9-9.52h25.23c6.18,0,10.8-1.32,13.85-3.96,3.05-2.64,4.58-6.31,4.58-11.01s-1.53-8.49-4.58-11.13c-3.05-2.64-7.67-3.96-13.85-3.96h-25.23l8.9-9.52v49.09Z"></path><path class="cls-4" d="m914.81,328.89v-86.56h20.03v86.56h-20.03Z"></path><path class="cls-4" d="m1018.81,330.38c-6.93,0-13.56-.93-19.91-2.78-6.35-1.86-11.46-4.27-15.33-7.23l6.8-15.09c3.71,2.64,8.1,4.8,13.17,6.49,5.07,1.69,10.2,2.54,15.4,2.54,3.96,0,7.15-.39,9.58-1.17,2.43-.78,4.22-1.87,5.38-3.28,1.15-1.4,1.73-3.01,1.73-4.82,0-2.31-.91-4.14-2.72-5.5-1.81-1.36-4.2-2.47-7.17-3.34s-6.25-1.69-9.83-2.47c-3.59-.78-7.17-1.75-10.76-2.91-3.59-1.15-6.86-2.64-9.83-4.45-2.97-1.81-5.38-4.2-7.23-7.17-1.86-2.97-2.78-6.76-2.78-11.38,0-4.95,1.34-9.46,4.02-13.54,2.68-4.08,6.72-7.34,12.12-9.77,5.4-2.43,12.18-3.65,20.34-3.65,5.44,0,10.8.64,16.08,1.92,5.28,1.28,9.93,3.2,13.97,5.75l-6.18,15.21c-4.04-2.31-8.08-4.02-12.12-5.13-4.04-1.11-8-1.67-11.87-1.67s-7.05.45-9.52,1.36c-2.47.91-4.25,2.08-5.32,3.52-1.07,1.44-1.61,3.11-1.61,5.01,0,2.23.91,4.02,2.72,5.38,1.81,1.36,4.2,2.45,7.17,3.28,2.97.83,6.24,1.65,9.83,2.47,3.59.83,7.17,1.77,10.76,2.84,3.59,1.07,6.86,2.52,9.83,4.33,2.97,1.81,5.38,4.2,7.23,7.17,1.85,2.97,2.78,6.72,2.78,11.25,0,4.87-1.36,9.32-4.08,13.36-2.72,4.04-6.78,7.3-12.18,9.77-5.4,2.47-12.22,3.71-20.47,3.71Z"></path><path class="cls-4" d="m1059.98,278.68v-14.84h46.13v14.84h-46.13Zm35.12,51.2c-7.83,0-13.93-2-18.3-6-4.37-4-6.55-9.95-6.55-17.87v-58.37h19.29v58.12c0,2.8.74,4.97,2.23,6.49,1.48,1.53,3.5,2.29,6.06,2.29,3.05,0,5.65-.82,7.79-2.47l5.19,13.6c-1.98,1.4-4.35,2.45-7.11,3.15-2.76.7-5.63,1.05-8.59,1.05Z"></path><path class="cls-4" d="m1142.22,329.88c-5.19,0-9.65-.89-13.36-2.66s-6.55-4.18-8.53-7.23c-1.98-3.05-2.97-6.47-2.97-10.26s.97-7.42,2.91-10.39c1.94-2.97,5.01-5.3,9.21-6.99,4.2-1.69,9.69-2.54,16.45-2.54h17.68v11.25h-15.58c-4.53,0-7.65.74-9.34,2.23-1.69,1.48-2.54,3.34-2.54,5.56,0,2.47.97,4.43,2.91,5.87,1.94,1.44,4.6,2.16,7.98,2.16s6.1-.76,8.66-2.29c2.55-1.52,4.41-3.77,5.56-6.74l2.97,8.9c-1.4,4.29-3.96,7.54-7.67,9.77-3.71,2.23-8.49,3.34-14.34,3.34Zm20.28-.99v-12.98l-1.24-2.84v-23.25c0-4.12-1.26-7.34-3.77-9.65-2.52-2.31-6.37-3.46-11.56-3.46-3.55,0-7.03.56-10.45,1.67-3.42,1.11-6.33,2.62-8.72,4.51l-6.93-13.48c3.63-2.55,8-4.53,13.11-5.94,5.11-1.4,10.3-2.1,15.58-2.1,10.14,0,18.01,2.39,23.62,7.17,5.61,4.78,8.41,12.24,8.41,22.38v37.96h-18.05Z"></path><path class="cls-4" d="m1238.43,261.37c5.28,0,10,1.05,14.16,3.15,4.16,2.1,7.44,5.32,9.83,9.65,2.39,4.33,3.59,9.87,3.59,16.63v38.09h-19.29v-35.12c0-5.36-1.17-9.32-3.52-11.87-2.35-2.55-5.67-3.83-9.95-3.83-3.05,0-5.79.64-8.22,1.92-2.43,1.28-4.33,3.24-5.69,5.87-1.36,2.64-2.04,6.02-2.04,10.14v32.89h-19.29v-66.53h18.43v18.43l-3.46-5.56c2.39-4.45,5.81-7.87,10.26-10.26,4.45-2.39,9.52-3.59,15.21-3.59Z"></path><path class="cls-4" d="m1312.01,329.88c-6.27,0-11.91-1.42-16.94-4.27-5.03-2.84-9.01-6.82-11.93-11.93-2.93-5.11-4.39-11.13-4.39-18.05s1.46-13.07,4.39-18.18c2.93-5.11,6.9-9.07,11.93-11.87,5.03-2.8,10.68-4.2,16.94-4.2,5.61,0,10.51,1.24,14.72,3.71,4.2,2.47,7.46,6.23,9.77,11.25,2.31,5.03,3.46,11.46,3.46,19.29s-1.11,14.16-3.34,19.23c-2.23,5.07-5.42,8.84-9.58,11.31-4.16,2.47-9.17,3.71-15.02,3.71Zm3.34-15.83c3.13,0,5.98-.74,8.53-2.23,2.55-1.48,4.6-3.61,6.12-6.37,1.52-2.76,2.29-6.04,2.29-9.83s-.76-7.17-2.29-9.89c-1.53-2.72-3.57-4.82-6.12-6.31-2.56-1.48-5.4-2.23-8.53-2.23s-6.1.74-8.66,2.23c-2.56,1.48-4.6,3.59-6.12,6.31-1.53,2.72-2.29,6.02-2.29,9.89s.76,7.07,2.29,9.83c1.52,2.76,3.56,4.88,6.12,6.37,2.55,1.48,5.44,2.23,8.66,2.23Zm17.44,14.84v-13.6l.37-19.79-1.24-19.66v-38.71h19.29v91.76h-18.43Z"></path><path class="cls-4" d="m1389.54,329.88c-5.19,0-9.65-.89-13.36-2.66s-6.55-4.18-8.53-7.23c-1.98-3.05-2.97-6.47-2.97-10.26s.97-7.42,2.91-10.39c1.94-2.97,5.01-5.3,9.21-6.99,4.2-1.69,9.69-2.54,16.45-2.54h17.68v11.25h-15.58c-4.53,0-7.65.74-9.34,2.23-1.69,1.48-2.54,3.34-2.54,5.56,0,2.47.97,4.43,2.91,5.87,1.94,1.44,4.6,2.16,7.98,2.16s6.1-.76,8.66-2.29c2.55-1.52,4.41-3.77,5.56-6.74l2.97,8.9c-1.4,4.29-3.96,7.54-7.67,9.77-3.71,2.23-8.49,3.34-14.34,3.34Zm20.28-.99v-12.98l-1.24-2.84v-23.25c0-4.12-1.26-7.34-3.77-9.65-2.52-2.31-6.37-3.46-11.56-3.46-3.55,0-7.03.56-10.45,1.67-3.42,1.11-6.33,2.62-8.72,4.51l-6.93-13.48c3.63-2.55,8-4.53,13.11-5.94,5.11-1.4,10.3-2.1,15.58-2.1,10.14,0,18.01,2.39,23.62,7.17,5.61,4.78,8.41,12.24,8.41,22.38v37.96h-18.05Z"></path><path class="cls-4" d="m1445.31,328.89v-66.53h18.43v18.8l-2.6-5.44c1.98-4.7,5.15-8.26,9.52-10.7,4.37-2.43,9.69-3.65,15.95-3.65v17.81c-.82-.08-1.57-.14-2.23-.19-.66-.04-1.36-.06-2.1-.06-5.28,0-9.54,1.5-12.8,4.51-3.26,3.01-4.88,7.69-4.88,14.04v31.41h-19.29Z"></path><path class="cls-4" d="m1527.18,329.88c-6.27,0-11.91-1.42-16.94-4.27-5.03-2.84-9.01-6.82-11.93-11.93-2.93-5.11-4.39-11.13-4.39-18.05s1.46-13.07,4.39-18.18c2.93-5.11,6.9-9.07,11.93-11.87,5.03-2.8,10.68-4.2,16.94-4.2,5.61,0,10.51,1.24,14.72,3.71,4.2,2.47,7.46,6.23,9.77,11.25,2.31,5.03,3.46,11.46,3.46,19.29s-1.11,14.16-3.34,19.23c-2.23,5.07-5.42,8.84-9.58,11.31-4.16,2.47-9.17,3.71-15.02,3.71Zm3.34-15.83c3.13,0,5.98-.74,8.53-2.23,2.55-1.48,4.6-3.61,6.12-6.37,1.52-2.76,2.29-6.04,2.29-9.83s-.76-7.17-2.29-9.89c-1.53-2.72-3.57-4.82-6.12-6.31-2.56-1.48-5.4-2.23-8.53-2.23s-6.1.74-8.66,2.23c-2.56,1.48-4.6,3.59-6.12,6.31-1.53,2.72-2.29,6.02-2.29,9.89s.76,7.07,2.29,9.83c1.52,2.76,3.56,4.88,6.12,6.37,2.55,1.48,5.44,2.23,8.66,2.23Zm17.44,14.84v-13.6l.37-19.79-1.24-19.66v-38.71h19.29v91.76h-18.43Z"></path><path class="cls-4" d="m1606.57,329.88c-5.69,0-11.15-.68-16.39-2.04-5.24-1.36-9.38-3.07-12.43-5.13l6.43-13.85c3.05,1.9,6.66,3.44,10.82,4.64,4.16,1.2,8.26,1.79,12.3,1.79,4.45,0,7.61-.54,9.46-1.61,1.86-1.07,2.78-2.55,2.78-4.45,0-1.57-.72-2.74-2.16-3.52-1.44-.78-3.36-1.38-5.75-1.79-2.39-.41-5.01-.82-7.85-1.24-2.84-.41-5.71-.97-8.59-1.67-2.89-.7-5.52-1.75-7.91-3.15-2.39-1.4-4.31-3.3-5.75-5.69-1.44-2.39-2.16-5.48-2.16-9.27,0-4.2,1.22-7.91,3.65-11.13,2.43-3.22,5.95-5.75,10.57-7.61,4.62-1.86,10.14-2.78,16.57-2.78,4.53,0,9.15.49,13.85,1.48,4.7.99,8.61,2.43,11.75,4.33l-6.43,13.73c-3.22-1.9-6.45-3.19-9.71-3.9-3.26-.7-6.41-1.05-9.46-1.05-4.29,0-7.42.58-9.4,1.73-1.98,1.16-2.97,2.64-2.97,4.45,0,1.65.72,2.89,2.16,3.71,1.44.83,3.36,1.48,5.75,1.98,2.39.49,5.01.93,7.85,1.3s5.71.93,8.59,1.67c2.88.74,5.5,1.79,7.85,3.15,2.35,1.36,4.27,3.22,5.75,5.56s2.23,5.42,2.23,9.21c0,4.12-1.24,7.77-3.71,10.94-2.47,3.17-6.04,5.67-10.7,7.48-4.66,1.81-10.33,2.72-17,2.72Z"></path><path class="cls-4" d="m1299.39,596.99v-30.49c23.2,0,43.52,12.33,54.77,30.78l-54.77-.19"></path><rect class="cls-4" x="1269.96" y="573.25" width="11" height="4.69" transform="translate(-33.44 1070.47) rotate(-45)"></rect><rect class="cls-4" x="1277.85" y="566.5" width="21.53" height="30.49"></rect><rect class="cls-4" x="1260.35" y="566.5" width="30.49" height="4.69"></rect><rect class="cls-6" x="1264" y="549.48" width="11.42" height="56.66" transform="translate(-54.39 1016.88) rotate(-42.81)"></rect><polygon class="cls-4" points="1243.22 552.82 1246.27 560.91 1254.65 553.15 1246.82 549.49 1243.22 552.82"></polygon><polygon class="cls-6" points="1240.93 546.74 1243.22 552.82 1246.82 549.49 1240.93 546.74"></polygon><rect class="cls-4" x="1267.43" y="551.27" width=".67" height="56.66" transform="translate(-56.14 1016) rotate(-42.81)"></rect><rect class="cls-4" x="1271.33" y="547.65" width=".67" height="56.66" transform="translate(-52.63 1017.72) rotate(-42.81)"></rect><rect class="cls-4" x="1260.35" y="566.5" width="30.49" height="4.69"></rect><rect class="cls-4" x="1264.51" y="578.68" width="11" height="4.69" transform="translate(-55.72 1020.32) rotate(-42.92)"></rect><rect class="cls-4" x="1270.36" y="584.98" width="11" height="4.69" transform="translate(-58.43 1026.01) rotate(-42.92)"></rect><rect class="cls-4" x="1276.22" y="591.28" width="11" height="4.69" transform="translate(-61.16 1031.66) rotate(-42.92)"></rect><g class="cls-9"><path class="cls-6" d="m1354.16,597.29c5.92,9.71,9.32,21.11,9.32,33.31v66.22c-35.4,0-64.09-28.69-64.09-64.09v-35.73"></path><rect class="cls-4" x="1296.02" y="597.58" width="62.42" height=".35"></rect></g><path class="cls-4" d="m420.95,578.58c-.14,0-.29-.04-.41-.14-2.88-2.19-6.29-3.64-9.86-4.19-.37-.06-.62-.4-.56-.77.06-.37.4-.62.77-.56,3.8.58,7.42,2.12,10.47,4.44.3.22.35.65.13.94-.13.17-.33.27-.54.27Z"></path><path class="cls-4" d="m410.79,618.78c-.33,0-.61-.24-.66-.57-.06-.37.2-.71.56-.77,3.33-.51,6.55-1.82,9.3-3.77.3-.22.72-.14.94.16.22.3.14.72-.16.94-2.92,2.08-6.33,3.46-9.87,4-.03,0-.07,0-.1,0Z"></path><path class="cls-4" d="m429.61,593.09c-.33,0-.61-.24-.66-.57-.51-3.33-1.81-6.54-3.77-9.3-.22-.3-.14-.72.16-.94.3-.22.72-.14.94.16,2.08,2.92,3.46,6.34,4,9.88.06.37-.2.71-.56.77-.03,0-.07,0-.1,0Z"></path><path class="cls-4" d="m425.3,610.12c-.14,0-.29-.04-.41-.14-.3-.22-.35-.65-.13-.94,2.19-2.87,3.63-6.28,4.18-9.86.06-.37.4-.62.77-.56.37.06.62.4.56.77-.58,3.8-2.12,7.42-4.44,10.47-.13.17-.33.27-.54.27Z"></path><path class="cls-4" d="m394.34,578.16c-.21,0-.42-.1-.55-.28-.22-.3-.14-.72.16-.94,2.93-2.08,6.34-3.47,9.88-4.01.36-.05.71.2.77.56.06.37-.2.71-.56.77-3.33.51-6.54,1.81-9.3,3.77-.12.08-.25.12-.39.12Z"></path><path class="cls-4" d="m403.93,618.78s-.07,0-.1,0c-3.79-.58-7.41-2.12-10.47-4.44-.3-.22-.35-.65-.13-.94.22-.29.65-.35.94-.13,2.88,2.19,6.29,3.64,9.86,4.19.37.06.62.4.56.77-.05.33-.34.57-.66.57Z"></path><path class="cls-4" d="m388.99,609.54c-.21,0-.42-.1-.55-.28-2.08-2.92-3.46-6.33-4-9.87-.06-.37.2-.71.56-.77.36-.06.71.19.77.56.51,3.33,1.82,6.55,3.77,9.3.22.3.14.72-.16.94-.12.08-.25.12-.39.12Z"></path><path class="cls-4" d="m385.1,593.09s-.07,0-.1,0c-.37-.06-.62-.4-.56-.77.58-3.78,2.12-7.41,4.44-10.47.22-.3.65-.36.94-.13.3.22.35.65.13.94-2.19,2.89-3.63,6.3-4.18,9.86-.05.33-.34.57-.66.57Z"></path><path class="cls-6" d="m390.93,490.91c-.18,0-.37-.07-.5-.22l-13.99-15.46c-.25-.28-.23-.7.05-.95.28-.25.7-.23.95.05l13.99,15.46c.25.28.23.7-.05.95-.13.12-.29.17-.45.17Z"></path><circle class="cls-6" cx="1665.29" cy="627.29" r="6.44" transform="translate(-107.89 477.24) rotate(-15.8)"></circle><path class="cls-4" d="m1546.9,414.6c0-7.47-6.06-13.53-13.53-13.53s-13.53,6.06-13.53,13.53,6.06,13.53,13.53,13.53,13.53-6.06,13.53-13.53Z"></path><path class="cls-6" d="m1469.73,471.86c.16.16,4.28,4.61,15.3,5.76-3.46,26.66,10.7,21.72,10.7,21.72,2.63-2.47,2.47,77.84,2.47,77.84,0,0,10.2-2.96,22.54.99,4.11,1.32,8.56,3.46,12.84,6.75,8.39,6.25,16.62,16.46,22.54,33.57.49.99.82,2.14,1.15,3.13,1.32.16,2.8.16,4.11.16,22.38,0,40.65-18.1,40.65-40.64,0-20.9-15.63-38.01-35.87-40.48,6.58-9.71,12.18-39.66-10.7-56.11-22.05-15.96-43.11-7.08-48.38-4.44-.49-.99-11.52-21.23-37.19-10.53-.49.16-.66.49-.82.99,0,.33,0,.82.66,1.32Z"></path><path class="cls-4" d="m1457.39,496.89s2.03-17.95,17.33-21.65c3.21-.78,7-.93,11.49-.16,0,0,1.62,18.09,22.12,24.95,3.19-2.44,7.38-3.44,11.47-2.52.68.15,1.36.36,2.03.62,7.13,2.79,10.65,10.84,7.86,17.97-2.79,7.13-10.85,10.65-17.97,7.85-2.63-1.03-4.76-2.77-6.27-4.91l1.2,55.85s-20.14,6.86-36.85-6.18l1.11-29.89s-26.04-5.9-14.78-34.62c0,0-4.38-1.63-3.61-4.76.77-3.13,4.89-2.55,4.89-2.55Z"></path><path class="cls-2" d="m1510.24,511.58c-.35,0-.65-.27-.67-.63-.02-.37.26-.69.63-.71l10.74-.66c.37-.02.69.26.71.63s-.26.69-.63.71l-10.74.66s-.03,0-.04,0Z"></path><path class="cls-2" d="m1472.62,539.23c-.56,0-1.14-.02-1.74-.06-.19-.01-.32-.17-.31-.36.01-.19.18-.33.36-.31,10.46.76,15.66-5.73,15.71-5.79.11-.15.32-.17.47-.06.15.11.17.33.06.47-.05.06-4.88,6.11-14.55,6.11Z"></path><path class="cls-2" d="m1474.37,493.99c1.91-.29,3.06-3.12,2.57-6.33-.49-3.21-2.42-5.58-4.33-5.29-1.91.29-3.06,3.12-2.57,6.33.49,3.21,2.42,5.58,4.33,5.29Z"></path><circle class="cls-2" cx="1465.07" cy="495.55" r="1.9"></circle><path class="cls-2" d="m1464.22,510.14c-.92,0-1.89-.16-2.9-.48-.35-.11-.55-.49-.44-.84.11-.35.49-.55.84-.44,2.05.65,3.84.54,5.34-.33,2.96-1.71,3.87-5.79,3.88-5.83.08-.36.44-.59.8-.51.36.08.59.44.51.8-.04.19-1.06,4.71-4.52,6.71-1.07.62-2.25.93-3.52.93Z"></path><polygon class="cls-2" points="1471.53 539.9 1471.49 550.22 1481.81 538 1471.53 539.9"></polygon><path class="cls-6" d="m1489.79,505.23c.65-1.67-.17-3.55-1.84-4.2-1.67-.65-3.55.17-4.2,1.84-.65,1.67.17,3.55,1.84,4.2s3.55-.17,4.2-1.84Z"></path><path class="cls-6" d="m1389.64,621.09c-6.41-29.64,16.18-57.63,46.51-57.63h128.77v206.33h-143.14s-32.13-148.7-32.13-148.7Z"></path><polygon class="cls-4" points="1564.92 789.87 1596.4 989.95 1558.86 1004.07 1500.9 813.14 1486.12 813.14 1486.12 1004.07 1446.26 1004.07 1422.1 813.14 1422.1 789.87 1564.92 789.87"></polygon><path class="cls-6" d="m1554.53,989.95v12.34c0,11.27-8.2,21.4-19.43,22.5-.78.07-1.58.11-2.38.11v6.29s50.1,0,50.1,0v-10.04s13.58,10.04,13.58,10.04v-20.09s0-21.15,0-21.15h-41.87Z"></path><path class="cls-6" d="m1444.33,989.95v12.34c0,11.27-8.2,21.4-19.43,22.5-.78.07-1.58.11-2.38.11v6.29s50.1,0,50.1,0v-10.04s13.58,10.04,13.58,10.04v-20.09s0-21.15,0-21.15h-41.87Z"></path><polygon class="cls-6" points="1393.07 887.17 1581.16 887.17 1565.27 769.29 1421.92 769.29 1393.07 887.17"></polygon><path class="cls-4" d="m1515.72,595.71c-9.03,7.82-22.7,7.47-31.29-1.12-8.59-8.58-8.94-22.25-1.12-31.29l32.41,32.41Z"></path><path class="cls-4" d="m1483.17,563.3c7.83,9.03,7.47,22.7-1.12,31.29-8.58,8.59-22.25,8.94-31.29,1.12l32.4-32.41Z"></path><path class="cls-2" d="m1480.1,617.51c0-1.02.83-1.84,1.85-1.84,1.02,0,1.84.83,1.84,1.84,0,1.02-.83,1.84-1.84,1.84-1.02,0-1.85-.83-1.85-1.84"></path><path class="cls-2" d="m1480.1,649.06c0-1.02.83-1.85,1.85-1.85s1.84.83,1.84,1.85c0,1.02-.83,1.84-1.84,1.84-1.02,0-1.85-.83-1.85-1.84"></path><path class="cls-2" d="m1480.1,680.62c0-1.02.83-1.85,1.85-1.85,1.02,0,1.84.83,1.84,1.85s-.83,1.84-1.84,1.84c-1.02,0-1.85-.83-1.85-1.84"></path><path class="cls-2" d="m1480.1,712.17c0-1.01.83-1.84,1.85-1.84,1.02,0,1.84.83,1.84,1.84,0,1.02-.83,1.85-1.84,1.85-1.02,0-1.85-.83-1.85-1.85"></path><path class="cls-2" d="m1480.1,743.72c0-1.02.83-1.84,1.85-1.84s1.84.83,1.84,1.84-.83,1.85-1.84,1.85c-1.02,0-1.85-.83-1.85-1.85"></path><path class="cls-6" d="m1624.79,788.4h0v-163.34c0-33.97-27.5-61.53-61.47-61.61h0v163.6c0,33.94,27.55,61.43,61.48,61.35"></path><rect class="cls-4" x="1594.34" y="777.44" width="30.45" height="25.33"></rect><rect class="cls-4" x="1620.11" y="789.8" width="4.69" height="26.47"></rect><rect class="cls-4" x="1611.5" y="789.8" width="4.69" height="26.47"></rect><rect class="cls-4" x="1602.91" y="789.8" width="4.69" height="26.47"></rect><rect class="cls-4" x="1594.3" y="789.8" width="4.69" height="26.47"></rect><path class="cls-6" d="m1401.48,578.15c.2.12.4.21.6.33,30.79,19.02,40.34,59.41,21.31,90.2-19.02,30.79-59.41,40.33-90.2,21.31-.19-.12-.37-.26-.56-.39l68.85-111.45Z"></path><path class="cls-6" d="m545.17,531.84c9.51-6.14,17.03-32.68,17.03-32.68,5.4,12.07.38,28.63.38,28.63l12.84,2.15s6.64-5.79,2.93-23.7c-3.7-17.91-1.32-18.61,3.33-29.14,2.27-5.08.63-11.7-4.53-14.39-4.48-2.29-10.21-.99-14.5,1.52-8.36,4.9-12.87,14.28-15.29,23.28-7.84,29.01-21.42,28.03-21.42,28.03l19.23,16.29Z"></path><path class="cls-6" d="m600.85,461.37c-.17-.17-16.68-10.32-33.35,0q-.17.17-.34.34c-15.99,7.74-12.03,25.44-11.69,26.13,0,0,12.13,12.45,20.71.05,14.35-8.45,15.99-22.64,15.99-22.64,0,0-.1-.01-.26-.03,2.62-.24,5.41-.58,8.44-1.11.69-.17,1.03-.69,1.2-1.2,0-.69-.17-1.2-.69-1.55Z"></path><path class="cls-4" d="m796.3,558.37h0l-.15,27.1-44.33-.25c8.36-16.04,25.15-26.96,44.48-26.85"></path><rect class="cls-4" x="803.91" y="550.78" width="3.27" height="18.5" transform="translate(240.97 1362.39) rotate(-89.68)"></rect><rect class="cls-4" x="779.13" y="565.91" width="21.29" height="17.7" transform="translate(210.53 1361.26) rotate(-89.67)"></rect><rect class="cls-4" x="795.64" y="556.55" width="3.27" height="18.5" transform="translate(226.96 1359.86) rotate(-89.67)"></rect><rect class="cls-4" x="795.61" y="562.57" width="3.28" height="18.5" transform="translate(220.94 1365.82) rotate(-89.68)"></rect><rect class="cls-4" x="795.58" y="568.58" width="3.28" height="18.5" transform="translate(214.87 1371.75) rotate(-89.67)"></rect><rect class="cls-4" x="795.54" y="574.59" width="3.28" height="18.5" transform="translate(208.82 1377.69) rotate(-89.67)"></rect><path class="cls-4" d="m563.46,517.38c-7.76,2.84-16.37-1.15-19.21-8.91-2.84-7.76,1.15-16.36,8.91-19.2.73-.27,1.47-.48,2.2-.62,3.1-.63,6.22-.24,8.98.98,1.19.52,2.32,1.2,3.33,2.02,22.3-6.91,24.48-26.39,24.48-26.39,4.86-.73,9.36.19,12.72,1.4,15.77,5.65,17.86,22.83,17.86,22.83,0,0,4.46-.53,5.21,2.87.75,3.4-4.01,5.05-4.01,5.05,11.45,31.27-16.79,37.01-16.79,37.01l.48,32.28c-18.35,13.67-39.92,5.78-39.92,5.78l2.64-60.25c-1.68,2.28-4.02,4.1-6.88,5.15Z"></path><path class="cls-2" d="m565.37,504.01s-.04,0-.06,0l-11.58-.97c-.37-.03-.64-.36-.61-.73.03-.37.35-.65.73-.61l11.58.97c.37.03.64.36.61.73-.03.35-.32.62-.67.62Z"></path><path class="cls-2" d="m605.85,534.79c-10.81,0-16.04-6.87-16.1-6.95-.11-.15-.08-.36.07-.47.15-.11.36-.08.47.07.05.07,5.52,7.21,16.84,6.64.18-.01.34.13.35.32,0,.19-.13.34-.32.35-.45.02-.89.03-1.31.03Z"></path><path class="cls-2" d="m615.24,503.56c-1.44,0-2.76-.36-3.94-1.08-3.67-2.23-4.66-7.11-4.7-7.31-.07-.36.17-.72.53-.79.37-.07.72.17.79.53,0,.04.92,4.51,4.08,6.43,1.61.98,3.56,1.14,5.79.48.36-.11.73.1.83.46.1.36-.1.73-.46.83-1.03.3-2.01.45-2.94.45Z"></path><path class="cls-2" d="m616.06,486.83c-.34-.92-1.36-1.4-2.28-1.06-.92.34-1.4,1.36-1.06,2.28.34.92,1.36,1.4,2.28,1.06.92-.34,1.4-1.36,1.06-2.28Z"></path><path class="cls-2" d="m609.88,483.75c.8-3.23.03-6.2-1.7-6.63-1.74-.43-3.79,1.85-4.58,5.08-.8,3.23-.03,6.2,1.7,6.63s3.79-1.85,4.58-5.08Z"></path><polygon class="cls-2" points="607.17 535.74 607.33 546.94 594.81 532.41 607.17 535.74"></polygon><path class="cls-4" d="m599.35,494.85c-.66-1.82-2.68-2.75-4.49-2.08s-2.75,2.68-2.08,4.49c.66,1.82,2.67,2.75,4.49,2.08,1.81-.66,2.75-2.68,2.08-4.49Z"></path><path class="cls-4" d="m570.91,559.89c.15,9.68,8.02,17.47,17.73,17.47s17.58-7.8,17.73-17.47h-35.46Z"></path><path class="cls-6" d="m569.25,757.37h1.42s34.32,0,34.32,0h1.42s56.93,0,56.93,0v197.52c0,24.97-20.24,45.2-45.2,45.2h-13.14v-190.11c0-9.48-7.68-17.16-17.16-17.16-9.48,0-17.16,7.68-17.16,17.16v144.89c0,24.97-20.25,45.22-45.22,45.22h-13.13v-242.73h56.93Z"></path><path class="cls-6" d="m660.55,627.65v-68.52h1.45c35.05,0,63.46,28.41,63.46,63.46v68.52h-1.45c-35.05,0-63.46-28.41-63.46-63.46"></path><path class="cls-4" d="m790.37,559.13h0v26.67h-52.37c11.81-16.14,30.84-26.67,52.37-26.67"></path><path class="cls-6" d="m738.01,585.8h52.37v22.4h-62.93c2.07-8.19,5.71-15.77,10.56-22.4"></path><path class="cls-6" d="m790.37,608.2v18c0,35.85-29.06,64.91-64.91,64.91v-67.06c0-5.48.7-10.78,1.98-15.85h62.93Z"></path><g class="cls-8"><rect class="cls-5" x="723.6" y="616.2" width="68.64" height="1.35"></rect></g><rect class="cls-2" x="520.11" y="560.03" width="138.92" height="197.34"></rect><path class="cls-4" d="m647.48,1010.82h-42.7s0,9.68,0,9.68c0,5.9,4.78,10.68,10.68,10.68h54.13s0-6.37,0-6.37c-9.76,0-18.17-5.73-22.11-13.99"></path><path class="cls-4" d="m514.92,739.72v27.39c-21.86,0-41.14-10.84-52.91-27.39h52.91Z"></path><path class="cls-6" d="m514.92,721.21v18.5h-52.91c-3.96-5.58-7.05-11.81-9.11-18.5h62.02Z"></path><path class="cls-6" d="m450.01,702.2v-13.62s0-64.54,0-64.54c0-35.85,29.06-64.91,64.91-64.91v129.45s0,32.63,0,32.63h-62.02c-1.86-6.01-2.89-12.39-2.89-19.01"></path><g class="cls-7"><rect class="cls-5" x="448.06" y="710.55" width="68.64" height="1.35"></rect></g><rect class="cls-4" x="512.32" y="747.1" width="151.02" height="10.27"></rect><rect class="cls-6" x="604.78" y="989.37" width="42.8" height="21.44"></rect><path class="cls-4" d="m554.84,1010.82h-42.7s0,9.68,0,9.68c0,5.9,4.78,10.68,10.68,10.68h54.13s0-6.37,0-6.37c-9.76,0-18.17-5.73-22.11-13.99"></path><rect class="cls-6" x="512.14" y="989.37" width="42.8" height="21.44"></rect><path class="cls-6" d="m655.58,770.25h7.76s0-211.11,0-211.11h-52.56s0,166.31,0,166.31c0,24.74,20.06,44.8,44.8,44.8"></path><path class="cls-6" d="m519.9,770.25h-7.76v-211.11h52.56v166.31c0,24.74-20.06,44.8-44.8,44.8"></path><path class="cls-4" d="m607.59,558.55c-.16,10.76-8.92,19.44-19.73,19.44-10.8,0-19.56-8.67-19.72-19.44h39.45Z"></path><rect class="cls-4" x="496.67" y="746.8" width="30.88" height="30.85" transform="translate(-388.98 585.37) rotate(-45)"></rect><rect class="cls-4" x="530.07" y="750.66" width="4.75" height="26.84" transform="translate(-384.34 600.29) rotate(-45)"></rect><rect class="cls-4" x="523.9" y="756.83" width="4.75" height="26.84" transform="translate(-390.48 597.63) rotate(-44.99)"></rect><rect class="cls-4" x="517.73" y="763" width="4.75" height="26.83" transform="translate(-396.69 595.29) rotate(-45.01)"></rect><rect class="cls-4" x="511.57" y="769.16" width="4.75" height="26.84" transform="translate(-402.84 592.63) rotate(-45)"></rect><rect class="cls-4" x="520.54" y="608.2" width="24" height="4.63"></rect><rect class="cls-4" x="1015.96" y="472.18" width="1.35" height="47.27" transform="translate(-109.08 606.02) rotate(-31.59)"></rect><rect class="cls-4" x="1062.33" y="469.05" width="1.35" height="46.89"></rect><rect class="cls-4" x="1083.23" y="495.14" width="43.15" height="1.35" transform="translate(244.66 1348.2) rotate(-68.91)"></rect><path class="cls-6" d="m977.19,1011.94c-.25-27.14,8.49-50.44,25.29-67.39,17.07-17.23,41.62-26.72,69.13-26.72h56.66c17.2,0,31.19-12.26,31.19-27.34s-13.99-27.34-31.19-27.34l-146.95-.02-71.85-.02c-45,0-81.62-34.98-81.62-77.99s36.62-77.99,81.63-77.99h68.04v50.44h-68.04c-17.2,0-31.19,12.36-31.19,27.55s13.99,27.55,31.19,27.55l71.85.02,146.94.02c45.01,0,81.62,34.89,81.62,77.78s-36.62,77.78-81.63,77.78h-56.66c-13.94,0-25.77,4.18-33.3,11.78-7.21,7.28-10.8,17.85-10.68,31.42l-50.44.47Z"></path><path class="cls-6" d="m974.83,757.57c-.38,0-.75,0-1.13,0l.47-50.44c13.43.14,23.93-3.43,31.14-10.58,7.53-7.46,11.67-19.18,11.67-33.01v-56.34h50.44v56.34c0,27.39-9.45,51.83-26.61,68.84-16.64,16.49-39.44,25.19-65.98,25.19Z"></path><g class="cls-10"><path class="cls-6" d="m1086.59,1092.32h-30.33c-44.48-.31-79.02-37.64-79.06-82.22h50.33c0,9.17,3.56,17.25,9.02,23.01,5.52,5.76,12.43,8.87,19.7,8.87h30.33v50.33h0Z"></path></g><polygon class="cls-4" points="1132.28 573.24 1095.84 573.24 1095.84 580.15 1132.28 580.15 1129.46 576.69 1132.28 573.24"></polygon><path class="cls-2" d="m1056.67,590.37c0-1.38-1.12-2.49-2.49-2.49s-2.49,1.12-2.49,2.49,1.12,2.49,2.49,2.49,2.49-1.12,2.49-2.49"></path><path class="cls-6" d="m1107.24,558.43c-8.19-8.29-18.8-11.47-29.85-13.17-12.67-1.95-27.19-4.22-39.63,2.06-11.32,5.72-18.51,12.86-20.25,26.6-.75,14.44-.52,40.61-.52,40.61l50.36,1.21s-1.69-18.33,6.75-21.23c7.23.17,14.47,1.12,21.68-.13,8.44-1.47,14.8-5.95,17.3-14.22,2.46-8.14.17-15.64-5.84-21.73Z"></path><path class="cls-2" d="m1077.94,560.18c-.09.19-1.95,6.11.23,7.75.4.3,1.04.27,1.52-.16,1.71-1.5-.52-4.99-1.75-7.59Z"></path></svg>