<svg xmlns="http://www.w3.org/2000/svg" id="Layer_1" data-name="Layer 1" viewBox="0 0 700 700"><defs><style>.cls-1{fill:#452391;}.cls-1,.cls-2,.cls-3{stroke:#202124;stroke-miterlimit:10;stroke-width:2px;}.cls-2{fill:#fff;}.cls-3{fill:#973896;}.cls-4{fill:none;stroke:#020f14;stroke-linecap:round;stroke-linejoin:round;stroke-width:2.81px;}</style></defs><path class="cls-1" d="M199.84,366.75h-.67a13.37,13.37,0,0,1-4.7-10.75c.67-39.62,1.34-77.91,2.69-109.47v-.67a11.66,11.66,0,0,1,4-8.06c39.62-32.91,67.16-53.73,68.5-46.35C271,197.5,220,247.2,220,247.2c2,27.53,2.69,61.12,2.69,95.37v14.1s108.8,88.66,104.77,94c-4,6-56.42-28.21-108.13-66.49Z"></path><path class="cls-2" d="M667.27,293.54c-12.76-6.72-71.86-36.27-78.58-39.63-3.58-1.49-525.2-2-525.2-2a18.73,18.73,0,0,1-6.05.67,47.56,47.56,0,0,0-18.8,6.05c-.15.07-.29.15-.43.23a52.2,52.2,0,0,0-20.39,71,54.27,54.27,0,0,0,16.79,18.13,47.6,47.6,0,0,0,23.5,8.73H78.93c26.2,0,505.06-4,505.06-4h.45a9.18,9.18,0,0,0,5.43-1.95l77.4-40.36a7.81,7.81,0,0,0,4-4A9.82,9.82,0,0,0,667.27,293.54Z"></path><path class="cls-3" d="M672,292.57c-12.76-6.72-75.87-36.27-82.58-39.63-3.59-1.5-.71,98.73-.71,98.73h.45a9.15,9.15,0,0,0,5.43-1.95L672,309.36a7.85,7.85,0,0,0,4-4A9.84,9.84,0,0,0,672,292.57Z"></path><line class="cls-4" x1="74.23" y1="307.22" x2="563.55" y2="303.37"></line><path class="cls-1" d="M434.89,384.21c-51.71,38.28-104.1,72.53-108.13,66.49-4-5.37,104.78-94,104.78-94v-14.1c0-34.25.67-67.84,2.68-95.37,0,0-51-49.7-49.7-55.75,1.34-7.38,28.88,13.44,68.51,46.35a11.74,11.74,0,0,1,4,8.06v.67c1.34,31.56,2,69.85,2.68,109.47a13.34,13.34,0,0,1-4.7,10.75h-.67Z"></path></svg>