<svg version="1.1" viewBox="0.0 0.0 391.0 174.0" fill="none" stroke="none" stroke-linecap="square" stroke-miterlimit="10" xmlns:xlink="http://www.w3.org/1999/xlink" xmlns="http://www.w3.org/2000/svg"><clipPath id="p.0"><path d="m0 0l391.0 0l0 174.0l-391.0 0l0 -174.0z" clip-rule="nonzero"/></clipPath><g clip-path="url(#p.0)"><path fill="#ffffff" d="m0 0l391.0 0l0 174.0l-391.0 0z" fill-rule="evenodd"/><path fill="#000000" fill-opacity="0.0714" d="m223.47508 24.772778c-5.0198517 0 -10.136063 0.71253204 -15.225983 2.2047596c-28.093872 8.436487 -44.620804 38.060555 -36.87787 66.17634c6.3894196 23.688744 27.593063 39.089928 50.932846 39.089928c5.0242157 0 10.14772 -0.71398926 15.2434845 -2.2120514c28.788895 -7.764847 45.314377 -37.38746 36.877884 -66.152985c-6.3908997 -23.713566 -27.604752 -39.10599 -50.950363 -39.10599z" fill-rule="evenodd"/><path fill="#973896" d="m338.10355 31.118395c-0.4978943 0 -1.0118713 0.0686245 -1.5345764 0.21755409c-2.874939 0.85708237 -4.5438538 3.8473778 -3.7787476 6.7675858c0.7431946 2.585846 3.0048828 3.9627266 5.281189 3.9627266c1.8441162 0 3.696991 -0.9052658 4.755554 -2.803402c2.1200867 -3.788971 -0.7694702 -8.1444645 -4.723419 -8.1444645z" fill-rule="evenodd"/><path fill="#000000" fill-opacity="0.0714" d="m103.78005 101.86924l0 0c0.18543243 1.854332 0.4643097 3.7787552 0.78845215 5.609726l52.54772 52.522896c1.8076019 0.34750366 3.6853027 0.60302734 5.5849 0.81181335l-58.921074 -58.944435z" fill-rule="evenodd"/><path fill="#000000" fill-opacity="0.0714" d="m110.13151 66.10397c-0.5329437 1.0658722 -1.0206146 2.1551132 -1.4834671 3.2677078l86.52728 86.50538c1.0892334 -0.4409485 2.1565704 -0.950531 3.269165 -1.4834595l-88.31298 -88.28963z" fill-rule="evenodd"/><path fill="#000000" fill-opacity="0.0714" d="m169.40009 29.132652c-0.9038086 0 -1.7375183 0 -2.6194305 0.046722412l68.61034 68.563614c0.046722412 -1.5754547 0.046722412 -3.1523743 0 -4.7511826l-63.834335 -63.81243c-0.71836853 -0.046722412 -1.4382019 -0.046722412 -2.1565704 -0.046722412z" fill-rule="evenodd"/><path fill="#000000" fill-opacity="0.0714" d="m205.67639 40.004593l18.890839 18.890839c-2.480713 -3.7553902 -5.330841 -7.2318993 -8.4832 -10.407627c-3.1757355 -3.1757278 -6.653702 -6.027313 -10.407639 -8.4832115z" fill-rule="evenodd"/><path fill="#000000" fill-opacity="0.0714" d="m103.80341 87.891655c-0.13871002 1.4834671 -0.25552368 2.9669342 -0.3475113 4.4504013l68.72568 68.72568c1.5068359 -0.068618774 2.9902954 -0.1854248 4.47377 -0.34750366l-72.85194 -72.828575z" fill-rule="evenodd"/><path fill="#000000" fill-opacity="0.0714" d="m115.347 57.249893c-0.64974976 0.9505272 -1.2980347 1.8995972 -1.9010544 2.8968468l90.93241 90.930954c0.99580383 -0.6015625 1.9463196 -1.2513123 2.8968506 -1.8995972l-91.92821 -91.92821z" fill-rule="evenodd"/><path fill="#000000" fill-opacity="0.0714" d="m106.16732 76.186c-0.34750366 1.2294083 -0.6716461 2.480713 -0.9957886 3.7787476l79.41073 79.38883c1.2527618 -0.25552368 2.5507965 -0.60302734 3.7553864 -0.9738922l-82.17033 -82.19369z" fill-rule="evenodd"/><path fill="#000000" fill-opacity="0.0714" d="m182.03291 30.36206l52.17685 52.198753c-0.41758728 -2.1784744 -0.950531 -4.264969 -1.5535431 -6.374817l-44.24849 -44.271843c-2.109848 -0.6015644 -4.2416077 -1.1345024 -6.374817 -1.5520916z" fill-rule="evenodd"/><path fill="#000000" fill-opacity="0.0714" d="m108.53269 120.689995l0 0c6.7208633 15.923912 19.400414 28.580101 35.324318 35.30242l-35.324318 -35.30242z" fill-rule="evenodd"/><path fill="#000000" fill-opacity="0.0714" d="m158.3909 30.059818c-1.3213959 0.23215675 -2.666153 0.4876747 -3.9875488 0.78845596l79.27348 79.29538c0.30078125 -1.3432922 0.5796509 -2.6880493 0.8103485 -4.009445l-76.09628 -76.07439z" fill-rule="evenodd"/><path fill="#000000" fill-opacity="0.0714" d="m129.06906 42.854717l-2.619423 2.1799393l93.01745 93.017456c0.76509094 -0.8351898 1.4834595 -1.7623596 2.1799316 -2.6194305l-92.57796 -92.57796z" fill-rule="evenodd"/><path fill="#000000" fill-opacity="0.0714" d="m147.28825 32.958126c-1.1826782 0.4175911 -2.3420105 0.83372116 -3.4779663 1.3213959l86.458664 86.50392c0.4643097 -1.1593246 0.90379333 -2.3420029 1.3447418 -3.476509l-84.32544 -84.3488z" fill-rule="evenodd"/><path fill="#000000" fill-opacity="0.0714" d="m121.72036 49.55368c-0.81035614 0.8351784 -1.5754547 1.6922607 -2.2938232 2.527443l93.06417 93.062706c0.833725 -0.71836853 1.715622 -1.4834595 2.5259857 -2.2938232l-93.29633 -93.296326z" fill-rule="evenodd"/><path fill="#000000" fill-opacity="0.0714" d="m137.55228 37.291718c-0.9738922 0.5796623 -2.0164032 1.1826859 -2.9902954 1.7857094l90.8857 90.90759c0.64974976 -0.97387695 1.227951 -1.9930344 1.8076019 -3.013649l-89.703 -89.67965z" fill-rule="evenodd"/><path fill="#000000" d="m303.98526 123.03054c-1.0030823 0 -1.8382568 0.84832 -1.8382568 1.8557968c0 1.042511 0.83517456 1.8776932 1.8776855 1.8995972c1.0439758 0 1.8776855 -0.8570862 1.8776855 -1.876236c0 -1.0439758 -0.8337097 -1.8776932 -1.8776855 -1.8776932c-0.013153076 0 -0.026275635 -0.0014648438 -0.03942871 -0.0014648438z" fill-rule="evenodd"/><path fill="#000000" d="m345.1675 123.05537c-1.042511 0 -1.8995972 0.83371735 -1.8995972 1.876236c0 1.0439758 0.83374023 1.8776932 1.8777161 1.8776932c0.013122559 0.0014572144 0.026275635 0.0014572144 0.040863037 0.0014572144c1.0235596 0 1.8353577 -0.8497772 1.8353577 -1.8791504c0 -1.0191574 -0.8337097 -1.876236 -1.8543396 -1.876236z" fill-rule="evenodd"/><path fill="#000000" d="m304.0247 137.24028c-1.019165 0 -1.8776855 0.8351898 -1.8776855 1.8777008c0 1.042511 0.83517456 1.8777008 1.8776855 1.901062c1.0439758 0 1.8776855 -0.858551 1.8776855 -1.8777008c0 -1.0439758 -0.8337097 -1.901062 -1.8776855 -1.901062z" fill-rule="evenodd"/><path fill="#000000" d="m324.5844 137.24028c-1.042511 0 -1.8762207 0.8351898 -1.8995972 1.8777008c0 1.042511 0.8570862 1.8777008 1.8777161 1.901062c1.042511 0 1.8995972 -0.858551 1.8995972 -1.8777008c0 -1.0439758 -0.81036377 -1.8777008 -1.8543396 -1.901062z" fill-rule="evenodd"/><path fill="#000000" d="m345.14563 137.24028c-1.0439758 0 -1.8777161 0.8351898 -1.8777161 1.8777008c0 1.042511 0.83374023 1.8777008 1.8777161 1.901062c1.042511 0 1.8762207 -0.858551 1.8762207 -1.8777008c0 -1.0439758 -0.8337097 -1.901062 -1.8762207 -1.901062z" fill-rule="evenodd"/><path fill="#000000" d="m304.0247 151.47192c-1.019165 0 -1.8776855 0.8351898 -1.8776855 1.8777008c0 1.0439758 0.83517456 1.8777008 1.8776855 1.8777008c1.0439758 0 1.8776855 -0.833725 1.8776855 -1.8777008c0 -1.042511 -0.8337097 -1.8777008 -1.8776855 -1.8777008z" fill-rule="evenodd"/><path fill="#000000" d="m324.5844 151.47192c-1.042511 0 -1.8762207 0.8351898 -1.8995972 1.8777008c0 1.0439758 0.8570862 1.8777008 1.8777161 1.8777008c1.042511 0 1.8995972 -0.833725 1.8995972 -1.8777008c0 -1.042511 -0.83374023 -1.8777008 -1.8777161 -1.8777008z" fill-rule="evenodd"/><path fill="#000000" d="m345.14563 151.47192c-1.0439758 0 -1.8777161 0.8351898 -1.8777161 1.8777008c0 1.0439758 0.83374023 1.8777008 1.8777161 1.8777008c1.042511 0 1.8762207 -0.833725 1.8762207 -1.8777008c0 -1.042511 -0.8337097 -1.8777008 -1.8762207 -1.8777008z" fill-rule="evenodd"/><path fill="#000000" d="m304.0247 165.68167c-1.019165 0 -1.8776855 0.833725 -1.8776855 1.876236c0 1.0206146 0.83517456 1.8776855 1.8776855 1.8776855c1.0439758 0 1.8776855 -0.8337097 1.8776855 -1.8776855c0 -1.042511 -0.8337097 -1.876236 -1.8776855 -1.876236z" fill-rule="evenodd"/><path fill="#000000" d="m324.5844 165.68167c-1.042511 0 -1.8762207 0.833725 -1.8995972 1.876236c0 1.0206146 0.8570862 1.8776855 1.8777161 1.8776855c1.042511 0 1.8995972 -0.8337097 1.8995972 -1.8776855c0 -1.042511 -0.83374023 -1.876236 -1.8777161 -1.876236z" fill-rule="evenodd"/><path fill="#000000" d="m345.14563 165.68167c-1.0439758 0 -1.8777161 0.833725 -1.8777161 1.876236c0 1.0206146 0.83374023 1.8776855 1.8777161 1.8776855c1.042511 0 1.8762207 -0.8337097 1.8762207 -1.8776855c0 -1.042511 -0.8337097 -1.876236 -1.8762207 -1.876236z" fill-rule="evenodd"/><path fill="#000000" d="m241.19783 62.59826c-0.0642395 0 -0.12994385 0.0014572144 -0.19711304 0.0058403015c-1.7375336 0.06862259 -2.5259857 1.2746696 -3.220993 2.387272c-0.69647217 1.1126022 -1.1826782 1.7842484 -2.2252045 1.8309708c-0.036499023 0.0014572144 -0.07299805 0.002922058 -0.108047485 0.002922058c-0.9753418 0 -1.5199585 -0.61763 -2.2806854 -1.5783768c-0.7796936 -0.9811859 -1.6455383 -2.068966 -3.2560272 -2.068966c-0.0642395 0 -0.12994385 0.0014572144 -0.19711304 0.0058403015c-0.78845215 0.091983795 -0.71836853 1.2279434 0.046722412 1.2279434c0.051101685 -0.0029144287 0.100738525 -0.0043792725 0.14892578 -0.0043792725c0.94906616 0 1.4893036 0.63222504 2.2617035 1.5812988c0.78700256 0.96658325 1.6616058 2.0645828 3.302765 2.0645828c0.04963684 0 0.09928894 0 0.15039062 -0.0029144287c1.7389832 -0.09198761 2.504074 -1.2980347 3.1990814 -2.410637c0.6950073 -1.1126022 1.1826935 -1.7608871 2.2252045 -1.8309708c0.036499023 -0.001461029 0.07154846 -0.001461029 0.10658264 -0.001461029c0.97535706 0 1.5214386 0.61616135 2.3040466 1.6017342c0.7796936 0.95783234 1.6455383 2.0441513 3.2560425 2.0441513c0.0642395 0 0.12994385 -0.0014648438 0.19711304 -0.004386902c0.32559204 -0.023361206 0.5796509 -0.30223846 0.5796509 -0.6263809c-0.021896362 -0.332901 -0.27742004 -0.58112335 -0.6044769 -0.58112335c-0.014602661 0 -0.029205322 0 -0.043807983 0.0014648438c-0.03503418 0.0014572144 -0.07008362 0.0029144287 -0.10366821 0.0029144287c-0.9782715 0 -1.5228882 -0.63952637 -2.306961 -1.6017303c-0.75779724 -0.95929337 -1.623642 -2.0456085 -3.2341309 -2.0456085z" fill-rule="evenodd"/><path fill="#000000" fill-opacity="0.0" d="m298.8092 21.344452c0 5.980589 -4.8665466 10.848579 -10.870483 10.848579c-5.980591 0 -10.847137 -4.8679905 -10.847137 -10.848579c0 -6.002492 4.8665466 -10.870482 10.847137 -10.870482c6.003937 0 10.870483 4.8679905 10.870483 10.870482z" fill-rule="evenodd"/><path stroke="#99c941" stroke-width="1.5826771653543308" stroke-miterlimit="15.875" stroke-linecap="butt" d="m298.8092 21.344452c0 5.980589 -4.8665466 10.848579 -10.870483 10.848579c-5.980591 0 -10.847137 -4.8679905 -10.847137 -10.848579c0 -6.002492 4.8665466 -10.870482 10.847137 -10.870482c6.003937 0 10.870483 4.8679905 10.870483 10.870482z" fill-rule="evenodd"/><path fill="#000000" fill-opacity="0.0" d="m297.95212 21.344452c0 5.5177364 -4.473755 9.991497 -10.013397 9.991497c-5.5162964 0 -9.990051 -4.4737606 -9.990051 -9.991497c0 -5.5396385 4.473755 -10.0134 9.990051 -10.0134c5.5396423 0 10.013397 4.4737616 10.013397 10.0134z" fill-rule="evenodd"/><path stroke="#99c941" stroke-width="1.5826771653543308" stroke-miterlimit="15.875" stroke-linecap="butt" d="m297.95212 21.344452c0 5.5177364 -4.473755 9.991497 -10.013397 9.991497c-5.5162964 0 -9.990051 -4.4737606 -9.990051 -9.991497c0 -5.5396385 4.473755 -10.0134 9.990051 -10.0134c5.5396423 0 10.013397 4.4737616 10.013397 10.0134z" fill-rule="evenodd"/><path fill="#000000" fill-opacity="0.0" d="m105.12481 164.4289c-0.023368835 1.9945068 2.387268 2.9902954 3.8006516 1.6002808c1.4148407 -1.3914795 0.4409485 -3.8021088 -1.5520935 -3.82547c-1.2294083 0 -2.248558 0.9972534 -2.248558 2.2251892z" fill-rule="evenodd"/><path stroke="#452391" stroke-width="1.5826771653543308" stroke-miterlimit="15.875" stroke-linecap="butt" d="m105.12481 164.4289c-0.023368835 1.9945068 2.387268 2.9902954 3.8006516 1.6002808c1.4148407 -1.3914795 0.4409485 -3.8021088 -1.5520935 -3.82547c-1.2294083 0 -2.248558 0.9972534 -2.248558 2.2251892z" fill-rule="evenodd"/><path fill="#000000" fill-opacity="0.0" d="m69.52161 26.954174c-2.410637 1.0439758 -4.8679886 -1.3447552 -3.894104 -3.7772903c0.9738922 -2.410633 4.3803177 -2.4807186 5.4242935 -0.070085526c0.6482849 1.4834671 -0.046722412 3.2224522 -1.5301895 3.8473759z" fill-rule="evenodd"/><path stroke="#452391" stroke-width="1.5826771653543308" stroke-miterlimit="15.875" stroke-linecap="butt" d="m69.52161 26.954174c-2.410637 1.0439758 -4.8679886 -1.3447552 -3.894104 -3.7772903c0.9738922 -2.410633 4.3803177 -2.4807186 5.4242935 -0.070085526c0.6482849 1.4834671 -0.046722412 3.2224522 -1.5301895 3.8473759z" fill-rule="evenodd"/><path fill="#000000" fill-opacity="0.0" d="m88.04158 163.94269c-2.410637 1.042511 -4.867996 -1.3447571 -3.9174652 -3.7787476c0.9738922 -2.4340057 4.403679 -2.4792633 5.4476547 -0.045272827c0.6249237 1.4601135 -0.07009125 3.1976318 -1.5301895 3.8240204z" fill-rule="evenodd"/><path stroke="#452391" stroke-width="1.5826771653543308" stroke-miterlimit="15.875" stroke-linecap="butt" d="m88.04158 163.94269c-2.410637 1.042511 -4.867996 -1.3447571 -3.9174652 -3.7787476c0.9738922 -2.4340057 4.403679 -2.4792633 5.4476547 -0.045272827c0.6249237 1.4601135 -0.07009125 3.1976318 -1.5301895 3.8240204z" fill-rule="evenodd"/><path fill="#000000" fill-opacity="0.0" d="m110.34069 12.2145195l-13.189125 5.7717953l5.03006 -13.48991z" fill-rule="evenodd"/><path stroke="#cccccc" stroke-width="1.5826771653543308" stroke-miterlimit="15.875" stroke-linecap="butt" d="m110.34069 12.2145195l-13.189125 5.7717953l5.03006 -13.48991z" fill-rule="evenodd"/><path fill="#000000" fill-opacity="0.0" d="m118.26721 149.43216l-9.757881 -11.612213l15.158806 -0.4643097z" fill-rule="evenodd"/><path stroke="#cccccc" stroke-width="1.5826771653543308" stroke-miterlimit="15.875" stroke-linecap="butt" d="m118.26721 149.43216l-9.757881 -11.612213l15.158806 -0.4643097z" fill-rule="evenodd"/><path fill="#000000" fill-opacity="0.0" d="m17.54015 47.492527l-11.288073 9.016148l-0.6950097 -14.440437z" fill-rule="evenodd"/><path stroke="#cccccc" stroke-width="1.5826771653543308" stroke-miterlimit="15.875" stroke-linecap="butt" d="m17.54015 47.492527l-11.288073 9.016148l-0.6950097 -14.440437z" fill-rule="evenodd"/><path fill="#000000" fill-opacity="0.0" d="m54.20282 159.95555l3.337799 9.712616l-9.248302 -1.3213959z" fill-rule="evenodd"/><path stroke="#999999" stroke-width="1.5826771653543308" stroke-miterlimit="15.875" stroke-linecap="butt" d="m54.20282 159.95555l3.337799 9.712616l-9.248302 -1.3213959z" fill-rule="evenodd"/><path fill="#000000" fill-opacity="0.0" d="m45.09113 24.590265l5.7017097 21.71906l-20.44439 -9.295029z" fill-rule="evenodd"/><path stroke="#999999" stroke-width="1.5826771653543308" stroke-miterlimit="15.875" stroke-linecap="butt" d="m45.09113 24.590265l5.7017097 21.71906l-20.44439 -9.295029z" fill-rule="evenodd"/><path fill="#000000" fill-opacity="0.0" d="m46.133644 144.4021c-2.410633 1.0206146 -4.8679886 -1.3432922 -3.8941002 -3.777298c0.9505272 -2.4339905 4.380314 -2.480713 5.4009285 -0.093444824c0.6482849 1.4834747 -0.023361206 3.222458 -1.5068283 3.8707428z" fill-rule="evenodd"/><path stroke="#973896" stroke-width="1.5826771653543308" stroke-miterlimit="15.875" stroke-linecap="butt" d="m46.133644 144.4021c-2.410633 1.0206146 -4.8679886 -1.3432922 -3.8941002 -3.777298c0.9505272 -2.4339905 4.380314 -2.480713 5.4009285 -0.093444824c0.6482849 1.4834747 -0.023361206 3.222458 -1.5068283 3.8707428z" fill-rule="evenodd"/><path fill="#000000" d="m324.5844 123.008644l0 0.023361206c-0.013122559 0 -0.026275635 -0.0014648438 -0.040863037 -0.0014648438c-1.023529 0 -1.8368225 0.84832 -1.8587341 1.8557968c0 1.042511 0.8570862 1.8776932 1.8777161 1.8995972c1.042511 0 1.8995972 -0.8570862 1.8995972 -1.876236c0 -1.0439758 -0.83374023 -1.8776932 -1.8777161 -1.9010544z" fill-rule="evenodd"/><path fill="#521b00" d="m279.05032 90.91699l-23.179169 9.154861l-8.11235 29.92485l39.103073 -16.202782l-7.811554 -22.87693z" fill-rule="evenodd"/><path fill="#521b00" d="m246.71338 103.20086c-0.32122803 0 -26.724304 6.745682 -26.724304 6.745682l-7.6480255 1.7623444l-2.666153 2.7815018l1.3213959 2.7114182l3.337799 2.2251968l20.67508 10.870483l14.81131 -2.0850372c0 0 5.9338684 -21.927849 5.633087 -22.530876c0 0 -8.529938 -2.4573517 -8.738724 -2.480713c0 0 0 0 -0.0014648438 0z" fill-rule="evenodd"/><path stroke="#000000" stroke-width="1.5826771653543308" stroke-miterlimit="15.875" stroke-linecap="butt" d="m246.71338 103.20086c-0.32122803 0 -26.724304 6.745682 -26.724304 6.745682l-7.6480255 1.7623444l-2.666153 2.7815018l1.3213959 2.7114182l3.337799 2.2251968l20.67508 10.870483l14.81131 -2.0850372c0 0 5.9338684 -21.927849 5.633087 -22.530876c0 0 -8.529938 -2.4573517 -8.738724 -2.480713c0 0 0 0 -0.0014648438 0z" fill-rule="evenodd"/><path fill="#521b00" d="m218.97722 109.76403c-1.4893036 0 -2.9771576 0.048179626 -4.4343414 0.2759552c-2.596054 0.3708725 -5.633072 1.8995972 -5.6097107 4.936615c0 3.2910767 3.8707275 3.7787552 6.374817 3.8707428l7.856827 -9.062874l0 0c-0.28619385 0.0043792725 -0.57528687 0.005844116 -0.8629303 0.005844116c-1.1023712 0 -2.2135162 -0.026283264 -3.3246613 -0.026283264z" fill-rule="evenodd"/><path fill="#000000" fill-opacity="0.0" d="m223.16481 109.78447c-2.8501282 0.046722412 -5.795166 -0.18543243 -8.621933 0.25551605c-2.596054 0.3708725 -5.633072 1.8995972 -5.6097107 4.936615c0 3.2910767 3.8707275 3.7787552 6.374817 3.8707428" fill-rule="evenodd"/><path stroke="#000000" stroke-width="1.5826771653543308" stroke-miterlimit="15.875" stroke-linecap="butt" d="m223.16481 109.78447c-2.8501282 0.046722412 -5.795166 -0.18543243 -8.621933 0.25551605c-2.596054 0.3708725 -5.633072 1.8995972 -5.6097107 4.936615c0 3.2910767 3.8707275 3.7787552 6.374817 3.8707428" fill-rule="evenodd"/><path fill="#521b00" d="m214.72832 115.715416c-1.1242828 0 -2.1916199 0.3139267 -2.8749542 1.3476791c-0.8804321 1.2746735 -0.92715454 2.9669342 -0.11534119 4.28833c1.0892334 1.5287247 3.3845215 2.2018356 5.0066986 2.9202042c1.9696808 0.9271698 3.9408264 1.8076096 5.9338684 2.6194305c1.7243805 0.7154541 3.5130157 1.6484604 5.5133514 1.6484604c0.07008362 0 0.14016724 -0.0014648438 0.2117157 -0.0029144287l7.7414856 -11.961189l0 0c-2.457367 0.7884598 -4.9833374 1.3447571 -7.5326843 1.6455383c-1.2060547 0.09345245 -2.4106293 0.18543243 -3.5933228 0.23216248c-1.1359558 -0.023368835 -2.2252045 -0.30078888 -3.220993 -0.833725c-1.832428 -0.8351822 -3.7553864 -1.4382019 -5.7484283 -1.7857056c-0.4365692 -0.07154846 -0.8833618 -0.118270874 -1.3213959 -0.118270874z" fill-rule="evenodd"/><path fill="#000000" fill-opacity="0.0" d="m236.14514 116.57542c-2.457367 0.7884598 -4.9833374 1.3447571 -7.5326843 1.6455383c-1.2060547 0.09345245 -2.4106293 0.18543243 -3.5933228 0.23216248c-1.1359558 -0.023368835 -2.2252045 -0.30078888 -3.220993 -0.833725c-1.832428 -0.8351822 -3.7553864 -1.4382019 -5.7484283 -1.7857056c-1.5535583 -0.25405884 -3.245819 -0.20879364 -4.19635 1.2294083c-0.8804321 1.2746735 -0.92715454 2.9669342 -0.11534119 4.28833c1.0892334 1.5287247 3.3845215 2.2018356 5.0066986 2.9202042c1.9696808 0.9271698 3.9408264 1.8076096 5.9338684 2.6194305c1.7842407 0.74173737 3.6385803 1.7141647 5.725067 1.645546" fill-rule="evenodd"/><path stroke="#000000" stroke-width="1.5826771653543308" stroke-miterlimit="15.875" stroke-linecap="butt" d="m236.14514 116.57542c-2.457367 0.7884598 -4.9833374 1.3447571 -7.5326843 1.6455383c-1.2060547 0.09345245 -2.4106293 0.18543243 -3.5933228 0.23216248c-1.1359558 -0.023368835 -2.2252045 -0.30078888 -3.220993 -0.833725c-1.832428 -0.8351822 -3.7553864 -1.4382019 -5.7484283 -1.7857056c-1.5535583 -0.25405884 -3.245819 -0.20879364 -4.19635 1.2294083c-0.8804321 1.2746735 -0.92715454 2.9669342 -0.11534119 4.28833c1.0892334 1.5287247 3.3845215 2.2018356 5.0066986 2.9202042c1.9696808 0.9271698 3.9408264 1.8076096 5.9338684 2.6194305c1.7842407 0.74173737 3.6385803 1.7141647 5.725067 1.645546" fill-rule="evenodd"/><path fill="#521b00" d="m239.57639 122.16178c-1.0439758 0.4876709 -2.0864868 1.0206146 -3.1523743 1.5301895c-0.9738922 0.5562973 -2.0397644 0.9972534 -3.1289978 1.2980347c-0.16790771 0.010215759 -0.33436584 0.016059875 -0.50227356 0.016059875c-0.94906616 0 -1.9039764 -0.16791534 -2.790268 -0.50227356c-1.0191498 -0.2788849 -1.993042 -0.57966614 -3.0121918 -0.8351822c-0.6614227 -0.16499329 -1.400238 -0.33582306 -2.109848 -0.33582306c-0.6847992 0 -1.3433075 0.15914917 -1.8777008 0.6366043c-0.8570862 0.8819046 -1.1359558 2.2033005 -0.6716461 3.3845215c1.0892334 3.1757355 4.8665314 4.126251 7.6713867 5.1454163c1.5769196 0.5796509 3.2925415 1.4615631 5.0066986 1.5769043c1.7389832 -0.023361206 3.454605 -0.4643097 5.0066986 -1.2513123c1.715622 -0.81181335 3.3845215 -1.7857056 4.961441 -2.874939l-5.4009247 -7.7882004z" fill-rule="evenodd"/><path fill="#000000" fill-opacity="0.0" d="m239.57639 122.16178c-1.0439758 0.4876709 -2.0864868 1.0206146 -3.1523743 1.5301895c-0.9738922 0.5562973 -2.0397644 0.9972534 -3.1289978 1.2980347c-1.1125946 0.07008362 -2.2485657 -0.093444824 -3.2925415 -0.48621368c-1.0191498 -0.2788849 -1.993042 -0.57966614 -3.0121918 -0.8351822c-1.2980347 -0.32414246 -2.8983154 -0.6716461 -3.9875488 0.30078125c-0.8570862 0.8819046 -1.1359558 2.2033005 -0.6716461 3.3845215c1.0892334 3.1757355 4.8665314 4.126251 7.6713867 5.1454163c1.5769196 0.5796509 3.2925415 1.4615631 5.0066986 1.5769043c1.7389832 -0.023361206 3.454605 -0.4643097 5.0066986 -1.2513123c1.715622 -0.81181335 3.3845215 -1.7857056 4.961441 -2.874939" fill-rule="evenodd"/><path stroke="#000000" stroke-width="1.5826771653543308" stroke-miterlimit="15.875" stroke-linecap="butt" d="m239.57639 122.16178c-1.0439758 0.4876709 -2.0864868 1.0206146 -3.1523743 1.5301895c-0.9738922 0.5562973 -2.0397644 0.9972534 -3.1289978 1.2980347c-1.1125946 0.07008362 -2.2485657 -0.093444824 -3.2925415 -0.48621368c-1.0191498 -0.2788849 -1.993042 -0.57966614 -3.0121918 -0.8351822c-1.2980347 -0.32414246 -2.8983154 -0.6716461 -3.9875488 0.30078125c-0.8570862 0.8819046 -1.1359558 2.2033005 -0.6716461 3.3845215c1.0892334 3.1757355 4.8665314 4.126251 7.6713867 5.1454163c1.5769196 0.5796509 3.2925415 1.4615631 5.0066986 1.5769043c1.7389832 -0.023361206 3.454605 -0.4643097 5.0066986 -1.2513123c1.715622 -0.81181335 3.3845215 -1.7857056 4.961441 -2.874939" fill-rule="evenodd"/><path fill="#521b00" d="m279.16568 90.61475l0 0c-1.8543396 0.5110321 -2.0164185 0.41758728 -3.9174805 0.5343933c-8.900787 0.021903992 -17.893585 0.09198761 -26.702393 1.4834671c-1.9463196 0.18544006 -3.8707428 0.67165375 -5.701706 1.3900223c-1.8076172 0.9038086 -3.129013 2.4807205 -4.659195 3.7320328c-3.3611603 2.5727005 -7.1618195 4.473755 -11.241348 5.562996c-2.178482 0.6716461 -9.109604 2.3171844 -6.6288757 5.887146c0.9271698 1.3213959 2.7114105 2.0631256 4.171509 2.504074c1.2191925 0.35481262 2.4894867 0.537323 3.7539368 0.537323c0.46577454 0 0.9300842 -0.02482605 1.3914795 -0.07446289c2.0397644 -0.25552368 4.0342712 -0.833725 5.910507 -1.6922684c1.6470032 -0.74172974 3.2691803 -1.8076096 5.053421 -2.1784744c0.3562622 -0.08030701 0.697937 -0.11680603 1.0293732 -0.11680603c1.7667236 0 3.2355957 1.0206146 4.8358765 1.7623444c1.7375183 0.7884598 3.5451355 1.3914795 5.422821 1.7842484l27.282074 -21.116035z" fill-rule="evenodd"/><path fill="#000000" fill-opacity="0.0" d="m279.16568 90.61475c-1.8543396 0.5110321 -2.0164185 0.41758728 -3.9174805 0.5343933c-8.900787 0.021903992 -17.893585 0.09198761 -26.702393 1.4834671c-1.9463196 0.18544006 -3.8707428 0.67165375 -5.701706 1.3900223c-1.8076172 0.9038086 -3.129013 2.4807205 -4.659195 3.7320328c-3.3611603 2.5727005 -7.1618195 4.473755 -11.241348 5.562996c-2.178482 0.6716461 -9.109604 2.3171844 -6.6288757 5.887146c0.9271698 1.3213959 2.7114105 2.0631256 4.171509 2.504074c1.6689148 0.4862213 3.4312592 0.64829254 5.1454163 0.4628601c2.0397644 -0.25552368 4.0342712 -0.833725 5.910507 -1.6922684c1.6470032 -0.74172974 3.2691803 -1.8076096 5.053421 -2.1784744c2.2485657 -0.5095749 3.9641876 0.7650986 5.8652496 1.6455383c1.7375183 0.7884598 3.5451355 1.3914795 5.422821 1.7842484" fill-rule="evenodd"/><path stroke="#000000" stroke-width="1.5826771653543308" stroke-miterlimit="15.875" stroke-linecap="butt" d="m279.16568 90.61475c-1.8543396 0.5110321 -2.0164185 0.41758728 -3.9174805 0.5343933c-8.900787 0.021903992 -17.893585 0.09198761 -26.702393 1.4834671c-1.9463196 0.18544006 -3.8707428 0.67165375 -5.701706 1.3900223c-1.8076172 0.9038086 -3.129013 2.4807205 -4.659195 3.7320328c-3.3611603 2.5727005 -7.1618195 4.473755 -11.241348 5.562996c-2.178482 0.6716461 -9.109604 2.3171844 -6.6288757 5.887146c0.9271698 1.3213959 2.7114105 2.0631256 4.171509 2.504074c1.6689148 0.4862213 3.4312592 0.64829254 5.1454163 0.4628601c2.0397644 -0.25552368 4.0342712 -0.833725 5.910507 -1.6922684c1.6470032 -0.74172974 3.2691803 -1.8076096 5.053421 -2.1784744c2.2485657 -0.5095749 3.9641876 0.7650986 5.8652496 1.6455383c1.7375183 0.7884598 3.5451355 1.3914795 5.422821 1.7842484" fill-rule="evenodd"/><path fill="#521b00" d="m286.86188 113.79392l-41.283005 13.42128c-4.171524 2.2018356 -8.389755 4.2649612 -12.447388 6.7456894c-1.6221771 0.97242737 -3.9627228 2.0397644 -4.1248016 4.2182465c-0.1547699 2.0631256 1.8543396 3.4195557 3.6823883 3.4195557c0.10220337 0 0.20295715 -0.0043792725 0.30369568 -0.013137817c1.901062 -0.1854248 3.82547 -1.1812286 5.5396423 -2.0164032c1.9477844 -0.950531 3.894104 -2.0164032 5.818512 -3.0589142c1.784256 -0.9972534 3.5699615 -1.9930573 5.4476624 -2.851593c2.4558868 -1.0892334 4.9833374 -2.0164032 7.4625854 -3.1289978c4.682556 -1.993042 9.203033 -4.33506 13.583374 -6.953026c2.0397644 -1.2294083 3.9875488 -2.6194305 5.818512 -4.126259c0.950531 -0.76509094 1.8309631 -1.5769119 2.6880493 -2.4339905c0.41760254 -0.46431732 7.509308 -3.220993 7.5107727 -3.2224503z" fill-rule="evenodd"/><path fill="#000000" fill-opacity="0.0" d="m245.57887 127.2152c-4.171524 2.2018356 -8.389755 4.2649612 -12.447388 6.7456894c-1.6221771 0.97242737 -3.9627228 2.0397644 -4.1248016 4.2182465c-0.16207886 2.1784668 2.0850372 3.5684967 3.986084 3.4064178c1.901062 -0.1854248 3.82547 -1.1812286 5.5396423 -2.0164032c1.9477844 -0.950531 3.894104 -2.0164032 5.818512 -3.0589142c1.784256 -0.9972534 3.5699615 -1.9930573 5.4476624 -2.851593c2.4558868 -1.0892334 4.9833374 -2.0164032 7.4625854 -3.1289978c4.682556 -1.993042 9.203033 -4.33506 13.583374 -6.953026c2.0397644 -1.2294083 3.9875488 -2.6194305 5.818512 -4.126259c0.950531 -0.76509094 1.8309631 -1.5769119 2.6880493 -2.4339905c0.41760254 -0.46431732 7.5107727 -3.2224503 7.5107727 -3.2224503" fill-rule="evenodd"/><path stroke="#000000" stroke-width="1.5826771653543308" stroke-miterlimit="15.875" stroke-linecap="butt" d="m245.57887 127.2152c-4.171524 2.2018356 -8.389755 4.2649612 -12.447388 6.7456894c-1.6221771 0.97242737 -3.9627228 2.0397644 -4.1248016 4.2182465c-0.16207886 2.1784668 2.0850372 3.5684967 3.986084 3.4064178c1.901062 -0.1854248 3.82547 -1.1812286 5.5396423 -2.0164032c1.9477844 -0.950531 3.894104 -2.0164032 5.818512 -3.0589142c1.784256 -0.9972534 3.5699615 -1.9930573 5.4476624 -2.851593c2.4558868 -1.0892334 4.9833374 -2.0164032 7.4625854 -3.1289978c4.682556 -1.993042 9.203033 -4.33506 13.583374 -6.953026c2.0397644 -1.2294083 3.9875488 -2.6194305 5.818512 -4.126259c0.950531 -0.76509094 1.8309631 -1.5769119 2.6880493 -2.4339905c0.41760254 -0.46431732 7.5107727 -3.2224503 7.5107727 -3.2224503" fill-rule="evenodd"/><path fill="#521b00" d="m236.02979 114.32686c1.7608948 4.543846 4.5190277 8.623375 8.088989 11.93782l-8.088989 -11.93782z" fill-rule="evenodd"/><path fill="#000000" fill-opacity="0.0" d="m236.02979 114.32686c1.7608948 4.543846 4.5190277 8.623375 8.088989 11.93782" fill-rule="evenodd"/><path stroke="#000000" stroke-width="1.5826771653543308" stroke-miterlimit="15.875" stroke-linecap="butt" d="m236.02979 114.32686c1.7608948 4.543846 4.5190277 8.623375 8.088989 11.93782" fill-rule="evenodd"/><path fill="#a14600" d="m223.35023 104.59087c-0.9578247 0 -1.9317169 0.41467285 -2.7814941 1.2527771c-0.115356445 0.07008362 -0.18544006 0.16207123 -0.23216248 0.27887726c-0.021896362 0.13871002 -0.021896362 0.27742004 0.023361206 0.39422607c0.25552368 0.6015625 0.81181335 1.0191574 1.4601135 1.089241c0.18833923 0.020439148 0.37815857 0.030662537 0.5679779 0.030662537c0.44386292 0 0.8877411 -0.0569458 1.3097076 -0.1708374c0.950531 -0.2073288 2.0164032 -0.46285248 2.6895142 -1.2279434c-0.84539795 -1.0936203 -1.9302521 -1.6470032 -3.0370178 -1.6470032z" fill-rule="evenodd"/><path fill="#000000" fill-opacity="0.0" d="m305.8428 111.54751c5.907501 0.048446655 8.988098 -6.883568 15.03363 -6.2454453c2.3376465 -5.051117 6.092621 0.44609833 9.2118225 2.2112427c-0.7660217 -2.199051 -2.3353882 -4.7014923 -2.4484558 -7.1148834c2.666504 -1.984932 5.392212 -1.4106979 8.37384 -2.0546646c3.187683 -0.6925354 3.9344788 -2.5268402 6.366089 -4.1116104c3.8839722 -2.544571 6.60672 0.45633698 8.857544 3.8154602c2.6195068 3.922409 4.2936096 8.559967 5.7868347 13.055107c0.8347168 2.4013367 1.2510986 6.039482 2.8168945 8.099976c4.1571655 -1.5956116 2.7761536 -10.606483 2.287384 -13.863052c-0.7876892 -5.2518997 -3.0726013 -9.306656 -5.2630615 -13.769028c7.479126 -2.7458572 14.446991 23.287445 18.787323 21.250565c3.8046265 -1.8124466 -4.6450195 -16.52327 -5.5252686 -18.102295c-2.6976318 -4.823166 -6.8103027 -10.582191 -12.372101 -12.091316c7.9944763 0.34454346 14.9664 7.035797 20.544556 11.9496155c0.90930176 0.8056259 9.334747 10.014053 11.586914 7.25943c3.543274 -4.3014526 -11.644287 -14.694992 -14.103943 -16.000679c-4.88916 -2.56633 -10.973694 -3.3396072 -15.494812 -6.5550156" fill-rule="evenodd"/><path stroke="#000000" stroke-width="1.5826771653543308" stroke-miterlimit="15.875" stroke-linecap="butt" d="m305.8428 111.54751c5.907501 0.048446655 8.988098 -6.883568 15.03363 -6.2454453c2.3376465 -5.051117 6.092621 0.44609833 9.2118225 2.2112427c-0.7660217 -2.199051 -2.3353882 -4.7014923 -2.4484558 -7.1148834c2.666504 -1.984932 5.392212 -1.4106979 8.37384 -2.0546646c3.187683 -0.6925354 3.9344788 -2.5268402 6.366089 -4.1116104c3.8839722 -2.544571 6.60672 0.45633698 8.857544 3.8154602c2.6195068 3.922409 4.2936096 8.559967 5.7868347 13.055107c0.8347168 2.4013367 1.2510986 6.039482 2.8168945 8.099976c4.1571655 -1.5956116 2.7761536 -10.606483 2.287384 -13.863052c-0.7876892 -5.2518997 -3.0726013 -9.306656 -5.2630615 -13.769028c7.479126 -2.7458572 14.446991 23.287445 18.787323 21.250565c3.8046265 -1.8124466 -4.6450195 -16.52327 -5.5252686 -18.102295c-2.6976318 -4.823166 -6.8103027 -10.582191 -12.372101 -12.091316c7.9944763 0.34454346 14.9664 7.035797 20.544556 11.9496155c0.90930176 0.8056259 9.334747 10.014053 11.586914 7.25943c3.543274 -4.3014526 -11.644287 -14.694992 -14.103943 -16.000679c-4.88916 -2.56633 -10.973694 -3.3396072 -15.494812 -6.5550156" fill-rule="evenodd"/><path fill="#ffffff" d="m298.81723 78.688614c-0.08908081 0 -0.18106079 0.011680603 -0.27304077 0.036506653l-0.07009888 -0.023361206c-4.28833 1.0892334 -17.940308 5.608261 -18.867462 7.323883c-1.7389832 3.337799 6.8843994 22.970375 8.321136 28.626816c0.046722412 0.71837616 0.60302734 1.2980347 1.3213806 1.3213959c0.046722412 0.005844116 0.093444824 0.008758545 0.14016724 0.008758545c0.2701416 0 0.5198059 -0.11242676 0.71691895 -0.310997c5.1001587 -1.8776932 10.175476 -3.8707428 15.18219 -5.980591c0.6029968 -0.18543243 1.1125793 -0.5329361 1.5301819 -0.9957962c0.3241272 -0.4409485 0.5095825 -1.020607 0.48620605 -1.5769119c0.37088013 -4.3335876 -6.072571 -21.184662 -7.417328 -27.512756c-0.07885742 -0.53440094 -0.54608154 -0.9169464 -1.0702515 -0.9169464z" fill-rule="evenodd"/><path stroke="#000000" stroke-width="1.5826771653543308" stroke-miterlimit="15.875" stroke-linecap="butt" d="m298.81723 78.688614c-0.08908081 0 -0.18106079 0.011680603 -0.27304077 0.036506653l-0.07009888 -0.023361206c-4.28833 1.0892334 -17.940308 5.608261 -18.867462 7.323883c-1.7389832 3.337799 6.8843994 22.970375 8.321136 28.626816c0.046722412 0.71837616 0.60302734 1.2980347 1.3213806 1.3213959c0.046722412 0.005844116 0.093444824 0.008758545 0.14016724 0.008758545c0.2701416 0 0.5198059 -0.11242676 0.71691895 -0.310997c5.1001587 -1.8776932 10.175476 -3.8707428 15.18219 -5.980591c0.6029968 -0.18543243 1.1125793 -0.5329361 1.5301819 -0.9957962c0.3241272 -0.4409485 0.5095825 -1.020607 0.48620605 -1.5769119c0.37088013 -4.3335876 -6.072571 -21.184662 -7.417328 -27.512756c-0.07885742 -0.53440094 -0.54608154 -0.9169464 -1.0702515 -0.9169464z" fill-rule="evenodd"/><path fill="#000000" fill-opacity="0.0" d="m300.143 80.60135c-6.837677 2.156578 -13.559998 4.705925 -20.118805 7.602768" fill-rule="evenodd"/><path stroke="#000000" stroke-width="1.5826771653543308" stroke-miterlimit="15.875" stroke-linecap="butt" d="m300.143 80.60135c-6.837677 2.156578 -13.559998 4.705925 -20.118805 7.602768" fill-rule="evenodd"/><path fill="#000000" fill-opacity="0.0" d="m301.44104 85.21529c-6.0039673 2.1083908 -14.764587 6.072571 -20.815277 8.159065" fill-rule="evenodd"/><path stroke="#000000" stroke-width="1.5826771653543308" stroke-miterlimit="15.875" stroke-linecap="butt" d="m301.44104 85.21529c-6.0039673 2.1083908 -14.764587 6.072571 -20.815277 8.159065" fill-rule="evenodd"/><path fill="#000000" fill-opacity="0.0" d="m303.15665 90.73156c-6.189392 2.433998 -14.6258545 5.980591 -20.676544 8.436485" fill-rule="evenodd"/><path stroke="#000000" stroke-width="1.5826771653543308" stroke-miterlimit="15.875" stroke-linecap="butt" d="m303.15665 90.73156c-6.189392 2.433998 -14.6258545 5.980591 -20.676544 8.436485" fill-rule="evenodd"/><path fill="#000000" fill-opacity="0.0" d="m304.77884 96.36318c-6.6989746 2.6427917 -14.208282 5.2622223 -20.374298 8.252518" fill-rule="evenodd"/><path stroke="#000000" stroke-width="1.5826771653543308" stroke-miterlimit="15.875" stroke-linecap="butt" d="m304.77884 96.36318c-6.6989746 2.6427917 -14.208282 5.2622223 -20.374298 8.252518" fill-rule="evenodd"/><path fill="#000000" fill-opacity="0.0" d="m306.2623 101.06911c-6.443451 2.642784 -14.092926 4.821266 -20.30423 7.718109" fill-rule="evenodd"/><path stroke="#000000" stroke-width="1.5826771653543308" stroke-miterlimit="15.875" stroke-linecap="butt" d="m306.2623 101.06911c-6.443451 2.642784 -14.092926 4.821266 -20.30423 7.718109" fill-rule="evenodd"/><path fill="#000000" fill-opacity="0.0" d="m307.58368 106.42331c-6.698944 2.0631256 -13.351196 4.3803177 -19.84134 7.1165543" fill-rule="evenodd"/><path stroke="#000000" stroke-width="1.5826771653543308" stroke-miterlimit="15.875" stroke-linecap="butt" d="m307.58368 106.42331c-6.698944 2.0631256 -13.351196 4.3803177 -19.84134 7.1165543" fill-rule="evenodd"/><path fill="#000000" fill-opacity="0.0" d="m299.07895 75.62798l27.057922 -12.63979" fill-rule="evenodd"/><path stroke="#000000" stroke-width="1.5826771653543308" stroke-miterlimit="15.875" stroke-linecap="butt" d="m299.07895 75.62798l27.057922 -12.63979" fill-rule="evenodd"/><path fill="#a14600" d="m127.04171 52.78781l-45.547974 7.462597l0 0.9738922l12.3320465 15.599758l28.580093 -9.295029l12.539391 0l-7.903557 -14.741219z" fill-rule="evenodd"/><path fill="#a14600" d="m153.02428 49.079147l-7.138443 0.5095749c-1.901062 1.9229584 -2.6895142 4.5891113 -4.056183 6.8843956c-1.5301819 2.5026207 -3.9174652 4.542385 -4.6358337 7.3706093c-0.25550842 1.1359634 -0.32414246 2.2719269 -0.25550842 3.4064255c-0.023361206 1.4148407 0.20878601 2.8282242 0.6497345 4.1963425c0.6716614 1.4834671 1.5520935 2.8501205 2.6413422 4.0561676c1.8090668 2.1551208 3.663391 4.264969 5.5629883 6.3280945c0.2788849 0.3475113 0.67311096 0.60302734 1.0906982 0.74173737c0.075927734 0.011680603 0.15332031 0.01751709 0.22924805 0.01751709c0.5168762 0 0.9914093 -0.26865387 1.2542267 -0.7125244c0.30078125 -0.51103973 0.46284485 -1.067337 0.50956726 -1.6470032c0.34751892 -3.5232315 -0.81181335 -7.023102 -3.1757202 -9.642532c-0.55630493 -0.6015625 -1.227951 -1.5053711 -0.74172974 -2.1784744c0.22776794 -0.2569809 0.5446167 -0.39714813 0.8731384 -0.39714813c0.17375183 0 0.3489685 0.03942108 0.5168762 0.11972809c0.4643097 0.23069763 0.85853577 0.5562973 1.159317 0.97242737c1.6002808 1.7857132 3.2691803 3.7320328 3.5933228 6.097397c0.18544006 1.4367447 -0.1387024 2.8501282 -0.046722412 4.286873c0 0.4409485 0.115356445 0.8819046 0.32414246 1.2761307c0.3022461 0.43949127 0.76509094 0.74172974 1.2746735 0.85707855c0.19857788 0.046722412 0.39860535 0.068626404 0.5957184 0.068626404c1.3739624 0 2.685135 -1.064415 3.2531128 -2.3405457c0.6483002 -1.4834671 0.55630493 -3.1757278 0.39424133 -4.7511826c-0.18544006 -1.6002731 -0.44096375 -3.2458115 -0.09346008 -4.8446274l0 0c1.0658875 1.4834671 1.6688995 3.2443542 2.5040894 4.89135c0.833725 1.6221771 2.0397644 3.1976318 3.7305603 3.8240128c0.40882874 0.14893341 0.8570862 0.22924042 1.3009644 0.22924042c0.8672943 0 1.7170715 -0.30516052 2.2222748 -0.99433136c0.5110321 -0.8570862 0.69647217 -1.854332 0.57966614 -2.8515854c0.023361206 -1.9229584 -0.13871765 -3.8473816 -0.4862213 -5.725075c-0.39422607 -1.3666534 -0.6716461 -2.7581406 -0.8570862 -4.1715164c-0.093444824 -1.600277 0.23069763 -3.454609 -0.83517456 -4.6358337c-0.32414246 -0.30224228 -0.6482849 -0.5796623 -0.9972534 -0.8585434c-1.4367371 -1.2513084 -1.876236 -3.336338 -3.1976318 -4.7511826c-1.0892334 -1.1812248 -2.6895142 -1.8076096 -4.1496124 -2.5026207c-1.4834747 -0.71836853 -2.9669342 -1.6455383 -3.5933228 -3.1290016z" fill-rule="evenodd"/><path stroke="#000000" stroke-width="1.5826771653543308" stroke-miterlimit="15.875" stroke-linecap="butt" d="m153.02428 49.079147l-7.138443 0.5095749c-1.901062 1.9229584 -2.6895142 4.5891113 -4.056183 6.8843956c-1.5301819 2.5026207 -3.9174652 4.542385 -4.6358337 7.3706093c-0.25550842 1.1359634 -0.32414246 2.2719269 -0.25550842 3.4064255c-0.023361206 1.4148407 0.20878601 2.8282242 0.6497345 4.1963425c0.6716614 1.4834671 1.5520935 2.8501205 2.6413422 4.0561676c1.8090668 2.1551208 3.663391 4.264969 5.5629883 6.3280945c0.2788849 0.3475113 0.67311096 0.60302734 1.0906982 0.74173737c0.075927734 0.011680603 0.15332031 0.01751709 0.22924805 0.01751709c0.5168762 0 0.9914093 -0.26865387 1.2542267 -0.7125244c0.30078125 -0.51103973 0.46284485 -1.067337 0.50956726 -1.6470032c0.34751892 -3.5232315 -0.81181335 -7.023102 -3.1757202 -9.642532c-0.55630493 -0.6015625 -1.227951 -1.5053711 -0.74172974 -2.1784744c0.22776794 -0.2569809 0.5446167 -0.39714813 0.8731384 -0.39714813c0.17375183 0 0.3489685 0.03942108 0.5168762 0.11972809c0.4643097 0.23069763 0.85853577 0.5562973 1.159317 0.97242737c1.6002808 1.7857132 3.2691803 3.7320328 3.5933228 6.097397c0.18544006 1.4367447 -0.1387024 2.8501282 -0.046722412 4.286873c0 0.4409485 0.115356445 0.8819046 0.32414246 1.2761307c0.3022461 0.43949127 0.76509094 0.74172974 1.2746735 0.85707855c0.19857788 0.046722412 0.39860535 0.068626404 0.5957184 0.068626404c1.3739624 0 2.685135 -1.064415 3.2531128 -2.3405457c0.6483002 -1.4834671 0.55630493 -3.1757278 0.39424133 -4.7511826c-0.18544006 -1.6002731 -0.44096375 -3.2458115 -0.09346008 -4.8446274l0 0c1.0658875 1.4834671 1.6688995 3.2443542 2.5040894 4.89135c0.833725 1.6221771 2.0397644 3.1976318 3.7305603 3.8240128c0.40882874 0.14893341 0.8570862 0.22924042 1.3009644 0.22924042c0.8672943 0 1.7170715 -0.30516052 2.2222748 -0.99433136c0.5110321 -0.8570862 0.69647217 -1.854332 0.57966614 -2.8515854c0.023361206 -1.9229584 -0.13871765 -3.8473816 -0.4862213 -5.725075c-0.39422607 -1.3666534 -0.6716461 -2.7581406 -0.8570862 -4.1715164c-0.093444824 -1.600277 0.23069763 -3.454609 -0.83517456 -4.6358337c-0.32414246 -0.30224228 -0.6482849 -0.5796623 -0.9972534 -0.8585434c-1.4367371 -1.2513084 -1.876236 -3.336338 -3.1976318 -4.7511826c-1.0892334 -1.1812248 -2.6895142 -1.8076096 -4.1496124 -2.5026207c-1.4834747 -0.71836853 -2.9669342 -1.6455383 -3.5933228 -3.1290016z" fill-rule="evenodd"/><path fill="#a14600" d="m156.2701 51.605125l-10.175476 5.0300636c1.8076172 1.8776932 4.844635 1.9696808 6.814316 3.6619415c0.9972534 0.9738922 1.7842407 2.1784782 2.2719116 3.476513c1.4133911 3.2691727 2.4340057 6.675598 3.8006592 9.966675c0.69647217 1.6922607 1.5301971 3.3845215 3.060379 4.3584137c0.60302734 0.37524414 1.3403778 0.56944275 2.0602112 0.56944275c1.1067657 0 2.1770172 -0.4584732 2.6676178 -1.4265213c0.37086487 -0.9271698 0.4409485 -1.9244232 0.20878601 -2.8749466c-0.27742004 -1.8076096 -0.6716461 -3.615219 -1.0658722 -5.377571c-0.9038086 -4.3116913 -1.9244232 -8.692005 -4.2182465 -12.42403c-1.2980347 -2.1317558 -3.1071014 -4.0561714 -5.424286 -4.95998z" fill-rule="evenodd"/><path fill="#000000" fill-opacity="0.0" d="m146.09462 56.63519c1.8076172 1.8776932 4.844635 1.9696808 6.814316 3.6619415c0.9972534 0.9738922 1.7842407 2.1784782 2.2719116 3.476513c1.4133911 3.2691727 2.4340057 6.675598 3.8006592 9.966675c0.69647217 1.6922607 1.5301971 3.3845215 3.060379 4.3584137c1.5301971 0.950531 3.9174652 0.74173737 4.727829 -0.85707855c0.37086487 -0.9271698 0.4409485 -1.9244232 0.20878601 -2.8749466c-0.27742004 -1.8076096 -0.6716461 -3.615219 -1.0658722 -5.377571c-0.9038086 -4.3116913 -1.9244232 -8.692005 -4.2182465 -12.42403c-1.2980347 -2.1317558 -3.1071014 -4.0561714 -5.424286 -4.95998" fill-rule="evenodd"/><path stroke="#000000" stroke-width="1.5826771653543308" stroke-miterlimit="15.875" stroke-linecap="butt" d="m146.09462 56.63519c1.8076172 1.8776932 4.844635 1.9696808 6.814316 3.6619415c0.9972534 0.9738922 1.7842407 2.1784782 2.2719116 3.476513c1.4133911 3.2691727 2.4340057 6.675598 3.8006592 9.966675c0.69647217 1.6922607 1.5301971 3.3845215 3.060379 4.3584137c1.5301971 0.950531 3.9174652 0.74173737 4.727829 -0.85707855c0.37086487 -0.9271698 0.4409485 -1.9244232 0.20878601 -2.8749466c-0.27742004 -1.8076096 -0.6716461 -3.615219 -1.0658722 -5.377571c-0.9038086 -4.3116913 -1.9244232 -8.692005 -4.2182465 -12.42403c-1.2980347 -2.1317558 -3.1071014 -4.0561714 -5.424286 -4.95998" fill-rule="evenodd"/><path fill="#a14600" d="m146.46548 67.06472l0 0c1.0892487 2.2952805 3.129013 4.10289 3.7553864 6.536888c0.23069763 1.206047 0.30078125 2.433998 0.25405884 3.6619415c-0.046722412 1.206047 0.20880127 2.433998 0.741745 3.5466003c0.5387726 0.9753494 1.560852 1.5783691 2.6676025 1.5783691c0.1299591 0 0.25990295 -0.0073013306 0.3927765 -0.02481842c0.6950073 -0.18543243 1.2746735 -0.62638855 1.6922607 -1.206047c0.6015625 -0.9038086 1.0191498 -1.9463196 1.1812286 -3.0121994c0.71836853 -3.454605 0.34750366 -7.3720703 -1.9229584 -10.083481l-8.7621 -0.9972534z" fill-rule="evenodd"/><path fill="#000000" fill-opacity="0.0" d="m146.46548 67.06472c1.0892487 2.2952805 3.129013 4.10289 3.7553864 6.536888c0.23069763 1.206047 0.30078125 2.433998 0.25405884 3.6619415c-0.046722412 1.206047 0.20880127 2.433998 0.741745 3.5466003c0.6030121 1.0892334 1.8076019 1.715622 3.060379 1.5535507c0.6950073 -0.18543243 1.2746735 -0.62638855 1.6922607 -1.206047c0.6015625 -0.9038086 1.0191498 -1.9463196 1.1812286 -3.0121994c0.71836853 -3.454605 0.34750366 -7.3720703 -1.9229584 -10.083481" fill-rule="evenodd"/><path stroke="#000000" stroke-width="1.5826771653543308" stroke-miterlimit="15.875" stroke-linecap="butt" d="m146.46548 67.06472c1.0892487 2.2952805 3.129013 4.10289 3.7553864 6.536888c0.23069763 1.206047 0.30078125 2.433998 0.25405884 3.6619415c-0.046722412 1.206047 0.20880127 2.433998 0.741745 3.5466003c0.6030121 1.0892334 1.8076019 1.715622 3.060379 1.5535507c0.6950073 -0.18543243 1.2746735 -0.62638855 1.6922607 -1.206047c0.6015625 -0.9038086 1.0191498 -1.9463196 1.1812286 -3.0121994c0.71836853 -3.454605 0.34750366 -7.3720703 -1.9229584 -10.083481" fill-rule="evenodd"/><path fill="#a14600" d="m143.49855 67.92326l-6.675598 2.9669342c3.1056519 2.9902878 5.238861 6.8610306 7.9269104 10.267456c0.4409485 0.6263809 1.0206146 1.1593246 1.6688995 1.5769119c0.3358307 0.19711304 0.71836853 0.29494476 1.1009216 0.29494476c0.3825531 0 0.76509094 -0.097831726 1.1009216 -0.29494476c0.83517456 -0.6030197 0.85853577 -1.8076096 0.76509094 -2.8515854c-0.5329437 -4.542389 -2.6194305 -8.760628 -5.887146 -11.959717z" fill-rule="evenodd"/><path fill="#000000" fill-opacity="0.0" d="m136.82295 70.8902c3.1056519 2.9902878 5.238861 6.8610306 7.9269104 10.267456c0.4409485 0.6263809 1.0206146 1.1593246 1.6688995 1.5769119c0.6716461 0.39422607 1.5301971 0.39422607 2.2018433 0c0.83517456 -0.6030197 0.85853577 -1.8076096 0.76509094 -2.8515854c-0.5329437 -4.542389 -2.6194305 -8.760628 -5.887146 -11.959717" fill-rule="evenodd"/><path stroke="#000000" stroke-width="1.5826771653543308" stroke-miterlimit="15.875" stroke-linecap="butt" d="m136.82295 70.8902c3.1056519 2.9902878 5.238861 6.8610306 7.9269104 10.267456c0.4409485 0.6263809 1.0206146 1.1593246 1.6688995 1.5769119c0.6716461 0.39422607 1.5301971 0.39422607 2.2018433 0c0.83517456 -0.6030197 0.85853577 -1.8076096 0.76509094 -2.8515854c-0.5329437 -4.542389 -2.6194305 -8.760628 -5.887146 -11.959717" fill-rule="evenodd"/><path fill="#ffffff" d="m164.9621 48.753544l-1.1125946 2.271923c0.48620605 -0.67164993 0.8570709 -1.4601059 1.1125946 -2.271923z" fill-rule="evenodd"/><path fill="#000000" fill-opacity="0.0" d="m163.8495 51.025467c0.48620605 -0.67164993 0.8570709 -1.4601059 1.1125946 -2.271923" fill-rule="evenodd"/><path stroke="#000000" stroke-width="1.5826771653543308" stroke-linejoin="round" stroke-linecap="round" d="m163.8495 51.025467c0.48620605 -0.67164993 0.8570709 -1.4601059 1.1125946 -2.271923" fill-rule="evenodd"/><path fill="#ffffff" d="m143.77597 46.157475l-0.6482849 10.546341c0.9738922 -3.4297867 1.2045898 -7.0231056 0.6482849 -10.546341z" fill-rule="evenodd"/><path fill="#000000" fill-opacity="0.0" d="m143.77597 46.157475c0.55630493 3.5232353 0.3256073 7.1165543 -0.6482849 10.546341" fill-rule="evenodd"/><path stroke="#000000" stroke-width="1.5826771653543308" stroke-linejoin="round" stroke-linecap="round" d="m143.77597 46.157475c0.55630493 3.5232353 0.3256073 7.1165543 -0.6482849 10.546341" fill-rule="evenodd"/><path fill="#ffffff" d="m152.51471 46.92257l-0.32414246 4.1028976c0.1854248 -1.3681183 0.30078125 -2.7347794 0.32414246 -4.1028976z" fill-rule="evenodd"/><path fill="#000000" fill-opacity="0.0" d="m152.51471 46.92257c-0.023361206 1.3681183 -0.13871765 2.7347794 -0.32414246 4.1028976" fill-rule="evenodd"/><path stroke="#000000" stroke-width="1.5826771653543308" stroke-linejoin="round" stroke-linecap="round" d="m152.51471 46.92257c-0.023361206 1.3681183 -0.13871765 2.7347794 -0.32414246 4.1028976" fill-rule="evenodd"/><path fill="#ffffff" d="m150.2895 71.95607l2.387268 -1.2045822" fill-rule="evenodd"/><path fill="#000000" fill-opacity="0.0" d="m150.2895 71.95607l2.387268 -1.2045822" fill-rule="evenodd"/><path stroke="#000000" stroke-width="1.5826771653543308" stroke-linejoin="round" stroke-linecap="round" d="m150.2895 71.95607l2.387268 -1.2045822" fill-rule="evenodd"/><path fill="#ffffff" d="m141.45879 75.061714l0.81036377 -0.46285248" fill-rule="evenodd"/><path fill="#000000" fill-opacity="0.0" d="m141.45879 75.061714l0.81036377 -0.46285248" fill-rule="evenodd"/><path stroke="#000000" stroke-width="1.5826771653543308" stroke-linejoin="round" stroke-linecap="round" d="m141.45879 75.061714l0.81036377 -0.46285248" fill-rule="evenodd"/><path fill="#a14600" d="m153.02428 49.03242l-7.138443 0.4628563c-1.901062 1.9244156 -2.6895142 4.5905685 -4.056183 6.884392c-1.5301819 2.5040817 -3.9174652 4.54385 -4.6358337 7.3939743c-0.25550842 1.1126022 -0.32414246 2.248558 -0.25550842 3.3845215c-0.023361206 1.4133835 0.20878601 2.8282242 0.6497345 4.1948853c0.6716614 1.4834671 1.5520935 2.8515854 2.6413422 4.0561676c1.8090668 2.156578 3.663391 4.264969 5.5629883 6.3280945c0.2788849 0.34750366 0.67311096 0.62638855 1.0906982 0.7884598c0.07447815 0.011680603 0.14894104 0.01751709 0.22193909 0.01751709c0.50227356 0 0.9782715 -0.26573944 1.2615356 -0.6891632c0.30078125 -0.48767853 0.48620605 -1.067337 0.50956726 -1.6455383c0.34751892 -3.5013351 -0.78845215 -7.0012054 -3.152359 -9.620636c-0.57966614 -0.6249237 -1.2294159 -1.5053711 -0.74172974 -2.1784744c0.22776794 -0.2569809 0.5446167 -0.39714813 0.8731384 -0.39714813c0.17228699 0 0.3489685 0.03942108 0.5168762 0.11972809c0.4409485 0.23069763 0.83517456 0.5562973 1.1593323 0.97242737c1.5988007 1.7857132 3.2458038 3.7320328 3.5699463 6.097397c0.18544006 1.4133835 -0.1387024 2.8734894 -0.046722412 4.286873c0.023361206 0.4409485 0.13871765 0.8819046 0.34750366 1.2761307c0.3022461 0.43949127 0.74172974 0.74172974 1.2746735 0.85707855c0.19857788 0.046722412 0.39715576 0.068626404 0.5942688 0.068626404c1.3695679 0 2.6632233 -1.064415 3.2312012 -2.3405457c0.6716614 -1.4834671 0.57966614 -3.1757278 0.39424133 -4.797905c-0.18544006 -1.5988159 -0.44096375 -3.2443542 -0.09346008 -4.821266l0 0c1.0658875 1.4834671 1.6688995 3.2458115 2.5040894 4.8679886c0.833725 1.6455383 2.0397644 3.220993 3.7305603 3.847374c0.40882874 0.14893341 0.8570862 0.22924042 1.3009644 0.22924042c0.8672943 0 1.7170715 -0.30516052 2.2222748 -0.99433136c0.5110321 -0.8570862 0.7198334 -1.8777008 0.57966614 -2.8501282c0.023361206 -1.9244156 -0.13871765 -3.8488388 -0.4628601 -5.726532c-0.3022461 -1.3900223 -1.6221771 -2.4558945 -1.6922607 -3.8940964c-0.11534119 -1.5988159 -0.046722412 -2.6413307 -1.1125946 -3.8240166c-0.30078125 -0.32414246 0.4409485 -1.6455383 0.11534119 -1.9463196c-1.4600983 -1.2527733 -1.8995972 -3.337803 -3.220993 -4.776005c-1.0892334 -1.1812248 -2.6895142 -1.8076096 -4.1496124 -2.5026207c-1.4601135 -0.6950073 -2.9669342 -1.6221771 -3.5933228 -3.1290054z" fill-rule="evenodd"/><path stroke="#000000" stroke-width="1.5826771653543308" stroke-miterlimit="15.875" stroke-linecap="butt" d="m153.02428 49.03242l-7.138443 0.4628563c-1.901062 1.9244156 -2.6895142 4.5905685 -4.056183 6.884392c-1.5301819 2.5040817 -3.9174652 4.54385 -4.6358337 7.3939743c-0.25550842 1.1126022 -0.32414246 2.248558 -0.25550842 3.3845215c-0.023361206 1.4133835 0.20878601 2.8282242 0.6497345 4.1948853c0.6716614 1.4834671 1.5520935 2.8515854 2.6413422 4.0561676c1.8090668 2.156578 3.663391 4.264969 5.5629883 6.3280945c0.2788849 0.34750366 0.67311096 0.62638855 1.0906982 0.7884598c0.07447815 0.011680603 0.14894104 0.01751709 0.22193909 0.01751709c0.50227356 0 0.9782715 -0.26573944 1.2615356 -0.6891632c0.30078125 -0.48767853 0.48620605 -1.067337 0.50956726 -1.6455383c0.34751892 -3.5013351 -0.78845215 -7.0012054 -3.152359 -9.620636c-0.57966614 -0.6249237 -1.2294159 -1.5053711 -0.74172974 -2.1784744c0.22776794 -0.2569809 0.5446167 -0.39714813 0.8731384 -0.39714813c0.17228699 0 0.3489685 0.03942108 0.5168762 0.11972809c0.4409485 0.23069763 0.83517456 0.5562973 1.1593323 0.97242737c1.5988007 1.7857132 3.2458038 3.7320328 3.5699463 6.097397c0.18544006 1.4133835 -0.1387024 2.8734894 -0.046722412 4.286873c0.023361206 0.4409485 0.13871765 0.8819046 0.34750366 1.2761307c0.3022461 0.43949127 0.74172974 0.74172974 1.2746735 0.85707855c0.19857788 0.046722412 0.39715576 0.068626404 0.5942688 0.068626404c1.3695679 0 2.6632233 -1.064415 3.2312012 -2.3405457c0.6716614 -1.4834671 0.57966614 -3.1757278 0.39424133 -4.797905c-0.18544006 -1.5988159 -0.44096375 -3.2443542 -0.09346008 -4.821266l0 0c1.0658875 1.4834671 1.6688995 3.2458115 2.5040894 4.8679886c0.833725 1.6455383 2.0397644 3.220993 3.7305603 3.847374c0.40882874 0.14893341 0.8570862 0.22924042 1.3009644 0.22924042c0.8672943 0 1.7170715 -0.30516052 2.2222748 -0.99433136c0.5110321 -0.8570862 0.7198334 -1.8777008 0.57966614 -2.8501282c0.023361206 -1.9244156 -0.13871765 -3.8488388 -0.4628601 -5.726532c-0.3022461 -1.3900223 -1.6221771 -2.4558945 -1.6922607 -3.8940964c-0.11534119 -1.5988159 -0.046722412 -2.6413307 -1.1125946 -3.8240166c-0.30078125 -0.32414246 0.4409485 -1.6455383 0.11534119 -1.9463196c-1.4600983 -1.2527733 -1.8995972 -3.337803 -3.220993 -4.776005c-1.0892334 -1.1812248 -2.6895142 -1.8076096 -4.1496124 -2.5026207c-1.4601135 -0.6950073 -2.9669342 -1.6221771 -3.5933228 -3.1290054z" fill-rule="evenodd"/><path fill="#a14600" d="m156.57088 51.11891l-11.079285 5.7017097c1.5068359 1.5520935 3.5933228 1.9696808 5.4710236 2.8734856c2.4106293 1.1593246 3.337799 3.5699577 4.264969 5.910507c0.94906616 2.3420105 1.7375183 4.7292786 2.641327 7.069824c0.74172974 1.8777008 1.5301819 3.9174652 3.1071014 5.2855835c0.86875916 0.7548752 1.9828186 1.1607819 3.1187897 1.1607819c0.46868896 0 0.9403076 -0.068626404 1.400238 -0.21025085c1.8309631 -0.60302734 2.4106293 -2.2485657 2.201828 -4.0576324c-0.32414246 -2.4325333 -0.8103485 -4.821266 -1.3900146 -7.208542c-0.4876709 -2.3405457 -1.1359558 -4.659195 -1.9244232 -6.929657c-1.4133759 -3.870739 -3.7553864 -7.973633 -7.7881927 -9.59581z" fill-rule="evenodd"/><path fill="#000000" fill-opacity="0.0" d="m145.4916 56.82062c1.5068359 1.5520935 3.5933228 1.9696808 5.4710236 2.8734856c2.4106293 1.1593246 3.337799 3.5699577 4.264969 5.910507c0.94906616 2.3420105 1.7375183 4.7292786 2.641327 7.069824c0.74172974 1.8777008 1.5301819 3.9174652 3.1071014 5.2855835c1.227951 1.0658798 2.943573 1.4367447 4.5190277 0.950531c1.8309631 -0.60302734 2.4106293 -2.2485657 2.201828 -4.0576324c-0.32414246 -2.4325333 -0.8103485 -4.821266 -1.3900146 -7.208542c-0.4876709 -2.3405457 -1.1359558 -4.659195 -1.9244232 -6.929657c-1.4133759 -3.870739 -3.7553864 -7.973633 -7.7881927 -9.59581l-0.023361206 0" fill-rule="evenodd"/><path stroke="#000000" stroke-width="1.5826771653543308" stroke-miterlimit="15.875" stroke-linecap="butt" d="m145.4916 56.82062c1.5068359 1.5520935 3.5933228 1.9696808 5.4710236 2.8734856c2.4106293 1.1593246 3.337799 3.5699577 4.264969 5.910507c0.94906616 2.3420105 1.7375183 4.7292786 2.641327 7.069824c0.74172974 1.8777008 1.5301819 3.9174652 3.1071014 5.2855835c1.227951 1.0658798 2.943573 1.4367447 4.5190277 0.950531c1.8309631 -0.60302734 2.4106293 -2.2485657 2.201828 -4.0576324c-0.32414246 -2.4325333 -0.8103485 -4.821266 -1.3900146 -7.208542c-0.4876709 -2.3405457 -1.1359558 -4.659195 -1.9244232 -6.929657c-1.4133759 -3.870739 -3.7553864 -7.973633 -7.7881927 -9.59581l-0.023361206 0" fill-rule="evenodd"/><path fill="#a14600" d="m145.81573 67.181526l0 0c1.2060547 2.4573593 3.5232391 4.4504013 3.894104 7.2552643c0.3256073 2.4558945 -0.41612244 5.44619 1.5535583 7.3939667c0.69062805 0.7096176 1.5900574 1.0512772 2.4836273 1.0512772c1.2031403 0 2.3931122 -0.62200165 3.0326385 -1.7930069c1.2060547 -1.9711456 1.4367523 -4.7292786 1.3213959 -6.9997406c-0.09197998 -2.2719269 -0.90379333 -4.4737625 -2.3171844 -6.282837l-0.046722412 0l-9.921417 -0.6249237z" fill-rule="evenodd"/><path fill="#000000" fill-opacity="0.0" d="m145.81573 67.181526c1.2060547 2.4573593 3.5232391 4.4504013 3.894104 7.2552643c0.3256073 2.4558945 -0.41612244 5.44619 1.5535583 7.3939667c1.6221771 1.6689072 4.4036713 1.2980347 5.516266 -0.74172974c1.2060547 -1.9711456 1.4367523 -4.7292786 1.3213959 -6.9997406c-0.09197998 -2.2719269 -0.90379333 -4.4737625 -2.3171844 -6.282837l-0.046722412 0" fill-rule="evenodd"/><path stroke="#000000" stroke-width="1.5826771653543308" stroke-miterlimit="15.875" stroke-linecap="butt" d="m145.81573 67.181526c1.2060547 2.4573593 3.5232391 4.4504013 3.894104 7.2552643c0.3256073 2.4558945 -0.41612244 5.44619 1.5535583 7.3939667c1.6221771 1.6689072 4.4036713 1.2980347 5.516266 -0.74172974c1.2060547 -1.9711456 1.4367523 -4.7292786 1.3213959 -6.9997406c-0.09197998 -2.2719269 -0.90379333 -4.4737625 -2.3171844 -6.282837l-0.046722412 0" fill-rule="evenodd"/><path fill="#a14600" d="m144.00813 67.52903l-0.023361206 0.023361206l-7.626129 3.6853104c2.0397644 2.131752 3.894104 4.4737625 5.5177307 6.953018c0.7183838 1.0439758 1.4601135 2.0864868 2.2471008 3.0837402c0.62638855 0.950531 1.5068359 1.6688995 2.5508118 2.0864944c0.28764343 0.100746155 0.58695984 0.14892578 0.8833618 0.14892578c0.65997314 0 1.3097076 -0.24237823 1.8046875 -0.7052307c0.64974976 -0.76509094 0.9038086 -1.7857056 0.74172974 -2.7595978c-0.48620605 -4.7511826 -2.6427917 -9.178223 -6.095932 -12.516022z" fill-rule="evenodd"/><path fill="#000000" fill-opacity="0.0" d="m136.35864 71.2377c2.0397644 2.131752 3.894104 4.4737625 5.5177307 6.953018c0.7183838 1.0439758 1.4601135 2.0864868 2.2471008 3.0837402c0.62638855 0.950531 1.5068359 1.6688995 2.5508118 2.0864944c0.9271698 0.32414246 1.9696808 0.11534119 2.6880493 -0.55630493c0.64974976 -0.76509094 0.9038086 -1.7857056 0.74172974 -2.7595978c-0.48620605 -4.7511826 -2.6427917 -9.178223 -6.095932 -12.516022l-0.023361206 0.023361206" fill-rule="evenodd"/><path stroke="#000000" stroke-width="1.5826771653543308" stroke-miterlimit="15.875" stroke-linecap="butt" d="m136.35864 71.2377c2.0397644 2.131752 3.894104 4.4737625 5.5177307 6.953018c0.7183838 1.0439758 1.4601135 2.0864868 2.2471008 3.0837402c0.62638855 0.950531 1.5068359 1.6688995 2.5508118 2.0864944c0.9271698 0.32414246 1.9696808 0.11534119 2.6880493 -0.55630493c0.64974976 -0.76509094 0.9038086 -1.7857056 0.74172974 -2.7595978c-0.48620605 -4.7511826 -2.6427917 -9.178223 -6.095932 -12.516022l-0.023361206 0.023361206" fill-rule="evenodd"/><path fill="#ffffff" d="m170.22432 54.57206c-0.008758545 0.0073013306 -0.014602661 0.013141632 -0.020446777 0.01606369l0 0c0.00730896 -0.0058403015 0.013137817 -0.010223389 0.020446777 -0.01606369zm2.8983002 -2.7362366c-0.21463013 0 -0.42781067 0.08760834 -0.5811157 0.25551987l-1.2045898 1.2746696l-0.60302734 0.67311096l-0.30078125 0.32414246l-0.14016724 0.115348816c-0.023361206 0.023361206 -0.04525757 0.07008362 -0.068618774 0.093444824c-0.03211975 0 -0.04234314 0.020442963 -0.03211975 0.020442963c0.0029144287 0 0.007293701 -0.001461029 0.011672974 -0.0043792725l0 0c-0.10366821 0.09052658 -0.16644287 0.20003128 -0.18835449 0.3314438c0.023361206 0.13871002 0.09199524 0.27887726 0.20880127 0.34750366c0.1387024 0.116809845 0.30078125 0.16207123 0.46284485 0.16207123c0.16207886 0 0.32414246 -0.045261383 0.46432495 -0.16207123c0.8804321 -0.81035995 1.6922607 -1.7375259 2.5493317 -2.6427917l0 -0.045261383c0.20880127 -0.23215866 0 -0.5563011 -0.25550842 -0.67310715c-0.10221863 -0.046726227 -0.2117157 -0.07008743 -0.32269287 -0.07008743z" fill-rule="evenodd"/><path stroke="#000000" stroke-width="1.5826771653543308" stroke-linejoin="round" stroke-linecap="round" d="m170.22432 54.57206c-0.008758545 0.0073013306 -0.014602661 0.013141632 -0.020446777 0.01606369l0 0c0.00730896 -0.0058403015 0.013137817 -0.010223389 0.020446777 -0.01606369zm2.8983002 -2.7362366c-0.21463013 0 -0.42781067 0.08760834 -0.5811157 0.25551987l-1.2045898 1.2746696l-0.60302734 0.67311096l-0.30078125 0.32414246l-0.14016724 0.115348816c-0.023361206 0.023361206 -0.04525757 0.07008362 -0.068618774 0.093444824c-0.03211975 0 -0.04234314 0.020442963 -0.03211975 0.020442963c0.0029144287 0 0.007293701 -0.001461029 0.011672974 -0.0043792725l0 0c-0.10366821 0.09052658 -0.16644287 0.20003128 -0.18835449 0.3314438c0.023361206 0.13871002 0.09199524 0.27887726 0.20880127 0.34750366c0.1387024 0.116809845 0.30078125 0.16207123 0.46284485 0.16207123c0.16207886 0 0.32414246 -0.045261383 0.46432495 -0.16207123c0.8804321 -0.81035995 1.6922607 -1.7375259 2.5493317 -2.6427917l0 -0.045261383c0.20880127 -0.23215866 0 -0.5563011 -0.25550842 -0.67310715c-0.10221863 -0.046726227 -0.2117157 -0.07008743 -0.32269287 -0.07008743z" fill-rule="evenodd"/><path fill="#ffffff" d="m164.94603 48.220604c-0.10949707 0 -0.2190094 0.024822235 -0.30807495 0.07008362c-0.1387024 0.046726227 -0.25552368 0.16207123 -0.32414246 0.27742004c-0.093444824 0.4175911 -0.25552368 0.7884598 -0.4409485 1.1593246l-0.115356445 0.27888107l-0.046722412 0.06862259l-0.093444824 0.13871002c-0.09197998 0.18543625 -0.20880127 0.3489647 -0.34750366 0.53440094c0 0.021900177 -0.023361206 0.045261383 -0.023361206 0.06862259c-0.09197998 0.23215866 0.023361206 0.4876747 0.2788849 0.5796623c0.10220337 0.046722412 0.2117157 0.07008743 0.3226776 0.07008743c0.21463013 0 0.42781067 -0.08760834 0.5811157 -0.25551987c0.5095825 -0.71837234 0.9038086 -1.5301895 1.1593323 -2.387272l0 0.023361206c0.09197998 -0.32414246 -0.16207886 -0.5329399 -0.4643097 -0.6030235c-0.0569458 -0.016059875 -0.118270874 -0.023361206 -0.17814636 -0.023361206z" fill-rule="evenodd"/><path stroke="#000000" stroke-width="1.5826771653543308" stroke-linejoin="round" stroke-linecap="round" d="m164.94603 48.220604c-0.10949707 0 -0.2190094 0.024822235 -0.30807495 0.07008362c-0.1387024 0.046726227 -0.25552368 0.16207123 -0.32414246 0.27742004c-0.093444824 0.4175911 -0.25552368 0.7884598 -0.4409485 1.1593246l-0.115356445 0.27888107l-0.046722412 0.06862259l-0.093444824 0.13871002c-0.09197998 0.18543625 -0.20880127 0.3489647 -0.34750366 0.53440094c0 0.021900177 -0.023361206 0.045261383 -0.023361206 0.06862259c-0.09197998 0.23215866 0.023361206 0.4876747 0.2788849 0.5796623c0.10220337 0.046722412 0.2117157 0.07008743 0.3226776 0.07008743c0.21463013 0 0.42781067 -0.08760834 0.5811157 -0.25551987c0.5095825 -0.71837234 0.9038086 -1.5301895 1.1593323 -2.387272l0 0.023361206c0.09197998 -0.32414246 -0.16207886 -0.5329399 -0.4643097 -0.6030235c-0.0569458 -0.016059875 -0.118270874 -0.023361206 -0.17814636 -0.023361206z" fill-rule="evenodd"/><path fill="#ffffff" d="m143.25325 39.043842c-1.8645477 0 -3.7144928 0.19565582 -5.5498505 0.5782051c-1.5301971 0.32414246 -3.0589142 0.74172974 -4.56575 1.1344986c-10.917206 2.804863 -21.881134 5.4476547 -32.79834 8.18243c-11.034012 2.781498 -22.160011 5.471012 -32.98523 8.947521l80.45616 -3.7320251c0.833725 -0.83372116 1.6688995 -1.6922646 2.5259857 -2.525982c0.43218994 -0.5548401 1.0819397 -0.87314606 1.7579651 -0.87314606c0.08615112 0 0.17228699 0.004383087 0.2584381 0.014602661c1.9360962 0.21317673 3.8897247 0.31392288 5.831665 0.31392288c0.38253784 0 0.7636261 -0.0043792725 1.1447144 -0.011680603c1.067337 -0.046722412 2.109848 -0.18543243 3.1523743 -0.25551987c0.07299805 -0.0029182434 0.14454651 -0.0058403015 0.21609497 -0.0058403015c0.8541565 0 1.6995544 0.25405884 2.4266968 0.72421265c2.0164032 1.2294083 4.0561676 2.4807205 6.072571 3.7086678c1.9477844 1.2980309 3.9641876 2.4807167 6.0506744 3.5232315c0.9038086 0.4643135 1.9229584 0.69501114 2.943573 0.71837234c0.950531 0 2.3171844 -0.39422607 2.7814941 -1.3213959c0.44096375 -0.92570496 -0.39422607 -1.5520897 -0.950531 -2.1083908c-0.76509094 -0.76509476 -1.5301819 -1.5301895 -2.2952728 -2.271923c-2.8968506 -2.920208 -6.049225 -5.5629997 -9.433746 -7.880188c-3.615219 -2.3420067 -7.626129 -3.987545 -11.844376 -4.8446274c-2.1317444 -0.4643135 -4.288315 -0.81181717 -6.4434357 -1.1359596c-2.387268 -0.34750748 -4.7979126 -0.71837234 -7.208542 -0.8351822c-0.5154114 -0.029201508 -1.030838 -0.04380417 -1.543335 -0.04380417z" fill-rule="evenodd"/><path fill="#000000" fill-opacity="0.0" d="m67.35408 57.886497c10.825218 -3.476509 21.951218 -6.1660233 32.98523 -8.947521c10.917206 -2.7347755 21.881134 -5.3775673 32.79834 -8.18243c1.5068359 -0.39276886 3.035553 -0.81035614 4.56575 -1.1344986c2.3405457 -0.48767853 4.7059174 -0.67311096 7.0931854 -0.53440094c2.4106293 0.116809845 4.821274 0.4876747 7.208542 0.8351822c2.1551208 0.32414246 4.3116913 0.6716461 6.4434357 1.1359596c4.2182465 0.85708237 8.2291565 2.5026207 11.844376 4.8446274c3.3845215 2.3171883 6.5368958 4.95998 9.433746 7.880188c0.76509094 0.74173355 1.5301819 1.5068283 2.2952728 2.271923c0.55630493 0.5563011 1.3914948 1.1826859 0.950531 2.1083908c-0.4643097 0.9271698 -1.8309631 1.3213959 -2.7814941 1.3213959c-1.0206146 -0.023361206 -2.0397644 -0.25405884 -2.943573 -0.71837234c-2.0864868 -1.0425148 -4.10289 -2.2252007 -6.0506744 -3.5232315c-2.0164032 -1.2279472 -4.0561676 -2.4792595 -6.072571 -3.7086678c-0.7884674 -0.5095749 -1.7156372 -0.76509476 -2.6427917 -0.71837234c-1.0425262 0.07008743 -2.0850372 0.20879745 -3.1523743 0.25551987c-2.3171844 0.046722412 -4.65773 -0.046722412 -6.9763794 -0.30224228c-0.76509094 -0.09198761 -1.5301819 0.23215866 -2.0164032 0.8585434c-0.8570862 0.83371735 -1.6922607 1.6922607 -2.5259857 2.525982" fill-rule="evenodd"/><path stroke="#000000" stroke-width="1.5826771653543308" stroke-linejoin="round" stroke-linecap="round" d="m67.35408 57.886497c10.825218 -3.476509 21.951218 -6.1660233 32.98523 -8.947521c10.917206 -2.7347755 21.881134 -5.3775673 32.79834 -8.18243c1.5068359 -0.39276886 3.035553 -0.81035614 4.56575 -1.1344986c2.3405457 -0.48767853 4.7059174 -0.67311096 7.0931854 -0.53440094c2.4106293 0.116809845 4.821274 0.4876747 7.208542 0.8351822c2.1551208 0.32414246 4.3116913 0.6716461 6.4434357 1.1359596c4.2182465 0.85708237 8.2291565 2.5026207 11.844376 4.8446274c3.3845215 2.3171883 6.5368958 4.95998 9.433746 7.880188c0.76509094 0.74173355 1.5301819 1.5068283 2.2952728 2.271923c0.55630493 0.5563011 1.3914948 1.1826859 0.950531 2.1083908c-0.4643097 0.9271698 -1.8309631 1.3213959 -2.7814941 1.3213959c-1.0206146 -0.023361206 -2.0397644 -0.25405884 -2.943573 -0.71837234c-2.0864868 -1.0425148 -4.10289 -2.2252007 -6.0506744 -3.5232315c-2.0164032 -1.2279472 -4.0561676 -2.4792595 -6.072571 -3.7086678c-0.7884674 -0.5095749 -1.7156372 -0.76509476 -2.6427917 -0.71837234c-1.0425262 0.07008743 -2.0850372 0.20879745 -3.1523743 0.25551987c-2.3171844 0.046722412 -4.65773 -0.046722412 -6.9763794 -0.30224228c-0.76509094 -0.09198761 -1.5301819 0.23215866 -2.0164032 0.8585434c-0.8570862 0.83371735 -1.6922607 1.6922607 -2.5259857 2.525982" fill-rule="evenodd"/><path fill="#a14600" d="m143.34378 38.00425c-0.7621765 0 -1.5214233 0.027740479 -2.2792206 0.08760452c-3.3144379 0.25405884 -6.4901733 1.227951 -9.689255 2.016407c-11.473511 2.943573 -22.993736 5.7017097 -34.44388 8.600018c-6.119301 1.5520935 -12.238602 3.1290054 -18.334541 4.797905c-4.4504013 1.2279472 -9.062866 2.6413307 -13.351196 3.9627266c-3.222454 0.9505272 -6.536892 1.7623444 -9.827969 2.642788l-9.3884735 2.549343l0 0.023361206l97.8168 -2.9435692l5.0767975 -5.076786c0.8337097 -0.83372116 1.6688995 -1.6907997 2.5259705 -2.525982c0.30078125 -0.27742004 0.60887146 -0.35334396 0.93592834 -0.35334396c0.30078125 0 0.61909485 0.065704346 0.96513367 0.0978241c0.5095825 0.07008743 1.042511 0.116809845 1.5520935 0.14017105c0.870224 0.0511055 1.7389832 0.07738495 2.6062775 0.07738495c1.4469757 0 2.8910217 -0.07154465 4.3248444 -0.217556c0.22776794 -0.046722412 0.45993042 -0.07008362 0.6891632 -0.07008362c0.4467926 0 0.8906708 0.08760834 1.3038788 0.25551987c0.5796509 0.30224228 1.159317 0.69646835 1.715622 1.0439758l2.758133 1.6922607c2.109848 1.2746696 4.172989 2.5727043 6.281372 3.8006516c1.6528473 0.9738922 3.5261536 1.9025192 5.447647 1.9025192c0.046722412 0 0.09199524 0 0.13871765 -0.001461029c1.4600983 -0.046722412 3.3845215 -0.62638474 4.0561676 -2.0864906c0.74172974 -1.715622 -1.227951 -3.0355568 -2.2252045 -4.0561714c-1.4367371 -1.4133835 -2.8968353 -2.8515854 -4.4036713 -4.17152c-3.0136566 -2.8282242 -6.4200745 -5.2388573 -10.083481 -7.186638c-3.894104 -1.9463196 -8.159073 -2.9435692 -12.447403 -3.6385803c-3.842987 -0.6409874 -7.799881 -1.362278 -11.720261 -1.362278z" fill-rule="evenodd"/><path fill="#000000" fill-opacity="0.0" d="m143.84605 59.740833l5.0767975 -5.076786c0.8337097 -0.83372116 1.6688995 -1.6907997 2.5259705 -2.525982c0.57966614 -0.5329399 1.1826935 -0.32414246 1.901062 -0.25551987c0.5095825 0.07008743 1.042511 0.116809845 1.5520935 0.14017105c2.3186493 0.13871002 4.6358337 0.09198761 6.931122 -0.14017105c0.6716461 -0.13871002 1.3681183 -0.06862259 1.993042 0.18543625c0.5796509 0.30224228 1.159317 0.69646835 1.715622 1.0439758l2.758133 1.6922607c2.109848 1.2746696 4.172989 2.5727043 6.281372 3.8006516c1.6922607 0.9972534 3.616684 1.9477806 5.5863647 1.9010582c1.4600983 -0.046722412 3.3845215 -0.62638474 4.0561676 -2.0864906c0.74172974 -1.715622 -1.227951 -3.0355568 -2.2252045 -4.0561714c-1.4367371 -1.4133835 -2.8968353 -2.8515854 -4.4036713 -4.17152c-3.0136566 -2.8282242 -6.4200745 -5.2388573 -10.083481 -7.186638c-3.894104 -1.9463196 -8.159073 -2.9435692 -12.447403 -3.6385803c-4.5891113 -0.76509476 -9.340286 -1.6455383 -13.999481 -1.2746735c-3.3144379 0.25405884 -6.4901733 1.227951 -9.689255 2.016407c-11.473511 2.943573 -22.993736 5.7017097 -34.44388 8.600018c-6.119301 1.5520935 -12.238602 3.1290054 -18.334541 4.797905c-4.4504013 1.2279472 -9.062866 2.6413307 -13.351196 3.9627266c-3.222454 0.9505272 -6.536892 1.7623444 -9.827969 2.642788l-9.3884735 2.549343l0 0.023361206" fill-rule="evenodd"/><path stroke="#000000" stroke-width="1.5826771653543308" stroke-miterlimit="15.875" stroke-linecap="butt" d="m143.84605 59.740833l5.0767975 -5.076786c0.8337097 -0.83372116 1.6688995 -1.6907997 2.5259705 -2.525982c0.57966614 -0.5329399 1.1826935 -0.32414246 1.901062 -0.25551987c0.5095825 0.07008743 1.042511 0.116809845 1.5520935 0.14017105c2.3186493 0.13871002 4.6358337 0.09198761 6.931122 -0.14017105c0.6716461 -0.13871002 1.3681183 -0.06862259 1.993042 0.18543625c0.5796509 0.30224228 1.159317 0.69646835 1.715622 1.0439758l2.758133 1.6922607c2.109848 1.2746696 4.172989 2.5727043 6.281372 3.8006516c1.6922607 0.9972534 3.616684 1.9477806 5.5863647 1.9010582c1.4600983 -0.046722412 3.3845215 -0.62638474 4.0561676 -2.0864906c0.74172974 -1.715622 -1.227951 -3.0355568 -2.2252045 -4.0561714c-1.4367371 -1.4133835 -2.8968353 -2.8515854 -4.4036713 -4.17152c-3.0136566 -2.8282242 -6.4200745 -5.2388573 -10.083481 -7.186638c-3.894104 -1.9463196 -8.159073 -2.9435692 -12.447403 -3.6385803c-4.5891113 -0.76509476 -9.340286 -1.6455383 -13.999481 -1.2746735c-3.3144379 0.25405884 -6.4901733 1.227951 -9.689255 2.016407c-11.473511 2.943573 -22.993736 5.7017097 -34.44388 8.600018c-6.119301 1.5520935 -12.238602 3.1290054 -18.334541 4.797905c-4.4504013 1.2279472 -9.062866 2.6413307 -13.351196 3.9627266c-3.222454 0.9505272 -6.536892 1.7623444 -9.827969 2.642788l-9.3884735 2.549343l0 0.023361206" fill-rule="evenodd"/><path fill="#000000" fill-opacity="0.0" d="m54.744614 92.029594l0.11680603 -0.023361206c2.387272 -0.7650986 4.7511826 -1.715622 7.115093 -2.549347l14.60397 -5.2154922l16.966423 -6.0725784l13.954224 -4.9847946l5.840416 -2.1083908l0.023361206 0" fill-rule="evenodd"/><path stroke="#000000" stroke-width="1.5826771653543308" stroke-linejoin="round" stroke-linecap="round" d="m54.744614 92.029594l0.11680603 -0.023361206c2.387272 -0.7650986 4.7511826 -1.715622 7.115093 -2.549347l14.60397 -5.2154922l16.966423 -6.0725784l13.954224 -4.9847946l5.840416 -2.1083908l0.023361206 0" fill-rule="evenodd"/><path fill="#000000" fill-opacity="0.0" d="m143.77597 56.79726c0.9738922 -3.453148 1.1826935 -7.0931892 0.64974976 -10.663147" fill-rule="evenodd"/><path stroke="#000000" stroke-width="1.5826771653543308" stroke-linejoin="round" stroke-linecap="round" d="m143.77597 56.79726c0.9738922 -3.453148 1.1826935 -7.0931892 0.64974976 -10.663147" fill-rule="evenodd"/><path fill="#ffffff" d="m153.1878 46.875847l-0.32559204 4.126259c0.1620636 -1.3666611 0.27886963 -2.7347794 0.32559204 -4.126259z" fill-rule="evenodd"/><path fill="#000000" fill-opacity="0.0" d="m152.86221 51.002106c0.1620636 -1.3666611 0.27886963 -2.7347794 0.32559204 -4.126259" fill-rule="evenodd"/><path stroke="#000000" stroke-width="1.5826771653543308" stroke-linejoin="round" stroke-linecap="round" d="m152.86221 51.002106c0.1620636 -1.3666611 0.27886963 -2.7347794 0.32559204 -4.126259" fill-rule="evenodd"/><path fill="#ffffff" d="m150.61365 72.37366l2.4106293 -1.2294083l0 0" fill-rule="evenodd"/><path fill="#000000" fill-opacity="0.0" d="m150.61365 72.37366l2.4106293 -1.2294083l0 0" fill-rule="evenodd"/><path stroke="#000000" stroke-width="1.5826771653543308" stroke-linejoin="round" stroke-linecap="round" d="m150.61365 72.37366l2.4106293 -1.2294083l0 0" fill-rule="evenodd"/><path fill="#ffffff" d="m142.73346 74.923004l-1.2746735 0.62638855c0.09199524 0 0.16207886 -0.023368835 0.25405884 -0.04673004c0.07008362 -0.023361206 0.14016724 -0.046722412 0.20880127 -0.115348816l0.81181335 -0.4643097z" fill-rule="evenodd"/><path fill="#000000" fill-opacity="0.0" d="m141.45879 75.54939c0.09199524 0 0.16207886 -0.023368835 0.25405884 -0.04673004c0.07008362 -0.023361206 0.14016724 -0.046722412 0.20880127 -0.115348816l0.81181335 -0.4643097" fill-rule="evenodd"/><path stroke="#000000" stroke-width="1.5826771653543308" stroke-linejoin="round" stroke-linecap="round" d="m141.45879 75.54939c0.09199524 0 0.16207886 -0.023368835 0.25405884 -0.04673004c0.07008362 -0.023361206 0.14016724 -0.046722412 0.20880127 -0.115348816l0.81181335 -0.4643097" fill-rule="evenodd"/><path fill="#973896" d="m179.25945 52.784893c-0.21025085 0 -0.3971405 0.13432693 -0.48182678 0.35042572c-0.07009888 0.27742004 0.20732117 0.5329361 0.43948364 0.71836853c1.5301971 1.2746735 2.9902954 2.7114182 4.4036713 4.1028976c0.07009888 0.06862259 0.1635437 0.115348816 0.25552368 0.13871002c0.00730896 0 0.014602661 0 0.021896362 0c0.2788849 0 0.25260925 -0.4467926 0.11682129 -0.71837234c-0.9271698 -1.8076096 -2.340561 -3.337799 -4.079544 -4.403675c-0.1854248 -0.116809845 -0.41612244 -0.18543625 -0.6249237 -0.18543625c-0.01751709 -0.0029182434 -0.033584595 -0.0029182434 -0.051101685 -0.0029182434z" fill-rule="evenodd"/><path fill="#ffffff" d="m84.505936 45.462467c-0.8643875 0 -1.7156296 0.26135635 -2.3858109 0.8351784c-1.5068283 1.2980347 -1.9477844 3.5451355 -3.5232391 4.7278214c-0.8191147 0.5402374 -1.7696457 0.81619644 -2.7289352 0.81619644c-0.64390564 0 -1.2921906 -0.12410736 -1.9068985 -0.37524414c-3.1713486 -1.1169815 -5.504593 -3.6969872 -9.070168 -3.6969872c-0.13578796 0 -0.27158356 0.0029182434 -0.41029358 0.011680603c-5.03006 0.27742004 -6.931118 6.1879234 -10.708408 8.4832115c-5.2388573 3.1290016 -13.722065 4.0561714 -19.655933 5.6549835l-3.3144379 45.130383c17.2672 -5.3775635 36.692436 -6.931114 53.4048 -12.748177c3.615219 -1.298027 6.906296 -4.335045 7.2537994 -8.159065c0.11681366 -1.4148407 0.07008362 -2.480713 0.950531 -3.6166763c1.0731735 0.5679779 2.4442139 0.9344635 3.769989 0.9344635c2.0266266 0 3.949585 -0.8526993 4.5511475 -3.1363068c0.16353607 -0.6030197 0.23215485 -1.3447495 0.74173737 -1.7389832c0.2584381 -0.19126892 0.5548401 -0.25405884 0.86875916 -0.25405884c0.5606842 0 1.1783066 0.20149994 1.7273026 0.23069763c0.026283264 0.0014648438 0.051109314 0.0014648438 0.075927734 0.0014648438c1.4498825 0 2.6427917 -1.3009567 2.9844513 -2.7362442c0.20880127 -1.4600983 0.04673004 -2.9669266 -0.48621368 -4.3335876c-1.8776932 -6.003952 -5.1235046 -11.543591 -6.675598 -17.63953c-0.27887726 -1.6688995 -0.811821 -3.2910767 -1.5535507 -4.821266c-0.7840805 -1.3929405 -2.2222824 -2.5420418 -3.7758331 -2.5420418c-0.100746155 0 -0.20295715 0.0058403015 -0.3037033 0.014602661c-1.9098129 0.15184784 -3.4750443 1.9506989 -5.3220825 1.9506989c-0.12556458 0 -0.25113678 -0.00876236 -0.3796234 -0.026283264c-0.40882874 -1.8090706 -2.3011246 -2.9669304 -4.127716 -2.9669304z" fill-rule="evenodd"/><path fill="#000000" fill-opacity="0.0" d="m30.801811 107.04969c17.2672 -5.3775635 36.692436 -6.931114 53.4048 -12.748177c3.615219 -1.298027 6.906296 -4.335045 7.2537994 -8.159065c0.11681366 -1.4148407 0.07008362 -2.480713 0.950531 -3.6166763c2.7128754 1.4367447 7.325348 1.5769119 8.321136 -2.2018433c0.16353607 -0.6030197 0.23215485 -1.3447495 0.74173737 -1.7389832c0.71982574 -0.5329361 1.7389832 -0.068626404 2.5960617 -0.023361206c1.4834671 0.046722412 2.7128754 -1.2746735 3.060379 -2.7347794c0.20880127 -1.4600983 0.04673004 -2.9669266 -0.48621368 -4.3335876c-1.8776932 -6.003952 -5.1235046 -11.543591 -6.675598 -17.63953c-0.27887726 -1.6688995 -0.811821 -3.2910767 -1.5535507 -4.821266c-0.8351822 -1.4834671 -2.410637 -2.6895103 -4.0795364 -2.527439c-2.0397644 0.16352844 -3.6853027 2.2032967 -5.701706 1.9244156c-0.60302734 -2.6661491 -4.42704 -3.9174614 -6.513527 -2.131752c-1.5068283 1.2980347 -1.9477844 3.5451355 -3.5232391 4.7278214c-1.3681183 0.9038048 -3.1056442 1.065876 -4.6358337 0.4409523c-3.2910767 -1.1593246 -5.679802 -3.8941002 -9.480461 -3.6853065c-5.03006 0.27742004 -6.931118 6.1879234 -10.708408 8.4832115c-5.2388573 3.1290016 -13.722065 4.0561714 -19.655933 5.6549835" fill-rule="evenodd"/><path stroke="#000000" stroke-width="1.5826771653543308" stroke-linejoin="round" stroke-linecap="round" d="m30.801811 107.04969c17.2672 -5.3775635 36.692436 -6.931114 53.4048 -12.748177c3.615219 -1.298027 6.906296 -4.335045 7.2537994 -8.159065c0.11681366 -1.4148407 0.07008362 -2.480713 0.950531 -3.6166763c2.7128754 1.4367447 7.325348 1.5769119 8.321136 -2.2018433c0.16353607 -0.6030197 0.23215485 -1.3447495 0.74173737 -1.7389832c0.71982574 -0.5329361 1.7389832 -0.068626404 2.5960617 -0.023361206c1.4834671 0.046722412 2.7128754 -1.2746735 3.060379 -2.7347794c0.20880127 -1.4600983 0.04673004 -2.9669266 -0.48621368 -4.3335876c-1.8776932 -6.003952 -5.1235046 -11.543591 -6.675598 -17.63953c-0.27887726 -1.6688995 -0.811821 -3.2910767 -1.5535507 -4.821266c-0.8351822 -1.4834671 -2.410637 -2.6895103 -4.0795364 -2.527439c-2.0397644 0.16352844 -3.6853027 2.2032967 -5.701706 1.9244156c-0.60302734 -2.6661491 -4.42704 -3.9174614 -6.513527 -2.131752c-1.5068283 1.2980347 -1.9477844 3.5451355 -3.5232391 4.7278214c-1.3681183 0.9038048 -3.1056442 1.065876 -4.6358337 0.4409523c-3.2910767 -1.1593246 -5.679802 -3.8941002 -9.480461 -3.6853065c-5.03006 0.27742004 -6.931118 6.1879234 -10.708408 8.4832115c-5.2388573 3.1290016 -13.722065 4.0561714 -19.655933 5.6549835" fill-rule="evenodd"/><path fill="#ffffff" d="m186.49573 45.717983l-26.911194 14.4857025l26.934555 49.99837l26.911194 -14.510521l-26.934555 -49.973553z" fill-rule="evenodd"/><path stroke="#000000" stroke-width="1.5406824146981628" stroke-linejoin="round" stroke-linecap="round" d="m186.49573 45.717983l-26.911194 14.4857025l26.934555 49.99837l26.911194 -14.510521l-26.934555 -49.973553z" fill-rule="evenodd"/><path fill="#a14600" d="m139.97533 54.154472l-32.35885 16.271408c6.13974 2.1521912 12.5131 4.3365097 19.08065 4.3365097c1.1432571 0 2.2938232 -0.065704346 3.4502258 -0.21025085c3.220993 -0.3942337 6.2112885 -1.5988159 9.154861 -2.8515854c2.9669342 -1.2746735 5.9572296 -2.5026245 9.2716675 -2.688057c0.36940002 -0.01751709 0.7388153 -0.02481842 1.1082153 -0.02481842c2.647171 0 5.294342 0.3883896 7.941513 0.3883896c0.45993042 0 0.9213257 -0.011680603 1.3812561 -0.03942871c2.8048706 -0.16207123 5.8418884 -0.85707855 7.9269104 -2.8501205c1.8543396 -1.8090744 2.6895142 -4.7292824 0.64974976 -6.769047c-1.4951477 -1.5272713 -3.5261536 -1.8864555 -5.5746765 -1.8864555c-0.93592834 0 -1.876236 0.07592392 -2.7698212 0.1489296c-2.277771 0.19127274 -4.5934906 0.45993423 -6.899002 0.45993423c-1.3067932 0 -2.610672 -0.08614731 -3.9028625 -0.3212242c-3.1056366 -0.5796623 -5.980591 -1.9477806 -8.413116 -3.9641838z" fill-rule="evenodd"/><path fill="#000000" fill-opacity="0.0" d="m107.61648 70.42588c7.2085342 2.527443 14.742676 5.1001434 22.530876 4.126259c3.220993 -0.3942337 6.2112885 -1.5988159 9.154861 -2.8515854c2.9669342 -1.2746735 5.9572296 -2.5026245 9.2716675 -2.688057c3.4779663 -0.16207123 6.954483 0.5329437 10.4309845 0.32414246c2.8048706 -0.16207123 5.8418884 -0.85707855 7.9269104 -2.8501205c1.8543396 -1.8090744 2.6895142 -4.7292824 0.64974976 -6.769047c-2.178482 -2.2252007 -5.49292 -1.9696846 -8.344498 -1.7375259c-3.5699615 0.30078125 -7.231903 0.78699493 -10.801865 0.13871002c-3.1056366 -0.5796623 -5.980591 -1.9477806 -8.413116 -3.9641838l-0.046722412 0" fill-rule="evenodd"/><path stroke="#000000" stroke-width="1.5826771653543308" stroke-miterlimit="15.875" stroke-linecap="butt" d="m107.61648 70.42588c7.2085342 2.527443 14.742676 5.1001434 22.530876 4.126259c3.220993 -0.3942337 6.2112885 -1.5988159 9.154861 -2.8515854c2.9669342 -1.2746735 5.9572296 -2.5026245 9.2716675 -2.688057c3.4779663 -0.16207123 6.954483 0.5329437 10.4309845 0.32414246c2.8048706 -0.16207123 5.8418884 -0.85707855 7.9269104 -2.8501205c1.8543396 -1.8090744 2.6895142 -4.7292824 0.64974976 -6.769047c-2.178482 -2.2252007 -5.49292 -1.9696846 -8.344498 -1.7375259c-3.5699615 0.30078125 -7.231903 0.78699493 -10.801865 0.13871002c-3.1056366 -0.5796623 -5.980591 -1.9477806 -8.413116 -3.9641838l-0.046722412 0" fill-rule="evenodd"/><path fill="#452391" d="m184.15518 64.700806l-0.64974976 0.3475113l12.609467 23.434685l0.6716461 -0.3475113l-12.631363 -23.434685z" fill-rule="evenodd"/><path fill="#452391" d="m184.40924 82.24835l-0.6716461 0.34750366l0.41758728 0.78699493c0.41612244 0.7650986 0.9271698 1.715622 1.227951 2.1332169c0.39422607 0.5796585 0.99723816 1.0191498 1.6922607 1.2279434c0.38253784 0.14017487 0.7811432 0.20880127 1.178299 0.20880127c0.58695984 0 1.1695404 -0.15039062 1.6951752 -0.43949127l0.741745 -0.4175949l1.1826782 -0.6263809c0.34605408 -0.18689728 0.71836853 -0.27596283 1.086319 -0.27596283c0.81474304 0 1.60466 0.4365692 2.019333 1.203125l0.76509094 1.4148407l0.32414246 0.6015625l0.64974976 -0.34750366l-1.0892487 -2.0397644c-0.5621338 -1.0103912 -1.6104889 -1.5769119 -2.6880493 -1.5769119c-0.4803772 0 -0.96513367 0.11242676 -1.4148407 0.34896088l-1.2060394 0.64829254l-0.741745 0.41758728c-0.413208 0.23361969 -0.87605286 0.35334778 -1.3432922 0.35334778c-0.31976318 0 -0.6409912 -0.055488586 -0.950531 -0.16791534c-0.5110321 -0.16207123 -0.9738922 -0.5095749 -1.2980347 -0.950531c-0.25550842 -0.39422607 -0.76509094 -1.3666534 -1.159317 -2.0631256l-0.41758728 -0.78699493z" fill-rule="evenodd"/><path fill="#452391" d="m184.17708 64.700806l-0.6716461 0.3708725l0.39422607 0.71836853l1.0892334 2.0164032c0.60302734 1.1126022 0.16207886 2.5040817 -0.95051575 3.107109l-1.1812286 0.6249237l-0.74172974 0.41758728c-0.90527344 0.44095612 -1.5535583 1.2746735 -1.809082 2.2485657c-0.1854248 0.6950073 -0.1620636 1.4133759 0.11682129 2.0864868c0.20878601 0.5095749 0.46284485 0.9957886 0.71836853 1.4834671l0.32414246 0.5796585l0.71836853 -0.37086487l-0.32414246 -0.5796585c-0.25552368 -0.44095612 -0.4862213 -0.9038086 -0.6950073 -1.3914795c-0.20880127 -0.5095825 -0.23216248 -1.089241 -0.093444824 -1.6221771c0.1854248 -0.7650986 0.71836853 -1.4133835 1.4148407 -1.7842484l0.74172974 -0.3942337l1.2045898 -0.6497421c1.4600983 -0.81035614 1.993042 -2.6194305 1.227951 -4.1028976l-1.4834747 -2.7581406z" fill-rule="evenodd"/><path fill="#99c941" d="m183.0309 77.868034c-0.39860535 0 -0.8001404 0.09636688 -1.1710052 0.30078125l-0.046722412 0.021903992c-1.227951 0.64974976 -1.6688995 2.1799393 -0.9957886 3.3845215c0.46139526 0.8293381 1.3286896 1.2965775 2.2178955 1.2965775c0.40444946 0 0.81181335 -0.09636688 1.1885223 -0.29932404c1.1826935 -0.64974976 1.6455383 -2.156578 0.9972534 -3.3611603c0 -0.023361206 -0.023361206 -0.046722412 -0.023361206 -0.07008362c-0.44532776 -0.81036377 -1.2951202 -1.2732162 -2.1667938 -1.2732162z" fill-rule="evenodd"/><path fill="#452391" d="m197.70496 87.95298c-0.40737915 0 -0.82058716 0.10366821 -1.1958313 0.3212204c-1.2060394 0.64974976 -1.6688995 2.1551208 -0.9972534 3.361168c0.4497223 0.83517456 1.3126373 1.3038712 2.2003784 1.3038712c0.3927765 0 0.79138184 -0.09198761 1.1607819 -0.28472137c1.2060547 -0.6482849 1.6455383 -2.131752 1.0206146 -3.337799c-0.023361206 -0.045265198 -0.046722412 -0.068626404 -0.07008362 -0.115348816c-0.43803406 -0.79867554 -1.2688293 -1.2483902 -2.1186066 -1.2483902z" fill-rule="evenodd"/><path fill="#973896" d="m182.57826 59.68681c-0.43803406 0 -0.88482666 0.10658646 -1.2980347 0.3314438l-0.07008362 0.046722412c-1.2980347 0.74173355 -1.7375183 2.410633 -0.97242737 3.6853065c0.49935913 0.90380096 1.4382019 1.4148407 2.4077148 1.4148407c0.4234314 0 0.8527069 -0.0978241 1.2542267 -0.3022461c1.2980347 -0.71836853 1.8076172 -2.3639069 1.0892334 -3.6853027c0 -0.023361206 -0.023361206 -0.046722412 -0.046722412 -0.06862259c-0.4774475 -0.90818787 -1.4031525 -1.422142 -2.3639069 -1.422142z" fill-rule="evenodd"/><path fill="#452391" d="m183.02798 78.19364c0.76509094 0 1.5068207 0.4117508 1.8908234 1.1330414l0.023361206 0.023361206c0.25552368 0.5095749 0.3256073 1.0892334 0.1401825 1.6455383c-0.1635437 0.5329361 -0.53440857 0.9972534 -1.0439758 1.2527695c-0.32707214 0.17375183 -0.6789551 0.2569809 -1.0264587 0.2569809c-0.7592621 0 -1.4966125 -0.39861298 -1.893753 -1.1155243c-0.2788849 -0.5095749 -0.34750366 -1.1126022 -0.16207886 -1.6455383c0.16207886 -0.5562973 0.55630493 -1.0191498 1.0658722 -1.2980347c0.32122803 -0.17082977 0.66581726 -0.252594 1.0060272 -0.252594zm0.04232788 -0.5314789c-0.45846558 0 -0.92277527 0.11096954 -1.3491364 0.3431244c-1.3213806 0.7198334 -1.8543243 2.3420105 -1.2060394 3.708664l0.023361206 -0.021903992c0.5168762 0.93592834 1.5068359 1.4790878 2.5216064 1.4790878c0.44241333 0 0.8877411 -0.10220337 1.302414 -0.3212204c0.6497345 -0.37086487 1.1125946 -0.97242737 1.3213959 -1.6688995c0.20878601 -0.71837616 0.14016724 -1.5068283 -0.18544006 -2.1551132c-0.5329437 -0.8775253 -1.4688721 -1.363739 -2.4281616 -1.363739z" fill-rule="evenodd"/><path fill="#452391" d="m197.6816 88.27712c0.7431946 0 1.4907684 0.3664856 1.9098206 1.1330414l0 0.023361206c0.5562897 1.0425186 0.14016724 2.3405533 -0.9038086 2.8968506c-0.32269287 0.17229462 -0.6687317 0.25260162 -1.0103912 0.25260162c-0.7665558 0 -1.5097504 -0.4059143 -1.9098206 -1.1096802c-0.2788849 -0.5095825 -0.34750366 -1.1126022 -0.16207886 -1.6455383c0.2920227 -1.0147781 1.1797638 -1.5506363 2.0762787 -1.5506363zm-0.011688232 -0.66872406c-0.44970703 0 -0.9038086 0.110961914 -1.3228455 0.34165955c-0.67311096 0.3708725 -1.1593323 0.9738922 -1.3914795 1.6922607c-0.20880127 0.71837616 -0.13871765 1.4834671 0.23214722 2.1551208l0.023361206 -0.023361206c0.5139618 0.94906616 1.4849243 1.4849243 2.4967804 1.4849243c0.4467926 0 0.90089417 -0.10512543 1.32724 -0.3256073c1.3681183 -0.74172974 1.8543243 -2.4573517 1.1125946 -3.8240128c0 0 -0.023361206 -0.023361206 -0.023361206 -0.023361206c-0.493515 -0.94176483 -1.4615631 -1.477623 -2.4544373 -1.477623z" fill-rule="evenodd"/><path fill="#452391" d="m182.56075 60.044533c0.8410187 0 1.6484528 0.44241333 2.0806427 1.22649l0.09199524 0.045261383c0.27886963 0.5796623 0.3489685 1.2294083 0.14016724 1.8324318c-0.18544006 0.6015663 -0.60302734 1.1125984 -1.159317 1.3900185c-0.36357117 0.20295715 -0.75634766 0.30078125 -1.1447296 0.30078125c-0.8497772 0 -1.6776581 -0.46285248 -2.1229858 -1.2746696c-0.3022461 -0.5329361 -0.37088013 -1.204586 -0.18544006 -1.7842484c0.18544006 -0.62638474 0.6249237 -1.1593208 1.1812286 -1.4601021c0.35917664 -0.18689346 0.74172974 -0.27596283 1.1184387 -0.27596283zm0.023361206 -0.7125282c-0.4862213 0 -0.9797363 0.11680603 -1.4425812 0.3621025c-0.71836853 0.37086868 -1.2513123 1.0439758 -1.4834747 1.8309746c-0.25550842 0.76509476 -0.1620636 1.6002731 0.20880127 2.3186455c0.5577545 1.0206146 1.6090393 1.601738 2.6924286 1.601738c0.493515 0 0.99287415 -0.11972809 1.4557343 -0.37378693c0.71836853 -0.3708725 1.2294006 -1.0191574 1.4600983 -1.8076134c0.23216248 -0.76509476 0.16352844 -1.5988159 -0.23069763 -2.3186455c0 0 0 -0.021900177 0 -0.021900177c-0.55921936 -1.0206146 -1.5885925 -1.5915146 -2.6603088 -1.5915146z" fill-rule="evenodd"/><path fill="#99c941" d="m163.50638 59.603584c-1.0585785 0 -2.1828613 0.3445816 -3.018036 0.8088951c-0.7884674 0.3942299 -1.3666687 1.067337 -1.6688995 1.877697c-0.5329437 1.6455383 0.83517456 3.1523666 2.4573517 3.1757278c0.34750366 0 0.6950073 -0.023361206 1.0191498 -0.09198761c1.5769196 -0.32559967 4.3116913 -0.8585434 4.3116913 -2.8282242c-0.023361206 -0.37086487 -0.068618774 -0.74173355 -0.18544006 -1.0892372c-0.47891235 -1.362278 -1.6513672 -1.852871 -2.9158173 -1.852871z" fill-rule="evenodd"/><path fill="#000000" fill-opacity="0.0" d="m90.69678 88.018684c1.2045898 -1.1578598 0.43949127 -3.1742706 0.13871002 -4.5891113l-1.3447571 -6.373352l-2.6427917 -12.679558l-1.4834671 -7.161812c-0.09197998 -0.5110359 -0.85707855 -0.37086868 -0.76509094 0.13871002" fill-rule="evenodd"/><path stroke="#000000" stroke-width="1.5826771653543308" stroke-miterlimit="15.875" stroke-linecap="butt" d="m90.69678 88.018684c1.2045898 -1.1578598 0.43949127 -3.1742706 0.13871002 -4.5891113l-1.3447571 -6.373352l-2.6427917 -12.679558l-1.4834671 -7.161812c-0.09197998 -0.5110359 -0.85707855 -0.37086868 -0.76509094 0.13871002" fill-rule="evenodd"/></g></svg>