<?xml version="1.0" encoding="utf-8" standalone="no"?>
<!DOCTYPE svg PUBLIC "-//W3C//DTD SVG 1.1//EN"
  "http://www.w3.org/Graphics/SVG/1.1/DTD/svg11.dtd">
<svg xmlns:xlink="http://www.w3.org/1999/xlink" width="369.2pt" height="232.3pt" viewBox="0 0 492.221934 309.672534" preserveAspectRatio="xMidyMid meet" xmlns="http://www.w3.org/2000/svg" version="1.1">
 <metadata>
  <rdf:RDF xmlns:dc="http://purl.org/dc/elements/1.1/" xmlns:cc="http://creativecommons.org/ns#" xmlns:rdf="http://www.w3.org/1999/02/22-rdf-syntax-ns#">
   <cc:Work>
    <dc:type rdf:resource="http://purl.org/dc/dcmitype/StillImage"/>
    <dc:date>2022-08-25T10:50:10.634272</dc:date>
    <dc:format>image/svg+xml</dc:format>
    <dc:creator>
     <cc:Agent>
      <dc:title>Matplotlib v3.5.2, https://matplotlib.org/</dc:title>
     </cc:Agent>
    </dc:creator>
   </cc:Work>
  </rdf:RDF>
 </metadata>
 <defs>
  <style type="text/css">*{stroke-linejoin: round; stroke-linecap: butt}</style>
 </defs>
 <g id="figure_1">
  <g id="patch_1">
   <path d="M 0 309.672534 
L 492.221934 309.672534 
L 492.221934 0 
L 0 0 
z
" style="fill: #ffffff"/>
  </g>
  <g id="axes_1">
   <g id="patch_2">
    <path d="M 75.976971 279 
L 466.576971 279 
L 466.576971 7.2 
L 75.976971 7.2 
z
" style="fill: #ffffff"/>
   </g>
   <g id="matplotlib.axis_1">
    <g id="xtick_1">
     <g id="line2d_1">
      <path d="M 75.976971 279 
L 75.976971 7.2 
" clip-path="url(#p79c5c52ca9)" style="fill: none; stroke-dasharray: 3.7,1.6; stroke-dashoffset: 0; stroke: #999fa5; stroke-opacity: 0.2"/>
     </g>
     <g id="line2d_2">
      <defs>
       <path id="m779df3cab0" d="M 0 0 
L 0 6 
" style="stroke: #202124; stroke-width: 1.5"/>
      </defs>
      <g>
       <use xlink:href="#m779df3cab0" x="75.976971" y="279" style="fill: #202124; stroke: #202124; stroke-width: 1.5"/>
      </g>
     </g>
     <g id="text_1">
      <!-- 1985 -->
      <g style="fill: #202124" transform="translate(58.638987 299.405792)scale(0.14994 -0.14994)">
       <defs>
        <path id="Inter-Regular-31" d="M 2118 4655 
L 2118 0 
L 1555 0 
L 1555 4064 
L 1527 4064 
L 391 3309 
L 391 3882 
L 1555 4655 
L 2118 4655 
z
" transform="scale(0.015625)"/>
        <path id="Inter-Regular-39" d="M 1964 4718 
Q 2250 4716 2536 4609 
Q 2823 4502 3059 4255 
Q 3296 4009 3439 3584 
Q 3582 3159 3582 2518 
Q 3582 1898 3465 1417 
Q 3348 936 3128 606 
Q 2909 277 2596 106 
Q 2284 -64 1891 -64 
Q 1500 -64 1194 92 
Q 889 248 694 526 
Q 500 805 446 1173 
L 1000 1173 
Q 1075 852 1299 644 
Q 1523 436 1891 436 
Q 2430 436 2742 906 
Q 3055 1377 3055 2236 
L 3018 2236 
Q 2891 2045 2716 1906 
Q 2541 1768 2327 1693 
Q 2114 1618 1873 1618 
Q 1473 1618 1140 1817 
Q 807 2016 608 2365 
Q 409 2714 409 3164 
Q 409 3591 601 3946 
Q 793 4302 1142 4513 
Q 1491 4725 1964 4718 
z
M 1964 4218 
Q 1677 4218 1449 4076 
Q 1221 3934 1088 3694 
Q 955 3455 955 3164 
Q 955 2873 1083 2635 
Q 1211 2398 1435 2258 
Q 1659 2118 1946 2118 
Q 2161 2118 2347 2203 
Q 2534 2289 2674 2437 
Q 2814 2586 2893 2776 
Q 2973 2966 2973 3173 
Q 2973 3445 2842 3684 
Q 2711 3923 2483 4070 
Q 2255 4218 1964 4218 
z
" transform="scale(0.015625)"/>
        <path id="Inter-Regular-38" d="M 1973 -64 
Q 1505 -64 1147 103 
Q 789 270 589 564 
Q 389 859 391 1236 
Q 389 1532 507 1783 
Q 625 2034 830 2203 
Q 1036 2373 1291 2418 
L 1291 2445 
Q 957 2532 759 2821 
Q 561 3111 564 3482 
Q 561 3836 743 4115 
Q 925 4395 1244 4556 
Q 1564 4718 1973 4718 
Q 2377 4718 2695 4556 
Q 3014 4395 3197 4115 
Q 3380 3836 3382 3482 
Q 3380 3111 3181 2821 
Q 2982 2532 2655 2445 
L 2655 2418 
Q 2907 2373 3109 2203 
Q 3311 2034 3431 1783 
Q 3552 1532 3555 1236 
Q 3552 859 3351 564 
Q 3150 270 2794 103 
Q 2439 -64 1973 -64 
z
M 1973 436 
Q 2289 436 2518 538 
Q 2748 641 2873 827 
Q 2998 1014 3000 1264 
Q 2998 1527 2864 1729 
Q 2730 1932 2499 2048 
Q 2268 2164 1973 2164 
Q 1675 2164 1442 2048 
Q 1209 1932 1076 1729 
Q 943 1527 946 1264 
Q 943 1014 1067 827 
Q 1191 641 1423 538 
Q 1655 436 1973 436 
z
M 1973 2645 
Q 2223 2645 2417 2745 
Q 2611 2845 2722 3025 
Q 2834 3205 2836 3445 
Q 2834 3682 2725 3858 
Q 2616 4034 2423 4130 
Q 2230 4227 1973 4227 
Q 1711 4227 1516 4130 
Q 1321 4034 1214 3858 
Q 1107 3682 1109 3445 
Q 1107 3205 1217 3025 
Q 1327 2845 1522 2745 
Q 1718 2645 1973 2645 
z
" transform="scale(0.015625)"/>
        <path id="Inter-Regular-35" d="M 1936 -64 
Q 1536 -64 1216 95 
Q 896 255 702 532 
Q 509 809 491 1164 
L 1036 1164 
Q 1068 848 1324 642 
Q 1580 436 1936 436 
Q 2223 436 2447 570 
Q 2671 705 2799 940 
Q 2927 1175 2927 1473 
Q 2927 1777 2794 2017 
Q 2661 2257 2429 2395 
Q 2198 2534 1900 2536 
Q 1686 2539 1461 2472 
Q 1236 2405 1091 2300 
L 564 2364 
L 846 4655 
L 3264 4655 
L 3264 4155 
L 1318 4155 
L 1155 2782 
L 1182 2782 
Q 1325 2895 1541 2970 
Q 1757 3045 1991 3045 
Q 2418 3045 2753 2842 
Q 3089 2639 3281 2286 
Q 3473 1934 3473 1482 
Q 3473 1036 3274 687 
Q 3075 339 2727 137 
Q 2380 -64 1936 -64 
z
" transform="scale(0.015625)"/>
       </defs>
       <use xlink:href="#Inter-Regular-31"/>
       <use xlink:href="#Inter-Regular-39" x="46.448868"/>
       <use xlink:href="#Inter-Regular-38" x="108.806839"/>
       <use xlink:href="#Inter-Regular-35" x="170.454575"/>
      </g>
     </g>
    </g>
    <g id="xtick_2">
     <g id="line2d_3">
      <path d="M 131.776971 279 
L 131.776971 7.2 
" clip-path="url(#p79c5c52ca9)" style="fill: none; stroke-dasharray: 3.7,1.6; stroke-dashoffset: 0; stroke: #999fa5; stroke-opacity: 0.2"/>
     </g>
     <g id="line2d_4">
      <g>
       <use xlink:href="#m779df3cab0" x="131.776971" y="279" style="fill: #202124; stroke: #202124; stroke-width: 1.5"/>
      </g>
     </g>
     <g id="text_2">
      <!-- 1990 -->
      <g style="fill: #202124" transform="translate(114.258591 299.405792)scale(0.14994 -0.14994)">
       <defs>
        <path id="Inter-Regular-30" d="M 2000 -64 
Q 1486 -64 1125 217 
Q 764 498 573 1033 
Q 382 1568 382 2327 
Q 382 3082 574 3617 
Q 766 4152 1128 4435 
Q 1491 4718 2000 4718 
Q 2509 4718 2871 4435 
Q 3234 4152 3426 3617 
Q 3618 3082 3618 2327 
Q 3618 1568 3427 1033 
Q 3236 498 2875 217 
Q 2514 -64 2000 -64 
z
M 2000 436 
Q 2509 436 2791 927 
Q 3073 1418 3073 2327 
Q 3073 2932 2944 3357 
Q 2816 3782 2576 4004 
Q 2336 4227 2000 4227 
Q 1496 4227 1211 3730 
Q 927 3234 927 2327 
Q 927 1723 1054 1300 
Q 1182 877 1421 656 
Q 1661 436 2000 436 
z
" transform="scale(0.015625)"/>
       </defs>
       <use xlink:href="#Inter-Regular-31"/>
       <use xlink:href="#Inter-Regular-39" x="46.448868"/>
       <use xlink:href="#Inter-Regular-39" x="108.806839"/>
       <use xlink:href="#Inter-Regular-30" x="171.16481"/>
      </g>
     </g>
    </g>
    <g id="xtick_3">
     <g id="line2d_5">
      <path d="M 187.576971 279 
L 187.576971 7.2 
" clip-path="url(#p79c5c52ca9)" style="fill: none; stroke-dasharray: 3.7,1.6; stroke-dashoffset: 0; stroke: #999fa5; stroke-opacity: 0.2"/>
     </g>
     <g id="line2d_6">
      <g>
       <use xlink:href="#m779df3cab0" x="187.576971" y="279" style="fill: #202124; stroke: #202124; stroke-width: 1.5"/>
      </g>
     </g>
     <g id="text_3">
      <!-- 1995 -->
      <g style="fill: #202124" transform="translate(170.186274 299.405792)scale(0.14994 -0.14994)">
       <use xlink:href="#Inter-Regular-31"/>
       <use xlink:href="#Inter-Regular-39" x="46.448868"/>
       <use xlink:href="#Inter-Regular-39" x="108.806839"/>
       <use xlink:href="#Inter-Regular-35" x="171.16481"/>
      </g>
     </g>
    </g>
    <g id="xtick_4">
     <g id="line2d_7">
      <path d="M 243.376971 279 
L 243.376971 7.2 
" clip-path="url(#p79c5c52ca9)" style="fill: none; stroke-dasharray: 3.7,1.6; stroke-dashoffset: 0; stroke: #999fa5; stroke-opacity: 0.2"/>
     </g>
     <g id="line2d_8">
      <g>
       <use xlink:href="#m779df3cab0" x="243.376971" y="279" style="fill: #202124; stroke: #202124; stroke-width: 1.5"/>
      </g>
     </g>
     <g id="text_4">
      <!-- 2000 -->
      <g style="fill: #202124" transform="translate(224.78324 299.405792)scale(0.14994 -0.14994)">
       <defs>
        <path id="Inter-Regular-32" d="M 482 0 
L 482 409 
L 2018 2091 
Q 2289 2386 2464 2605 
Q 2639 2825 2724 3019 
Q 2809 3214 2809 3427 
Q 2809 3673 2692 3852 
Q 2575 4032 2373 4129 
Q 2171 4227 1918 4227 
Q 1650 4227 1451 4117 
Q 1252 4007 1144 3809 
Q 1036 3611 1036 3345 
L 500 3345 
Q 500 3755 688 4064 
Q 877 4373 1203 4545 
Q 1530 4718 1936 4718 
Q 2346 4718 2661 4545 
Q 2977 4373 3156 4079 
Q 3336 3786 3336 3427 
Q 3336 3170 3244 2926 
Q 3152 2682 2926 2383 
Q 2700 2084 2300 1655 
L 1255 536 
L 1255 500 
L 3418 500 
L 3418 0 
L 482 0 
z
" transform="scale(0.015625)"/>
       </defs>
       <use xlink:href="#Inter-Regular-32"/>
       <use xlink:href="#Inter-Regular-30" x="60.511383"/>
       <use xlink:href="#Inter-Regular-30" x="123.011398"/>
       <use xlink:href="#Inter-Regular-30" x="185.511414"/>
      </g>
     </g>
    </g>
    <g id="xtick_5">
     <g id="line2d_9">
      <path d="M 299.176971 279 
L 299.176971 7.2 
" clip-path="url(#p79c5c52ca9)" style="fill: none; stroke-dasharray: 3.7,1.6; stroke-dashoffset: 0; stroke: #999fa5; stroke-opacity: 0.2"/>
     </g>
     <g id="line2d_10">
      <g>
       <use xlink:href="#m779df3cab0" x="299.176971" y="279" style="fill: #202124; stroke: #202124; stroke-width: 1.5"/>
      </g>
     </g>
     <g id="text_5">
      <!-- 2005 -->
      <g style="fill: #202124" transform="translate(280.710923 299.405792)scale(0.14994 -0.14994)">
       <use xlink:href="#Inter-Regular-32"/>
       <use xlink:href="#Inter-Regular-30" x="60.511383"/>
       <use xlink:href="#Inter-Regular-30" x="123.011398"/>
       <use xlink:href="#Inter-Regular-35" x="185.511414"/>
      </g>
     </g>
    </g>
    <g id="xtick_6">
     <g id="line2d_11">
      <path d="M 354.976971 279 
L 354.976971 7.2 
" clip-path="url(#p79c5c52ca9)" style="fill: none; stroke-dasharray: 3.7,1.6; stroke-dashoffset: 0; stroke: #999fa5; stroke-opacity: 0.2"/>
     </g>
     <g id="line2d_12">
      <g>
       <use xlink:href="#m779df3cab0" x="354.976971" y="279" style="fill: #202124; stroke: #202124; stroke-width: 1.5"/>
      </g>
     </g>
     <g id="text_6">
      <!-- 2010 -->
      <g style="fill: #202124" transform="translate(337.586274 299.405792)scale(0.14994 -0.14994)">
       <use xlink:href="#Inter-Regular-32"/>
       <use xlink:href="#Inter-Regular-30" x="60.511383"/>
       <use xlink:href="#Inter-Regular-31" x="123.011398"/>
       <use xlink:href="#Inter-Regular-30" x="169.460266"/>
      </g>
     </g>
    </g>
    <g id="xtick_7">
     <g id="line2d_13">
      <path d="M 410.776971 279 
L 410.776971 7.2 
" clip-path="url(#p79c5c52ca9)" style="fill: none; stroke-dasharray: 3.7,1.6; stroke-dashoffset: 0; stroke: #999fa5; stroke-opacity: 0.2"/>
     </g>
     <g id="line2d_14">
      <g>
       <use xlink:href="#m779df3cab0" x="410.776971" y="279" style="fill: #202124; stroke: #202124; stroke-width: 1.5"/>
      </g>
     </g>
     <g id="text_7">
      <!-- 2015 -->
      <g style="fill: #202124" transform="translate(393.513957 299.405792)scale(0.14994 -0.14994)">
       <use xlink:href="#Inter-Regular-32"/>
       <use xlink:href="#Inter-Regular-30" x="60.511383"/>
       <use xlink:href="#Inter-Regular-31" x="123.011398"/>
       <use xlink:href="#Inter-Regular-35" x="169.460266"/>
      </g>
     </g>
    </g>
    <g id="xtick_8">
     <g id="line2d_15">
      <path d="M 466.576971 279 
L 466.576971 7.2 
" clip-path="url(#p79c5c52ca9)" style="fill: none; stroke-dasharray: 3.7,1.6; stroke-dashoffset: 0; stroke: #999fa5; stroke-opacity: 0.2"/>
     </g>
     <g id="line2d_16">
      <g>
       <use xlink:href="#m779df3cab0" x="466.576971" y="279" style="fill: #202124; stroke: #202124; stroke-width: 1.5"/>
      </g>
     </g>
     <g id="text_8">
      <!-- 2020 -->
      <g style="fill: #202124" transform="translate(448.132008 299.405792)scale(0.14994 -0.14994)">
       <use xlink:href="#Inter-Regular-32"/>
       <use xlink:href="#Inter-Regular-30" x="60.511383"/>
       <use xlink:href="#Inter-Regular-32" x="123.011398"/>
       <use xlink:href="#Inter-Regular-30" x="183.522781"/>
      </g>
     </g>
    </g>
   </g>
   <g id="matplotlib.axis_2">
    <g id="ytick_1">
     <g id="line2d_17">
      <path d="M 75.976971 269.94 
L 466.576971 269.94 
" clip-path="url(#p79c5c52ca9)" style="fill: none; stroke-dasharray: 3.7,1.6; stroke-dashoffset: 0; stroke: #999fa5; stroke-opacity: 0.2"/>
     </g>
     <g id="line2d_18">
      <defs>
       <path id="m6896ceee7f" d="M 0 0 
L -6 0 
" style="stroke: #202124; stroke-width: 1.5"/>
      </defs>
      <g>
       <use xlink:href="#m6896ceee7f" x="75.976971" y="269.94" style="fill: #202124; stroke: #202124; stroke-width: 1.5"/>
      </g>
     </g>
     <g id="text_9">
      <!-- 0 -->
      <g style="fill: #202124" transform="translate(57.105721 275.392896)scale(0.14994 -0.14994)">
       <use xlink:href="#Inter-Regular-30"/>
      </g>
     </g>
    </g>
    <g id="ytick_2">
     <g id="line2d_19">
      <path d="M 75.976971 233.7 
L 466.576971 233.7 
" clip-path="url(#p79c5c52ca9)" style="fill: none; stroke-dasharray: 3.7,1.6; stroke-dashoffset: 0; stroke: #999fa5; stroke-opacity: 0.2"/>
     </g>
     <g id="line2d_20">
      <g>
       <use xlink:href="#m6896ceee7f" x="75.976971" y="233.7" style="fill: #202124; stroke: #202124; stroke-width: 1.5"/>
      </g>
     </g>
     <g id="text_10">
      <!-- 20k -->
      <g style="fill: #202124" transform="translate(39.874335 239.152896)scale(0.14994 -0.14994)">
       <defs>
        <path id="Inter-Regular-6b" d="M 991 1273 
L 982 1936 
L 1091 1936 
L 2618 3491 
L 3282 3491 
L 1655 1845 
L 1609 1845 
L 991 1273 
z
M 491 0 
L 491 4655 
L 1027 4655 
L 1027 0 
L 491 0 
z
M 2709 0 
L 1346 1727 
L 1727 2100 
L 3391 0 
L 2709 0 
z
" transform="scale(0.015625)"/>
       </defs>
       <use xlink:href="#Inter-Regular-32"/>
       <use xlink:href="#Inter-Regular-30" x="60.511383"/>
       <use xlink:href="#Inter-Regular-6b" x="123.011398"/>
      </g>
     </g>
    </g>
    <g id="ytick_3">
     <g id="line2d_21">
      <path d="M 75.976971 197.46 
L 466.576971 197.46 
" clip-path="url(#p79c5c52ca9)" style="fill: none; stroke-dasharray: 3.7,1.6; stroke-dashoffset: 0; stroke: #999fa5; stroke-opacity: 0.2"/>
     </g>
     <g id="line2d_22">
      <g>
       <use xlink:href="#m6896ceee7f" x="75.976971" y="197.46" style="fill: #202124; stroke: #202124; stroke-width: 1.5"/>
      </g>
     </g>
     <g id="text_11">
      <!-- 40k -->
      <g style="fill: #202124" transform="translate(39.321432 202.912896)scale(0.14994 -0.14994)">
       <defs>
        <path id="Inter-Regular-34" d="M 373 955 
L 373 1418 
L 2418 4655 
L 2755 4655 
L 2755 3936 
L 2527 3936 
L 982 1491 
L 982 1455 
L 3736 1455 
L 3736 955 
L 373 955 
z
M 2564 0 
L 2564 1095 
L 2564 1311 
L 2564 4655 
L 3100 4655 
L 3100 0 
L 2564 0 
z
" transform="scale(0.015625)"/>
       </defs>
       <use xlink:href="#Inter-Regular-34"/>
       <use xlink:href="#Inter-Regular-30" x="64.204559"/>
       <use xlink:href="#Inter-Regular-6b" x="126.704575"/>
      </g>
     </g>
    </g>
    <g id="ytick_4">
     <g id="line2d_23">
      <path d="M 75.976971 161.22 
L 466.576971 161.22 
" clip-path="url(#p79c5c52ca9)" style="fill: none; stroke-dasharray: 3.7,1.6; stroke-dashoffset: 0; stroke: #999fa5; stroke-opacity: 0.2"/>
     </g>
     <g id="line2d_24">
      <g>
       <use xlink:href="#m6896ceee7f" x="75.976971" y="161.22" style="fill: #202124; stroke: #202124; stroke-width: 1.5"/>
      </g>
     </g>
     <g id="text_12">
      <!-- 60k -->
      <g style="fill: #202124" transform="translate(39.597883 166.672896)scale(0.14994 -0.14994)">
       <defs>
        <path id="Inter-Regular-36" d="M 2027 -64 
Q 1741 -59 1454 45 
Q 1168 150 932 399 
Q 696 648 552 1074 
Q 409 1500 409 2145 
Q 409 2764 525 3242 
Q 641 3720 861 4048 
Q 1082 4377 1394 4547 
Q 1707 4718 2100 4718 
Q 2491 4718 2796 4562 
Q 3102 4407 3295 4129 
Q 3489 3852 3546 3491 
L 2991 3491 
Q 2914 3805 2691 4011 
Q 2468 4218 2100 4218 
Q 1559 4218 1249 3747 
Q 939 3277 936 2427 
L 973 2427 
Q 1100 2620 1276 2757 
Q 1452 2895 1666 2970 
Q 1880 3045 2118 3045 
Q 2518 3045 2850 2846 
Q 3182 2648 3382 2299 
Q 3582 1950 3582 1500 
Q 3582 1068 3389 710 
Q 3196 352 2847 142 
Q 2498 -68 2027 -64 
z
M 2027 436 
Q 2314 436 2542 579 
Q 2771 723 2903 964 
Q 3036 1205 3036 1500 
Q 3036 1789 2908 2026 
Q 2780 2264 2556 2404 
Q 2332 2545 2046 2545 
Q 1830 2545 1643 2460 
Q 1457 2375 1317 2227 
Q 1177 2080 1097 1890 
Q 1018 1700 1018 1491 
Q 1018 1214 1149 973 
Q 1280 732 1508 584 
Q 1736 436 2027 436 
z
" transform="scale(0.015625)"/>
       </defs>
       <use xlink:href="#Inter-Regular-36"/>
       <use xlink:href="#Inter-Regular-30" x="62.357971"/>
       <use xlink:href="#Inter-Regular-6b" x="124.857986"/>
      </g>
     </g>
    </g>
    <g id="ytick_5">
     <g id="line2d_25">
      <path d="M 75.976971 124.98 
L 466.576971 124.98 
" clip-path="url(#p79c5c52ca9)" style="fill: none; stroke-dasharray: 3.7,1.6; stroke-dashoffset: 0; stroke: #999fa5; stroke-opacity: 0.2"/>
     </g>
     <g id="line2d_26">
      <g>
       <use xlink:href="#m6896ceee7f" x="75.976971" y="124.98" style="fill: #202124; stroke: #202124; stroke-width: 1.5"/>
      </g>
     </g>
     <g id="text_13">
      <!-- 80k -->
      <g style="fill: #202124" transform="translate(39.70331 130.432896)scale(0.14994 -0.14994)">
       <use xlink:href="#Inter-Regular-38"/>
       <use xlink:href="#Inter-Regular-30" x="61.647736"/>
       <use xlink:href="#Inter-Regular-6b" x="124.147751"/>
      </g>
     </g>
    </g>
    <g id="ytick_6">
     <g id="line2d_27">
      <path d="M 75.976971 88.74 
L 466.576971 88.74 
" clip-path="url(#p79c5c52ca9)" style="fill: none; stroke-dasharray: 3.7,1.6; stroke-dashoffset: 0; stroke: #999fa5; stroke-opacity: 0.2"/>
     </g>
     <g id="line2d_28">
      <g>
       <use xlink:href="#m6896ceee7f" x="75.976971" y="88.74" style="fill: #202124; stroke: #202124; stroke-width: 1.5"/>
      </g>
     </g>
     <g id="text_14">
      <!-- 100k -->
      <g style="fill: #202124" transform="translate(32.611617 94.192896)scale(0.14994 -0.14994)">
       <use xlink:href="#Inter-Regular-31"/>
       <use xlink:href="#Inter-Regular-30" x="46.448868"/>
       <use xlink:href="#Inter-Regular-30" x="108.948883"/>
       <use xlink:href="#Inter-Regular-6b" x="171.448898"/>
      </g>
     </g>
    </g>
    <g id="ytick_7">
     <g id="line2d_29">
      <path d="M 75.976971 52.5 
L 466.576971 52.5 
" clip-path="url(#p79c5c52ca9)" style="fill: none; stroke-dasharray: 3.7,1.6; stroke-dashoffset: 0; stroke: #999fa5; stroke-opacity: 0.2"/>
     </g>
     <g id="line2d_30">
      <g>
       <use xlink:href="#m6896ceee7f" x="75.976971" y="52.5" style="fill: #202124; stroke: #202124; stroke-width: 1.5"/>
      </g>
     </g>
     <g id="text_15">
      <!-- 120k -->
      <g style="fill: #202124" transform="translate(32.909154 57.952896)scale(0.14994 -0.14994)">
       <use xlink:href="#Inter-Regular-31"/>
       <use xlink:href="#Inter-Regular-32" x="46.448868"/>
       <use xlink:href="#Inter-Regular-30" x="106.960251"/>
       <use xlink:href="#Inter-Regular-6b" x="169.460266"/>
      </g>
     </g>
    </g>
    <g id="ytick_8">
     <g id="line2d_31">
      <path d="M 75.976971 16.26 
L 466.576971 16.26 
" clip-path="url(#p79c5c52ca9)" style="fill: none; stroke-dasharray: 3.7,1.6; stroke-dashoffset: 0; stroke: #999fa5; stroke-opacity: 0.2"/>
     </g>
     <g id="line2d_32">
      <g>
       <use xlink:href="#m6896ceee7f" x="75.976971" y="16.26" style="fill: #202124; stroke: #202124; stroke-width: 1.5"/>
      </g>
     </g>
     <g id="text_16">
      <!-- 140k -->
      <g style="fill: #202124" transform="translate(32.35625 21.712896)scale(0.14994 -0.14994)">
       <use xlink:href="#Inter-Regular-31"/>
       <use xlink:href="#Inter-Regular-34" x="46.448868"/>
       <use xlink:href="#Inter-Regular-30" x="110.653427"/>
       <use xlink:href="#Inter-Regular-6b" x="173.153442"/>
      </g>
     </g>
    </g>
    <g id="text_17">
     <!-- Google Books Ngram Counts -->
     <g style="fill: #202124" transform="translate(20.469375 269.523281)rotate(-90)scale(0.18 -0.18)">
      <defs>
       <path id="Inter-Bold-47" d="M 3491 3150 
Q 3443 3316 3357 3444 
Q 3271 3573 3147 3662 
Q 3023 3752 2865 3800 
Q 2707 3848 2516 3848 
Q 2159 3848 1890 3670 
Q 1621 3493 1471 3155 
Q 1321 2818 1321 2332 
Q 1321 1845 1468 1504 
Q 1616 1164 1886 985 
Q 2157 807 2525 807 
Q 2859 807 3096 926 
Q 3334 1045 3460 1263 
Q 3586 1482 3586 1780 
L 3786 1750 
L 2586 1750 
L 2586 2491 
L 4534 2491 
L 4534 1905 
Q 4534 1291 4275 851 
Q 4016 411 3561 173 
Q 3107 -64 2521 -64 
Q 1866 -64 1370 226 
Q 875 516 599 1051 
Q 323 1586 323 2323 
Q 323 2889 487 3333 
Q 652 3777 950 4086 
Q 1248 4395 1643 4556 
Q 2039 4718 2500 4718 
Q 2896 4718 3236 4603 
Q 3577 4489 3842 4279 
Q 4107 4070 4275 3782 
Q 4443 3495 4491 3150 
L 3491 3150 
z
" transform="scale(0.015625)"/>
       <path id="Inter-Bold-6f" d="M 1964 -68 
Q 1434 -68 1049 158 
Q 664 384 455 789 
Q 246 1195 246 1732 
Q 246 2273 455 2678 
Q 664 3084 1049 3310 
Q 1434 3536 1964 3536 
Q 2493 3536 2878 3310 
Q 3264 3084 3473 2678 
Q 3682 2273 3682 1732 
Q 3682 1195 3473 789 
Q 3264 384 2878 158 
Q 2493 -68 1964 -68 
z
M 1968 682 
Q 2209 682 2370 819 
Q 2532 957 2615 1195 
Q 2698 1434 2698 1739 
Q 2698 2043 2615 2281 
Q 2532 2520 2370 2659 
Q 2209 2798 1968 2798 
Q 1725 2798 1560 2659 
Q 1396 2520 1313 2281 
Q 1230 2043 1230 1739 
Q 1230 1434 1313 1195 
Q 1396 957 1560 819 
Q 1725 682 1968 682 
z
" transform="scale(0.015625)"/>
       <path id="Inter-Bold-67" d="M 1959 -1382 
Q 1489 -1382 1153 -1253 
Q 818 -1125 620 -904 
Q 423 -684 364 -409 
L 1259 -289 
Q 1300 -393 1388 -484 
Q 1477 -575 1624 -630 
Q 1771 -686 1982 -686 
Q 2298 -686 2503 -533 
Q 2709 -380 2709 -20 
L 2709 618 
L 2668 618 
Q 2605 473 2477 343 
Q 2350 214 2150 132 
Q 1950 50 1673 50 
Q 1280 50 958 233 
Q 636 416 446 794 
Q 257 1173 257 1752 
Q 257 2345 450 2743 
Q 643 3141 964 3338 
Q 1286 3536 1671 3536 
Q 1964 3536 2161 3437 
Q 2359 3339 2480 3192 
Q 2602 3045 2668 2905 
L 2705 2905 
L 2705 3491 
L 3666 3491 
L 3666 -34 
Q 3666 -480 3448 -780 
Q 3230 -1080 2844 -1231 
Q 2459 -1382 1959 -1382 
z
M 1980 777 
Q 2214 777 2376 894 
Q 2539 1011 2626 1230 
Q 2714 1450 2714 1757 
Q 2714 2064 2627 2290 
Q 2541 2516 2377 2641 
Q 2214 2766 1980 2766 
Q 1741 2766 1577 2637 
Q 1414 2509 1330 2282 
Q 1246 2055 1246 1757 
Q 1246 1455 1331 1235 
Q 1416 1016 1578 896 
Q 1741 777 1980 777 
z
" transform="scale(0.015625)"/>
       <path id="Inter-Bold-6c" d="M 1355 4655 
L 1355 0 
L 386 0 
L 386 4655 
L 1355 4655 
z
" transform="scale(0.015625)"/>
       <path id="Inter-Bold-65" d="M 1977 -68 
Q 1439 -68 1051 151 
Q 664 370 455 773 
Q 246 1177 246 1730 
Q 246 2268 455 2675 
Q 664 3082 1044 3309 
Q 1425 3536 1939 3536 
Q 2284 3536 2583 3426 
Q 2882 3316 3106 3095 
Q 3330 2875 3455 2542 
Q 3580 2209 3580 1764 
L 3580 1498 
L 632 1498 
L 632 2098 
L 2668 2098 
Q 2668 2307 2577 2468 
Q 2486 2630 2326 2722 
Q 2166 2814 1955 2814 
Q 1734 2814 1565 2712 
Q 1396 2611 1300 2442 
Q 1205 2273 1202 2066 
L 1202 1495 
Q 1202 1236 1299 1047 
Q 1396 859 1573 757 
Q 1750 655 1993 655 
Q 2155 655 2289 700 
Q 2423 745 2518 836 
Q 2614 927 2664 1059 
L 3559 1000 
Q 3491 677 3281 437 
Q 3071 198 2740 65 
Q 2409 -68 1977 -68 
z
" transform="scale(0.015625)"/>
       <path id="Inter-Bold-20" transform="scale(0.015625)"/>
       <path id="Inter-Bold-42" d="M 405 0 
L 405 4655 
L 2268 4655 
Q 2782 4655 3125 4502 
Q 3468 4350 3641 4080 
Q 3814 3811 3814 3461 
Q 3814 3189 3705 2983 
Q 3596 2777 3406 2646 
Q 3216 2516 2973 2461 
L 2973 2416 
Q 3239 2405 3472 2266 
Q 3705 2127 3850 1878 
Q 3996 1630 3996 1286 
Q 3996 916 3813 626 
Q 3630 336 3273 168 
Q 2916 0 2393 0 
L 405 0 
z
M 1389 805 
L 2191 805 
Q 2602 805 2791 962 
Q 2980 1120 2980 1384 
Q 2980 1577 2886 1725 
Q 2793 1873 2621 1957 
Q 2450 2041 2214 2041 
L 1389 2041 
L 1389 805 
z
M 1389 2707 
L 2118 2707 
Q 2321 2707 2478 2778 
Q 2636 2850 2728 2982 
Q 2821 3114 2821 3298 
Q 2821 3550 2642 3704 
Q 2464 3859 2136 3859 
L 1389 3859 
L 1389 2707 
z
" transform="scale(0.015625)"/>
       <path id="Inter-Bold-6b" d="M 1264 1005 
L 1266 2166 
L 1407 2166 
L 2525 3491 
L 3636 3491 
L 2134 1736 
L 1905 1736 
L 1264 1005 
z
M 386 0 
L 386 4655 
L 1355 4655 
L 1355 0 
L 386 0 
z
M 2568 0 
L 1541 1520 
L 2186 2205 
L 3702 0 
L 2568 0 
z
" transform="scale(0.015625)"/>
       <path id="Inter-Bold-73" d="M 3291 2495 
L 2405 2441 
Q 2382 2555 2307 2647 
Q 2232 2739 2110 2794 
Q 1989 2850 1821 2850 
Q 1596 2850 1441 2755 
Q 1286 2661 1286 2505 
Q 1286 2380 1386 2293 
Q 1486 2207 1730 2155 
L 2361 2027 
Q 2871 1923 3121 1691 
Q 3371 1459 3371 1082 
Q 3371 739 3169 479 
Q 2968 220 2619 76 
Q 2271 -68 1816 -68 
Q 1123 -68 712 221 
Q 302 511 232 1011 
L 1184 1061 
Q 1227 850 1393 740 
Q 1559 630 1818 630 
Q 2073 630 2228 728 
Q 2384 827 2386 984 
Q 2384 1116 2275 1201 
Q 2166 1286 1939 1332 
L 1334 1452 
Q 823 1555 574 1807 
Q 325 2059 325 2450 
Q 325 2786 508 3029 
Q 691 3273 1024 3404 
Q 1357 3536 1805 3536 
Q 2466 3536 2846 3256 
Q 3227 2977 3291 2495 
z
" transform="scale(0.015625)"/>
       <path id="Inter-Bold-4e" d="M 4298 4655 
L 4298 0 
L 3448 0 
L 1423 2930 
L 1389 2930 
L 1389 0 
L 405 0 
L 405 4655 
L 1268 4655 
L 3277 1727 
L 3318 1727 
L 3318 4655 
L 4298 4655 
z
" transform="scale(0.015625)"/>
       <path id="Inter-Bold-72" d="M 386 0 
L 386 3491 
L 1325 3491 
L 1325 2882 
L 1361 2882 
Q 1457 3207 1682 3374 
Q 1907 3541 2200 3541 
Q 2273 3541 2357 3532 
Q 2441 3523 2505 3507 
L 2505 2648 
Q 2436 2668 2316 2684 
Q 2196 2700 2096 2700 
Q 1882 2700 1715 2608 
Q 1548 2516 1451 2352 
Q 1355 2189 1355 1975 
L 1355 0 
L 386 0 
z
" transform="scale(0.015625)"/>
       <path id="Inter-Bold-61" d="M 1382 -66 
Q 1048 -66 786 51 
Q 525 168 374 399 
Q 223 630 223 975 
Q 223 1266 329 1463 
Q 436 1661 620 1781 
Q 805 1902 1040 1963 
Q 1275 2025 1534 2050 
Q 1839 2082 2025 2110 
Q 2211 2139 2295 2195 
Q 2380 2252 2380 2364 
L 2380 2377 
Q 2380 2593 2244 2711 
Q 2109 2830 1861 2830 
Q 1600 2830 1445 2715 
Q 1291 2600 1241 2427 
L 346 2500 
Q 414 2818 614 3051 
Q 814 3284 1131 3410 
Q 1448 3536 1866 3536 
Q 2157 3536 2424 3468 
Q 2691 3400 2899 3257 
Q 3107 3114 3227 2890 
Q 3348 2666 3348 2355 
L 3348 0 
L 2430 0 
L 2430 484 
L 2402 484 
Q 2318 320 2177 196 
Q 2036 73 1838 3 
Q 1641 -66 1382 -66 
z
M 1659 602 
Q 1873 602 2036 687 
Q 2200 773 2293 918 
Q 2386 1064 2386 1248 
L 2386 1618 
Q 2341 1589 2262 1565 
Q 2184 1541 2086 1521 
Q 1989 1502 1891 1487 
Q 1793 1473 1714 1461 
Q 1543 1436 1416 1381 
Q 1289 1327 1218 1235 
Q 1148 1143 1148 1007 
Q 1148 809 1292 705 
Q 1436 602 1659 602 
z
" transform="scale(0.015625)"/>
       <path id="Inter-Bold-6d" d="M 386 0 
L 386 3491 
L 1309 3491 
L 1309 2875 
L 1350 2875 
Q 1459 3182 1713 3359 
Q 1968 3536 2323 3536 
Q 2682 3536 2934 3358 
Q 3186 3180 3271 2875 
L 3307 2875 
Q 3414 3175 3694 3355 
Q 3975 3536 4359 3536 
Q 4848 3536 5153 3226 
Q 5459 2916 5459 2348 
L 5459 0 
L 4493 0 
L 4493 2157 
Q 4493 2448 4338 2593 
Q 4184 2739 3952 2739 
Q 3689 2739 3541 2572 
Q 3393 2405 3393 2132 
L 3393 0 
L 2455 0 
L 2455 2177 
Q 2455 2434 2308 2586 
Q 2161 2739 1923 2739 
Q 1761 2739 1633 2658 
Q 1505 2577 1430 2433 
Q 1355 2289 1355 2095 
L 1355 0 
L 386 0 
z
" transform="scale(0.015625)"/>
       <path id="Inter-Bold-43" d="M 4511 3025 
L 3516 3025 
Q 3489 3218 3405 3369 
Q 3321 3520 3189 3627 
Q 3057 3734 2885 3791 
Q 2714 3848 2514 3848 
Q 2152 3848 1884 3669 
Q 1616 3491 1468 3151 
Q 1321 2811 1321 2327 
Q 1321 1830 1469 1491 
Q 1618 1152 1886 979 
Q 2155 807 2507 807 
Q 2705 807 2874 859 
Q 3043 911 3175 1012 
Q 3307 1114 3394 1259 
Q 3482 1405 3516 1591 
L 4511 1586 
Q 4473 1266 4319 969 
Q 4166 673 3908 440 
Q 3650 207 3294 71 
Q 2939 -64 2491 -64 
Q 1868 -64 1378 218 
Q 889 500 606 1034 
Q 323 1568 323 2327 
Q 323 3089 609 3623 
Q 896 4157 1386 4437 
Q 1877 4718 2491 4718 
Q 2896 4718 3242 4604 
Q 3589 4491 3857 4274 
Q 4125 4057 4294 3743 
Q 4464 3430 4511 3025 
z
" transform="scale(0.015625)"/>
       <path id="Inter-Bold-75" d="M 2625 1486 
L 2625 3491 
L 3593 3491 
L 3593 0 
L 2664 0 
L 2664 634 
L 2627 634 
Q 2509 327 2235 141 
Q 1961 -45 1568 -45 
Q 1218 -45 952 114 
Q 686 273 537 566 
Q 389 859 386 1268 
L 386 3491 
L 1355 3491 
L 1355 1441 
Q 1357 1132 1520 952 
Q 1684 773 1959 773 
Q 2134 773 2286 853 
Q 2439 934 2533 1093 
Q 2627 1252 2625 1486 
z
" transform="scale(0.015625)"/>
       <path id="Inter-Bold-6e" d="M 1355 2018 
L 1355 0 
L 386 0 
L 386 3491 
L 1309 3491 
L 1309 2875 
L 1350 2875 
Q 1466 3180 1738 3358 
Q 2011 3536 2400 3536 
Q 2764 3536 3034 3377 
Q 3305 3218 3455 2924 
Q 3605 2630 3605 2223 
L 3605 0 
L 2636 0 
L 2636 2050 
Q 2639 2370 2473 2551 
Q 2307 2732 2016 2732 
Q 1821 2732 1672 2648 
Q 1523 2564 1440 2403 
Q 1357 2243 1355 2018 
z
" transform="scale(0.015625)"/>
       <path id="Inter-Bold-74" d="M 2243 3491 
L 2243 2764 
L 141 2764 
L 141 3491 
L 2243 3491 
z
M 618 4327 
L 1586 4327 
L 1586 1073 
Q 1586 939 1627 865 
Q 1668 791 1742 761 
Q 1816 732 1914 732 
Q 1982 732 2050 744 
Q 2118 757 2155 764 
L 2307 43 
Q 2234 20 2102 -10 
Q 1971 -41 1782 -48 
Q 1432 -61 1169 45 
Q 907 152 761 377 
Q 616 602 618 945 
L 618 4327 
z
" transform="scale(0.015625)"/>
      </defs>
      <use xlink:href="#Inter-Bold-47"/>
      <use xlink:href="#Inter-Bold-6f" x="76.065353"/>
      <use xlink:href="#Inter-Bold-6f" x="137.429001"/>
      <use xlink:href="#Inter-Bold-67" x="198.792648"/>
      <use xlink:href="#Inter-Bold-6c" x="262.109421"/>
      <use xlink:href="#Inter-Bold-65" x="289.311127"/>
      <use xlink:href="#Inter-Bold-20" x="349.076767"/>
      <use xlink:href="#Inter-Bold-42" x="372.265686"/>
      <use xlink:href="#Inter-Bold-6f" x="438.352341"/>
      <use xlink:href="#Inter-Bold-6f" x="499.715988"/>
      <use xlink:href="#Inter-Bold-6b" x="561.079636"/>
      <use xlink:href="#Inter-Bold-73" x="619.247253"/>
      <use xlink:href="#Inter-Bold-20" x="675.426239"/>
      <use xlink:href="#Inter-Bold-4e" x="698.615158"/>
      <use xlink:href="#Inter-Bold-67" x="772.123703"/>
      <use xlink:href="#Inter-Bold-72" x="835.440475"/>
      <use xlink:href="#Inter-Bold-61" x="876.314056"/>
      <use xlink:href="#Inter-Bold-6d" x="934.33963"/>
      <use xlink:href="#Inter-Bold-20" x="1025.532837"/>
      <use xlink:href="#Inter-Bold-43" x="1048.721756"/>
      <use xlink:href="#Inter-Bold-6f" x="1123.934845"/>
      <use xlink:href="#Inter-Bold-75" x="1185.298492"/>
      <use xlink:href="#Inter-Bold-6e" x="1247.478897"/>
      <use xlink:href="#Inter-Bold-74" x="1309.659302"/>
      <use xlink:href="#Inter-Bold-73" x="1348.508743"/>
     </g>
    </g>
   </g>
   <g id="line2d_33">
    <path d="M -1 269.552725 
L 9.016971 269.6682 
L 20.176971 269.461632 
L 31.336971 269.588472 
L 42.496971 269.448948 
L 53.656971 268.2639 
L 64.816971 268.932528 
L 75.976971 267.92868 
L 87.136971 265.795956 
L 98.296971 265.366512 
L 109.456971 264.790296 
L 120.616971 262.177392 
L 131.776971 259.07706 
L 142.936971 260.160636 
L 154.096971 257.90832 
L 165.256971 258.738216 
L 176.416971 257.516928 
L 187.576971 257.839464 
L 198.736971 259.921452 
L 209.896971 257.33754 
L 221.056971 256.139808 
L 232.216971 255.72486 
L 243.376971 252.287496 
L 254.536971 251.22204 
L 265.696971 251.129628 
L 276.856971 236.485044 
L 288.016971 238.507236 
L 299.176971 229.775208 
L 310.336971 232.723332 
L 321.496971 231.822768 
L 332.656971 232.007592 
L 343.816971 230.951196 
L 354.976971 231.9786 
L 366.136971 218.837976 
L 377.296971 215.560068 
L 388.456971 220.356432 
L 399.616971 215.768448 
L 410.776971 210.711156 
L 421.936971 180.061176 
L 433.096971 160.118304 
L 444.256971 99.468852 
L 455.416971 31.54422 
" clip-path="url(#p79c5c52ca9)" style="fill: none; stroke: #452393; stroke-width: 2.5; stroke-linecap: square"/>
   </g>
   <g id="line2d_34">
    <path d="M -1 269.932151 
L 9.016971 269.911008 
L 20.176971 269.889264 
L 31.336971 269.898324 
L 42.496971 269.918256 
L 53.656971 269.871144 
L 64.816971 269.918256 
L 75.976971 269.811348 
L 87.136971 269.782356 
L 98.296971 269.872956 
L 109.456971 269.796852 
L 120.616971 269.737056 
L 131.776971 269.552232 
L 142.936971 269.289492 
L 154.096971 268.836492 
L 165.256971 263.367876 
L 176.416971 239.016408 
L 187.576971 234.294336 
L 198.736971 237.760692 
L 209.896971 250.147524 
L 221.056971 255.445812 
L 232.216971 258.201864 
L 243.376971 259.499256 
L 254.536971 262.485432 
L 265.696971 262.61046 
L 276.856971 263.891544 
L 288.016971 264.203208 
L 299.176971 265.522344 
L 310.336971 266.131176 
L 321.496971 266.05326 
L 332.656971 266.689272 
L 343.816971 266.504448 
L 354.976971 267.287232 
L 366.136971 267.064356 
L 377.296971 266.631288 
L 388.456971 266.214528 
L 399.616971 267.319848 
L 410.776971 268.117128 
L 421.936971 267.722112 
L 433.096971 268.33638 
L 444.256971 267.915996 
L 455.416971 268.667976 
" clip-path="url(#p79c5c52ca9)" style="fill: none; stroke: #99c941; stroke-width: 2.5; stroke-linecap: square"/>
   </g>
   <g id="line2d_35">
    <path d="M -1 269.763308 
L 9.016971 269.755176 
L 20.176971 269.706252 
L 31.336971 269.8041 
L 42.496971 269.769672 
L 53.656971 269.73162 
L 64.816971 269.729808 
L 75.976971 269.737056 
L 87.136971 269.746116 
L 98.296971 269.68632 
L 109.456971 269.720748 
L 120.616971 269.83128 
L 131.776971 269.72256 
L 142.936971 269.809536 
L 154.096971 269.755176 
L 165.256971 269.733432 
L 176.416971 269.706252 
L 187.576971 269.689944 
L 198.736971 269.73162 
L 209.896971 269.675448 
L 221.056971 269.280432 
L 232.216971 269.584848 
L 243.376971 269.602968 
L 254.536971 269.517804 
L 265.696971 269.624712 
L 276.856971 269.363784 
L 288.016971 269.492436 
L 299.176971 269.467068 
L 310.336971 269.483376 
L 321.496971 269.45076 
L 332.656971 269.501496 
L 343.816971 269.244192 
L 354.976971 269.265936 
L 366.136971 267.935928 
L 377.296971 260.220432 
L 388.456971 228.755052 
L 399.616971 196.16442 
L 410.776971 177.055068 
L 421.936971 151.500432 
L 433.096971 131.155296 
L 444.256971 111.83394 
L 455.416971 100.619472 
" clip-path="url(#p79c5c52ca9)" style="fill: none; stroke: #a43a8f; stroke-width: 2.5; stroke-linecap: square"/>
   </g>
   <g id="line2d_36">
    <path d="M -1 269.920996 
L 20.176971 269.938188 
L 31.336971 269.934564 
L 42.496971 269.932752 
L 53.656971 269.938188 
L 64.816971 269.93094 
L 75.976971 269.916444 
L 87.136971 269.889264 
L 98.296971 269.938188 
L 109.456971 269.932752 
L 120.616971 269.869332 
L 131.776971 269.88564 
L 142.936971 269.891076 
L 154.096971 269.8947 
L 165.256971 269.889264 
L 176.416971 269.807724 
L 187.576971 269.6229 
L 198.736971 269.409084 
L 209.896971 268.921656 
L 221.056971 268.49946 
L 232.216971 267.888816 
L 243.376971 267.05892 
L 254.536971 258.707412 
L 265.696971 219.229368 
L 276.856971 208.846608 
L 288.016971 189.498072 
L 299.176971 200.446176 
L 310.336971 149.902248 
L 321.496971 183.096276 
L 332.656971 180.231504 
L 343.816971 192.844836 
L 354.976971 176.092896 
L 366.136971 177.5733 
L 377.296971 193.257972 
L 388.456971 204.818532 
L 399.616971 221.566848 
L 410.776971 231.083472 
L 421.936971 237.670092 
L 433.096971 236.446992 
L 444.256971 242.01708 
L 455.416971 246.884112 
" clip-path="url(#p79c5c52ca9)" style="fill: none; stroke: #999fa5; stroke-width: 2.5; stroke-linecap: square"/>
   </g>
   <g id="patch_3">
    <path d="M 75.976971 279 
L 75.976971 7.2 
" style="fill: none; stroke: #202124; stroke-width: 1.5; stroke-linejoin: miter; stroke-linecap: square"/>
   </g>
   <g id="patch_4">
    <path d="M 466.576971 279 
L 466.576971 7.2 
" style="fill: none; stroke: #202124; stroke-width: 1.5; stroke-linejoin: miter; stroke-linecap: square"/>
   </g>
   <g id="patch_5">
    <path d="M 75.976971 279 
L 466.576971 279 
" style="fill: none; stroke: #202124; stroke-width: 1.5; stroke-linejoin: miter; stroke-linecap: square"/>
   </g>
   <g id="patch_6">
    <path d="M 75.976971 7.2 
L 466.576971 7.2 
" style="fill: none; stroke: #202124; stroke-width: 1.5; stroke-linejoin: miter; stroke-linecap: square"/>
   </g>
   <g id="text_18">
    <g id="patch_7">
     <path d="M 364.10494 75.931312 
L 446.289002 75.931312 
L 446.289002 31.086 
L 364.10494 31.086 
z
" style="fill: #ffffff; fill-opacity: 0.666667"/>
    </g>
    <!-- machine -->
    <g style="fill: #452393" transform="translate(368.06494 47.932875)scale(0.18 -0.18)">
     <defs>
      <path id="Inter-SemiBold-6d" d="M 423 0 
L 423 3491 
L 1209 3491 
L 1209 2898 
L 1250 2898 
Q 1359 3198 1611 3367 
Q 1864 3536 2214 3536 
Q 2568 3536 2812 3364 
Q 3057 3193 3157 2898 
L 3193 2898 
Q 3309 3189 3585 3362 
Q 3861 3536 4241 3536 
Q 4723 3536 5027 3231 
Q 5332 2927 5332 2343 
L 5332 0 
L 4507 0 
L 4507 2216 
Q 4507 2541 4334 2692 
Q 4161 2843 3911 2843 
Q 3614 2843 3447 2658 
Q 3280 2473 3280 2177 
L 3280 0 
L 2473 0 
L 2473 2250 
Q 2473 2520 2310 2681 
Q 2148 2843 1886 2843 
Q 1709 2843 1563 2753 
Q 1418 2664 1332 2501 
Q 1246 2339 1246 2123 
L 1246 0 
L 423 0 
z
" transform="scale(0.015625)"/>
      <path id="Inter-SemiBold-61" d="M 1427 -70 
Q 1096 -70 831 49 
Q 566 168 412 402 
Q 259 636 259 980 
Q 259 1275 368 1468 
Q 477 1661 666 1777 
Q 855 1893 1092 1953 
Q 1330 2014 1584 2041 
Q 1891 2073 2082 2099 
Q 2273 2125 2360 2180 
Q 2448 2236 2448 2355 
L 2448 2368 
Q 2448 2625 2295 2766 
Q 2143 2907 1857 2907 
Q 1555 2907 1378 2775 
Q 1202 2643 1141 2464 
L 373 2573 
Q 464 2891 673 3105 
Q 882 3320 1184 3428 
Q 1486 3536 1852 3536 
Q 2105 3536 2355 3477 
Q 2605 3418 2811 3283 
Q 3018 3148 3144 2916 
Q 3271 2684 3271 2336 
L 3271 0 
L 2480 0 
L 2480 480 
L 2452 480 
Q 2377 334 2242 208 
Q 2107 82 1903 6 
Q 1700 -70 1427 -70 
z
M 1641 534 
Q 1889 534 2070 633 
Q 2252 732 2351 895 
Q 2450 1059 2450 1252 
L 2450 1664 
Q 2411 1632 2319 1604 
Q 2227 1577 2113 1556 
Q 2000 1536 1888 1520 
Q 1777 1505 1696 1493 
Q 1511 1468 1366 1411 
Q 1221 1355 1136 1253 
Q 1052 1152 1052 993 
Q 1052 766 1218 650 
Q 1384 534 1641 534 
z
" transform="scale(0.015625)"/>
      <path id="Inter-SemiBold-63" d="M 1946 -68 
Q 1423 -68 1049 161 
Q 675 391 474 796 
Q 273 1202 273 1732 
Q 273 2264 477 2672 
Q 682 3080 1056 3308 
Q 1430 3536 1941 3536 
Q 2366 3536 2694 3380 
Q 3023 3225 3218 2942 
Q 3414 2659 3441 2282 
L 2655 2282 
Q 2607 2534 2428 2703 
Q 2250 2873 1952 2873 
Q 1700 2873 1509 2737 
Q 1318 2602 1212 2350 
Q 1107 2098 1107 1745 
Q 1107 1389 1211 1133 
Q 1316 877 1506 739 
Q 1696 602 1952 602 
Q 2134 602 2278 671 
Q 2423 741 2520 873 
Q 2618 1005 2655 1193 
L 3441 1193 
Q 3411 823 3222 537 
Q 3034 252 2709 92 
Q 2384 -68 1946 -68 
z
" transform="scale(0.015625)"/>
      <path id="Inter-SemiBold-68" d="M 1246 2045 
L 1246 0 
L 423 0 
L 423 4655 
L 1227 4655 
L 1227 2898 
L 1268 2898 
Q 1391 3193 1649 3364 
Q 1907 3536 2307 3536 
Q 2671 3536 2941 3384 
Q 3211 3232 3360 2938 
Q 3509 2645 3509 2223 
L 3509 0 
L 2686 0 
L 2686 2095 
Q 2686 2448 2505 2644 
Q 2325 2841 2000 2841 
Q 1782 2841 1610 2746 
Q 1439 2652 1342 2475 
Q 1246 2298 1246 2045 
z
" transform="scale(0.015625)"/>
      <path id="Inter-SemiBold-69" d="M 423 0 
L 423 3491 
L 1246 3491 
L 1246 0 
L 423 0 
z
M 836 3986 
Q 641 3986 500 4117 
Q 359 4248 359 4432 
Q 359 4618 500 4749 
Q 641 4880 836 4880 
Q 1034 4880 1174 4749 
Q 1314 4618 1314 4432 
Q 1314 4248 1174 4117 
Q 1034 3986 836 3986 
z
" transform="scale(0.015625)"/>
      <path id="Inter-SemiBold-6e" d="M 1246 2045 
L 1246 0 
L 423 0 
L 423 3491 
L 1209 3491 
L 1209 2898 
L 1250 2898 
Q 1371 3191 1635 3363 
Q 1900 3536 2291 3536 
Q 2652 3536 2921 3381 
Q 3191 3227 3340 2934 
Q 3489 2641 3486 2223 
L 3486 0 
L 2664 0 
L 2664 2095 
Q 2664 2445 2483 2643 
Q 2302 2841 1984 2841 
Q 1768 2841 1601 2746 
Q 1434 2652 1340 2475 
Q 1246 2298 1246 2045 
z
" transform="scale(0.015625)"/>
      <path id="Inter-SemiBold-65" d="M 1968 -68 
Q 1443 -68 1062 151 
Q 682 370 477 773 
Q 273 1177 273 1725 
Q 273 2264 478 2672 
Q 684 3080 1054 3308 
Q 1425 3536 1925 3536 
Q 2248 3536 2535 3433 
Q 2823 3330 3044 3114 
Q 3266 2898 3393 2565 
Q 3521 2232 3521 1773 
L 3521 1520 
L 659 1520 
L 659 2075 
L 2732 2075 
Q 2730 2311 2630 2496 
Q 2530 2682 2351 2788 
Q 2173 2895 1936 2895 
Q 1684 2895 1493 2773 
Q 1302 2652 1196 2455 
Q 1091 2259 1089 2025 
L 1089 1541 
Q 1089 1236 1200 1019 
Q 1311 802 1511 687 
Q 1711 573 1980 573 
Q 2159 573 2304 624 
Q 2450 675 2557 775 
Q 2664 875 2718 1023 
L 3486 936 
Q 3414 632 3210 406 
Q 3007 180 2691 56 
Q 2375 -68 1968 -68 
z
" transform="scale(0.015625)"/>
     </defs>
     <use xlink:href="#Inter-SemiBold-6d"/>
     <use xlink:href="#Inter-SemiBold-61" x="89.772751"/>
     <use xlink:href="#Inter-SemiBold-63" x="147.230148"/>
     <use xlink:href="#Inter-SemiBold-68" x="204.971634"/>
     <use xlink:href="#Inter-SemiBold-69" x="266.264267"/>
     <use xlink:href="#Inter-SemiBold-6e" x="292.329605"/>
     <use xlink:href="#Inter-SemiBold-65" x="353.302628"/>
    </g>
    <!-- learning -->
    <g style="fill: #452393" transform="translate(369.828377 68.084437)scale(0.18 -0.18)">
     <defs>
      <path id="Inter-SemiBold-6c" d="M 1246 4655 
L 1246 0 
L 423 0 
L 423 4655 
L 1246 4655 
z
" transform="scale(0.015625)"/>
      <path id="Inter-SemiBold-72" d="M 423 0 
L 423 3491 
L 1221 3491 
L 1221 2909 
L 1257 2909 
Q 1352 3211 1585 3376 
Q 1818 3541 2118 3541 
Q 2186 3541 2271 3535 
Q 2357 3530 2414 3518 
L 2414 2761 
Q 2361 2780 2248 2794 
Q 2136 2809 2032 2809 
Q 1807 2809 1628 2712 
Q 1450 2616 1348 2445 
Q 1246 2275 1246 2052 
L 1246 0 
L 423 0 
z
" transform="scale(0.015625)"/>
      <path id="Inter-SemiBold-67" d="M 1941 -1382 
Q 1498 -1382 1179 -1262 
Q 861 -1143 668 -943 
Q 475 -743 400 -500 
L 1141 -320 
Q 1191 -423 1286 -524 
Q 1382 -625 1544 -692 
Q 1707 -759 1955 -759 
Q 2305 -759 2534 -589 
Q 2764 -420 2764 -34 
L 2764 627 
L 2723 627 
Q 2659 500 2537 366 
Q 2416 232 2217 141 
Q 2018 50 1718 50 
Q 1316 50 990 240 
Q 664 430 472 808 
Q 280 1186 280 1757 
Q 280 2332 472 2728 
Q 664 3125 991 3330 
Q 1318 3536 1721 3536 
Q 2027 3536 2226 3433 
Q 2425 3330 2543 3185 
Q 2661 3041 2723 2914 
L 2768 2914 
L 2768 3491 
L 3580 3491 
L 3580 -57 
Q 3580 -505 3366 -798 
Q 3152 -1091 2781 -1236 
Q 2411 -1382 1941 -1382 
z
M 1948 695 
Q 2209 695 2393 822 
Q 2577 950 2672 1188 
Q 2768 1427 2768 1761 
Q 2768 2091 2674 2338 
Q 2580 2586 2397 2723 
Q 2214 2861 1948 2861 
Q 1673 2861 1489 2718 
Q 1305 2575 1211 2326 
Q 1118 2077 1118 1761 
Q 1118 1441 1212 1201 
Q 1307 961 1492 828 
Q 1677 695 1948 695 
z
" transform="scale(0.015625)"/>
     </defs>
     <use xlink:href="#Inter-SemiBold-6c"/>
     <use xlink:href="#Inter-SemiBold-65" x="26.065338"/>
     <use xlink:href="#Inter-SemiBold-61" x="85.333817"/>
     <use xlink:href="#Inter-SemiBold-72" x="142.791214"/>
     <use xlink:href="#Inter-SemiBold-6e" x="182.457413"/>
     <use xlink:href="#Inter-SemiBold-69" x="243.430435"/>
     <use xlink:href="#Inter-SemiBold-6e" x="269.495773"/>
     <use xlink:href="#Inter-SemiBold-67" x="330.468796"/>
    </g>
   </g>
   <g id="text_19">
    <g id="patch_8">
     <path d="M 338.021815 156.771937 
L 416.572127 156.771937 
L 416.572127 131.240062 
L 338.021815 131.240062 
z
" style="fill: #ffffff; fill-opacity: 0.666667"/>
    </g>
    <!-- big data -->
    <g style="fill: #a43a8f" transform="translate(341.981815 148.925062)scale(0.18 -0.18)">
     <defs>
      <path id="Inter-SemiBold-62" d="M 459 0 
L 459 4655 
L 1282 4655 
L 1282 2914 
L 1316 2914 
Q 1380 3041 1495 3185 
Q 1611 3330 1809 3433 
Q 2007 3536 2314 3536 
Q 2718 3536 3044 3330 
Q 3371 3125 3563 2724 
Q 3755 2323 3755 1741 
Q 3755 1166 3566 763 
Q 3377 361 3052 150 
Q 2727 -61 2316 -61 
Q 2016 -61 1818 39 
Q 1621 139 1501 281 
Q 1382 423 1316 550 
L 1268 550 
L 1268 0 
L 459 0 
z
M 1266 1745 
Q 1266 1407 1362 1152 
Q 1459 898 1642 756 
Q 1825 614 2086 614 
Q 2359 614 2543 760 
Q 2727 907 2821 1162 
Q 2916 1418 2916 1745 
Q 2916 2070 2823 2322 
Q 2730 2575 2545 2718 
Q 2361 2861 2086 2861 
Q 1823 2861 1639 2722 
Q 1455 2584 1360 2334 
Q 1266 2084 1266 1745 
z
" transform="scale(0.015625)"/>
      <path id="Inter-SemiBold-20" transform="scale(0.015625)"/>
      <path id="Inter-SemiBold-64" d="M 1718 -61 
Q 1307 -61 982 150 
Q 657 361 468 763 
Q 280 1166 280 1741 
Q 280 2323 472 2724 
Q 664 3125 991 3330 
Q 1318 3536 1721 3536 
Q 2027 3536 2225 3433 
Q 2423 3330 2539 3185 
Q 2655 3041 2718 2914 
L 2752 2914 
L 2752 4655 
L 3577 4655 
L 3577 0 
L 2768 0 
L 2768 550 
L 2718 550 
Q 2655 423 2534 281 
Q 2414 139 2216 39 
Q 2018 -61 1718 -61 
z
M 1948 614 
Q 2209 614 2393 756 
Q 2577 898 2672 1152 
Q 2768 1407 2768 1745 
Q 2768 2084 2674 2334 
Q 2580 2584 2397 2722 
Q 2214 2861 1948 2861 
Q 1673 2861 1489 2718 
Q 1305 2575 1211 2322 
Q 1118 2070 1118 1745 
Q 1118 1418 1212 1162 
Q 1307 907 1492 760 
Q 1677 614 1948 614 
z
" transform="scale(0.015625)"/>
      <path id="Inter-SemiBold-74" d="M 2166 3491 
L 2166 2855 
L 159 2855 
L 159 3491 
L 2166 3491 
z
M 655 4327 
L 1477 4327 
L 1477 1050 
Q 1477 884 1528 796 
Q 1580 709 1664 677 
Q 1748 645 1850 645 
Q 1927 645 1992 656 
Q 2057 668 2091 677 
L 2230 34 
Q 2164 11 2042 -16 
Q 1921 -43 1746 -48 
Q 1436 -57 1188 46 
Q 941 150 796 368 
Q 652 586 655 914 
L 655 4327 
z
" transform="scale(0.015625)"/>
     </defs>
     <use xlink:href="#Inter-SemiBold-62"/>
     <use xlink:href="#Inter-SemiBold-69" x="63.032684"/>
     <use xlink:href="#Inter-SemiBold-67" x="89.098022"/>
     <use xlink:href="#Inter-SemiBold-20" x="151.633545"/>
     <use xlink:href="#Inter-SemiBold-64" x="176.455994"/>
     <use xlink:href="#Inter-SemiBold-61" x="239.488678"/>
     <use xlink:href="#Inter-SemiBold-74" x="296.946075"/>
     <use xlink:href="#Inter-SemiBold-61" x="334.943237"/>
    </g>
   </g>
   <g id="text_20">
    <g id="patch_9">
     <path d="M 219.309002 166.048969 
L 300.92494 166.048969 
L 300.92494 121.963031 
L 219.309002 121.963031 
z
" style="fill: #ffffff; fill-opacity: 0.666667"/>
    </g>
    <!-- web -->
    <g style="fill: #999fa5" transform="translate(241.574159 139.015219)scale(0.18 -0.18)">
     <defs>
      <path id="Inter-SemiBold-77" d="M 1143 0 
L 157 3491 
L 996 3491 
L 1609 1036 
L 1641 1036 
L 2268 3491 
L 3098 3491 
L 3725 1050 
L 3759 1050 
L 4364 3491 
L 5205 3491 
L 4216 0 
L 3359 0 
L 2705 2359 
L 2657 2359 
L 2002 0 
L 1143 0 
z
" transform="scale(0.015625)"/>
     </defs>
     <use xlink:href="#Inter-SemiBold-77"/>
     <use xlink:href="#Inter-SemiBold-65" x="83.735809"/>
     <use xlink:href="#Inter-SemiBold-62" x="143.004288"/>
    </g>
    <!-- services -->
    <g style="fill: #999fa5" transform="translate(223.269002 158.407406)scale(0.18 -0.18)">
     <defs>
      <path id="Inter-SemiBold-73" d="M 3182 2568 
L 2432 2486 
Q 2400 2600 2321 2700 
Q 2243 2800 2111 2861 
Q 1980 2923 1789 2923 
Q 1532 2923 1358 2811 
Q 1184 2700 1186 2523 
Q 1184 2370 1299 2275 
Q 1414 2180 1680 2118 
L 2275 1991 
Q 2771 1884 3013 1652 
Q 3255 1420 3257 1045 
Q 3255 716 3065 465 
Q 2875 214 2538 73 
Q 2202 -68 1766 -68 
Q 1125 -68 734 201 
Q 343 470 268 952 
L 1071 1030 
Q 1125 793 1302 672 
Q 1480 552 1764 552 
Q 2057 552 2235 672 
Q 2414 793 2414 970 
Q 2414 1120 2299 1218 
Q 2184 1316 1943 1368 
L 1348 1493 
Q 846 1598 605 1846 
Q 364 2095 366 2477 
Q 364 2800 542 3037 
Q 721 3275 1040 3405 
Q 1359 3536 1777 3536 
Q 2391 3536 2744 3275 
Q 3098 3014 3182 2568 
z
" transform="scale(0.015625)"/>
      <path id="Inter-SemiBold-76" d="M 3541 3491 
L 2298 0 
L 1389 0 
L 146 3491 
L 1023 3491 
L 1825 898 
L 1861 898 
L 2666 3491 
L 3541 3491 
z
" transform="scale(0.015625)"/>
     </defs>
     <use xlink:href="#Inter-SemiBold-73"/>
     <use xlink:href="#Inter-SemiBold-65" x="54.900574"/>
     <use xlink:href="#Inter-SemiBold-72" x="114.169052"/>
     <use xlink:href="#Inter-SemiBold-76" x="153.835251"/>
     <use xlink:href="#Inter-SemiBold-69" x="211.434692"/>
     <use xlink:href="#Inter-SemiBold-63" x="237.500031"/>
     <use xlink:href="#Inter-SemiBold-65" x="295.241516"/>
     <use xlink:href="#Inter-SemiBold-73" x="354.509995"/>
    </g>
   </g>
   <g id="text_21">
    <g id="patch_10">
     <path d="M 121.777127 229.951312 
L 253.376815 229.951312 
L 253.376815 185.106 
L 121.777127 185.106 
z
" style="fill: #ffffff; fill-opacity: 0.666667"/>
    </g>
    <!-- information -->
    <g style="fill: #99c941" transform="translate(137.331659 201.952875)scale(0.18 -0.18)">
     <defs>
      <path id="Inter-SemiBold-66" d="M 2191 3491 
L 2191 2855 
L 127 2855 
L 127 3491 
L 2191 3491 
z
M 643 0 
L 643 3820 
Q 643 4173 789 4407 
Q 936 4641 1184 4757 
Q 1432 4873 1734 4873 
Q 1948 4873 2114 4839 
Q 2280 4805 2359 4777 
L 2196 4141 
Q 2143 4157 2063 4174 
Q 1984 4191 1886 4191 
Q 1657 4191 1562 4080 
Q 1468 3970 1468 3766 
L 1468 0 
L 643 0 
z
" transform="scale(0.015625)"/>
      <path id="Inter-SemiBold-6f" d="M 1946 -68 
Q 1434 -68 1059 157 
Q 684 382 478 786 
Q 273 1191 273 1732 
Q 273 2273 478 2679 
Q 684 3086 1059 3311 
Q 1434 3536 1946 3536 
Q 2457 3536 2832 3311 
Q 3207 3086 3412 2679 
Q 3618 2273 3618 1732 
Q 3618 1191 3412 786 
Q 3207 382 2832 157 
Q 2457 -68 1946 -68 
z
M 1950 591 
Q 2227 591 2413 744 
Q 2600 898 2692 1157 
Q 2784 1416 2784 1734 
Q 2784 2055 2692 2315 
Q 2600 2575 2413 2729 
Q 2227 2884 1950 2884 
Q 1666 2884 1478 2729 
Q 1291 2575 1199 2315 
Q 1107 2055 1107 1734 
Q 1107 1416 1199 1157 
Q 1291 898 1478 744 
Q 1666 591 1950 591 
z
" transform="scale(0.015625)"/>
     </defs>
     <use xlink:href="#Inter-SemiBold-69"/>
     <use xlink:href="#Inter-SemiBold-6e" x="26.065338"/>
     <use xlink:href="#Inter-SemiBold-66" x="87.038361"/>
     <use xlink:href="#Inter-SemiBold-6f" x="124.751434"/>
     <use xlink:href="#Inter-SemiBold-72" x="185.546906"/>
     <use xlink:href="#Inter-SemiBold-6d" x="225.213104"/>
     <use xlink:href="#Inter-SemiBold-61" x="314.985855"/>
     <use xlink:href="#Inter-SemiBold-74" x="372.443253"/>
     <use xlink:href="#Inter-SemiBold-69" x="410.440414"/>
     <use xlink:href="#Inter-SemiBold-6f" x="436.505753"/>
     <use xlink:href="#Inter-SemiBold-6e" x="497.301224"/>
    </g>
    <!-- superhighway -->
    <g style="fill: #99c941" transform="translate(125.737127 222.104437)scale(0.18 -0.18)">
     <defs>
      <path id="Inter-SemiBold-75" d="M 2648 1468 
L 2648 3491 
L 3471 3491 
L 3471 0 
L 2673 0 
L 2673 620 
L 2636 620 
Q 2518 327 2249 141 
Q 1980 -45 1586 -45 
Q 1243 -45 980 108 
Q 718 261 570 555 
Q 423 850 423 1268 
L 423 3491 
L 1246 3491 
L 1246 1395 
Q 1246 1064 1427 868 
Q 1609 673 1905 673 
Q 2086 673 2256 761 
Q 2427 850 2537 1026 
Q 2648 1202 2648 1468 
z
" transform="scale(0.015625)"/>
      <path id="Inter-SemiBold-70" d="M 423 -1309 
L 423 3491 
L 1232 3491 
L 1232 2914 
L 1280 2914 
Q 1343 3041 1459 3185 
Q 1575 3330 1773 3433 
Q 1971 3536 2277 3536 
Q 2682 3536 3008 3330 
Q 3334 3125 3526 2724 
Q 3718 2323 3718 1741 
Q 3718 1166 3529 763 
Q 3341 361 3016 150 
Q 2691 -61 2280 -61 
Q 1980 -61 1782 39 
Q 1584 139 1465 281 
Q 1346 423 1280 550 
L 1246 550 
L 1246 -1309 
L 423 -1309 
z
M 1230 1745 
Q 1230 1407 1326 1152 
Q 1423 898 1606 756 
Q 1789 614 2050 614 
Q 2323 614 2507 760 
Q 2691 907 2785 1162 
Q 2880 1418 2880 1745 
Q 2880 2070 2786 2322 
Q 2693 2575 2509 2718 
Q 2325 2861 2050 2861 
Q 1786 2861 1602 2722 
Q 1418 2584 1324 2334 
Q 1230 2084 1230 1745 
z
" transform="scale(0.015625)"/>
      <path id="Inter-SemiBold-79" d="M 934 -1309 
Q 766 -1309 624 -1283 
Q 482 -1257 398 -1223 
L 589 -582 
Q 768 -634 909 -632 
Q 1050 -630 1158 -544 
Q 1266 -459 1341 -261 
L 1411 -73 
L 146 3491 
L 1018 3491 
L 1823 855 
L 1859 855 
L 2666 3491 
L 3541 3491 
L 2143 -423 
Q 2046 -700 1884 -899 
Q 1723 -1098 1490 -1203 
Q 1257 -1309 934 -1309 
z
" transform="scale(0.015625)"/>
     </defs>
     <use xlink:href="#Inter-SemiBold-73"/>
     <use xlink:href="#Inter-SemiBold-75" x="54.900574"/>
     <use xlink:href="#Inter-SemiBold-70" x="115.731552"/>
     <use xlink:href="#Inter-SemiBold-65" x="178.19606"/>
     <use xlink:href="#Inter-SemiBold-72" x="237.464539"/>
     <use xlink:href="#Inter-SemiBold-68" x="277.130737"/>
     <use xlink:href="#Inter-SemiBold-69" x="338.42337"/>
     <use xlink:href="#Inter-SemiBold-67" x="364.488708"/>
     <use xlink:href="#Inter-SemiBold-68" x="427.024231"/>
     <use xlink:href="#Inter-SemiBold-77" x="488.316864"/>
     <use xlink:href="#Inter-SemiBold-61" x="572.052673"/>
     <use xlink:href="#Inter-SemiBold-79" x="629.510071"/>
    </g>
   </g>
  </g>
 </g>
 <defs>
  <clipPath id="p79c5c52ca9">
   <rect x="75.976971" y="7.2" width="390.6" height="271.8"/>
  </clipPath>
 </defs>
</svg>
