<svg width="414" height="243" viewBox="0 0 414 243" fill="none" xmlns="http://www.w3.org/2000/svg">
<path d="M215.512 28.8228L215.12 29.1248L214.814 28.736L212.977 26.4021C195.963 28.8612 179.867 46.2087 179.867 66.9826C179.867 68.2519 179.223 69.4508 178.244 70.5981C177.263 71.7493 175.894 72.9084 174.334 74.1032C173.305 74.8918 172.193 75.6968 171.04 76.5314C168.663 78.2515 166.113 80.097 163.76 82.1827C160.278 85.2685 157.327 88.8007 156.158 93.0455C155.008 97.2163 155.556 102.158 159.18 108.162L287.964 117.309C287.851 109.618 285.297 104.725 281.58 101.201C277.845 97.6591 272.913 95.4734 267.93 93.2648C267.798 93.2062 267.666 93.1476 267.533 93.0889C262.454 90.8363 257.347 88.5198 253.704 84.6458C250.033 80.7411 247.888 75.3035 248.587 66.9074C248.579 45.3021 236.405 27.771 218.683 26.3801L215.512 28.8228Z" fill="#A43A8F" stroke="#191919"/>
<path d="M337.817 112.019C337.817 112.019 301.54 65.4577 307.314 51.081C312.217 38.828 323.437 50.2641 323.437 50.2641L337.817 112.019Z" fill="#9E9E9E"/>
<path d="M364.452 161.029C364.452 161.029 402.199 119.478 401.328 104.503C400.456 89.5272 386.785 96.5523 386.785 96.5523L364.452 161.029Z" fill="#9E9E9E"/>
<path d="M403.889 197.626C403.889 210.152 398.551 221.587 389.836 230.301C382.81 237.271 373.278 241.138 363.364 241.138H332.589C322.676 241.138 313.143 237.271 306.117 230.301C297.402 221.587 292.064 210.152 292.064 197.626C292.064 179.764 302.794 164.135 318.917 155.53H376.981C393.104 164.135 403.889 179.819 403.889 197.626Z" fill="#9E9E9E"/>
<path d="M348.003 165.278C364.453 165.278 377.743 161.738 377.743 157.382C377.743 153.025 364.453 149.485 348.003 149.485C331.608 149.485 318.263 153.025 318.263 157.382C318.263 161.738 331.554 165.278 348.003 165.278Z" fill="#191919"/>
<path d="M364.452 161.031C359.767 161.848 354.048 162.338 348.002 162.338C342.229 162.338 336.836 161.902 332.261 161.14C321.53 149.704 295.33 119.48 305.026 104.504C317.118 85.8253 337.817 111.965 337.817 111.965C337.817 111.965 313.36 37.0316 326.324 20.3676C339.287 3.70361 349.418 33.3284 349.418 33.3284C349.418 33.3284 355.955 -2.61346 373.494 0.871815C390.216 4.13926 364.288 87.4591 361.892 95.1374C363.145 91.4344 370.661 71.0675 385.313 72.919C399.149 74.6617 372.077 142.57 364.452 161.031Z" fill="#99C941"/>
<path d="M348.003 163.209C347.948 163.209 347.948 163.209 348.003 163.209C347.567 163.209 347.186 162.828 347.186 162.392C347.894 70.304 372.405 1.25231 372.677 0.544357C372.841 0.108699 373.277 -0.10913 373.712 0.0542421C374.148 0.217613 374.366 0.653272 374.203 1.08893C373.93 1.79688 349.528 70.5769 348.765 162.392C348.765 162.828 348.439 163.209 348.003 163.209Z" fill="#191919"/>
<path d="M353.178 91.7074C353.123 91.7074 353.069 91.7074 353.069 91.7074C352.633 91.6529 352.306 91.2174 352.361 90.7813C353.123 85.7173 354.049 64.3696 348.548 33.4922C348.494 33.0566 348.766 32.621 349.202 32.5665C349.637 32.512 350.073 32.7843 350.128 33.22C350.182 33.6012 356.827 71.8848 353.941 91.0534C353.941 91.3808 353.614 91.7074 353.178 91.7074Z" fill="#191919"/>
<path d="M353.886 162.991C353.886 162.991 353.831 162.991 353.886 162.991C353.396 162.937 353.069 162.556 353.069 162.12C356.174 109.406 384.334 72.7015 384.607 72.3198C384.879 71.9387 385.369 71.8843 385.75 72.1564C386.132 72.4286 386.186 72.9737 385.914 73.3003C385.641 73.6814 357.808 110.004 354.703 162.175C354.649 162.665 354.322 162.991 353.886 162.991Z" fill="#191919"/>
<path d="M342.066 163.047C341.63 163.047 341.249 162.666 341.249 162.23C340.704 123.347 307.696 102 307.369 101.837C306.988 101.619 306.879 101.074 307.096 100.693C307.314 100.312 307.859 100.203 308.24 100.421C308.567 100.639 316.847 105.921 325.344 116.213C333.188 125.689 342.556 141.427 342.883 162.176C342.883 162.666 342.502 163.047 342.066 163.047Z" fill="#191919"/>
<path d="M413.421 242.064L0.435455 242.173C0.217712 242.173 0 242.009 0 241.791C0 241.574 0.163269 241.356 0.435455 241.356L413.693 241.247C414.074 241.574 413.802 242.064 413.421 242.064Z" fill="#191919"/>
<path d="M130.098 81.6659L130.098 81.6659L130.342 81.8473L130.293 82.1473L126.789 103.698L154.533 104.747L155.329 76.5068L137.848 60.324L137.75 60.2331L137.71 60.1051L138.188 59.9571C137.71 60.1051 137.71 60.1051 137.71 60.105L137.71 60.1044L137.709 60.1023L137.707 60.094L137.696 60.0608L137.656 59.9314L137.503 59.4389C137.371 59.014 137.182 58.4058 136.953 57.6725C136.495 56.2059 135.879 54.2393 135.246 52.2388C134.613 50.238 133.963 48.2047 133.438 46.6041C133.176 45.8036 132.945 45.1133 132.763 44.5903C132.58 44.0628 132.458 43.7409 132.406 43.6329C132.011 42.917 131.201 42.4687 130.334 42.367C129.451 42.2636 128.67 42.5328 128.296 43.0436L127.795 43.7295L127.439 42.9581C127.276 42.6056 126.961 42.387 126.519 42.305C126.067 42.2212 125.509 42.2904 124.97 42.5104C123.871 42.9586 123.074 43.9121 123.266 45.0624L123.385 45.7751L122.676 45.6352C121.707 45.4439 121.013 45.5144 120.521 45.7033C120.036 45.8899 119.708 46.2064 119.486 46.5827C119.026 47.3656 119.032 48.4061 119.171 48.9394L119.391 49.7829L118.552 49.5469C116.98 49.1049 115.952 49.5936 115.412 50.3177C114.846 51.0751 114.753 52.1615 115.208 53.0259L115.208 53.0261C115.302 53.204 115.445 53.6222 115.612 54.146C115.786 54.694 116.004 55.4169 116.25 56.2516C116.741 57.9217 117.344 60.0498 117.93 62.1436C118.516 64.2378 119.084 66.2995 119.507 67.8375C119.718 68.6065 119.892 69.2447 120.014 69.6907L120.155 70.2078L120.191 70.3375C121.899 73.5756 124.365 76.4025 126.419 78.43C127.45 79.4468 128.372 80.2579 129.036 80.8142C129.368 81.0922 129.635 81.3064 129.818 81.4504C129.91 81.5224 129.981 81.5769 130.028 81.6131L130.081 81.6535L130.094 81.6632L130.097 81.6654L130.098 81.6659Z" fill="white" stroke="#191919"/>
<path d="M124.788 66.5478C124.625 66.5478 124.462 66.4388 124.407 66.2755L119.723 51.0274C119.668 50.8096 119.777 50.5918 119.995 50.5373C120.213 50.4828 120.431 50.5918 120.54 50.8096L125.224 66.0576C125.279 66.2755 125.17 66.4933 124.952 66.5478C124.843 66.5478 124.843 66.5478 124.788 66.5478Z" fill="#452393"/>
<path d="M140.53 76.0786C140.367 76.0786 140.258 75.9698 140.149 75.8609C135.682 67.6921 128.165 66.2217 124.843 66.5484C124.625 66.6029 124.407 66.385 124.407 66.1672C124.353 65.9494 124.57 65.7316 124.788 65.7316C128.329 65.3504 136.281 66.8752 140.966 75.4247C141.074 75.6431 141.02 75.8609 140.802 75.9698C140.693 76.0786 140.585 76.0786 140.53 76.0786Z" fill="#452393"/>
<path d="M242.605 107.336L195.381 106.52L186.775 240.92H256.713L242.605 107.336Z" fill="#191919"/>
<path d="M295.931 241.029C295.931 241.029 344.027 242.009 332.534 201.602L305.354 141.208C298.927 127.485 289.231 110.385 270.058 107.554L242.66 107.009L251.974 202.527H231.548V240.975H205.566H187.81L195.435 106.247C174.301 106.247 162.809 107.39 154.474 112.564L155.509 103.687L127.131 89.9639C127.131 89.9639 98.4256 153.842 90.3097 183.195C83.1199 209.117 86.116 238.469 119.451 241.029C135.791 242.281 144.888 230.301 144.888 230.301L168.309 196.646L169.998 240.975H187.81H205.566H231.548L295.931 241.029Z" fill="#191919"/>
<path d="M289.722 202.746L276.758 179.765L280.08 202.746H289.722Z" fill="#191919"/>
<path d="M168.473 170.07L168.527 195.993L158.342 210.859L168.473 170.07Z" fill="#452393"/>
<path d="M187.667 233.717L187.569 233.937L187.337 233.997C186.324 234.262 185.871 235.019 185.665 235.793C185.562 236.181 185.528 236.555 185.52 236.836C185.516 236.975 185.519 237.088 185.523 237.165C185.524 237.204 185.526 237.233 185.528 237.252L185.529 237.271L185.53 237.274L185.53 237.274L185.53 237.275L185.53 237.275L185.53 237.275L185.567 237.638L185.232 237.784C185.008 237.881 184.747 238.084 184.471 238.382C184.201 238.674 183.941 239.031 183.715 239.398C183.489 239.765 183.305 240.132 183.183 240.437C183.17 240.469 183.158 240.5 183.147 240.529H231.049V217.738L190.853 229.741C188.341 230.652 187.736 231.51 187.599 232.029C187.527 232.298 187.559 232.546 187.615 232.793C187.623 232.827 187.634 232.871 187.645 232.92C187.667 233.006 187.691 233.103 187.704 233.172C187.724 233.275 187.764 233.5 187.667 233.717Z" fill="white" stroke="#191919"/>
<path d="M231.659 241.193C231.44 241.193 231.223 241.029 231.223 240.757L231.059 222.023V202.092H288.742L261.616 154.551C261.507 154.333 261.562 154.115 261.78 154.007C261.998 153.898 262.216 153.952 262.379 154.17L290.213 202.964H231.931V222.078L232.094 240.812C232.094 240.975 231.877 241.193 231.659 241.193Z" fill="white"/>
<path d="M305.627 207.917C305.572 207.917 305.572 207.917 305.518 207.917L289.231 202.962C289.013 202.907 288.904 202.635 288.959 202.472C289.013 202.254 289.286 202.145 289.449 202.199L305.735 207.155C305.953 207.21 306.062 207.482 306.008 207.645C306.008 207.808 305.79 207.917 305.627 207.917Z" fill="white"/>
<path d="M190.488 86.8535L190.49 86.8565C192.012 89.9262 194.587 91.3542 197.27 92.0183C199.638 92.6042 202.046 92.5861 203.853 92.5725C204.11 92.5706 204.355 92.5687 204.586 92.5687H205.086V93.0687V107.671C206.611 109.881 209.342 113.21 213.15 115.198C216.999 117.207 221.982 117.869 228.038 114.523L228.045 114.519L228.053 114.515C229.753 113.652 231.096 111.965 232.026 110.439C232.487 109.683 232.837 108.983 233.072 108.472C233.189 108.217 233.277 108.01 233.336 107.867C233.358 107.813 233.376 107.768 233.39 107.733V78.9641V78.0377L234.164 78.5462C235.902 79.687 238.679 80.4476 241.015 79.7704C242.167 79.4364 243.218 78.7527 244.006 77.5754C244.797 76.3944 245.345 74.6843 245.427 72.267C245.32 69.596 243.549 67.5323 241.093 66.6799C238.635 65.8269 235.493 66.1967 232.736 68.4592L232.444 68.6986L232.134 68.4837C231.878 68.3063 231.621 68.1291 231.364 67.9514C228.153 65.7356 224.843 63.4509 221.325 59.7232C217.636 55.8143 213.731 50.3346 209.431 41.6952C204.615 49.176 201.003 53.9117 192.933 57.539L193.751 63.2091L193.775 63.3744L193.694 63.5209C192.168 66.3057 190.551 70.5578 189.73 74.9247C188.906 79.3089 188.902 83.7077 190.488 86.8535Z" fill="white" stroke="#191919"/>
<path d="M204.586 100.528L218.095 91.6514C218.095 91.6514 213.9 92.3597 211.232 92.6319C208.617 92.9041 204.586 93.013 204.586 93.013V100.528Z" fill="#191919"/>
<path d="M209.052 74.1175H202.406L207.636 64.914C206.655 64.0428 203.659 60.9387 204.64 56.0375C204.694 55.8196 204.913 55.6563 205.13 55.7108C205.348 55.7652 205.511 55.983 205.457 56.2008C204.476 61.3743 208.399 64.4784 208.453 64.4784L208.725 64.6962L203.878 73.2459H209.106C209.324 73.2459 209.542 73.4092 209.542 73.6813C209.487 73.9542 209.324 74.1175 209.052 74.1175Z" fill="#191919"/>
<path d="M221.035 54.9473C220.98 54.9473 220.98 54.9473 220.926 54.9473C219.455 54.5117 217.331 54.5117 215.261 54.8384C215.043 54.8929 214.826 54.7295 214.771 54.5117C214.717 54.2938 214.88 54.076 215.098 54.0215C217.277 53.6403 219.564 53.6948 221.144 54.1305C221.361 54.1849 221.47 54.4027 221.416 54.6206C221.361 54.8384 221.198 54.9473 221.035 54.9473Z" fill="#191919"/>
<path d="M201.372 55.4376C201.318 55.4376 201.318 55.4376 201.263 55.4376C199.793 55.0019 197.668 55.0019 195.598 55.3286C195.381 55.3831 195.163 55.2197 195.108 55.0019C195.054 54.7841 195.217 54.5662 195.435 54.5117C197.614 54.1305 199.902 54.185 201.481 54.6207C201.699 54.6751 201.808 54.893 201.754 55.1108C201.699 55.2742 201.535 55.4376 201.372 55.4376Z" fill="#191919"/>
<path d="M209.433 82.9381C209.269 82.9381 209.16 82.8292 209.051 82.7203C208.943 82.5026 209.051 82.2849 209.215 82.176C211.067 81.1954 212.701 79.8883 213.681 78.6362C213.79 78.4729 214.063 78.4185 214.281 78.5273C214.444 78.6907 214.499 78.9084 214.39 79.1261C213.409 80.4333 211.666 81.8487 209.651 82.8837C209.542 82.9381 209.488 82.9381 209.433 82.9381Z" fill="#191919"/>
<path d="M233.074 74.8793C232.965 74.8793 232.856 74.8249 232.747 74.716C232.584 74.5527 232.638 74.2798 232.801 74.1165L239.937 68.2354C240.1 68.072 240.372 68.1264 240.536 68.2898C240.7 68.4532 240.645 68.7255 240.481 68.8889L233.346 74.7705C233.291 74.8793 233.183 74.8793 233.074 74.8793Z" fill="#191919"/>
<path d="M241.733 74.171C241.624 74.171 241.516 74.1166 241.461 74.0621L237.866 70.6857C237.703 70.5224 237.703 70.2502 237.866 70.0869C238.029 69.9229 238.302 69.9229 238.465 70.0869L242.005 73.4626C242.169 73.6259 242.169 73.8988 242.005 74.0621C241.951 74.171 241.842 74.171 241.733 74.171Z" fill="#191919"/>
<path d="M218.422 64.4782C219.129 64.4782 219.729 63.8792 219.729 63.1712C219.729 62.4633 219.129 61.8643 218.422 61.8643C217.713 61.8643 217.115 62.4633 217.115 63.1712C217.115 63.8792 217.659 64.4782 218.422 64.4782Z" fill="#191919"/>
<path d="M198.758 64.9665C199.466 64.9665 200.065 64.3675 200.065 63.6596C200.065 62.9516 199.466 62.3525 198.758 62.3525C198.049 62.3525 197.451 62.9516 197.451 63.6596C197.451 64.3675 198.049 64.9665 198.758 64.9665Z" fill="#191919"/>
<path d="M140.257 198.715C140.203 198.715 140.203 198.715 140.203 198.715C139.984 198.661 139.821 198.442 139.876 198.225L153.384 115.94C153.439 115.722 153.602 115.559 153.874 115.613C154.092 115.668 154.256 115.885 154.201 116.103L140.693 198.388C140.638 198.551 140.475 198.715 140.257 198.715Z" fill="white"/>
<path d="M52.1265 228.993L48.7494 136.524L175.172 140.282V231.28L52.1265 228.993Z" fill="#9E9E9E"/>
<path d="M52.4001 230.954V241.192H230.95L226.538 230.954H52.4001Z" fill="#9E9E9E"/>
<path d="M38.4004 197.245L32.8451 236.564C32.5178 238.905 30.5029 240.593 28.1608 240.593H17.321C14.9788 240.593 12.9633 238.851 12.6366 236.564L7.08064 197.245C7.08064 200.785 14.1071 203.616 22.7136 203.616C31.4284 203.616 38.4004 200.73 38.4004 197.245Z" fill="#9E9E9E"/>
<path d="M34.915 201.438L29.9585 236.236C29.5768 238.849 27.3435 240.755 24.7292 240.755H21.0254C18.4111 240.755 16.1233 238.795 15.796 236.236L10.8395 201.492C11.2205 201.655 11.6568 201.819 12.0922 201.982L16.9943 236.072C17.2672 237.924 18.7921 239.394 20.6443 239.612C20.8076 239.612 20.971 239.667 21.1343 239.667H24.838C25.0558 239.667 25.2742 239.667 25.492 239.612C27.2347 239.34 28.6507 237.924 28.9236 236.127L33.7712 201.982C34.1522 201.764 34.534 201.601 34.915 201.438Z" fill="#191919"/>
<path d="M29.8486 202.963L25.382 239.613L25.3276 240.103C25.2732 240.375 25.0554 240.593 24.7288 240.593C24.7288 240.593 24.6744 240.593 24.6199 240.593C24.2933 240.539 24.0749 240.266 24.1293 239.94L24.1838 239.613L28.5959 203.181C29.0321 203.126 29.4131 203.017 29.8486 202.963Z" fill="#191919"/>
<path d="M21.2423 240.593C21.2423 240.593 21.1879 240.593 21.1335 240.593C20.8606 240.593 20.5884 240.376 20.534 240.103L20.4795 239.613L16.0674 203.018C16.4491 203.126 16.8846 203.181 17.2657 203.236L21.6778 239.613L21.7323 239.94C21.7867 240.267 21.5145 240.539 21.2423 240.593Z" fill="#191919"/>
<path d="M38.9995 197.244C38.9995 198.878 37.4746 200.348 34.9691 201.492C34.5874 201.655 34.1519 201.818 33.7157 201.982C32.5718 202.363 31.2647 202.744 29.8486 203.017C29.4676 203.125 29.0314 203.125 28.6503 203.234C26.9621 203.506 25.1098 203.615 23.2032 203.67C23.0399 203.67 22.931 203.67 22.7677 203.67C22.5499 203.67 22.3322 203.67 22.1138 203.67C20.4255 203.67 18.7917 203.506 17.2661 203.289C16.8851 203.234 16.504 203.18 16.0678 203.071C14.5973 202.799 13.2357 202.472 11.983 202.036C11.5468 201.873 11.1113 201.709 10.7303 201.546C8.0608 200.402 6.48144 198.878 6.48144 197.244C6.48144 197.081 6.48144 196.972 6.53588 196.862C7.08094 193.541 14.1074 190.927 22.7133 190.927C31.3191 190.927 38.3456 193.596 38.8906 196.862C38.9451 196.972 38.9995 197.081 38.9995 197.244Z" fill="#191919"/>
<path d="M23.4766 239.504C23.4766 239.558 23.4766 239.612 23.4766 239.612C23.4221 239.885 23.2037 240.048 22.9315 240.048C22.6593 240.048 22.4415 239.83 22.3871 239.612C22.3871 239.558 22.3871 239.558 22.3871 239.504L22.1694 203.779C22.1694 203.67 22.1694 203.67 22.2238 203.562C22.4416 203.562 22.6593 203.562 22.8771 203.562C23.0404 203.562 23.2037 203.562 23.3132 203.562C23.3132 203.616 23.3677 203.67 23.3677 203.779L23.4766 239.504Z" fill="#191919"/>
<path d="M22.877 202.419C19.4454 202.31 16.2867 201.82 13.7261 200.949L4.63027 162.828H13.3994L22.877 202.419Z" fill="#9E9E9E"/>
<path d="M14.543 167.62H10.9481C10.6752 167.62 10.4574 167.402 10.4574 167.13C10.4574 166.857 10.6752 166.64 10.9481 166.64H14.3253L14.543 167.62Z" fill="white"/>
<path d="M15.5244 171.703H11.9295C11.6573 171.703 11.4396 171.486 11.4396 171.214C11.4396 170.941 11.6573 170.724 11.9295 170.724H15.3067L15.5244 171.703Z" fill="white"/>
<path d="M16.5044 175.735H12.9095C12.6373 175.735 12.4196 175.518 12.4196 175.246C12.4196 174.973 12.6373 174.755 12.9095 174.755H16.2867L16.5044 175.735Z" fill="white"/>
<path d="M17.4849 179.818H13.89C13.6171 179.818 13.3993 179.6 13.3993 179.328C13.3993 179.056 13.6171 178.838 13.89 178.838H17.2664L17.4849 179.818Z" fill="white"/>
<path d="M18.4102 183.849H14.8153C14.5424 183.849 14.3246 183.631 14.3246 183.359C14.3246 183.086 14.5424 182.868 14.8153 182.868H18.1924L18.4102 183.849Z" fill="white"/>
<path d="M19.3916 187.877H15.96C15.6878 187.877 15.4701 187.66 15.4701 187.387C15.4701 187.115 15.6878 186.897 15.96 186.897H19.1738L19.3916 187.877Z" fill="white"/>
<path d="M20.3711 191.963H16.7762C16.504 191.963 16.2863 191.745 16.2863 191.473C16.2863 191.2 16.504 190.982 16.7762 190.982H20.1533L20.3711 191.963Z" fill="white"/>
<path d="M21.3516 195.993H17.7567C17.4838 195.993 17.266 195.775 17.266 195.503C17.266 195.23 17.4838 195.013 17.7567 195.013H21.1331L21.3516 195.993Z" fill="white"/>
<path d="M22.2783 200.023C22.2239 200.023 22.1687 200.023 22.1687 200.023H18.5194C18.2472 200.023 18.0295 199.805 18.0295 199.532C18.0295 199.26 18.2472 199.042 18.5194 199.042H22.1143L22.2783 200.023Z" fill="white"/>
<path d="M29.9575 176.824C29.9575 176.932 29.9575 177.096 29.9575 177.205L26.7988 202.255C25.5454 202.364 24.2382 202.473 22.8766 202.473L24.4022 176.66C24.5111 175.244 25.7094 174.1 27.1798 174.1C28.7048 174.046 29.9575 175.299 29.9575 176.824Z" fill="#404040"/>
</svg>
