<svg version="1.1" viewBox="0.0 0.0 1440.0 696.0" fill="none" stroke="none" stroke-linecap="square" stroke-miterlimit="10" xmlns:xlink="http://www.w3.org/1999/xlink" xmlns="http://www.w3.org/2000/svg"><clipPath id="p.0"><path d="m0 0l1440.0 0l0 696.0l-1440.0 0l0 -696.0z" clip-rule="nonzero"/></clipPath><g clip-path="url(#p.0)"><path fill="#ffffff" d="m0 0l1440.0 0l0 696.0l-1440.0 0z" fill-rule="evenodd"/><path fill="#000000" fill-opacity="0.0714" d="m1024.6919 364.94467c-16.032593 0 -32.38208 2.2790527 -48.647705 7.0655212c-89.67517 26.854553 -142.42883 121.48398 -117.7182 211.2337c20.399597 75.62805 88.06262 124.74646 162.5628 124.74646c16.018555 0 32.349365 -2.2697754 48.601074 -7.032898c91.888916 -24.859802 144.71716 -119.41931 117.788086 -211.23373c-20.455566 -75.614075 -88.104614 -124.77905 -162.58606 -124.77905z" fill-rule="evenodd"/><path fill="#000000" fill-opacity="0.0" d="m975.7478 391.83627l322.73462 0m-322.66003 66.591064l333.3888 0m-333.3888 67.178314l391.61414 0m-391.61414 66.586426l327.09705 0m-262.3562 66.884705l252.443 0m-284.85303 -297.7956l0 242.30615m66.591064 -171.05911l0 244.1611m64.591675 -324.804l0 369.19644m65.25354 -374.5981l0 343.29733m65.92456 -305.8585l0 337.15927m64.66626 -369.19644l0 369.19644" fill-rule="evenodd"/><path stroke="#d9d9d9" stroke-width="1.5826771653543308" stroke-miterlimit="15.875" stroke-linecap="butt" d="m975.7478 391.83627l322.73462 0m-322.66003 66.591064l333.3888 0m-333.3888 67.178314l391.61414 0m-391.61414 66.586426l327.09705 0m-262.3562 66.884705l252.443 0m-284.85303 -297.7956l0 242.30615m66.591064 -171.05911l0 244.1611m64.591675 -324.804l0 369.19644m65.25354 -374.5981l0 343.29733m65.92456 -305.8585l0 337.15927m64.66626 -369.19644l0 369.19644" fill-rule="evenodd"/><path fill="#000000" fill-opacity="0.0714" d="m474.25262 331.24323l0 0c1.2583618 5.695282 2.665863 11.3905945 4.2924194 16.941376l177.7937 143.75714c5.7698975 0.517334 11.614319 0.74105835 17.45874 0.74105835l-199.54486 -161.43958z" fill-rule="evenodd"/><path fill="#000000" fill-opacity="0.0714" d="m482.24567 219.59175c-1.2583923 3.4768372 -2.4421692 7.0282288 -3.551422 10.579636l293.0651 237.05829c3.1785278 -1.7757263 6.4363403 -3.7005615 9.544983 -5.699951l-299.05865 -241.93797z" fill-rule="evenodd"/><path fill="#000000" fill-opacity="0.0714" d="m658.4849 86.71084c-2.2184448 0.1491394 -4.5114746 0.36819458 -6.734558 0.5919037c-2.58667 0.2237091 -5.2525635 0.59189606 -7.9137573 0.96009064l232.17395 187.856c-0.29833984 -4.8843384 -0.8156128 -9.768677 -1.4821167 -14.648346l-216.04352 -174.75964z" fill-rule="evenodd"/><path fill="#000000" fill-opacity="0.0714" d="m766.5107 108.76056l63.850647 51.639786c-17.537964 -21.378311 -39.289124 -38.916267 -63.850647 -51.639786z" fill-rule="evenodd"/><path fill="#000000" fill-opacity="0.0714" d="m469.96478 288.3276c-0.07458496 4.5860596 0.06991577 9.176758 0.36819458 13.762817l232.76584 188.36868c4.5114746 -0.73635864 9.097534 -1.5519714 13.539124 -2.5120544l-246.67316 -199.61945z" fill-rule="evenodd"/><path fill="#000000" fill-opacity="0.0714" d="m495.3422 190.812c-1.7011414 3.1086426 -3.332367 6.2871857 -4.8843384 9.470398l308.0117 249.1899c2.8103638 -2.1485596 5.5461426 -4.4415894 8.212036 -6.734619l-311.3394 -251.92567z" fill-rule="evenodd"/><path fill="#000000" fill-opacity="0.0714" d="m473.36707 251.77847c-0.6664734 3.9195862 -1.3329468 7.918396 -1.8502808 11.912567l268.87177 217.52094c3.9195557 -1.3329468 7.620117 -2.7358093 11.320679 -4.29245l-278.34216 -225.14105z" fill-rule="evenodd"/><path fill="#000000" fill-opacity="0.0714" d="m690.81635 86.859985l176.7591 143.01608c-1.9248657 -6.436325 -4.2178955 -12.72818 -6.809204 -18.940796l-149.96973 -121.3395c-6.5855103 -1.2583694 -13.245544 -2.1438904 -19.980164 -2.7357864z" fill-rule="evenodd"/><path fill="#000000" fill-opacity="0.0714" d="m495.04398 387.39987c25.675385 46.536377 68.585846 81.23477 119.48923 96.69876l-119.48923 -96.69876z" fill-rule="evenodd"/><path fill="#000000" fill-opacity="0.0714" d="m618.5335 93.66459c-4.0733643 1.0346603 -8.067505 2.2930298 -12.061707 3.7005386l268.42432 217.15273c0.5220337 -4.14328 0.89019775 -8.286591 1.1838379 -12.429901l-257.54645 -208.42337z" fill-rule="evenodd"/><path fill="#000000" fill-opacity="0.0714" d="m532.77686 142.42471c-2.512085 2.3675995 -4.9542847 4.8843536 -7.3964233 7.3964233l315.1844 255.03433c1.9994507 -2.8849182 3.9242554 -5.8444214 5.774536 -8.803925l-313.5625 -253.62683z" fill-rule="evenodd"/><path fill="#000000" fill-opacity="0.0714" d="m585.23755 106.09465c-3.4022217 1.6265564 -6.809143 3.332344 -10.136841 5.1779556l292.6922 236.90912c1.1837769 -3.700531 2.0739746 -7.3265076 3.0340576 -11.022369l-285.58942 -231.06471z" fill-rule="evenodd"/><path fill="#000000" fill-opacity="0.0714" d="m512.2838 165.21083c-2.143921 2.740448 -4.2178955 5.550812 -6.1427307 8.361176l315.18906 255.03432c2.2930298 -2.5167236 4.6606445 -5.177948 6.8790894 -7.7692566l-315.9254 -255.62624z" fill-rule="evenodd"/><path fill="#000000" fill-opacity="0.0714" d="m556.97516 122.51891c-2.9595337 2.0739822 -5.849121 4.2178726 -8.73407 6.4409866l307.8626 249.11069c1.6265259 -3.2531433 3.1086426 -6.5109253 4.5161133 -9.838593l-303.64465 -245.71307z" fill-rule="evenodd"/><path fill="#b45f06" d="m676.8087 236.72214c-3.9569092 0 -8.067566 1.2350616 -11.903259 2.6192627c-13.688293 4.9589233 -27.376526 11.246109 -37.807068 21.382965c-10.355896 10.72879 -19.234375 22.711273 -26.560913 35.733063c-19.830994 33.519257 -36.255005 69.91876 -63.999756 97.36987c-11.688843 11.539734 -25.008942 21.084686 -38.841705 29.88861l71.321625 71.177155l42.691345 -60.37381c7.620178 -9.838593 14.280212 -22.860382 24.19336 -30.410614c6.1427 -4.660614 13.170959 -8.286591 19.31366 -12.798065c8.431091 -6.8790894 16.051208 -14.648376 22.711243 -23.233246c8.803955 -10.505066 15.613098 -25.078857 27.45111 -32.62909c0.36816406 -0.29360962 0.8109741 -0.44274902 1.3329468 -0.44274902c0.517334 0.22372437 1.034668 0.517334 1.3282471 1.034668c2.4655151 2.6752014 4.9868774 3.7704468 7.4104004 3.7704468c7.9883423 0 14.942017 -11.903259 15.454651 -18.712433l1.7756958 -23.15866c1.2584229 -10.505066 -6.068115 -20.124603 -16.573181 -21.75116c2.143921 -8.8785095 -3.3323364 -17.831573 -12.1362915 -20.199173c-0.8109131 -0.0745697 -1.6265259 -0.3728485 -2.2930298 -0.7410431c-0.517334 -0.29362488 -1.034668 -0.7410431 -1.4074707 -1.1838074l-5.9889526 -6.734604c-3.7005005 -4.1432953 -7.624756 -8.431076 -12.951843 -9.987732c-1.4681396 -0.43344116 -2.9828491 -0.6198578 -4.520813 -0.6198578z" fill-rule="evenodd"/><path fill="#000000" fill-opacity="0.0" d="m569.01764 494.89307l42.691345 -60.37381c7.620178 -9.838593 14.280212 -22.860382 24.19336 -30.410614c6.1427 -4.660614 13.170959 -8.286591 19.31366 -12.798065c8.431091 -6.8790894 16.051208 -14.648376 22.711243 -23.233246c8.803955 -10.505066 15.613098 -25.078857 27.45111 -32.62909c0.36816406 -0.29360962 0.8109741 -0.44274902 1.3329468 -0.44274902c0.517334 0.22372437 1.034668 0.517334 1.3282471 1.034668c10.579651 11.469818 22.198608 -6.0634766 22.865051 -14.941986l1.7756958 -23.15866c1.2584229 -10.505066 -6.068115 -20.124603 -16.573181 -21.75116c2.143921 -8.8785095 -3.3323364 -17.831573 -12.1362915 -20.199173c-0.8109131 -0.0745697 -1.6265259 -0.3728485 -2.2930298 -0.7410431c-0.517334 -0.29362488 -1.034668 -0.7410431 -1.4074707 -1.1838074l-5.9889526 -6.734604c-3.7005005 -4.1432953 -7.624756 -8.431076 -12.951843 -9.987732c-5.2525635 -1.5519867 -11.096985 0.0745697 -16.424072 1.9994049c-13.688293 4.9589233 -27.376526 11.246109 -37.807068 21.382965c-10.355896 10.72879 -19.234375 22.711273 -26.560913 35.733063c-19.830994 33.519257 -36.255005 69.91876 -63.999756 97.36987c-11.688843 11.539734 -25.008942 21.084686 -38.841705 29.88861" fill-rule="evenodd"/><path stroke="#000000" stroke-width="1.5826771653543308" stroke-miterlimit="15.875" stroke-linecap="butt" d="m569.01764 494.89307l42.691345 -60.37381c7.620178 -9.838593 14.280212 -22.860382 24.19336 -30.410614c6.1427 -4.660614 13.170959 -8.286591 19.31366 -12.798065c8.431091 -6.8790894 16.051208 -14.648376 22.711243 -23.233246c8.803955 -10.505066 15.613098 -25.078857 27.45111 -32.62909c0.36816406 -0.29360962 0.8109741 -0.44274902 1.3329468 -0.44274902c0.517334 0.22372437 1.034668 0.517334 1.3282471 1.034668c10.579651 11.469818 22.198608 -6.0634766 22.865051 -14.941986l1.7756958 -23.15866c1.2584229 -10.505066 -6.068115 -20.124603 -16.573181 -21.75116c2.143921 -8.8785095 -3.3323364 -17.831573 -12.1362915 -20.199173c-0.8109131 -0.0745697 -1.6265259 -0.3728485 -2.2930298 -0.7410431c-0.517334 -0.29362488 -1.034668 -0.7410431 -1.4074707 -1.1838074l-5.9889526 -6.734604c-3.7005005 -4.1432953 -7.624756 -8.431076 -12.951843 -9.987732c-5.2525635 -1.5519867 -11.096985 0.0745697 -16.424072 1.9994049c-13.688293 4.9589233 -27.376526 11.246109 -37.807068 21.382965c-10.355896 10.72879 -19.234375 22.711273 -26.560913 35.733063c-19.830994 33.519257 -36.255005 69.91876 -63.999756 97.36987c-11.688843 11.539734 -25.008942 21.084686 -38.841705 29.88861" fill-rule="evenodd"/><path fill="#000000" fill-opacity="0.0" d="m716.3262 276.4074c0.2982788 14.131012 -4.5114746 27.819275 -13.6137085 38.697205c-2.8849487 3.4022522 -7.2472534 6.8790894 -11.465149 5.4016724c-2.8849487 -1.1838074 -4.9589233 -3.775116 -5.4016724 -6.809204c-0.37286377 -3.0340576 -0.22369385 -6.138031 0.44274902 -9.097534c1.034668 -5.9190063 5.4762573 -18.796326 0.517334 -26.710083" fill-rule="evenodd"/><path stroke="#000000" stroke-width="1.5826771653543308" stroke-linejoin="round" stroke-linecap="round" d="m716.3262 276.4074c0.2982788 14.131012 -4.5114746 27.819275 -13.6137085 38.697205c-2.8849487 3.4022522 -7.2472534 6.8790894 -11.465149 5.4016724c-2.8849487 -1.1838074 -4.9589233 -3.775116 -5.4016724 -6.809204c-0.37286377 -3.0340576 -0.22369385 -6.138031 0.44274902 -9.097534c1.034668 -5.9190063 5.4762573 -18.796326 0.517334 -26.710083" fill-rule="evenodd"/><path fill="#000000" fill-opacity="0.0" d="m672.973 260.20706c5.3969727 3.1039734 9.987671 7.470978 13.240845 12.798065c1.3329468 2.7358093 3.0340576 5.252533 4.9588623 7.6201477c1.994751 2.4421692 5.1033936 3.5513916 8.137512 2.8849182c3.4768066 -1.1092224 5.1033325 -5.1033936 5.5507812 -8.72937c0.88549805 -7.396393 -1.2583618 -14.797485 -5.9190063 -20.641922" fill-rule="evenodd"/><path stroke="#000000" stroke-width="1.5826771653543308" stroke-linejoin="round" stroke-linecap="round" d="m672.973 260.20706c5.3969727 3.1039734 9.987671 7.470978 13.240845 12.798065c1.3329468 2.7358093 3.0340576 5.252533 4.9588623 7.6201477c1.994751 2.4421692 5.1033936 3.5513916 8.137512 2.8849182c3.4768066 -1.1092224 5.1033325 -5.1033936 5.5507812 -8.72937c0.88549805 -7.396393 -1.2583618 -14.797485 -5.9190063 -20.641922" fill-rule="evenodd"/><path fill="#000000" fill-opacity="0.0" d="m728.53705 318.7306c-1.6312256 5.620697 -5.6254272 10.281342 -10.87793 12.87265c-1.3329468 0.74102783 -2.8849487 1.1092224 -4.4369507 1.034668c-3.2577515 -0.88552856 -5.699951 -3.551422 -6.291809 -6.804535c-1.3329468 -4.4415894 0.8156128 -16.205017 2.3676147 -20.572021c-0.07458496 0.4474182 -2.3676147 7.8438416 -2.5167847 8.14212" fill-rule="evenodd"/><path stroke="#000000" stroke-width="1.5826771653543308" stroke-linejoin="round" stroke-linecap="round" d="m728.53705 318.7306c-1.6312256 5.620697 -5.6254272 10.281342 -10.87793 12.87265c-1.3329468 0.74102783 -2.8849487 1.1092224 -4.4369507 1.034668c-3.2577515 -0.88552856 -5.699951 -3.551422 -6.291809 -6.804535c-1.3329468 -4.4415894 0.8156128 -16.205017 2.3676147 -20.572021c-0.07458496 0.4474182 -2.3676147 7.8438416 -2.5167847 8.14212" fill-rule="evenodd"/><path fill="#e69138" d="m697.9773 263.339c-1.9761353 0 -3.7191772 1.6265564 -4.6606445 3.3789673c-1.552002 2.8103638 -1.8502808 6.212616 -0.8109741 9.321259c0.29364014 0.88549805 0.8109741 1.7011108 1.552002 2.2930298c0.960083 0.80163574 2.1252441 1.1838074 3.2904053 1.1838074c1.5286865 0 3.057373 -0.6618347 4.106018 -1.9248657c2.2976685 -2.5120544 1.9993896 -7.8391724 0.6664429 -10.87323c-0.5918579 -1.6312256 -1.920166 -2.8849487 -3.5513916 -3.332367c-0.20037842 -0.03262329 -0.39611816 -0.04660034 -0.5918579 -0.04660034z" fill-rule="evenodd"/><path fill="#e69138" d="m704.9123 299.92493c-0.43811035 0 -0.8762207 0.07458496 -1.3096313 0.23303223c-3.7005615 0.960083 -6.0681763 4.4415894 -8.067566 7.694702c-1.034668 1.4075012 -1.7756958 2.9595032 -2.1438599 4.6606445c-0.44281006 1.6265564 0.14910889 3.4022522 1.4820557 4.516144c0.64782715 0.46606445 1.3702393 0.6664734 2.1159058 0.6664734c1.7244263 0 3.5700684 -1.0579834 4.9123535 -2.297699c2.3675537 -2.2184448 10.798645 -13.02179 4.1432495 -15.314819c-0.37750244 -0.10253906 -0.7550049 -0.15847778 -1.1325073 -0.15847778z" fill-rule="evenodd"/><path fill="#e69138" d="m723.03284 314.56396c-1.6638794 0 -3.2997437 0.61987305 -4.5581055 1.7244568c-1.6312256 1.6265564 -2.9595337 3.625946 -3.8496704 5.7698364c-0.960083 1.552002 -1.477417 3.4022827 -1.6265869 5.252533c-0.14910889 1.8502808 0.8855591 3.6259766 2.661255 4.516144c0.42407227 0.14450073 0.84820557 0.2144165 1.2676392 0.2144165c2.0880127 0 4.110718 -1.6731873 5.466919 -3.3976135c2.3676147 -2.9595032 8.953125 -11.469818 2.6658936 -13.762848c-0.6664429 -0.21438599 -1.3469238 -0.31692505 -2.0273438 -0.31692505z" fill-rule="evenodd"/><path fill="#000000" fill-opacity="0.0" d="m705.8957 334.85635c-2.5167236 -7.102783 -2.2184448 -14.867401 0.960083 -21.75116" fill-rule="evenodd"/><path stroke="#000000" stroke-width="1.5826771653543308" stroke-linejoin="round" stroke-linecap="round" d="m705.8957 334.85635c-2.5167236 -7.102783 -2.2184448 -14.867401 0.960083 -21.75116" fill-rule="evenodd"/><path fill="#000000" fill-opacity="0.0" d="m639.97107 356.16476c8.734009 -1.552002 16.722351 -6.0634766 22.566772 -12.798096c5.8444214 -6.734619 10.803345 -14.1310425 14.797485 -22.049438" fill-rule="evenodd"/><path stroke="#000000" stroke-width="1.5826771653543308" stroke-linejoin="round" stroke-linecap="round" d="m639.97107 356.16476c8.734009 -1.552002 16.722351 -6.0634766 22.566772 -12.798096c5.8444214 -6.734619 10.803345 -14.1310425 14.797485 -22.049438" fill-rule="evenodd"/><path fill="#ffffff" d="m763.0117 140.93687c-7.9883423 2.740448 -15.757629 6.21727 -23.154053 10.36058l23.154053 -10.36058z" fill-rule="evenodd"/><path fill="#000000" fill-opacity="0.0" d="m739.85767 151.29745c7.3964233 -4.1433105 15.16571 -7.6201324 23.154053 -10.36058" fill-rule="evenodd"/><path stroke="#000000" stroke-width="1.5826771653543308" stroke-linejoin="round" stroke-linecap="round" d="m739.85767 151.29745c7.3964233 -4.1433105 15.16571 -7.6201324 23.154053 -10.36058" fill-rule="evenodd"/><path fill="#ffffff" d="m766.8614 169.12901l-12.746826 1.9714508l0 0c4.2644653 -0.6524811 8.519653 -1.3003082 12.746826 -1.9714508zm-12.746826 1.9714508c-2.7544556 0.42411804 -5.50885 0.8482361 -8.267944 1.2816772l8.267944 -1.2816772z" fill-rule="evenodd"/><path fill="#000000" fill-opacity="0.0" d="m745.8466 172.38214c7.032898 -1.1092377 14.061096 -2.1438904 21.01477 -3.253128" fill-rule="evenodd"/><path stroke="#000000" stroke-width="1.5826771653543308" stroke-linejoin="round" stroke-linecap="round" d="m745.8466 172.38214c7.032898 -1.1092377 14.061096 -2.1438904 21.01477 -3.253128" fill-rule="evenodd"/><path fill="#ffffff" d="m745.8466 194.87434l21.01477 5.476227c-6.8790894 -2.1485443 -13.911987 -3.994156 -21.01477 -5.476227z" fill-rule="evenodd"/><path fill="#000000" fill-opacity="0.0" d="m745.8466 194.87434c7.102783 1.4820709 14.135681 3.3276825 21.01477 5.476227" fill-rule="evenodd"/><path stroke="#000000" stroke-width="1.5826771653543308" stroke-linejoin="round" stroke-linecap="round" d="m745.8466 194.87434c7.102783 1.4820709 14.135681 3.3276825 21.01477 5.476227" fill-rule="evenodd"/><path fill="#ffffff" d="m561.7657 146.4131l23.60608 7.251953c-7.843811 -2.5913239 -15.687622 -5.033493 -23.60608 -7.251953z" fill-rule="evenodd"/><path fill="#000000" fill-opacity="0.0" d="m585.37177 153.66505c-7.843811 -2.5913239 -15.687622 -5.033493 -23.60608 -7.251953" fill-rule="evenodd"/><path stroke="#000000" stroke-width="1.5826771653543308" stroke-linejoin="round" stroke-linecap="round" d="m585.37177 153.66505c-7.843811 -2.5913239 -15.687622 -5.033493 -23.60608 -7.251953" fill-rule="evenodd"/><path fill="#ffffff" d="m574.8481 178.26851c-6.1054077 0 -12.243469 0.38217163 -18.3349 1.141861l0.37286377 0l21.01007 -1.1092377c-1.0159912 -0.018630981 -2.0319824 -0.03262329 -3.0480347 -0.03262329z" fill-rule="evenodd"/><path fill="#000000" fill-opacity="0.0" d="m556.88605 179.41037l-0.37286377 0c7.102783 -0.88552856 14.280151 -1.2583771 21.382935 -1.1092377" fill-rule="evenodd"/><path stroke="#000000" stroke-width="1.5826771653543308" stroke-linejoin="round" stroke-linecap="round" d="m556.88605 179.41037l-0.37286377 0c7.102783 -0.88552856 14.280151 -1.2583771 21.382935 -1.1092377" fill-rule="evenodd"/><path fill="#ffffff" d="m579.5227 199.90782l0 0c-7.0282593 1.9201813 -13.907349 4.3623505 -20.567383 7.3218384l20.567383 -7.3218384z" fill-rule="evenodd"/><path fill="#000000" fill-opacity="0.0" d="m558.9553 207.22966c6.660034 -2.959488 13.539124 -5.401657 20.567383 -7.3218384" fill-rule="evenodd"/><path stroke="#000000" stroke-width="1.5826771653543308" stroke-linejoin="round" stroke-linecap="round" d="m558.9553 207.22966c6.660034 -2.959488 13.539124 -5.401657 20.567383 -7.3218384" fill-rule="evenodd"/><path fill="#000000" fill-opacity="0.0" d="m859.3469 555.85876c-4.0687256 -1.3329468 -7.992981 -2.7404175 -11.763428 -4.2178955c-10.286011 -3.7750854 -19.980103 -7.3963623 -31.445251 -8.510254c-17.757019 -1.7011719 -35.961426 -0.96014404 -59.190002 2.4421387c-28.117615 4.0687256 -50.684387 -0.8109741 -66.95929 -14.648376c-9.987732 -8.43573 -20.716492 -24.785217 -20.567383 -40.61737l7.2473145 0.07458496c-0.14447021 12.947205 8.878479 27.446411 17.906128 35.06659c14.722961 12.429871 35.36487 16.796875 61.333862 12.947205c23.825195 -3.4768066 42.546936 -4.213196 60.895813 -2.4375c12.429932 1.2537231 22.492188 4.9542236 33.21631 8.948425c3.7005615 1.3328857 7.624817 2.7404175 11.6189575 4.1432495c8.654785 2.8150635 14.648376 2.1485596 18.274353 -2.2184448" fill-rule="evenodd"/><path stroke="#000000" stroke-width="1.5826771653543308" stroke-linejoin="round" stroke-linecap="round" d="m859.3469 555.85876c-4.0687256 -1.3329468 -7.992981 -2.7404175 -11.763428 -4.2178955c-10.286011 -3.7750854 -19.980103 -7.3963623 -31.445251 -8.510254c-17.757019 -1.7011719 -35.961426 -0.96014404 -59.190002 2.4421387c-28.117615 4.0687256 -50.684387 -0.8109741 -66.95929 -14.648376c-9.987732 -8.43573 -20.716492 -24.785217 -20.567383 -40.61737l7.2473145 0.07458496c-0.14447021 12.947205 8.878479 27.446411 17.906128 35.06659c14.722961 12.429871 35.36487 16.796875 61.333862 12.947205c23.825195 -3.4768066 42.546936 -4.213196 60.895813 -2.4375c12.429932 1.2537231 22.492188 4.9542236 33.21631 8.948425c3.7005615 1.3328857 7.624817 2.7404175 11.6189575 4.1432495c8.654785 2.8150635 14.648376 2.1485596 18.274353 -2.2184448" fill-rule="evenodd"/><path fill="#ffffff" d="m680.8122 463.44778l-18.642517 1.1092529c0 0 3.7704468 27.60025 3.9195557 28.336609c0.13519287 0.74105835 3.0108032 1.9667969 5.420349 1.9667969c0.24700928 0 0.48931885 -0.013977051 0.7223511 -0.041931152c2.58667 -0.22372437 6.5109253 -0.74105835 7.177368 -1.8502808l1.4028931 -29.520447z" fill-rule="evenodd"/><path fill="#000000" fill-opacity="0.0" d="m662.1697 464.55704c0 0 3.7704468 27.60025 3.9195557 28.336609c0.14916992 0.8156128 3.6259766 2.2231445 6.1427 1.9248657c2.58667 -0.22372437 6.5109253 -0.74105835 7.177368 -1.8502808l1.4028931 -29.520447" fill-rule="evenodd"/><path stroke="#000000" stroke-width="1.5826771653543308" stroke-linejoin="round" stroke-linecap="round" d="m662.1697 464.55704c0 0 3.7704468 27.60025 3.9195557 28.336609c0.14916992 0.8156128 3.6259766 2.2231445 6.1427 1.9248657c2.58667 -0.22372437 6.5109253 -0.74105835 7.177368 -1.8502808l1.4028931 -29.520447" fill-rule="evenodd"/><path fill="#ffffff" d="m680.8122 463.44778l-18.642517 1.1092529c0 0 3.7704468 27.60025 3.9195557 28.336609c0.13519287 0.74105835 3.0108032 1.9667969 5.420349 1.9667969c0.24700928 0 0.48931885 -0.013977051 0.7223511 -0.041931152c2.58667 -0.22372437 6.5109253 -0.74105835 7.177368 -1.8502808l1.4028931 -29.520447z" fill-rule="evenodd"/><path fill="#000000" fill-opacity="0.0" d="m662.1697 464.55704c0 0 3.7704468 27.60025 3.9195557 28.336609c0.14916992 0.8156128 3.6259766 2.2231445 6.1427 1.9248657c2.58667 -0.22372437 6.5109253 -0.74105835 7.177368 -1.8502808l1.4028931 -29.520447" fill-rule="evenodd"/><path stroke="#000000" stroke-width="1.5826771653543308" stroke-linejoin="round" stroke-linecap="round" d="m662.1697 464.55704c0 0 3.7704468 27.60025 3.9195557 28.336609c0.14916992 0.8156128 3.6259766 2.2231445 6.1427 1.9248657c2.58667 -0.22372437 6.5109253 -0.74105835 7.177368 -1.8502808l1.4028931 -29.520447" fill-rule="evenodd"/><path fill="#ffffff" d="m671.97095 134.52383c-14.233582 0 -28.299316 7.5315857 -36.217773 20.544067c-12.131592 19.830978 -10.654175 49.9433 9.251404 62.00502c9.111511 5.5414886 19.20642 9.8479 29.184814 9.8479c11.730835 0 23.293884 -5.9562836 32.890076 -22.869705c11.395264 -20.199173 8.43573 -48.465897 -13.464539 -63.039673c-6.6879883 -4.422943 -14.186951 -6.48761 -21.643982 -6.48761z" fill-rule="evenodd"/><path fill="#000000" fill-opacity="0.0" d="m645.0046 217.07292c-19.905579 -12.061722 -21.382996 -42.17404 -9.251404 -62.00502c12.061768 -19.826324 38.403625 -26.929123 57.861755 -14.0564575c21.900269 14.573776 24.859802 42.8405 13.464539 63.039673c-17.756958 31.296127 -42.248596 25.078857 -62.07489 13.021805" fill-rule="evenodd"/><path stroke="#000000" stroke-width="1.5826771653543308" stroke-miterlimit="15.875" stroke-linecap="butt" d="m645.0046 217.07292c-19.905579 -12.061722 -21.382996 -42.17404 -9.251404 -62.00502c12.061768 -19.826324 38.403625 -26.929123 57.861755 -14.0564575c21.900269 14.573776 24.859802 42.8405 13.464539 63.039673c-17.756958 31.296127 -42.248596 25.078857 -62.07489 13.021805" fill-rule="evenodd"/><path fill="#452391" d="m671.97095 134.52383c-14.233582 0 -28.299316 7.5315857 -36.217773 20.544067c-12.131592 19.830978 -10.654175 49.9433 9.251404 62.00502c9.111511 5.5414886 19.20642 9.8479 29.184814 9.8479c11.730835 0 23.293884 -5.9562836 32.890076 -22.869705c11.395264 -20.199173 8.43573 -48.465897 -13.464539 -63.039673c-6.6879883 -4.422943 -14.186951 -6.48761 -21.643982 -6.48761z" fill-rule="evenodd"/><path stroke="#000000" stroke-width="1.5826771653543308" stroke-miterlimit="15.875" stroke-linecap="butt" d="m671.97095 134.52383c-14.233582 0 -28.299316 7.5315857 -36.217773 20.544067c-12.131592 19.830978 -10.654175 49.9433 9.251404 62.00502c9.111511 5.5414886 19.20642 9.8479 29.184814 9.8479c11.730835 0 23.293884 -5.9562836 32.890076 -22.869705c11.395264 -20.199173 8.43573 -48.465897 -13.464539 -63.039673c-6.6879883 -4.422943 -14.186951 -6.48761 -21.643982 -6.48761z" fill-rule="evenodd"/><path fill="#973896" d="m669.47754 132.80873c-0.8249512 0 -1.6591797 0.01864624 -2.498108 0.06524658c-23.233276 1.1838074 -40.17462 22.641342 -38.03076 45.725433l86.492004 -3.1086273c-2.7963867 -22.347733 -20.912292 -42.682053 -45.963135 -42.682053z" fill-rule="evenodd"/><path stroke="#000000" stroke-width="1.5826771653543308" stroke-miterlimit="15.875" stroke-linecap="butt" d="m669.47754 132.80873c-0.8249512 0 -1.6591797 0.01864624 -2.498108 0.06524658c-23.233276 1.1838074 -40.17462 22.641342 -38.03076 45.725433l86.492004 -3.1086273c-2.7963867 -22.347733 -20.912292 -42.682053 -45.963135 -42.682053z" fill-rule="evenodd"/><path fill="#ffffff" d="m671.682 205.69632c-7.0655518 0 -14.424683 1.780365 -20.390259 7.2332916c-17.239685 15.608459 -3.9196167 75.688644 -3.9196167 75.688644c0 0 4.2178955 100.84204 4.2924805 104.69171c0 1.552002 1.7756958 2.7358093 4.287781 3.7704468l-0.44274902 0c0 0 4.0687256 63.557037 4.3670044 65.33273c0.26098633 1.6405334 4.371643 3.574707 9.479675 3.574707c0.64782715 0 1.314331 -0.03262329 1.9854736 -0.09790039c5.9935303 -0.5918884 9.619507 -1.6265564 11.171509 -4.14328l2.0739746 -64.293396c1.552002 -0.5918884 2.6611938 -1.3329468 2.9595337 -1.9994202c0.960083 -2.2184448 9.544922 -183.48898 9.544922 -183.48898l0.07458496 0c0 0 -12.220154 -6.2685547 -25.484314 -6.2685547z" fill-rule="evenodd"/><path fill="#000000" fill-opacity="0.0" d="m697.1663 211.96487c0 0 -28.709473 -14.722931 -45.874573 0.96473694c-17.239685 15.608459 -3.9196167 75.688644 -3.9196167 75.688644c0 0 4.2178955 100.84204 4.2924805 104.69171c0 1.552002 1.7756958 2.7358093 4.287781 3.7704468l-0.44274902 0c0 0 4.0687256 63.557037 4.3670044 65.33273c0.2935791 1.8502502 5.4715576 4.0687256 11.465149 3.4768066c5.9935303 -0.5918884 9.619507 -1.6265564 11.171509 -4.14328l2.0739746 -64.293396c1.552002 -0.5918884 2.6611938 -1.3329468 2.9595337 -1.9994202c0.960083 -2.2184448 9.544922 -183.48898 9.544922 -183.48898" fill-rule="evenodd"/><path stroke="#000000" stroke-width="1.5826771653543308" stroke-linejoin="round" stroke-linecap="round" d="m697.1663 211.96487c0 0 -28.709473 -14.722931 -45.874573 0.96473694c-17.239685 15.608459 -3.9196167 75.688644 -3.9196167 75.688644c0 0 4.2178955 100.84204 4.2924805 104.69171c0 1.552002 1.7756958 2.7358093 4.287781 3.7704468l-0.44274902 0c0 0 4.0687256 63.557037 4.3670044 65.33273c0.2935791 1.8502502 5.4715576 4.0687256 11.465149 3.4768066c5.9935303 -0.5918884 9.619507 -1.6265564 11.171509 -4.14328l2.0739746 -64.293396c1.552002 -0.5918884 2.6611938 -1.3329468 2.9595337 -1.9994202c0.960083 -2.2184448 9.544922 -183.48898 9.544922 -183.48898" fill-rule="evenodd"/><path fill="#ffffff" d="m671.682 205.69632c-7.0655518 0 -14.424683 1.780365 -20.390259 7.2332916c-17.239685 15.608459 -3.9196167 75.688644 -3.9196167 75.688644c0 0 4.2178955 100.84204 4.2924805 104.69171c0 1.552002 1.7756958 2.7358093 4.287781 3.7704468l-0.44274902 0c0 0 4.0687256 63.557037 4.3670044 65.33273c0.26098633 1.6405334 4.371643 3.574707 9.479675 3.574707c0.64782715 0 1.314331 -0.03262329 1.9854736 -0.09790039c5.9935303 -0.5918884 9.619507 -1.6265564 11.171509 -4.14328l2.0739746 -64.293396c1.552002 -0.5918884 2.6611938 -1.3329468 2.9595337 -1.9994202c0.960083 -2.2184448 9.544922 -183.48898 9.544922 -183.48898l0.07458496 0c0 0 -12.220154 -6.2685547 -25.484314 -6.2685547z" fill-rule="evenodd"/><path stroke="#000000" stroke-width="1.5826771653543308" stroke-linejoin="round" stroke-linecap="round" d="m671.682 205.69632c-7.0655518 0 -14.424683 1.780365 -20.390259 7.2332916c-17.239685 15.608459 -3.9196167 75.688644 -3.9196167 75.688644c0 0 4.2178955 100.84204 4.2924805 104.69171c0 1.552002 1.7756958 2.7358093 4.287781 3.7704468l-0.44274902 0c0 0 4.0687256 63.557037 4.3670044 65.33273c0.26098633 1.6405334 4.371643 3.574707 9.479675 3.574707c0.64782715 0 1.314331 -0.03262329 1.9854736 -0.09790039c5.9935303 -0.5918884 9.619507 -1.6265564 11.171509 -4.14328l2.0739746 -64.293396c1.552002 -0.5918884 2.6611938 -1.3329468 2.9595337 -1.9994202c0.960083 -2.2184448 9.544922 -183.48898 9.544922 -183.48898l0.07458496 0c0 0 -12.220154 -6.2685547 -25.484314 -6.2685547z" fill-rule="evenodd"/><path fill="#ffffff" d="m668.2378 298.825l0 0.05593872l0 0c0.02331543 -0.01864624 0.04663086 -0.03729248 0.069885254 -0.05593872zm0 0.05593872c-7.7366333 5.6766357 -16.862183 6.016876 -18.950134 6.016876c-0.28430176 0 -0.43811035 -0.0046691895 -0.43811035 -0.0046691895l0 0l3.6259766 90.043365l3.1086426 3.551422l0.8156128 12.355316l3.5513916 51.569885c0.44281006 3.2531128 11.465149 3.4768066 11.465149 3.4768066l0.6665039 -66.21823l-3.7751465 -0.1491394l-0.069885254 -100.64163z" fill-rule="evenodd"/><path fill="#000000" fill-opacity="0.0" d="m668.2378 298.825l0.069885254 100.69757l3.7751465 0.1491394l-0.6665039 66.21823c0 0 -11.022339 -0.22369385 -11.465149 -3.4768066l-3.5513916 -51.569885l-0.8156128 -12.355316l-3.1086426 -3.551422l-3.6259766 -90.043365c0 0 10.654236 0.44277954 19.45813 -6.0681458" fill-rule="evenodd"/><path stroke="#000000" stroke-width="1.5826771653543308" stroke-linejoin="round" stroke-linecap="round" d="m668.2378 298.825l0.069885254 100.69757l3.7751465 0.1491394l-0.6665039 66.21823c0 0 -11.022339 -0.22369385 -11.465149 -3.4768066l-3.5513916 -51.569885l-0.8156128 -12.355316l-3.1086426 -3.551422l-3.6259766 -90.043365c0 0 10.654236 0.44277954 19.45813 -6.0681458" fill-rule="evenodd"/><path fill="#ffffff" d="m671.682 205.69632c-7.0655518 0 -14.424683 1.780365 -20.390259 7.2332916c-17.239685 15.608459 -3.9196167 75.688644 -3.9196167 75.688644c0 0 4.2178955 100.84204 4.2924805 104.69171c0 1.552002 1.7756958 2.7358093 4.287781 3.7704468l-0.44274902 0c0 0 4.0687256 63.557037 4.3670044 65.33273c0.26098633 1.6405334 4.371643 3.574707 9.479675 3.574707c0.64782715 0 1.314331 -0.03262329 1.9854736 -0.09790039c5.9935303 -0.5918884 9.619507 -1.6265564 11.171509 -4.14328l2.0739746 -64.293396c1.552002 -0.5918884 2.6611938 -1.3329468 2.9595337 -1.9994202c0.960083 -2.2184448 9.544922 -183.48898 9.544922 -183.48898l0.07458496 0c0 0 -12.220154 -6.2685547 -25.484314 -6.2685547z" fill-rule="evenodd"/><path fill="#000000" fill-opacity="0.0" d="m697.1663 211.96487c0 0 -28.709473 -14.722931 -45.874573 0.96473694c-17.239685 15.608459 -3.9196167 75.688644 -3.9196167 75.688644c0 0 4.2178955 100.84204 4.2924805 104.69171c0 1.552002 1.7756958 2.7358093 4.287781 3.7704468l-0.44274902 0c0 0 4.0687256 63.557037 4.3670044 65.33273c0.2935791 1.8502502 5.4715576 4.0687256 11.465149 3.4768066c5.9935303 -0.5918884 9.619507 -1.6265564 11.171509 -4.14328l2.0739746 -64.293396c1.552002 -0.5918884 2.6611938 -1.3329468 2.9595337 -1.9994202c0.960083 -2.2184448 9.544922 -183.48898 9.544922 -183.48898zm-41.21393 184.97107c0 0 16.42871 6.0634766 28.709473 0.44274902" fill-rule="evenodd"/><path stroke="#000000" stroke-width="1.5826771653543308" stroke-linejoin="round" stroke-linecap="round" d="m697.1663 211.96487c0 0 -28.709473 -14.722931 -45.874573 0.96473694c-17.239685 15.608459 -3.9196167 75.688644 -3.9196167 75.688644c0 0 4.2178955 100.84204 4.2924805 104.69171c0 1.552002 1.7756958 2.7358093 4.287781 3.7704468l-0.44274902 0c0 0 4.0687256 63.557037 4.3670044 65.33273c0.2935791 1.8502502 5.4715576 4.0687256 11.465149 3.4768066c5.9935303 -0.5918884 9.619507 -1.6265564 11.171509 -4.14328l2.0739746 -64.293396c1.552002 -0.5918884 2.6611938 -1.3329468 2.9595337 -1.9994202c0.960083 -2.2184448 9.544922 -183.48898 9.544922 -183.48898zm-41.21393 184.97107c0 0 16.42871 6.0634766 28.709473 0.44274902" fill-rule="evenodd"/><path fill="#000000" fill-opacity="0.0" d="m654.76855 392.86255c1.1092529 0.5220032 0.2982788 2.297699 -0.8109131 1.7756958l-0.9647827 -0.44274902c-1.1837769 -0.517334 -0.36816406 -2.2930298 0.8156128 -1.7756958zm-1.1091919 -21.30838c0 0.8156128 -0.3682251 1.4820557 -0.960083 1.5566406c-0.517334 0 -1.034668 -0.6664734 -1.034668 -1.4820862l-0.07458496 -1.5519714c-0.07458496 -0.8156128 0.36816406 -1.552002 0.88549805 -1.552002c0.59191895 0 1.034668 0.5918884 1.1092529 1.477417zm-0.14916992 12.429901c0 0.52197266 -0.21905518 0.9647522 -0.59191895 0.9647522c-0.36816406 0.07455444 -0.6618042 -0.37286377 -0.6618042 -0.89019775l-0.074523926 -1.034668c0 -0.517334 0.21905518 -0.960083 0.5918579 -0.960083c0.3682251 -0.07455444 0.6665039 0.36819458 0.6665039 0.88552856l0.069885254 1.034668z" fill-rule="evenodd"/><path stroke="#000000" stroke-width="1.5826771653543308" stroke-miterlimit="15.875" stroke-linecap="butt" d="m654.76855 392.86255c1.1092529 0.5220032 0.2982788 2.297699 -0.8109131 1.7756958l-0.9647827 -0.44274902c-1.1837769 -0.517334 -0.36816406 -2.2930298 0.8156128 -1.7756958zm-1.1091919 -21.30838c0 0.8156128 -0.3682251 1.4820557 -0.960083 1.5566406c-0.517334 0 -1.034668 -0.6664734 -1.034668 -1.4820862l-0.07458496 -1.5519714c-0.07458496 -0.8156128 0.36816406 -1.552002 0.88549805 -1.552002c0.59191895 0 1.034668 0.5918884 1.1092529 1.477417zm-0.14916992 12.429901c0 0.52197266 -0.21905518 0.9647522 -0.59191895 0.9647522c-0.36816406 0.07455444 -0.6618042 -0.37286377 -0.6618042 -0.89019775l-0.074523926 -1.034668c0 -0.517334 0.21905518 -0.960083 0.5918579 -0.960083c0.3682251 -0.07455444 0.6665039 0.36819458 0.6665039 0.88552856l0.069885254 1.034668z" fill-rule="evenodd"/><path fill="#000000" fill-opacity="0.0" d="m657.8027 409.2913c0 0 -3.7705078 -1.3329468 -4.8098145 -2.2231445c-0.2935791 -0.36816406 3.7751465 -7.3964233 3.7751465 -7.3964233l1.7011108 0.29364014c0 0 0.22369385 4.217865 0.22369385 5.8490906c0 1.5519714 0.14447021 3.2531128 -0.8901367 3.4022522" fill-rule="evenodd"/><path stroke="#000000" stroke-width="1.5826771653543308" stroke-miterlimit="15.875" stroke-linecap="butt" d="m657.8027 409.2913c0 0 -3.7705078 -1.3329468 -4.8098145 -2.2231445c-0.2935791 -0.36816406 3.7751465 -7.3964233 3.7751465 -7.3964233l1.7011108 0.29364014c0 0 0.22369385 4.217865 0.22369385 5.8490906c0 1.5519714 0.14447021 3.2531128 -0.8901367 3.4022522" fill-rule="evenodd"/><path fill="#000000" d="m656.768 399.67172c0 0 -4.0687256 7.0282593 -3.7751465 7.3964233c0.40081787 0.34490967 1.2024536 0.7503662 2.0413818 1.12323l0 0c0.032592773 0.023284912 0.069885254 0.041931152 0.107177734 0.060577393l0.004638672 -0.013977051l0 0c1.3049927 0.5732422 2.6566162 1.0533142 2.6566162 1.0533142l0 -0.07458496c1.0346069 -0.1491394 0.8901367 -1.8502808 0.8901367 -3.4022522c0 -1.3189697 -0.14447021 -4.320404 -0.20037842 -5.4296265l0 0l0.05126953 -0.1211853l0 0c0 0 -0.018676758 0.03262329 -0.05596924 0.09786987l0 0c-0.009277344 -0.24700928 -0.018615723 -0.39614868 -0.018615723 -0.39614868l-1.7011108 -0.29364014z" fill-rule="evenodd"/><path fill="#99c941" d="m628.05853 170.75558l0 11.465149l87.38214 0l0 -11.465149z" fill-rule="evenodd"/><path stroke="#000000" stroke-width="1.5826771653543308" stroke-miterlimit="15.875" stroke-linecap="butt" d="m628.05853 170.75558l0 11.465149l87.38214 0l0 -11.465149z" fill-rule="evenodd"/><path fill="#b45f06" d="m675.48975 267.47763c-1.3795776 0 -2.7544556 0.21438599 -4.0734253 0.64315796c-3.7005005 1.1838074 -7.102783 2.8849487 -10.281311 5.1080627l-27.157532 17.1651c-4.283081 2.6425781 -9.223389 5.4249573 -14.112366 5.4249573c-1.2723389 0 -2.540039 -0.19107056 -3.7890625 -0.6198425l0 0l8.137451 40.990234c6.3617554 -0.44274902 12.355286 -3.1086426 16.941345 -7.4710083c4.5161743 -4.3670044 8.803955 -9.027618 12.802795 -13.837402c4.5860596 -4.954254 9.544922 -9.470398 14.941956 -13.464539c5.5508423 -3.9941711 11.6189575 -7.694702 15.319519 -13.464569c3.6212769 -5.769867 3.8449707 -14.578461 -1.7756958 -18.498047c-2.1206055 -1.3189697 -4.5394897 -1.9761047 -6.9536743 -1.9761047z" fill-rule="evenodd"/><path fill="#000000" fill-opacity="0.0" d="m616.07605 295.19907c6.0634766 2.0739746 12.504456 -1.477417 17.901428 -4.8051147l27.157532 -17.1651c3.1785278 -2.223114 6.5808105 -3.9242554 10.281311 -5.1080627c3.6259766 -1.1837769 7.694702 -0.73635864 11.0271 1.3329468c5.6206665 3.9195862 5.3969727 12.72818 1.7756958 18.498047c-3.7005615 5.769867 -9.768677 9.470398 -15.319519 13.464569c-5.3970337 3.9941406 -10.355896 8.510284 -14.941956 13.464539c-3.9988403 4.809784 -8.286621 9.470398 -12.802795 13.837402c-4.5860596 4.3623657 -10.57959 7.0282593 -16.941345 7.4710083" fill-rule="evenodd"/><path stroke="#000000" stroke-width="1.5826771653543308" stroke-miterlimit="15.875" stroke-linecap="butt" d="m616.07605 295.19907c6.0634766 2.0739746 12.504456 -1.477417 17.901428 -4.8051147l27.157532 -17.1651c3.1785278 -2.223114 6.5808105 -3.9242554 10.281311 -5.1080627c3.6259766 -1.1837769 7.694702 -0.73635864 11.0271 1.3329468c5.6206665 3.9195862 5.3969727 12.72818 1.7756958 18.498047c-3.7005615 5.769867 -9.768677 9.470398 -15.319519 13.464569c-5.3970337 3.9941406 -10.355896 8.510284 -14.941956 13.464539c-3.9988403 4.809784 -8.286621 9.470398 -12.802795 13.837402c-4.5860596 4.3623657 -10.57959 7.0282593 -16.941345 7.4710083" fill-rule="evenodd"/><path fill="#e69138" d="m679.63306 271.4578c-3.812439 0 -8.943787 2.5214233 -11.395264 4.506836c-2.2231445 1.6265564 -3.6259766 4.217865 -3.9242554 6.9536743c-0.14910889 2.8103638 1.6265869 5.4016724 4.2924194 6.3617554c0.77838135 0.23770142 1.5753174 0.34487915 2.3815918 0.34487915c6.319824 0 13.040466 -6.7206116 13.301453 -12.625641c0.31689453 -4.119995 -1.7990112 -5.541504 -4.655945 -5.541504z" fill-rule="evenodd"/><path fill="#000000" fill-opacity="0.0" d="m275.878 513.3165c3.1832275 10.136902 148.34787 -45.427155 155.96799 -51.93805" fill-rule="evenodd"/><path stroke="#000000" stroke-width="1.5826771653543308" stroke-miterlimit="15.875" stroke-linecap="butt" d="m275.878 513.3165c3.1832275 10.136902 148.34787 -45.427155 155.96799 -51.93805" fill-rule="evenodd"/><path fill="#ffffff" d="m476.70456 418.82693c-4.1106873 0 -7.8438416 1.4494324 -10.011047 5.038147c-2.2930298 3.8450012 -1.8502808 8.5802 -2.8103638 12.947205c-0.7829895 3.849701 -3.8077393 7.9277344 -7.405731 7.9277344c-0.4800415 0 -0.9740906 -0.07455444 -1.4727783 -0.23303223c-1.9993896 -0.5918884 -3.3323364 -2.2930298 -5.177948 -3.183197c-2.0926208 -1.0765991 -3.8217163 -1.552002 -5.257202 -1.552002c-9.302612 0 -6.3897095 19.775055 -9.913147 22.790497l79.24002 120.30014c0.91815186 0.18182373 1.8363037 0.26568604 2.7497559 0.26568604c10.0529785 0 19.350952 -10.351257 17.449402 -20.390259c-1.1091919 -5.8444214 -4.5860596 -13.0963745 0.14916992 -16.498657c1.4307861 -1.0206299 3.1272583 -1.2443848 4.907654 -1.2443848c1.3748779 0 2.7963867 0.13519287 4.1898804 0.13519287c0.7317505 0 1.4494629 -0.03729248 2.1485596 -0.14916992c13.464539 -2.1438599 9.838562 -22.492188 6.4363403 -30.923279c8.803894 -0.14910889 20.422852 -2.5167236 21.30841 -11.320648c0.6664429 -5.8444214 -4.1433105 -10.654205 -8.580261 -14.503876l-36.553284 -32.18164c-9.470398 -8.216705 -19.085297 -16.796936 -24.561523 -28.117584c-1.4075317 -3.0340881 -2.740448 -6.5109253 -5.699951 -8.062897c-0.65249634 -0.34487915 -1.3981934 -0.49868774 -2.1532288 -0.49868774c-2.6752014 0 -5.476227 1.9388123 -4.7258606 4.418274c-3.9708557 -2.92688 -9.381866 -4.963562 -14.256866 -4.963562z" fill-rule="evenodd"/><path fill="#000000" fill-opacity="0.0" d="m434.65634 462.5623c4.0687256 -3.4815063 -0.44274902 -29.301392 15.170349 -21.238495c1.8456116 0.89016724 3.1785583 2.5913086 5.177948 3.183197c4.2178955 1.3329468 7.9883423 -3.3276672 8.8785095 -7.694702c0.960083 -4.3670044 0.517334 -9.102203 2.8103638 -12.947205c4.735199 -7.8438416 16.941406 -5.4762573 24.267914 -0.07458496c-0.9601135 -3.183197 3.9195862 -5.476227 6.8790894 -3.9195862c2.9595032 1.5519714 4.2924194 5.0288086 5.699951 8.062897c5.476227 11.320648 15.0911255 19.900879 24.561523 28.117584l36.553284 32.18164c4.4369507 3.8496704 9.246704 8.659454 8.580261 14.503876c-0.8855591 8.803925 -12.504517 11.171539 -21.30841 11.320648c3.4022217 8.431091 7.0281982 28.779419 -6.4363403 30.923279c-3.7750854 0.59191895 -8.137451 -0.960083 -11.246094 1.2583618c-4.7352295 3.4022827 -1.2583618 10.654236 -0.14916992 16.498657c2.0739746 10.952454 -9.172119 22.273132 -20.199158 20.124573" fill-rule="evenodd"/><path stroke="#000000" stroke-width="1.5826771653543308" stroke-miterlimit="15.875" stroke-linecap="butt" d="m434.65634 462.5623c4.0687256 -3.4815063 -0.44274902 -29.301392 15.170349 -21.238495c1.8456116 0.89016724 3.1785583 2.5913086 5.177948 3.183197c4.2178955 1.3329468 7.9883423 -3.3276672 8.8785095 -7.694702c0.960083 -4.3670044 0.517334 -9.102203 2.8103638 -12.947205c4.735199 -7.8438416 16.941406 -5.4762573 24.267914 -0.07458496c-0.9601135 -3.183197 3.9195862 -5.476227 6.8790894 -3.9195862c2.9595032 1.5519714 4.2924194 5.0288086 5.699951 8.062897c5.476227 11.320648 15.0911255 19.900879 24.561523 28.117584l36.553284 32.18164c4.4369507 3.8496704 9.246704 8.659454 8.580261 14.503876c-0.8855591 8.803925 -12.504517 11.171539 -21.30841 11.320648c3.4022217 8.431091 7.0281982 28.779419 -6.4363403 30.923279c-3.7750854 0.59191895 -8.137451 -0.960083 -11.246094 1.2583618c-4.7352295 3.4022827 -1.2583618 10.654236 -0.14916992 16.498657c2.0739746 10.952454 -9.172119 22.273132 -20.199158 20.124573" fill-rule="evenodd"/><path fill="#000000" fill-opacity="0.0" d="m476.97952 498.3699c-1.1092224 -11.0224 -5.033478 -21.60202 -11.469818 -30.704224c-0.22369385 -0.36819458 -0.74102783 -0.517334 -1.1837769 -0.2982788c-11.096985 6.8091736 -13.762848 23.675995 -5.327118 33.59381c0.74105835 0.88552856 1.9994202 -0.2982788 1.3329468 -1.1838074l-11.763428 -15.314819c-2.4421692 -3.257782 -5.699951 -8.8785095 -10.509735 -8.5849c-4.287781 0.2982788 -5.8444214 5.550812 -4.5114746 9.027649c1.8502502 4.5860596 7.177368 7.1028137 11.096954 9.619537c18.129852 11.465149 37.587982 22.785797 49.868744 40.985565c7.470978 11.0271 11.912567 23.825134 12.947235 37.140564c0.07455444 1.1138916 1.8502502 1.1838379 1.7756958 0.07458496" fill-rule="evenodd"/><path stroke="#000000" stroke-width="1.5826771653543308" stroke-miterlimit="15.875" stroke-linecap="butt" d="m476.97952 498.3699c-1.1092224 -11.0224 -5.033478 -21.60202 -11.469818 -30.704224c-0.22369385 -0.36819458 -0.74102783 -0.517334 -1.1837769 -0.2982788c-11.096985 6.8091736 -13.762848 23.675995 -5.327118 33.59381c0.74105835 0.88552856 1.9994202 -0.2982788 1.3329468 -1.1838074l-11.763428 -15.314819c-2.4421692 -3.257782 -5.699951 -8.8785095 -10.509735 -8.5849c-4.287781 0.2982788 -5.8444214 5.550812 -4.5114746 9.027649c1.8502502 4.5860596 7.177368 7.1028137 11.096954 9.619537c18.129852 11.465149 37.587982 22.785797 49.868744 40.985565c7.470978 11.0271 11.912567 23.825134 12.947235 37.140564c0.07455444 1.1138916 1.8502502 1.1838379 1.7756958 0.07458496" fill-rule="evenodd"/><path fill="#000000" fill-opacity="0.0" d="m1129.5671 161.8831l-166.47308 0l0 95.44502l166.47308 0z" fill-rule="evenodd"/><path stroke="#973896" stroke-width="1.5826771653543308" stroke-miterlimit="15.875" stroke-linecap="butt" d="m1129.5671 161.8831l-166.47308 0l0 95.44502l166.47308 0z" fill-rule="evenodd"/><path fill="#000000" fill-opacity="0.0" d="m956.4383 137.46574l-19.980103 0l0 19.975464l19.980103 0z" fill-rule="evenodd"/><path stroke="#000000" stroke-width="1.041994750656168" stroke-miterlimit="15.875" stroke-linecap="butt" d="m956.4383 137.46574l-19.980103 0l0 19.975464l19.980103 0z" fill-rule="evenodd"/><path fill="#000000" fill-opacity="0.0" d="m987.51117 137.46574l-19.975464 0l0 19.975464l19.975464 0z" fill-rule="evenodd"/><path stroke="#000000" stroke-width="1.041994750656168" stroke-miterlimit="15.875" stroke-linecap="butt" d="m987.51117 137.46574l-19.975464 0l0 19.975464l19.975464 0z" fill-rule="evenodd"/><path fill="#000000" fill-opacity="0.0" d="m1018.5886 137.46574l-19.980103 0l0 19.975464l19.980103 0z" fill-rule="evenodd"/><path stroke="#000000" stroke-width="1.041994750656168" stroke-miterlimit="15.875" stroke-linecap="butt" d="m1018.5886 137.46574l-19.980103 0l0 19.975464l19.980103 0z" fill-rule="evenodd"/><path fill="#000000" fill-opacity="0.0" d="m1049.6615 137.46574l-19.975464 0l0 19.975464l19.975464 0z" fill-rule="evenodd"/><path stroke="#000000" stroke-width="1.041994750656168" stroke-miterlimit="15.875" stroke-linecap="butt" d="m1049.6615 137.46574l-19.975464 0l0 19.975464l19.975464 0z" fill-rule="evenodd"/><path fill="#000000" fill-opacity="0.0" d="m1080.739 137.46574l-19.980103 0l0 19.975464l19.980103 0z" fill-rule="evenodd"/><path stroke="#000000" stroke-width="1.041994750656168" stroke-miterlimit="15.875" stroke-linecap="butt" d="m1080.739 137.46574l-19.980103 0l0 19.975464l19.980103 0z" fill-rule="evenodd"/><path fill="#000000" fill-opacity="0.0" d="m1111.8119 137.46574l-19.975464 0l0 19.975464l19.975464 0z" fill-rule="evenodd"/><path stroke="#000000" stroke-width="1.041994750656168" stroke-miterlimit="15.875" stroke-linecap="butt" d="m1111.8119 137.46574l-19.975464 0l0 19.975464l19.975464 0z" fill-rule="evenodd"/><path fill="#000000" fill-opacity="0.0" d="m956.4383 166.32007l-19.980103 0l0 19.980133l19.980103 0z" fill-rule="evenodd"/><path stroke="#000000" stroke-width="1.041994750656168" stroke-miterlimit="15.875" stroke-linecap="butt" d="m956.4383 166.32007l-19.980103 0l0 19.980133l19.980103 0z" fill-rule="evenodd"/><path fill="#000000" fill-opacity="0.0" d="m987.51117 166.32007l-19.975464 0l0 19.980133l19.975464 0z" fill-rule="evenodd"/><path stroke="#000000" stroke-width="1.041994750656168" stroke-miterlimit="15.875" stroke-linecap="butt" d="m987.51117 166.32007l-19.975464 0l0 19.980133l19.975464 0z" fill-rule="evenodd"/><path fill="#000000" fill-opacity="0.0" d="m1018.5886 166.32007l-19.980103 0l0 19.980133l19.980103 0z" fill-rule="evenodd"/><path stroke="#000000" stroke-width="1.041994750656168" stroke-miterlimit="15.875" stroke-linecap="butt" d="m1018.5886 166.32007l-19.980103 0l0 19.980133l19.980103 0z" fill-rule="evenodd"/><path fill="#000000" fill-opacity="0.0" d="m1049.6615 166.32007l-19.975464 0l0 19.980133l19.975464 0z" fill-rule="evenodd"/><path stroke="#000000" stroke-width="1.041994750656168" stroke-miterlimit="15.875" stroke-linecap="butt" d="m1049.6615 166.32007l-19.975464 0l0 19.980133l19.975464 0z" fill-rule="evenodd"/><path fill="#000000" fill-opacity="0.0" d="m1080.739 166.32007l-19.980103 0l0 19.980133l19.980103 0z" fill-rule="evenodd"/><path stroke="#000000" stroke-width="1.041994750656168" stroke-miterlimit="15.875" stroke-linecap="butt" d="m1080.739 166.32007l-19.980103 0l0 19.980133l19.980103 0z" fill-rule="evenodd"/><path fill="#000000" fill-opacity="0.0" d="m1111.8119 166.32007l-19.975464 0l0 19.980133l19.975464 0z" fill-rule="evenodd"/><path stroke="#000000" stroke-width="1.041994750656168" stroke-miterlimit="15.875" stroke-linecap="butt" d="m1111.8119 166.32007l-19.975464 0l0 19.980133l19.975464 0z" fill-rule="evenodd"/><path fill="#000000" fill-opacity="0.0" d="m956.4383 195.17906l-19.980103 0l0 19.975464l19.980103 0z" fill-rule="evenodd"/><path stroke="#000000" stroke-width="1.041994750656168" stroke-miterlimit="15.875" stroke-linecap="butt" d="m956.4383 195.17906l-19.980103 0l0 19.975464l19.980103 0z" fill-rule="evenodd"/><path fill="#000000" fill-opacity="0.0" d="m987.51117 195.17906l-19.975464 0l0 19.975464l19.975464 0z" fill-rule="evenodd"/><path stroke="#000000" stroke-width="1.041994750656168" stroke-miterlimit="15.875" stroke-linecap="butt" d="m987.51117 195.17906l-19.975464 0l0 19.975464l19.975464 0z" fill-rule="evenodd"/><path fill="#000000" fill-opacity="0.0" d="m1018.5886 195.17906l-19.980103 0l0 19.975464l19.980103 0z" fill-rule="evenodd"/><path stroke="#000000" stroke-width="1.041994750656168" stroke-miterlimit="15.875" stroke-linecap="butt" d="m1018.5886 195.17906l-19.980103 0l0 19.975464l19.980103 0z" fill-rule="evenodd"/><path fill="#000000" fill-opacity="0.0" d="m1049.6615 195.17906l-19.975464 0l0 19.975464l19.975464 0z" fill-rule="evenodd"/><path stroke="#000000" stroke-width="1.041994750656168" stroke-miterlimit="15.875" stroke-linecap="butt" d="m1049.6615 195.17906l-19.975464 0l0 19.975464l19.975464 0z" fill-rule="evenodd"/><path fill="#000000" fill-opacity="0.0" d="m1080.739 195.17906l-19.980103 0l0 19.975464l19.980103 0z" fill-rule="evenodd"/><path stroke="#000000" stroke-width="1.041994750656168" stroke-miterlimit="15.875" stroke-linecap="butt" d="m1080.739 195.17906l-19.980103 0l0 19.975464l19.980103 0z" fill-rule="evenodd"/><path fill="#000000" fill-opacity="0.0" d="m1111.8119 195.17906l-19.975464 0l0 19.975464l19.975464 0z" fill-rule="evenodd"/><path stroke="#000000" stroke-width="1.041994750656168" stroke-miterlimit="15.875" stroke-linecap="butt" d="m1111.8119 195.17906l-19.975464 0l0 19.975464l19.975464 0z" fill-rule="evenodd"/><path fill="#000000" fill-opacity="0.0" d="m956.4383 221.8149l-19.980103 0l0 19.975464l19.980103 0z" fill-rule="evenodd"/><path stroke="#000000" stroke-width="1.041994750656168" stroke-miterlimit="15.875" stroke-linecap="butt" d="m956.4383 221.8149l-19.980103 0l0 19.975464l19.980103 0z" fill-rule="evenodd"/><path fill="#000000" fill-opacity="0.0" d="m987.51117 221.8149l-19.975464 0l0 19.975464l19.975464 0z" fill-rule="evenodd"/><path stroke="#000000" stroke-width="1.041994750656168" stroke-miterlimit="15.875" stroke-linecap="butt" d="m987.51117 221.8149l-19.975464 0l0 19.975464l19.975464 0z" fill-rule="evenodd"/><path fill="#000000" fill-opacity="0.0" d="m1018.5886 221.8149l-19.980103 0l0 19.975464l19.980103 0z" fill-rule="evenodd"/><path stroke="#000000" stroke-width="1.041994750656168" stroke-miterlimit="15.875" stroke-linecap="butt" d="m1018.5886 221.8149l-19.980103 0l0 19.975464l19.980103 0z" fill-rule="evenodd"/><path fill="#000000" fill-opacity="0.0" d="m1049.6615 221.8149l-19.975464 0l0 19.975464l19.975464 0z" fill-rule="evenodd"/><path stroke="#000000" stroke-width="1.041994750656168" stroke-miterlimit="15.875" stroke-linecap="butt" d="m1049.6615 221.8149l-19.975464 0l0 19.975464l19.975464 0z" fill-rule="evenodd"/><path fill="#000000" fill-opacity="0.0" d="m1080.739 221.8149l-19.980103 0l0 19.975464l19.980103 0z" fill-rule="evenodd"/><path stroke="#000000" stroke-width="1.041994750656168" stroke-miterlimit="15.875" stroke-linecap="butt" d="m1080.739 221.8149l-19.980103 0l0 19.975464l19.980103 0z" fill-rule="evenodd"/><path fill="#000000" fill-opacity="0.0" d="m1111.8119 221.8149l-19.975464 0l0 19.975464l19.975464 0z" fill-rule="evenodd"/><path stroke="#000000" stroke-width="1.041994750656168" stroke-miterlimit="15.875" stroke-linecap="butt" d="m1111.8119 221.8149l-19.975464 0l0 19.975464l19.975464 0z" fill-rule="evenodd"/><path fill="#99c941" d="m941.30237 294.0478c-5.205078 0 -10.336487 2.2608948 -13.638733 6.420929c-7.562134 10.275757 0.83477783 23.61502 13.528259 23.61502c1.043457 0 2.1237793 -0.090423584 3.2286377 -0.2826233c14.228027 -2.6904602 17.935364 -19.74887 5.843384 -27.277649c-2.762085 -1.6730652 -5.867981 -2.4756775 -8.961548 -2.4756775z" fill-rule="evenodd"/><path fill="#a19e94" d="m1179.4758 384.50092c-3.7471924 0 -7.5129395 1.7756958 -9.805908 5.56015c-4.8098145 7.8811035 1.1790771 17.514648 9.735962 17.514648c0.92285156 0 1.8736572 -0.11187744 2.8430176 -0.34954834c6.217285 -1.477417 9.987793 -7.769287 8.510376 -13.907318c-1.3935547 -5.6953125 -6.319824 -8.817932 -11.283447 -8.817932z" fill-rule="evenodd"/><path fill="#000000" fill-opacity="0.0" d="m1021.9164 553.87036c-10.136841 0 -18.348877 8.137451 -18.348877 18.274353l0 0c0 10.136841 8.212036 18.348877 18.348877 18.348877l0 0c10.062378 0 18.274414 -8.212036 18.348877 -18.274292l0 0c0 -10.136902 -8.212036 -18.348938 -18.348877 -18.348938z" fill-rule="evenodd"/><path stroke="#973896" stroke-width="1.5826771653543308" stroke-miterlimit="15.875" stroke-linecap="butt" d="m1021.9164 553.87036c-10.136841 0 -18.348877 8.137451 -18.348877 18.274353l0 0c0 10.136841 8.212036 18.348877 18.348877 18.348877l0 0c10.062378 0 18.274414 -8.212036 18.348877 -18.274292l0 0c0 -10.136902 -8.212036 -18.348938 -18.348877 -18.348938z" fill-rule="evenodd"/><path fill="#000000" fill-opacity="0.0" d="m196.9514 349.44415c-0.0745697 11.837982 14.280167 17.901459 22.715912 9.540314c8.43573 -8.286621 2.5866394 -22.711273 -9.321274 -22.785828c-7.3265076 0 -13.320068 5.9190063 -13.394638 13.245514z" fill-rule="evenodd"/><path stroke="#452391" stroke-width="1.5826771653543308" stroke-miterlimit="15.875" stroke-linecap="butt" d="m196.9514 349.44415c-0.0745697 11.837982 14.280167 17.901459 22.715912 9.540314c8.43573 -8.286621 2.5866394 -22.711273 -9.321274 -22.785828c-7.3265076 0 -13.320068 5.9190063 -13.394638 13.245514z" fill-rule="evenodd"/><path fill="#000000" fill-opacity="0.0" d="m103.86717 391.39386c-6.660034 2.8849182 -13.389984 -3.700531 -10.728767 -10.360565c2.6658783 -6.72995 12.061714 -6.8790894 14.94664 -0.21905518c1.7011337 4.0687256 -0.1491394 8.803925 -4.2178726 10.57962z" fill-rule="evenodd"/><path stroke="#452391" stroke-width="1.5826771653543308" stroke-miterlimit="15.875" stroke-linecap="butt" d="m103.86717 391.39386c-6.660034 2.8849182 -13.389984 -3.700531 -10.728767 -10.360565c2.6658783 -6.72995 12.061714 -6.8790894 14.94664 -0.21905518c1.7011337 4.0687256 -0.1491394 8.803925 -4.2178726 10.57962z" fill-rule="evenodd"/><path fill="#000000" fill-opacity="0.0" d="m349.43457 251.03731c1.9248657 4.5860596 8.4357605 4.516144 10.286011 -0.0745697c1.7757263 -4.6606293 -2.8849182 -9.172119 -7.401062 -7.177368c-2.8103638 1.2583618 -4.1433105 4.441574 -2.8849487 7.251938z" fill-rule="evenodd"/><path stroke="#99c941" stroke-width="1.5826771653543308" stroke-miterlimit="15.875" stroke-linecap="butt" d="m349.43457 251.03731c1.9248657 4.5860596 8.4357605 4.516144 10.286011 -0.0745697c1.7757263 -4.6606293 -2.8849182 -9.172119 -7.401062 -7.177368c-2.8103638 1.2583618 -4.1433105 4.441574 -2.8849487 7.251938z" fill-rule="evenodd"/><path fill="#99c941" d="m376.96118 404.87192c-5.205078 0 -10.336487 2.2608948 -13.638763 6.4209595c-7.5621033 10.275757 0.83477783 23.61502 13.528259 23.61502c1.0434875 0 2.1237793 -0.0904541 3.2286377 -0.2826233c14.227997 -2.6904602 17.935394 -19.748901 5.8434143 -27.27768c-2.7621155 -1.6730347 -5.867981 -2.4756775 -8.961548 -2.4756775z" fill-rule="evenodd"/><path fill="#452391" d="m249.30238 131.10422c-5.205078 0 -10.336487 2.2608948 -13.638763 6.420929c-7.562088 10.275757 0.83477783 23.61502 13.528275 23.61502c1.0434723 0 2.123764 -0.09043884 3.2286224 -0.28260803c14.228012 -2.6904602 17.93541 -19.748901 5.8434296 -27.277664c-2.7621307 -1.6730652 -5.867981 -2.4756775 -8.961563 -2.4756775z" fill-rule="evenodd"/></g></svg>