<svg xmlns="http://www.w3.org/2000/svg" xmlns:xlink="http://www.w3.org/1999/xlink" fill="none" stroke="none" stroke-linecap="square" stroke-miterlimit="10" version="1.1" viewBox="0 0 1440 696"><clipPath id="p.0"><path d="m0 0l1440.0 0l0 696.0l-1440.0 0l0 -696.0z" clip-rule="nonzero"/></clipPath><g clip-path="url(#p.0)"><path fill="#fff" fill-rule="evenodd" d="m0 0l1440.0 0l0 696.0l-1440.0 0z"/><path fill="#000" fill-opacity=".054" fill-rule="evenodd" d="m638.7143 29.56168c-17.76239 0 -35.87616 2.5168076 -53.891724 7.80365c-99.431915 29.777897 -157.92825 134.70854 -130.52765 234.311c22.62027 83.86078 97.64899 138.32611 180.2591 138.32611c17.76239 0 35.87097 -2.5167847 53.891724 -7.798462c101.891846 -27.488495 160.47089 -132.41913 130.61029 -234.22832c-22.625366 -83.93315 -97.71094 -138.41399 -180.34174 -138.41399z"/><path fill="#000" fill-opacity=".054" fill-rule="evenodd" d="m595.51874 217.50429c-1.8862915 3.4470367 -3.6899414 6.9716034 -5.4160156 10.5013275l341.54138 276.31635c3.116272 -2.3824463 6.1550293 -4.9250793 9.105957 -7.467743l-345.23132 -279.3499z"/><path fill="#000" fill-opacity=".054" fill-rule="evenodd" d="m572.1388 373.22067l0 0c1.3126831 6.3152466 2.9509277 12.553009 4.7545776 18.702911l197.14801 159.48901c6.3980103 0.5736084 12.878662 0.7390137 19.36444 0.7390137l-221.26703 -178.93094z"/><path fill="#000" fill-opacity=".054" fill-rule="evenodd" d="m580.9967 249.41656c-1.4780273 3.8604736 -2.7907104 7.798462 -3.9379883 11.653778l324.885 262.94162c3.6124268 -1.9689941 7.136963 -4.1033936 10.666687 -6.237732l-331.6137 -268.35767z"/><path fill="#000" fill-opacity=".054" fill-rule="evenodd" d="m776.4187 101.989624c-2.5426636 0.16537476 -5.0026245 0.4134369 -7.4625854 0.6563339c-2.9560547 0.3307495 -5.82428 0.6563339 -8.7803955 1.1472855l257.44806 208.22305c-0.3307495 -5.416046 -0.90441895 -10.832092 -1.6434326 -16.160278l-239.56165 -193.8664z"/><path fill="#000" fill-opacity=".054" fill-rule="evenodd" d="m896.1194 126.52202l70.88403 57.2612c-19.524658 -23.705505 -43.643616 -43.15262 -70.88403 -57.2612z"/><path fill="#000" fill-opacity=".054" fill-rule="evenodd" d="m567.2964 325.6339c0 5.0852966 0.16540527 10.175751 0.4909668 15.261047l258.10437 208.79669c5.0026245 -0.65631104 10.010376 -1.6434326 15.0130005 -2.7080078l-273.60834 -221.34973z"/><path fill="#000" fill-opacity=".054" fill-rule="evenodd" d="m571.15173 285.02393c-0.8217163 4.346283 -1.4780273 8.7803955 -2.0516968 13.292053l298.1407 241.19989c4.268799 -1.4780273 8.367004 -3.0335693 12.470337 -4.7597046l-308.55933 -249.73224z"/><path fill="#000" fill-opacity=".054" fill-rule="evenodd" d="m812.2741 102.237686l195.9956 158.58461c-2.211914 -7.1369934 -4.7597046 -14.191284 -7.545227 -21.00267l-166.38312 -134.54834c-7.302307 -1.3953552 -14.68219 -2.377266 -22.06726 -3.0335999z"/><path fill="#000" fill-opacity=".054" fill-rule="evenodd" d="m595.1105 435.40695l0 0c28.547913 51.684967 76.13464 90.16055 132.57935 107.22525l-132.57935 -107.22525z"/><path fill="#000" fill-opacity=".054" fill-rule="evenodd" d="m732.0361 109.782936c-4.5116577 1.1524582 -8.940613 2.5426407 -13.292053 4.1033707l297.64978 240.87434c0.5736084 -4.59433 0.9819336 -9.271362 1.3126831 -13.865692l-285.6704 -231.11203z"/><path fill="#000" fill-opacity=".054" fill-rule="evenodd" d="m637.03314 163.76764c-2.7907104 2.708023 -5.581421 5.4987335 -8.206787 8.284271l349.50012 282.7143c2.211853 -3.1989746 4.26355 -6.480652 6.3152466 -9.762299l-347.60858 -281.23627z"/><path fill="#000" fill-opacity=".054" fill-rule="evenodd" d="m695.1987 123.56593c-3.8553467 1.8087921 -7.545227 3.6951065 -11.323059 5.7467957l324.6421 262.69354c1.3126831 -4.103363 2.2946167 -8.201569 3.36438 -12.2222595l-316.6834 -256.21808z"/><path fill="#000" fill-opacity=".054" fill-rule="evenodd" d="m614.3043 189.03389c-2.3772583 3.12146 -4.671814 6.237747 -6.888916 9.35405l349.49493 282.79697c2.6253662 -2.7907104 5.2506714 -5.7416077 7.7158203 -8.697693l-350.32184 -283.4533z"/><path fill="#000" fill-opacity=".054" fill-rule="evenodd" d="m663.7774 141.86058c-3.1989746 2.2170563 -6.480652 4.59433 -9.596924 7.0594635l341.37604 276.23364c1.7208862 -3.6124268 3.359192 -7.2196655 4.919922 -10.914764l-336.69904 -272.37836z"/><path fill="#ffab70" fill-rule="evenodd" d="m903.1995 394.6936c-0.3307495 0 -0.61499023 0.08270264 -0.8423462 0.2687378c-4.434143 3.4418945 -27.979431 12.304962 -27.979431 12.304962l-9.927734 -0.65634155l-30.351501 3.2816772l8.036194 17.721008l-10.909607 -7.7933044l2.7080078 62.84262l44.38263 53.90204l40.20172 36.42389l57.183655 -57.266357l-3.0387573 -2.5426636l-10.41864 -13.126678l-14.847595 -37.245605l-16.81665 -40.279236c0 0 -21.43158 -27.834747 -27.379944 -27.834747z"/><path fill="#ffab70" fill-rule="evenodd" d="m843.64374 368.10953c-4.87854 0 -9.710632 2.8940735 -9.710632 2.8940735c-8.863098 5.2506714 -7.2196655 17.555634 -7.2196655 17.555634c0.89923096 5.664093 15.421265 39.054413 15.421265 39.054413l30.031128 -11.157684c-3.6951294 -1.56073 -5.090454 -7.3023376 -5.090454 -7.3023376c-4.263611 -10.335968 -15.834717 -37.002747 -15.834717 -37.002747c-1.9224854 -3.0697632 -4.7700195 -4.0413513 -7.596924 -4.0413513z"/><path fill="#000" fill-opacity="0" fill-rule="evenodd" d="m872.16583 416.45596c-3.6951294 -1.56073 -5.090454 -7.3023376 -5.090454 -7.3023376c-4.263611 -10.335968 -15.834717 -37.002747 -15.834717 -37.002747c-5.2506714 -8.366943 -17.307556 -1.1472778 -17.307556 -1.1472778c-8.863098 5.2506714 -7.2196655 17.555634 -7.2196655 17.555634c0.89923096 5.664093 15.421265 39.054413 15.421265 39.054413"/><path fill-rule="evenodd" stroke="#000" stroke-linecap="butt" stroke-miterlimit="15.875" stroke-width="1.583" d="m872.16583 416.45596c-3.6951294 -1.56073 -5.090454 -7.3023376 -5.090454 -7.3023376c-4.263611 -10.335968 -15.834717 -37.002747 -15.834717 -37.002747c-5.2506714 -8.366943 -17.307556 -1.1472778 -17.307556 -1.1472778c-8.863098 5.2506714 -7.2196655 17.555634 -7.2196655 17.555634c0.89923096 5.664093 15.421265 39.054413 15.421265 39.054413"/><path fill="#000" fill-opacity="0" fill-rule="evenodd" d="m975.7838 515.72253c-7.385071 -5.5762634 -13.044006 -13.126678 -16.325623 -21.736542c-3.4470825 -6.8114014 -10.258484 -26.501404 -10.258484 -26.501404c-2.459961 -5.085266 -9.023254 -23.054352 -9.023254 -23.054352c-1.6434326 -5.2506714 -9.596985 -21.984558 -9.596985 -21.984558c-3.2816162 -4.6770325 -6.9767456 -9.028473 -10.914734 -13.126678c-3.6899414 -4.2687683 -9.43158 -10.666718 -9.43158 -10.666718c-4.434143 -5.4987183 -9.844971 -3.3643494 -9.844971 -3.3643494c-1.2351685 0.4909668 -5.746826 4.1860657 -5.746826 4.1860657"/><path fill-rule="evenodd" stroke="#000" stroke-linecap="butt" stroke-miterlimit="15.875" stroke-width="1.583" d="m975.7838 515.72253c-7.385071 -5.5762634 -13.044006 -13.126678 -16.325623 -21.736542c-3.4470825 -6.8114014 -10.258484 -26.501404 -10.258484 -26.501404c-2.459961 -5.085266 -9.023254 -23.054352 -9.023254 -23.054352c-1.6434326 -5.2506714 -9.596985 -21.984558 -9.596985 -21.984558c-3.2816162 -4.6770325 -6.9767456 -9.028473 -10.914734 -13.126678c-3.6899414 -4.2687683 -9.43158 -10.666718 -9.43158 -10.666718c-4.434143 -5.4987183 -9.844971 -3.3643494 -9.844971 -3.3643494c-1.2351685 0.4909668 -5.746826 4.1860657 -5.746826 4.1860657"/><path fill="#452391" fill-rule="evenodd" d="m729.6588 281.4167c-32.000122 0 -57.92273 25.922577 -57.92273 57.91754c0 32.000122 25.922607 58.0054 57.92273 58.0054c31.994934 0 57.91754 -26.00528 57.91754 -58.0054c0 -31.994965 -25.922607 -57.91754 -57.91754 -57.91754z"/><path fill-rule="evenodd" stroke="#000" stroke-linecap="butt" stroke-miterlimit="15.875" stroke-width="1.583" d="m729.6588 281.4167c-32.000122 0 -57.92273 25.922577 -57.92273 57.91754c0 32.000122 25.922607 58.0054 57.92273 58.0054c31.994934 0 57.91754 -26.00528 57.91754 -58.0054c0 -31.994965 -25.922607 -57.91754 -57.91754 -57.91754z"/><path fill="#ffab70" fill-rule="evenodd" d="m776.56854 437.4793c-7.8449707 0 -9.255859 5.3901978 -9.255859 5.3901978c-0.89923096 7.0594788 8.289429 11.571106 8.289429 11.571106c3.9380493 2.211914 10.501343 8.366974 10.501343 8.366974c6.3153076 11.074982 17.555664 22.888977 17.555664 22.888977c4.5115967 4.428955 18.04657 23.62799 18.04657 23.62799c4.5167847 7.054291 17.230042 14.031097 17.230042 14.031097c7.38501 5.2506104 22.563416 14.521973 22.563416 14.521973c14.521973 9.348877 45.9433 24.527222 45.9433 24.527222c2.1447144 1.6744385 3.8966675 3.0801392 5.328186 4.268799l0 0l-84.17084 -92.54303c-2.3773193 0 -6.8114014 -5.416046 -6.8114014 -5.416046c-3.36438 -4.1860657 -14.108582 -16.490997 -14.108582 -16.490997c-7.958679 -10.584045 -23.054382 -13.292053 -23.054382 -13.292053c-3.2454834 -1.0439453 -5.8966675 -1.4522095 -8.056885 -1.4522095zm136.20209 129.19434l5.746826 6.3152466c0 0 0.036132812 0.010314941 0.08782959 0.010314941c0.35144043 0 1.343689 -0.36688232 -5.834656 -6.3255615z"/><path fill="#000" fill-opacity="0" fill-rule="evenodd" d="m918.51746 572.9889c0 0 3.3643188 0.65631104 -11.075012 -10.584045c0 0 -31.421326 -15.178345 -45.9433 -24.527222c0 0 -15.178406 -9.271362 -22.563416 -14.521973c0 0 -12.713257 -6.9768066 -17.230042 -14.031097c0 0 -13.534973 -19.199036 -18.04657 -23.62799c0 0 -11.240356 -11.813995 -17.555664 -22.888977c0 0 -6.5632935 -6.15506 -10.501343 -8.366974c0 0 -9.18866 -4.511627 -8.289429 -11.571106c0 0 2.2997437 -8.7752075 17.312744 -3.9379883c0 0 15.095703 2.7080078 23.054382 13.292053c0 0 10.744202 12.304932 14.108582 16.490997c0 0 4.434082 5.416046 6.8114014 5.416046"/><path fill-rule="evenodd" stroke="#000" stroke-linecap="butt" stroke-miterlimit="15.875" stroke-width="1.583" d="m918.51746 572.9889c0 0 3.3643188 0.65631104 -11.075012 -10.584045c0 0 -31.421326 -15.178345 -45.9433 -24.527222c0 0 -15.178406 -9.271362 -22.563416 -14.521973c0 0 -12.713257 -6.9768066 -17.230042 -14.031097c0 0 -13.534973 -19.199036 -18.04657 -23.62799c0 0 -11.240356 -11.813995 -17.555664 -22.888977c0 0 -6.5632935 -6.15506 -10.501343 -8.366974c0 0 -9.18866 -4.511627 -8.289429 -11.571106c0 0 2.2997437 -8.7752075 17.312744 -3.9379883c0 0 15.095703 2.7080078 23.054382 13.292053c0 0 10.744202 12.304932 14.108582 16.490997c0 0 4.434082 5.416046 6.8114014 5.416046"/><path fill="#fff" fill-rule="evenodd" d="m802.0984 467.4846l0 0c-3.2816772 0.16537476 -9.596985 5.2506714 -9.596985 5.2506714l9.596985 -5.2506714z"/><path fill="#000" fill-opacity="0" fill-rule="evenodd" d="m792.5014 472.73526c0 0 6.3153076 -5.0852966 9.596985 -5.2506714"/><path fill-rule="evenodd" stroke="#000" stroke-linecap="butt" stroke-miterlimit="15.875" stroke-width="1.583" d="m792.5014 472.73526c0 0 6.3153076 -5.0852966 9.596985 -5.2506714"/><path fill="#ffab70" fill-rule="evenodd" d="m780.1758 329.41687c-1.6278687 0 -2.6046143 0.6459961 -2.6046143 0.6459961c-5.4987793 2.7080383 -5.581421 5.090454 -5.6641235 9.845001c-0.24291992 16.165436 14.11377 41.597076 14.11377 41.597076c4.3462524 11.323029 13.209351 30.439392 13.209351 30.439392c3.2816162 4.59433 9.348877 22.475525 9.348877 22.475525c1.8914795 5.498749 18.956116 36.671997 18.956116 36.671997c3.772644 6.7286987 8.532349 21.907043 8.532349 21.907043c1.3901978 5.6589355 3.6899414 11.074982 6.7235107 16.000061l-0.5736084 -81.385315c-0.13952637 0.06201172 -0.2894287 0.08786011 -0.45477295 0.08786011c-3.5245972 0 -11.85022 -13.87088 -11.85022 -13.87088c-9.105957 -18.211945 -18.051758 -36.181 -18.051758 -36.181c-14.108582 -30.59961 -18.537537 -39.54538 -24.857971 -44.630676c-2.7235107 -2.8940735 -5.126587 -3.6020813 -6.8269043 -3.6020813z"/><path fill="#000" fill-opacity="0" fill-rule="evenodd" d="m842.791 508.99896c-3.0335693 -4.9250793 -5.333313 -10.3411255 -6.7235107 -16.000061c0 0 -4.7597046 -15.178345 -8.532349 -21.907043c0 0 -17.064636 -31.173248 -18.956116 -36.671997c0 0 -6.0672607 -17.881195 -9.348877 -22.475525c0 0 -8.863098 -19.116364 -13.209351 -30.439392c0 0 -14.356689 -25.43164 -14.11377 -41.597076c0.08270264 -4.754547 0.16534424 -7.136963 5.6641235 -9.845001c0 0 4.0982056 -2.7028503 9.431519 2.9560852c6.3204346 5.0852966 10.74939 14.031067 24.857971 44.630676c0 0 8.945801 17.969055 18.051758 36.181c0 0 9.106018 15.178375 12.304993 13.78302"/><path fill-rule="evenodd" stroke="#000" stroke-linecap="butt" stroke-miterlimit="15.875" stroke-width="1.583" d="m842.791 508.99896c-3.0335693 -4.9250793 -5.333313 -10.3411255 -6.7235107 -16.000061c0 0 -4.7597046 -15.178345 -8.532349 -21.907043c0 0 -17.064636 -31.173248 -18.956116 -36.671997c0 0 -6.0672607 -17.881195 -9.348877 -22.475525c0 0 -8.863098 -19.116364 -13.209351 -30.439392c0 0 -14.356689 -25.43164 -14.11377 -41.597076c0.08270264 -4.754547 0.16534424 -7.136963 5.6641235 -9.845001c0 0 4.0982056 -2.7028503 9.431519 2.9560852c6.3204346 5.0852966 10.74939 14.031067 24.857971 44.630676c0 0 8.945801 17.969055 18.051758 36.181c0 0 9.106018 15.178375 12.304993 13.78302"/><path fill="#ffab70" fill-rule="evenodd" d="m876.6568 376.21292c-1.0904541 0 -1.788147 0.2893982 -1.788147 0.2893982l-6.8062134 2.7080383c-4.186035 1.8862915 -4.1033325 7.2196655 -4.1033325 7.2196655c-1.3953857 9.105988 5.333313 26.00528 5.333313 26.00528l40.858032 15.751984c-1.8862915 -3.5297241 -6.9767456 -9.927673 -6.9767456 -9.927673c-2.9509277 -3.447052 -10.501343 -22.806305 -10.501343 -22.806305c-2.5426636 -7.302368 -9.43158 -15.3437195 -9.43158 -15.3437195c-2.413391 -3.245514 -4.9457397 -3.8966675 -6.5839844 -3.8966675z"/><path fill="#000" fill-opacity="0" fill-rule="evenodd" d="m869.2924 412.4353c0 0 -6.7286987 -16.899292 -5.333313 -26.00528c0 0 -0.08270264 -5.333374 4.1033325 -7.2196655l6.8062134 -2.7080383c0 0 4.3514404 -1.8087769 8.372131 3.6072693c0 0 6.888916 8.041351 9.43158 15.3437195c0 0 7.550415 19.359253 10.501343 22.806305c0 0 5.090454 6.397949 6.9767456 9.927673"/><path fill-rule="evenodd" stroke="#000" stroke-linecap="butt" stroke-miterlimit="15.875" stroke-width="1.583" d="m869.2924 412.4353c0 0 -6.7286987 -16.899292 -5.333313 -26.00528c0 0 -0.08270264 -5.333374 4.1033325 -7.2196655l6.8062134 -2.7080383c0 0 4.3514404 -1.8087769 8.372131 3.6072693c0 0 6.888916 8.041351 9.43158 15.3437195c0 0 7.550415 19.359253 10.501343 22.806305c0 0 5.090454 6.397949 6.9767456 9.927673"/><path fill="#fff" fill-rule="evenodd" d="m814.9821 397.09155l-11.322998 7.1369934c0 0 7.545227 -2.868225 11.322998 -7.1369934z"/><path fill="#000" fill-opacity="0" fill-rule="evenodd" d="m803.6591 404.22855c0 0 7.545227 -2.868225 11.322998 -7.1369934"/><path fill-rule="evenodd" stroke="#000" stroke-linecap="butt" stroke-miterlimit="15.875" stroke-width="1.583" d="m803.6591 404.22855c0 0 7.545227 -2.868225 11.322998 -7.1369934"/><path fill="#452391" fill-rule="evenodd" d="m780.78046 333.2722c-0.3824463 0 -0.76483154 0.05166626 -1.1576538 0.1550293c-1.8087769 0.57366943 -3.2041016 2.0516968 -3.6950684 3.9380188c-0.40826416 1.8087769 -0.40826416 3.6950989 0.16534424 5.4987183c0.7390137 2.7080383 2.0516968 5.1679688 3.9380493 7.1369934c1.0645752 1.3126526 2.4599 2.2997437 4.02063 2.8733826c0.5529785 0.20153809 1.1318359 0.30490112 1.7054443 0.30490112c1.0387573 0 2.0723877 -0.3307495 2.9716187 -0.9612427c1.9689941 -1.6434021 1.9689941 -4.677002 1.3126831 -7.2196655c-0.9147339 -3.4987183 -4.439331 -11.726135 -9.261047 -11.726135z"/><path fill="#452391" fill-rule="evenodd" d="m773.7003 439.98062c-2.1085205 0 -4.1395264 0.99224854 -4.5787964 3.3850098c-0.4961548 3.4418945 1.9689941 7.302368 5.0025635 8.857941c1.0956421 0.5477905 3.126648 1.1472778 4.914734 1.1472778c1.4263916 0 2.6976929 -0.38241577 3.2093506 -1.4728699c0.32556152 -0.98709106 0.24285889 -1.9689941 -0.16540527 -2.873413c-0.24804688 -0.9043884 -0.5736084 -1.7209167 -0.9043579 -2.542633c-1.1472778 -2.7080078 -2.9509277 -5.4987183 -5.576294 -6.2377625c-0.6149292 -0.17053223 -1.2609863 -0.2635498 -1.9017944 -0.2635498z"/><path fill="#fff" fill-rule="evenodd" d="m981.32385 514.44604c-0.7338257 0 -1.4676514 0.07232666 -2.1756592 0.21185303c-4.020691 1.1472778 -7.6331177 3.36438 -10.584045 6.397949c-13.209351 12.062073 -23.545288 27.157776 -37.493713 38.398132c-3.9379883 2.7907104 -7.4677124 6.1498413 -10.501343 9.844971c-2.7906494 3.9379883 -4.02063 9.43158 -1.56073 13.617615c2.873413 5.0026245 10.093079 6.7286987 11.814026 12.304993c-6.1499023 4.7597046 -4.7597046 16.082703 2.2997437 19.36438c5.1679688 2.3772583 11.483276 0.7390137 16.408325 3.36438c4.020691 2.459961 6.5633545 6.8062134 6.8062744 11.483215c0.9043579 9.845032 -3.1990356 19.36444 1.8862915 28.878662c6.7286987 12.55304 24.367004 10.335999 34.785645 17.395447l61.28711 -124.2124c-5.8398438 -5.9017944 -14.129272 -10.124023 -22.299805 -10.124023c-2.5013428 0 -4.9923096 0.39788818 -7.400635 1.2609863c-3.0025635 1.0904541 -5.2609863 2.1757202 -8.010315 2.1757202c-0.7803955 0 -1.6021118 -0.087890625 -2.4909668 -0.28424072c0.38238525 -8.056885 -4.025879 -19.002686 -13.354065 -19.002686c-0.7390137 0 -1.5142212 0.06719971 -2.3152466 0.21191406c-1.1679688 0.21185303 -2.4031372 0.5994873 -3.576233 0.5994873c-0.64086914 0 -1.2609863 -0.113708496 -1.8398438 -0.43414307c-2.211853 -1.2299805 -2.211853 -4.3462524 -3.1989746 -6.645996c-1.3540039 -3.1886597 -4.9560547 -4.8062134 -8.48584 -4.8062134z"/><path fill="#000" fill-opacity="0" fill-rule="evenodd" d="m993.00867 675.70764c-10.41864 -7.0594482 -28.056946 -4.842407 -34.785645 -17.395447c-5.085327 -9.514221 -0.9819336 -19.03363 -1.8862915 -28.878662c-0.24291992 -4.677002 -2.7855835 -9.023254 -6.8062744 -11.483215c-4.925049 -2.6253662 -11.240356 -0.9871216 -16.408325 -3.36438c-7.0594482 -3.2816772 -8.449646 -14.604675 -2.2997437 -19.36438c-1.7209473 -5.576294 -8.940613 -7.302368 -11.814026 -12.304993c-2.4599 -4.186035 -1.2299194 -9.679626 1.56073 -13.617615c3.0336304 -3.6951294 6.5633545 -7.0542603 10.501343 -9.844971c13.948425 -11.240356 24.284363 -26.33606 37.493713 -38.398132c2.9509277 -3.0335693 6.5633545 -5.2506714 10.584045 -6.397949c4.0982056 -0.8217163 9.023254 0.7390137 10.661499 4.5943604c0.9871216 2.2997437 0.9871216 5.4160156 3.1989746 6.645996c1.6434326 0.90441895 3.6124268 0.16540527 5.4160767 -0.16534424c10.914734 -1.9689941 16.082703 10.093018 15.669312 18.790771c4.020691 0.89923096 6.645996 -0.4961548 10.501282 -1.8914795c10.258423 -3.6899414 22.07251 1.1524658 29.70044 8.863037"/><path fill-rule="evenodd" stroke="#000" stroke-linecap="butt" stroke-miterlimit="15.875" stroke-width="1.583" d="m993.00867 675.70764c-10.41864 -7.0594482 -28.056946 -4.842407 -34.785645 -17.395447c-5.085327 -9.514221 -0.9819336 -19.03363 -1.8862915 -28.878662c-0.24291992 -4.677002 -2.7855835 -9.023254 -6.8062744 -11.483215c-4.925049 -2.6253662 -11.240356 -0.9871216 -16.408325 -3.36438c-7.0594482 -3.2816772 -8.449646 -14.604675 -2.2997437 -19.36438c-1.7209473 -5.576294 -8.940613 -7.302368 -11.814026 -12.304993c-2.4599 -4.186035 -1.2299194 -9.679626 1.56073 -13.617615c3.0336304 -3.6951294 6.5633545 -7.0542603 10.501343 -9.844971c13.948425 -11.240356 24.284363 -26.33606 37.493713 -38.398132c2.9509277 -3.0335693 6.5633545 -5.2506714 10.584045 -6.397949c4.0982056 -0.8217163 9.023254 0.7390137 10.661499 4.5943604c0.9871216 2.2997437 0.9871216 5.4160156 3.1989746 6.645996c1.6434326 0.90441895 3.6124268 0.16540527 5.4160767 -0.16534424c10.914734 -1.9689941 16.082703 10.093018 15.669312 18.790771c4.020691 0.89923096 6.645996 -0.4961548 10.501282 -1.8914795c10.258423 -3.6899414 22.07251 1.1524658 29.70044 8.863037"/><path fill="#000" fill-opacity="0" fill-rule="evenodd" d="m993.00867 675.70764c-10.41864 -7.0594482 -28.056946 -4.842407 -34.785645 -17.395447c-6.232605 -11.813965 0.5787964 -23.953552 -5.4108887 -36.18097c16.242981 -25.183594 39.953674 -48.320618 58.739258 -72.11401c10.584045 -13.452209 32.243042 -9.431519 42.99243 1.56073"/><path fill-rule="evenodd" stroke="#000" stroke-linecap="butt" stroke-miterlimit="15.875" stroke-width="1.583" d="m993.00867 675.70764c-10.41864 -7.0594482 -28.056946 -4.842407 -34.785645 -17.395447c-6.232605 -11.813965 0.5787964 -23.953552 -5.4108887 -36.18097c16.242981 -25.183594 39.953674 -48.320618 58.739258 -72.11401c10.584045 -13.452209 32.243042 -9.431519 42.99243 1.56073"/><path fill="#000" fill-rule="evenodd" d="m738.6821 324.652l0 13.209351c-2.459961 0.5736389 -5.0026245 0.8165283 -7.4677734 0.89923096c-2.211853 0 -4.428955 -0.40829468 -6.5632935 -1.1473083c0.3307495 -1.4780273 0.4133911 -3.0335999 0.4133911 -4.511627c0 -2.873413 -0.24804688 -5.6641235 -0.8217163 -8.449646zm-28.470398 -3.7778015l-0.32562256 0.41342163l1.7209473 3.36438l8.863098 0c0.32556152 2.129181 0.4909668 4.3462524 0.5736084 6.4806213c0 1.8036499 -0.24804688 3.5245667 -0.65631104 5.2506714c-1.0697632 -0.24804688 -2.1343994 -0.3307495 -3.1989746 -0.41342163c-1.7261353 0 -3.12146 1.3126526 -3.1989746 2.9560852c0 1.3953552 0.89923096 3.4470215 2.3772583 5.8243103c2.6253662 4.3462524 7.302368 9.105957 13.617615 14.113739l0.3307495 0l2.3772583 -4.59433c-4.842346 -2.547821 -9.271301 -5.4987183 -12.635681 -9.18866c1.6434326 -1.1524658 2.9561157 -2.6253357 3.8552856 -4.434143c3.2041626 1.6434326 6.646057 2.5426636 10.175781 2.6253357c1.56073 0 3.116272 -0.16018677 4.5943604 -0.5736389l0 0l-0.16540527 13.700317l4.020691 1.0697632l0.3307495 -0.41342163l-0.16540527 -32.40323l6.3980103 0l0.3307495 -0.3307495l-1.7261353 -3.447052z"/><path fill="#642300" fill-rule="evenodd" d="m895.0961 143.15775c-8.103394 0 -15.302368 5.183487 -15.302368 5.183487c0 0 -10.17572 0.9870758 -19.690002 1.39534c-0.44958496 0.02067566 -0.9354248 0.031021118 -1.4418335 0.031021118c-9.085327 0 -26.961365 -2.9095764 -39.21466 -2.9095764c-1.6589355 0 -3.2144775 0.05168152 -4.630493 0.17054749c-12.387634 0.9870758 -11.075012 7.1421356 -15.834717 10.010376c-4.7597046 3.1162872 -22.480713 30.439392 -22.806274 34.21202c-0.41345215 3.6899261 -0.57366943 7.4677277 -0.4909668 11.157654c0 3.2816772 0.4909668 6.480652 1.2299805 9.596939c0.4909668 1.56073 0.9819336 3.0387726 1.6382446 4.516815c0.7390137 1.886322 1.56073 3.607254 2.5426636 5.328186c1.8087769 3.2816772 41.67975 18.708084 41.67975 18.708084c0 0 1.3126831 16.325638 7.385071 26.661606c1.7208862 3.0387573 11.8914795 25.679688 11.8914795 25.679688c0 0 3.6176147 7.1473083 11.762329 7.1473083c0.1809082 0 0.36175537 0 0.5477905 -0.010314941c8.1188965 -0.24291992 6.397949 -13.044006 5.989685 -20.671936l0 0c2.1292114 2.9095764 5.369568 3.907013 8.651245 3.907013c4.677002 0 9.452209 -2.020691 11.281677 -3.4160461c3.581421 -2.7028503 -1.7106323 -11.43158 -1.4367065 -11.43158l0 0c0.010314941 0 0.020690918 0.010345459 0.0413208 0.025848389c7.4677734 5.416046 18.873474 14.279114 36.18103 19.447113c7.834656 2.4031067 15.379944 3.3333435 22.460083 3.3333435c24.475525 0 43.421326 -11.136993 49.571228 -11.136993c0.08270264 0 0.16534424 0.0051574707 0.24804688 0.010314941c7.550415 0.40829468 27.648682 5.1679993 69.81946 8.201599l7.4625244 -22.558228c0.8216553 -20.511719 -13.617676 -57.922714 -13.617676 -57.922714c-0.25317383 0.2325592 -1.0490723 0.34109497 -2.2841797 0.34109497c-10.7907715 0 -55.028687 -8.196426 -60.475708 -10.186096c-5.989685 -2.2170563 -26.09314 -13.043976 -44.547974 -24.69777c-18.625427 -11.400558 -32.49109 -25.018188 -42.584167 -29.03888c-2.0 -0.77519226 -4.036194 -1.0852661 -6.025879 -1.0852661z"/><path fill="#642300" fill-rule="evenodd" d="m895.2357 143.33862c-8.082764 0 -15.27655 5.2506714 -15.27655 5.2506714c0 0 -10.093079 0.9870758 -19.60736 1.3953552c-0.1963501 0.0051574707 -0.39276123 0.0051574707 -0.5942993 0.0051574707c-8.532349 0 -27.178406 -2.8940582 -39.814087 -2.8940582c-1.7571411 0 -3.4005737 0.05166626 -4.878601 0.18087769c-12.392822 0.9870758 -11.080139 6.9716034 -15.834656 10.010376c-17.969055 12.2222595 -25.023376 42.088013 -25.023376 42.088013l276.89 8.532333c0 0 -56.610107 -7.71579 -62.599792 -9.684784c-5.989685 -2.046524 -25.922546 -13.2868805 -44.547974 -24.692612c-18.620178 -11.405731 -32.4859 -24.857971 -42.57898 -29.044037c-2.0361328 -0.8165436 -4.1137085 -1.1472931 -6.1343384 -1.1472931z"/><path fill="#000" fill-opacity="0" fill-rule="evenodd" d="m774.2068 199.37502c0 0 7.0543213 -29.865753 25.023376 -42.088013c4.7545166 -3.0387726 3.4418335 -9.0233 15.834656 -10.010376c12.387634 -1.0646057 35.932983 2.8733978 45.286987 2.708023c9.514282 -0.40827942 19.60736 -1.3953552 19.60736 -1.3953552c0 0 11.240356 -8.201584 21.410889 -4.1033783c10.093079 4.1860657 23.958801 17.638306 42.57898 29.044037c18.625427 11.405731 38.55829 22.646088 44.547974 24.692612c5.989685 1.9689941 62.599792 9.684784 62.599792 9.684784"/><path fill-rule="evenodd" stroke="#000" stroke-linecap="butt" stroke-miterlimit="15.875" stroke-width="1.583" d="m774.2068 199.37502c0 0 7.0543213 -29.865753 25.023376 -42.088013c4.7545166 -3.0387726 3.4418335 -9.0233 15.834656 -10.010376c12.387634 -1.0646057 35.932983 2.8733978 45.286987 2.708023c9.514282 -0.40827942 19.60736 -1.3953552 19.60736 -1.3953552c0 0 11.240356 -8.201584 21.410889 -4.1033783c10.093079 4.1860657 23.958801 17.638306 42.57898 29.044037c18.625427 11.405731 38.55829 22.646088 44.547974 24.692612c5.989685 1.9689941 62.599792 9.684784 62.599792 9.684784"/><path fill="#642300" fill-rule="evenodd" d="m844.76 181.40596l0 0c-0.40826416 4.3462677 0.6563721 8.697708 3.12146 12.304947c2.7493896 3.8811646 6.1602783 8.604691 8.139587 11.932877l0 0l-11.261047 -24.237823zm11.261047 24.237823l1.6227417 3.4935455c-0.10333252 -0.72351074 -0.7131958 -1.9638367 -1.6227417 -3.4935455z"/><path fill="#000" fill-opacity="0" fill-rule="evenodd" d="m857.6438 209.13733c-0.3307495 -2.2997437 -5.746765 -9.762314 -9.762329 -15.426422c-2.465088 -3.6072388 -3.5297241 -7.958679 -3.12146 -12.304947"/><path fill-rule="evenodd" stroke="#000" stroke-linecap="round" stroke-linejoin="round" stroke-width="1.583" d="m857.6438 209.13733c-0.3307495 -2.2997437 -5.746765 -9.762314 -9.762329 -15.426422c-2.465088 -3.6072388 -3.5297241 -7.958679 -3.12146 -12.304947"/><path fill="#642300" fill-rule="evenodd" d="m824.5687 182.96152c-1.2299805 0.0103302 -2.237732 0.10852051 -3.0594482 0.2325592l0 0l3.0594482 -0.2325592zm-3.0594482 0.2325592l-3.4935303 0.26356506c0.09820557 0.19638062 0.25842285 0.27391052 0.51678467 0.27391052c0.51678467 0 1.4212036 -0.3100891 2.9767456 -0.5374756zm23.49884 -1.7881165l-20.439392 1.5555573l0 0c0.10852051 -0.0051727295 0.21710205 -0.0051727295 0.32562256 -0.0051727295c1.8604736 0 4.201538 0.18605042 7.152466 0.74935913c2.0982056 0.38760376 3.8656616 0.5478058 5.354004 0.5478058c6.3153076 0 7.6073 -2.8475494 7.6073 -2.8475494z"/><path fill="#000" fill-opacity="0" fill-rule="evenodd" d="m845.0081 181.40596c0 0 -1.9689941 4.3462677 -12.961304 2.2997437c-10.832092 -2.0516815 -13.457397 0.89923096 -14.031067 -0.24806213"/><path fill-rule="evenodd" stroke="#000" stroke-linecap="round" stroke-linejoin="round" stroke-width="1.583" d="m845.0081 181.40596c0 0 -1.9689941 4.3462677 -12.961304 2.2997437c-10.832092 -2.0516815 -13.457397 0.89923096 -14.031067 -0.24806213"/><path fill="#642300" fill-rule="evenodd" d="m869.7007 198.14503c0 0 -0.16021729 5.4108734 0.16540527 8.775238c0.40826416 2.6253204 1.1472778 5.1679688 2.0516968 7.710617l-2.217102 -16.485855z"/><path fill="#000" fill-opacity="0" fill-rule="evenodd" d="m871.9178 214.63089c-0.90441895 -2.5426483 -1.6434326 -5.0852966 -2.0516968 -7.710617c-0.32562256 -3.3643646 -0.16540527 -8.775238 -0.16540527 -8.775238"/><path fill-rule="evenodd" stroke="#000" stroke-linecap="round" stroke-linejoin="round" stroke-width="1.583" d="m871.9178 214.63089c-0.90441895 -2.5426483 -1.6434326 -5.0852966 -2.0516968 -7.710617c-0.32562256 -3.3643646 -0.16540527 -8.775238 -0.16540527 -8.775238"/><path fill="#642300" fill-rule="evenodd" d="m816.3775 176.0726l-7.798462 18.708084c0 0 0.5736084 0.5271301 1.550354 0.5271301c1.322998 0 3.3901978 -0.98191833 5.751953 -5.617584c3.8553467 -8.284271 0.4961548 -13.61763 0.4961548 -13.61763z"/><path fill="#000" fill-opacity="0" fill-rule="evenodd" d="m816.3775 176.0726c0 0 3.359192 5.333359 -0.4961548 13.61763c-4.0982056 8.041367 -7.302307 5.090454 -7.302307 5.090454"/><path fill-rule="evenodd" stroke="#000" stroke-linecap="round" stroke-linejoin="round" stroke-width="1.583" d="m816.3775 176.0726c0 0 3.359192 5.333359 -0.4961548 13.61763c-4.0982056 8.041367 -7.302307 5.090454 -7.302307 5.090454"/><path fill="#642300" fill-rule="evenodd" d="m822.94086 240.55864c0 0 1.555542 16.325638 7.379822 26.661606c1.4780884 3.0387573 11.8967285 25.76239 11.8967285 25.76239c0 0 3.6124268 7.0646057 11.757141 7.0646057c0.18084717 0 0.36175537 0 0.5477905 -0.010314941c8.289429 -0.4909668 6.403137 -13.865692 5.989685 -21.328278c-0.16021729 -7.2196655 -3.0335693 -21.16803 -3.0335693 -21.16803l-34.537598 -16.98198z"/><path fill="#000" fill-opacity="0" fill-rule="evenodd" d="m857.47845 257.54062c0 0 2.873352 13.948364 3.0335693 21.16803c0.41345215 7.4625854 2.2997437 20.83731 -5.989685 21.328278c-8.532349 0.3307495 -12.304932 -7.054291 -12.304932 -7.054291c0 0 -10.41864 -22.723633 -11.8967285 -25.76239c-5.82428 -10.335968 -7.379822 -26.661606 -7.379822 -26.661606"/><path fill-rule="evenodd" stroke="#000" stroke-linecap="round" stroke-linejoin="round" stroke-width="1.583" d="m857.47845 257.54062c0 0 2.873352 13.948364 3.0335693 21.16803c0.41345215 7.4625854 2.2997437 20.83731 -5.989685 21.328278c-8.532349 0.3307495 -12.304932 -7.054291 -12.304932 -7.054291c0 0 -10.41864 -22.723633 -11.8967285 -25.76239c-5.82428 -10.335968 -7.379822 -26.661606 -7.379822 -26.661606"/><path fill="#642300" fill-rule="evenodd" d="m812.9305 197.15796c7.116272 1.8191223 14.377319 2.7286835 21.710632 2.7286835c0.6098633 0 1.2196655 -0.0103302 1.8346558 -0.0206604l12.470337 -0.40827942l-36.015625 -2.2997437z"/><path fill="#000" fill-opacity="0" fill-rule="evenodd" d="m848.9461 199.4577l-12.470337 0.40827942c-7.958679 0.16537476 -15.834717 -0.73902893 -23.545288 -2.708023"/><path fill-rule="evenodd" stroke="#000" stroke-linecap="round" stroke-linejoin="round" stroke-width="1.583" d="m848.9461 199.4577l-12.470337 0.40827942c-7.958679 0.16537476 -15.834717 -0.73902893 -23.545288 -2.708023"/><path fill="#642300" fill-rule="evenodd" d="m856.1658 254.50702l-10.584045 2.9509277c1.4780884 -0.32559204 10.578857 -2.9509277 10.584045 -2.9509277z"/><path fill="#000" fill-opacity="0" fill-rule="evenodd" d="m845.5817 257.45795c1.4780884 -0.32559204 10.584045 -2.9509277 10.584045 -2.9509277"/><path fill-rule="evenodd" stroke="#000" stroke-linecap="round" stroke-linejoin="round" stroke-width="1.583" d="m845.5817 257.45795c1.4780884 -0.32559204 10.584045 -2.9509277 10.584045 -2.9509277"/><path fill="#642300" fill-rule="evenodd" d="m894.48114 152.77534l12.22229 10.82692c-1.0645752 -2.3772736 -3.6899414 -8.85791 -12.22229 -10.82692z"/><path fill="#000" fill-opacity="0" fill-rule="evenodd" d="m906.7034 163.60226c-1.0645752 -2.3772736 -3.6899414 -8.85791 -12.22229 -10.82692"/><path fill-rule="evenodd" stroke="#000" stroke-linecap="round" stroke-linejoin="round" stroke-width="1.583" d="m906.7034 163.60226c-1.0645752 -2.3772736 -3.6899414 -8.85791 -12.22229 -10.82692"/><path fill="#642300" fill-rule="evenodd" d="m880.202 269.76288l-19.690002 8.94577c0 0 3.7416382 11.684814 9.886353 11.684814c1.1369629 0 2.3566284 -0.4031067 3.6537476 -1.3488464c9.845032 -7.4677124 6.1499023 -19.27655 6.1499023 -19.281738z"/><path fill="#000" fill-opacity="0" fill-rule="evenodd" d="m860.512 278.70865c0 0 5.2506714 16.408356 13.5401 10.335968c9.845032 -7.4677124 6.1499023 -19.281738 6.1499023 -19.281738"/><path fill-rule="evenodd" stroke="#000" stroke-linecap="round" stroke-linejoin="round" stroke-width="1.583" d="m860.512 278.70865c0 0 5.2506714 16.408356 13.5401 10.335968c9.845032 -7.4677124 6.1499023 -19.281738 6.1499023 -19.281738"/><path fill="#000" fill-opacity="0" fill-rule="evenodd" d="m1036.9055 296.42966c4.671875 5.989685 12.547852 8.284271 19.767456 9.023285c6.4031982 0.65634155 12.966553 0.2480774 19.447144 0.32559204c6.397949 0.08270264 12.795898 0.65634155 19.033691 1.7261047c4.5115967 0.8217163 8.940552 1.886322 13.4522705 2.211914c6.480591 0.49612427 12.63562 -1.7209473 18.950928 -0.4909668l18.790771 3.8553162c3.116333 0.5736389 6.888916 2.217041 6.5633545 5.2506714"/><path fill-rule="evenodd" stroke="#000" stroke-linecap="butt" stroke-miterlimit="15.875" stroke-width="1.583" d="m1036.9055 296.42966c4.671875 5.989685 12.547852 8.284271 19.767456 9.023285c6.4031982 0.65634155 12.966553 0.2480774 19.447144 0.32559204c6.397949 0.08270264 12.795898 0.65634155 19.033691 1.7261047c4.5115967 0.8217163 8.940552 1.886322 13.4522705 2.211914c6.480591 0.49612427 12.63562 -1.7209473 18.950928 -0.4909668l18.790771 3.8553162c3.116333 0.5736389 6.888916 2.217041 6.5633545 5.2506714"/><path fill="#000" fill-opacity="0" fill-rule="evenodd" d="m1210.503 235.39067c-5.1679688 -9.602112 -28.547852 -10.418655 -38.232666 -12.801086c-16.408325 -4.180893 -32.81665 -8.692551 -49.224976 -13.369568c-1.8863525 -0.5736389 -10.253296 -3.0387726 -12.305054 -3.1989746c-12.470337 -1.8087921 -24.118896 -3.7778015 -37.0802 -5.0904694c-5.4987793 -0.8165283 -11.8967285 -0.49095154 -16.739136 -4.2635803c-1.1472168 -0.9043884 -3.0335693 -0.16537476 -4.1032715 -1.0697632c-3.6072998 -2.1292114 -7.2197266 -4.015518 -10.99231 -5.6589355l-0.24804688 0c-1.9689941 0 -3.9379883 0.16537476 -5.9069824 0.40826416c-5.576294 0.98709106 -9.6796875 5.829483 -12.387695 10.832092"/><path fill-rule="evenodd" stroke="#000" stroke-linecap="butt" stroke-miterlimit="15.875" stroke-width="1.583" d="m1210.503 235.39067c-5.1679688 -9.602112 -28.547852 -10.418655 -38.232666 -12.801086c-16.408325 -4.180893 -32.81665 -8.692551 -49.224976 -13.369568c-1.8863525 -0.5736389 -10.253296 -3.0387726 -12.305054 -3.1989746c-12.470337 -1.8087921 -24.118896 -3.7778015 -37.0802 -5.0904694c-5.4987793 -0.8165283 -11.8967285 -0.49095154 -16.739136 -4.2635803c-1.1472168 -0.9043884 -3.0335693 -0.16537476 -4.1032715 -1.0697632c-3.6072998 -2.1292114 -7.2197266 -4.015518 -10.99231 -5.6589355l-0.24804688 0c-1.9689941 0 -3.9379883 0.16537476 -5.9069824 0.40826416c-5.576294 0.98709106 -9.6796875 5.829483 -12.387695 10.832092"/><path fill="#000" fill-opacity="0" fill-rule="evenodd" d="m1176.4564 283.05493l0 0c-8.697754 -0.32559204 -17.4729 -0.7390137 -26.005249 -2.542633c-8.372192 -1.7209473 -16.408325 -4.5116577 -24.780518 -6.3979797c-8.28418 -1.8036194 -16.733887 -2.7080078 -25.266235 -2.542633c-2.0516357 0 -4.1033936 0.08267212 -6.1550293 0.2428894c-1.555542 0 -3.116333 0.5736389 -4.428955 1.56073c-2.1343994 1.8036194 -1.6434326 4.842407 0 6.7286987c2.6253662 3.1990051 6.72876 2.785553 10.418701 1.9690247c3.6123047 -0.90441895 8.206665 -2.465149 11.322998 0.32556152"/><path fill-rule="evenodd" stroke="#000" stroke-linecap="butt" stroke-miterlimit="15.875" stroke-width="1.583" d="m1176.4564 283.05493l0 0c-8.697754 -0.32559204 -17.4729 -0.7390137 -26.005249 -2.542633c-8.372192 -1.7209473 -16.408325 -4.5116577 -24.780518 -6.3979797c-8.28418 -1.8036194 -16.733887 -2.7080078 -25.266235 -2.542633c-2.0516357 0 -4.1033936 0.08267212 -6.1550293 0.2428894c-1.555542 0 -3.116333 0.5736389 -4.428955 1.56073c-2.1343994 1.8036194 -1.6434326 4.842407 0 6.7286987c2.6253662 3.1990051 6.72876 2.785553 10.418701 1.9690247c3.6123047 -0.90441895 8.206665 -2.465149 11.322998 0.32556152"/><path fill="#000" fill-opacity="0" fill-rule="evenodd" d="m1042.2336 298.31598l0 0c7.2197266 -2.0516968 12.635742 -7.958679 16.248169 -14.273956c1.8863525 -3.1989746 3.2816162 -6.6460266 4.26355 -10.175751c0.98706055 -4.2635803 1.4780273 -8.532349 1.3953857 -12.878601c0.16540527 -20.511719 -7.6279297 -40.119034 -15.34375 -58.827118c-1.6381836 -3.855301 -3.4418945 -8.940598 -7.6279297 -10.66153c-3.116333 -1.3126678 -7.6279297 -0.4134369 -8.697754 3.0335999"/><path fill-rule="evenodd" stroke="#000" stroke-linecap="butt" stroke-miterlimit="15.875" stroke-width="1.583" d="m1042.2336 298.31598l0 0c7.2197266 -2.0516968 12.635742 -7.958679 16.248169 -14.273956c1.8863525 -3.1989746 3.2816162 -6.6460266 4.26355 -10.175751c0.98706055 -4.2635803 1.4780273 -8.532349 1.3953857 -12.878601c0.16540527 -20.511719 -7.6279297 -40.119034 -15.34375 -58.827118c-1.6381836 -3.855301 -3.4418945 -8.940598 -7.6279297 -10.66153c-3.116333 -1.3126678 -7.6279297 -0.4134369 -8.697754 3.0335999"/><path fill="#000" fill-opacity="0" fill-rule="evenodd" d="m1067.8307 286.01102l57.266357 6.9716187l16.24292 1.9689941"/><path fill-rule="evenodd" stroke="#000" stroke-linecap="butt" stroke-miterlimit="15.875" stroke-width="1.583" d="m1067.8307 286.01102l57.266357 6.9716187l16.24292 1.9689941"/><path fill="#000" fill-opacity="0" fill-rule="evenodd" d="m1104.5853 250.6517l0 0c13.292114 -8.041367 25.10608 -18.299805 34.95105 -30.356705c2.5426025 -3.1989746 4.7597656 -6.6460266 6.72876 -10.175751c0.4909668 -1.0646057 -0.90441895 -1.720932 -1.560791 -1.0646057c-11.483276 12.553024 -26.253296 21.57631 -42.744385 25.922577"/><path fill-rule="evenodd" stroke="#000" stroke-linecap="butt" stroke-miterlimit="15.875" stroke-width="1.583" d="m1104.5853 250.6517l0 0c13.292114 -8.041367 25.10608 -18.299805 34.95105 -30.356705c2.5426025 -3.1989746 4.7597656 -6.6460266 6.72876 -10.175751c0.4909668 -1.0646057 -0.90441895 -1.720932 -1.560791 -1.0646057c-11.483276 12.553024 -26.253296 21.57631 -42.744385 25.922577"/><path fill="#99c941" fill-rule="evenodd" d="m670.17535 149.16293l41.023438 117.3183l117.235596 -40.935562l-158.25903 -76.38274z"/><path fill-rule="evenodd" stroke="#000" stroke-linecap="butt" stroke-miterlimit="15.875" stroke-width="1.583" d="m670.17535 149.16293l41.023438 117.3183l117.235596 -40.935562l-158.25903 -76.38274z"/><path fill="#642300" fill-rule="evenodd" d="m806.6307 198.49646c-4.873413 0 -9.260986 0.33592224 -12.651184 1.0387726c-9.684814 2.0516815 -13.209351 11.736465 -11.405762 21.333405c1.8036499 9.679626 12.718384 10.010376 21.907104 12.38765c9.105957 2.3772736 27.23523 7.7933197 39.462646 13.865692c12.139587 6.397949 23.87091 13.534943 35.111267 21.493622c7.4677124 5.4987183 19.116333 14.273956 36.18103 19.6073c7.80365 2.3979492 15.328186 3.328186 22.39801 3.328186c24.53241 0 43.555725 -11.209351 49.715942 -11.209351c0.08270264 0 0.16540527 0 0.24804688 0.0051879883c7.4625854 0.41342163 60.791016 5.0077515 60.791016 5.0077515l-158.8327 -69.08037c-0.72869873 1.7984619 -2.4961548 2.4134521 -5.9121704 2.4134521c-2.3514404 0 -5.4832153 -0.28941345 -9.591797 -0.69252014c-10.093018 -0.8992157 -23.545288 -12.713226 -37.8244 -16.077576c-9.302368 -2.206726 -20.330872 -3.4212036 -29.597046 -3.4212036z"/><path fill="#000" fill-opacity="0" fill-rule="evenodd" d="m1048.3888 285.35468c0 0 -53.32843 -4.59433 -60.791016 -5.0077515c-7.550415 -0.40829468 -37.08539 18.708069 -72.362 7.8759766c-17.064697 -5.3333435 -28.713318 -14.108582 -36.18103 -19.6073c-11.240356 -7.958679 -22.97168 -15.095673 -35.111267 -21.493622c-12.227417 -6.0723724 -30.35669 -11.488419 -39.462646 -13.865692c-9.188721 -2.3772736 -20.103455 -2.708023 -21.907104 -12.38765c-1.8035889 -9.596939 1.7209473 -19.281723 11.405762 -21.333405c9.844971 -2.046524 28.056946 -0.98191833 42.24823 2.382431c14.279114 3.3643494 27.731384 15.17836 37.8244 16.077576c10.087891 0.98709106 14.273987 1.3126678 15.503967 -1.720932"/><path fill-rule="evenodd" stroke="#000" stroke-linecap="round" stroke-linejoin="round" stroke-width="1.583" d="m1048.3888 285.35468c0 0 -53.32843 -4.59433 -60.791016 -5.0077515c-7.550415 -0.40829468 -37.08539 18.708069 -72.362 7.8759766c-17.064697 -5.3333435 -28.713318 -14.108582 -36.18103 -19.6073c-11.240356 -7.958679 -22.97168 -15.095673 -35.111267 -21.493622c-12.227417 -6.0723724 -30.35669 -11.488419 -39.462646 -13.865692c-9.188721 -2.3772736 -20.103455 -2.708023 -21.907104 -12.38765c-1.8035889 -9.596939 1.7209473 -19.281723 11.405762 -21.333405c9.844971 -2.046524 28.056946 -0.98191833 42.24823 2.382431c14.279114 3.3643494 27.731384 15.17836 37.8244 16.077576c10.087891 0.98709106 14.273987 1.3126678 15.503967 -1.720932"/><path fill="#99c941" fill-rule="evenodd" d="m798.32574 204.21225c-4.7597046 1.3953552 -8.284241 5.250656 -9.18866 10.175751c-1.3953857 8.201584 2.7080078 9.762314 2.7080078 9.762314c2.7080078 2.134369 5.989685 3.4470367 9.436707 3.6072388c0.7752075 0.046524048 1.4522095 0.06718445 2.0465698 0.06718445c3.8552856 0 4.1033325 -0.8010254 4.1033325 -0.8010254c0 0 -2.1343384 -8.372131 0.3307495 -14.196442c2.459961 -5.576248 3.6899414 -8.041382 3.6899414 -8.041382l-13.126648 -0.5736389z"/><path fill="#642300" fill-rule="evenodd" d="m836.2277 211.92804l-5.6589355 21.984589c0 0 7.958679 -11.979385 5.6589355 -21.984589z"/><path fill="#000" fill-opacity="0" fill-rule="evenodd" d="m830.5688 233.91263c0 0 7.958679 -11.979385 5.6589355 -21.984589"/><path fill-rule="evenodd" stroke="#000" stroke-linecap="round" stroke-linejoin="round" stroke-width="1.583" d="m830.5688 233.91263c0 0 7.958679 -11.979385 5.6589355 -21.984589"/><path fill="#642300" fill-rule="evenodd" d="m907.1944 238.8377c-12.470337 0.16020203 -22.723633 12.470337 -22.723633 12.470337l22.723633 -12.470337z"/><path fill="#000" fill-opacity="0" fill-rule="evenodd" d="m884.47076 251.30804c0 0 10.253296 -12.310135 22.723633 -12.470337"/><path fill-rule="evenodd" stroke="#000" stroke-linecap="round" stroke-linejoin="round" stroke-width="1.583" d="m884.47076 251.30804c0 0 10.253296 -12.310135 22.723633 -12.470337"/><path fill="#000" fill-rule="evenodd" d="m736.13947 219.06502c6.7286987 0 8.61499 5.9069977 8.61499 10.087891c0 5.0904694 -2.3824463 10.258438 -8.61499 10.258438c-6.397949 0 -8.532349 -6.976761 -8.532349 -10.914764c0 -5.989685 4.180908 -9.431564 8.449646 -9.431564zm9.844971 -14.439331c-2.1343384 0.6563263 -4.268738 1.1472931 -6.480652 1.3953552c-5.1679688 0.8165436 -15.917358 2.868225 -15.917358 19.607315c0 9.105972 3.6899414 16.568542 12.55304 16.568542c8.1188965 0 12.470337 -5.493576 12.470337 -13.2868805c0 -7.876007 -5.085327 -12.553024 -11.648621 -12.553024c-0.07751465 0 -0.14990234 -0.0051727295 -0.22741699 -0.0051727295c-3.9328003 0 -7.607239 2.1188812 -9.5401 5.581421l-0.16021729 0c1.1473389 -9.514252 6.3980103 -11.896683 13.286926 -12.878601c1.8914795 -0.24806213 3.6123657 -0.6563263 5.4160156 -1.1472931l0.24804688 -3.281662z"/><path fill-rule="evenodd" stroke="#000" stroke-linecap="butt" stroke-miterlimit="15.875" stroke-width=".541" d="m736.13947 219.06502c6.7286987 0 8.61499 5.9069977 8.61499 10.087891c0 5.0904694 -2.3824463 10.258438 -8.61499 10.258438c-6.397949 0 -8.532349 -6.976761 -8.532349 -10.914764c0 -5.989685 4.180908 -9.431564 8.449646 -9.431564zm9.844971 -14.439331c-2.1343384 0.6563263 -4.268738 1.1472931 -6.480652 1.3953552c-5.1679688 0.8165436 -15.917358 2.868225 -15.917358 19.607315c0 9.105972 3.6899414 16.568542 12.55304 16.568542c8.1188965 0 12.470337 -5.493576 12.470337 -13.2868805c0 -7.876007 -5.085327 -12.553024 -11.648621 -12.553024c-0.07751465 0 -0.14990234 -0.0051727295 -0.22741699 -0.0051727295c-3.9328003 0 -7.607239 2.1188812 -9.5401 5.581421l-0.16021729 0c1.1473389 -9.514252 6.3980103 -11.896683 13.286926 -12.878601c1.8914795 -0.24806213 3.6123657 -0.6563263 5.4160156 -1.1472931l0.24804688 -3.281662z"/><path fill="#d37243" fill-rule="evenodd" d="m488.37103 209.71098l0 0c-11.483246 1.2299652 -38.31021 21.16803 -38.31021 21.16803c-7.793335 7.5452576 -43.974335 32.32054 -43.974335 32.32054c-9.105988 5.581421 -34.542786 26.253326 -34.542786 26.253326c-17.881195 14.852783 -39.21463 65.798706 -39.21463 65.798706l156.04196 -145.5406z"/><path fill="#000" fill-opacity="0" fill-rule="evenodd" d="m332.32907 355.2516c0 0 21.333435 -50.945923 39.21463 -65.798706c0 0 25.436798 -20.671906 34.542786 -26.253326c0 0 36.181 -24.775284 43.974335 -32.32054c0 0 26.826965 -19.938065 38.31021 -21.16803"/><path fill-rule="evenodd" stroke="#000" stroke-linecap="butt" stroke-miterlimit="15.875" stroke-width="1.583" d="m332.32907 355.2516c0 0 21.333435 -50.945923 39.21463 -65.798706c0 0 25.436798 -20.671906 34.542786 -26.253326c0 0 36.181 -24.775284 43.974335 -32.32054c0 0 26.826965 -19.938065 38.31021 -21.16803"/><path fill="#d37243" fill-rule="evenodd" d="m510.91376 269.91275c0.7131958 0 1.4160156 0.25323486 1.989685 0.7545471c0.7390137 0.49093628 1.3126831 1.2299805 2.0516968 1.7209167c0.4909668 0.3307495 0.98187256 0.65634155 1.3953247 0.98709106c0.4909668 0.32559204 0.89923096 0.65634155 1.3126831 0.9819336c1.8036499 1.3953552 3.4418945 2.8733826 5.2506714 4.268738c3.5245361 2.7080078 6.888916 5.741638 10.66156 8.201569c0.07232666 0.07235718 -0.041381836 0.26358032 -0.17572021 0.26358032c-0.020690918 0 -0.04650879 -0.0051574707 -0.06719971 -0.01550293c-1.5349121 -0.30490112 -3.0697632 -0.3824463 -4.5994873 -0.3824463c-1.4263916 0 -2.8475952 0.06719971 -4.273926 0.06719971c-0.32562256 0 -0.6511841 -0.0051574707 -0.97161865 -0.010345459c-1.4780273 0 -2.9560547 -0.08267212 -4.3514404 -0.3307495c-1.6382446 -0.24804688 -3.1989746 -0.5736389 -4.7545166 -0.9043884c-3.1989746 -0.7338562 -6.3204346 -1.5555725 -9.519409 -2.3772583l-2.2945862 -0.57366943c-0.5736389 -0.16537476 -1.2299805 -0.3307495 -1.8087769 -0.49093628c-1.0646057 -0.41345215 -2.0465393 -0.8217163 -3.1163025 -1.2299805c-1.0646057 -0.49612427 -2.2118835 -0.90441895 -3.3643494 -1.1524658c-0.65634155 -0.21707153 -1.3126831 -0.32559204 -1.9689941 -0.32559204c-0.32559204 0 -0.65634155 0.025848389 -0.9819336 0.08270264l-0.16537476 0c-0.08267212 0.2428894 -0.16537476 0.5736389 -0.16537476 0.89923096c0 0.12402344 -0.12402344 0.18603516 -0.23254395 0.18603516c-0.113708496 0 -0.21707153 -0.06201172 -0.17572021 -0.18603516c0 -0.32559204 0 -0.57366943 0.08267212 -0.89923096c0.7390442 -2.465149 3.1990051 -4.020691 5.416046 -5.007782c2.6253357 -1.1472778 5.328186 -2.0516968 8.036224 -2.6253357l1.6434021 -0.40826416c0.7390137 -0.16537476 1.4780579 -0.40826416 2.134369 -0.7390137c0.89923096 -0.32559204 1.7209473 -0.57366943 2.7028503 -0.7390442c0.10336304 -0.010314941 0.20672607 -0.01550293 0.3100891 -0.01550293zm11.503906 -60.85811l-41.67456 5.2506714l-105.586975 85.73161c0 0 -38.64099 24.615082 -42.99243 53.245667c-4.428955 28.5531 71.953766 60.548035 71.953766 60.548035c0 0 4.263611 -53.493744 31.504028 -86.80136c19.85019 -24.367035 61.28189 -24.449707 61.28189 -24.449707l44.222412 -9.348877l20.919922 -2.134369l-17.230042 -23.793365l-14.599487 -13.369583l23.705505 -0.08268738l8.206726 0.40827942l6.9716187 -13.126663l-5.085266 -31.42131l-41.597107 -0.65634155z"/><path fill="#d37243" fill-rule="evenodd" d="m432.09174 328.42462l0 0c-16.5737 30.930359 -26.253326 58.57904 -27.157715 83.6799l27.157715 -83.6799z"/><path fill="#000" fill-opacity="0" fill-rule="evenodd" d="m404.93402 412.10452c0.9043884 -25.10086 10.584015 -52.749542 27.157715 -83.6799"/><path fill-rule="evenodd" stroke="#000" stroke-linecap="butt" stroke-miterlimit="15.875" stroke-width="1.583" d="m404.93402 412.10452c0.9043884 -25.10086 10.584015 -52.749542 27.157715 -83.6799"/><path fill="#d37243" fill-rule="evenodd" d="m494.85168 246.9566l-5.328186 29.617676c0 0 6.1499023 -19.281708 5.328186 -29.617676z"/><path fill="#000" fill-opacity="0" fill-rule="evenodd" d="m489.5235 276.57428c0 0 6.1499023 -19.281708 5.328186 -29.617676"/><path fill-rule="evenodd" stroke="#000" stroke-linecap="butt" stroke-miterlimit="15.875" stroke-width="1.583" d="m489.5235 276.57428c0 0 6.1499023 -19.281708 5.328186 -29.617676"/><path fill="#000" fill-opacity="0" fill-rule="evenodd" d="m492.5571 277.396c0 0 12.062073 -7.1369934 18.785614 -7.1369934c0 0 19.447083 13.044006 21.82434 16.325653"/><path fill-rule="evenodd" stroke="#000" stroke-linecap="butt" stroke-miterlimit="15.875" stroke-width="1.583" d="m492.5571 277.396c0 0 12.062073 -7.1369934 18.785614 -7.1369934c0 0 19.447083 13.044006 21.82434 16.325653"/><path fill="#d37243" fill-rule="evenodd" d="m548.85706 192.56879c-7.080139 0 -13.317871 0.7958679 -16.83728 3.0284424l-50.703033 16.408325l12.878601 43.24048l19.36441 -19.529785c0 0 29.286926 -16.160278 40.284424 -21.085358c0 0 12.5633545 2.5219727 25.30243 2.5219727c14.258423 0 28.739136 -3.1576385 26.051758 -16.547867c0 0 -10.99231 -1.3126678 -16.651245 -3.281662c0 0 -22.367004 -4.754547 -39.690063 -4.754547z"/><path fill="#000" fill-opacity="0" fill-rule="evenodd" d="m494.19534 255.24603l19.36441 -19.529785c0 0 29.286926 -16.160278 40.284424 -21.085358c0 0 56.44464 11.323044 51.354187 -14.025894c0 0 -10.99231 -1.3126678 -16.651245 -3.281662c0 0 -44.387756 -9.436737 -56.527344 -1.7261047l-50.703033 16.408325"/><path fill-rule="evenodd" stroke="#000" stroke-linecap="butt" stroke-miterlimit="15.875" stroke-width="1.583" d="m494.19534 255.24603l19.36441 -19.529785c0 0 29.286926 -16.160278 40.284424 -21.085358c0 0 56.44464 11.323044 51.354187 -14.025894c0 0 -10.99231 -1.3126678 -16.651245 -3.281662c0 0 -44.387756 -9.436737 -56.527344 -1.7261047l-50.703033 16.408325"/><path fill="#e68c47" fill-rule="evenodd" d="m530.2162 253.93336l31.746887 37.080246c0 0 -13.209351 -17.80368 -15.338562 -21.41092c-2.1343994 -3.5297241 -16.408325 -15.669327 -16.408325 -15.669327z"/><path fill="#000" fill-opacity="0" fill-rule="evenodd" d="m530.2162 253.93336c0 0 14.273926 12.139603 16.408325 15.669327c2.1292114 3.6072388 15.338562 21.41092 15.338562 21.41092"/><path fill-rule="evenodd" stroke="#000" stroke-linecap="butt" stroke-miterlimit="15.875" stroke-width="1.583" d="m530.2162 253.93336c0 0 14.273926 12.139603 16.408325 15.669327c2.1292114 3.6072388 15.338562 21.41092 15.338562 21.41092"/><path fill="#d37243" fill-rule="evenodd" d="m553.9217 253.85068c-0.072387695 0.0051727295 -0.14990234 0.010345459 -0.222229 0.0155181885l0 0l0.35144043 0.02583313l0 0c-0.08270264 -0.02583313 -0.12921143 -0.04135132 -0.12921143 -0.04135132zm-52.66687 -3.6124115c0 0 19.286865 4.1137085 40.485962 4.1137085c3.9586182 0 7.979309 -0.1446991 11.958679 -0.4857788l0 0l-52.44464 -3.6279297zm52.79608 3.6537628c1.4677124 0.50645447 15.416077 5.3023376 20.465149 5.534912c0 0 9.426392 8.904419 17.721008 8.904419c3.989685 0 7.7158203 -2.0620117 10.010376 -8.165405c-0.65631104 -1.6382446 -2.0516968 -2.8733826 -3.772583 -3.1989746l-44.42395 -3.0749512z"/><path fill="#000" fill-opacity="0" fill-rule="evenodd" d="m501.25482 250.23827c0 0 27.317932 5.8243256 52.66687 3.6124115c0 0 15.261047 5.333374 20.59436 5.5762634c0 0 20.677124 19.524628 27.731384 0.7390137c-0.65631104 -1.6382446 -2.0516968 -2.8733826 -3.772583 -3.1989746"/><path fill-rule="evenodd" stroke="#000" stroke-linecap="butt" stroke-miterlimit="15.875" stroke-width="1.583" d="m501.25482 250.23827c0 0 27.317932 5.8243256 52.66687 3.6124115c0 0 15.261047 5.333374 20.59436 5.5762634c0 0 20.677124 19.524628 27.731384 0.7390137c-0.65631104 -1.6382446 -2.0516968 -2.8733826 -3.772583 -3.1989746"/><path fill="#d37243" fill-rule="evenodd" d="m562.5367 216.76527l-50.372253 22.232635c0 0 32.733948 -1.3126678 35.932922 -2.868225c0 0 15.581482 10.966446 26.527283 10.966446c1.3591309 0 2.651123 -0.17053223 3.8294678 -0.5478058c0 0 13.633118 10.992294 23.550476 10.992294c5.12146 0 9.250671 -2.9302368 10.005188 -11.813995c0 0 -10.74939 -4.428955 -15.0130005 -8.857925c0 0 -11.405701 -8.697708 -16.739075 -10.997452l-17.721008 -9.105972z"/><path fill="#000" fill-opacity="0" fill-rule="evenodd" d="m512.1644 238.99791c0 0 32.733948 -1.3126678 35.932922 -2.868225c0 0 19.690002 13.865692 30.35675 10.41864c0 0 31.338623 25.26625 33.555664 -0.82170105c0 0 -10.74939 -4.428955 -15.0130005 -8.857925c0 0 -11.405701 -8.697708 -16.739075 -10.997452l-17.721008 -9.105972"/><path fill-rule="evenodd" stroke="#000" stroke-linecap="butt" stroke-miterlimit="15.875" stroke-width="1.583" d="m512.1644 238.99791c0 0 32.733948 -1.3126678 35.932922 -2.868225c0 0 19.690002 13.865692 30.35675 10.41864c0 0 31.338623 25.26625 33.555664 -0.82170105c0 0 -10.74939 -4.428955 -15.0130005 -8.857925c0 0 -11.405701 -8.697708 -16.739075 -10.997452l-17.721008 -9.105972"/><path fill="#d37243" fill-rule="evenodd" d="m488.70178 278.05234l-74.73932 46.026c0 0 11.896698 2.9974365 27.064728 2.9974365c9.674438 0 20.677063 -1.219635 30.7753 -5.2144775c0 0 29.007874 -9.111145 44.11902 -9.111145c0.20159912 0 0.39794922 0 0.58917236 0.0051574707c0 0 31.261108 0 36.020813 1.9689941c0 0 6.227417 2.2170715 12.806274 2.2170715c5.364319 0 10.956116 -1.4728699 13.607239 -6.8114014c0 0 4.268799 -14.930298 -20.429016 -21.085358c0 0 -9.080139 -3.100769 -17.596924 -3.100769c-1.9379883 0 -3.8501587 0.16018677 -5.6176147 0.558136c0 0 -2.7803955 0.38241577 -6.7803955 0.38241577c-4.480652 0 -10.490967 -0.48062134 -15.865662 -2.5167847l-23.953613 -6.315277z"/><path fill="#000" fill-opacity="0" fill-rule="evenodd" d="m413.96246 324.07834c0 0 31.912292 8.036224 57.840027 -2.217041c0 0 29.777893 -9.354065 44.70819 -9.105988c0 0 31.261108 0 36.020813 1.9689941c0 0 20.50653 7.302368 26.413513 -4.59433c0 0 4.268799 -14.930298 -20.429016 -21.085358c0 0 -13.700317 -4.677002 -23.214539 -2.542633c0 0 -12.470337 1.7209167 -22.646057 -2.134369l-23.953613 -6.315277"/><path fill-rule="evenodd" stroke="#000" stroke-linecap="butt" stroke-miterlimit="15.875" stroke-width="1.583" d="m413.96246 324.07834c0 0 31.912292 8.036224 57.840027 -2.217041c0 0 29.777893 -9.354065 44.70819 -9.105988c0 0 31.261108 0 36.020813 1.9689941c0 0 20.50653 7.302368 26.413513 -4.59433c0 0 4.268799 -14.930298 -20.429016 -21.085358c0 0 -13.700317 -4.677002 -23.214539 -2.542633c0 0 -12.470337 1.7209167 -22.646057 -2.134369l-23.953613 -6.315277"/><path fill="#e68c47" fill-rule="evenodd" d="m542.10767 299.1377l-2.868225 8.366943c0 0 3.36438 -5.2506714 2.868225 -8.366943z"/><path fill="#000" fill-opacity="0" fill-rule="evenodd" d="m539.23944 307.50464c0 0 3.36438 -5.2506714 2.868225 -8.366943"/><path fill-rule="evenodd" stroke="#000" stroke-linecap="butt" stroke-miterlimit="15.875" stroke-width="1.583" d="m539.23944 307.50464c0 0 3.36438 -5.2506714 2.868225 -8.366943"/><path fill="#000" fill-opacity="0" fill-rule="evenodd" d="m346.7684 324.97757c-14.847595 22.232666 -24.609894 34.37741 -38.806335 57.101013c-15.178375 24.367004 -30.274017 49.638428 -35.52469 77.85559"/><path fill-rule="evenodd" stroke="#000" stroke-linecap="butt" stroke-miterlimit="15.875" stroke-width="1.583" d="m346.7684 324.97757c-14.847595 22.232666 -24.609894 34.37741 -38.806335 57.101013c-15.178375 24.367004 -30.274017 49.638428 -35.52469 77.85559"/><path fill="#000" fill-opacity="0" fill-rule="evenodd" d="m394.1898 497.75864c-1.3953552 -2.6253357 -2.7907104 -5.416046 -2.2997437 -8.206757c0.5736389 -3.1163025 3.2816467 -5.741638 2.8733826 -8.85791c-0.3307495 -2.459961 -2.542633 -4.2687683 -3.5297241 -6.480652c-1.6382446 -3.3643494 -0.4909668 -7.302368 0.65634155 -10.832092c5.8243103 -17.963898 18.708069 -37.32831 17.720978 -56.527344"/><path fill-rule="evenodd" stroke="#000" stroke-linecap="butt" stroke-miterlimit="15.875" stroke-width="1.583" d="m394.1898 497.75864c-1.3953552 -2.6253357 -2.7907104 -5.416046 -2.2997437 -8.206757c0.5736389 -3.1163025 3.2816467 -5.741638 2.8733826 -8.85791c-0.3307495 -2.459961 -2.542633 -4.2687683 -3.5297241 -6.480652c-1.6382446 -3.3643494 -0.4909668 -7.302368 0.65634155 -10.832092c5.8243103 -17.963898 18.708069 -37.32831 17.720978 -56.527344"/><path fill="#000" fill-opacity="0" fill-rule="evenodd" d="m340.77872 329.08096c-5.7416077 6.7286987 -8.85791 15.3437195 -8.615021 24.20163c0.2480774 7.793335 3.12146 15.178375 8.041382 21.16806c4.9250793 6.397949 11.323029 11.483246 18.051758 15.834686c7.2196655 4.677002 14.764923 8.85791 22.475525 12.553009c7.793335 3.7726135 15.669312 7.2196655 23.385101 11.074982c1.1473083 0.5736389 1.886322 -1.1524658 0.81655884 -1.7261047"/><path fill-rule="evenodd" stroke="#000" stroke-linecap="butt" stroke-miterlimit="15.875" stroke-width="1.583" d="m340.77872 329.08096c-5.7416077 6.7286987 -8.85791 15.3437195 -8.615021 24.20163c0.2480774 7.793335 3.12146 15.178375 8.041382 21.16806c4.9250793 6.397949 11.323029 11.483246 18.051758 15.834686c7.2196655 4.677002 14.764923 8.85791 22.475525 12.553009c7.793335 3.7726135 15.669312 7.2196655 23.385101 11.074982c1.1473083 0.5736389 1.886322 -1.1524658 0.81655884 -1.7261047"/><path fill="#000" fill-opacity="0" fill-rule="evenodd" d="m314.11713 530.4099c22.06726 -9.18866 41.183624 -24.118958 58.987305 -39.78827c5.0852966 -4.5116577 10.093079 -9.028473 15.095673 -13.622803c0.40826416 -0.32556152 0.5736389 -0.89923096 0.24804688 -1.3126526c-0.3307495 -0.40826416 -0.9043884 -0.4909668 -1.3126526 -0.16021729l0 0c-3.8604736 2.2945862 -7.7984924 4.428955 -11.813995 6.480652c-7.6331177 3.8553162 -15.426422 7.3850403 -23.30243 10.501343c-9.18866 3.7726135 -18.702911 6.7286987 -28.387695 8.940582c-9.105988 1.886322 -18.702911 3.0387878 -27.891602 1.56073c-8.206726 -1.3126526 -15.917358 -4.9250793 -21.085358 -11.648621c-0.5736389 -0.8217163 -1.22995 -1.7261047 -1.8036194 -2.6253357"/><path fill-rule="evenodd" stroke="#000" stroke-linecap="butt" stroke-miterlimit="15.875" stroke-width="1.583" d="m314.11713 530.4099c22.06726 -9.18866 41.183624 -24.118958 58.987305 -39.78827c5.0852966 -4.5116577 10.093079 -9.028473 15.095673 -13.622803c0.40826416 -0.32556152 0.5736389 -0.89923096 0.24804688 -1.3126526c-0.3307495 -0.40826416 -0.9043884 -0.4909668 -1.3126526 -0.16021729l0 0c-3.8604736 2.2945862 -7.7984924 4.428955 -11.813995 6.480652c-7.6331177 3.8553162 -15.426422 7.3850403 -23.30243 10.501343c-9.18866 3.7726135 -18.702911 6.7286987 -28.387695 8.940582c-9.105988 1.886322 -18.702911 3.0387878 -27.891602 1.56073c-8.206726 -1.3126526 -15.917358 -4.9250793 -21.085358 -11.648621c-0.5736389 -0.8217163 -1.22995 -1.7261047 -1.8036194 -2.6253357"/><path fill="#000" fill-opacity="0" fill-rule="evenodd" d="m326.58746 496.44595l43.726257 -69.48865l12.387665 -19.6073"/><path fill-rule="evenodd" stroke="#000" stroke-linecap="butt" stroke-miterlimit="15.875" stroke-width="1.583" d="m326.58746 496.44595l43.726257 -69.48865l12.387665 -19.6073"/><path fill="#973896" fill-rule="evenodd" d="m559.71497 294.70355c-0.24285889 0 -0.48059082 0.04135132 -0.7028198 0.16537476l-0.3307495 0.08270264c-1.2299805 0.40826416 -2.2946167 1.1472778 -3.116272 2.134369c-0.90441895 1.2299805 -1.56073 2.6253357 -1.8036499 4.0982056c-0.24804688 2.0516968 -0.24804688 5.007782 1.3953247 6.563324c1.7209473 1.56073 3.772644 2.6253357 5.984558 3.12146c0.68218994 0.12921143 1.3643188 0.18606567 2.0568237 0.18606567c2.3204346 0 4.692566 -0.60983276 6.9716187 -0.92507935c2.211914 -0.3307495 4.428955 -1.56073 4.837219 -3.8553162c0.16540527 -1.0697632 0.08270264 -2.134369 -0.24285889 -3.1989746c-0.41345215 -1.4780273 -1.3126831 -2.7907104 -2.465149 -3.7778015c-0.4909668 -0.32556152 -1.0645752 -0.65631104 -1.6382446 -0.9819031c-0.65631104 -0.41345215 -1.4780273 -0.4909668 -2.1343994 -0.98709106c-1.3126221 -0.65634155 -2.5426025 -1.3126526 -3.9379883 -1.886322c-0.68218994 -0.43408203 -1.5090332 -0.63565063 -2.3669434 -0.63565063c-0.27386475 0 -0.5529785 0.0206604 -0.83203125 0.06201172c-0.05682373 0.0051879883 -0.11883545 0.010345459 -0.18084717 0.010345459c-0.4703369 0 -0.99224854 -0.17572021 -1.4935913 -0.17572021z"/><path fill="#973896" fill-rule="evenodd" d="m579.8494 196.74968l0 0c1.3953857 1.1472931 2.6253662 2.3772736 3.8553467 3.7726288c1.8035889 1.9689941 3.6898804 4.3462677 6.1550293 5.576248c2.227417 1.0904388 4.5736694 2.532318 6.9613037 2.532318c1.0387573 0 2.0826416 -0.27391052 3.126587 -0.97158813c2.3824463 -1.6382446 4.92511 -4.59433 4.3514404 -7.710617l-24.449707 -3.1989899z"/><path fill="#973896" fill-rule="evenodd" d="m636.78503 194.36725l-87.4577 53.57643l53.576477 87.45256l87.4577 -53.57129l-53.576477 -87.4577z"/><path fill-rule="evenodd" stroke="#000" stroke-linecap="butt" stroke-miterlimit="15.875" stroke-width="1.541" d="m636.78503 194.36725l-87.4577 53.57643l53.576477 87.45256l87.4577 -53.57129l-53.576477 -87.4577z"/><path fill="#000" fill-rule="evenodd" d="m606.9245 249.66463l0 2.9560852l25.922546 0l0 -2.9560852zm27.483276 11.405716l-0.41345215 0.2428894l-31.503967 0l0 3.0387878l30.11383 0c-2.873413 10.584015 -10.501343 16.981964 -22.894165 20.015594c0.7390137 0.8216858 1.3953247 1.7261047 1.8914795 2.6253052c13.617615 -3.689911 21.162842 -10.41864 24.940674 -24.118958c0.24285889 -0.08267212 0.40826416 -0.24804688 0.5736084 -0.49093628l-2.7080078 -1.3126831z"/><path fill-rule="evenodd" stroke="#000" stroke-linecap="butt" stroke-miterlimit="15.875" stroke-width=".541" d="m606.9245 249.66463l0 2.9560852l25.922546 0l0 -2.9560852zm27.483276 11.405716l-0.41345215 0.2428894l-31.503967 0l0 3.0387878l30.11383 0c-2.873413 10.584015 -10.501343 16.981964 -22.894165 20.015594c0.7390137 0.8216858 1.3953247 1.7261047 1.8914795 2.6253052c13.617615 -3.689911 21.162842 -10.41864 24.940674 -24.118958c0.24285889 -0.08267212 0.40826416 -0.24804688 0.5736084 -0.49093628l-2.7080078 -1.3126831z"/><path fill="#000" fill-opacity="0" fill-rule="evenodd" d="m1341.0413 97.50137l-62.594482 27.240417l23.87085 -63.995087z"/><path fill-rule="evenodd" stroke="#cecece" stroke-linecap="butt" stroke-miterlimit="15.875" stroke-width="1.583" d="m1341.0413 97.50137l-62.594482 27.240417l23.87085 -63.995087z"/><path fill="#000" fill-opacity="0" fill-rule="evenodd" d="m267.31186 92.33485l26.744293 101.73167l-95.741974 -43.566055z"/><path fill-rule="evenodd" stroke="#cecece" stroke-linecap="butt" stroke-miterlimit="15.875" stroke-width="1.583" d="m267.31186 92.33485l26.744293 101.73167l-95.741974 -43.566055z"/><path fill="#000" fill-opacity="0" fill-rule="evenodd" d="m1327.6719 330.34415l-46.108643 -54.88394l71.622925 -2.134369z"/><path fill-rule="evenodd" stroke="#cecece" stroke-linecap="butt" stroke-miterlimit="15.875" stroke-width="1.583" d="m1327.6719 330.34415l-46.108643 -54.88394l71.622925 -2.134369z"/><path fill="#000" fill-opacity="0" fill-rule="evenodd" d="m143.59038 275.7847l-53.49375 42.57898l-3.281662 -68.33618z"/><path fill-rule="evenodd" stroke="#cecece" stroke-linecap="butt" stroke-miterlimit="15.875" stroke-width="1.583" d="m143.59038 275.7847l-53.49375 42.57898l-3.281662 -68.33618z"/><path fill="#000" fill-opacity="0" fill-rule="evenodd" d="m509.42935 591.49615c-2.0516663 -8.366943 -10.253265 -13.700317 -18.129272 -11.648621c-7.958679 1.8862915 -12.801086 10.253296 -10.74939 18.868286c2.0516968 8.366943 10.258453 13.700317 18.13443 11.565918c8.1188965 -2.2945557 12.878601 -10.661499 10.744232 -18.785583z"/><path fill-rule="evenodd" stroke="#99c941" stroke-linecap="butt" stroke-miterlimit="15.875" stroke-width="1.583" d="m509.42935 591.49615c-2.0516663 -8.366943 -10.253265 -13.700317 -18.129272 -11.648621c-7.958679 1.8862915 -12.801086 10.253296 -10.74939 18.868286c2.0516968 8.366943 10.258453 13.700317 18.13443 11.565918c8.1188965 -2.2945557 12.878601 -10.661499 10.744232 -18.785583z"/><path fill="#000" fill-rule="evenodd" d="m1264.8134 381.42224c-3.36438 0 -5.989624 2.7080383 -5.989624 5.989685c0 3.3643494 2.6252441 6.0723877 5.989624 6.0723877c3.2817383 0 5.989746 -2.7080383 5.989746 -6.0723877c0 -3.2816467 -2.7080078 -5.989685 -5.989746 -5.989685z"/><path fill="#000" fill-rule="evenodd" d="m1290.8239 381.42224c-3.2817383 0 -5.989746 2.7080383 -5.989746 5.989685c0 3.3643494 2.7080078 6.0723877 5.989746 6.0723877c3.3642578 0 6.0671387 -2.7080383 6.0671387 -6.0723877c0 -3.2816467 -2.7028809 -5.989685 -6.0671387 -5.989685z"/><path fill="#000" fill-rule="evenodd" d="m1316.9945 381.42224c-3.2817383 0 -5.989746 2.7080383 -5.989746 5.989685c0 3.3643494 2.7080078 6.0723877 5.989746 6.0723877c3.3642578 0 6.0722656 -2.7080383 6.0722656 -6.0723877c0 -3.2816467 -2.7080078 -5.989685 -6.0722656 -5.989685z"/><path fill="#000" fill-rule="evenodd" d="m1343.165 381.42224c-3.2816162 0 -5.989624 2.7080383 -5.989624 5.989685c0 3.3643494 2.7080078 6.0723877 5.989624 6.0723877c3.36438 0 6.0723877 -2.7080383 6.0723877 -6.0723877c0 -3.2816467 -2.7080078 -5.989685 -6.0723877 -5.989685z"/><path fill="#000" fill-rule="evenodd" d="m1264.8134 407.5929c-3.36438 0 -5.989624 2.7080078 -5.989624 6.072357c0 3.2816772 2.6252441 5.9897156 5.989624 5.9897156c3.2817383 0 5.989746 -2.7080383 5.989746 -5.9897156c0 -3.3643494 -2.7080078 -6.072357 -5.989746 -6.072357z"/><path fill="#000" fill-rule="evenodd" d="m1290.8239 407.5929c-3.2817383 0 -5.989746 2.7080078 -5.989746 6.072357c0 3.2816772 2.7080078 5.9897156 5.989746 5.9897156c3.3642578 0 6.0671387 -2.7080383 6.0671387 -5.9897156c0 -3.3643494 -2.7028809 -6.072357 -6.0671387 -6.072357z"/><path fill="#000" fill-rule="evenodd" d="m1316.9945 407.5929c-3.2817383 0 -5.989746 2.7080078 -5.989746 6.072357c0 3.2816772 2.7080078 5.9897156 5.989746 5.9897156c3.3642578 0 6.0722656 -2.7080383 6.0722656 -5.9897156c0 -3.3643494 -2.7080078 -6.072357 -6.0722656 -6.072357z"/><path fill="#000" fill-rule="evenodd" d="m1343.165 407.5929c-3.2816162 0 -5.989624 2.7080078 -5.989624 6.072357c0 3.2816772 2.7080078 5.9897156 5.989624 5.9897156c3.36438 0 6.0723877 -2.7080383 6.0723877 -5.9897156c0 -3.3643494 -2.7080078 -6.072357 -6.0723877 -6.072357z"/><path fill="#000" fill-rule="evenodd" d="m1264.8134 433.60333c-3.36438 0 -5.989624 2.7028503 -5.989624 6.0671997c0 3.2816772 2.6252441 5.989685 5.989624 5.989685c3.2817383 0 5.989746 -2.7080078 5.989746 -5.989685c0 -3.3643494 -2.7080078 -6.0671997 -5.989746 -6.0671997z"/><path fill="#000" fill-rule="evenodd" d="m1290.8239 433.60333c-3.2817383 0 -5.989746 2.7028503 -5.989746 6.0671997c0 3.2816772 2.7080078 5.989685 5.989746 5.989685c3.3642578 0 6.0671387 -2.7080078 6.0671387 -5.989685c0 -3.3643494 -2.7028809 -6.0671997 -6.0671387 -6.0671997z"/><path fill="#000" fill-rule="evenodd" d="m1316.9945 433.60333c-3.2817383 0 -5.989746 2.7028503 -5.989746 6.0671997c0 3.2816772 2.7080078 5.989685 5.989746 5.989685c3.3642578 0 6.0722656 -2.7080078 6.0722656 -5.989685c0 -3.3643494 -2.7080078 -6.0671997 -6.0722656 -6.0671997z"/><path fill="#000" fill-rule="evenodd" d="m1343.165 433.60333c-3.2816162 0 -5.989624 2.7028503 -5.989624 6.0671997c0 3.2816772 2.7080078 5.989685 5.989624 5.989685c3.36438 0 6.0723877 -2.7080078 6.0723877 -5.989685c0 -3.3643494 -2.7080078 -6.0671997 -6.0723877 -6.0671997z"/><path fill="#000" fill-rule="evenodd" d="m1264.8134 459.85666c-3.36438 0 -5.989624 2.6253357 -5.989624 5.9845276c0 3.2816772 2.6252441 5.989685 5.989624 5.989685c3.2817383 0 5.989746 -2.7080078 5.989746 -5.989685c0 -3.359192 -2.7080078 -5.9845276 -5.989746 -5.9845276z"/><path fill="#000" fill-rule="evenodd" d="m1290.8239 459.85666c-3.2817383 0 -5.989746 2.6253357 -5.989746 5.9845276c0 3.2816772 2.7080078 5.989685 5.989746 5.989685c3.3642578 0 6.0671387 -2.7080078 6.0671387 -5.989685c0 -3.359192 -2.7028809 -5.9845276 -6.0671387 -5.9845276z"/><path fill="#000" fill-rule="evenodd" d="m1316.9945 459.85666c-3.2817383 0 -5.989746 2.6253357 -5.989746 5.9845276c0 3.2816772 2.7080078 5.989685 5.989746 5.989685c3.3642578 0 6.0722656 -2.7080078 6.0722656 -5.989685c0 -3.359192 -2.7080078 -5.9845276 -6.0722656 -5.9845276z"/><path fill="#000" fill-rule="evenodd" d="m1343.165 459.85666c-3.2816162 0 -5.989624 2.6253357 -5.989624 5.9845276c0 3.2816772 2.7080078 5.989685 5.989624 5.989685c3.36438 0 6.0723877 -2.7080078 6.0723877 -5.989685c0 -3.359192 -2.7080078 -5.9845276 -6.0723877 -5.9845276z"/><path fill="#000" fill-rule="evenodd" d="m1264.8134 486.0273c-3.36438 0 -5.989624 2.6253357 -5.989624 5.989685c0 3.2816772 2.6252441 5.9845276 5.989624 5.9845276c3.2817383 0 5.989746 -2.7028503 5.989746 -5.9845276c0 -3.3643494 -2.7080078 -5.989685 -5.989746 -5.989685z"/><path fill="#000" fill-rule="evenodd" d="m1290.8239 486.0273c-3.2817383 0 -5.989746 2.6253357 -5.989746 5.989685c0 3.2816772 2.7080078 5.9845276 5.989746 5.9845276c3.3642578 0 6.0671387 -2.7028503 6.0671387 -5.9845276c0 -3.3643494 -2.7028809 -5.989685 -6.0671387 -5.989685z"/><path fill="#000" fill-rule="evenodd" d="m1316.9945 486.0273c-3.2817383 0 -5.989746 2.6253357 -5.989746 5.989685c0 3.2816772 2.7080078 5.9845276 5.989746 5.9845276c3.3642578 0 6.0722656 -2.7028503 6.0722656 -5.9845276c0 -3.3643494 -2.7080078 -5.989685 -6.0722656 -5.989685z"/><path fill="#000" fill-rule="evenodd" d="m1343.165 486.0273c-3.2816162 0 -5.989624 2.6253357 -5.989624 5.989685c0 3.2816772 2.7080078 5.9845276 5.989624 5.9845276c3.36438 0 6.0723877 -2.7028503 6.0723877 -5.9845276c0 -3.3643494 -2.7080078 -5.989685 -6.0723877 -5.989685z"/><path fill="#000" fill-rule="evenodd" d="m1264.8134 512.0326c-3.36438 0 -5.989624 2.7080078 -5.989624 5.989685c0 3.3643188 2.6252441 6.0723877 5.989624 6.0723877c3.2817383 0 5.989746 -2.7080688 5.989746 -6.0723877c0 -3.2816772 -2.7080078 -5.989685 -5.989746 -5.989685z"/><path fill="#000" fill-rule="evenodd" d="m1290.8239 512.0326c-3.2817383 0 -5.989746 2.7080078 -5.989746 5.989685c0 3.3643188 2.7080078 6.0723877 5.989746 6.0723877c3.3642578 0 6.0671387 -2.7080688 6.0671387 -6.0723877c0 -3.2816772 -2.7028809 -5.989685 -6.0671387 -5.989685z"/><path fill="#000" fill-rule="evenodd" d="m1316.9945 512.0326c-3.2817383 0 -5.989746 2.7080078 -5.989746 5.989685c0 3.3643188 2.7080078 6.0723877 5.989746 6.0723877c3.3642578 0 6.0722656 -2.7080688 6.0722656 -6.0723877c0 -3.2816772 -2.7080078 -5.989685 -6.0722656 -5.989685z"/><path fill="#000" fill-rule="evenodd" d="m1343.165 512.0326c-3.2816162 0 -5.989624 2.7080078 -5.989624 5.989685c0 3.3643188 2.7080078 6.0723877 5.989624 6.0723877c3.36438 0 6.0723877 -2.7080688 6.0723877 -6.0723877c0 -3.2816772 -2.7080078 -5.989685 -6.0723877 -5.989685z"/><path fill="#000" fill-rule="evenodd" d="m1264.8134 538.20325c-3.36438 0 -5.989624 2.7080078 -5.989624 5.989685c0 3.3643188 2.6252441 6.0723267 5.989624 6.0723267c3.2817383 0 5.989746 -2.7080078 5.989746 -6.0723267c0 -3.2816772 -2.7080078 -5.989685 -5.989746 -5.989685z"/><path fill="#000" fill-rule="evenodd" d="m1290.8239 538.20325c-3.2817383 0 -5.989746 2.7080078 -5.989746 5.989685c0 3.3643188 2.7080078 6.0723267 5.989746 6.0723267c3.3642578 0 6.0671387 -2.7080078 6.0671387 -6.0723267c0 -3.2816772 -2.7028809 -5.989685 -6.0671387 -5.989685z"/><path fill="#000" fill-rule="evenodd" d="m1316.9945 538.20325c-3.2817383 0 -5.989746 2.7080078 -5.989746 5.989685c0 3.3643188 2.7080078 6.0723267 5.989746 6.0723267c3.3642578 0 6.0722656 -2.7080078 6.0722656 -6.0723267c0 -3.2816772 -2.7080078 -5.989685 -6.0722656 -5.989685z"/><path fill="#000" fill-rule="evenodd" d="m1343.165 538.20325c-3.2816162 0 -5.989624 2.7080078 -5.989624 5.989685c0 3.3643188 2.7080078 6.0723267 5.989624 6.0723267c3.36438 0 6.0723877 -2.7080078 6.0723877 -6.0723267c0 -3.2816772 -2.7080078 -5.989685 -6.0723877 -5.989685z"/><path fill="#000" fill-opacity="0" fill-rule="evenodd" d="m1265.0614 391.92358c0 2.7080078 -2.1343994 4.9250793 -4.842407 4.9250793c-2.7080078 0 -4.919922 -2.2170715 -4.919922 -4.9250793c0 -2.7080383 2.211914 -4.919922 4.919922 -4.919922c2.7080078 0 4.842407 2.2118835 4.842407 4.919922z"/><path fill-rule="evenodd" stroke="#99c941" stroke-linecap="butt" stroke-miterlimit="15.875" stroke-width=".793" d="m1265.0614 391.92358c0 2.7080078 -2.1343994 4.9250793 -4.842407 4.9250793c-2.7080078 0 -4.919922 -2.2170715 -4.919922 -4.9250793c0 -2.7080383 2.211914 -4.919922 4.919922 -4.919922c2.7080078 0 4.842407 2.2118835 4.842407 4.919922z"/><path fill="#000" fill-opacity="0" fill-rule="evenodd" d="m1291.232 391.92358c0 2.7080078 -2.1343994 4.9250793 -4.842407 4.9250793c-2.7027588 0 -4.919922 -2.2170715 -4.919922 -4.9250793c0 -2.7080383 2.217163 -4.919922 4.919922 -4.919922c2.7080078 0 4.842407 2.2118835 4.842407 4.919922z"/><path fill-rule="evenodd" stroke="#99c941" stroke-linecap="butt" stroke-miterlimit="15.875" stroke-width=".793" d="m1291.232 391.92358c0 2.7080078 -2.1343994 4.9250793 -4.842407 4.9250793c-2.7027588 0 -4.919922 -2.2170715 -4.919922 -4.9250793c0 -2.7080383 2.217163 -4.919922 4.919922 -4.919922c2.7080078 0 4.842407 2.2118835 4.842407 4.919922z"/><path fill="#000" fill-opacity="0" fill-rule="evenodd" d="m1317.4027 391.92358c0 2.7080078 -2.1343994 4.9250793 -4.837158 4.9250793c-2.70813 0 -4.925171 -2.2170715 -4.925171 -4.9250793c0 -2.7080383 2.217041 -4.919922 4.925171 -4.919922c2.7027588 0 4.837158 2.2118835 4.837158 4.919922z"/><path fill-rule="evenodd" stroke="#99c941" stroke-linecap="butt" stroke-miterlimit="15.875" stroke-width=".793" d="m1317.4027 391.92358c0 2.7080078 -2.1343994 4.9250793 -4.837158 4.9250793c-2.70813 0 -4.925171 -2.2170715 -4.925171 -4.9250793c0 -2.7080383 2.217041 -4.919922 4.925171 -4.919922c2.7027588 0 4.837158 2.2118835 4.837158 4.919922z"/><path fill="#000" fill-opacity="0" fill-rule="evenodd" d="m1343.4907 391.92358c0 2.7080078 -2.211914 4.9250793 -4.919922 4.9250793c-2.7080078 0 -4.925171 -2.2170715 -4.925171 -4.9250793c0 -2.7080383 2.217163 -4.919922 4.925171 -4.919922c2.7080078 0 4.919922 2.2118835 4.919922 4.919922z"/><path fill-rule="evenodd" stroke="#99c941" stroke-linecap="butt" stroke-miterlimit="15.875" stroke-width=".793" d="m1343.4907 391.92358c0 2.7080078 -2.211914 4.9250793 -4.919922 4.9250793c-2.7080078 0 -4.925171 -2.2170715 -4.925171 -4.9250793c0 -2.7080383 2.217163 -4.919922 4.925171 -4.919922c2.7080078 0 4.919922 2.2118835 4.919922 4.919922z"/><path fill="#000" fill-opacity="0" fill-rule="evenodd" d="m1265.0614 418.09424c0 2.7080078 -2.1343994 4.9250793 -4.842407 4.9250793c-2.7080078 0 -4.919922 -2.2170715 -4.919922 -4.9250793c0 -2.7080383 2.211914 -4.919922 4.919922 -4.919922c2.7080078 0 4.842407 2.2118835 4.842407 4.919922z"/><path fill-rule="evenodd" stroke="#99c941" stroke-linecap="butt" stroke-miterlimit="15.875" stroke-width=".793" d="m1265.0614 418.09424c0 2.7080078 -2.1343994 4.9250793 -4.842407 4.9250793c-2.7080078 0 -4.919922 -2.2170715 -4.919922 -4.9250793c0 -2.7080383 2.211914 -4.919922 4.919922 -4.919922c2.7080078 0 4.842407 2.2118835 4.842407 4.919922z"/><path fill="#000" fill-opacity="0" fill-rule="evenodd" d="m1291.232 418.09424c0 2.7080078 -2.1343994 4.9250793 -4.842407 4.9250793c-2.7027588 0 -4.919922 -2.2170715 -4.919922 -4.9250793c0 -2.7080383 2.217163 -4.919922 4.919922 -4.919922c2.7080078 0 4.842407 2.2118835 4.842407 4.919922z"/><path fill-rule="evenodd" stroke="#99c941" stroke-linecap="butt" stroke-miterlimit="15.875" stroke-width=".793" d="m1291.232 418.09424c0 2.7080078 -2.1343994 4.9250793 -4.842407 4.9250793c-2.7027588 0 -4.919922 -2.2170715 -4.919922 -4.9250793c0 -2.7080383 2.217163 -4.919922 4.919922 -4.919922c2.7080078 0 4.842407 2.2118835 4.842407 4.919922z"/><path fill="#000" fill-opacity="0" fill-rule="evenodd" d="m1317.4027 418.09424c0 2.7080078 -2.1343994 4.9250793 -4.837158 4.9250793c-2.70813 0 -4.925171 -2.2170715 -4.925171 -4.9250793c0 -2.7080383 2.217041 -4.919922 4.925171 -4.919922c2.7027588 0 4.837158 2.2118835 4.837158 4.919922z"/><path fill-rule="evenodd" stroke="#99c941" stroke-linecap="butt" stroke-miterlimit="15.875" stroke-width=".793" d="m1317.4027 418.09424c0 2.7080078 -2.1343994 4.9250793 -4.837158 4.9250793c-2.70813 0 -4.925171 -2.2170715 -4.925171 -4.9250793c0 -2.7080383 2.217041 -4.919922 4.925171 -4.919922c2.7027588 0 4.837158 2.2118835 4.837158 4.919922z"/><path fill="#000" fill-opacity="0" fill-rule="evenodd" d="m1343.4907 418.09424c0 2.7080078 -2.211914 4.9250793 -4.919922 4.9250793c-2.7080078 0 -4.925171 -2.2170715 -4.925171 -4.9250793c0 -2.7080383 2.217163 -4.919922 4.925171 -4.919922c2.7080078 0 4.919922 2.2118835 4.919922 4.919922z"/><path fill-rule="evenodd" stroke="#99c941" stroke-linecap="butt" stroke-miterlimit="15.875" stroke-width=".793" d="m1343.4907 418.09424c0 2.7080078 -2.211914 4.9250793 -4.919922 4.9250793c-2.7080078 0 -4.925171 -2.2170715 -4.925171 -4.9250793c0 -2.7080383 2.217163 -4.919922 4.925171 -4.919922c2.7080078 0 4.919922 2.2118835 4.919922 4.919922z"/><path fill="#000" fill-opacity="0" fill-rule="evenodd" d="m1265.0614 444.10468c0 2.7028503 -2.1343994 4.9198914 -4.842407 4.9198914c-2.7080078 0 -4.919922 -2.217041 -4.919922 -4.9198914c0 -2.7080383 2.211914 -4.842407 4.919922 -4.842407c2.7080078 0 4.842407 2.134369 4.842407 4.842407z"/><path fill-rule="evenodd" stroke="#99c941" stroke-linecap="butt" stroke-miterlimit="15.875" stroke-width=".793" d="m1265.0614 444.10468c0 2.7028503 -2.1343994 4.9198914 -4.842407 4.9198914c-2.7080078 0 -4.919922 -2.217041 -4.919922 -4.9198914c0 -2.7080383 2.211914 -4.842407 4.919922 -4.842407c2.7080078 0 4.842407 2.134369 4.842407 4.842407z"/><path fill="#000" fill-opacity="0" fill-rule="evenodd" d="m1291.232 444.10468c0 2.7028503 -2.1343994 4.9198914 -4.842407 4.9198914c-2.7027588 0 -4.919922 -2.217041 -4.919922 -4.9198914c0 -2.7080383 2.217163 -4.842407 4.919922 -4.842407c2.7080078 0 4.842407 2.134369 4.842407 4.842407z"/><path fill-rule="evenodd" stroke="#99c941" stroke-linecap="butt" stroke-miterlimit="15.875" stroke-width=".793" d="m1291.232 444.10468c0 2.7028503 -2.1343994 4.9198914 -4.842407 4.9198914c-2.7027588 0 -4.919922 -2.217041 -4.919922 -4.9198914c0 -2.7080383 2.217163 -4.842407 4.919922 -4.842407c2.7080078 0 4.842407 2.134369 4.842407 4.842407z"/><path fill="#000" fill-opacity="0" fill-rule="evenodd" d="m1317.4027 444.10468c0 2.7028503 -2.1343994 4.9198914 -4.837158 4.9198914c-2.70813 0 -4.925171 -2.217041 -4.925171 -4.9198914c0 -2.7080383 2.217041 -4.842407 4.925171 -4.842407c2.7027588 0 4.837158 2.134369 4.837158 4.842407z"/><path fill-rule="evenodd" stroke="#99c941" stroke-linecap="butt" stroke-miterlimit="15.875" stroke-width=".793" d="m1317.4027 444.10468c0 2.7028503 -2.1343994 4.9198914 -4.837158 4.9198914c-2.70813 0 -4.925171 -2.217041 -4.925171 -4.9198914c0 -2.7080383 2.217041 -4.842407 4.925171 -4.842407c2.7027588 0 4.837158 2.134369 4.837158 4.842407z"/><path fill="#000" fill-opacity="0" fill-rule="evenodd" d="m1343.4907 444.10468c0 2.7028503 -2.211914 4.9198914 -4.919922 4.9198914c-2.7080078 0 -4.925171 -2.217041 -4.925171 -4.9198914c0 -2.7080383 2.217163 -4.842407 4.925171 -4.842407c2.7080078 0 4.919922 2.134369 4.919922 4.842407z"/><path fill-rule="evenodd" stroke="#99c941" stroke-linecap="butt" stroke-miterlimit="15.875" stroke-width=".793" d="m1343.4907 444.10468c0 2.7028503 -2.211914 4.9198914 -4.919922 4.9198914c-2.7080078 0 -4.925171 -2.217041 -4.925171 -4.9198914c0 -2.7080383 2.217163 -4.842407 4.925171 -4.842407c2.7080078 0 4.919922 2.134369 4.919922 4.842407z"/><path fill="#000" fill-opacity="0" fill-rule="evenodd" d="m1265.0614 470.358c0 2.6253357 -2.1343994 4.837219 -4.842407 4.837219c-2.7080078 0 -4.919922 -2.2118835 -4.919922 -4.837219c0 -2.7080383 2.211914 -4.9250793 4.919922 -4.9250793c2.7080078 0 4.842407 2.217041 4.842407 4.9250793z"/><path fill-rule="evenodd" stroke="#99c941" stroke-linecap="butt" stroke-miterlimit="15.875" stroke-width=".793" d="m1265.0614 470.358c0 2.6253357 -2.1343994 4.837219 -4.842407 4.837219c-2.7080078 0 -4.919922 -2.2118835 -4.919922 -4.837219c0 -2.7080383 2.211914 -4.9250793 4.919922 -4.9250793c2.7080078 0 4.842407 2.217041 4.842407 4.9250793z"/><path fill="#000" fill-opacity="0" fill-rule="evenodd" d="m1291.232 470.358c0 2.6253357 -2.1343994 4.837219 -4.842407 4.837219c-2.7027588 0 -4.919922 -2.2118835 -4.919922 -4.837219c0 -2.7080383 2.217163 -4.9250793 4.919922 -4.9250793c2.7080078 0 4.842407 2.217041 4.842407 4.9250793z"/><path fill-rule="evenodd" stroke="#99c941" stroke-linecap="butt" stroke-miterlimit="15.875" stroke-width=".793" d="m1291.232 470.358c0 2.6253357 -2.1343994 4.837219 -4.842407 4.837219c-2.7027588 0 -4.919922 -2.2118835 -4.919922 -4.837219c0 -2.7080383 2.217163 -4.9250793 4.919922 -4.9250793c2.7080078 0 4.842407 2.217041 4.842407 4.9250793z"/><path fill="#000" fill-opacity="0" fill-rule="evenodd" d="m1317.4027 470.358c0 2.6253357 -2.1343994 4.837219 -4.837158 4.837219c-2.70813 0 -4.925171 -2.2118835 -4.925171 -4.837219c0 -2.7080383 2.217041 -4.9250793 4.925171 -4.9250793c2.7027588 0 4.837158 2.217041 4.837158 4.9250793z"/><path fill-rule="evenodd" stroke="#99c941" stroke-linecap="butt" stroke-miterlimit="15.875" stroke-width=".793" d="m1317.4027 470.358c0 2.6253357 -2.1343994 4.837219 -4.837158 4.837219c-2.70813 0 -4.925171 -2.2118835 -4.925171 -4.837219c0 -2.7080383 2.217041 -4.9250793 4.925171 -4.9250793c2.7027588 0 4.837158 2.217041 4.837158 4.9250793z"/><path fill="#000" fill-opacity="0" fill-rule="evenodd" d="m1343.4907 470.358c0 2.6253357 -2.211914 4.837219 -4.919922 4.837219c-2.7080078 0 -4.925171 -2.2118835 -4.925171 -4.837219c0 -2.7080383 2.217163 -4.9250793 4.925171 -4.9250793c2.7080078 0 4.919922 2.217041 4.919922 4.9250793z"/><path fill-rule="evenodd" stroke="#99c941" stroke-linecap="butt" stroke-miterlimit="15.875" stroke-width=".793" d="m1343.4907 470.358c0 2.6253357 -2.211914 4.837219 -4.919922 4.837219c-2.7080078 0 -4.925171 -2.2118835 -4.925171 -4.837219c0 -2.7080383 2.217163 -4.9250793 4.925171 -4.9250793c2.7080078 0 4.919922 2.217041 4.919922 4.9250793z"/><path fill="#000" fill-opacity="0" fill-rule="evenodd" d="m1265.0614 496.44595c0 2.7080078 -2.1343994 4.919922 -4.842407 4.919922c-2.7080078 0 -4.919922 -2.211914 -4.919922 -4.919922c0 -2.6253357 2.211914 -4.842407 4.919922 -4.842407c2.7080078 0 4.842407 2.2170715 4.842407 4.842407z"/><path fill-rule="evenodd" stroke="#99c941" stroke-linecap="butt" stroke-miterlimit="15.875" stroke-width=".793" d="m1265.0614 496.44595c0 2.7080078 -2.1343994 4.919922 -4.842407 4.919922c-2.7080078 0 -4.919922 -2.211914 -4.919922 -4.919922c0 -2.6253357 2.211914 -4.842407 4.919922 -4.842407c2.7080078 0 4.842407 2.2170715 4.842407 4.842407z"/><path fill="#000" fill-opacity="0" fill-rule="evenodd" d="m1291.232 496.44595c0 2.7080078 -2.1343994 4.919922 -4.842407 4.919922c-2.7027588 0 -4.919922 -2.211914 -4.919922 -4.919922c0 -2.6253357 2.217163 -4.842407 4.919922 -4.842407c2.7080078 0 4.842407 2.2170715 4.842407 4.842407z"/><path fill-rule="evenodd" stroke="#99c941" stroke-linecap="butt" stroke-miterlimit="15.875" stroke-width=".793" d="m1291.232 496.44595c0 2.7080078 -2.1343994 4.919922 -4.842407 4.919922c-2.7027588 0 -4.919922 -2.211914 -4.919922 -4.919922c0 -2.6253357 2.217163 -4.842407 4.919922 -4.842407c2.7080078 0 4.842407 2.2170715 4.842407 4.842407z"/><path fill="#000" fill-opacity="0" fill-rule="evenodd" d="m1317.4027 496.44595c0 2.7080078 -2.1343994 4.919922 -4.837158 4.919922c-2.70813 0 -4.925171 -2.211914 -4.925171 -4.919922c0 -2.6253357 2.217041 -4.842407 4.925171 -4.842407c2.7027588 0 4.837158 2.2170715 4.837158 4.842407z"/><path fill-rule="evenodd" stroke="#99c941" stroke-linecap="butt" stroke-miterlimit="15.875" stroke-width=".793" d="m1317.4027 496.44595c0 2.7080078 -2.1343994 4.919922 -4.837158 4.919922c-2.70813 0 -4.925171 -2.211914 -4.925171 -4.919922c0 -2.6253357 2.217041 -4.842407 4.925171 -4.842407c2.7027588 0 4.837158 2.2170715 4.837158 4.842407z"/><path fill="#000" fill-opacity="0" fill-rule="evenodd" d="m1343.4907 496.44595c0 2.7080078 -2.211914 4.919922 -4.919922 4.919922c-2.7080078 0 -4.925171 -2.211914 -4.925171 -4.919922c0 -2.6253357 2.217163 -4.842407 4.925171 -4.842407c2.7080078 0 4.919922 2.2170715 4.919922 4.842407z"/><path fill-rule="evenodd" stroke="#99c941" stroke-linecap="butt" stroke-miterlimit="15.875" stroke-width=".793" d="m1343.4907 496.44595c0 2.7080078 -2.211914 4.919922 -4.919922 4.919922c-2.7080078 0 -4.925171 -2.211914 -4.925171 -4.919922c0 -2.6253357 2.217163 -4.842407 4.925171 -4.842407c2.7080078 0 4.919922 2.2170715 4.919922 4.842407z"/><path fill="#000" fill-opacity="0" fill-rule="evenodd" d="m1265.0614 522.6166c0 2.7080688 -2.1343994 4.919922 -4.842407 4.919922c-2.7080078 0 -4.919922 -2.211853 -4.919922 -4.919922c0 -2.6253052 2.211914 -4.842346 4.919922 -4.842346c2.7080078 0 4.842407 2.217041 4.842407 4.842346z"/><path fill-rule="evenodd" stroke="#99c941" stroke-linecap="butt" stroke-miterlimit="15.875" stroke-width=".793" d="m1265.0614 522.6166c0 2.7080688 -2.1343994 4.919922 -4.842407 4.919922c-2.7080078 0 -4.919922 -2.211853 -4.919922 -4.919922c0 -2.6253052 2.211914 -4.842346 4.919922 -4.842346c2.7080078 0 4.842407 2.217041 4.842407 4.842346z"/><path fill="#000" fill-opacity="0" fill-rule="evenodd" d="m1291.232 522.6166c0 2.7080688 -2.1343994 4.919922 -4.842407 4.919922c-2.7027588 0 -4.919922 -2.211853 -4.919922 -4.919922c0 -2.6253052 2.217163 -4.842346 4.919922 -4.842346c2.7080078 0 4.842407 2.217041 4.842407 4.842346z"/><path fill-rule="evenodd" stroke="#99c941" stroke-linecap="butt" stroke-miterlimit="15.875" stroke-width=".793" d="m1291.232 522.6166c0 2.7080688 -2.1343994 4.919922 -4.842407 4.919922c-2.7027588 0 -4.919922 -2.211853 -4.919922 -4.919922c0 -2.6253052 2.217163 -4.842346 4.919922 -4.842346c2.7080078 0 4.842407 2.217041 4.842407 4.842346z"/><path fill="#000" fill-opacity="0" fill-rule="evenodd" d="m1317.4027 522.6166c0 2.7080688 -2.1343994 4.919922 -4.837158 4.919922c-2.70813 0 -4.925171 -2.211853 -4.925171 -4.919922c0 -2.6253052 2.217041 -4.842346 4.925171 -4.842346c2.7027588 0 4.837158 2.217041 4.837158 4.842346z"/><path fill-rule="evenodd" stroke="#99c941" stroke-linecap="butt" stroke-miterlimit="15.875" stroke-width=".793" d="m1317.4027 522.6166c0 2.7080688 -2.1343994 4.919922 -4.837158 4.919922c-2.70813 0 -4.925171 -2.211853 -4.925171 -4.919922c0 -2.6253052 2.217041 -4.842346 4.925171 -4.842346c2.7027588 0 4.837158 2.217041 4.837158 4.842346z"/><path fill="#000" fill-opacity="0" fill-rule="evenodd" d="m1343.4907 522.6166c0 2.7080688 -2.211914 4.919922 -4.919922 4.919922c-2.7080078 0 -4.925171 -2.211853 -4.925171 -4.919922c0 -2.6253052 2.217163 -4.842346 4.925171 -4.842346c2.7080078 0 4.919922 2.217041 4.919922 4.842346z"/><path fill-rule="evenodd" stroke="#99c941" stroke-linecap="butt" stroke-miterlimit="15.875" stroke-width=".793" d="m1343.4907 522.6166c0 2.7080688 -2.211914 4.919922 -4.919922 4.919922c-2.7080078 0 -4.925171 -2.211853 -4.925171 -4.919922c0 -2.6253052 2.217163 -4.842346 4.925171 -4.842346c2.7080078 0 4.919922 2.217041 4.919922 4.842346z"/><path fill="#000" fill-opacity="0" fill-rule="evenodd" d="m1265.0614 548.7045c0 2.7080688 -2.1343994 4.92511 -4.842407 4.92511c-2.7080078 0 -4.919922 -2.217041 -4.919922 -4.92511c0 -2.7080078 2.211914 -4.919861 4.919922 -4.919861c2.7080078 0 4.842407 2.211853 4.842407 4.919861z"/><path fill-rule="evenodd" stroke="#99c941" stroke-linecap="butt" stroke-miterlimit="15.875" stroke-width=".793" d="m1265.0614 548.7045c0 2.7080688 -2.1343994 4.92511 -4.842407 4.92511c-2.7080078 0 -4.919922 -2.217041 -4.919922 -4.92511c0 -2.7080078 2.211914 -4.919861 4.919922 -4.919861c2.7080078 0 4.842407 2.211853 4.842407 4.919861z"/><path fill="#000" fill-opacity="0" fill-rule="evenodd" d="m1291.232 548.7045c0 2.7080688 -2.1343994 4.92511 -4.842407 4.92511c-2.7027588 0 -4.919922 -2.217041 -4.919922 -4.92511c0 -2.7080078 2.217163 -4.919861 4.919922 -4.919861c2.7080078 0 4.842407 2.211853 4.842407 4.919861z"/><path fill-rule="evenodd" stroke="#99c941" stroke-linecap="butt" stroke-miterlimit="15.875" stroke-width=".793" d="m1291.232 548.7045c0 2.7080688 -2.1343994 4.92511 -4.842407 4.92511c-2.7027588 0 -4.919922 -2.217041 -4.919922 -4.92511c0 -2.7080078 2.217163 -4.919861 4.919922 -4.919861c2.7080078 0 4.842407 2.211853 4.842407 4.919861z"/><path fill="#000" fill-opacity="0" fill-rule="evenodd" d="m1317.4027 548.7045c0 2.7080688 -2.1343994 4.92511 -4.837158 4.92511c-2.70813 0 -4.925171 -2.217041 -4.925171 -4.92511c0 -2.7080078 2.217041 -4.919861 4.925171 -4.919861c2.7027588 0 4.837158 2.211853 4.837158 4.919861z"/><path fill-rule="evenodd" stroke="#99c941" stroke-linecap="butt" stroke-miterlimit="15.875" stroke-width=".793" d="m1317.4027 548.7045c0 2.7080688 -2.1343994 4.92511 -4.837158 4.92511c-2.70813 0 -4.925171 -2.217041 -4.925171 -4.92511c0 -2.7080078 2.217041 -4.919861 4.925171 -4.919861c2.7027588 0 4.837158 2.211853 4.837158 4.919861z"/><path fill="#000" fill-opacity="0" fill-rule="evenodd" d="m1343.4907 548.7045c0 2.7080688 -2.211914 4.92511 -4.919922 4.92511c-2.7080078 0 -4.925171 -2.217041 -4.925171 -4.92511c0 -2.7080078 2.217163 -4.919861 4.925171 -4.919861c2.7080078 0 4.919922 2.211853 4.919922 4.919861z"/><path fill-rule="evenodd" stroke="#99c941" stroke-linecap="butt" stroke-miterlimit="15.875" stroke-width=".793" d="m1343.4907 548.7045c0 2.7080688 -2.211914 4.92511 -4.919922 4.92511c-2.7080078 0 -4.925171 -2.217041 -4.925171 -4.92511c0 -2.7080078 2.217163 -4.919861 4.925171 -4.919861c2.7080078 0 4.919922 2.211853 4.919922 4.919861z"/></g></svg>