<svg xmlns="http://www.w3.org/2000/svg" fill="none" viewBox="0 0 505 254"><path fill="#A43A8F" d="M409.187 16.4853L405.086 14.1074C404.02 13.451 403.2 12.3847 402.872 11.1549L402.38 9.18701C402.134 8.28416 401.806 7.30086 401.232 6.56274C399.428 4.02018 396.475 2.87212 393.606 3.36379L389.259 4.10195C388.111 4.26668 386.963 4.10188 385.98 3.52849C384.995 2.8721 383.765 2.46221 382.617 2.29875L380.484 2.05231C378.926 1.88884 377.287 2.13401 375.892 2.87213L375.729 2.95387C374.006 3.85672 371.956 3.61027 370.315 2.46222C369.906 2.21576 369.496 1.97051 369.004 1.80579L365.478 0.822486C364.412 0.494292 363.264 0.412575 362.197 0.49431C357.933 0.904238 354.653 4.02014 353.998 7.95596L353.423 11.2367C353.259 12.303 352.521 13.2046 351.537 13.6975C350.389 14.3527 349.404 15.3372 348.994 16.6487L348.749 17.0586C348.339 17.715 347.764 18.2897 347.108 18.6996C346.781 18.8631 346.535 19.1095 346.288 19.3547C344.895 20.9957 344.812 23.2918 345.878 24.9315L346.781 26.2443C347.354 27.1459 347.519 28.2123 347.191 29.1956C346.863 30.2619 346.781 31.4916 347.108 32.5579L347.191 32.8862C347.683 34.4442 348.749 35.6739 350.225 36.3303C351.455 36.9049 352.438 37.8883 353.176 39.0364L355.801 43.3004L388.357 54.2892L404.922 44.8584L406.398 43.3004C407.464 42.1523 408.121 40.6761 408.202 39.1181C408.284 38.2165 408.121 37.3149 407.792 36.412V36.3303C407.383 34.6076 407.711 32.8044 408.612 31.2465C409.432 29.7702 409.842 28.0475 409.76 26.326C409.76 25.6697 410.007 24.9315 410.417 24.4399C410.99 23.7835 411.4 23.0454 411.565 22.1438L411.647 21.5692C411.893 19.5195 410.908 17.5516 409.187 16.4853Z"/><path fill="#9AA0A6" stroke="#191919" d="M289.466 109.181L289.384 109.303V210.086L308.835 204.37L309.476 204.182V204.85V220.833H439.869L441.243 188.1L441.275 187.338L441.961 187.671L469.269 200.956L469.269 200.957C478.833 205.617 490.325 203.609 497.718 195.894C505.113 188.097 506.638 176.444 501.415 167.043L501.415 167.042L472.385 114.722L472.385 114.722C459.028 90.6144 433.125 75.9519 405.512 76.8474L346.634 78.8152C324.074 79.6295 302.981 90.7053 289.622 108.944L289.466 109.181ZM311.918 172.592L311.837 172.887L311.536 172.948L294.233 176.474L292.634 176.8L293.775 175.634L309.275 159.807L309.575 159.5L309.923 159.75L314.269 162.868L314.553 163.071L314.46 163.407L311.918 172.592Z"/><path fill="#191919" d="M363.592 76.1021L381.469 72.5762L398.198 74.954L392.375 84.7949L377.369 86.5175L369.577 84.0567L363.592 76.1021Z"/><path fill="#fff" stroke="#191919" d="M391.65 34.7932C391.842 34.152 391.65 33.3433 391.179 32.805C389.229 30.5879 388.972 27.3237 390.379 24.7724L390.385 24.762L390.391 24.7518C390.947 23.8489 390.962 22.6297 390.522 21.6019L390.522 21.6019L390.519 21.5957C390.015 20.3729 388.868 19.516 387.511 19.4448L387.511 19.445L387.497 19.4439L385.45 19.2794C384.362 19.208 383.358 19.5673 382.562 20.364C382.561 20.3644 382.561 20.3647 382.561 20.3651L376.986 26.0201L376.984 26.0223C376.02 26.9877 374.795 27.688 373.481 28.0376C371.292 28.6503 369.008 28.2983 367.082 26.985L367.082 26.985L367.077 26.9813L366.268 26.4145C365.693 26.0579 364.958 25.8348 364.287 25.7575L362.906 25.6765L362.902 25.6763C361.565 25.5874 360.235 25.0544 359.171 24.1683L359.163 24.1612L359.154 24.1538L358.262 23.3408C357.878 23.0255 357.422 22.9413 357.063 23.0947L357.063 23.0948L357.053 23.099C356.48 23.3282 356.188 23.9627 356.362 24.5418L356.383 24.6122V24.6857V24.6969C356.801 26.1746 356.711 27.7571 356 29.0971C355.48 30.1389 355.332 31.3261 355.63 32.5191L355.631 32.519L355.633 32.5305L356.371 35.8099L356.383 35.8642V35.9197V41.5782V41.7064L356.322 41.8187C354.953 44.3152 353.494 48.1198 352.756 52.0248C352.014 55.9474 352.018 59.8696 353.457 62.671L353.457 62.671L353.46 62.6759C354.811 65.3772 357.103 66.662 359.502 67.2743C361.684 67.8312 363.91 67.8215 365.545 67.8144C365.721 67.8136 365.89 67.8128 366.051 67.8128H366.551V68.3128V81.3595C367.892 83.2685 371.057 85.9911 375.224 87.5241C379.461 89.0828 384.697 89.3997 390.082 86.4081L390.092 86.4028L390.101 86.3979C391.673 85.6127 393.187 84.3226 394.321 83.2084C394.885 82.6546 395.348 82.1509 395.67 81.7863C395.83 81.6041 395.956 81.4568 396.04 81.3558C396.046 81.3489 396.052 81.3422 396.057 81.3358V67.1648V58.882V58.3611L396.577 58.3824C400.558 58.5449 404.279 57.9476 406.708 56.2667C407.911 55.4347 408.795 54.3392 409.251 52.9273C409.709 51.5141 409.751 49.7438 409.198 47.5434C408.405 45.225 406.421 43.8606 403.984 43.5821C401.531 43.3019 398.631 44.131 396.142 46.2249L396.013 46.3336L395.844 46.3417L390.677 46.5882L390.146 46.6135L390.153 46.0822L390.235 39.8503L390.236 39.7842L390.254 39.7205L391.648 34.8001L391.648 34.8001L391.65 34.7932Z"/><path stroke="#191919" stroke-miterlimit="10" stroke-width="1.385" d="M382.206 102.016L379.992 210.017"/><path fill="#fff" stroke="#191919" d="M457.504 162.175L451.207 159.217L451.109 159.171L451.039 159.089L433.411 138.429C432.365 137.265 431.455 136.718 430.728 136.543C430.02 136.372 429.451 136.544 429.011 136.906C428.091 137.666 427.676 139.346 428.184 140.784L431.949 149.296L432.29 150.068L431.449 149.996L431.491 149.498C431.449 149.996 431.449 149.996 431.449 149.996L431.448 149.996L431.446 149.996L431.435 149.995L431.393 149.992L431.23 149.978C431.087 149.965 430.877 149.947 430.608 149.924C430.07 149.877 429.296 149.81 428.353 149.726C426.467 149.558 423.906 149.324 421.203 149.063C415.813 148.541 409.816 147.903 407.531 147.446L407.531 147.446C406.235 147.187 405.237 147.159 404.508 147.273C403.773 147.387 403.36 147.637 403.158 147.885C402.971 148.116 402.916 148.406 403.03 148.763C403.147 149.127 403.445 149.557 403.965 149.978L406.627 151.35L406.205 152.256C405.767 152.073 404.834 151.856 403.962 151.679C403.536 151.593 403.14 151.519 402.85 151.467C402.705 151.441 402.587 151.42 402.506 151.406L402.412 151.39L402.388 151.386L402.382 151.385L402.38 151.385L402.38 151.385L402.38 151.385L402.372 151.383L402.364 151.382C401.997 151.308 401.638 151.33 401.457 151.421L401.45 151.425L401.442 151.428C400.661 151.79 400.269 152.178 400.093 152.516C399.924 152.84 399.921 153.181 400.051 153.54C400.327 154.302 401.18 155.058 402.007 155.436L409.545 158.632L409.164 159.557C409 159.491 408.597 159.381 408.042 159.248C407.502 159.119 406.856 158.976 406.233 158.844C405.61 158.711 405.012 158.588 404.569 158.499C404.348 158.454 404.166 158.418 404.04 158.392L403.893 158.363L403.865 158.358C403.475 158.319 403.195 158.304 402.898 158.338C402.602 158.372 402.265 158.456 401.775 158.643C401.26 158.942 400.959 159.304 400.817 159.672C400.671 160.045 400.672 160.468 400.839 160.916C401.18 161.826 402.219 162.832 404.021 163.459L404.028 163.461L404.035 163.464L416.088 168.056L415.934 169.023C415.048 169.065 413.995 169.028 412.912 168.985C412.845 168.983 412.778 168.98 412.711 168.978C411.681 168.937 410.623 168.896 409.614 168.91C408.536 168.925 407.542 169.004 406.724 169.204C405.9 169.406 405.321 169.716 404.991 170.14C404.736 170.473 404.673 170.714 404.68 170.879C404.686 171.036 404.76 171.212 404.975 171.415C405.433 171.849 406.368 172.247 407.723 172.6C410.156 173.234 413.612 173.644 417.071 174.054C417.415 174.095 417.759 174.136 418.102 174.177L418.203 174.189L418.291 174.24L441.654 187.613L457.504 162.175Z"/><path fill="#fff" stroke="#191919" d="M302.368 174.754L309.266 204.327L336.74 197.64L336.838 197.616L336.939 197.632C337.249 197.682 337.56 197.733 337.87 197.784C341.356 198.355 344.826 198.924 347.347 198.989C348.739 199.024 349.734 198.9 350.281 198.616C350.535 198.483 350.647 198.339 350.692 198.197C350.739 198.046 350.741 197.801 350.583 197.414C350.378 196.927 349.905 196.475 349.168 196.054C348.437 195.636 347.506 195.283 346.478 194.964C345.531 194.67 344.524 194.412 343.541 194.161C343.46 194.14 343.379 194.119 343.298 194.098C342.247 193.829 341.226 193.562 340.382 193.267L340.506 192.297L353.381 191.23L353.381 191.23L353.392 191.23C355.314 191.112 356.583 190.43 357.162 189.648C357.447 189.262 357.568 188.851 357.537 188.445C357.506 188.046 357.325 187.609 356.932 187.172C356.525 186.842 356.228 186.673 355.956 186.566C355.68 186.457 355.411 186.404 355.017 186.325L354.991 186.319L354.966 186.317L354.817 186.304C354.687 186.293 354.501 186.277 354.275 186.258C353.824 186.219 353.212 186.168 352.573 186.117C351.28 186.014 349.912 185.914 349.487 185.914L349.427 184.917L357.543 183.934C357.543 183.934 357.543 183.934 357.544 183.934C358.448 183.821 359.485 183.349 359.959 182.7C360.181 182.396 360.273 182.067 360.195 181.696C360.113 181.308 359.831 180.807 359.16 180.213L359.148 180.203L359.137 180.192C359.018 180.072 358.676 179.928 358.261 179.928H358.233L358.206 179.925L358.206 179.925L358.206 179.925L358.204 179.925L358.198 179.924L358.174 179.922L358.079 179.912C357.997 179.903 357.878 179.89 357.732 179.876C357.44 179.847 357.038 179.808 356.601 179.773C355.712 179.7 354.726 179.643 354.196 179.681L354.065 178.691L356.967 178.126C357.578 177.867 357.977 177.539 358.188 177.223C358.395 176.912 358.424 176.614 358.311 176.337C358.189 176.039 357.869 175.684 357.217 175.367C356.57 175.053 355.634 174.797 354.362 174.678C352.034 174.47 346.08 173.398 340.742 172.385C338.065 171.878 335.531 171.383 333.667 171.015C332.735 170.831 331.971 170.679 331.439 170.572C331.173 170.519 330.965 170.478 330.824 170.449L330.663 170.417L330.622 170.409L330.611 170.407L330.609 170.406L330.608 170.406C330.608 170.406 330.608 170.406 330.707 169.916L330.608 170.406L329.776 170.238L330.326 169.592L336.385 162.468C337.296 161.257 337.367 159.532 336.691 158.542C336.368 158.07 335.865 157.745 335.137 157.71C334.39 157.674 333.365 157.945 332.043 158.773L309.414 173.613L309.324 173.673L309.217 173.689L302.368 174.754Z"/><path fill="#191919" d="M386.799 103.247L385.651 82.9919L384.093 82.9101C376.795 82.5002 369.66 80.1211 363.592 76.1035C363.592 79.7929 365.313 83.32 368.266 85.5332C370.644 87.3376 373.433 88.7321 376.384 89.4702L378.68 90.0436L378.188 103.165H386.799V103.247Z"/><path fill="#191919" d="M382.78 83.7295C388.192 82.4167 393.113 79.7925 397.132 76.0201L398.28 74.9551L398.526 76.2666C399.018 79.1373 398.28 82.0886 396.64 84.5494C394.999 86.8455 392.703 88.6499 390.079 89.715C388.192 90.4531 386.225 90.8631 384.175 90.8631H382.289L382.78 83.7295Z"/><path fill="#fff" d="M382.699 89.1416C381.476 89.1416 380.484 88.1507 380.484 86.9272C380.484 85.705 381.476 84.7129 382.699 84.7129C383.921 84.7129 384.913 85.705 384.913 86.9272C384.913 88.1507 383.921 89.1416 382.699 89.1416Z"/><path fill="#191919" d="M301.841 174.509L310.534 207.312L302.907 210.018L294.133 175.985L301.841 174.509Z"/><path fill="#191919" d="M456.667 159.668L435.674 188.288L444.039 193.126L463.556 162.456L456.667 159.668Z"/><path fill="#A43A8F" d="M396.394 50.3534L395.737 45.8428L391.555 36.7402L384.092 53.1411C383.437 54.4539 381.796 54.8638 380.566 54.1257L378.025 52.5677C378.025 52.5677 378.025 52.5677 377.942 52.5677C375.564 51.1732 372.448 51.5831 370.397 53.4693L369.987 53.7975H364.575L365.97 51.3379C364.084 51.3379 362.279 51.9113 360.721 52.9776L359.983 53.4693C358.343 54.5356 356.129 53.3875 356.129 51.4196L355.966 41.6606L354.489 39.3645L349.979 53.2241C348.256 58.4714 348.174 64.0482 349.651 69.3786C350.061 70.8548 351.209 72.1663 352.685 72.5762C354.406 73.0691 356.211 72.4128 357.359 71.1013L357.524 70.8548C358.097 72.1663 359.245 73.0692 360.639 73.2326L361.951 73.3973C363.345 73.5608 364.822 73.0691 365.723 71.9211L366.626 70.8548L366.953 71.7564C367.446 73.3144 368.839 74.5454 370.397 74.7906C372.12 75.037 373.843 74.2989 374.744 72.8227L375.318 72.0028C376.794 73.3973 378.845 74.0525 380.894 73.7243L382.781 73.3973C385.241 72.9874 387.291 71.2647 388.029 68.8039L388.357 67.6571C391.965 66.2626 394.671 63.2284 395.737 59.5378C396.557 56.4218 396.804 53.3876 396.394 50.3534Z"/><path fill="#191919" d="M370.48 53.7963H364.33L369.25 45.1853C368.922 44.8571 368.184 44.1189 367.527 43.1356C366.708 41.8228 365.806 39.6085 366.379 36.8207C366.462 36.6573 366.626 36.5742 366.789 36.5742C366.954 36.6572 367.036 36.8207 367.036 36.9841C366.134 41.9045 369.824 44.8571 369.907 44.8571L370.152 45.0218L365.56 53.1399H370.48C370.645 53.1399 370.808 53.3033 370.808 53.468C370.808 53.5498 370.645 53.7963 370.48 53.7963Z"/><path fill="#191919" d="M380.977 37.1502C380.896 37.1502 380.896 37.1502 380.896 37.1502C379.829 36.822 378.19 36.822 376.549 37.0685C376.385 37.1502 376.221 36.9855 376.139 36.822C376.057 36.6573 376.221 36.4938 376.385 36.412C378.025 36.1656 379.829 36.1656 380.977 36.4938C381.141 36.5755 381.223 36.7403 381.223 36.9038C381.223 37.1502 381.141 37.1502 380.977 37.1502Z"/><path fill="#191919" d="M363.345 36.1658C363.264 36.1658 363.264 36.1658 363.264 36.1658C362.197 35.8376 360.558 35.8376 358.918 36.0841C358.753 36.1658 358.59 36.0011 358.508 35.8376C358.425 35.6729 358.59 35.5094 358.753 35.4277C360.394 35.1812 362.197 35.1812 363.345 35.5094C363.51 35.5911 363.592 35.7559 363.592 35.9193C363.592 36.1658 363.428 36.1658 363.345 36.1658Z"/><path fill="#191919" d="M373.924 58.8819C373.842 58.8819 373.678 58.8002 373.678 58.7172C373.596 58.5537 373.678 58.3072 373.761 58.3072C375.154 57.5691 376.467 56.5858 377.122 55.6012C377.205 55.4378 377.45 55.4378 377.533 55.5195C377.697 55.6012 377.696 55.8477 377.615 55.9294C376.877 56.914 375.564 57.9791 374.006 58.8002C374.006 58.8819 374.006 58.8819 373.924 58.8819Z"/><path fill="#191919" d="M399.428 51.5822C399.346 51.5822 399.264 51.5005 399.182 51.5005C399.1 51.3357 399.1 51.1723 399.265 51.0905L405.168 46.2519C405.333 46.1702 405.496 46.1702 405.578 46.3337C405.66 46.4984 405.66 46.6618 405.496 46.7436L399.593 51.5822C399.51 51.5005 399.428 51.5822 399.428 51.5822Z"/><path fill="#191919" d="M406.891 51.5822C406.808 51.5822 406.726 51.5005 406.644 51.5005L403.447 48.4663C403.364 48.3846 403.364 48.1382 403.447 48.0564C403.529 47.9747 403.774 47.9747 403.857 48.0564L407.054 51.0906C407.136 51.1723 407.136 51.4188 407.054 51.5005C407.054 51.5005 406.973 51.5822 406.891 51.5822Z"/><path fill="#191919" d="M379.008 44.4506C378.465 44.4506 378.024 44.0093 378.024 43.4661C378.024 42.9216 378.465 42.4814 379.008 42.4814C379.553 42.4814 379.993 42.9216 379.993 43.4661C379.993 44.0093 379.553 44.4506 379.008 44.4506Z"/><path fill="#191919" d="M361.377 43.4656C360.833 43.4656 360.393 43.0242 360.393 42.4797C360.393 41.9365 360.833 41.4951 361.377 41.4951C361.92 41.4951 362.362 41.9365 362.362 42.4797C362.362 43.0242 361.92 43.4656 361.377 43.4656Z"/><path fill="#191919" d="M289.049 176.969L289.705 176.887L300.939 174.756C301.104 174.673 301.268 174.837 301.349 175.001C301.432 175.247 301.268 175.329 301.104 175.411L289.869 177.543L289.131 177.707V176.969H289.049Z"/><path fill="#191919" d="M480.941 169.835C480.859 169.835 480.859 169.835 480.859 169.835L464.786 163.602L454.125 159.337C453.962 159.256 453.879 159.092 453.962 158.928C454.044 158.764 454.207 158.681 454.372 158.764L465.032 163.028L481.105 169.26C481.269 169.342 481.351 169.506 481.269 169.67C481.105 169.835 481.023 169.835 480.941 169.835Z"/><path fill="#191919" stroke="#191919" d="M134.89 95.0653L134.888 95.0625C133.33 93.2436 132.801 90.8087 133.238 88.5346C133.673 86.4489 134.975 84.6306 136.88 83.5911L136.883 83.5893L137.717 83.126L137.717 83.1261L137.726 83.1208C140.158 81.7025 141.189 78.7512 140.067 76.192C139.29 74.2871 139.381 72.0416 140.411 70.2395L140.413 70.2364C141.19 68.8547 142.484 67.7353 144.028 67.221L144.042 67.2163L144.056 67.2108L144.969 66.8452C147.152 66.1105 148.379 63.9278 148.072 61.6766C147.722 58.9554 148.598 56.2257 150.452 54.1041C151.425 53.0441 152.66 52.1646 153.973 51.6396L153.992 51.632L154.011 51.6229L154.364 51.4467C158.841 49.6295 162.364 46.0076 164.08 41.5289L164.081 41.5267C165.697 37.2445 165.609 32.3873 163.614 28.1861L163.53 27.9359L163.52 27.908L163.508 27.8814C162.74 26.2611 162.735 24.3775 163.509 22.6528C164.63 20.3303 167.036 18.8771 169.605 19.0477C171.264 19.158 172.675 17.9477 172.999 16.429L173.001 16.418L173.003 16.4069L173.282 14.7383L173.282 14.7384L173.283 14.7303C173.539 13.0244 174.562 11.493 176.09 10.6446L176.09 10.6446L176.097 10.6405C178.312 9.36178 181.041 9.69836 182.923 11.4092C182.924 11.41 182.924 11.4108 182.925 11.4115L184.398 12.7914C185.468 13.8535 187.215 13.601 188.027 12.4406C190.132 9.4621 193.804 8.1543 197.3 9.20258L197.301 9.20288C200.538 10.1663 202.899 12.965 203.249 16.3756L203.25 16.3796C203.464 18.3184 205.192 19.7264 207.139 19.5091L207.142 19.5087L210.293 19.1378L210.299 19.1371C213.014 18.7866 215.722 19.7507 217.557 21.7577C219.046 23.4228 219.833 25.6122 219.745 27.7981L219.744 27.8082V27.8183V28.0806C219.554 31.3469 221.436 34.4029 224.489 35.7811L224.496 35.7841C227.157 36.9378 229.298 39.0723 230.643 41.6666C232.063 44.6011 232.242 47.9843 231.174 51.1036C231.173 51.1043 231.173 51.1049 231.173 51.1056L229.506 55.8284L229.505 55.8313C228.58 58.5042 230.017 61.3795 232.588 62.3052L232.591 62.3063C235.569 63.3562 237.676 65.8974 238.292 68.9765L238.292 68.9768C238.553 70.2802 238.468 71.685 238.115 73.0117C237.322 75.8882 238.311 78.9743 240.706 80.7708C240.706 80.7713 240.707 80.7718 240.708 80.7723L242.65 82.2524L242.653 82.2546C245.119 84.1044 246.532 87.0128 246.532 90.105C246.532 92.5757 245.652 94.8653 243.973 96.7209L243.953 96.7422L243.937 96.7656L243.49 97.3897C239.88 101.351 234.744 103.595 229.438 103.416L229.433 103.416L148.516 101.561L148.513 101.561C143.191 101.471 138.321 99.1279 134.89 95.0653Z"/><path fill="#452393" d="M57.0209 95.1092L58.2258 94.832L59.5235 101.134L59.1526 101.32C59.1526 101.32 59.06 101.32 59.06 101.412C57.7624 101.968 52.4791 105.027 52.9426 110.867C53.4987 117.539 57.7624 121.99 57.9477 122.174L57.1136 123.009C55.3525 121.248 52.2011 116.613 51.7376 110.959C51.2742 104.75 56.3721 101.505 58.2258 100.486L57.0209 95.1092Z"/><path fill="#fff" stroke="#191919" d="M270.538 126.696V126.809V208.684L262.766 220.082L240.899 175.62L240.754 175.324L240.425 175.341L136.985 180.717L136.768 180.728L136.629 180.894L113.179 208.701L113.178 208.701C106.877 216.19 97.5625 220.572 87.7007 220.572C73.0904 220.572 60.2136 211.076 55.8296 197.102L31.5456 119.059L31.4764 118.837L31.2615 118.747L31.0682 119.208C31.2615 118.747 31.2614 118.747 31.2612 118.746L31.2604 118.746L31.2571 118.745L31.244 118.739L31.1922 118.718L30.9898 118.633L30.2176 118.309L27.4294 117.141C25.1034 116.166 21.9578 114.848 18.6789 113.475C12.1219 110.73 5.02974 107.763 2.89648 106.882L2.89649 106.882L2.89133 106.88C0.99898 106.123 0.360688 104.684 0.524888 103.447C0.691596 102.192 1.68962 101.054 3.30542 100.89C5.1322 100.754 8.20957 100.776 10.8512 100.834C12.1693 100.863 13.372 100.901 14.2452 100.932C14.6818 100.947 15.0359 100.96 15.2808 100.97C15.4032 100.974 15.4983 100.978 15.5627 100.981L15.6359 100.984L15.6545 100.985L15.6592 100.985L15.6603 100.985L15.6606 100.985L15.6819 100.485L15.6606 100.985L17.236 101.052L15.9872 100.089L7.10068 93.2393C6.43104 92.657 5.52157 91.6945 5.01015 90.629C4.50314 89.5726 4.41927 88.5057 5.22026 87.5524L5.2203 87.5524L5.22445 87.5473C5.93624 86.6772 6.83802 86.4328 7.72236 86.4328C8.4053 86.4328 9.0177 86.5722 9.52795 86.6884C9.67513 86.7219 9.81381 86.7535 9.94324 86.7792L17.3776 91.0927L17.9383 90.2678L10.9429 84.7451C10.1947 83.7612 9.4375 82.2951 9.4273 80.9702C9.42227 80.315 9.59901 79.7084 10.039 79.1929C10.4831 78.6725 11.2346 78.1994 12.4612 77.892C12.5302 77.8768 12.661 77.8704 12.8698 77.8957C13.0747 77.9205 13.3236 77.9718 13.61 78.0479C14.1827 78.2001 14.8691 78.4413 15.5902 78.7275C17.0311 79.2993 18.5676 80.0332 19.5283 80.5361L20.0449 79.6821L16.4495 77.1928C15.1673 76.106 14.5588 74.2569 14.8195 72.7031C14.9488 71.9327 15.2872 71.2607 15.8341 70.7869C16.377 70.3166 17.1664 70.006 18.2676 70.0274L18.2676 70.0275H18.2773C19.5667 70.0275 20.7665 70.4137 21.9411 70.9443C22.5287 71.2098 23.1019 71.5075 23.6764 71.8078L23.7587 71.8509C24.2926 72.13 24.8299 72.411 25.3637 72.657L55.7401 91.2713L56.6483 91.8279L56.4963 90.7736L55.1186 81.2222C55.3047 80.3785 55.8109 79.2931 56.6945 78.6716C57.5528 78.0679 58.8884 77.8195 60.9345 78.946C61.6365 79.405 62.2818 80.1495 62.8062 80.9193C63.331 81.6898 63.7076 82.4456 63.8791 82.8741L63.8794 82.8749L74.341 108.89L86.2896 155.48L86.5655 156.556L87.188 155.636L87.266 155.521C93.2643 146.662 99.2642 137.8 104.989 129.028L105.034 128.958L266.096 116.859C267.66 120.249 269.139 123.476 270.538 126.696Z"/><path fill="#191919" d="M271.132 149.519L249.534 135.522L105.59 131.351L95.5796 142.381L126.352 194.008L131.45 187.891L136.548 158.879L236.002 162.679L247.773 186.501L271.132 166.851V149.519Z"/><path fill="#CED0D4" d="M271.13 164.256V114.669C258.711 101.6 241.285 93.9993 222.84 94.0917L152.583 94.6474C132.747 94.8335 114.024 103.824 101.697 119.303L89.4619 134.504L131.45 187.892L129.967 220.982H262.789L244.807 180.477L271.13 164.256Z"/><path fill="#CED0D4" d="M168.062 94.8328L169.267 221.075H228.864L209.214 94.0908L168.062 94.8328Z"/><path fill="#fff" stroke="#191919" d="M169.214 206.82L270.724 185.891V220.574H159.482C159.507 220.502 159.536 220.423 159.569 220.339C159.718 219.965 159.944 219.513 160.227 219.053C160.805 218.112 161.555 217.239 162.26 216.887L162.574 216.73L162.533 216.383L162.533 216.382L162.533 216.382L162.533 216.382L162.533 216.382L162.533 216.377L162.53 216.35C162.528 216.325 162.525 216.287 162.522 216.237C162.516 216.137 162.511 215.991 162.513 215.811C162.519 215.45 162.557 214.967 162.684 214.465C162.937 213.463 163.519 212.457 164.852 212.103L165.07 212.046L165.171 211.844C165.29 211.607 165.243 211.348 165.22 211.23C165.205 211.151 165.178 211.041 165.153 210.937C165.137 210.874 165.122 210.812 165.111 210.763C165.04 210.446 164.995 210.104 165.093 209.731C165.281 209.012 166.084 207.914 169.214 206.82Z"/><path fill="#fff" stroke="#191919" d="M201.394 59.9954L201.424 61.011L202.21 60.3676C204.664 58.3596 207.545 57.5516 209.982 57.8248C212.406 58.0964 214.367 59.4254 215.132 61.6993C215.69 63.8507 215.66 65.576 215.219 66.9513C214.779 68.3244 213.916 69.3909 212.732 70.2055C210.338 71.8525 206.646 72.4569 202.646 72.3645L202.134 72.3527V72.8644V81.0209V94.9276C202.13 94.9328 202.125 94.9381 202.12 94.9436C202.035 95.043 201.91 95.1876 201.749 95.3669C201.427 95.7255 200.966 96.2214 200.407 96.7684C199.284 97.8688 197.795 99.1501 196.283 99.9509L196.283 99.9508L196.276 99.9548C190.958 102.884 185.807 102.548 181.641 101.002C177.548 99.482 174.438 96.804 173.104 94.9514V82.1338V81.6338H172.604C172.423 81.6338 172.232 81.6349 172.032 81.636C170.422 81.6452 168.264 81.6574 166.144 81.1273C163.781 80.5366 161.52 79.2844 160.168 76.6273C158.804 73.8084 158.828 69.9328 159.562 66.0761C160.294 62.234 161.713 58.5051 163.033 56.0472L163.112 55.9005L163.087 55.7358L160.578 39.1541L200.759 38.5214L201.394 59.9954Z"/><path fill="#191919" d="M172.695 87.6953L182.798 81.0215C182.798 81.0215 179.647 81.5786 177.7 81.7634C175.755 81.9495 172.695 82.0419 172.695 82.0419V87.6953Z"/><path fill="#191919" d="M177.053 68.0448H170.564L175.476 59.3326C174.457 58.3121 171.862 55.4396 172.789 50.9897C172.881 50.6201 173.16 50.434 173.531 50.5264C173.9 50.6202 174.086 50.8974 173.994 51.2683C173.067 55.903 176.497 58.683 176.682 58.7768L177.053 59.1463L176.774 59.6111L172.603 67.0258H177.053C177.423 67.0258 177.608 67.3029 177.608 67.5815C177.608 67.7663 177.423 68.0448 177.053 68.0448Z"/><path fill="#191919" d="M187.433 51.6381C187.341 51.6381 187.341 51.6381 187.341 51.6381C186.32 51.3595 184.746 51.2671 183.262 51.5457C182.891 51.638 182.614 51.4533 182.614 51.0824C182.521 50.7115 182.706 50.4329 183.077 50.4329C184.746 50.1558 186.506 50.1558 187.712 50.5253C188.081 50.6191 188.267 50.8962 188.081 51.2672C187.896 51.4533 187.712 51.6381 187.433 51.6381Z"/><path fill="#191919" d="M170.007 50.7124C169.914 50.7124 169.914 50.7124 169.914 50.7124C168.895 50.4338 167.319 50.3414 165.837 50.62C165.466 50.7124 165.188 50.5275 165.188 50.1566C165.095 49.7857 165.28 49.5072 165.651 49.5072C167.319 49.2286 169.08 49.2286 170.285 49.5996C170.656 49.6934 170.841 49.9704 170.656 50.3414C170.564 50.5275 170.285 50.7124 170.007 50.7124Z"/><path fill="#191919" d="M180.482 73.0485C180.296 73.0485 180.111 72.9547 179.925 72.6776C179.833 72.399 179.833 72.028 180.204 71.8433C181.501 71.1015 182.799 70.1749 183.448 69.2483C183.633 68.9698 184.004 68.8774 184.283 69.1545C184.56 69.3407 184.652 69.7116 184.375 69.9887C183.541 71.0091 182.243 72.1205 180.76 72.9547C180.667 73.0485 180.575 73.0485 180.482 73.0485Z"/><path fill="#191919" d="M205.508 65.7261C205.321 65.7261 205.137 65.6322 205.044 65.5398C204.858 65.2627 204.858 64.8918 205.137 64.7057L210.976 59.8866C211.253 59.7018 211.624 59.7018 211.81 59.9789C211.995 60.2575 211.995 60.6284 211.717 60.8131L205.879 65.6322C205.786 65.726 205.692 65.7261 205.508 65.7261Z"/><path fill="#191919" d="M212.922 65.727C212.83 65.727 212.551 65.6346 212.551 65.5408L209.4 62.4825C209.122 62.2978 209.122 61.9268 209.4 61.6483C209.585 61.3711 209.956 61.3711 210.235 61.6483L213.385 64.7066C213.664 64.8928 213.664 65.2637 213.385 65.5408C213.293 65.727 213.014 65.727 212.922 65.727Z"/><path fill="#191919" d="M185.395 58.5926C185.958 58.5926 186.414 58.1349 186.414 57.5722C186.414 57.0094 185.958 56.5518 185.395 56.5518C184.831 56.5518 184.375 57.0094 184.375 57.5722C184.375 58.1349 184.831 58.5926 185.395 58.5926Z"/><path fill="#191919" d="M168.061 57.6648C168.626 57.6648 169.082 57.2071 169.082 56.6443C169.082 56.0801 168.626 55.624 168.061 55.624C167.499 55.624 167.042 56.0801 167.042 56.6443C167.042 57.2071 167.499 57.6648 168.061 57.6648Z"/><path fill="#191919" d="M164.261 194.194L146.372 137.376L155.178 125.974L144.24 123.564L150.914 97.1484L152.119 97.427L145.631 122.637L157.31 125.233L147.763 137.561L165.374 193.823L164.261 194.194Z"/><path fill="#191919" d="M229.699 185.387L228.495 185.294L236.281 133.296L224.137 122.823L234.52 119.393L220.802 97.611L221.821 96.9629L236.373 120.041L226.548 123.286L237.578 132.74L229.699 185.387Z"/><path stroke="#191919" stroke-miterlimit="10" stroke-width="1.146" d="M249.812 189.744L268.536 185.852"/><path fill="#191919" stroke="#191919" d="M205.564 49.3222V49.3844L205.579 49.4447C205.656 49.749 205.657 49.9697 205.657 50.3412V50.3417V50.3423V50.3428V50.3433V50.3439V50.3444V50.345V50.3455V50.3461V50.3466V50.3471V50.3477V50.3482V50.3488V50.3493V50.3498V50.3504V50.3509V50.3515V50.352V50.3526V50.3531V50.3536V50.3542V50.3547V50.3553V50.3558V50.3563V50.3569V50.3574V50.358V50.3585V50.3591V50.3596V50.3601V50.3607V50.3612V50.3618V50.3623V50.3629V50.3634V50.3639V50.3645V50.365V50.3656V50.3661V50.3667V50.3672V50.3677V50.3683V50.3688V50.3694V50.3699V50.3705V50.371V50.3715V50.3721V50.3726V50.3732V50.3737V50.3743V50.3748V50.3753V50.3759V50.3764V50.377V50.3775V50.3781V50.3786V50.3791V50.3797V50.3802V50.3808V50.3813V50.3819V50.3824V50.3829V50.3835V50.384V50.3846V50.3851V50.3857V50.3862V50.3868V50.3873V50.3878V50.3884V50.3889V50.3895V50.39V50.3906V50.3911V50.3916V50.3922V50.3927V50.3933V50.3938V50.3944V50.3949V50.3955V50.396V50.3965V50.3971V50.3976V50.3982V50.3987V50.3993V50.3998V50.4004V50.4009V50.4014V50.402V50.4025V50.4031V50.4036V50.4042V50.4047V50.4053V50.4058V50.4063V50.4069V50.4074V50.408V50.4085V50.4091V50.4096V50.4102V50.4107V50.4112V50.4118V50.4123V50.4129V50.4134V50.414V50.4145V50.4151V50.4156V50.4161V50.4167V50.4172V50.4178V50.4183V50.4189V50.4194V50.42V50.4205V50.421V50.4216V50.4221V50.4227V50.4232V50.4238V50.4243V50.4249V50.4254V50.426V50.4265V50.427V50.4276V50.4281V50.4287V50.4292V50.4298V50.4303V50.4309V50.4314V50.4319V50.4325V50.433V50.4336V50.4341V50.4347V50.4352V50.4358V50.4363V50.4369V50.4374V50.4379V50.4385V50.439V50.4396V50.4401V50.4407V50.4412V50.4418V50.4423V50.4429V50.4434V50.4439V50.4445V50.445V50.4456V50.4461V50.4467V50.4472V50.4478V50.4483V50.4489V50.4494V50.4499V50.4505V50.451V50.4516V50.4521V50.4527V50.4532V50.4538V50.4543V50.4549V50.4554V50.4559V50.4565V50.457V50.4576V50.4581V50.4587V50.4592V50.4598V50.4603V50.4609V50.4614V50.4619V50.4625V50.463V50.4636V50.4641V50.4647V50.4652V50.4658V50.4663V50.4669V50.4674V50.4679V50.4685V50.469V50.4696V50.4701V50.4707V50.4712V50.4718V50.4723V50.4729V50.4734V50.4739V50.4745V50.475V50.4756V50.4761V50.4767V50.4772V50.4778V50.4783V50.4789V50.4794V50.4799V50.4805V50.481V50.4816V50.4821V50.4827V50.4832V50.4838V50.4843V50.4849V50.4854V50.486V50.4865V50.487V50.4876V50.4881V50.4887V50.4892V50.4898V50.4903V50.4909V50.4914V50.492V50.4925V50.493V50.4936V50.4941V50.4947V50.4952V50.4958V50.4963V50.4969V50.4974V50.498V50.4985V50.499V50.4996V50.5001V50.5007V50.5012V50.5018V50.5023V50.5029V50.5034V50.504V50.5045V50.505V50.5056V50.5061V50.5067V50.5072V50.5078V50.5083V50.5089V50.5094V50.51V50.5105V50.511V50.5116V50.5121V50.5127V50.5132V50.5138V50.5143V50.5149V50.5154V50.516V50.5165V50.517V50.5176V50.5181V50.5187V50.5192V50.5198V50.5203V50.5209V50.5214V50.522V50.5225V50.523V50.5236V50.5241V50.5247V50.5252V50.5258V50.5263V50.5269V50.5274V50.528V50.5285V50.529V50.5296V50.5301V50.5307V50.5312V50.5318V50.5323V50.5329V50.5334V50.5339V50.5345V50.535V50.5356V50.5361V50.5367V50.5372V50.5378V50.5383V50.5389V50.5394V50.5399V50.5405V50.541V50.5416V50.5421V50.5427V50.5432V50.5438V50.5443V50.5448V50.5454V50.5459V50.5465V50.547V50.5476V50.5481V50.5487V50.5492V50.5497V50.5503V50.5508V50.5514V50.5519V50.5525V50.553V50.5536V50.5541V50.5546V50.5552V50.5557V50.5563V50.5568V50.5574V50.5579V50.5585V50.559V50.5595V50.5601V50.5606V50.5612V50.5617V50.5623V50.5628V50.5634V50.5639V50.5644V50.565V50.5655V50.5661V50.5666V50.5672V50.5677V50.5683V50.5688V50.5693V50.5699V50.5704V50.571V50.5715V50.5721V50.5726V50.5731V50.5737V50.5742V50.5748V50.5753V50.5759V50.5764V50.577V50.5775V50.578V50.5786V50.5791V50.5797V50.5802V50.5808V50.5813V50.5818V50.5824V50.5829V50.5835V50.584V50.5846V50.5851V50.5856V50.5862V50.5867V50.5873V50.5878V50.5884V50.5889V50.5894V50.59V50.5905V50.5911V50.5916V50.5922V50.5927V50.5932V50.5938V50.5943V50.5949V50.5954V50.596V50.5965V50.597V50.5976V50.5981V50.5987V50.5992V50.5998V50.6003V50.6008V50.6014V50.6019V50.6025V50.603V50.6036V50.6041V50.6046V50.6052V50.6057V50.6063V50.6068V50.6074V50.6079V50.6084V50.609V50.6095V50.6101V50.6106V50.6111V50.6117V50.6122V50.6128V50.6133V50.6139V50.6144V50.6149V50.6155V50.616V50.6166V50.6171V50.6176V50.6182V50.6187V50.6193V50.6198V50.6204V50.6209V50.6214V50.622V50.6225V50.6231V50.6236V50.6242V50.6248V50.6253V50.6259V50.6265V50.627V50.6276V50.6282V50.6287V50.6293V50.6299V50.6305V50.631V50.6316V50.6322V50.6328V50.6334V50.634V50.6346V50.6352V50.6358V50.6364V50.637V50.6376V50.6382V50.6388V50.6394V50.64V50.6406V50.6412V50.6418V50.6424V50.6431V50.6437V50.6443V50.6449V50.6456V50.6462V50.6468V50.6474V50.6481V50.6487V50.6493V50.65V50.6506V50.6513V50.6519V50.6526V50.6532V50.6538V50.6545V50.6551V50.6558V50.6565V50.6571V50.6578V50.6584V50.6591V50.6597V50.6604V50.6611V50.6617V50.6624V50.6631V50.6638V50.6644V50.6651V50.6658V50.6665V50.6671V50.6678V50.6685V50.6692V50.6699V50.6706V50.6712V50.6719V50.6726V50.6733V50.674V50.6747V50.6754V50.6761V50.6768V50.6775V50.6782V50.6789V50.6796V50.6803V50.681V50.6817V50.6824V50.6831V50.6839V50.6846V50.6853V50.686V50.6867V50.6874V50.6882V50.6889V50.6896V50.6903V50.691V50.6918V50.6925V50.6932V50.694V50.6947V50.6954V50.6962V50.6969V50.6976V50.6984V50.6991V50.6998V50.7006V50.7013V50.7021V50.7028V50.7036V50.7043V50.705V50.7058V50.7065V50.7073V50.708V50.7088V50.7095V50.7103V50.7111V50.7118V50.7126V50.7133V50.7141V50.7148V50.7156V50.7164V50.7171V50.7179V50.7186V50.7194V50.7202V50.7209V50.7217V50.7225V50.7232V50.724V50.7248V50.7256V50.7263V50.7271V50.7279V50.7287V50.7294V50.7302V50.731V50.7318V50.7325V50.7333V50.7341V50.7349V50.7357V50.7365V50.7372V50.738V50.7388V50.7396V50.7404V50.7412V50.7419V50.7427V50.7435V50.7443V50.7451V50.7459V50.7467V50.7475V50.7483V50.7491V50.7499V50.7507V50.7514V50.7522V50.753V50.7538V50.7546V50.7554V50.7562V50.757V50.7578V50.7586V50.7594V50.7602V50.761V50.7618V50.7626V50.7634V50.7642V50.765V50.7658V50.7666V50.7674V50.7683V50.7691V50.7699V50.7707V50.7715V50.7723V50.7731V50.7739V50.7747V50.7755V50.7763V50.7771V50.7779V50.7787V50.7796V50.7804V50.7812V50.782V50.7828V50.7836V50.7844V50.7852V50.786V50.7869V50.7877V50.7885V50.7893V50.7901V50.7909V50.7917V50.7925V50.7934V50.7942V50.795V50.7958V50.7966V50.7974V50.7982V50.799V50.7999V50.8007V50.8015V50.8023V50.8031V50.8039V50.8047V50.8056V50.8064V50.8072V50.808V50.8088V50.8096V50.8104V50.8113V50.8121V50.8129V50.8137V50.8145V50.8153V50.8161V50.8169V50.8178V50.8186V50.8194V50.8202V50.821V50.8218V50.8226V50.8235V50.8243V50.8251V50.8259V50.8267V50.8275V50.8283V50.8291V50.8299V50.8308V50.8316V50.8324V50.8332V50.834V50.8348V50.8356V50.8364V50.8372V50.838V50.8388V50.8396V50.8405V50.8413V50.8421V50.8429V50.8437V50.8445V50.8453V50.8461V50.8469V50.8477V50.8485V50.8493V50.8501V50.8509V50.8517V50.8525V50.8533V50.8541V50.8549V50.8557V50.8565V50.8573V50.8581V50.8589V50.8597V50.8605V50.8613V50.8621V50.8629V50.8637V50.8645V50.8653V50.8661V50.8668V50.8676V50.8684V50.8692V50.87V50.8708V50.8716V50.8724V50.8731V50.8739V50.8747V50.8755V50.8763V50.8771V50.8779V50.8786V50.8794V50.8802V50.881V50.8818V50.8825V50.8833V50.8841V50.8849V50.8856V50.8864V50.8872V50.8879V50.8887V50.8895V50.8903V50.891V50.8918V50.8926V50.8933V50.8941V50.8949V50.8956V50.8964V50.8971V50.8979V50.8987V50.8994V50.9002V50.9009V50.9017V50.9024V50.9032V50.9039V50.9047V50.9055V50.9062V50.9069V50.9077V50.9084V50.9092V50.9099V50.9107V50.9114V50.9122V50.9129V50.9136V50.9144V50.9151V50.9158V50.9166V50.9173V50.918V50.9188V50.9195V50.9202V50.921V50.9217V50.9224V50.9231V50.9239V50.9246V50.9253V50.926V50.9267V50.9275V50.9282V50.9289V50.9296V50.9303V50.931V50.9317V50.9324V50.9331V50.9338V50.9345V50.9352V50.9359V50.9366V50.9373V50.938V50.9387V50.9394V50.9401V50.9408V50.9415V50.9422V50.9429V50.9436V50.9442V50.9449V50.9456V50.9463V50.947V50.9476V50.9483V50.949V50.9497V50.9503V50.951V50.9517V50.9523V50.953V50.9536V50.9543V50.955V50.9556V50.9563V50.9569V50.9576V50.9582V50.9589V50.9595V50.9602V50.9608V50.9615V50.9621V50.9627V50.9634V50.964V50.9647V50.9653V50.9659V50.9665V50.9672V50.9678V50.9684V50.969V50.9697V50.9703V50.9709V50.9715V50.9721V50.9727V50.9734V50.974V50.9746V50.9752V50.9758V50.9764V50.977V50.9776V50.9782V50.9788V50.9793V50.9799V50.9805V50.9811V50.9817V50.9823V50.9828V50.9834V50.984V50.9846V50.9851V50.9857V50.9863V50.9868V50.9874V50.988V50.9885V50.9891V50.9896V50.9902V50.9907C205.657 52.1737 205.564 53.4141 205.215 54.5503L205.205 54.5824L205.199 54.6156L205.109 55.1579C204.699 56.9436 203.524 58.4907 201.962 59.2998L200.265 57.9278C197.974 55.9871 196.66 52.9946 196.922 50.017C196.922 50.0161 196.923 50.0152 196.923 50.0143L197.106 48.1725C197.243 47.0568 196.257 46.2901 195.25 46.4156L195.242 46.4166L195.234 46.4179L193.473 46.6964L193.461 46.6983L193.449 46.7008C191.5 47.1068 189.536 45.8023 189.128 43.8435L189.126 43.8338L189.124 43.8241L188.759 42.3648C188.604 41.3942 187.634 40.8942 186.745 41.147L182.95 42.1644C182.95 42.1645 182.95 42.1646 182.949 42.1647C181.382 42.5765 179.748 41.9972 178.855 40.6963L178.855 40.6962L178.849 40.6872L177.185 38.3769C176.887 37.9372 176.391 37.7459 175.928 37.7459C175.462 37.7459 174.967 37.9379 174.629 38.3425L174.622 38.3512L174.615 38.3601L172.857 40.6735C171.963 41.8086 170.493 42.3092 169.088 42.0654L167.896 41.7899L167.881 41.7863L167.865 41.7838C167.077 41.6528 166.133 42.1638 165.992 43.1267C165.749 44.5749 164.709 45.636 163.306 46.0554C162.147 46.2988 161.423 47.2618 161.539 48.4425C161.539 48.4433 161.54 48.4442 161.54 48.4451L161.951 53.0384L160.816 50.7671C160.017 49.1688 159.569 47.3869 159.479 45.5097V45.3355V45.3129L159.477 45.2904C159.393 44.3635 159.47 43.4259 159.637 42.4683C159.644 42.4566 159.65 42.4443 159.657 42.4313C159.705 42.3348 159.747 42.2074 159.754 42.0526C160.112 40.1206 160.993 38.177 162.23 36.4881L162.296 36.4237L162.321 36.3991L162.342 36.3712C163.514 34.8389 164.948 33.4962 166.644 32.515L166.66 32.5054L166.676 32.4946C169.828 30.3326 174.36 28.6895 180.853 28.6895C188.62 28.6895 194.2 31.1075 198.076 34.4973C201.96 37.8935 204.161 42.2911 205.114 46.2858L205.146 46.4213L205.193 46.4687C205.196 46.6072 205.226 46.7568 205.246 46.8528C205.247 46.8593 205.248 46.8656 205.249 46.8717C205.276 47.0045 205.286 47.0657 205.286 47.0979V47.1594L205.301 47.2192C205.338 47.3641 205.358 47.5372 205.382 47.7632L205.386 47.8018C205.406 47.9938 205.429 48.2164 205.471 48.4432V48.4434V48.4438V48.4441V48.4445V48.4448V48.4452V48.4455V48.4459V48.4462V48.4466V48.4469V48.4473V48.4476V48.448V48.4483V48.4487V48.449V48.4494V48.4497V48.45V48.4504V48.4507V48.4511V48.4514V48.4517V48.4521V48.4524V48.4527V48.4531V48.4534V48.4537V48.454V48.4544V48.4547V48.455V48.4553V48.4557V48.456V48.4563V48.4566V48.457V48.4573V48.4576V48.4579V48.4582V48.4585V48.4588V48.4592V48.4595V48.4598V48.4601V48.4604V48.4607V48.461V48.4613V48.4616V48.4619V48.4622V48.4626V48.4629V48.4632V48.4635V48.4638V48.4641V48.4644V48.4647V48.465V48.4653V48.4656V48.4659V48.4662V48.4664V48.4667V48.467V48.4673V48.4676V48.4679V48.4682V48.4685V48.4688V48.4691V48.4694V48.4697V48.4699V48.4702V48.4705V48.4708V48.4711V48.4714V48.4717V48.472V48.4722V48.4725V48.4728V48.4731V48.4734V48.4736V48.4739V48.4742V48.4745V48.4748V48.4751V48.4753V48.4756V48.4759V48.4762V48.4764V48.4767V48.477V48.4773V48.4776V48.4778V48.4781V48.4784V48.4787V48.4789V48.4792V48.4795V48.4798V48.48V48.4803V48.4806V48.4809V48.4811V48.4814V48.4817V48.4819V48.4822V48.4825V48.4828V48.483V48.4833V48.4836V48.4839V48.4841V48.4844V48.4847V48.4849V48.4852V48.4855V48.4858V48.486V48.4863V48.4866V48.4868V48.4871V48.4874V48.4876V48.4879V48.4882V48.4885V48.4887V48.489V48.4893V48.4895V48.4898V48.4901V48.4904V48.4906V48.4909V48.4912V48.4914V48.4917V48.492V48.4923V48.4925V48.4928V48.4931V48.4933V48.4936V48.4939V48.4942V48.4944V48.4947V48.495V48.4953V48.4955V48.4958V48.4961V48.4964V48.4966V48.4969V48.4972V48.4975V48.4977V48.498V48.4983V48.4986V48.4988V48.4991V48.4994V48.4997V48.4999V48.5002V48.5005V48.5008V48.5011V48.5013V48.5016V48.5019V48.5022V48.5025V48.5028V48.503V48.5033V48.5036V48.5039V48.5042V48.5045V48.5047V48.505V48.5053V48.5056V48.5059V48.5062V48.5065V48.5068V48.507V48.5073V48.5076V48.5079V48.5082V48.5085V48.5088V48.5091V48.5094V48.5097V48.51V48.5103V48.5106V48.5109V48.5112V48.5115V48.5118V48.5121V48.5124V48.5127V48.513V48.5133V48.5136V48.5139V48.5142V48.5145V48.5148V48.5151V48.5154V48.5157V48.5161V48.5164V48.5167V48.517V48.5173V48.5176V48.5179V48.5182V48.5186V48.5189V48.5192V48.5195V48.5198V48.5202V48.5205V48.5208V48.5211V48.5215V48.5218V48.5221V48.5224V48.5228V48.5231V48.5234V48.5238V48.5241V48.5244V48.5248V48.5251V48.5255V48.5258V48.5261V48.5265V48.5268V48.5272V48.5275V48.5278V48.5282V48.5285V48.5289V48.5292V48.5296V48.5299V48.5303V48.5306V48.531V48.5314V48.5317V48.5321V48.5324V48.5328V48.5332V48.5335V48.5339V48.5343V48.5346V48.535V48.5354V48.5357V48.5361V48.5365V48.5369V48.5372V48.5376V48.538V48.5384V48.5388V48.5391V48.5395V48.5399V48.5403V48.5407V48.5411V48.5415V48.5419V48.5423V48.5427V48.5431V48.5435V48.5439V48.5443V48.5447V48.5451V48.5455V48.5459V48.5463V48.5467V48.5471V48.5475V48.548V48.5484V48.5488V48.5492V48.5496V48.5501V48.5505V48.5509V48.5513V48.5518V48.5522V48.5526V48.5531V48.5535V48.5539V48.5544V48.5548V48.5553V48.5557V48.5562V48.5566V48.5571V48.5575V48.558V48.5584V48.5589V48.5593V48.5598V48.5603V48.5607V48.5612V48.5617V48.5621V48.5626V48.5631V48.5635V48.564V48.5645V48.565V48.5655V48.5659V48.5664V48.5669V48.5674V48.5679V48.5684V48.5689V48.5694V48.5699V48.5704V48.5709V48.5714V48.5719V48.5724V48.5729V48.5734V48.574V48.5745V48.575V48.5755V48.576V48.5766V48.5771V48.5776V48.5782V48.5787V48.5792V48.5798V48.5803C205.471 48.7694 205.502 48.9262 205.525 49.0392L205.527 49.049C205.551 49.167 205.564 49.2382 205.564 49.3222Z"/><path fill="#CED0D4" d="M113.68 38.9031C113.763 38.9031 113.848 38.9031 113.848 38.8505C114.769 38.5875 116.194 38.4298 117.617 38.4824C117.869 38.4824 118.036 38.3772 118.036 38.2194C118.036 38.0616 117.785 37.9564 117.617 37.9564C116.11 37.9038 114.517 38.1142 113.513 38.3772C113.261 38.4298 113.261 38.5875 113.261 38.7454C113.345 38.8505 113.429 38.9031 113.68 38.9031Z"/><path fill="#191919" stroke="#191919" d="M306.244 15.9485L306.245 15.9495C309.366 19.897 310.471 25.04 309.276 30.0065C308.043 34.888 306.315 42.2284 304.894 48.3939C304.184 51.4777 303.551 54.269 303.095 56.3135C302.867 57.3356 302.683 58.1719 302.556 58.7652C302.518 58.9446 302.484 59.1024 302.456 59.2368L263.357 49.022L259.38 39.0299L259.377 39.0217L259.373 39.0135C258.372 36.7372 258.095 34.3654 258.371 31.9825L258.371 31.9825L258.372 31.9723C258.583 29.7488 257.204 27.7148 255.06 27.1787L255.06 27.1786L255.051 27.1766C254.063 26.9483 253.371 26.0376 253.448 24.9538L253.45 24.9361V24.9183C253.45 24.145 254.106 23.3646 254.976 23.127L254.983 23.1251L254.99 23.123L257.164 22.4621C257.707 22.3051 258.03 21.8447 258.117 21.3752C258.204 20.9026 258.067 20.3579 257.628 19.9908C255.949 18.5472 256.495 15.7101 258.694 14.9769L258.703 14.974L258.712 14.9707C259.319 14.7427 260.121 14.8126 260.776 15.1389L260.786 15.1437L260.796 15.1482L264.18 16.6529C264.995 17.1163 265.855 16.5686 266.112 15.7971L266.112 15.7972L266.114 15.7901C266.603 14.2448 268.384 13.2951 269.978 14.0119L270.001 14.0223L270.025 14.0303L270.277 14.1142C271.269 14.5892 272.396 14.2073 272.896 13.2252L273.269 12.5728L273.273 12.5653L273.277 12.5576C274.074 11.0425 276.09 10.6242 277.469 11.5966L277.469 11.5967L277.48 11.6038L278.042 11.9788C278.934 12.6093 280.275 12.3591 280.905 11.486C281.955 10.1202 283.887 9.952 285.189 11.0879L286.219 12.0241C286.44 12.2408 286.724 12.3747 287.037 12.3747C287.353 12.3747 287.641 12.237 287.863 12.0148L287.875 12.0031L287.886 11.9906C289.012 10.7039 291.026 10.7039 292.153 11.9905C292.153 11.9905 292.153 11.9906 292.153 11.9906L292.814 12.7481L292.826 12.7608L292.837 12.7727C293.16 13.095 293.791 13.2743 294.309 12.9371L294.773 12.6595L294.773 12.6596L294.784 12.6531C296.34 11.6692 298.484 12.1556 299.478 13.7094L299.563 13.8767L299.573 13.8964L299.585 13.9152C300.202 14.9033 301.503 15.225 302.533 14.8827L302.542 14.8797L302.551 14.8762C303.857 14.3855 305.333 14.7903 306.244 15.9485Z"/><path fill="#191919" stroke="#191919" d="M205.673 164.909L205.034 164.139L157.749 107.172L134.424 127.357L192.393 216.666L192.395 216.669C202.584 232.601 226.761 229.636 232.782 211.666C232.782 211.666 232.782 211.666 232.782 211.666L246.701 170.1L246.999 169.211L247.571 169.954L287.188 221.362L363.068 221.456L205.673 164.909ZM205.673 164.909L205.905 163.936M205.673 164.909L205.905 163.936M205.905 163.936L215.184 125.021C220.148 104.414 238.601 89.8027 259.767 89.8027H324.532C342.14 89.8027 358.25 99.9196 365.837 115.84L393.294 173.786L393.295 173.787M205.905 163.936L393.295 173.787M393.295 173.787C403.835 195.893 387.606 221.455 363.069 221.456L393.295 173.787Z"/><path fill="#9AA0A6" stroke="#191919" d="M126.274 120.994L120.311 113.516C120.311 113.516 120.311 113.516 120.31 113.515C119.157 112.051 118.917 110.739 119.042 109.696C119.169 108.635 119.681 107.804 120.099 107.344L120.416 106.995L120.087 106.659C118.285 104.812 117.905 103.139 118.094 101.787C118.287 100.405 119.086 99.2684 119.799 98.5556L120.023 98.331L119.915 98.0323C119.319 96.3802 119.206 95.1295 119.373 94.1988C119.539 93.2809 119.98 92.6459 120.561 92.2116C121.756 91.3177 123.617 91.2277 125.001 91.5852L126.497 91.9716L125.511 90.7819C123.907 88.8478 121.237 85.4454 118.964 82.5211C117.828 81.0601 116.793 79.7203 116.042 78.7457C115.666 78.2585 115.362 77.8625 115.151 77.5884L114.908 77.2725L114.845 77.1902L114.838 77.1806C113.775 75.4898 113.435 74.3416 113.465 73.6043C113.479 73.2466 113.579 72.9937 113.719 72.8096C113.862 72.6228 114.069 72.4756 114.344 72.3714C114.908 72.1575 115.696 72.1492 116.513 72.3115C117.324 72.4726 118.089 72.7872 118.588 73.1401L118.588 73.1402L118.598 73.1473L142.95 89.4769L155.987 108.061L146.151 116.524L136.314 124.989L130.014 119.049L128.864 117.965L129.181 119.513C129.383 120.498 129.296 121.113 129.122 121.474C128.959 121.811 128.695 121.978 128.371 122.032C128.027 122.088 127.607 122.014 127.211 121.824C126.814 121.634 126.491 121.352 126.315 121.052L126.297 121.022L126.274 120.994Z"/><path fill="#000" d="M140.086 116.668C139.897 116.668 139.897 116.573 139.802 116.479C138.003 113.449 135.636 106.821 139.518 102.656L129.765 96.2165C127.304 94.4177 126.262 92.4286 126.83 91.0087C127.398 89.5888 129.481 89.0196 132.511 89.4944H132.606C134.5 89.9677 140.37 91.2932 143.495 92.0497C143.684 92.1455 143.779 92.2399 143.779 92.523C143.684 92.7132 143.589 92.8075 143.305 92.8075C140.181 92.0497 134.405 90.7241 132.417 90.2508C129.86 89.8719 127.966 90.3466 127.588 91.3876C127.114 92.523 128.156 94.1331 130.334 95.7432L140.843 102.75L140.465 103.033C136.488 106.821 138.76 113.354 140.559 116.29C140.749 116.479 140.654 116.763 140.37 116.763C140.275 116.573 140.181 116.668 140.086 116.668Z"/><path fill="#000" d="M130.712 116.194C129.86 116.194 128.913 115.72 127.872 114.868L120.676 108.24C120.486 108.052 120.486 107.861 120.676 107.767C120.865 107.673 121.054 107.578 121.149 107.767L128.345 114.395C129.481 115.342 130.618 115.72 131.186 115.436C131.659 115.247 131.659 114.585 131.659 114.016C131.659 113.827 131.849 113.637 132.038 113.637C132.227 113.637 132.417 113.827 132.417 114.016C132.511 115.436 131.943 115.911 131.565 116.194C131.28 116.194 130.996 116.194 130.712 116.194ZM130.239 108.808C129.481 108.808 128.629 108.335 127.777 107.673L120.96 100.193C120.77 100.003 120.77 99.8138 120.96 99.7194C121.149 99.6236 121.339 99.5292 121.433 99.7194L128.25 107.104C129.197 107.956 130.144 108.24 130.807 107.956C131.47 107.578 131.659 106.442 131.186 105.116C131.091 104.927 131.28 104.737 131.375 104.643C131.565 104.548 131.754 104.737 131.849 104.927C132.511 107.388 131.565 108.335 131.091 108.619C130.902 108.619 130.618 108.808 130.239 108.808Z"/><path fill="#9AA0A6" stroke="#191919" d="M296.312 48.7231L296.311 48.723L296.308 48.7363C295.91 50.1281 295.807 51.6316 296.111 53.0488C296.575 55.2501 299.418 56.0207 301.011 54.3533C303.671 52.2033 306.696 51.8473 309.047 52.6933C311.399 53.5399 313.094 55.5887 313.143 58.3381C313.072 60.6578 312.55 62.295 311.795 63.4236C311.043 64.5474 310.038 65.1999 308.935 65.519C306.696 66.1666 304.028 65.4411 302.363 64.361L301.591 63.8602V64.7805V92.3583L300.197 93.3432C300.196 93.3436 300.196 93.344 300.195 93.3444C292.391 98.7586 281.766 98.4363 274.375 92.3821V78.415V77.915H273.875C273.69 77.915 273.496 77.916 273.293 77.917C271.548 77.9259 269.179 77.938 266.848 77.3503C264.266 76.699 261.785 75.3233 260.308 72.4146C258.772 69.3411 258.751 65.0943 259.525 60.87C260.297 56.6608 261.841 52.5695 263.329 49.8717L263.398 49.7474L263.391 49.6057L263.108 43.8302L263.108 43.8302L263.107 43.8231C263.018 42.4096 263.373 40.9968 264.075 39.8555L264.079 39.8495L264.083 39.8433C265.554 37.2923 266.146 34.441 265.851 31.6828L265.851 31.6828L265.85 31.6741C265.803 31.2993 266.196 30.9829 266.541 31.0794C266.541 31.0796 266.542 31.0798 266.543 31.08L276.479 34.0143L276.479 34.0145C278.184 34.5156 280.078 34.5134 281.868 34.0165L281.868 34.0167L281.879 34.0131L294.946 30.0364L294.962 30.0318L294.977 30.0262C295.125 29.9705 295.296 30.0121 295.437 30.167C295.581 30.3241 295.628 30.5322 295.564 30.7062C294.182 34.2632 294.583 38.1067 296.347 41.4375C297.229 43.1153 297.41 45.0626 296.879 46.9296L296.312 48.7231Z"/><path fill="#191919" d="M273.875 85.3267L286.942 76.8057C286.942 76.8057 282.869 77.4677 280.314 77.7523C277.852 78.0369 273.875 78.1312 273.875 78.1312V85.3267Z"/><path fill="#000" d="M278.136 59.8566H271.792L276.811 51.051C275.958 50.1987 273.023 47.1687 273.875 42.5285C273.969 42.3397 274.065 42.1495 274.348 42.2454C274.538 42.3397 274.727 42.4341 274.633 42.7187C273.686 47.7363 277.378 50.5777 277.473 50.7664L277.663 50.9551L277.473 51.2397L273.023 59.1931H278.136C278.325 59.1931 278.515 59.3833 278.515 59.572C278.515 59.6664 278.421 59.8566 278.136 59.8566Z"/><path fill="#000" d="M289.687 41.2993C289.593 41.2993 289.593 41.2993 289.687 41.2993C288.173 40.9204 286.184 40.826 284.196 41.2049C284.006 41.2993 283.818 41.1106 283.723 40.9204C283.723 40.7316 283.818 40.5429 284.006 40.4471C286.184 40.0681 288.268 40.0681 289.783 40.5429C289.972 40.6373 290.066 40.826 289.972 41.0162C290.066 41.2049 289.878 41.2993 289.687 41.2993Z"/><path fill="#000" d="M270.751 41.7728C270.657 41.7728 270.657 41.7728 270.751 41.7728C269.237 41.3954 267.248 41.2995 265.26 41.6785C265.07 41.6785 264.881 41.5841 264.787 41.3953C264.691 41.2052 264.881 41.0164 265.07 40.9206C267.248 40.5431 269.331 40.5431 270.846 41.0164C271.036 41.1108 271.13 41.2995 271.036 41.4897C271.13 41.6785 270.941 41.7728 270.751 41.7728Z"/><path fill="#000" d="M280.409 69.2328C280.22 69.2328 280.124 69.1369 280.03 69.0426C279.935 68.8538 280.03 68.5692 280.22 68.5692C282.019 67.6226 283.627 66.3915 284.48 65.1603C284.67 64.9715 284.859 64.9715 284.953 65.0659C285.049 65.1603 285.143 65.4448 285.049 65.5392C284.101 66.7704 282.398 68.1903 280.409 69.2328C280.503 69.2328 280.599 69.2328 280.409 69.2328Z"/><path fill="#000" d="M301.335 60.6145C301.144 60.6145 301.144 60.5201 301.05 60.4258C300.861 60.2356 300.861 60.0468 301.144 59.9525L308.057 54.2713C308.247 54.0811 308.436 54.0811 308.53 54.3657C308.72 54.5544 308.624 54.7446 308.436 54.839L301.523 60.5201C301.523 60.5201 301.429 60.6145 301.335 60.6145Z"/><path fill="#000" d="M309.665 59.8572C309.571 59.8572 309.476 59.8572 309.476 59.7614L305.973 56.5426C305.784 56.3539 305.784 56.1637 305.973 56.0693C306.163 55.8805 306.352 55.8805 306.446 56.0693L309.95 59.2881C310.14 59.4783 310.14 59.667 309.95 59.7614C309.855 59.8572 309.761 59.8572 309.665 59.8572Z"/><path fill="#000" d="M287.131 50.5791C287.794 50.5791 288.362 50.0114 288.362 49.3494C288.362 48.6859 287.794 48.1182 287.131 48.1182C286.469 48.1182 285.899 48.6859 285.899 49.3494C285.899 50.0114 286.469 50.5791 287.131 50.5791Z"/><path fill="#000" d="M268.288 51.0512C268.952 51.0512 269.52 50.4821 269.52 49.82C269.52 49.1565 268.952 48.5889 268.288 48.5889C267.626 48.5889 267.059 49.1565 267.059 49.82C267.059 50.4821 267.626 51.0512 268.288 51.0512Z"/><path fill="#99C941" d="M233.256 142.421L232.972 142.042C231.268 137.781 233.445 133.048 237.706 131.438C241.968 129.733 246.702 131.911 248.407 136.078C256.075 133.9 264.313 138.16 266.87 145.83L227.007 163.347L226.439 162.116C223.409 154.73 226.439 146.113 233.256 142.421Z"/><path fill="#99C941" d="M278.894 131.06L289.688 161.549L315.442 227.259L248.122 253.014L210.626 160.506L278.894 131.06Z"/><path fill="#9AA0A6" stroke="#191919" d="M273.076 220.12V220.119L273.063 220.12C268.291 220.239 264.231 220.036 261.559 219.374C260.213 219.04 259.297 218.607 258.803 218.108C258.564 217.867 258.432 217.619 258.384 217.361C258.336 217.102 258.365 216.791 258.517 216.411C258.717 215.938 259.16 215.515 259.841 215.133C260.518 214.753 261.379 214.443 262.329 214.172C263.223 213.917 264.172 213.703 265.094 213.495C265.149 213.483 265.204 213.47 265.259 213.458C266.223 213.24 267.16 213.025 267.928 212.777L267.845 211.806L256.116 210.127L256.108 210.126L256.101 210.126C254.4 209.937 253.297 209.213 252.808 208.412C252.342 207.65 252.382 206.75 253.088 205.958C253.491 205.669 253.784 205.502 254.044 205.397C254.304 205.292 254.552 205.24 254.878 205.203L254.907 205.202L255.043 205.197C255.161 205.193 255.329 205.187 255.534 205.18C255.944 205.166 256.497 205.149 257.073 205.134C257.65 205.119 258.246 205.106 258.742 205.102C259.253 205.098 259.622 205.104 259.767 205.12L259.913 204.132L252.613 202.775C251.815 202.592 250.918 202.07 250.52 201.407C250.331 201.092 250.258 200.754 250.344 200.386C250.432 200.006 250.702 199.537 251.314 199.002L251.326 198.991L251.337 198.98C251.369 198.949 251.453 198.898 251.631 198.845C251.78 198.8 251.943 198.768 252.124 198.732C252.14 198.729 252.156 198.726 252.173 198.723L252.256 198.718C252.332 198.714 252.442 198.708 252.577 198.701C252.846 198.687 253.216 198.67 253.614 198.655C254.425 198.625 255.317 198.607 255.764 198.644L255.936 197.663L253.338 196.957C252.227 196.37 251.985 195.597 252.207 195.086C252.334 194.794 252.641 194.465 253.246 194.194C253.849 193.923 254.72 193.726 255.902 193.687L255.904 193.687C257.998 193.607 265.093 193.226 271.657 192.866C274.941 192.686 278.094 192.511 280.427 192.381C281.593 192.316 282.554 192.262 283.223 192.225L283.997 192.182L284.201 192.17L284.253 192.167L284.266 192.166L284.269 192.166L284.27 192.166C284.27 192.166 284.27 192.166 284.242 191.667L284.27 192.166L284.982 192.126L284.702 191.47L280.804 182.362C280.793 181.781 280.847 181.125 280.994 180.523C281.15 179.88 281.399 179.349 281.733 179.016C282.042 178.708 282.45 178.541 283.048 178.655C283.68 178.774 284.542 179.213 285.676 180.204C285.77 180.29 285.965 180.506 286.26 180.855C286.55 181.2 286.92 181.652 287.349 182.187C288.207 183.258 289.3 184.652 290.474 186.166C292.823 189.193 295.493 192.691 297.26 195.01L297.41 195.207H297.657H306.331C306.385 195.393 306.458 195.647 306.548 195.959C306.752 196.668 307.047 197.682 307.405 198.897C308.122 201.328 309.095 204.571 310.12 207.814C311.145 211.055 312.224 214.305 313.153 216.748C313.616 217.968 314.047 219 314.42 219.733C314.49 219.87 314.559 219.999 314.627 220.12H273.076Z"/><path fill="#fff" d="M306.067 116.098L289.308 100.475L273.686 112.689L266.395 91.6689L267.153 91.3858L274.065 111.459L289.308 99.5279L305.69 114.678L311.465 90.6279L312.222 90.8181L306.067 116.098Z"/><path fill="#fff" d="M296.506 126.136H282.871L284.101 103.696L284.859 103.791L283.628 125.379H295.653L294.043 104.737H294.801L296.506 126.136Z"/><path fill="#fff" d="M334.466 132.294L333.741 132.515L349.452 184.147L350.176 183.927L334.466 132.294Z"/></svg>