<svg xmlns="http://www.w3.org/2000/svg" xmlns:xlink="http://www.w3.org/1999/xlink" id="Layer_1" x="0px" y="0px" viewBox="0 0 200 200" style="enable-background:new 0 0 200 200;" xml:space="preserve"><style type="text/css">	.st0{fill:#FFFFFF;stroke:#452392;stroke-width:3;stroke-linecap:round;stroke-linejoin:round;}	.st1{fill:#FFFFFF;stroke:#99C941;stroke-width:3;stroke-linecap:round;stroke-linejoin:round;}	.st2{fill:#EE4C2C;}	.st3{opacity:0.5;fill:none;stroke:#FFFFFF;stroke-width:1.66;enable-background:new    ;}	.st4{opacity:0.204;}	.st5{opacity:0.2;fill:#FFFFFF;enable-background:new    ;}	.st6{opacity:0.4;fill:#FFFFFF;enable-background:new    ;}	.st7{opacity:0.6;fill:#FFFFFF;enable-background:new    ;}	.st8{fill:#FFFFFF;}	.st9{fill:#5F74B9;}	.st10{fill:#FFB5BE;}	.st11{fill:#FFDA65;}	.st12{fill:#EC4A96;}	.st13{fill:#03AF92;}	.st14{fill:none;stroke:#1C1C1C;stroke-width:1.4545;stroke-linecap:round;stroke-linejoin:round;}	.st15{fill:#FA7B6A;}	.st16{fill:#1C1C1C;}	.st17{fill:#FA7B6A;stroke:#1C1C1C;stroke-width:1.1635;stroke-linejoin:round;}	.st18{fill:#F6DE05;stroke:#1C1C1C;stroke-width:1.1635;stroke-linejoin:round;}	.st19{fill:#F6F6F1;stroke:#1C1C1C;stroke-width:1.1635;stroke-linejoin:round;}	.st20{fill:#F6F6F1;}	.st21{fill:none;stroke:#1C1C1C;stroke-width:1.1635;stroke-linecap:round;stroke-linejoin:round;}	.st22{fill:#F6F6F1;filter:url(#Adobe_OpacityMaskFilter);}	.st23{mask:url(#mask0_5920_151052_00000152231169033994731600000002393800805744209051_);}	.st24{fill:#F0F0E4;}	.st25{fill:none;stroke:#1C1C1C;stroke-width:1.1635;}	.st26{fill:#F6DE05;stroke:#1C1C1C;stroke-width:1.1635;}	.st27{fill:url(#XMLID_00000067917744246707898840000004096762919187191231_);}	.st28{opacity:0.38;fill:url(#SVGID_1_);fill-opacity:0.4;enable-background:new    ;}			.st29{opacity:0.38;fill:url(#SVGID_00000122720075058079262070000006116299591045136821_);fill-opacity:0.4;enable-background:new    ;}			.st30{opacity:0.38;fill:url(#SVGID_00000148641049779048440260000010425678317171699074_);fill-opacity:0.4;enable-background:new    ;}	.st31{fill:none;stroke:url(#SVGID_00000023271294905341487280000008801127000240852115_);stroke-miterlimit:10;}	.st32{opacity:0.682;enable-background:new    ;}	.st33{fill:url(#SVGID_00000166633993635745413290000015184075518203920526_);}	.st34{fill:url(#SVGID_00000175301784579515687090000014026629062803732401_);}	.st35{fill:url(#SVGID_00000093158890268770066020000000199647286864579235_);}	.st36{fill:url(#SVGID_00000025412170571114463330000004253143502390962862_);}	.st37{opacity:0.38;enable-background:new    ;}	.st38{filter:url(#Adobe_OpacityMaskFilter_00000122703795655802536440000008789675797757199799_);}	.st39{fill-rule:evenodd;clip-rule:evenodd;fill:#FFFFFF;}	.st40{mask:url(#b_00000047022087725076106120000006201050921251564479_);}			.st41{opacity:0.556;fill-rule:evenodd;clip-rule:evenodd;fill:url(#SVGID_00000036249293331538989740000007805674206154856116_);enable-background:new    ;}			.st42{opacity:0.682;fill-rule:evenodd;clip-rule:evenodd;fill:url(#SVGID_00000056392673884755773350000002862641650630204315_);enable-background:new    ;}	.st43{fill:none;stroke:#FFFFFF;stroke-miterlimit:10;}	.st44{fill:none;stroke:url(#SVGID_00000162351520764006069700000002646739447413046196_);stroke-miterlimit:10;}	.st45{opacity:0.556;enable-background:new    ;}	.st46{opacity:0.682;fill:url(#SVGID_00000058559842587847807850000009350460591292998323_);enable-background:new    ;}	.st47{filter:url(#Adobe_OpacityMaskFilter_00000151518272406604508380000008405624683416933270_);}	.st48{mask:url(#b_00000069361905798470104000000008037886837652480940_);}			.st49{opacity:0.556;fill-rule:evenodd;clip-rule:evenodd;fill:url(#SVGID_00000146472609673361339640000017397177402270791093_);enable-background:new    ;}			.st50{opacity:0.682;fill-rule:evenodd;clip-rule:evenodd;fill:url(#SVGID_00000176734226379440871810000006222777359339217077_);enable-background:new    ;}	.st51{fill:url(#Combined-Shape_00000181804186728299281910000005737286794734529207_);}	.st52{fill:none;stroke:url(#SVGID_00000124842405591080780770000003954122950286107812_);stroke-miterlimit:10;}			.st53{opacity:0.5;fill-rule:evenodd;clip-rule:evenodd;fill:url(#SVGID_00000099664101599057823200000014594122913982435760_);enable-background:new    ;}	.st54{fill:none;stroke:url(#SVGID_00000018939298229846637610000011175605171226138510_);stroke-miterlimit:10;}	.st55{fill:url(#Path_26565_00000150069667032411427030000015553496019718605703_);}	.st56{fill:url(#Path_26573_00000022524217837277997270000004103241505565322904_);}	.st57{fill:url(#Path_26568_00000029730557214791721650000014682069457051434914_);}	.st58{fill:none;stroke:url(#SVGID_00000014619147649401877720000013902552250986512826_);stroke-miterlimit:10;}	.st59{fill:url(#path1948_00000085245414617620684460000007839793957341283987_);}	.st60{fill:url(#path1950_00000156576081053535188150000016222547870567500675_);}	.st61{opacity:0.5;enable-background:new    ;}	.st62{fill:url(#Path_00000046340117764443538730000005272534521004638367_);}	.st63{fill:url(#Path-1_00000072260677548223710430000001197381179204603562_);}	.st64{fill:url(#Path-2_00000033364664148409480270000007503918712237766044_);}	.st65{fill:url(#Path-3_00000112625816192641666410000016769825712915195563_);}	.st66{fill:url(#Path-4_00000120557139885180491990000015279138016391034005_);}	.st67{fill:url(#Path-5_00000029011814395054276470000017760225555304162196_);}	.st68{fill:url(#Path-6_00000098201149117470337620000009326819592643041159_);}	.st69{fill:url(#Path-7_00000166657195522796651910000010687470504251366274_);}	.st70{fill:url(#Path-8_00000018212384974975592810000014747713806149761979_);}	.st71{fill:url(#Path_00000087393174409825569990000015820206697262548116_);}	.st72{fill:url(#Path-1_00000096756829765647507470000005812108898104957877_);}	.st73{fill:url(#Path_00000004521027579739524600000017364137709485719946_);}	.st74{fill:url(#Path-1_00000145769713889704694260000002166720670600587146_);}	.st75{fill:url(#Path-2_00000033354528058513137380000014934248839040094132_);}	.st76{fill:url(#Path-3_00000042008679983987769260000004453956536817429945_);}	.st77{fill:url(#Path-4_00000173876702930363604740000006077355807334477490_);}	.st78{fill:url(#Path-5_00000152960904192946412190000009560702931824645521_);}	.st79{fill:url(#Path-6_00000072971592804270039420000005930400683366103732_);}	.st80{fill:url(#Path-7_00000154389611703354868570000005495848216046657464_);}	.st81{fill:url(#Path-8_00000063593492576201361840000009036553143130812856_);}	.st82{fill:url(#SVGID_00000097472492742718801190000007007616630600237730_);}	.st83{fill:url(#SVGID_00000064329928504598381100000017388690595585780125_);}	.st84{fill:url(#SVGID_00000170276349067404047890000001017072675696457143_);}	.st85{fill:url(#SVGID_00000098901601293423252610000008015641799524887685_);}	.st86{fill:url(#SVGID_00000066499634352338646940000015362332116838640017_);}	.st87{fill:url(#SVGID_00000155841886235267696670000002737816003691109819_);}	.st88{fill:url(#SVGID_00000001642215813227105850000001255638534097823630_);}	.st89{fill:url(#SVGID_00000157992275153423582390000014770283862442113201_);}	.st90{fill:url(#SVGID_00000046312725323500494560000010348548110744897442_);}	.st91{fill:url(#SVGID_00000153702960354751010700000010637374119764752043_);}	.st92{fill:url(#SVGID_00000079453838186366282110000016708081066763356569_);}	.st93{fill:url(#SVGID_00000155138542420311105480000014321861530317648031_);}	.st94{fill:url(#SVGID_00000053525885869176737150000006941698838145331369_);}	.st95{fill:url(#SVGID_00000040554348553464561390000009608185505095358387_);}	.st96{fill:url(#SVGID_00000089557140636084412920000005186291587789132479_);}	.st97{fill:url(#SVGID_00000043420369401525814160000013975901991348936341_);}	.st98{fill:url(#SVGID_00000009549775939418503810000006919242020889238682_);}	.st99{fill:url(#SVGID_00000056395454157647126690000001736897858691913640_);}	.st100{fill:url(#SVGID_00000076575960886315000900000010841157594890034597_);}	.st101{fill:url(#SVGID_00000176764039043262295520000012998640306648224152_);}	.st102{fill:url(#SVGID_00000176730110466124632560000014908556758582277286_);}	.st103{fill:url(#SVGID_00000069366529082312360800000015886643153247593862_);}	.st104{fill:url(#SVGID_00000165213564882704824540000014575082985963150778_);}	.st105{fill:url(#SVGID_00000154415917542090214440000003530345996739459724_);}	.st106{fill:url(#SVGID_00000008861447308139389420000005061912285187225238_);}	.st107{fill:url(#SVGID_00000145019338165370867580000000554906863168923309_);}	.st108{fill:url(#SVGID_00000178169261341289131250000013755174582985473971_);}	.st109{fill:url(#SVGID_00000068674675547754991050000006924807968206285216_);}	.st110{fill:url(#SVGID_00000075122719060569265840000007199032634498016650_);}	.st111{fill:url(#SVGID_00000049916589560966519260000007086619102543661496_);}	.st112{fill:url(#SVGID_00000108273882492087941800000010832548258913149356_);}	.st113{fill:url(#SVGID_00000158745748786416146760000018354254005569817531_);}	.st114{fill:url(#SVGID_00000133505534023627912900000011315536564084526241_);}	.st115{fill:url(#SVGID_00000158014056857815082490000018133443075837426103_);}	.st116{fill:url(#SVGID_00000140013335084620919010000004857750320146664590_);}	.st117{fill:url(#SVGID_00000095333736270027650950000007406244943447379897_);}	.st118{fill:url(#SVGID_00000085942144901335760690000000228862028495047308_);}	.st119{fill:url(#SVGID_00000032618408355706901220000011539567893092466829_);}	.st120{fill:url(#SVGID_00000113329571687760789130000001264297889657619080_);}	.st121{fill:url(#SVGID_00000169522506930263119570000003122902396696837775_);}	.st122{fill:url(#SVGID_00000089561585941020421530000000567731531033365144_);}	.st123{fill:url(#SVGID_00000057849132536724463940000018171926469116606617_);}	.st124{fill:url(#SVGID_00000031888656833580361250000016684957260290924460_);}	.st125{fill:url(#SVGID_00000059302828138644402760000011110460050008465039_);}	.st126{fill:url(#SVGID_00000085212145917227617390000003818570316053286077_);}	.st127{fill:url(#SVGID_00000172429648267223942460000000533244967961069976_);}	.st128{fill:url(#SVGID_00000039135620957716102420000007246201511709449392_);}	.st129{fill:url(#SVGID_00000183217642720231554880000003373922304271418298_);}	.st130{fill:url(#SVGID_00000097461414715254219900000017628079019312943291_);}	.st131{fill:url(#SVGID_00000089537432141036996270000005728337223802920846_);}	.st132{fill:url(#SVGID_00000173127912505313459230000003012089611463446426_);}	.st133{fill:url(#SVGID_00000032633794481613931880000007772247615742454951_);}	.st134{fill:url(#SVGID_00000047755116745246292290000006892830691090131613_);}	.st135{fill:url(#SVGID_00000173123563244308532470000018143875293093585557_);}	.st136{fill:url(#SVGID_00000154410378859889612450000002627354733809189250_);}	.st137{fill:url(#SVGID_00000059270806117581490140000014959388961179018410_);}	.st138{fill:url(#SVGID_00000124147260856132632330000011286065786109599123_);}	.st139{fill:url(#SVGID_00000021811460214548887850000014646784694582249858_);}	.st140{fill:url(#SVGID_00000052105185779189444180000011262525789275040698_);}	.st141{fill:url(#SVGID_00000013183921892303157210000016888458316189531574_);}	.st142{fill:url(#SVGID_00000072982730326610966420000001558016804005822119_);}	.st143{fill:url(#SVGID_00000127009465587256607590000004794745925039490971_);}	.st144{fill:url(#SVGID_00000124866291381194539290000000874796867729389479_);}	.st145{fill:url(#SVGID_00000026156788413171547790000013303783173438501517_);}	.st146{fill:url(#SVGID_00000108274263424782432230000005430479452095305407_);}	.st147{fill:url(#SVGID_00000176034672501898274160000005219866054648670875_);}	.st148{fill:url(#SVGID_00000111910180217997630490000001564515427791518103_);}	.st149{fill:url(#SVGID_00000144336824978107361580000017489276992034529414_);}	.st150{fill:url(#SVGID_00000032606958584634304190000012427285973368496307_);}	.st151{fill:url(#SVGID_00000158002542810324603330000006087044143788029631_);}	.st152{fill:url(#SVGID_00000091706160098471527680000000372084643342463649_);}	.st153{fill:url(#SVGID_00000092427681263653301310000015406188152327465641_);}	.st154{fill:url(#SVGID_00000121965830124288981070000010720911315553320595_);}	.st155{fill:url(#SVGID_00000175299580707102262180000007524663159323436206_);}	.st156{fill:url(#SVGID_00000078044131596718524650000009253211794655618187_);}	.st157{fill:url(#SVGID_00000052804608174730896050000008322793043559109802_);}	.st158{fill:url(#SVGID_00000098936049805609777490000011726168103777747073_);}	.st159{fill:url(#SVGID_00000013887936976876736800000011117062048000624000_);}	.st160{fill:url(#SVGID_00000116917867222793053240000004756400205520598162_);}	.st161{fill:url(#SVGID_00000179639645917945140900000003557654109105409701_);}	.st162{fill:url(#SVGID_00000093890034637244922120000017094334256479808653_);}	.st163{fill:url(#SVGID_00000029009809110797265690000003769007175511788161_);}	.st164{fill:url(#SVGID_00000044177411536882722430000010633107805210621356_);}	.st165{fill:url(#SVGID_00000011729142596156660340000001236351718718177698_);}	.st166{fill:url(#SVGID_00000023245358535585370690000004796255126996566689_);}	.st167{fill:url(#SVGID_00000183217808187487938320000005586374750493857695_);}	.st168{fill:url(#SVGID_00000173144077780175372550000010819328717269121190_);}	.st169{fill:url(#SVGID_00000126291831369819384070000006767250018986245776_);}	.st170{fill:url(#SVGID_00000018953126617461971710000012687593805043457189_);}	.st171{fill:url(#SVGID_00000098217179505428151090000015013076978156325042_);}	.st172{fill:url(#SVGID_00000016073264335680917190000003989585003406771112_);}	.st173{fill:url(#SVGID_00000168839635617997469420000008959853440595614132_);}	.st174{fill:url(#SVGID_00000106108376095783903670000001190226301535270570_);}	.st175{fill:url(#SVGID_00000181799349044946427150000016640251844666918045_);}	.st176{fill:url(#SVGID_00000166673576535016303090000002935189865608612513_);}	.st177{fill:url(#SVGID_00000170989005911458416740000001414375331383937174_);}	.st178{fill:url(#Path_00000085248726707069832190000003033062400751192761_);}	.st179{fill:url(#Path_00000131356914770496799860000008228399058609297839_);}	.st180{fill:url(#Path_00000010294670177927049100000004381785242306233734_);}	.st181{fill:url(#Path_00000106115506998509749560000005849053230805650090_);}	.st182{fill:url(#Path_00000124862586053226405890000006256193940343818145_);}	.st183{fill:url(#Path_00000092428961348669352510000014502061665005549461_);}	.st184{fill:#452392;}	.st185{fill:#99C941;}	.st186{fill:#A43A8F;}	.st187{fill:url(#SVGID_00000087411942318601517750000008372402217339585670_);}	.st188{opacity:0.2;fill:url(#Rectangle_00000026128473642758054360000016471539160103734681_);}	.st189{fill:url(#Path-185-Copy-4_00000175310639339272654800000018385865932526485402_);}	.st190{fill:none;stroke:#000000;stroke-miterlimit:10;}	.st191{fill-rule:evenodd;clip-rule:evenodd;fill:url(#Rectangle_00000155852555348650825650000013296004697829593272_);}	.st192{fill-rule:evenodd;clip-rule:evenodd;fill:url(#Rectangle-Copy-2_00000029027962521708047230000008660554620444779140_);}	.st193{fill-rule:evenodd;clip-rule:evenodd;fill:url(#Rectangle-Copy_00000075150851530057818480000001769264788136612252_);}	.st194{fill-rule:evenodd;clip-rule:evenodd;fill:url(#Rectangle-Copy-3_00000159438627010598960610000008022756756726225823_);}	.st195{fill:url(#SVGID_00000093178889479409579350000016596334084287736737_);}	.st196{fill:url(#SVGID_00000157306065823451084650000013419960925617979267_);}	.st197{opacity:0.682;fill:#452392;enable-background:new    ;}	.st198{fill-rule:evenodd;clip-rule:evenodd;fill:#4285F4;}	.st199{fill:none;stroke:#4285F4;stroke-linejoin:round;}	.st200{fill:none;stroke:#FFFFFF;stroke-linecap:round;stroke-linejoin:round;}	.st201{fill:url(#SVGID_00000155137850518354302520000018228382269520299689_);}	.st202{fill:url(#SVGID_00000155853308812240543440000015352481868568915095_);}	.st203{fill:url(#SVGID_00000002350999927535795640000014569362397513429393_);}	.st204{fill:none;stroke:#FFFFFF;stroke-width:3;stroke-linecap:round;stroke-linejoin:round;}	.st205{fill:none;}	.st206{fill:#4285F4;}	.st207{fill-rule:evenodd;clip-rule:evenodd;fill:#2726DC;}	.st208{fill-rule:evenodd;clip-rule:evenodd;fill:#26D9DC;}			.st209{fill-rule:evenodd;clip-rule:evenodd;fill:#FFFFFF;stroke:#452392;stroke-width:3;stroke-linecap:round;stroke-linejoin:round;}	.st210{fill-rule:evenodd;clip-rule:evenodd;fill:#1C1C1C;}	.st211{fill:#1C1C1C;stroke:#1C1C1C;stroke-width:0.8;stroke-linecap:round;stroke-linejoin:round;stroke-miterlimit:10;}	.st212{fill:#1C1C1C;stroke:#F6F6F1;stroke-width:0.8;stroke-linecap:round;stroke-linejoin:round;stroke-miterlimit:10;}	.st213{fill:#F6DE05;stroke:#1C1C1C;stroke-width:0.8;stroke-linecap:round;stroke-linejoin:round;stroke-miterlimit:10;}	.st214{fill:none;stroke:#F6F6F1;stroke-width:0.8;stroke-linecap:round;stroke-linejoin:round;stroke-miterlimit:10;}	.st215{fill:#FFFFFF;stroke:#A43A8F;stroke-width:3;stroke-linecap:round;stroke-linejoin:round;}	.st216{fill:#1C1C1C;stroke:#1C1C1C;stroke-width:2.0964;}</style><path class="st0" d="M17.9,104.1l50.6-19.4c1.9-0.7,4.1-0.6,5.9,0.4c4.2,2.3,4.9,7.9,1.6,11.2l-17.7,17.5c-2.5,2.5-6.1,3.5-9.6,2.7  l-0.8-0.2c-2.1-0.5-4.3-0.3-6.3,0.5l-15.8,6.6c-3.8,1.6-8.2,0.7-11.1-2.2l-0.4-0.4C9.2,115.5,11.1,106.7,17.9,104.1z"></path><path class="st215" d="M17.9,104.1l50.6-19.4c1.9-0.7,4.1-0.6,5.9,0.4c4.2,2.3,4.9,7.9,1.6,11.2l-17.7,17.5  c-2.5,2.5-6.1,3.5-9.6,2.7l-0.8-0.2c-2.1-0.5-4.3-0.3-6.3,0.5l-15.8,6.6c-3.8,1.6-8.2,0.7-11.1-2.2l-0.4-0.4  C9.2,115.5,11.1,106.7,17.9,104.1z"></path><path class="st0" d="M82,168.8l20-50.7c0.7-1.8,0.6-3.8-0.2-5.5c-2-4.4-7.8-5.5-11.3-2.1l-17.8,17.7c-2.5,2.5-3.6,6.1-2.7,9.5  l0.2,0.8c0.5,2.1,0.3,4.3-0.6,6.3l-6.8,15.7c-1.6,3.8-0.8,8.2,2.1,11.2l0.4,0.4C70.5,177.4,79.3,175.6,82,168.8z"></path><path class="st215" d="M82,168.8l20-50.7c0.7-1.8,0.6-3.8-0.2-5.5c-2-4.4-7.8-5.5-11.3-2.1l-17.8,17.7c-2.5,2.5-3.6,6.1-2.7,9.5  l0.2,0.8c0.5,2.1,0.3,4.3-0.6,6.3l-6.8,15.7c-1.6,3.8-0.8,8.2,2.1,11.2l0.4,0.4C70.5,177.4,79.3,175.6,82,168.8z"></path><path class="st0" d="M50.8,126.5l10.3,10.4c2.4,2.4,6.6,2.8,9,0.4l78.1-78.1L159,48.5c2.1-2.1,2.4-5.3,0.8-7.7  c1.7-1.9,5.9-6.4,9.1-11.2c3.5-5.1,6-10.4,3.2-13.2c-2.8-2.8-8.1-0.4-13.3,3.1c-4.8,3.3-11.2,9.2-11.2,9.1c-2.4-1.5-5.5-1.3-7.6,0.8  l-10.8,10.7l-79.1,77.1C47.7,119.6,48.4,124.1,50.8,126.5z"></path><path class="st0" d="M154.3,34.1c3.1,3,5.4,6.6,5.5,6.7c1.7-1.9,5.9-6.4,9.1-11.2c0,0-1.8-4.3-3.8-6.3c-2-2-6.3-3.9-6.3-3.9  c-4.8,3.3-11.2,9.2-11.2,9.2C147.7,28.6,151.2,31.1,154.3,34.1z"></path><path class="st0" d="M159.8,40.8c1.6,2.4,1.3,5.6-0.8,7.7l-10.8,10.7L80.5,127 M159.8,40.8c-0.1-0.1-2.5-3.6-5.5-6.7  c-3-3-6.6-5.5-6.6-5.5 M159.8,40.8c1.7-1.9,5.9-6.4,9.1-11.2 M147.7,28.6c-2.4-1.5-5.5-1.3-7.6,0.8l-10.8,10.7l-68.5,66.7   M147.7,28.6c0,0,6.4-5.9,11.2-9.2 M158.9,19.5c5.1-3.5,10.5-5.9,13.3-3.1c2.8,2.8,0.3,8.2-3.2,13.2 M158.9,19.5  c0,0,4.2,1.8,6.3,3.9c2,2,3.8,6.3,3.8,6.3 M60.8,106.8C68.6,112.5,75,119,80.5,127 M60.8,106.8l-10.7,10.4c-2.4,2.4-1.8,6.9,0.6,9.3  l10.3,10.4c2.4,2.4,6.6,2.8,9,0.4L80.5,127"></path><path class="st0" d="M43.1,120.5c2-2,5.1-2.1,7.2-0.2c6,5.3,11.6,11,16.9,17c1.8,2.1,1.7,5.3-0.3,7.2c-2,2-5.1,2.1-7.2,0.2  c-6-5.3-11.6-11-16.9-17C41,125.6,41.1,122.4,43.1,120.5z"></path><path class="st0" d="M43.1,120.5c2-2,5.1-2.1,7.2-0.2c6,5.3,11.6,11,16.9,17c1.8,2.1,1.7,5.3-0.3,7.2c-2,2-5.1,2.1-7.2,0.2  c-6-5.3-11.6-11-16.9-17C41,125.6,41.1,122.4,43.1,120.5z"></path><path class="st0" d="M88.9,100.5c1.1,1,1.1,2.7,0,3.8L42.2,152c-1,1-2.7,1.1-3.8,0c-1-1-1.1-2.7,0-3.8l46.8-47.7  C86.2,99.5,87.8,99.5,88.9,100.5z"></path><path class="st215" d="M88.9,100.5c1.1,1,1.1,2.7,0,3.8L42.2,152c-1,1.1-2.7,1.1-3.8,0c-1-1-1.1-2.7,0-3.8l46.8-47.7  C86.2,99.5,87.8,99.5,88.9,100.5z"></path><path class="st0" d="M148.8,48.1c-2.4,2.4-6.3,2.4-8.6,0s-2.4-6.3,0-8.6c2.4-2.4,6.3-2.4,8.6,0C151.2,41.9,151.2,45.7,148.8,48.1z"></path><path class="st0" d="M136,60.8c-2.4,2.4-6.3,2.4-8.6,0c-2.4-2.4-2.4-6.3,0-8.6c2.4-2.4,6.3-2.4,8.6,0  C138.4,54.5,138.4,58.4,136,60.8z"></path><path class="st215" d="M148.8,48.1c-2.4,2.4-6.3,2.4-8.6,0s-2.4-6.3,0-8.6c2.4-2.4,6.3-2.4,8.6,0C151.2,41.9,151.2,45.7,148.8,48.1z  "></path><path class="st215" d="M136,60.8c-2.4,2.4-6.3,2.4-8.6,0c-2.4-2.4-2.4-6.3,0-8.6c2.4-2.4,6.3-2.4,8.6,0  C138.4,54.5,138.4,58.4,136,60.8z"></path><path class="st0" d="M127.2,170.1c-1.4,0.5-2.7,1.4-3.7,2.6c-1,1.2-1.8,2.6-2.3,4.1l-1.8,5.9c0,0,0,0.1-0.1,0.1c0,0-0.1,0-0.1,0  c0,0-0.1,0-0.1,0c0,0-0.1-0.1-0.1-0.1l-1.8-5.9c-0.5-1.6-1.3-3-2.3-4.1c-1-1.2-2.3-2.1-3.7-2.6l-5.3-2c0,0-0.1,0-0.1-0.1  c0,0,0-0.1,0-0.1c0,0,0-0.1,0-0.1c0,0,0.1-0.1,0.1-0.1l5.3-2.1c1.4-0.5,2.7-1.4,3.7-2.6c1-1.2,1.8-2.6,2.3-4.1l1.8-5.9  c0,0,0-0.1,0.1-0.1c0,0,0.1,0,0.1,0c0,0,0.1,0,0.1,0c0,0,0.1,0.1,0.1,0.1l1.8,5.9c0.5,1.6,1.3,3,2.3,4.1c1,1.2,2.3,2.1,3.7,2.6  l5.3,2.1c0,0,0.1,0,0.1,0.1c0,0,0,0.1,0,0.1c0,0,0,0.1,0,0.1c0,0-0.1,0.1-0.1,0.1L127.2,170.1z"></path><path class="st1" d="M170.3,145.5c-0.4,0.2-0.8,0.4-1.1,0.8c-0.3,0.4-0.6,0.8-0.7,1.3l-0.6,1.8c0,0,0,0,0,0c0,0,0,0,0,0c0,0,0,0,0,0  c0,0,0,0,0,0l-0.6-1.8c-0.1-0.5-0.4-0.9-0.7-1.3c-0.3-0.4-0.7-0.6-1.1-0.8l-1.6-0.6c0,0,0,0,0,0c0,0,0,0,0,0s0,0,0,0c0,0,0,0,0,0  l1.6-0.6c0.4-0.2,0.8-0.4,1.1-0.8c0.3-0.4,0.6-0.8,0.7-1.3l0.6-1.8c0,0,0,0,0,0c0,0,0,0,0,0c0,0,0,0,0,0c0,0,0,0,0,0l0.6,1.8  c0.1,0.5,0.4,0.9,0.7,1.3c0.3,0.4,0.7,0.6,1.1,0.8l1.6,0.6c0,0,0,0,0,0c0,0,0,0,0,0s0,0,0,0c0,0,0,0,0,0L170.3,145.5z"></path><path class="st215" d="M59.1,40.2c-0.7,0.3-1.3,0.7-1.9,1.3c-0.5,0.6-0.9,1.3-1.2,2.1l-0.9,3c0,0,0,0,0,0.1c0,0,0,0-0.1,0  c0,0,0,0-0.1,0c0,0,0,0,0-0.1l-0.9-3c-0.2-0.8-0.6-1.5-1.2-2.1c-0.5-0.6-1.2-1-1.9-1.3l-2.7-1c0,0,0,0,0,0c0,0,0,0,0-0.1  c0,0,0,0,0-0.1c0,0,0,0,0,0l2.7-1c0.7-0.3,1.3-0.7,1.9-1.3c0.5-0.6,0.9-1.3,1.2-2.1l0.9-3c0,0,0,0,0-0.1c0,0,0,0,0.1,0  c0,0,0,0,0.1,0c0,0,0,0,0,0.1l0.9,3c0.2,0.8,0.6,1.5,1.2,2.1c0.5,0.6,1.2,1,1.9,1.3l2.7,1c0,0,0,0,0,0c0,0,0,0,0,0.1c0,0,0,0,0,0.1  c0,0,0,0,0,0L59.1,40.2z"></path><circle class="st0" cx="136.3" cy="111" r="2.8"></circle><circle class="st0" cx="168.3" cy="110.5" r="2.3"></circle><circle class="st0" cx="85.7" cy="33.5" r="2.3"></circle></svg>