<svg width="85" height="77" viewBox="0 0 85 77" fill="none" xmlns="http://www.w3.org/2000/svg">
<path fill-rule="evenodd" clip-rule="evenodd" d="M66.7863 23.5176C64.885 23.5176 63.2916 25.079 63.2916 27.0123C63.2916 28.9455 64.885 30.507 66.7863 30.507H81.1156C83.017 30.507 84.5784 28.9455 84.5784 27.0123C84.5784 25.079 83.017 23.5176 81.1156 23.5176H66.7863Z" fill="white"/>
<path fill-rule="evenodd" clip-rule="evenodd" d="M67.0518 42.6162C65.1292 42.6162 63.5571 44.1777 63.5571 46.1109C63.5571 48.0441 65.1186 49.5737 67.0518 49.5737H77.1429C79.0655 49.5737 80.6376 48.0123 80.6376 46.1109C80.6376 44.2095 79.0761 42.6162 77.1429 42.6162H67.0518Z" fill="white"/>
<path fill-rule="evenodd" clip-rule="evenodd" d="M14.929 24.3672C13.0276 24.3672 11.4343 25.9286 11.4343 27.8619C11.4343 29.7951 13.0276 31.3566 14.929 31.3566H53.7423C55.6437 31.3566 57.2051 29.7632 57.2051 27.8619C57.2051 25.9605 55.6437 24.3672 53.7423 24.3672H14.929Z" fill="white"/>
<path fill-rule="evenodd" clip-rule="evenodd" d="M11.583 15.4551C9.6816 15.4551 8.12013 17.0165 8.12013 18.9498C8.12013 20.883 9.6816 22.4126 11.583 22.4126H37.9365C39.8591 22.4126 41.4312 20.8511 41.4312 18.9498C41.4312 17.0484 39.8698 15.4551 37.9365 15.4551H11.583Z" fill="white"/>
<path fill-rule="evenodd" clip-rule="evenodd" d="M3.8819 33.2793C1.95929 33.2793 0.387207 34.8408 0.387207 36.774C0.387207 38.7072 1.94867 40.2368 3.8819 40.2368H12.5814C14.5041 40.2368 16.0761 38.6754 16.0761 36.774C16.0761 34.8726 14.5147 33.2793 12.5814 33.2793H3.8819Z" fill="white"/>
<path fill-rule="evenodd" clip-rule="evenodd" d="M32.1581 6.51123C30.2567 6.51123 28.6952 8.07269 28.6952 10.0059C28.6952 11.9392 30.2567 13.4687 32.1581 13.4687H44.8091C46.7104 13.4687 48.2719 11.9073 48.2719 10.0059C48.2719 8.10455 46.7104 6.51123 44.8091 6.51123H32.1581Z" fill="white"/>
<path fill-rule="evenodd" clip-rule="evenodd" d="M40.7089 33.2476C38.7863 33.2476 37.2142 34.809 37.2142 36.7422C37.2142 38.6755 38.7757 40.2369 40.7089 40.2369H72.5329C74.4555 40.2369 76.0275 38.6755 76.0275 36.7422C76.0275 34.809 74.4661 33.2476 72.5329 33.2476H40.7089Z" fill="white"/>
<path fill-rule="evenodd" clip-rule="evenodd" d="M2.46914 43.7313C3.48886 51.05 7.80148 55.6494 15.2688 57.4658C17.9456 58.1137 20.6967 58.2518 23.416 58.2518C24.3401 58.2518 25.2643 58.2412 26.1672 58.2199H26.7408C27.1338 58.2199 27.4949 58.1881 27.888 58.1881C28.4297 58.1881 29.0033 58.1562 29.5769 58.1562C30.7453 58.1562 31.9562 58.2199 33.1565 58.4855C36.2263 59.1759 37.7984 61.0773 37.8515 64.2108C37.9153 66.8345 36.9487 69.267 34.9623 71.6145C33.369 73.4521 31.4039 74.9286 29.545 76.3413C29.2476 76.5856 28.9714 76.7981 28.674 76.9999H40.8045C42.5253 75.0136 43.7256 73.0803 44.4798 71.094C44.8728 70.1274 45.5314 69.9468 46.1687 69.9255C48.8455 69.7768 52.0109 69.5007 55.1444 68.7784C61.3477 67.3656 65.6285 64.8588 68.5177 60.9498C70.1429 58.751 71.2263 56.1592 71.9486 52.6114H63.759C63.0685 55.5644 61.2628 57.7951 58.3948 59.2928C54.9957 61.0667 51.2567 61.4597 47.6451 61.8527C47.3796 61.8846 47.1034 61.9165 46.806 61.9377C46.7317 61.9377 46.6679 61.9483 46.6042 61.9483C45.7332 61.9483 45.5632 61.2154 45.4782 60.8542C44.5754 57.0303 42.4085 54.141 38.9775 52.2715C38.7013 52.1228 38.3401 51.8785 38.2552 51.4643C38.1702 51.0712 38.4039 50.7101 38.6163 50.4658C40.3371 48.4157 41.325 45.9514 42.0473 43.7207L33.5283 43.7526C32.4449 46.0363 30.6391 47.6934 27.9836 48.8087C25.7742 49.7435 23.5116 50.2108 21.2066 50.2108C19.4965 50.2108 17.7757 49.9559 16.0336 49.446C12.9638 48.5113 11.1262 46.6099 10.5207 43.7526L2.47977 43.7207L2.46914 43.7313Z" fill="white"/>
<path fill-rule="evenodd" clip-rule="evenodd" d="M63.3872 0C57.8424 0 53.2962 4.47192 53.2962 9.93171C53.2643 15.4446 57.7256 19.9272 63.2066 19.959H63.2597C68.8045 19.959 73.2871 15.6039 73.3189 10.1441C73.3827 4.59939 68.9214 0.0212443 63.4403 0H63.3872Z" fill="white"/>
</svg>
