<svg xmlns="http://www.w3.org/2000/svg" width="366" height="335" fill="none" viewBox="0 0 366 335"><path fill="#202126" fill-rule="evenodd" d="M288.653 102.236C280.388 102.236 273.461 109.024 273.461 117.429C273.461 125.833 280.388 132.621 288.653 132.621H350.946C359.212 132.621 366 125.833 366 117.429C366 109.024 359.212 102.236 350.946 102.236H288.653Z" clip-rule="evenodd"/><path fill="#202126" fill-rule="evenodd" d="M289.808 185.263C281.45 185.263 274.615 192.051 274.615 200.455C274.615 208.859 281.403 215.509 289.808 215.509H333.676C342.034 215.509 348.868 208.721 348.868 200.455C348.868 192.189 342.08 185.263 333.676 185.263H289.808Z" clip-rule="evenodd"/><path fill="#202126" fill-rule="evenodd" d="M63.2166 105.93C54.9509 105.93 48.0243 112.718 48.0243 121.122C48.0243 129.526 54.9509 136.314 63.2166 136.314H231.948C240.214 136.314 247.001 129.388 247.001 121.122C247.001 112.856 240.214 105.93 231.948 105.93H63.2166Z" clip-rule="evenodd"/><path fill="#202126" fill-rule="evenodd" d="M48.6707 67.1875C40.405 67.1875 33.6169 73.9755 33.6169 82.3798C33.6169 90.784 40.405 97.4335 48.6707 97.4335H163.236C171.594 97.4335 178.428 90.6455 178.428 82.3798C178.428 74.1141 171.64 67.1875 163.236 67.1875H48.6707Z" clip-rule="evenodd"/><path fill="#202126" fill-rule="evenodd" d="M15.1923 144.673C6.83425 144.673 0 151.461 0 159.865C0 168.269 6.78807 174.919 15.1923 174.919H53.0114C61.3694 174.919 68.2036 168.131 68.2036 159.865C68.2036 151.599 61.4156 144.673 53.0114 144.673H15.1923Z" clip-rule="evenodd"/><path fill="#202126" fill-rule="evenodd" d="M138.116 28.3064C129.85 28.3064 123.062 35.0944 123.062 43.4987C123.062 51.9029 129.85 58.5524 138.116 58.5524H193.113C201.378 58.5524 208.167 51.7644 208.167 43.4987C208.167 35.233 201.378 28.3064 193.113 28.3064H138.116Z" clip-rule="evenodd"/><path fill="#202126" fill-rule="evenodd" d="M175.288 144.535C166.93 144.535 160.096 151.323 160.096 159.727C160.096 168.131 166.884 174.919 175.288 174.919H313.635C321.993 174.919 328.827 168.131 328.827 159.727C328.827 151.323 322.039 144.535 313.635 144.535H175.288Z" clip-rule="evenodd"/><path fill="#202126" fill-rule="evenodd" d="M9.05066 190.111C13.4837 221.927 32.2317 241.922 64.6942 249.818C76.3308 252.635 88.2906 253.236 100.112 253.236C104.129 253.236 108.147 253.189 112.072 253.097H114.565C116.274 253.097 117.844 252.958 119.553 252.958C121.908 252.958 124.401 252.82 126.895 252.82C131.974 252.82 137.238 253.097 142.456 254.251C155.802 257.253 162.636 265.519 162.867 279.141C163.144 290.547 158.942 301.121 150.307 311.326C143.38 319.315 134.837 325.734 126.756 331.875C125.463 332.937 124.263 333.861 122.97 334.738H175.704C183.185 326.103 188.403 317.699 191.681 309.064C193.39 304.862 196.253 304.076 199.023 303.984C210.66 303.338 224.421 302.137 238.043 298.997C265.011 292.855 283.62 281.958 296.18 264.964C303.245 255.406 307.955 244.139 311.095 228.715H275.493C272.491 241.553 264.641 251.25 252.173 257.761C237.397 265.472 221.142 267.181 205.442 268.89C204.287 269.028 203.087 269.167 201.794 269.259C201.471 269.259 201.194 269.305 200.917 269.305C197.13 269.305 196.391 266.119 196.022 264.549C192.097 247.925 182.677 235.365 167.762 227.238C166.561 226.591 164.991 225.529 164.621 223.728C164.252 222.02 165.268 220.45 166.191 219.388C173.672 210.475 177.967 199.762 181.107 190.065L144.073 190.204C139.363 200.132 131.512 207.335 119.968 212.184C110.363 216.248 100.528 218.279 90.5072 218.279C83.0726 218.279 75.592 217.171 68.0189 214.955C54.6737 210.891 46.6851 202.625 44.053 190.204L9.09688 190.065L9.05066 190.111Z" clip-rule="evenodd"/><path fill="#202126" fill-rule="evenodd" d="M273.877 0C249.772 0 230.008 19.4406 230.008 43.1756C229.87 67.1415 249.264 86.6283 273.092 86.7668H273.322C297.427 86.7668 316.914 67.8342 317.052 44.0991C317.329 19.9947 297.935 0.0923542 274.108 0H273.877Z" clip-rule="evenodd"/></svg>