<svg width="105" height="96" viewBox="0 0 105 96" fill="none" xmlns="http://www.w3.org/2000/svg">
<path fill-rule="evenodd" clip-rule="evenodd" d="M82.7833 29.3206C80.4128 29.3206 78.4263 31.2673 78.4263 33.6776C78.4263 36.0878 80.4128 38.0346 82.7833 38.0346H100.648C103.019 38.0346 104.966 36.0878 104.966 33.6776C104.966 31.2673 103.019 29.3206 100.648 29.3206H82.7833Z" fill="#20AAA1"/>
<path fill-rule="evenodd" clip-rule="evenodd" d="M83.1143 53.1318C80.7173 53.1318 78.7573 55.0786 78.7573 57.4889C78.7573 59.8991 80.7041 61.8061 83.1143 61.8061H95.6954C98.0924 61.8061 100.052 59.8594 100.052 57.4889C100.052 55.1183 98.1056 53.1318 95.6954 53.1318H83.1143Z" fill="#20AAA1"/>
<path fill-rule="evenodd" clip-rule="evenodd" d="M18.13 30.3799C15.7594 30.3799 13.773 32.3266 13.773 34.7369C13.773 37.1472 15.7594 39.0939 18.13 39.0939H66.5206C68.8912 39.0939 70.8379 37.1074 70.8379 34.7369C70.8379 32.3664 68.8912 30.3799 66.5206 30.3799H18.13Z" fill="#20AAA1"/>
<path fill-rule="evenodd" clip-rule="evenodd" d="M13.9583 19.2688C11.5878 19.2688 9.64104 21.2156 9.64104 23.6258C9.64104 26.0361 11.5878 27.9431 13.9583 27.9431H46.8147C49.2117 27.9431 51.1717 25.9963 51.1717 23.6258C51.1717 21.2553 49.225 19.2688 46.8147 19.2688H13.9583Z" fill="#20AAA1"/>
<path fill-rule="evenodd" clip-rule="evenodd" d="M4.35702 41.491C1.96 41.491 0 43.4377 0 45.848C0 48.2582 1.94676 50.1653 4.35702 50.1653H15.2032C17.6002 50.1653 19.5602 48.2185 19.5602 45.848C19.5602 43.4774 17.6135 41.491 15.2032 41.491H4.35702Z" fill="#20AAA1"/>
<path fill-rule="evenodd" clip-rule="evenodd" d="M39.6104 8.11792C37.2399 8.11792 35.2931 10.0647 35.2931 12.4749C35.2931 14.8852 37.2399 16.7922 39.6104 16.7922H55.3831C57.7536 16.7922 59.7004 14.8455 59.7004 12.4749C59.7004 10.1044 57.7536 8.11792 55.3831 8.11792H39.6104Z" fill="#20AAA1"/>
<path fill-rule="evenodd" clip-rule="evenodd" d="M50.2712 41.4514C47.8742 41.4514 45.9142 43.3982 45.9142 45.8084C45.9142 48.2187 47.8609 50.1654 50.2712 50.1654H89.9478C92.3449 50.1654 94.3048 48.2187 94.3048 45.8084C94.3048 43.3982 92.3581 41.4514 89.9478 41.4514H50.2712Z" fill="#20AAA1"/>
<path fill-rule="evenodd" clip-rule="evenodd" d="M2.59565 54.5223C3.867 63.6468 9.24376 69.3811 18.5537 71.6457C21.891 72.4536 25.321 72.6257 28.7112 72.6257C29.8634 72.6257 31.0156 72.6125 32.1412 72.586H32.8564C33.3464 72.586 33.7967 72.5463 34.2867 72.5463C34.9621 72.5463 35.6772 72.5065 36.3923 72.5065C37.8491 72.5065 39.3588 72.586 40.8553 72.9171C44.6826 73.7779 46.6425 76.1484 46.7087 80.0552C46.7882 83.3262 45.5831 86.3589 43.1066 89.2857C41.1202 91.5767 38.6702 93.4176 36.3526 95.1789C35.9818 95.4835 35.6375 95.7484 35.2666 96H50.3904C52.5358 93.5235 54.0323 91.1132 54.9725 88.6368C55.4625 87.4316 56.2836 87.2065 57.0782 87.18C60.4155 86.9946 64.362 86.6503 68.2687 85.7497C76.0027 83.9884 81.3397 80.863 84.9419 75.9895C86.9681 73.2482 88.3189 70.0168 89.2194 65.5936H79.0089C78.1481 69.2752 75.8968 72.0563 72.3211 73.9236C68.0833 76.1352 63.4217 76.6252 58.919 77.1152C58.5879 77.1549 58.2436 77.1946 57.8728 77.2211C57.7801 77.2211 57.7006 77.2344 57.6212 77.2344C56.5352 77.2344 56.3233 76.3206 56.2174 75.8703C55.0917 71.1028 52.3901 67.5006 48.1126 65.1698C47.7682 64.9844 47.3179 64.6798 47.212 64.1633C47.1061 63.6733 47.3974 63.2231 47.6623 62.9185C49.8077 60.3625 51.0393 57.2901 51.9398 54.509L41.3188 54.5488C39.968 57.396 37.7166 59.462 34.4058 60.8525C31.6513 62.0179 28.8305 62.6006 25.9567 62.6006C23.8245 62.6006 21.6791 62.2828 19.5072 61.6471C15.68 60.4817 13.3889 58.1112 12.634 54.5488L2.60891 54.509L2.59565 54.5223Z" fill="#BA18DD"/>
<path fill-rule="evenodd" clip-rule="evenodd" d="M78.5454 0C71.6325 0 65.9644 5.57539 65.9644 12.3824C65.9247 19.2556 71.4868 24.8442 78.3203 24.884H78.3865C85.2995 24.884 90.8881 19.4543 90.9278 12.6472C91.0073 5.7343 85.4452 0.0264864 78.6117 0H78.5454Z" fill="#EAB54E"/>
</svg>
