<svg width="462" height="422" viewBox="0 0 462 422" fill="none" xmlns="http://www.w3.org/2000/svg">
<path d="M147.806 123.897L157.093 105.258L182.643 119.49L174.527 135.754L147.806 123.897Z" fill="#52339A"/>
<path d="M168.028 87.556L180.506 70.8909L203.088 89.4703L192.182 104.013L168.028 87.556Z" fill="#52339A"/>
<path d="M194.423 55.4272L209.69 41.2849L228.578 63.604L215.254 75.9655L194.423 55.4272Z" fill="#52339A"/>
<path d="M226.16 28.5509L243.727 17.3617L258.296 42.7229L242.97 52.4875L226.16 28.5509Z" fill="#52339A"/>
<path d="M280.952 45.2167L296.857 38.7762L304.883 61.496L291.026 67.1202L280.952 45.2167Z" fill="#52339A"/>
<path d="M251.234 62.3138L265.7 53.0835L277.717 73.9928L265.091 82.0359L251.234 62.3138Z" fill="#52339A"/>
<path d="M179.305 275.086L174.869 258.51L198.415 253.346L202.273 267.815L179.305 275.086Z" fill="#52339A"/>
<path d="M171.96 241.592L170.565 224.511L194.66 223.636L195.877 238.579L171.96 241.592Z" fill="#52339A"/>
<path d="M170.714 207.357L172.405 190.276L196.263 193.734L194.779 208.633L170.714 207.357Z" fill="#52339A"/>
<path d="M175.639 173.404L180.402 156.902L203.236 164.619L199.082 179.029L175.639 173.404Z" fill="#52339A"/>
<path d="M186.634 140.905L194.304 125.545L215.358 137.269L208.681 150.669L186.634 140.905Z" fill="#52339A"/>
<path d="M296.991 79.8082L309.691 74.6588L316.101 92.8079L305.032 97.2895L296.991 79.8082Z" fill="#52339A"/>
<path d="M225.077 84.4694L237.659 72.8053L253.237 91.1918L242.243 101.387L225.077 84.4694Z" fill="#52339A"/>
<path d="M274.423 34.3986L262.213 7.82057L281.516 0L291.249 27.5723L274.423 34.3986Z" fill="#52339A"/>
<path d="M273.252 93.4477L284.81 86.0872L294.41 102.782L284.32 109.208L273.252 93.4477Z" fill="#52339A"/>
<path d="M252.377 111.136L262.421 101.831L274.855 116.508L266.086 124.655L252.377 111.136Z" fill="#52339A"/>
<path d="M203.31 110.943L213.592 97.2157L232.213 112.516L223.236 124.521L203.31 110.943Z" fill="#52339A"/>
<path d="M235.002 132.284L243.207 121.317L258.074 133.545L250.908 143.117L235.002 132.284Z" fill="#52339A"/>
<path d="M221.694 156.19L227.806 143.932L244.617 153.296L239.275 163.996L221.694 156.19Z" fill="#52339A"/>
<path d="M212.91 182.144L216.708 168.966L234.942 175.14L231.619 186.626L212.91 182.144Z" fill="#52339A"/>
<path d="M208.979 209.256L210.329 195.603L229.365 198.378L228.192 210.28L208.979 209.256Z" fill="#52339A"/>
<path d="M209.972 236.592L208.86 222.955L228.088 222.242L229.067 234.188L209.972 236.592Z" fill="#52339A"/>
<path d="M212.286 250.096L231.085 245.971L234.171 257.516L215.832 263.333L212.286 250.096Z" fill="#52339A"/>
<path d="M138.888 286.69L133.517 266.567L162.078 260.305L166.767 277.861L138.888 286.69Z" fill="#52339A"/>
<path d="M129.987 246.059L128.31 225.328L157.539 224.259L159.008 242.394L129.987 246.059Z" fill="#52339A"/>
<path d="M128.488 204.509L130.536 183.792L159.468 187.992L157.687 206.067L128.488 204.509Z" fill="#52339A"/>
<path d="M134.452 163.328L140.238 143.294L167.924 152.673L162.894 170.139L134.452 163.328Z" fill="#52339A"/>
<path d="M412.614 245.733L424.706 262.695L400.151 278.574L389.602 263.779L412.614 245.733Z" fill="#52339A"/>
<path d="M435.212 280.666L444.055 299.513L417.037 310.732L409.322 294.274L435.212 280.666Z" fill="#52339A"/>
<path d="M451.161 319.072L456.487 339.18L427.911 345.398L423.253 327.813L451.161 319.072Z" fill="#52339A"/>
<path d="M459.974 359.703L461.606 380.464L432.377 381.428L430.968 363.309L459.974 359.703Z" fill="#52339A"/>
<path d="M419.543 400.275L417.763 417.341L393.92 413.765L395.478 398.865L419.543 400.275Z" fill="#52339A"/>
<path d="M418.417 365.996L419.752 383.106L395.657 383.907L394.485 368.964L418.417 365.996Z" fill="#52339A"/>
<path d="M264.365 202.551L281.087 206.424L274.588 229.648L260.003 226.265L264.365 202.551Z" fill="#52339A"/>
<path d="M297.377 211.794L313.119 218.606L302.57 240.287L288.816 234.336L297.377 211.794Z" fill="#52339A"/>
<path d="M328.193 226.784L342.481 236.296L328.223 255.736L315.745 247.441L328.193 226.784Z" fill="#52339A"/>
<path d="M355.848 247.068L368.178 259.029L350.641 275.561L339.869 265.128L355.848 247.068Z" fill="#52339A"/>
<path d="M379.365 272.044L389.335 286.023L369.083 299.111L360.389 286.913L379.365 272.044Z" fill="#52339A"/>
<path d="M381.473 398.183L380.063 411.821L361.028 408.957L362.274 397.07L381.473 398.183Z" fill="#52339A"/>
<path d="M411.131 332.487L415.523 349.078L391.977 354.197L388.134 339.714L411.131 332.487Z" fill="#52339A"/>
<path d="M432.156 399.593L461.355 401.284L459.189 422.001L430.271 417.653L432.156 399.593Z" fill="#52339A"/>
<path d="M380.582 370.818L381.65 384.486L362.422 385.124L361.487 373.193L380.582 370.818Z" fill="#52339A"/>
<path d="M374.766 344.077L378.282 357.314L359.469 361.395L356.413 349.835L374.766 344.077Z" fill="#52339A"/>
<path d="M397.986 300.848L405.271 316.371L383.016 325.631L376.651 312.052L397.986 300.848Z" fill="#52339A"/>
<path d="M364.276 318.804L370.093 331.21L352.318 338.586L347.244 327.752L364.276 318.804Z" fill="#52339A"/>
<path d="M349.41 295.818L357.362 306.978L341.205 317.425L334.261 307.69L349.41 295.818Z" fill="#52339A"/>
<path d="M330.626 275.875L340.478 285.432L326.472 298.625L317.882 290.299L330.626 275.875Z" fill="#52339A"/>
<path d="M308.549 259.683L319.958 267.281L308.578 282.803L298.623 276.17L308.549 259.683Z" fill="#52339A"/>
<path d="M283.95 247.721L296.517 253.137L288.104 270.456L277.11 265.707L283.95 247.721Z" fill="#52339A"/>
<path d="M270.938 243.433L265.745 261.967L254.112 259.267L257.599 240.331L270.938 243.433Z" fill="#52339A"/>
<path d="M273.103 161.429L293.385 166.133L285.492 194.285L267.807 190.189L273.103 161.429Z" fill="#52339A"/>
<path d="M313.149 172.648L332.244 180.899L319.454 207.195L302.763 199.983L313.149 172.648Z" fill="#52339A"/>
<path d="M350.523 190.826L367.867 202.371L350.568 225.951L335.434 215.875L350.523 190.826Z" fill="#52339A"/>
<path d="M384.083 215.446L399.039 229.944L377.763 250.007L364.706 237.349L384.083 215.446Z" fill="#52339A"/>
<path d="M175.164 417.412L154.407 419.089L153.368 389.87L171.484 388.401L175.164 417.412Z" fill="#52339A"/>
<path d="M133.592 418.897L112.894 416.82L117.108 387.867L135.194 389.693L133.592 418.897Z" fill="#52339A"/>
<path d="M92.4628 412.887L72.4478 407.144L81.7802 379.423L99.2581 384.439L92.4628 412.887Z" fill="#52339A"/>
<path d="M53.0415 399.621L34.3915 390.361L48.5607 364.777L64.8368 372.85L53.0415 399.621Z" fill="#52339A"/>
<path d="M38.9916 344.09L25.2378 333.806L40.5495 315.182L52.5377 324.146L38.9916 344.09Z" fill="#52339A"/>
<path d="M68.9763 360.695L53.6053 353.068L65.2819 331.98L78.6945 338.628L68.9763 360.695Z" fill="#52339A"/>
<path d="M288.266 312.287L276.367 324.649L259.779 307.153L270.165 296.364L288.266 312.287Z" fill="#52339A"/>
<path d="M263.4 335.884L249.497 345.901L236.293 325.733L248.459 316.963L263.4 335.884Z" fill="#52339A"/>
<path d="M234.735 354.656L219.245 362.032L209.868 339.817L223.399 333.376L234.735 354.656Z" fill="#52339A"/>
<path d="M203.133 367.982L186.545 372.449L181.352 348.898L195.833 345.01L203.133 367.982Z" fill="#52339A"/>
<path d="M169.63 375.372L152.523 376.752L151.678 352.667L166.604 351.45L169.63 375.372Z" fill="#52339A"/>
<path d="M60.2969 312.479L49.3324 304.273L61.5432 289.389L71.113 296.556L60.2969 312.479Z" fill="#52339A"/>
<path d="M101.455 371.647L84.9708 366.898L92.6712 344.06L107.063 348.186L101.455 371.647Z" fill="#52339A"/>
<path d="M33.1011 355.264L16.6618 379.453L0 366.987L18.561 344.386L33.1011 355.264Z" fill="#52339A"/>
<path d="M84.2445 325.746L71.9744 319.647L81.292 302.819L92.0042 308.132L84.2445 325.746Z" fill="#52339A"/>
<path d="M110.179 334.472L97.0189 330.688L103.161 312.45L114.66 315.759L110.179 334.472Z" fill="#52339A"/>
<path d="M135.373 376.589L118.31 374.883L121.782 351.02L136.693 352.519L135.373 376.589Z" fill="#52339A"/>
<path d="M137.256 338.42L123.621 337.055L126.396 318.015L138.31 319.202L137.256 338.42Z" fill="#52339A"/>
<path d="M164.601 337.455L150.951 338.553L150.268 319.321L162.182 318.356L164.601 337.455Z" fill="#52339A"/>
<path d="M191.351 331.566L178.102 335.113L173.962 316.326L185.52 313.224L191.351 331.566Z" fill="#52339A"/>
<path d="M216.574 320.909L204.214 326.815L196.722 309.067L207.523 303.932L216.574 320.909Z" fill="#52339A"/>
<path d="M239.468 305.937L228.356 313.936L217.821 297.82L227.54 290.831L239.468 305.937Z" fill="#52339A"/>
<path d="M249.824 296.959L236.574 282.994L244.868 274.387L259.319 287.09L249.824 296.959Z" fill="#52339A"/>
<path d="M319.082 340.885L304.646 355.888L284.527 334.667L297.123 321.579L319.082 340.885Z" fill="#52339A"/>
<path d="M288.92 369.51L272.05 381.664L256.026 357.193L270.789 346.568L288.92 369.51Z" fill="#52339A"/>
<path d="M254.142 392.275L235.344 401.238L223.978 374.289L240.373 366.469L254.142 392.275Z" fill="#52339A"/>
<path d="M215.803 408.45L195.669 413.867L189.378 385.3L206.93 380.581L215.803 408.45Z" fill="#52339A"/>
</svg>
