<svg xmlns="http://www.w3.org/2000/svg" xmlns:xlink="http://www.w3.org/1999/xlink" width="402.414" height="374.016" version="1.1" viewBox="0 0 301.81 280.512"><metadata><rdf:RDF xmlns:cc="http://creativecommons.org/ns#" xmlns:dc="http://purl.org/dc/elements/1.1/" xmlns:rdf="http://www.w3.org/1999/02/22-rdf-syntax-ns#"><cc:Work><dc:type rdf:resource="http://purl.org/dc/dcmitype/StillImage"/><dc:date>2025-01-29T13:36:11.203873</dc:date><dc:format>image/svg+xml</dc:format><dc:creator><cc:Agent><dc:title>Matplotlib v3.10.0, https://matplotlib.org/</dc:title></cc:Agent></dc:creator></cc:Work></rdf:RDF></metadata><defs><style type="text/css">*{stroke-linejoin:round;stroke-linecap:butt}</style></defs><g id="figure_1"><g id="patch_1"><path d="M 0 280.512 L 301.8105 280.512 L 301.8105 0 L 0 0 L 0 280.512 z" style="fill:none"/></g><g id="axes_1"><g id="patch_2"><path d="M 125.727668 243.765494 C 136.4185 246.329507 147.442322 247.221832 158.406357 246.410674 C 169.370393 245.599516 180.142865 243.094628 190.339977 238.985253 C 200.537089 234.875878 210.036278 229.211403 218.499092 222.193655 C 226.961906 215.175907 234.286644 206.889213 240.212315 197.628844 C 246.137985 188.368475 250.593382 178.245715 253.419764 167.621231 C 256.246145 156.996748 257.409536 145.998241 256.868488 135.017562 C 256.327445 124.036883 254.088466 113.206007 250.231321 102.91084 C 246.374176 92.615672 240.945231 82.979931 234.137908 74.346948 C 227.330585 65.713965 219.226692 58.187488 210.114983 52.035677 C 201.003271 45.883866 190.993246 41.180661 180.44155 38.09363 C 169.889854 35.0066 158.9233 33.572846 147.932631 33.84345 C 136.941961 34.114053 126.059283 36.085766 115.672293 39.688334 C 105.285304 43.290902 95.518851 48.481042 86.720927 55.073816 C 77.923004 61.66659 70.199342 69.582765 63.825121 78.540294 C 57.4509 87.497825 52.502737 97.389064 49.156922 107.861579 C 45.811108 118.334094 44.107867 129.262009 44.107867 140.256009 L 86.685787 140.256006 C 86.685787 133.659605 87.707732 127.102856 89.71522 120.819347 C 91.722709 114.535838 94.691607 108.601095 98.51614 103.226576 C 102.340672 97.852059 106.974869 93.102354 112.253623 89.14669 C 117.532377 85.191025 123.392249 82.076941 129.624443 79.9154 C 135.856637 77.75386 142.386244 76.570832 148.980645 76.40847 C 155.575047 76.246108 162.154979 77.10636 168.485997 78.958578 C 174.817014 80.810797 180.82303 83.632719 186.290057 87.323806 C 191.757082 91.014893 196.619418 95.530779 200.703812 100.710569 C 204.788205 105.890358 208.045572 111.671803 210.359859 117.848904 C 212.674146 124.026004 214.017534 130.52453 214.342159 137.112937 C 214.666789 143.701345 213.968754 150.300449 212.272925 156.675139 C 210.577096 163.049829 207.903858 169.123485 204.348456 174.679706 C 200.793054 180.235928 196.398211 185.207944 191.320522 189.418593 C 186.242834 193.629242 180.54332 197.027927 174.425053 199.493552 C 168.306786 201.959177 161.843303 203.46211 155.264881 203.948804 C 148.68646 204.435499 142.072167 203.900104 135.657668 202.361696 z" style="fill:#ffe6ff;stroke:#fff;stroke-linejoin:miter"/></g><g id="patch_3"><path d="M 76.940618 217.143984 C 83.719758 223.634286 91.327573 229.199602 99.566004 233.695046 C 107.804432 238.19049 116.601337 241.576701 125.727668 243.765494 L 135.657668 202.361696 C 130.181869 201.04842 124.903726 199.016694 119.960669 196.319428 C 115.017611 193.622161 110.452922 190.282972 106.385438 186.38879 z" style="fill:#e6ffff;stroke:#fff;stroke-linejoin:miter"/></g><g id="patch_4"><path d="M 52.571481 181.851459 C 55.386391 188.482189 58.86713 194.810082 62.960142 200.737776 C 67.053155 206.66547 71.737338 212.162397 76.940618 217.143984 L 106.385438 186.38879 C 103.26347 183.399838 100.45296 180.101682 97.997152 176.545066 C 95.541345 172.988449 93.452902 169.191713 91.763955 165.213275 z" style="fill:#ffffe6;stroke:#fff;stroke-linejoin:miter"/></g><g id="patch_5"><path d="M 45.477426 157.276276 C 46.160943 161.495991 47.098028 165.67069 48.283594 169.777714 C 49.469159 173.884739 50.901048 177.916633 52.571481 181.851459 L 91.763955 165.213275 C 90.761696 162.85238 89.902562 160.433243 89.191223 157.969029 C 88.479884 155.504814 87.917633 152.999995 87.507523 150.468165 z" style="fill:#e6e6ff;stroke:#fff;stroke-linejoin:miter"/></g><g id="patch_6"><path d="M 44.107867 140.255991 C 44.107867 143.105316 44.222267 145.953481 44.450806 148.793627 C 44.679345 151.633772 45.021826 154.463611 45.477426 157.276276 L 87.507523 150.468165 C 87.234163 148.780567 87.028674 147.082663 86.89155 145.378576 C 86.754427 143.674489 86.685787 141.96559 86.685787 140.255994 z" style="fill:#e6e6e6;stroke:#fff;stroke-linejoin:miter"/></g><g id="text_1"><g transform="translate(242.496437 70.515426) scale(0.1 -0.1)"><defs><path id="DejaVuSans-73" d="M 2834 3397 L 2834 2853 Q 2591 2978 2328 3040 Q 2066 3103 1784 3103 Q 1356 3103 1142 2972 Q 928 2841 928 2578 Q 928 2378 1081 2264 Q 1234 2150 1697 2047 L 1894 2003 Q 2506 1872 2764 1633 Q 3022 1394 3022 966 Q 3022 478 2636 193 Q 2250 -91 1575 -91 Q 1294 -91 989 -36 Q 684 19 347 128 L 347 722 Q 666 556 975 473 Q 1284 391 1588 391 Q 1994 391 2212 530 Q 2431 669 2431 922 Q 2431 1156 2273 1281 Q 2116 1406 1581 1522 L 1381 1569 Q 847 1681 609 1914 Q 372 2147 372 2553 Q 372 3047 722 3315 Q 1072 3584 1716 3584 Q 2034 3584 2315 3537 Q 2597 3491 2834 3397 z" transform="scale(0.015625)"/><path id="DejaVuSans-65" d="M 3597 1894 L 3597 1613 L 953 1613 Q 991 1019 1311 708 Q 1631 397 2203 397 Q 2534 397 2845 478 Q 3156 559 3463 722 L 3463 178 Q 3153 47 2828 -22 Q 2503 -91 2169 -91 Q 1331 -91 842 396 Q 353 884 353 1716 Q 353 2575 817 3079 Q 1281 3584 2069 3584 Q 2775 3584 3186 3129 Q 3597 2675 3597 1894 z M 3022 2063 Q 3016 2534 2758 2815 Q 2500 3097 2075 3097 Q 1594 3097 1305 2825 Q 1016 2553 972 2059 L 3022 2063 z" transform="scale(0.015625)"/><path id="DejaVuSans-74" d="M 1172 4494 L 1172 3500 L 2356 3500 L 2356 3053 L 1172 3053 L 1172 1153 Q 1172 725 1289 603 Q 1406 481 1766 481 L 2356 481 L 2356 0 L 1766 0 Q 1100 0 847 248 Q 594 497 594 1153 L 594 3053 L 172 3053 L 172 3500 L 594 3500 L 594 4494 L 1172 4494 z" transform="scale(0.015625)"/><path id="DejaVuSans-75" d="M 544 1381 L 544 3500 L 1119 3500 L 1119 1403 Q 1119 906 1312 657 Q 1506 409 1894 409 Q 2359 409 2629 706 Q 2900 1003 2900 1516 L 2900 3500 L 3475 3500 L 3475 0 L 2900 0 L 2900 538 Q 2691 219 2414 64 Q 2138 -91 1772 -91 Q 1169 -91 856 284 Q 544 659 544 1381 z M 1991 3584 L 1991 3584 z" transform="scale(0.015625)"/><path id="DejaVuSans-70" d="M 1159 525 L 1159 -1331 L 581 -1331 L 581 3500 L 1159 3500 L 1159 2969 Q 1341 3281 1617 3432 Q 1894 3584 2278 3584 Q 2916 3584 3314 3078 Q 3713 2572 3713 1747 Q 3713 922 3314 415 Q 2916 -91 2278 -91 Q 1894 -91 1617 61 Q 1341 213 1159 525 z M 3116 1747 Q 3116 2381 2855 2742 Q 2594 3103 2138 3103 Q 1681 3103 1420 2742 Q 1159 2381 1159 1747 Q 1159 1113 1420 752 Q 1681 391 2138 391 Q 2594 391 2855 752 Q 3116 1113 3116 1747 z" transform="scale(0.015625)"/><path id="DejaVuSans-6f" d="M 1959 3097 Q 1497 3097 1228 2736 Q 959 2375 959 1747 Q 959 1119 1226 758 Q 1494 397 1959 397 Q 2419 397 2687 759 Q 2956 1122 2956 1747 Q 2956 2369 2687 2733 Q 2419 3097 1959 3097 z M 1959 3584 Q 2709 3584 3137 3096 Q 3566 2609 3566 1747 Q 3566 888 3137 398 Q 2709 -91 1959 -91 Q 1206 -91 779 398 Q 353 888 353 1747 Q 353 2609 779 3096 Q 1206 3584 1959 3584 z" transform="scale(0.015625)"/><path id="DejaVuSans-6c" d="M 603 4863 L 1178 4863 L 1178 0 L 603 0 L 603 4863 z" transform="scale(0.015625)"/></defs><use xlink:href="#DejaVuSans-73"/><use transform="translate(52.099609 0)" xlink:href="#DejaVuSans-65"/><use transform="translate(113.623047 0)" xlink:href="#DejaVuSans-74"/><use transform="translate(152.832031 0)" xlink:href="#DejaVuSans-75"/><use transform="translate(216.210938 0)" xlink:href="#DejaVuSans-70"/><use transform="translate(279.6875 0)" xlink:href="#DejaVuSans-74"/><use transform="translate(318.896484 0)" xlink:href="#DejaVuSans-6f"/><use transform="translate(380.078125 0)" xlink:href="#DejaVuSans-6f"/><use transform="translate(441.259766 0)" xlink:href="#DejaVuSans-6c"/><use transform="translate(469.042969 0)" xlink:href="#DejaVuSans-73"/></g></g><g id="text_2"><g transform="translate(206.307582 90.288139) scale(0.1 -0.1)"><defs><path id="DejaVuSans-37" d="M 525 4666 L 3525 4666 L 3525 4397 L 1831 0 L 1172 0 L 2766 4134 L 525 4134 L 525 4666 z" transform="scale(0.015625)"/><path id="DejaVuSans-38" d="M 2034 2216 Q 1584 2216 1326 1975 Q 1069 1734 1069 1313 Q 1069 891 1326 650 Q 1584 409 2034 409 Q 2484 409 2743 651 Q 3003 894 3003 1313 Q 3003 1734 2745 1975 Q 2488 2216 2034 2216 z M 1403 2484 Q 997 2584 770 2862 Q 544 3141 544 3541 Q 544 4100 942 4425 Q 1341 4750 2034 4750 Q 2731 4750 3128 4425 Q 3525 4100 3525 3541 Q 3525 3141 3298 2862 Q 3072 2584 2669 2484 Q 3125 2378 3379 2068 Q 3634 1759 3634 1313 Q 3634 634 3220 271 Q 2806 -91 2034 -91 Q 1263 -91 848 271 Q 434 634 434 1313 Q 434 1759 690 2068 Q 947 2378 1403 2484 z M 1172 3481 Q 1172 3119 1398 2916 Q 1625 2713 2034 2713 Q 2441 2713 2670 2916 Q 2900 3119 2900 3481 Q 2900 3844 2670 4047 Q 2441 4250 2034 4250 Q 1625 4250 1398 4047 Q 1172 3844 1172 3481 z" transform="scale(0.015625)"/><path id="DejaVuSans-25" d="M 4653 2053 Q 4381 2053 4226 1822 Q 4072 1591 4072 1178 Q 4072 772 4226 539 Q 4381 306 4653 306 Q 4919 306 5073 539 Q 5228 772 5228 1178 Q 5228 1588 5073 1820 Q 4919 2053 4653 2053 z M 4653 2450 Q 5147 2450 5437 2106 Q 5728 1763 5728 1178 Q 5728 594 5436 251 Q 5144 -91 4653 -91 Q 4153 -91 3862 251 Q 3572 594 3572 1178 Q 3572 1766 3864 2108 Q 4156 2450 4653 2450 z M 1428 4353 Q 1159 4353 1004 4120 Q 850 3888 850 3481 Q 850 3069 1003 2837 Q 1156 2606 1428 2606 Q 1700 2606 1854 2837 Q 2009 3069 2009 3481 Q 2009 3884 1853 4118 Q 1697 4353 1428 4353 z M 4250 4750 L 4750 4750 L 1831 -91 L 1331 -91 L 4250 4750 z M 1428 4750 Q 1922 4750 2215 4408 Q 2509 4066 2509 3481 Q 2509 2891 2217 2550 Q 1925 2209 1428 2209 Q 931 2209 642 2551 Q 353 2894 353 3481 Q 353 4063 643 4406 Q 934 4750 1428 4750 z" transform="scale(0.015625)"/></defs><use xlink:href="#DejaVuSans-37"/><use transform="translate(63.623047 0)" xlink:href="#DejaVuSans-38"/><use transform="translate(127.246094 0)" xlink:href="#DejaVuSans-25"/></g></g><g id="text_3"><g transform="translate(61.89705 245.798341) scale(0.1 -0.1)"><defs><path id="DejaVuSans-72" d="M 2631 2963 Q 2534 3019 2420 3045 Q 2306 3072 2169 3072 Q 1681 3072 1420 2755 Q 1159 2438 1159 1844 L 1159 0 L 581 0 L 581 3500 L 1159 3500 L 1159 2956 Q 1341 3275 1631 3429 Q 1922 3584 2338 3584 Q 2397 3584 2469 3576 Q 2541 3569 2628 3553 L 2631 2963 z" transform="scale(0.015625)"/><path id="DejaVuSans-79" d="M 2059 -325 Q 1816 -950 1584 -1140 Q 1353 -1331 966 -1331 L 506 -1331 L 506 -850 L 844 -850 Q 1081 -850 1212 -737 Q 1344 -625 1503 -206 L 1606 56 L 191 3500 L 800 3500 L 1894 763 L 2988 3500 L 3597 3500 L 2059 -325 z" transform="scale(0.015625)"/></defs><use xlink:href="#DejaVuSans-70"/><use transform="translate(63.476562 0)" xlink:href="#DejaVuSans-6f"/><use transform="translate(124.658203 0)" xlink:href="#DejaVuSans-65"/><use transform="translate(186.181641 0)" xlink:href="#DejaVuSans-74"/><use transform="translate(225.390625 0)" xlink:href="#DejaVuSans-72"/><use transform="translate(266.503906 0)" xlink:href="#DejaVuSans-79"/></g></g><g id="text_4"><g transform="translate(97.061011 217.766623) scale(0.1 -0.1)"><defs><path id="DejaVuSans-2e" d="M 684 794 L 1344 794 L 1344 0 L 684 0 L 684 794 z" transform="scale(0.015625)"/><path id="DejaVuSans-34" d="M 2419 4116 L 825 1625 L 2419 1625 L 2419 4116 z M 2253 4666 L 3047 4666 L 3047 1625 L 3713 1625 L 3713 1100 L 3047 1100 L 3047 0 L 2419 0 L 2419 1100 L 313 1100 L 313 1709 L 2253 4666 z" transform="scale(0.015625)"/></defs><use xlink:href="#DejaVuSans-38"/><use transform="translate(63.623047 0)" xlink:href="#DejaVuSans-2e"/><use transform="translate(95.410156 0)" xlink:href="#DejaVuSans-34"/><use transform="translate(159.033203 0)" xlink:href="#DejaVuSans-25"/></g></g><g id="text_5"><g transform="translate(7.736828 209.545327) scale(0.1 -0.1)"><defs><path id="DejaVuSans-68" d="M 3513 2113 L 3513 0 L 2938 0 L 2938 2094 Q 2938 2591 2744 2837 Q 2550 3084 2163 3084 Q 1697 3084 1428 2787 Q 1159 2491 1159 1978 L 1159 0 L 581 0 L 581 4863 L 1159 4863 L 1159 2956 Q 1366 3272 1645 3428 Q 1925 3584 2291 3584 Q 2894 3584 3203 3211 Q 3513 2838 3513 2113 z" transform="scale(0.015625)"/><path id="DejaVuSans-61" d="M 2194 1759 Q 1497 1759 1228 1600 Q 959 1441 959 1056 Q 959 750 1161 570 Q 1363 391 1709 391 Q 2188 391 2477 730 Q 2766 1069 2766 1631 L 2766 1759 L 2194 1759 z M 3341 1997 L 3341 0 L 2766 0 L 2766 531 Q 2569 213 2275 61 Q 1981 -91 1556 -91 Q 1019 -91 701 211 Q 384 513 384 1019 Q 384 1609 779 1909 Q 1175 2209 1959 2209 L 2766 2209 L 2766 2266 Q 2766 2663 2505 2880 Q 2244 3097 1772 3097 Q 1472 3097 1187 3025 Q 903 2953 641 2809 L 641 3341 Q 956 3463 1253 3523 Q 1550 3584 1831 3584 Q 2591 3584 2966 3190 Q 3341 2797 3341 1997 z" transform="scale(0.015625)"/><path id="DejaVuSans-63" d="M 3122 3366 L 3122 2828 Q 2878 2963 2633 3030 Q 2388 3097 2138 3097 Q 1578 3097 1268 2742 Q 959 2388 959 1747 Q 959 1106 1268 751 Q 1578 397 2138 397 Q 2388 397 2633 464 Q 2878 531 3122 666 L 3122 134 Q 2881 22 2623 -34 Q 2366 -91 2075 -91 Q 1284 -91 818 406 Q 353 903 353 1747 Q 353 2603 823 3093 Q 1294 3584 2113 3584 Q 2378 3584 2631 3529 Q 2884 3475 3122 3366 z" transform="scale(0.015625)"/><path id="DejaVuSans-69" d="M 603 3500 L 1178 3500 L 1178 0 L 603 0 L 603 3500 z M 603 4863 L 1178 4863 L 1178 4134 L 603 4134 L 603 4863 z" transform="scale(0.015625)"/><path id="DejaVuSans-6e" d="M 3513 2113 L 3513 0 L 2938 0 L 2938 2094 Q 2938 2591 2744 2837 Q 2550 3084 2163 3084 Q 1697 3084 1428 2787 Q 1159 2491 1159 1978 L 1159 0 L 581 0 L 581 3500 L 1159 3500 L 1159 2956 Q 1366 3272 1645 3428 Q 1925 3584 2291 3584 Q 2894 3584 3203 3211 Q 3513 2838 3513 2113 z" transform="scale(0.015625)"/><path id="DejaVuSans-67" d="M 2906 1791 Q 2906 2416 2648 2759 Q 2391 3103 1925 3103 Q 1463 3103 1205 2759 Q 947 2416 947 1791 Q 947 1169 1205 825 Q 1463 481 1925 481 Q 2391 481 2648 825 Q 2906 1169 2906 1791 z M 3481 434 Q 3481 -459 3084 -895 Q 2688 -1331 1869 -1331 Q 1566 -1331 1297 -1286 Q 1028 -1241 775 -1147 L 775 -588 Q 1028 -725 1275 -790 Q 1522 -856 1778 -856 Q 2344 -856 2625 -561 Q 2906 -266 2906 331 L 2906 616 Q 2728 306 2450 153 Q 2172 0 1784 0 Q 1141 0 747 490 Q 353 981 353 1791 Q 353 2603 747 3093 Q 1141 3584 1784 3584 Q 2172 3584 2450 3431 Q 2728 3278 2906 2969 L 2906 3500 L 3481 3500 L 3481 434 z" transform="scale(0.015625)"/></defs><use xlink:href="#DejaVuSans-68"/><use transform="translate(63.378906 0)" xlink:href="#DejaVuSans-61"/><use transform="translate(124.658203 0)" xlink:href="#DejaVuSans-74"/><use transform="translate(163.867188 0)" xlink:href="#DejaVuSans-63"/><use transform="translate(218.847656 0)" xlink:href="#DejaVuSans-68"/><use transform="translate(282.226562 0)" xlink:href="#DejaVuSans-6c"/><use transform="translate(310.009766 0)" xlink:href="#DejaVuSans-69"/><use transform="translate(337.792969 0)" xlink:href="#DejaVuSans-6e"/><use transform="translate(401.171875 0)" xlink:href="#DejaVuSans-67"/></g></g><g id="text_6"><g transform="translate(67.776304 191.400795) scale(0.1 -0.1)"><defs><path id="DejaVuSans-36" d="M 2113 2584 Q 1688 2584 1439 2293 Q 1191 2003 1191 1497 Q 1191 994 1439 701 Q 1688 409 2113 409 Q 2538 409 2786 701 Q 3034 994 3034 1497 Q 3034 2003 2786 2293 Q 2538 2584 2113 2584 z M 3366 4563 L 3366 3988 Q 3128 4100 2886 4159 Q 2644 4219 2406 4219 Q 1781 4219 1451 3797 Q 1122 3375 1075 2522 Q 1259 2794 1537 2939 Q 1816 3084 2150 3084 Q 2853 3084 3261 2657 Q 3669 2231 3669 1497 Q 3669 778 3244 343 Q 2819 -91 2113 -91 Q 1303 -91 875 529 Q 447 1150 447 2328 Q 447 3434 972 4092 Q 1497 4750 2381 4750 Q 2619 4750 2861 4703 Q 3103 4656 3366 4563 z" transform="scale(0.015625)"/><path id="DejaVuSans-35" d="M 691 4666 L 3169 4666 L 3169 4134 L 1269 4134 L 1269 2991 Q 1406 3038 1543 3061 Q 1681 3084 1819 3084 Q 2600 3084 3056 2656 Q 3513 2228 3513 1497 Q 3513 744 3044 326 Q 2575 -91 1722 -91 Q 1428 -91 1123 -41 Q 819 9 494 109 L 494 744 Q 775 591 1075 516 Q 1375 441 1709 441 Q 2250 441 2565 725 Q 2881 1009 2881 1497 Q 2881 1984 2565 2268 Q 2250 2553 1709 2553 Q 1456 2553 1204 2497 Q 953 2441 691 2322 L 691 4666 z" transform="scale(0.015625)"/></defs><use xlink:href="#DejaVuSans-36"/><use transform="translate(63.623047 0)" xlink:href="#DejaVuSans-2e"/><use transform="translate(95.410156 0)" xlink:href="#DejaVuSans-35"/><use transform="translate(159.033203 0)" xlink:href="#DejaVuSans-25"/></g></g><g id="text_7"><g transform="translate(25.059809 175.489262) scale(0.1 -0.1)"><defs><path id="DejaVuSans-66" d="M 2375 4863 L 2375 4384 L 1825 4384 Q 1516 4384 1395 4259 Q 1275 4134 1275 3809 L 1275 3500 L 2222 3500 L 2222 3053 L 1275 3053 L 1275 0 L 697 0 L 697 3053 L 147 3053 L 147 3500 L 697 3500 L 697 3744 Q 697 4328 969 4595 Q 1241 4863 1831 4863 L 2375 4863 z" transform="scale(0.015625)"/></defs><use xlink:href="#DejaVuSans-66"/><use transform="translate(35.205078 0)" xlink:href="#DejaVuSans-6c"/><use transform="translate(62.988281 0)" xlink:href="#DejaVuSans-69"/><use transform="translate(90.771484 0)" xlink:href="#DejaVuSans-74"/></g></g><g id="text_8"><g transform="translate(56.035063 166.632747) scale(0.1 -0.1)"><defs><path id="DejaVuSans-33" d="M 2597 2516 Q 3050 2419 3304 2112 Q 3559 1806 3559 1356 Q 3559 666 3084 287 Q 2609 -91 1734 -91 Q 1441 -91 1130 -33 Q 819 25 488 141 L 488 750 Q 750 597 1062 519 Q 1375 441 1716 441 Q 2309 441 2620 675 Q 2931 909 2931 1356 Q 2931 1769 2642 2001 Q 2353 2234 1838 2234 L 1294 2234 L 1294 2753 L 1863 2753 Q 2328 2753 2575 2939 Q 2822 3125 2822 3475 Q 2822 3834 2567 4026 Q 2313 4219 1838 4219 Q 1578 4219 1281 4162 Q 984 4106 628 3988 L 628 4550 Q 988 4650 1302 4700 Q 1616 4750 1894 4750 Q 2613 4750 3031 4423 Q 3450 4097 3450 3541 Q 3450 3153 3228 2886 Q 3006 2619 2597 2516 z" transform="scale(0.015625)"/></defs><use xlink:href="#DejaVuSans-33"/><use transform="translate(63.623047 0)" xlink:href="#DejaVuSans-2e"/><use transform="translate(95.410156 0)" xlink:href="#DejaVuSans-38"/><use transform="translate(159.033203 0)" xlink:href="#DejaVuSans-25"/></g></g><g id="text_9"><g transform="translate(7.2 152.406792) scale(0.1 -0.1)"><use xlink:href="#DejaVuSans-6f"/><use transform="translate(61.181641 0)" xlink:href="#DejaVuSans-74"/><use transform="translate(100.390625 0)" xlink:href="#DejaVuSans-68"/><use transform="translate(163.769531 0)" xlink:href="#DejaVuSans-65"/><use transform="translate(225.292969 0)" xlink:href="#DejaVuSans-72"/></g></g><g id="text_10"><g transform="translate(52.968838 149.845497) scale(0.1 -0.1)"><defs><path id="DejaVuSans-32" d="M 1228 531 L 3431 531 L 3431 0 L 469 0 L 469 531 Q 828 903 1448 1529 Q 2069 2156 2228 2338 Q 2531 2678 2651 2914 Q 2772 3150 2772 3378 Q 2772 3750 2511 3984 Q 2250 4219 1831 4219 Q 1534 4219 1204 4116 Q 875 4013 500 3803 L 500 4441 Q 881 4594 1212 4672 Q 1544 4750 1819 4750 Q 2544 4750 2975 4387 Q 3406 4025 3406 3419 Q 3406 3131 3298 2873 Q 3191 2616 2906 2266 Q 2828 2175 2409 1742 Q 1991 1309 1228 531 z" transform="scale(0.015625)"/></defs><use xlink:href="#DejaVuSans-32"/><use transform="translate(63.623047 0)" xlink:href="#DejaVuSans-2e"/><use transform="translate(95.410156 0)" xlink:href="#DejaVuSans-36"/><use transform="translate(159.033203 0)" xlink:href="#DejaVuSans-25"/></g></g></g></g></svg>