<svg xmlns="http://www.w3.org/2000/svg" xmlns:xlink="http://www.w3.org/1999/xlink" width="417.47" height="374.016" version="1.1" viewBox="0 0 313.102 280.512"><metadata><rdf:RDF xmlns:cc="http://creativecommons.org/ns#" xmlns:dc="http://purl.org/dc/elements/1.1/" xmlns:rdf="http://www.w3.org/1999/02/22-rdf-syntax-ns#"><cc:Work><dc:type rdf:resource="http://purl.org/dc/dcmitype/StillImage"/><dc:date>2025-01-29T13:36:11.242059</dc:date><dc:format>image/svg+xml</dc:format><dc:creator><cc:Agent><dc:title>Matplotlib v3.10.0, https://matplotlib.org/</dc:title></cc:Agent></dc:creator></cc:Work></rdf:RDF></metadata><defs><style type="text/css">*{stroke-linejoin:round;stroke-linecap:butt}</style></defs><g id="figure_1"><g id="patch_1"><path d="M 0 280.512 L 313.102479 280.512 L 313.102479 0 L 0 0 L 0 280.512 z" style="fill:none"/></g><g id="axes_1"><g id="patch_2"><path d="M 238.722517 180.689165 C 244.695677 166.142791 247.371894 150.451931 246.558199 134.747997 C 245.744503 119.044065 241.460943 103.713822 234.016381 89.862681 C 226.571819 76.011537 216.149607 63.980626 203.501251 54.637459 C 190.852898 45.294293 176.289908 38.868973 160.862381 35.824813 C 145.434852 32.780646 129.522745 33.192614 114.273404 37.031004 C 99.024065 40.869389 84.813065 48.039661 72.66512 58.024806 C 60.517176 68.009951 50.731467 80.564051 44.01361 94.781856 C 37.295752 108.999661 33.8112 124.53101 33.8112 140.256009 L 76.38912 140.256006 C 76.38912 130.821006 78.479851 121.502197 82.510566 112.971514 C 86.54128 104.440831 92.412705 96.90837 99.701472 90.917283 C 106.990239 84.926196 115.516839 80.624033 124.666443 78.321003 C 133.816047 76.017968 143.363311 75.770788 152.619828 77.597288 C 161.876345 79.423784 170.614139 83.278976 178.203151 88.884876 C 185.792164 94.490775 192.045491 101.709322 196.512229 110.020009 C 200.978966 118.330693 203.549102 127.528839 204.037319 136.951198 C 204.525537 146.373559 202.919806 155.788074 199.33591 164.515899 z" style="fill:#ffe6e6;stroke:#fff;stroke-linejoin:miter"/></g><g id="patch_3"><path d="M 118.415364 244.436049 C 142.75143 249.537942 168.122391 245.954789 190.093722 234.312884 C 212.065052 222.670978 229.277482 203.690574 238.722517 180.689165 L 199.33591 164.515899 C 193.668889 178.316744 183.341431 189.704987 170.158633 196.69013 C 156.975835 203.675273 141.753258 205.825165 127.151618 202.764029 z" style="fill:#e6ffe6;stroke:#fff;stroke-linejoin:miter"/></g><g id="patch_4"><path d="M 115.431001 243.765494 C 115.926758 243.884392 116.423367 243.999724 116.920779 244.111491 C 117.418192 244.223257 117.916397 244.331446 118.415364 244.436049 L 127.151618 202.764029 C 126.852238 202.701267 126.553315 202.636354 126.254868 202.569294 C 125.95642 202.502235 125.658455 202.433035 125.361001 202.361696 z" style="fill:#ffe6ff;stroke:#fff;stroke-linejoin:miter"/></g><g id="text_1"><g transform="translate(162.923033 28.141074) scale(0.1 -0.1)"><defs><path id="DejaVuSans-28" d="M 1984 4856 Q 1566 4138 1362 3434 Q 1159 2731 1159 2009 Q 1159 1288 1364 580 Q 1569 -128 1984 -844 L 1484 -844 Q 1016 -109 783 600 Q 550 1309 550 2009 Q 550 2706 781 3412 Q 1013 4119 1484 4856 L 1984 4856 z" transform="scale(0.015625)"/><path id="DejaVuSans-6e" d="M 3513 2113 L 3513 0 L 2938 0 L 2938 2094 Q 2938 2591 2744 2837 Q 2550 3084 2163 3084 Q 1697 3084 1428 2787 Q 1159 2491 1159 1978 L 1159 0 L 581 0 L 581 3500 L 1159 3500 L 1159 2956 Q 1366 3272 1645 3428 Q 1925 3584 2291 3584 Q 2894 3584 3203 3211 Q 3513 2838 3513 2113 z" transform="scale(0.015625)"/><path id="DejaVuSans-6f" d="M 1959 3097 Q 1497 3097 1228 2736 Q 959 2375 959 1747 Q 959 1119 1226 758 Q 1494 397 1959 397 Q 2419 397 2687 759 Q 2956 1122 2956 1747 Q 2956 2369 2687 2733 Q 2419 3097 1959 3097 z M 1959 3584 Q 2709 3584 3137 3096 Q 3566 2609 3566 1747 Q 3566 888 3137 398 Q 2709 -91 1959 -91 Q 1206 -91 779 398 Q 353 888 353 1747 Q 353 2609 779 3096 Q 1206 3584 1959 3584 z" transform="scale(0.015625)"/><path id="DejaVuSans-20" transform="scale(0.015625)"/><path id="DejaVuSans-62" d="M 3116 1747 Q 3116 2381 2855 2742 Q 2594 3103 2138 3103 Q 1681 3103 1420 2742 Q 1159 2381 1159 1747 Q 1159 1113 1420 752 Q 1681 391 2138 391 Q 2594 391 2855 752 Q 3116 1113 3116 1747 z M 1159 2969 Q 1341 3281 1617 3432 Q 1894 3584 2278 3584 Q 2916 3584 3314 3078 Q 3713 2572 3713 1747 Q 3713 922 3314 415 Q 2916 -91 2278 -91 Q 1894 -91 1617 61 Q 1341 213 1159 525 L 1159 0 L 581 0 L 581 4863 L 1159 4863 L 1159 2969 z" transform="scale(0.015625)"/><path id="DejaVuSans-75" d="M 544 1381 L 544 3500 L 1119 3500 L 1119 1403 Q 1119 906 1312 657 Q 1506 409 1894 409 Q 2359 409 2629 706 Q 2900 1003 2900 1516 L 2900 3500 L 3475 3500 L 3475 0 L 2900 0 L 2900 538 Q 2691 219 2414 64 Q 2138 -91 1772 -91 Q 1169 -91 856 284 Q 544 659 544 1381 z M 1991 3584 L 1991 3584 z" transform="scale(0.015625)"/><path id="DejaVuSans-69" d="M 603 3500 L 1178 3500 L 1178 0 L 603 0 L 603 3500 z M 603 4863 L 1178 4863 L 1178 4134 L 603 4134 L 603 4863 z" transform="scale(0.015625)"/><path id="DejaVuSans-6c" d="M 603 4863 L 1178 4863 L 1178 0 L 603 0 L 603 4863 z" transform="scale(0.015625)"/><path id="DejaVuSans-64" d="M 2906 2969 L 2906 4863 L 3481 4863 L 3481 0 L 2906 0 L 2906 525 Q 2725 213 2448 61 Q 2172 -91 1784 -91 Q 1150 -91 751 415 Q 353 922 353 1747 Q 353 2572 751 3078 Q 1150 3584 1784 3584 Q 2172 3584 2448 3432 Q 2725 3281 2906 2969 z M 947 1747 Q 947 1113 1208 752 Q 1469 391 1925 391 Q 2381 391 2643 752 Q 2906 1113 2906 1747 Q 2906 2381 2643 2742 Q 2381 3103 1925 3103 Q 1469 3103 1208 2742 Q 947 2381 947 1747 z" transform="scale(0.015625)"/><path id="DejaVuSans-2d" d="M 313 2009 L 1997 2009 L 1997 1497 L 313 1497 L 313 2009 z" transform="scale(0.015625)"/><path id="DejaVuSans-61" d="M 2194 1759 Q 1497 1759 1228 1600 Q 959 1441 959 1056 Q 959 750 1161 570 Q 1363 391 1709 391 Q 2188 391 2477 730 Q 2766 1069 2766 1631 L 2766 1759 L 2194 1759 z M 3341 1997 L 3341 0 L 2766 0 L 2766 531 Q 2569 213 2275 61 Q 1981 -91 1556 -91 Q 1019 -91 701 211 Q 384 513 384 1019 Q 384 1609 779 1909 Q 1175 2209 1959 2209 L 2766 2209 L 2766 2266 Q 2766 2663 2505 2880 Q 2244 3097 1772 3097 Q 1472 3097 1187 3025 Q 903 2953 641 2809 L 641 3341 Q 956 3463 1253 3523 Q 1550 3584 1831 3584 Q 2591 3584 2966 3190 Q 3341 2797 3341 1997 z" transform="scale(0.015625)"/><path id="DejaVuSans-63" d="M 3122 3366 L 3122 2828 Q 2878 2963 2633 3030 Q 2388 3097 2138 3097 Q 1578 3097 1268 2742 Q 959 2388 959 1747 Q 959 1106 1268 751 Q 1578 397 2138 397 Q 2388 397 2633 464 Q 2878 531 3122 666 L 3122 134 Q 2881 22 2623 -34 Q 2366 -91 2075 -91 Q 1284 -91 818 406 Q 353 903 353 1747 Q 353 2603 823 3093 Q 1294 3584 2113 3584 Q 2378 3584 2631 3529 Q 2884 3475 3122 3366 z" transform="scale(0.015625)"/><path id="DejaVuSans-6b" d="M 581 4863 L 1159 4863 L 1159 1991 L 2875 3500 L 3609 3500 L 1753 1863 L 3688 0 L 2938 0 L 1159 1709 L 1159 0 L 581 0 L 581 4863 z" transform="scale(0.015625)"/><path id="DejaVuSans-65" d="M 3597 1894 L 3597 1613 L 953 1613 Q 991 1019 1311 708 Q 1631 397 2203 397 Q 2534 397 2845 478 Q 3156 559 3463 722 L 3463 178 Q 3153 47 2828 -22 Q 2503 -91 2169 -91 Q 1331 -91 842 396 Q 353 884 353 1716 Q 353 2575 817 3079 Q 1281 3584 2069 3584 Q 2775 3584 3186 3129 Q 3597 2675 3597 1894 z M 3022 2063 Q 3016 2534 2758 2815 Q 2500 3097 2075 3097 Q 1594 3097 1305 2825 Q 1016 2553 972 2059 L 3022 2063 z" transform="scale(0.015625)"/><path id="DejaVuSans-29" d="M 513 4856 L 1013 4856 Q 1481 4119 1714 3412 Q 1947 2706 1947 2009 Q 1947 1309 1714 600 Q 1481 -109 1013 -844 L 513 -844 Q 928 -128 1133 580 Q 1338 1288 1338 2009 Q 1338 2731 1133 3434 Q 928 4138 513 4856 z" transform="scale(0.015625)"/></defs><use xlink:href="#DejaVuSans-28"/><use transform="translate(39.013672 0)" xlink:href="#DejaVuSans-6e"/><use transform="translate(102.392578 0)" xlink:href="#DejaVuSans-6f"/><use transform="translate(163.574219 0)" xlink:href="#DejaVuSans-20"/><use transform="translate(195.361328 0)" xlink:href="#DejaVuSans-62"/><use transform="translate(258.837891 0)" xlink:href="#DejaVuSans-75"/><use transform="translate(322.216797 0)" xlink:href="#DejaVuSans-69"/><use transform="translate(350 0)" xlink:href="#DejaVuSans-6c"/><use transform="translate(377.783203 0)" xlink:href="#DejaVuSans-64"/><use transform="translate(441.259766 0)" xlink:href="#DejaVuSans-2d"/><use transform="translate(477.34375 0)" xlink:href="#DejaVuSans-62"/><use transform="translate(540.820312 0)" xlink:href="#DejaVuSans-61"/><use transform="translate(602.099609 0)" xlink:href="#DejaVuSans-63"/><use transform="translate(657.080078 0)" xlink:href="#DejaVuSans-6b"/><use transform="translate(711.365234 0)" xlink:href="#DejaVuSans-65"/><use transform="translate(772.888672 0)" xlink:href="#DejaVuSans-6e"/><use transform="translate(836.267578 0)" xlink:href="#DejaVuSans-64"/><use transform="translate(899.744141 0)" xlink:href="#DejaVuSans-29"/></g></g><g id="text_2"><g transform="translate(145.627834 59.470429) scale(0.1 -0.1)"><defs><path id="DejaVuSans-35" d="M 691 4666 L 3169 4666 L 3169 4134 L 1269 4134 L 1269 2991 Q 1406 3038 1543 3061 Q 1681 3084 1819 3084 Q 2600 3084 3056 2656 Q 3513 2228 3513 1497 Q 3513 744 3044 326 Q 2575 -91 1722 -91 Q 1428 -91 1123 -41 Q 819 9 494 109 L 494 744 Q 775 591 1075 516 Q 1375 441 1709 441 Q 2250 441 2565 725 Q 2881 1009 2881 1497 Q 2881 1984 2565 2268 Q 2250 2553 1709 2553 Q 1456 2553 1204 2497 Q 953 2441 691 2322 L 691 4666 z" transform="scale(0.015625)"/><path id="DejaVuSans-36" d="M 2113 2584 Q 1688 2584 1439 2293 Q 1191 2003 1191 1497 Q 1191 994 1439 701 Q 1688 409 2113 409 Q 2538 409 2786 701 Q 3034 994 3034 1497 Q 3034 2003 2786 2293 Q 2538 2584 2113 2584 z M 3366 4563 L 3366 3988 Q 3128 4100 2886 4159 Q 2644 4219 2406 4219 Q 1781 4219 1451 3797 Q 1122 3375 1075 2522 Q 1259 2794 1537 2939 Q 1816 3084 2150 3084 Q 2853 3084 3261 2657 Q 3669 2231 3669 1497 Q 3669 778 3244 343 Q 2819 -91 2113 -91 Q 1303 -91 875 529 Q 447 1150 447 2328 Q 447 3434 972 4092 Q 1497 4750 2381 4750 Q 2619 4750 2861 4703 Q 3103 4656 3366 4563 z" transform="scale(0.015625)"/><path id="DejaVuSans-25" d="M 4653 2053 Q 4381 2053 4226 1822 Q 4072 1591 4072 1178 Q 4072 772 4226 539 Q 4381 306 4653 306 Q 4919 306 5073 539 Q 5228 772 5228 1178 Q 5228 1588 5073 1820 Q 4919 2053 4653 2053 z M 4653 2450 Q 5147 2450 5437 2106 Q 5728 1763 5728 1178 Q 5728 594 5436 251 Q 5144 -91 4653 -91 Q 4153 -91 3862 251 Q 3572 594 3572 1178 Q 3572 1766 3864 2108 Q 4156 2450 4653 2450 z M 1428 4353 Q 1159 4353 1004 4120 Q 850 3888 850 3481 Q 850 3069 1003 2837 Q 1156 2606 1428 2606 Q 1700 2606 1854 2837 Q 2009 3069 2009 3481 Q 2009 3884 1853 4118 Q 1697 4353 1428 4353 z M 4250 4750 L 4750 4750 L 1831 -91 L 1331 -91 L 4250 4750 z M 1428 4750 Q 1922 4750 2215 4408 Q 2509 4066 2509 3481 Q 2509 2891 2217 2550 Q 1925 2209 1428 2209 Q 931 2209 642 2551 Q 353 2894 353 3481 Q 353 4063 643 4406 Q 934 4750 1428 4750 z" transform="scale(0.015625)"/></defs><use xlink:href="#DejaVuSans-35"/><use transform="translate(63.623047 0)" xlink:href="#DejaVuSans-36"/><use transform="translate(127.246094 0)" xlink:href="#DejaVuSans-25"/></g></g><g id="text_3"><g transform="translate(195.077479 246.33889) scale(0.1 -0.1)"><defs><path id="DejaVuSans-73" d="M 2834 3397 L 2834 2853 Q 2591 2978 2328 3040 Q 2066 3103 1784 3103 Q 1356 3103 1142 2972 Q 928 2841 928 2578 Q 928 2378 1081 2264 Q 1234 2150 1697 2047 L 1894 2003 Q 2506 1872 2764 1633 Q 3022 1394 3022 966 Q 3022 478 2636 193 Q 2250 -91 1575 -91 Q 1294 -91 989 -36 Q 684 19 347 128 L 347 722 Q 666 556 975 473 Q 1284 391 1588 391 Q 1994 391 2212 530 Q 2431 669 2431 922 Q 2431 1156 2273 1281 Q 2116 1406 1581 1522 L 1381 1569 Q 847 1681 609 1914 Q 372 2147 372 2553 Q 372 3047 722 3315 Q 1072 3584 1716 3584 Q 2034 3584 2315 3537 Q 2597 3491 2834 3397 z" transform="scale(0.015625)"/><path id="DejaVuSans-74" d="M 1172 4494 L 1172 3500 L 2356 3500 L 2356 3053 L 1172 3053 L 1172 1153 Q 1172 725 1289 603 Q 1406 481 1766 481 L 2356 481 L 2356 0 L 1766 0 Q 1100 0 847 248 Q 594 497 594 1153 L 594 3053 L 172 3053 L 172 3500 L 594 3500 L 594 4494 L 1172 4494 z" transform="scale(0.015625)"/><path id="DejaVuSans-70" d="M 1159 525 L 1159 -1331 L 581 -1331 L 581 3500 L 1159 3500 L 1159 2969 Q 1341 3281 1617 3432 Q 1894 3584 2278 3584 Q 2916 3584 3314 3078 Q 3713 2572 3713 1747 Q 3713 922 3314 415 Q 2916 -91 2278 -91 Q 1894 -91 1617 61 Q 1341 213 1159 525 z M 3116 1747 Q 3116 2381 2855 2742 Q 2594 3103 2138 3103 Q 1681 3103 1420 2742 Q 1159 2381 1159 1747 Q 1159 1113 1420 752 Q 1681 391 2138 391 Q 2594 391 2855 752 Q 3116 1113 3116 1747 z" transform="scale(0.015625)"/><path id="DejaVuSans-2e" d="M 684 794 L 1344 794 L 1344 0 L 684 0 L 684 794 z" transform="scale(0.015625)"/><path id="DejaVuSans-5f" d="M 3263 -1063 L 3263 -1509 L -63 -1509 L -63 -1063 L 3263 -1063 z" transform="scale(0.015625)"/><path id="DejaVuSans-6d" d="M 3328 2828 Q 3544 3216 3844 3400 Q 4144 3584 4550 3584 Q 5097 3584 5394 3201 Q 5691 2819 5691 2113 L 5691 0 L 5113 0 L 5113 2094 Q 5113 2597 4934 2840 Q 4756 3084 4391 3084 Q 3944 3084 3684 2787 Q 3425 2491 3425 1978 L 3425 0 L 2847 0 L 2847 2094 Q 2847 2600 2669 2842 Q 2491 3084 2119 3084 Q 1678 3084 1418 2786 Q 1159 2488 1159 1978 L 1159 0 L 581 0 L 581 3500 L 1159 3500 L 1159 2956 Q 1356 3278 1631 3431 Q 1906 3584 2284 3584 Q 2666 3584 2933 3390 Q 3200 3197 3328 2828 z" transform="scale(0.015625)"/></defs><use xlink:href="#DejaVuSans-73"/><use transform="translate(52.099609 0)" xlink:href="#DejaVuSans-65"/><use transform="translate(113.623047 0)" xlink:href="#DejaVuSans-74"/><use transform="translate(152.832031 0)" xlink:href="#DejaVuSans-75"/><use transform="translate(216.210938 0)" xlink:href="#DejaVuSans-70"/><use transform="translate(279.6875 0)" xlink:href="#DejaVuSans-74"/><use transform="translate(318.896484 0)" xlink:href="#DejaVuSans-6f"/><use transform="translate(380.078125 0)" xlink:href="#DejaVuSans-6f"/><use transform="translate(441.259766 0)" xlink:href="#DejaVuSans-6c"/><use transform="translate(469.042969 0)" xlink:href="#DejaVuSans-73"/><use transform="translate(521.142578 0)" xlink:href="#DejaVuSans-2e"/><use transform="translate(552.929688 0)" xlink:href="#DejaVuSans-62"/><use transform="translate(616.40625 0)" xlink:href="#DejaVuSans-75"/><use transform="translate(679.785156 0)" xlink:href="#DejaVuSans-69"/><use transform="translate(707.568359 0)" xlink:href="#DejaVuSans-6c"/><use transform="translate(735.351562 0)" xlink:href="#DejaVuSans-64"/><use transform="translate(798.828125 0)" xlink:href="#DejaVuSans-5f"/><use transform="translate(848.828125 0)" xlink:href="#DejaVuSans-6d"/><use transform="translate(946.240234 0)" xlink:href="#DejaVuSans-65"/><use transform="translate(1007.763672 0)" xlink:href="#DejaVuSans-74"/><use transform="translate(1046.972656 0)" xlink:href="#DejaVuSans-61"/></g></g><g id="text_4"><g transform="translate(169.012885 218.260886) scale(0.1 -0.1)"><defs><path id="DejaVuSans-32" d="M 1228 531 L 3431 531 L 3431 0 L 469 0 L 469 531 Q 828 903 1448 1529 Q 2069 2156 2228 2338 Q 2531 2678 2651 2914 Q 2772 3150 2772 3378 Q 2772 3750 2511 3984 Q 2250 4219 1831 4219 Q 1534 4219 1204 4116 Q 875 4013 500 3803 L 500 4441 Q 881 4594 1212 4672 Q 1544 4750 1819 4750 Q 2544 4750 2975 4387 Q 3406 4025 3406 3419 Q 3406 3131 3298 2873 Q 3191 2616 2906 2266 Q 2828 2175 2409 1742 Q 1991 1309 1228 531 z" transform="scale(0.015625)"/></defs><use xlink:href="#DejaVuSans-32"/><use transform="translate(63.623047 0)" xlink:href="#DejaVuSans-32"/><use transform="translate(127.246094 0)" xlink:href="#DejaVuSans-25"/></g></g><g id="text_5"><g transform="translate(87.946633 257.256415) scale(0.1 -0.1)"><defs><path id="DejaVuSans-68" d="M 3513 2113 L 3513 0 L 2938 0 L 2938 2094 Q 2938 2591 2744 2837 Q 2550 3084 2163 3084 Q 1697 3084 1428 2787 Q 1159 2491 1159 1978 L 1159 0 L 581 0 L 581 4863 L 1159 4863 L 1159 2956 Q 1366 3272 1645 3428 Q 1925 3584 2291 3584 Q 2894 3584 3203 3211 Q 3513 2838 3513 2113 z" transform="scale(0.015625)"/><path id="DejaVuSans-72" d="M 2631 2963 Q 2534 3019 2420 3045 Q 2306 3072 2169 3072 Q 1681 3072 1420 2755 Q 1159 2438 1159 1844 L 1159 0 L 581 0 L 581 3500 L 1159 3500 L 1159 2956 Q 1341 3275 1631 3429 Q 1922 3584 2338 3584 Q 2397 3584 2469 3576 Q 2541 3569 2628 3553 L 2631 2963 z" transform="scale(0.015625)"/></defs><use xlink:href="#DejaVuSans-6f"/><use transform="translate(61.181641 0)" xlink:href="#DejaVuSans-74"/><use transform="translate(100.390625 0)" xlink:href="#DejaVuSans-68"/><use transform="translate(163.769531 0)" xlink:href="#DejaVuSans-65"/><use transform="translate(225.292969 0)" xlink:href="#DejaVuSans-72"/></g></g></g></g></svg>