<?xml version="1.0" encoding="utf-8" standalone="no"?>
<!DOCTYPE svg PUBLIC "-//W3C//DTD SVG 1.1//EN"
  "http://www.w3.org/Graphics/SVG/1.1/DTD/svg11.dtd">
<svg xmlns:xlink="http://www.w3.org/1999/xlink" width="279.423963pt" height="280.512pt" viewBox="0 0 279.423963 280.512" xmlns="http://www.w3.org/2000/svg" version="1.1">
 <metadata>
  <rdf:RDF xmlns:dc="http://purl.org/dc/elements/1.1/" xmlns:cc="http://creativecommons.org/ns#" xmlns:rdf="http://www.w3.org/1999/02/22-rdf-syntax-ns#">
   <cc:Work>
    <dc:type rdf:resource="http://purl.org/dc/dcmitype/StillImage"/>
    <dc:date>2025-01-29T13:36:11.323527</dc:date>
    <dc:format>image/svg+xml</dc:format>
    <dc:creator>
     <cc:Agent>
      <dc:title>Matplotlib v3.10.0, https://matplotlib.org/</dc:title>
     </cc:Agent>
    </dc:creator>
   </cc:Work>
  </rdf:RDF>
 </metadata>
 <defs>
  <style type="text/css">*{stroke-linejoin: round; stroke-linecap: butt}</style>
 </defs>
 <g id="figure_1">
  <g id="patch_1">
   <path d="M 0 280.512 
L 279.423963 280.512 
L 279.423963 0 
L 0 0 
L 0 280.512 
z
" style="fill: none"/>
  </g>
  <g id="axes_1">
   <g id="patch_2">
    <path d="M 221.976812 166.97358 
C 220.346002 168.23878 218.637348 169.400321 216.86094 170.451343 
C 215.084531 171.502365 213.243873 172.440796 211.349833 173.261093 
C 212.397665 173.735631 213.425732 174.252655 214.431477 174.810879 
C 215.437222 175.369104 216.41981 175.968065 217.376799 176.606273 
C 218.227097 175.042459 219.036197 173.456594 219.803262 171.850315 
C 220.570327 170.244036 221.295093 168.617897 221.976812 166.97358 
M 221.976812 89.066335 
C 214.49541 71.021056 201.971409 55.507465 185.909366 44.389272 
C 169.847323 33.271078 150.917268 27.012077 131.393342 26.364187 
C 111.869415 25.716298 92.566061 30.706546 75.802265 40.735435 
C 59.038469 50.764323 45.513535 65.413496 36.852266 82.92309 
C 28.190998 100.432684 24.7547 120.072285 26.95619 139.482512 
C 29.157679 158.892739 36.905119 177.263892 49.267781 192.388972 
C 61.630443 207.514052 78.092616 218.762116 96.676636 224.781889 
C 115.260656 230.801662 135.191288 231.34203 154.074187 226.338075 
C 150.548609 216.655205 150.674868 206.010869 154.429131 196.41435 
C 158.183393 186.817831 165.313572 178.913504 174.473736 174.193433 
C 167.823809 171.70441 161.789402 167.807923 156.784499 162.771286 
C 151.779595 157.734649 147.921325 151.675736 145.47438 145.010211 
C 143.027436 138.344686 142.049082 131.228542 142.606439 124.149974 
C 143.163796 117.071407 145.243819 110.196075 148.703811 103.995654 
C 152.163803 97.795233 156.922789 92.414831 162.654285 88.223564 
C 168.385782 84.032297 174.955653 81.128254 181.913181 79.710663 
C 188.87071 78.293071 196.053068 78.395108 202.967518 80.009773 
C 209.881969 81.624438 216.366692 84.713942 221.976812 89.066335 
" clip-path="url(#p3e06063f52)" style="fill: #ff8080; opacity: 0.4"/>
   </g>
   <g id="patch_3">
    <path d="M 221.976812 89.066335 
C 227.096372 101.414808 229.731683 114.652283 229.731683 128.019957 
C 229.731683 141.387631 227.096372 154.625106 221.976812 166.97358 
C 227.916584 162.36544 232.724419 156.459194 236.031474 149.707955 
C 239.338528 142.956715 241.058013 135.537659 241.058013 128.019957 
C 241.058013 120.502255 239.338528 113.083199 236.031474 106.33196 
C 232.724419 99.58072 227.916584 93.674475 221.976812 89.066335 
" clip-path="url(#p3e06063f52)" style="fill: #80ff80; opacity: 0.4"/>
   </g>
   <g id="patch_4">
    <path d="M 221.976812 89.066335 
C 216.366692 84.713942 209.881969 81.624438 202.967518 80.009773 
C 196.053068 78.395108 188.87071 78.293071 181.913181 79.710663 
C 174.955653 81.128254 168.385782 84.032297 162.654285 88.223564 
C 156.922789 92.414831 152.163803 97.795233 148.703811 103.995654 
C 145.243819 110.196075 143.163796 117.071407 142.606439 124.149974 
C 142.049082 131.228542 143.027436 138.344686 145.47438 145.010211 
C 147.921325 151.675736 151.779595 157.734649 156.784499 162.771286 
C 161.789402 167.807923 167.823809 171.70441 174.473736 174.193433 
C 180.151992 171.267529 186.41924 169.663645 192.804962 169.502194 
C 199.190684 169.340743 205.530975 170.62587 211.349833 173.261093 
C 213.243873 172.440796 215.084531 171.502365 216.86094 170.451343 
C 218.637348 169.400321 220.346002 168.23878 221.976812 166.97358 
C 227.096372 154.625106 229.731683 141.387631 229.731683 128.019957 
C 229.731683 114.652283 227.096372 101.414808 221.976812 89.066335 
" clip-path="url(#p3e06063f52)" style="fill: #ffffb2; opacity: 0.4"/>
   </g>
   <g id="patch_5">
    <path d="M 217.376799 176.606273 
C 210.764786 188.766665 201.739509 199.450321 190.854994 208.001414 
C 179.97048 216.552506 167.4541 222.792408 154.074187 226.338075 
C 156.364185 232.62747 160.112676 238.285417 165.011332 242.846528 
C 169.909989 247.40764 175.820715 250.743335 182.257331 252.579241 
C 188.693947 254.415147 195.475 254.699508 202.042724 253.408934 
C 208.610448 252.11836 214.779693 249.289234 220.043017 245.154261 
C 225.306341 241.019289 229.515366 235.695037 232.323885 229.619447 
C 235.132404 223.543856 236.461242 216.888202 236.201097 210.199936 
C 235.940953 203.51167 234.099159 196.97934 230.827212 191.140253 
C 227.555264 185.301166 222.9454 180.319931 217.376799 176.606273 
" clip-path="url(#p3e06063f52)" style="fill: #8080ff; opacity: 0.4"/>
   </g>
   <g id="patch_6">
    <path d="M 211.349833 173.261093 
C 205.549931 175.772997 199.320733 177.146305 193.002267 177.306055 
C 186.683802 177.465805 180.393164 176.409037 174.473736 174.193433 
C 165.313572 178.913504 158.183393 186.817831 154.429131 196.41435 
C 150.674868 206.010869 150.548609 216.655205 154.074187 226.338075 
C 167.4541 222.792408 179.97048 216.552506 190.854994 208.001414 
C 201.739509 199.450321 210.764786 188.766665 217.376799 176.606273 
C 216.41981 175.968065 215.437222 175.369104 214.431477 174.810879 
C 213.425732 174.252655 212.397665 173.735631 211.349833 173.261093 
" clip-path="url(#p3e06063f52)" style="fill: #ffb2ff; opacity: 0.4"/>
   </g>
   <g id="patch_7">
    <path d="M 174.473736 174.193433 
C 180.393164 176.409037 186.683802 177.465805 193.002267 177.306055 
C 199.320733 177.146305 205.549931 175.772997 211.349833 173.261093 
C 205.530975 170.62587 199.190684 169.340743 192.804962 169.502194 
C 186.41924 169.663645 180.151992 171.267529 174.473736 174.193433 
" clip-path="url(#p3e06063f52)" style="fill: #cccccc; opacity: 0.4"/>
   </g>
   <g id="text_1">
    <!-- 3750 -->
    <g transform="translate(82.752319 110.662816) scale(0.1 -0.1)">
     <defs>
      <path id="DejaVuSans-33" d="M 2597 2516 
Q 3050 2419 3304 2112 
Q 3559 1806 3559 1356 
Q 3559 666 3084 287 
Q 2609 -91 1734 -91 
Q 1441 -91 1130 -33 
Q 819 25 488 141 
L 488 750 
Q 750 597 1062 519 
Q 1375 441 1716 441 
Q 2309 441 2620 675 
Q 2931 909 2931 1356 
Q 2931 1769 2642 2001 
Q 2353 2234 1838 2234 
L 1294 2234 
L 1294 2753 
L 1863 2753 
Q 2328 2753 2575 2939 
Q 2822 3125 2822 3475 
Q 2822 3834 2567 4026 
Q 2313 4219 1838 4219 
Q 1578 4219 1281 4162 
Q 984 4106 628 3988 
L 628 4550 
Q 988 4650 1302 4700 
Q 1616 4750 1894 4750 
Q 2613 4750 3031 4423 
Q 3450 4097 3450 3541 
Q 3450 3153 3228 2886 
Q 3006 2619 2597 2516 
z
" transform="scale(0.015625)"/>
      <path id="DejaVuSans-37" d="M 525 4666 
L 3525 4666 
L 3525 4397 
L 1831 0 
L 1172 0 
L 2766 4134 
L 525 4134 
L 525 4666 
z
" transform="scale(0.015625)"/>
      <path id="DejaVuSans-35" d="M 691 4666 
L 3169 4666 
L 3169 4134 
L 1269 4134 
L 1269 2991 
Q 1406 3038 1543 3061 
Q 1681 3084 1819 3084 
Q 2600 3084 3056 2656 
Q 3513 2228 3513 1497 
Q 3513 744 3044 326 
Q 2575 -91 1722 -91 
Q 1428 -91 1123 -41 
Q 819 9 494 109 
L 494 744 
Q 775 591 1075 516 
Q 1375 441 1709 441 
Q 2250 441 2565 725 
Q 2881 1009 2881 1497 
Q 2881 1984 2565 2268 
Q 2250 2553 1709 2553 
Q 1456 2553 1204 2497 
Q 953 2441 691 2322 
L 691 4666 
z
" transform="scale(0.015625)"/>
      <path id="DejaVuSans-30" d="M 2034 4250 
Q 1547 4250 1301 3770 
Q 1056 3291 1056 2328 
Q 1056 1369 1301 889 
Q 1547 409 2034 409 
Q 2525 409 2770 889 
Q 3016 1369 3016 2328 
Q 3016 3291 2770 3770 
Q 2525 4250 2034 4250 
z
M 2034 4750 
Q 2819 4750 3233 4129 
Q 3647 3509 3647 2328 
Q 3647 1150 3233 529 
Q 2819 -91 2034 -91 
Q 1250 -91 836 529 
Q 422 1150 422 2328 
Q 422 3509 836 4129 
Q 1250 4750 2034 4750 
z
" transform="scale(0.015625)"/>
     </defs>
     <use xlink:href="#DejaVuSans-33"/>
     <use xlink:href="#DejaVuSans-37" transform="translate(63.623047 0)"/>
     <use xlink:href="#DejaVuSans-35" transform="translate(127.246094 0)"/>
     <use xlink:href="#DejaVuSans-30" transform="translate(190.869141 0)"/>
    </g>
   </g>
   <g id="text_2">
    <!-- 87 -->
    <g transform="translate(229.032348 130.779332) scale(0.1 -0.1)">
     <defs>
      <path id="DejaVuSans-38" d="M 2034 2216 
Q 1584 2216 1326 1975 
Q 1069 1734 1069 1313 
Q 1069 891 1326 650 
Q 1584 409 2034 409 
Q 2484 409 2743 651 
Q 3003 894 3003 1313 
Q 3003 1734 2745 1975 
Q 2488 2216 2034 2216 
z
M 1403 2484 
Q 997 2584 770 2862 
Q 544 3141 544 3541 
Q 544 4100 942 4425 
Q 1341 4750 2034 4750 
Q 2731 4750 3128 4425 
Q 3525 4100 3525 3541 
Q 3525 3141 3298 2862 
Q 3072 2584 2669 2484 
Q 3125 2378 3379 2068 
Q 3634 1759 3634 1313 
Q 3634 634 3220 271 
Q 2806 -91 2034 -91 
Q 1263 -91 848 271 
Q 434 634 434 1313 
Q 434 1759 690 2068 
Q 947 2378 1403 2484 
z
M 1172 3481 
Q 1172 3119 1398 2916 
Q 1625 2713 2034 2713 
Q 2441 2713 2670 2916 
Q 2900 3119 2900 3481 
Q 2900 3844 2670 4047 
Q 2441 4250 2034 4250 
Q 1625 4250 1398 4047 
Q 1172 3844 1172 3481 
z
" transform="scale(0.015625)"/>
     </defs>
     <use xlink:href="#DejaVuSans-38"/>
     <use xlink:href="#DejaVuSans-37" transform="translate(63.623047 0)"/>
    </g>
   </g>
   <g id="text_3">
    <!-- 1104 -->
    <g transform="translate(158.378567 124.333173) scale(0.1 -0.1)">
     <defs>
      <path id="DejaVuSans-31" d="M 794 531 
L 1825 531 
L 1825 4091 
L 703 3866 
L 703 4441 
L 1819 4666 
L 2450 4666 
L 2450 531 
L 3481 531 
L 3481 0 
L 794 0 
L 794 531 
z
" transform="scale(0.015625)"/>
      <path id="DejaVuSans-34" d="M 2419 4116 
L 825 1625 
L 2419 1625 
L 2419 4116 
z
M 2253 4666 
L 3047 4666 
L 3047 1625 
L 3713 1625 
L 3713 1100 
L 3047 1100 
L 3047 0 
L 2419 0 
L 2419 1100 
L 313 1100 
L 313 1709 
L 2253 4666 
z
" transform="scale(0.015625)"/>
     </defs>
     <use xlink:href="#DejaVuSans-31"/>
     <use xlink:href="#DejaVuSans-31" transform="translate(63.623047 0)"/>
     <use xlink:href="#DejaVuSans-30" transform="translate(127.246094 0)"/>
     <use xlink:href="#DejaVuSans-34" transform="translate(190.869141 0)"/>
    </g>
   </g>
   <g id="text_4">
    <!-- 541 -->
    <g transform="translate(195.905256 229.337212) scale(0.1 -0.1)">
     <use xlink:href="#DejaVuSans-35"/>
     <use xlink:href="#DejaVuSans-34" transform="translate(63.623047 0)"/>
     <use xlink:href="#DejaVuSans-31" transform="translate(127.246094 0)"/>
    </g>
   </g>
   <g id="text_5">
    <!-- 330 -->
    <g transform="translate(166.530009 196.430633) scale(0.1 -0.1)">
     <use xlink:href="#DejaVuSans-33"/>
     <use xlink:href="#DejaVuSans-33" transform="translate(63.623047 0)"/>
     <use xlink:href="#DejaVuSans-30" transform="translate(127.246094 0)"/>
    </g>
   </g>
   <g id="text_6">
    <!-- 17 -->
    <g transform="translate(186.541115 176.1635) scale(0.1 -0.1)">
     <use xlink:href="#DejaVuSans-31"/>
     <use xlink:href="#DejaVuSans-37" transform="translate(63.623047 0)"/>
    </g>
   </g>
   <g id="text_7">
    <!-- setup.py -->
    <g transform="translate(25.067219 26.308231) scale(0.12 -0.12)">
     <defs>
      <path id="DejaVuSans-73" d="M 2834 3397 
L 2834 2853 
Q 2591 2978 2328 3040 
Q 2066 3103 1784 3103 
Q 1356 3103 1142 2972 
Q 928 2841 928 2578 
Q 928 2378 1081 2264 
Q 1234 2150 1697 2047 
L 1894 2003 
Q 2506 1872 2764 1633 
Q 3022 1394 3022 966 
Q 3022 478 2636 193 
Q 2250 -91 1575 -91 
Q 1294 -91 989 -36 
Q 684 19 347 128 
L 347 722 
Q 666 556 975 473 
Q 1284 391 1588 391 
Q 1994 391 2212 530 
Q 2431 669 2431 922 
Q 2431 1156 2273 1281 
Q 2116 1406 1581 1522 
L 1381 1569 
Q 847 1681 609 1914 
Q 372 2147 372 2553 
Q 372 3047 722 3315 
Q 1072 3584 1716 3584 
Q 2034 3584 2315 3537 
Q 2597 3491 2834 3397 
z
" transform="scale(0.015625)"/>
      <path id="DejaVuSans-65" d="M 3597 1894 
L 3597 1613 
L 953 1613 
Q 991 1019 1311 708 
Q 1631 397 2203 397 
Q 2534 397 2845 478 
Q 3156 559 3463 722 
L 3463 178 
Q 3153 47 2828 -22 
Q 2503 -91 2169 -91 
Q 1331 -91 842 396 
Q 353 884 353 1716 
Q 353 2575 817 3079 
Q 1281 3584 2069 3584 
Q 2775 3584 3186 3129 
Q 3597 2675 3597 1894 
z
M 3022 2063 
Q 3016 2534 2758 2815 
Q 2500 3097 2075 3097 
Q 1594 3097 1305 2825 
Q 1016 2553 972 2059 
L 3022 2063 
z
" transform="scale(0.015625)"/>
      <path id="DejaVuSans-74" d="M 1172 4494 
L 1172 3500 
L 2356 3500 
L 2356 3053 
L 1172 3053 
L 1172 1153 
Q 1172 725 1289 603 
Q 1406 481 1766 481 
L 2356 481 
L 2356 0 
L 1766 0 
Q 1100 0 847 248 
Q 594 497 594 1153 
L 594 3053 
L 172 3053 
L 172 3500 
L 594 3500 
L 594 4494 
L 1172 4494 
z
" transform="scale(0.015625)"/>
      <path id="DejaVuSans-75" d="M 544 1381 
L 544 3500 
L 1119 3500 
L 1119 1403 
Q 1119 906 1312 657 
Q 1506 409 1894 409 
Q 2359 409 2629 706 
Q 2900 1003 2900 1516 
L 2900 3500 
L 3475 3500 
L 3475 0 
L 2900 0 
L 2900 538 
Q 2691 219 2414 64 
Q 2138 -91 1772 -91 
Q 1169 -91 856 284 
Q 544 659 544 1381 
z
M 1991 3584 
L 1991 3584 
z
" transform="scale(0.015625)"/>
      <path id="DejaVuSans-70" d="M 1159 525 
L 1159 -1331 
L 581 -1331 
L 581 3500 
L 1159 3500 
L 1159 2969 
Q 1341 3281 1617 3432 
Q 1894 3584 2278 3584 
Q 2916 3584 3314 3078 
Q 3713 2572 3713 1747 
Q 3713 922 3314 415 
Q 2916 -91 2278 -91 
Q 1894 -91 1617 61 
Q 1341 213 1159 525 
z
M 3116 1747 
Q 3116 2381 2855 2742 
Q 2594 3103 2138 3103 
Q 1681 3103 1420 2742 
Q 1159 2381 1159 1747 
Q 1159 1113 1420 752 
Q 1681 391 2138 391 
Q 2594 391 2855 752 
Q 3116 1113 3116 1747 
z
" transform="scale(0.015625)"/>
      <path id="DejaVuSans-2e" d="M 684 794 
L 1344 794 
L 1344 0 
L 684 0 
L 684 794 
z
" transform="scale(0.015625)"/>
      <path id="DejaVuSans-79" d="M 2059 -325 
Q 1816 -950 1584 -1140 
Q 1353 -1331 966 -1331 
L 506 -1331 
L 506 -850 
L 844 -850 
Q 1081 -850 1212 -737 
Q 1344 -625 1503 -206 
L 1606 56 
L 191 3500 
L 800 3500 
L 1894 763 
L 2988 3500 
L 3597 3500 
L 2059 -325 
z
" transform="scale(0.015625)"/>
     </defs>
     <use xlink:href="#DejaVuSans-73"/>
     <use xlink:href="#DejaVuSans-65" transform="translate(52.099609 0)"/>
     <use xlink:href="#DejaVuSans-74" transform="translate(113.623047 0)"/>
     <use xlink:href="#DejaVuSans-75" transform="translate(152.832031 0)"/>
     <use xlink:href="#DejaVuSans-70" transform="translate(216.210938 0)"/>
     <use xlink:href="#DejaVuSans-2e" transform="translate(279.6875 0)"/>
     <use xlink:href="#DejaVuSans-70" transform="translate(311.474609 0)"/>
     <use xlink:href="#DejaVuSans-79" transform="translate(374.951172 0)"/>
    </g>
   </g>
   <g id="text_8">
    <!-- setup.cfg -->
    <g transform="translate(216.407088 78.718109) scale(0.12 -0.12)">
     <defs>
      <path id="DejaVuSans-63" d="M 3122 3366 
L 3122 2828 
Q 2878 2963 2633 3030 
Q 2388 3097 2138 3097 
Q 1578 3097 1268 2742 
Q 959 2388 959 1747 
Q 959 1106 1268 751 
Q 1578 397 2138 397 
Q 2388 397 2633 464 
Q 2878 531 3122 666 
L 3122 134 
Q 2881 22 2623 -34 
Q 2366 -91 2075 -91 
Q 1284 -91 818 406 
Q 353 903 353 1747 
Q 353 2603 823 3093 
Q 1294 3584 2113 3584 
Q 2378 3584 2631 3529 
Q 2884 3475 3122 3366 
z
" transform="scale(0.015625)"/>
      <path id="DejaVuSans-66" d="M 2375 4863 
L 2375 4384 
L 1825 4384 
Q 1516 4384 1395 4259 
Q 1275 4134 1275 3809 
L 1275 3500 
L 2222 3500 
L 2222 3053 
L 1275 3053 
L 1275 0 
L 697 0 
L 697 3053 
L 147 3053 
L 147 3500 
L 697 3500 
L 697 3744 
Q 697 4328 969 4595 
Q 1241 4863 1831 4863 
L 2375 4863 
z
" transform="scale(0.015625)"/>
      <path id="DejaVuSans-67" d="M 2906 1791 
Q 2906 2416 2648 2759 
Q 2391 3103 1925 3103 
Q 1463 3103 1205 2759 
Q 947 2416 947 1791 
Q 947 1169 1205 825 
Q 1463 481 1925 481 
Q 2391 481 2648 825 
Q 2906 1169 2906 1791 
z
M 3481 434 
Q 3481 -459 3084 -895 
Q 2688 -1331 1869 -1331 
Q 1566 -1331 1297 -1286 
Q 1028 -1241 775 -1147 
L 775 -588 
Q 1028 -725 1275 -790 
Q 1522 -856 1778 -856 
Q 2344 -856 2625 -561 
Q 2906 -266 2906 331 
L 2906 616 
Q 2728 306 2450 153 
Q 2172 0 1784 0 
Q 1141 0 747 490 
Q 353 981 353 1791 
Q 353 2603 747 3093 
Q 1141 3584 1784 3584 
Q 2172 3584 2450 3431 
Q 2728 3278 2906 2969 
L 2906 3500 
L 3481 3500 
L 3481 434 
z
" transform="scale(0.015625)"/>
     </defs>
     <use xlink:href="#DejaVuSans-73"/>
     <use xlink:href="#DejaVuSans-65" transform="translate(52.099609 0)"/>
     <use xlink:href="#DejaVuSans-74" transform="translate(113.623047 0)"/>
     <use xlink:href="#DejaVuSans-75" transform="translate(152.832031 0)"/>
     <use xlink:href="#DejaVuSans-70" transform="translate(216.210938 0)"/>
     <use xlink:href="#DejaVuSans-2e" transform="translate(279.6875 0)"/>
     <use xlink:href="#DejaVuSans-63" transform="translate(311.474609 0)"/>
     <use xlink:href="#DejaVuSans-66" transform="translate(366.455078 0)"/>
     <use xlink:href="#DejaVuSans-67" transform="translate(401.660156 0)"/>
    </g>
   </g>
   <g id="text_9">
    <!-- pyproject.toml -->
    <g transform="translate(150.251798 267.55765) scale(0.12 -0.12)">
     <defs>
      <path id="DejaVuSans-72" d="M 2631 2963 
Q 2534 3019 2420 3045 
Q 2306 3072 2169 3072 
Q 1681 3072 1420 2755 
Q 1159 2438 1159 1844 
L 1159 0 
L 581 0 
L 581 3500 
L 1159 3500 
L 1159 2956 
Q 1341 3275 1631 3429 
Q 1922 3584 2338 3584 
Q 2397 3584 2469 3576 
Q 2541 3569 2628 3553 
L 2631 2963 
z
" transform="scale(0.015625)"/>
      <path id="DejaVuSans-6f" d="M 1959 3097 
Q 1497 3097 1228 2736 
Q 959 2375 959 1747 
Q 959 1119 1226 758 
Q 1494 397 1959 397 
Q 2419 397 2687 759 
Q 2956 1122 2956 1747 
Q 2956 2369 2687 2733 
Q 2419 3097 1959 3097 
z
M 1959 3584 
Q 2709 3584 3137 3096 
Q 3566 2609 3566 1747 
Q 3566 888 3137 398 
Q 2709 -91 1959 -91 
Q 1206 -91 779 398 
Q 353 888 353 1747 
Q 353 2609 779 3096 
Q 1206 3584 1959 3584 
z
" transform="scale(0.015625)"/>
      <path id="DejaVuSans-6a" d="M 603 3500 
L 1178 3500 
L 1178 -63 
Q 1178 -731 923 -1031 
Q 669 -1331 103 -1331 
L -116 -1331 
L -116 -844 
L 38 -844 
Q 366 -844 484 -692 
Q 603 -541 603 -63 
L 603 3500 
z
M 603 4863 
L 1178 4863 
L 1178 4134 
L 603 4134 
L 603 4863 
z
" transform="scale(0.015625)"/>
      <path id="DejaVuSans-6d" d="M 3328 2828 
Q 3544 3216 3844 3400 
Q 4144 3584 4550 3584 
Q 5097 3584 5394 3201 
Q 5691 2819 5691 2113 
L 5691 0 
L 5113 0 
L 5113 2094 
Q 5113 2597 4934 2840 
Q 4756 3084 4391 3084 
Q 3944 3084 3684 2787 
Q 3425 2491 3425 1978 
L 3425 0 
L 2847 0 
L 2847 2094 
Q 2847 2600 2669 2842 
Q 2491 3084 2119 3084 
Q 1678 3084 1418 2786 
Q 1159 2488 1159 1978 
L 1159 0 
L 581 0 
L 581 3500 
L 1159 3500 
L 1159 2956 
Q 1356 3278 1631 3431 
Q 1906 3584 2284 3584 
Q 2666 3584 2933 3390 
Q 3200 3197 3328 2828 
z
" transform="scale(0.015625)"/>
      <path id="DejaVuSans-6c" d="M 603 4863 
L 1178 4863 
L 1178 0 
L 603 0 
L 603 4863 
z
" transform="scale(0.015625)"/>
     </defs>
     <use xlink:href="#DejaVuSans-70"/>
     <use xlink:href="#DejaVuSans-79" transform="translate(63.476562 0)"/>
     <use xlink:href="#DejaVuSans-70" transform="translate(122.65625 0)"/>
     <use xlink:href="#DejaVuSans-72" transform="translate(186.132812 0)"/>
     <use xlink:href="#DejaVuSans-6f" transform="translate(224.996094 0)"/>
     <use xlink:href="#DejaVuSans-6a" transform="translate(286.177734 0)"/>
     <use xlink:href="#DejaVuSans-65" transform="translate(313.960938 0)"/>
     <use xlink:href="#DejaVuSans-63" transform="translate(375.484375 0)"/>
     <use xlink:href="#DejaVuSans-74" transform="translate(430.464844 0)"/>
     <use xlink:href="#DejaVuSans-2e" transform="translate(469.673828 0)"/>
     <use xlink:href="#DejaVuSans-74" transform="translate(501.460938 0)"/>
     <use xlink:href="#DejaVuSans-6f" transform="translate(540.669922 0)"/>
     <use xlink:href="#DejaVuSans-6d" transform="translate(601.851562 0)"/>
     <use xlink:href="#DejaVuSans-6c" transform="translate(699.263672 0)"/>
    </g>
   </g>
  </g>
 </g>
 <defs>
  <clipPath id="p3e06063f52">
   <rect x="7.2" y="7.2" width="252.966243" height="266.112"/>
  </clipPath>
 </defs>
</svg>
