<svg xmlns="http://www.w3.org/2000/svg" xmlns:xlink="http://www.w3.org/1999/xlink" fill="none" stroke="none" stroke-linecap="square" stroke-miterlimit="10" version="1.1" viewBox="0 0 1440 696"><clipPath id="p.0"><path d="m0 0l1440.0 0l0 696.0l-1440.0 0l0 -696.0z" clip-rule="nonzero"/></clipPath><g clip-path="url(#p.0)"><path fill="#fff" fill-rule="evenodd" d="m0 0l1440.0 0l0 696.0l-1440.0 0z"/><path fill="#000" fill-opacity=".071" fill-rule="evenodd" d="m874.7874 380.46194c-9.02887 0 -18.236206 1.2834473 -27.396362 3.979004c-50.50128 15.123352 -80.20996 68.4147 -66.293945 118.95801c11.48822 42.590546 49.5932 70.25198 91.548584 70.25198c9.020996 0 18.217834 -1.2782593 27.370056 -3.9606323c51.748047 -14.0 81.49872 -67.25198 66.33331 -118.95804c-11.519653 -42.582672 -49.61676 -70.270325 -91.561646 -70.270325z"/><path fill="#000" fill-opacity="0" fill-rule="evenodd" d="m847.2231 395.6063l181.75067 0m-181.70868 37.501312l187.75067 0m-187.75067 37.83203l220.54071 0m-220.54071 37.498688l184.20734 0m-147.74799 37.666656l142.16534 0m-160.41736 -167.70602l0 136.4567m37.501343 -96.33334l0 137.50131m36.375305 -182.91602l0 207.91602m36.748047 -210.95801l0 193.33069m37.125977 -172.2467l0 189.87402m36.417297 -207.91602l0 207.91602"/><path fill-rule="evenodd" stroke="#d9d9d9" stroke-linecap="butt" stroke-miterlimit="15.875" stroke-width="1.583" d="m847.2231 395.6063l181.75067 0m-181.70868 37.501312l187.75067 0m-187.75067 37.83203l220.54071 0m-220.54071 37.498688l184.20734 0m-147.74799 37.666656l142.16534 0m-160.41736 -167.70602l0 136.4567m37.501343 -96.33334l0 137.50131m36.375305 -182.91602l0 207.91602m36.748047 -210.95801l0 193.33069m37.125977 -172.2467l0 189.87402m36.417297 -207.91602l0 207.91602"/><path fill="#000" fill-opacity=".071" fill-rule="evenodd" d="m564.8058 361.48294l0 0c0.7086792 3.2073364 1.5012817 6.4147034 2.4172974 9.54068l100.12598 80.95801c3.2493896 0.29135132 6.5407104 0.41732788 9.832031 0.41732788l-112.375305 -90.916016z"/><path fill="#000" fill-opacity=".071" fill-rule="evenodd" d="m569.30707 298.6063c-0.70861816 1.9580078 -1.3753052 3.9580078 -2.0 5.958008l165.04199 133.50131c1.7900391 -1.0 3.6246948 -2.0839844 5.375366 -3.209961l-168.41736 -136.24936z"/><path fill="#000" fill-opacity=".071" fill-rule="evenodd" d="m668.55646 223.77428c-1.2493896 0.083984375 -2.5407104 0.20735168 -3.7926636 0.33332825c-1.4567261 0.12599182 -2.9580078 0.3333435 -4.456726 0.5406952l130.75067 105.79265c-0.16796875 -2.7506714 -0.45928955 -5.5013123 -0.83465576 -8.249359l-121.666626 -98.41731z"/><path fill="#000" fill-opacity=".071" fill-rule="evenodd" d="m729.39105 236.1916l35.958008 29.081375c-9.876648 -12.039383 -22.125977 -21.91603 -35.958008 -29.081375z"/><path fill="#000" fill-opacity=".071" fill-rule="evenodd" d="m562.39105 337.31497c-0.041992188 2.582672 0.039367676 5.1679688 0.20739746 7.750641l131.08398 106.08136c2.5406494 -0.41470337 5.123352 -0.8739929 7.624634 -1.4147034l-138.91602 -112.4173z"/><path fill="#000" fill-opacity=".071" fill-rule="evenodd" d="m576.68243 282.39896c-0.9580078 1.7506409 -1.876648 3.54068 -2.7506714 5.333313l173.45929 140.33334c1.5827026 -1.2099609 3.123413 -2.5013123 4.624695 -3.792633l-175.33331 -141.87402z"/><path fill="#000" fill-opacity=".071" fill-rule="evenodd" d="m564.30707 316.73227c-0.37530518 2.207367 -0.75061035 4.45932 -1.0419922 6.708679l151.41736 122.49869c2.2073364 -0.7506714 4.291321 -1.5406799 6.375305 -2.417328l-156.75067 -126.79004z"/><path fill="#000" fill-opacity=".071" fill-rule="evenodd" d="m686.7638 223.85826l99.543274 80.540695c-1.0839844 -3.6246643 -2.3753052 -7.1679993 -3.8346558 -10.666687l-84.456665 -68.33331c-3.7086792 -0.70866394 -7.4592896 -1.2073517 -11.251953 -1.5406952z"/><path fill="#000" fill-opacity=".071" fill-rule="evenodd" d="m576.51447 393.1076c14.45929 26.207367 38.624634 45.748047 67.29132 54.456696l-67.29132 -54.456696z"/><path fill="#000" fill-opacity=".071" fill-rule="evenodd" d="m646.05774 227.69029c-2.2939453 0.5826721 -4.543274 1.291336 -6.7926636 2.0839844l151.16534 122.291336c0.29400635 -2.3333435 0.5013428 -4.6666565 0.666687 -7.0l-145.03937 -117.37532z"/><path fill="#000" fill-opacity=".071" fill-rule="evenodd" d="m597.7638 255.14961c-1.4147339 1.3333282 -2.790039 2.7506561 -4.165344 4.1653595l177.49866 143.62466c1.1259766 -1.6246643 2.209961 -3.2913513 3.2519531 -4.958008l-176.58527 -142.83202z"/><path fill="#000" fill-opacity=".071" fill-rule="evenodd" d="m627.30707 234.69029c-1.9160156 0.91600037 -3.8346558 1.8766327 -5.708618 2.9160004l164.83197 133.41733c0.666687 -2.0839844 1.1680298 -4.1259766 1.7086792 -6.2073364l-160.83203 -130.12599z"/><path fill="#000" fill-opacity=".071" fill-rule="evenodd" d="m586.2231 267.98163c-1.2073364 1.5433044 -2.3753052 3.1259766 -3.4592896 4.7086487l177.50128 143.6247c1.2913818 -1.4173279 2.6246948 -2.9160156 3.8740234 -4.3753357l-177.91602 -143.95801z"/><path fill="#000" fill-opacity=".071" fill-rule="evenodd" d="m611.39105 243.93964c-1.666626 1.1679688 -3.2939453 2.3753204 -4.91864 3.6272888l173.37537 140.28873c0.9160156 -1.8320312 1.7506714 -3.666687 2.543274 -5.54068l-171.0 -138.37534z"/><path fill="#edbd98" fill-rule="evenodd" d="m678.8845 308.25723c-2.2283325 0 -4.543335 0.6955261 -6.70343 1.4750366c-7.708679 2.7926636 -15.417297 6.3333435 -21.29132 12.042023c-5.8320312 6.041992 -10.832031 12.790009 -14.958008 20.123352c-11.167969 18.876648 -20.417297 39.375336 -36.041992 54.834625c-6.5827026 6.4986877 -14.083984 11.874023 -21.874023 16.832031l40.165344 40.083984l24.041992 -34.0c4.291382 -5.54068 8.041992 -12.873993 13.624695 -17.125977c3.4592896 -2.6246643 7.4172974 -4.6666565 10.876648 -7.2073364c4.747986 -3.8740234 9.039368 -8.249359 12.790039 -13.084015c4.957947 -5.915985 8.792603 -14.123352 15.45929 -18.375305c0.20733643 -0.16537476 0.45666504 -0.24935913 0.7506714 -0.24935913c0.2913208 0.12597656 0.5826416 0.29135132 0.74798584 0.5826721c1.3884888 1.5065613 2.8084106 2.1233826 4.173279 2.1233826c4.498657 0 8.414673 -6.70343 8.703369 -10.538055l1.0 -13.042023c0.7086792 -5.915985 -3.4172974 -11.333313 -9.333313 -12.249329c1.2073364 -5.0 -1.876648 -10.041992 -6.834656 -11.375336c-0.45666504 -0.041992188 -0.9160156 -0.20996094 -1.2913208 -0.41732788c-0.2913208 -0.16534424 -0.58270264 -0.41729736 -0.7926636 -0.6666565l-3.3726807 -3.7926636c-2.0839844 -2.333313 -4.2940063 -4.7480164 -7.2940063 -5.6246643c-0.8267212 -0.24407959 -1.6797485 -0.34906006 -2.5458984 -0.34906006z"/><path fill="#000" fill-opacity="0" fill-rule="evenodd" d="m618.1811 453.6483l24.041992 -34.0c4.291382 -5.54068 8.041992 -12.873993 13.624695 -17.125977c3.4592896 -2.6246643 7.4172974 -4.6666565 10.876648 -7.2073364c4.747986 -3.8740234 9.039368 -8.249359 12.790039 -13.084015c4.957947 -5.915985 8.792603 -14.123352 15.45929 -18.375305c0.20733643 -0.16537476 0.45666504 -0.24935913 0.7506714 -0.24935913c0.2913208 0.12597656 0.5826416 0.29135132 0.74798584 0.5826721c5.958008 6.45932 12.501343 -3.4146729 12.876648 -8.414673l1.0 -13.042023c0.7086792 -5.915985 -3.4172974 -11.333313 -9.333313 -12.249329c1.2073364 -5.0 -1.876648 -10.041992 -6.834656 -11.375336c-0.45666504 -0.041992188 -0.9160156 -0.20996094 -1.2913208 -0.41732788c-0.2913208 -0.16534424 -0.58270264 -0.41729736 -0.7926636 -0.6666565l-3.3726807 -3.7926636c-2.0839844 -2.333313 -4.2940063 -4.7480164 -7.2940063 -5.6246643c-2.9580078 -0.87402344 -6.2493286 0.041992188 -9.249329 1.1259766c-7.708679 2.7926636 -15.417297 6.3333435 -21.29132 12.042023c-5.8320312 6.041992 -10.832031 12.790009 -14.958008 20.123352c-11.167969 18.876648 -20.417297 39.375336 -36.041992 54.834625c-6.5827026 6.4986877 -14.083984 11.874023 -21.874023 16.832031"/><path fill-rule="evenodd" stroke="#000" stroke-linecap="butt" stroke-miterlimit="15.875" stroke-width="1.583" d="m618.1811 453.6483l24.041992 -34.0c4.291382 -5.54068 8.041992 -12.873993 13.624695 -17.125977c3.4592896 -2.6246643 7.4172974 -4.6666565 10.876648 -7.2073364c4.747986 -3.8740234 9.039368 -8.249359 12.790039 -13.084015c4.957947 -5.915985 8.792603 -14.123352 15.45929 -18.375305c0.20733643 -0.16537476 0.45666504 -0.24935913 0.7506714 -0.24935913c0.2913208 0.12597656 0.5826416 0.29135132 0.74798584 0.5826721c5.958008 6.45932 12.501343 -3.4146729 12.876648 -8.414673l1.0 -13.042023c0.7086792 -5.915985 -3.4172974 -11.333313 -9.333313 -12.249329c1.2073364 -5.0 -1.876648 -10.041992 -6.834656 -11.375336c-0.45666504 -0.041992188 -0.9160156 -0.20996094 -1.2913208 -0.41732788c-0.2913208 -0.16534424 -0.58270264 -0.41729736 -0.7926636 -0.6666565l-3.3726807 -3.7926636c-2.0839844 -2.333313 -4.2940063 -4.7480164 -7.2940063 -5.6246643c-2.9580078 -0.87402344 -6.2493286 0.041992188 -9.249329 1.1259766c-7.708679 2.7926636 -15.417297 6.3333435 -21.29132 12.042023c-5.8320312 6.041992 -10.832031 12.790009 -14.958008 20.123352c-11.167969 18.876648 -20.417297 39.375336 -36.041992 54.834625c-6.5827026 6.4986877 -14.083984 11.874023 -21.874023 16.832031"/><path fill="#000" fill-opacity="0" fill-rule="evenodd" d="m701.1391 330.6063c0.16796875 7.958008 -2.5406494 15.666687 -7.666687 21.792664c-1.6246338 1.9160156 -4.08136 3.8740234 -6.456665 3.0419922c-1.6246948 -0.6666565 -2.7926636 -2.1259766 -3.0419922 -3.8346558c-0.20996094 -1.7086487 -0.12597656 -3.4566956 0.24932861 -5.123352c0.58270264 -3.3333435 3.0839844 -10.585297 0.29138184 -15.041992"/><path fill-rule="evenodd" stroke="#000" stroke-linecap="round" stroke-linejoin="round" stroke-width="1.583" d="m701.1391 330.6063c0.16796875 7.958008 -2.5406494 15.666687 -7.666687 21.792664c-1.6246338 1.9160156 -4.08136 3.8740234 -6.456665 3.0419922c-1.6246948 -0.6666565 -2.7926636 -2.1259766 -3.0419922 -3.8346558c-0.20996094 -1.7086487 -0.12597656 -3.4566956 0.24932861 -5.123352c0.58270264 -3.3333435 3.0839844 -10.585297 0.29138184 -15.041992"/><path fill="#000" fill-opacity="0" fill-rule="evenodd" d="m676.7244 321.48294c3.0393677 1.7480164 5.624634 4.2073364 7.456665 7.2073364c0.7506714 1.5406799 1.7086792 2.9580078 2.7926636 4.2913513c1.123352 1.3753357 2.8740234 2.0 4.5827026 1.6246643c1.9580078 -0.6246643 2.8739624 -2.8740234 3.1259766 -4.9160156c0.49865723 -4.165344 -0.7086792 -8.333313 -3.333374 -11.624664"/><path fill-rule="evenodd" stroke="#000" stroke-linecap="round" stroke-linejoin="round" stroke-width="1.583" d="m676.7244 321.48294c3.0393677 1.7480164 5.624634 4.2073364 7.456665 7.2073364c0.7506714 1.5406799 1.7086792 2.9580078 2.7926636 4.2913513c1.123352 1.3753357 2.8740234 2.0 4.5827026 1.6246643c1.9580078 -0.6246643 2.8739624 -2.8740234 3.1259766 -4.9160156c0.49865723 -4.165344 -0.7086792 -8.333313 -3.333374 -11.624664"/><path fill="#000" fill-opacity="0" fill-rule="evenodd" d="m708.01575 354.44095c-0.91864014 3.1653442 -3.1679688 5.7900085 -6.1259766 7.2493286c-0.7506714 0.41732788 -1.6246948 0.6246948 -2.4987183 0.58270264c-1.8345947 -0.49868774 -3.209961 -2.0 -3.543274 -3.8320312c-0.7506714 -2.5013123 0.45928955 -9.125977 1.333313 -11.585297c-0.041992188 0.25195312 -1.333313 4.417328 -1.4172974 4.5852966"/><path fill-rule="evenodd" stroke="#000" stroke-linecap="round" stroke-linejoin="round" stroke-width="1.583" d="m708.01575 354.44095c-0.91864014 3.1653442 -3.1679688 5.7900085 -6.1259766 7.2493286c-0.7506714 0.41732788 -1.6246948 0.6246948 -2.4987183 0.58270264c-1.8345947 -0.49868774 -3.209961 -2.0 -3.543274 -3.8320312c-0.7506714 -2.5013123 0.45928955 -9.125977 1.333313 -11.585297c-0.041992188 0.25195312 -1.333313 4.417328 -1.4172974 4.5852966"/><path fill="#973896" fill-rule="evenodd" d="m690.8058 323.2467c-1.112854 0 -2.0944824 0.9160156 -2.6246948 1.9028931c-0.87402344 1.5826721 -1.0419922 3.4986877 -0.45666504 5.249359c0.16534424 0.49868774 0.45666504 0.9580078 0.87402344 1.2913208c0.5406494 0.45144653 1.1968384 0.666687 1.8529663 0.666687c0.8609009 0 1.7218018 -0.37271118 2.312378 -1.0839844c1.2939453 -1.4147034 1.1259766 -4.4147034 0.37530518 -6.1233826c-0.333313 -0.91864014 -1.0813599 -1.6246643 -2.0 -1.8766174c-0.112854004 -0.018371582 -0.2230835 -0.026275635 -0.333313 -0.026275635z"/><path fill="#973896" fill-rule="evenodd" d="m694.7113 343.8504c-0.24676514 0 -0.49346924 0.041992188 -0.7375488 0.13122559c-2.0839844 0.54067993 -3.4172974 2.5013123 -4.543335 4.3333435c-0.5826416 0.79263306 -1.0 1.6666565 -1.2073364 2.6246643c-0.24932861 0.9160156 0.083984375 1.9160156 0.83465576 2.5433044c0.36480713 0.26245117 0.7716675 0.3753357 1.1915894 0.3753357c0.9711304 0 2.010498 -0.5957947 2.7664185 -1.2939758c1.333313 -1.2493286 6.08136 -7.3333435 2.333313 -8.624664c-0.21258545 -0.057739258 -0.4251709 -0.0892334 -0.63775635 -0.0892334z"/><path fill="#973896" fill-rule="evenodd" d="m704.916 352.09448c-0.9370117 0 -1.8582764 0.34909058 -2.5669556 0.9711304c-0.91864014 0.9160156 -1.666626 2.0419922 -2.1679688 3.2493591c-0.5406494 0.8739929 -0.83203125 1.9159851 -0.9160156 2.9580078c-0.083984375 1.0419922 0.49871826 2.0419922 1.4987183 2.5433044c0.23883057 0.08135986 0.47766113 0.12072754 0.7138672 0.12072754c1.1759033 0 2.3150024 -0.94226074 3.0787964 -1.9133911c1.333313 -1.6666565 5.041992 -6.45932 1.5012817 -7.750641c-0.37530518 -0.12075806 -0.7585449 -0.17849731 -1.1417236 -0.17849731z"/><path fill="#000" fill-opacity="0" fill-rule="evenodd" d="m695.2651 363.5223c-1.4172974 -4.0 -1.2493286 -8.372711 0.54071045 -12.249329"/><path fill-rule="evenodd" stroke="#000" stroke-linecap="round" stroke-linejoin="round" stroke-width="1.583" d="m695.2651 363.5223c-1.4172974 -4.0 -1.2493286 -8.372711 0.54071045 -12.249329"/><path fill="#000" fill-opacity="0" fill-rule="evenodd" d="m658.1391 375.5223c4.91864 -0.87402344 9.417358 -3.4147034 12.708679 -7.2073364c3.2913208 -3.7926636 6.0839844 -7.958008 8.333313 -12.417328"/><path fill-rule="evenodd" stroke="#000" stroke-linecap="round" stroke-linejoin="round" stroke-width="1.583" d="m658.1391 375.5223c4.91864 -0.87402344 9.417358 -3.4147034 12.708679 -7.2073364c3.2913208 -3.7926636 6.0839844 -7.958008 8.333313 -12.417328"/><path fill="#000" fill-opacity="0" fill-rule="evenodd" d="m614.0971 376.1496c-4.291321 -1.0 -5.8740234 3.1653748 -5.8740234 6.4566956c0 4.2099915 2.4173584 8.0 5.041992 11.249359c9.54071 11.627289 23.54071 19.20996 38.29138 22.167969c2.3753052 0.5826721 4.8345947 0.7086487 7.2493286 0.3753357c2.4592896 -0.3753357 4.585266 -1.9580078 5.666626 -4.2099915c1.666687 -4.123352 -1.9579468 -8.624664 -6.0 -10.456696"/><path fill-rule="evenodd" stroke="#973896" stroke-linecap="butt" stroke-miterlimit="15.875" stroke-width="1.583" d="m614.0971 376.1496c-4.291321 -1.0 -5.8740234 3.1653748 -5.8740234 6.4566956c0 4.2099915 2.4173584 8.0 5.041992 11.249359c9.54071 11.627289 23.54071 19.20996 38.29138 22.167969c2.3753052 0.5826721 4.8345947 0.7086487 7.2493286 0.3753357c2.4592896 -0.3753357 4.585266 -1.9580078 5.666626 -4.2099915c1.666687 -4.123352 -1.9579468 -8.624664 -6.0 -10.456696"/><path fill="#fff" fill-rule="evenodd" d="m727.4304 254.31496c-4.498657 1.5433044 -8.873962 3.5013275 -13.039368 5.8346405l13.039368 -5.8346405z"/><path fill="#000" fill-opacity="0" fill-rule="evenodd" d="m714.39105 260.1496c4.1654053 -2.333313 8.54071 -4.291336 13.039368 -5.8346405"/><path fill-rule="evenodd" stroke="#000" stroke-linecap="round" stroke-linejoin="round" stroke-width="1.583" d="m714.39105 260.1496c4.1654053 -2.333313 8.54071 -4.291336 13.039368 -5.8346405"/><path fill="#fff" fill-rule="evenodd" d="m729.59845 270.1916l-7.178528 1.11026l0 0c2.4016113 -0.36746216 4.7979126 -0.7322998 7.178528 -1.11026zm-7.178528 1.11026c-1.5511475 0.23883057 -3.102356 0.47769165 -4.656128 0.72177124l4.656128 -0.72177124z"/><path fill="#000" fill-opacity="0" fill-rule="evenodd" d="m717.7638 272.02362c3.9606323 -0.6246643 7.91864 -1.2073364 11.834656 -1.8320312"/><path fill-rule="evenodd" stroke="#000" stroke-linecap="round" stroke-linejoin="round" stroke-width="1.583" d="m717.7638 272.02362c3.9606323 -0.6246643 7.91864 -1.2073364 11.834656 -1.8320312"/><path fill="#fff" fill-rule="evenodd" d="m717.7638 284.69028l11.834656 3.084015c-3.8740234 -1.2099915 -7.834656 -2.2493591 -11.834656 -3.084015z"/><path fill="#000" fill-opacity="0" fill-rule="evenodd" d="m717.7638 284.69028c4.0 0.83465576 7.9606323 1.8740234 11.834656 3.084015"/><path fill-rule="evenodd" stroke="#000" stroke-linecap="round" stroke-linejoin="round" stroke-width="1.583" d="m717.7638 284.69028c4.0 0.83465576 7.9606323 1.8740234 11.834656 3.084015"/><path fill="#fff" fill-rule="evenodd" d="m614.0971 257.39896l13.293945 4.0839844c-4.4172974 -1.4593201 -8.834595 -2.8346558 -13.293945 -4.0839844z"/><path fill="#000" fill-opacity="0" fill-rule="evenodd" d="m627.39105 261.48294c-4.4172974 -1.4593201 -8.834595 -2.8346558 -13.293945 -4.0839844"/><path fill-rule="evenodd" stroke="#000" stroke-linecap="round" stroke-linejoin="round" stroke-width="1.583" d="m627.39105 261.48294c-4.4172974 -1.4593201 -8.834595 -2.8346558 -13.293945 -4.0839844"/><path fill="#fff" fill-rule="evenodd" d="m621.46454 275.3386c-3.4382935 0 -6.8949585 0.21520996 -10.325439 0.6430359l0.20996094 0l11.832031 -0.6246643c-0.57214355 -0.010498047 -1.1443481 -0.018371582 -1.7165527 -0.018371582z"/><path fill="#000" fill-opacity="0" fill-rule="evenodd" d="m611.34906 275.98163l-0.20996094 0c4.0 -0.49868774 8.041992 -0.7086487 12.041992 -0.6246643"/><path fill-rule="evenodd" stroke="#000" stroke-linecap="round" stroke-linejoin="round" stroke-width="1.583" d="m611.34906 275.98163l-0.20996094 0c4.0 -0.49868774 8.041992 -0.7086487 12.041992 -0.6246643"/><path fill="#fff" fill-rule="evenodd" d="m624.0971 287.52493l0 0c-3.9580078 1.0813599 -7.8320312 2.4566956 -11.582642 4.123352l11.582642 -4.123352z"/><path fill="#000" fill-opacity="0" fill-rule="evenodd" d="m612.51447 291.6483c3.7506104 -1.6666565 7.624634 -3.0419922 11.582642 -4.123352"/><path fill-rule="evenodd" stroke="#000" stroke-linecap="round" stroke-linejoin="round" stroke-width="1.583" d="m612.51447 291.6483c3.7506104 -1.6666565 7.624634 -3.0419922 11.582642 -4.123352"/><path fill="#000" fill-opacity="0" fill-rule="evenodd" d="m781.68243 487.98163c-2.2913818 -0.7506714 -4.501343 -1.5433044 -6.624695 -2.3753357c-5.7926636 -2.1259766 -11.251953 -4.165344 -17.70868 -4.792633c-10.0 -0.9580078 -20.251953 -0.54067993 -33.333313 1.3753052c-15.834656 2.2913513 -28.543335 -0.45669556 -37.70868 -8.249329c-5.624634 -4.7506714 -11.666626 -13.958008 -11.582642 -22.874023l4.08136 0.041992188c-0.08135986 7.2913513 5.0 15.456696 10.083984 19.748047c8.291321 7.0 19.916016 9.45932 34.54065 7.291321c13.417358 -1.9580078 23.960632 -2.3726807 34.294006 -1.3726807c7.0 0.70602417 12.666626 2.7900085 18.705994 5.0393677c2.0840454 0.75064087 4.2940063 1.5433044 6.543335 2.333313c4.8740234 1.5852966 8.249329 1.2099915 10.291321 -1.2493286"/><path fill-rule="evenodd" stroke="#000" stroke-linecap="round" stroke-linejoin="round" stroke-width="1.583" d="m781.68243 487.98163c-2.2913818 -0.7506714 -4.501343 -1.5433044 -6.624695 -2.3753357c-5.7926636 -2.1259766 -11.251953 -4.165344 -17.70868 -4.792633c-10.0 -0.9580078 -20.251953 -0.54067993 -33.333313 1.3753052c-15.834656 2.2913513 -28.543335 -0.45669556 -37.70868 -8.249329c-5.624634 -4.7506714 -11.666626 -13.958008 -11.582642 -22.874023l4.08136 0.041992188c-0.08135986 7.2913513 5.0 15.456696 10.083984 19.748047c8.291321 7.0 19.916016 9.45932 34.54065 7.291321c13.417358 -1.9580078 23.960632 -2.3726807 34.294006 -1.3726807c7.0 0.70602417 12.666626 2.7900085 18.705994 5.0393677c2.0840454 0.75064087 4.2940063 1.5433044 6.543335 2.333313c4.8740234 1.5852966 8.249329 1.2099915 10.291321 -1.2493286"/><path fill="#fff" fill-rule="evenodd" d="m681.1391 435.93964l-10.498657 0.6246643c0 0 2.123352 15.543304 2.2073364 15.958008c0.07611084 0.41732788 1.6955566 1.107605 3.0524902 1.107605c0.13909912 0 0.27557373 -0.007873535 0.40679932 -0.023620605c1.4567261 -0.12597656 3.666687 -0.41732788 4.041992 -1.0419922l0.79003906 -16.624664z"/><path fill="#000" fill-opacity="0" fill-rule="evenodd" d="m670.64044 436.5643c0 0 2.123352 15.543304 2.2073364 15.958008c0.083984375 0.45932007 2.0419922 1.2519836 3.4592896 1.0839844c1.4567261 -0.12597656 3.666687 -0.41732788 4.041992 -1.0419922l0.79003906 -16.624664"/><path fill-rule="evenodd" stroke="#000" stroke-linecap="round" stroke-linejoin="round" stroke-width="1.583" d="m670.64044 436.5643c0 0 2.123352 15.543304 2.2073364 15.958008c0.083984375 0.45932007 2.0419922 1.2519836 3.4592896 1.0839844c1.4567261 -0.12597656 3.666687 -0.41732788 4.041992 -1.0419922l0.79003906 -16.624664"/><path fill="#fff" fill-rule="evenodd" d="m681.1391 435.93964l-10.498657 0.6246643c0 0 2.123352 15.543304 2.2073364 15.958008c0.07611084 0.41732788 1.6955566 1.107605 3.0524902 1.107605c0.13909912 0 0.27557373 -0.007873535 0.40679932 -0.023620605c1.4567261 -0.12597656 3.666687 -0.41732788 4.041992 -1.0419922l0.79003906 -16.624664z"/><path fill="#000" fill-opacity="0" fill-rule="evenodd" d="m670.64044 436.5643c0 0 2.123352 15.543304 2.2073364 15.958008c0.083984375 0.45932007 2.0419922 1.2519836 3.4592896 1.0839844c1.4567261 -0.12597656 3.666687 -0.41732788 4.041992 -1.0419922l0.79003906 -16.624664"/><path fill-rule="evenodd" stroke="#000" stroke-linecap="round" stroke-linejoin="round" stroke-width="1.583" d="m670.64044 436.5643c0 0 2.123352 15.543304 2.2073364 15.958008c0.083984375 0.45932007 2.0419922 1.2519836 3.4592896 1.0839844c1.4567261 -0.12597656 3.666687 -0.41732788 4.041992 -1.0419922l0.79003906 -16.624664"/><path fill="#fff" fill-rule="evenodd" d="m676.1601 250.70341c-8.015747 0 -15.937012 4.2414703 -20.396301 11.569565c-6.8320312 11.167969 -6.0 28.125977 5.209961 34.91861c5.1312256 3.120758 10.816284 5.545929 16.435669 5.545929c6.6063232 0 13.118164 -3.354309 18.522339 -12.879242c6.4172974 -11.375336 4.7506714 -27.293976 -7.5827026 -35.501328c-3.7663574 -2.4908142 -7.989502 -3.653534 -12.188965 -3.653534z"/><path fill="#000" fill-opacity="0" fill-rule="evenodd" d="m660.97375 297.1916c-11.209961 -6.792633 -12.041992 -23.75064 -5.209961 -34.91861c6.7926636 -11.165375 21.627258 -15.165375 32.585266 -7.916031c12.333374 8.207352 14.0 24.125992 7.5827026 35.501328c-10.0 17.624664 -23.792664 14.123352 -34.958008 7.333313"/><path fill-rule="evenodd" stroke="#000" stroke-linecap="butt" stroke-miterlimit="15.875" stroke-width="1.583" d="m660.97375 297.1916c-11.209961 -6.792633 -12.041992 -23.75064 -5.209961 -34.91861c6.7926636 -11.165375 21.627258 -15.165375 32.585266 -7.916031c12.333374 8.207352 14.0 24.125992 7.5827026 35.501328c-10.0 17.624664 -23.792664 14.123352 -34.958008 7.333313"/><path fill="#452391" fill-rule="evenodd" d="m676.1601 250.70341c-8.015747 0 -15.937012 4.2414703 -20.396301 11.569565c-6.8320312 11.167969 -6.0 28.125977 5.209961 34.91861c5.1312256 3.120758 10.816284 5.545929 16.435669 5.545929c6.6063232 0 13.118164 -3.354309 18.522339 -12.879242c6.4172974 -11.375336 4.7506714 -27.293976 -7.5827026 -35.501328c-3.7663574 -2.4908142 -7.989502 -3.653534 -12.188965 -3.653534z"/><path fill-rule="evenodd" stroke="#000" stroke-linecap="butt" stroke-miterlimit="15.875" stroke-width="1.583" d="m676.1601 250.70341c-8.015747 0 -15.937012 4.2414703 -20.396301 11.569565c-6.8320312 11.167969 -6.0 28.125977 5.209961 34.91861c5.1312256 3.120758 10.816284 5.545929 16.435669 5.545929c6.6063232 0 13.118164 -3.354309 18.522339 -12.879242c6.4172974 -11.375336 4.7506714 -27.293976 -7.5827026 -35.501328c-3.7663574 -2.4908142 -7.989502 -3.653534 -12.188965 -3.653534z"/><path fill="#973896" fill-rule="evenodd" d="m674.7559 249.73753c-0.4645996 0 -0.9343872 0.010498047 -1.4068604 0.036743164c-13.083984 0.66667175 -22.624634 12.750656 -21.417297 25.750656l48.70868 -1.7506409c-1.5748291 -12.585327 -11.7769165 -24.036758 -25.884521 -24.036758z"/><path fill-rule="evenodd" stroke="#000" stroke-linecap="butt" stroke-miterlimit="15.875" stroke-width="1.583" d="m674.7559 249.73753c-0.4645996 0 -0.9343872 0.010498047 -1.4068604 0.036743164c-13.083984 0.66667175 -22.624634 12.750656 -21.417297 25.750656l48.70868 -1.7506409c-1.5748291 -12.585327 -11.7769165 -24.036758 -25.884521 -24.036758z"/><path fill="#fff" fill-rule="evenodd" d="m675.9974 290.7848c-3.979004 0 -8.123352 1.0026245 -11.48291 4.0734863c-9.708679 8.790009 -2.2073975 42.624664 -2.2073975 42.624664c0 0 2.3753662 56.79004 2.4173584 58.958008c0 0.87402344 1.0 1.5406799 2.4146729 2.123352l-0.24932861 0c0 0 2.2913208 35.792664 2.4592896 36.792664c0.14697266 0.92388916 2.461975 2.0131226 5.338623 2.0131226c0.36480713 0 0.7401123 -0.018371582 1.118103 -0.055114746c3.3753052 -0.3333435 5.4172974 -0.9160156 6.291321 -2.3333435l1.1679688 -36.207336c0.87402344 -0.3333435 1.4987183 -0.7506714 1.666687 -1.1260071c0.5406494 -1.2493286 5.375305 -103.33331 5.375305 -103.33331l0.041992188 0c0 0 -6.881897 -3.530182 -14.351685 -3.530182z"/><path fill="#000" fill-opacity="0" fill-rule="evenodd" d="m690.34906 294.31497c0 0 -16.167969 -8.291351 -25.834595 0.54330444c-9.708679 8.790009 -2.2073975 42.624664 -2.2073975 42.624664c0 0 2.3753662 56.79004 2.4173584 58.958008c0 0.87402344 1.0 1.5406799 2.4146729 2.123352l-0.24932861 0c0 0 2.2913208 35.792664 2.4592896 36.792664c0.16540527 1.0419922 3.0813599 2.2913208 6.456726 1.9580078c3.3753052 -0.3333435 5.4172974 -0.9160156 6.291321 -2.3333435l1.1679688 -36.207336c0.87402344 -0.3333435 1.4987183 -0.7506714 1.666687 -1.1260071c0.5406494 -1.2493286 5.375305 -103.33331 5.375305 -103.33331"/><path fill-rule="evenodd" stroke="#000" stroke-linecap="round" stroke-linejoin="round" stroke-width="1.583" d="m690.34906 294.31497c0 0 -16.167969 -8.291351 -25.834595 0.54330444c-9.708679 8.790009 -2.2073975 42.624664 -2.2073975 42.624664c0 0 2.3753662 56.79004 2.4173584 58.958008c0 0.87402344 1.0 1.5406799 2.4146729 2.123352l-0.24932861 0c0 0 2.2913208 35.792664 2.4592896 36.792664c0.16540527 1.0419922 3.0813599 2.2913208 6.456726 1.9580078c3.3753052 -0.3333435 5.4172974 -0.9160156 6.291321 -2.3333435l1.1679688 -36.207336c0.87402344 -0.3333435 1.4987183 -0.7506714 1.666687 -1.1260071c0.5406494 -1.2493286 5.375305 -103.33331 5.375305 -103.33331"/><path fill="#fff" fill-rule="evenodd" d="m675.9974 290.7848c-3.979004 0 -8.123352 1.0026245 -11.48291 4.0734863c-9.708679 8.790009 -2.2073975 42.624664 -2.2073975 42.624664c0 0 2.3753662 56.79004 2.4173584 58.958008c0 0.87402344 1.0 1.5406799 2.4146729 2.123352l-0.24932861 0c0 0 2.2913208 35.792664 2.4592896 36.792664c0.14697266 0.92388916 2.461975 2.0131226 5.338623 2.0131226c0.36480713 0 0.7401123 -0.018371582 1.118103 -0.055114746c3.3753052 -0.3333435 5.4172974 -0.9160156 6.291321 -2.3333435l1.1679688 -36.207336c0.87402344 -0.3333435 1.4987183 -0.7506714 1.666687 -1.1260071c0.5406494 -1.2493286 5.375305 -103.33331 5.375305 -103.33331l0.041992188 0c0 0 -6.881897 -3.530182 -14.351685 -3.530182z"/><path fill-rule="evenodd" stroke="#000" stroke-linecap="round" stroke-linejoin="round" stroke-width="1.583" d="m675.9974 290.7848c-3.979004 0 -8.123352 1.0026245 -11.48291 4.0734863c-9.708679 8.790009 -2.2073975 42.624664 -2.2073975 42.624664c0 0 2.3753662 56.79004 2.4173584 58.958008c0 0.87402344 1.0 1.5406799 2.4146729 2.123352l-0.24932861 0c0 0 2.2913208 35.792664 2.4592896 36.792664c0.14697266 0.92388916 2.461975 2.0131226 5.338623 2.0131226c0.36480713 0 0.7401123 -0.018371582 1.118103 -0.055114746c3.3753052 -0.3333435 5.4172974 -0.9160156 6.291321 -2.3333435l1.1679688 -36.207336c0.87402344 -0.3333435 1.4987183 -0.7506714 1.666687 -1.1260071c0.5406494 -1.2493286 5.375305 -103.33331 5.375305 -103.33331l0.041992188 0c0 0 -6.881897 -3.530182 -14.351685 -3.530182z"/><path fill="#fff" fill-rule="evenodd" d="m674.05774 343.23096l0 0.03152466l0 0c0.013122559 -0.010498047 0.026245117 -0.021026611 0.039367676 -0.03152466zm0 0.03152466c-4.3569336 3.1968384 -9.496033 3.3884277 -10.671936 3.3884277c-0.16009521 0 -0.2467041 -0.0026245117 -0.2467041 -0.0026245117l0 0l2.0419922 50.70868l1.7506714 2.0l0.45928955 6.958008l2.0 29.041992c0.24938965 1.8320007 6.456726 1.9580078 6.456726 1.9580078l0.37530518 -37.29135l-2.1259766 -0.083984375l-0.039367676 -56.677155z"/><path fill="#000" fill-opacity="0" fill-rule="evenodd" d="m674.05774 343.23096l0.039367676 56.70868l2.1259766 0.083984375l-0.37530518 37.29135c0 0 -6.2073364 -0.12600708 -6.456726 -1.9580078l-2.0 -29.041992l-0.45928955 -6.958008l-1.7506714 -2.0l-2.0419922 -50.70868c0 0 6.0 0.24935913 10.958008 -3.417328"/><path fill-rule="evenodd" stroke="#000" stroke-linecap="round" stroke-linejoin="round" stroke-width="1.583" d="m674.05774 343.23096l0.039367676 56.70868l2.1259766 0.083984375l-0.37530518 37.29135c0 0 -6.2073364 -0.12600708 -6.456726 -1.9580078l-2.0 -29.041992l-0.45928955 -6.958008l-1.7506714 -2.0l-2.0419922 -50.70868c0 0 6.0 0.24935913 10.958008 -3.417328"/><path fill="#fff" fill-rule="evenodd" d="m675.9974 290.7848c-3.979004 0 -8.123352 1.0026245 -11.48291 4.0734863c-9.708679 8.790009 -2.2073975 42.624664 -2.2073975 42.624664c0 0 2.3753662 56.79004 2.4173584 58.958008c0 0.87402344 1.0 1.5406799 2.4146729 2.123352l-0.24932861 0c0 0 2.2913208 35.792664 2.4592896 36.792664c0.14697266 0.92388916 2.461975 2.0131226 5.338623 2.0131226c0.36480713 0 0.7401123 -0.018371582 1.118103 -0.055114746c3.3753052 -0.3333435 5.4172974 -0.9160156 6.291321 -2.3333435l1.1679688 -36.207336c0.87402344 -0.3333435 1.4987183 -0.7506714 1.666687 -1.1260071c0.5406494 -1.2493286 5.375305 -103.33331 5.375305 -103.33331l0.041992188 0c0 0 -6.881897 -3.530182 -14.351685 -3.530182z"/><path fill="#000" fill-opacity="0" fill-rule="evenodd" d="m690.34906 294.31497c0 0 -16.167969 -8.291351 -25.834595 0.54330444c-9.708679 8.790009 -2.2073975 42.624664 -2.2073975 42.624664c0 0 2.3753662 56.79004 2.4173584 58.958008c0 0.87402344 1.0 1.5406799 2.4146729 2.123352l-0.24932861 0c0 0 2.2913208 35.792664 2.4592896 36.792664c0.16540527 1.0419922 3.0813599 2.2913208 6.456726 1.9580078c3.3753052 -0.3333435 5.4172974 -0.9160156 6.291321 -2.3333435l1.1679688 -36.207336c0.87402344 -0.3333435 1.4987183 -0.7506714 1.666687 -1.1260071c0.5406494 -1.2493286 5.375305 -103.33331 5.375305 -103.33331zm-23.20996 104.16797c0 0 9.251953 3.4147034 16.167969 0.24932861"/><path fill-rule="evenodd" stroke="#000" stroke-linecap="round" stroke-linejoin="round" stroke-width="1.583" d="m690.34906 294.31497c0 0 -16.167969 -8.291351 -25.834595 0.54330444c-9.708679 8.790009 -2.2073975 42.624664 -2.2073975 42.624664c0 0 2.3753662 56.79004 2.4173584 58.958008c0 0.87402344 1.0 1.5406799 2.4146729 2.123352l-0.24932861 0c0 0 2.2913208 35.792664 2.4592896 36.792664c0.16540527 1.0419922 3.0813599 2.2913208 6.456726 1.9580078c3.3753052 -0.3333435 5.4172974 -0.9160156 6.291321 -2.3333435l1.1679688 -36.207336c0.87402344 -0.3333435 1.4987183 -0.7506714 1.666687 -1.1260071c0.5406494 -1.2493286 5.375305 -103.33331 5.375305 -103.33331zm-23.20996 104.16797c0 0 9.251953 3.4147034 16.167969 0.24932861"/><path fill="#000" fill-opacity="0" fill-rule="evenodd" d="m666.4724 396.18896c0.6246948 0.29397583 0.16802979 1.2939758 -0.45666504 1.0l-0.54333496 -0.24932861c-0.666626 -0.29135132 -0.20733643 -1.2913513 0.4593506 -1.0zm-0.6246338 -12.0c0 0.45932007 -0.20733643 0.83465576 -0.54071045 0.87664795c-0.2913208 0 -0.5826416 -0.3753357 -0.5826416 -0.83465576l-0.041992188 -0.8739929c-0.041992188 -0.45932007 0.20733643 -0.87402344 0.49865723 -0.87402344c0.33337402 0 0.58270264 0.3333435 0.6246948 0.83203125zm-0.083984375 7.0c0 0.29397583 -0.12335205 0.54330444 -0.33337402 0.54330444c-0.20733643 0.042022705 -0.37268066 -0.20996094 -0.37268066 -0.50131226l-0.041992188 -0.5826721c0 -0.2913208 0.12335205 -0.54067993 0.333313 -0.54067993c0.20739746 -0.041992188 0.3753662 0.20736694 0.3753662 0.49868774l0.039367676 0.5826721z"/><path fill-rule="evenodd" stroke="#000" stroke-linecap="butt" stroke-miterlimit="15.875" stroke-width="1.583" d="m666.4724 396.18896c0.6246948 0.29397583 0.16802979 1.2939758 -0.45666504 1.0l-0.54333496 -0.24932861c-0.666626 -0.29135132 -0.20733643 -1.2913513 0.4593506 -1.0zm-0.6246338 -12.0c0 0.45932007 -0.20733643 0.83465576 -0.54071045 0.87664795c-0.2913208 0 -0.5826416 -0.3753357 -0.5826416 -0.83465576l-0.041992188 -0.8739929c-0.041992188 -0.45932007 0.20733643 -0.87402344 0.49865723 -0.87402344c0.33337402 0 0.58270264 0.3333435 0.6246948 0.83203125zm-0.083984375 7.0c0 0.29397583 -0.12335205 0.54330444 -0.33337402 0.54330444c-0.20733643 0.042022705 -0.37268066 -0.20996094 -0.37268066 -0.50131226l-0.041992188 -0.5826721c0 -0.2913208 0.12335205 -0.54067993 0.333313 -0.54067993c0.20739746 -0.041992188 0.3753662 0.20736694 0.3753662 0.49868774l0.039367676 0.5826721z"/><path fill="#000" fill-opacity="0" fill-rule="evenodd" d="m668.1811 405.44095c0 0 -2.123352 -0.7506714 -2.7086792 -1.2519836c-0.16534424 -0.20733643 2.1260376 -4.165344 2.1260376 -4.165344l0.9580078 0.16534424c0 0 0.12597656 2.3753357 0.12597656 3.2939758c0 0.87402344 0.08135986 1.8320312 -0.5013428 1.9160156"/><path fill-rule="evenodd" stroke="#000" stroke-linecap="butt" stroke-miterlimit="15.875" stroke-width="1.583" d="m668.1811 405.44095c0 0 -2.123352 -0.7506714 -2.7086792 -1.2519836c-0.16534424 -0.20733643 2.1260376 -4.165344 2.1260376 -4.165344l0.9580078 0.16534424c0 0 0.12597656 2.3753357 0.12597656 3.2939758c0 0.87402344 0.08135986 1.8320312 -0.5013428 1.9160156"/><path fill="#000" fill-rule="evenodd" d="m667.59845 400.02362c0 0 -2.2913818 3.9580078 -2.1260376 4.165344c0.22576904 0.19424438 0.67718506 0.4225769 1.1496582 0.63256836l0 0c0.018371582 0.013122559 0.039367676 0.023620605 0.06036377 0.034118652l0.0026245117 -0.007873535l0 0c0.7348633 0.32281494 1.4960327 0.59317017 1.4960327 0.59317017l0 -0.041992188c0.58270264 -0.083984375 0.5013428 -1.0419922 0.5013428 -1.9160156c0 -0.74279785 -0.08135986 -2.433075 -0.112854004 -3.0577393l0 0l0.028869629 -0.068237305l0 0c0 0 -0.010498047 0.018371582 -0.03149414 0.055114746l0 0c-0.0052490234 -0.13909912 -0.010498047 -0.22311401 -0.010498047 -0.22311401l-0.9580078 -0.16534424z"/><path fill="#99c941" fill-rule="evenodd" d="m651.4304 271.1076l0 6.4566956l49.210022 0l0 -6.4566956z"/><path fill-rule="evenodd" stroke="#000" stroke-linecap="butt" stroke-miterlimit="15.875" stroke-width="1.583" d="m651.4304 271.1076l0 6.4566956l49.210022 0l0 -6.4566956z"/><path fill="#edbd98" fill-rule="evenodd" d="m678.1417 325.57742c-0.7769165 0 -1.5511475 0.12072754 -2.2939453 0.36221313c-2.0839844 0.6666565 -4.0 1.6246643 -5.790039 2.876648l-15.293945 9.6666565c-2.4121094 1.4881897 -5.194214 3.0551147 -7.94751 3.0551147c-0.71655273 0 -1.430481 -0.10760498 -2.13385 -0.34909058l0 0l4.5826416 23.084015c3.5827026 -0.24935913 6.958008 -1.7506714 9.54071 -4.207367c2.543274 -2.45932 4.958008 -5.0839844 7.209961 -7.792633c2.5827026 -2.790039 5.375305 -5.3333435 8.414673 -7.5827026c3.1260376 -2.2493286 6.543335 -4.333313 8.627319 -7.582672c2.0393677 -3.2493286 2.1653442 -8.209961 -1.0 -10.417328c-1.1942139 -0.74276733 -2.5563965 -1.112854 -3.9160156 -1.112854z"/><path fill="#000" fill-opacity="0" fill-rule="evenodd" d="m644.68243 341.18896c3.4146729 1.1679993 7.041992 -0.83200073 10.08136 -2.7060242l15.293945 -9.6666565c1.7900391 -1.2519836 3.7060547 -2.2099915 5.790039 -2.876648c2.0419922 -0.6666565 4.333313 -0.41470337 6.209961 0.75064087c3.1653442 2.207367 3.0393677 7.1679993 1.0 10.417328c-2.0839844 3.2493591 -5.5012817 5.3333435 -8.627319 7.582672c-3.0393677 2.2493591 -5.83197 4.7926636 -8.414673 7.5827026c-2.2519531 2.7086487 -4.666687 5.333313 -7.209961 7.792633c-2.5827026 2.4566956 -5.958008 3.9580078 -9.54071 4.207367"/><path fill-rule="evenodd" stroke="#000" stroke-linecap="butt" stroke-miterlimit="15.875" stroke-width="1.583" d="m644.68243 341.18896c3.4146729 1.1679993 7.041992 -0.83200073 10.08136 -2.7060242l15.293945 -9.6666565c1.7900391 -1.2519836 3.7060547 -2.2099915 5.790039 -2.876648c2.0419922 -0.6666565 4.333313 -0.41470337 6.209961 0.75064087c3.1653442 2.207367 3.0393677 7.1679993 1.0 10.417328c-2.0839844 3.2493591 -5.5012817 5.3333435 -8.627319 7.582672c-3.0393677 2.2493591 -5.83197 4.7926636 -8.414673 7.5827026c-2.2519531 2.7086487 -4.666687 5.333313 -7.209961 7.792633c-2.5827026 2.4566956 -5.958008 3.9580078 -9.54071 4.207367"/><path fill="#973896" fill-rule="evenodd" d="m680.47504 327.8189c-2.1469727 0 -5.036743 1.4199219 -6.4172974 2.5380554c-1.2519531 0.9160156 -2.0419922 2.3753052 -2.209961 3.9160156c-0.083984375 1.5826721 0.9160156 3.0419922 2.4172974 3.582672c0.4383545 0.1338501 0.887146 0.19421387 1.3412476 0.19421387c3.559021 0 7.343811 -3.7847595 7.4907837 -7.1102295c0.1784668 -2.320221 -1.0131226 -3.1207275 -2.6220703 -3.1207275z"/><path fill="#000" fill-opacity="0" fill-rule="evenodd" d="m453.0971 464.02362c1.7926636 5.7086487 83.543335 -25.582672 87.834656 -29.249329"/><path fill-rule="evenodd" stroke="#000" stroke-linecap="butt" stroke-miterlimit="15.875" stroke-width="1.583" d="m453.0971 464.02362c1.7926636 5.7086487 83.543335 -25.582672 87.834656 -29.249329"/><path fill="#fff" fill-rule="evenodd" d="m566.1942 410.81104c-2.3149414 0 -4.4172974 0.81625366 -5.6377563 2.8372498c-1.2913818 2.1653748 -1.0419922 4.8320312 -1.5827026 7.2913513c-0.44091797 2.1679688 -2.1443481 4.464569 -4.1705933 4.464569c-0.2703247 0 -0.548584 -0.041992188 -0.82940674 -0.13122559c-1.1259766 -0.3333435 -1.876648 -1.2913513 -2.9160156 -1.7926636c-1.1784668 -0.6062927 -2.1522217 -0.87402344 -2.9606323 -0.87402344c-5.2388306 0 -3.5984497 11.136475 -5.5826416 12.834656l44.624634 67.74802c0.51708984 0.102386475 1.0341187 0.14962769 1.548584 0.14962769c5.661377 0 10.897644 -5.8294067 9.826782 -11.482941c-0.6246948 -3.2913513 -2.5827026 -7.3753357 0.083984375 -9.291351c0.8057251 -0.5747986 1.7611084 -0.70077515 2.763733 -0.70077515c0.774292 0 1.5748291 0.07611084 2.3596191 0.07611084c0.41204834 0 0.8162842 -0.020996094 1.2099609 -0.083984375c7.5827026 -1.207367 5.5406494 -12.666687 3.6246948 -17.414703c4.958008 -0.083984375 11.501282 -1.4173279 12.0 -6.3753357c0.37530518 -3.2913208 -2.333374 -6.0 -4.8320312 -8.167969l-20.585327 -18.123352c-5.333313 -4.6273193 -10.748047 -9.45932 -13.832031 -15.834656c-0.79260254 -1.7086792 -1.5432739 -3.6666565 -3.209961 -4.54068c-0.36743164 -0.19424438 -0.78741455 -0.28085327 -1.2125854 -0.28085327c-1.5065918 0 -3.0839844 1.0918579 -2.661438 2.4881897c-2.236206 -1.6482849 -5.2834473 -2.7952576 -8.02887 -2.7952576z"/><path fill="#000" fill-opacity="0" fill-rule="evenodd" d="m542.51447 435.44095c2.2913208 -1.9606323 -0.24938965 -16.501312 8.543274 -11.960632c1.0393677 0.50131226 1.7900391 1.4593201 2.9160156 1.7926636c2.3753052 0.75064087 4.498657 -1.8740234 5.0 -4.3333435c0.54071045 -2.45932 0.2913208 -5.1259766 1.5827026 -7.2913513c2.666626 -4.417328 9.540649 -3.0839844 13.666626 -0.041992188c-0.5406494 -1.792633 2.2073364 -3.0839844 3.8740234 -2.2073364c1.666687 0.87402344 2.4173584 2.8320007 3.209961 4.54068c3.0839844 6.3753357 8.498718 11.207336 13.832031 15.834656l20.585327 18.123352c2.4986572 2.1679688 5.2073364 4.876648 4.8320312 8.167969c-0.49871826 4.958008 -7.041992 6.2913513 -12.0 6.3753357c1.9159546 4.7480164 3.9580078 16.207336 -3.6246948 17.414703c-2.1259766 0.333313 -4.5827026 -0.54067993 -6.333313 0.7086487c-2.666687 1.9160156 -0.7086792 6.0 -0.083984375 9.291351c1.1679688 6.1679688 -5.1654053 12.543304 -11.375366 11.333313"/><path fill-rule="evenodd" stroke="#000" stroke-linecap="butt" stroke-miterlimit="15.875" stroke-width="1.583" d="m542.51447 435.44095c2.2913208 -1.9606323 -0.24938965 -16.501312 8.543274 -11.960632c1.0393677 0.50131226 1.7900391 1.4593201 2.9160156 1.7926636c2.3753052 0.75064087 4.498657 -1.8740234 5.0 -4.3333435c0.54071045 -2.45932 0.2913208 -5.1259766 1.5827026 -7.2913513c2.666626 -4.417328 9.540649 -3.0839844 13.666626 -0.041992188c-0.5406494 -1.792633 2.2073364 -3.0839844 3.8740234 -2.2073364c1.666687 0.87402344 2.4173584 2.8320007 3.209961 4.54068c3.0839844 6.3753357 8.498718 11.207336 13.832031 15.834656l20.585327 18.123352c2.4986572 2.1679688 5.2073364 4.876648 4.8320312 8.167969c-0.49871826 4.958008 -7.041992 6.2913513 -12.0 6.3753357c1.9159546 4.7480164 3.9580078 16.207336 -3.6246948 17.414703c-2.1259766 0.333313 -4.5827026 -0.54067993 -6.333313 0.7086487c-2.666687 1.9160156 -0.7086792 6.0 -0.083984375 9.291351c1.1679688 6.1679688 -5.1654053 12.543304 -11.375366 11.333313"/><path fill="#000" fill-opacity="0" fill-rule="evenodd" d="m566.34906 455.6063c-0.6246338 -6.2073364 -2.8345947 -12.165344 -6.4592896 -17.29132c-0.12597656 -0.20736694 -0.4173584 -0.29135132 -0.666687 -0.16799927c-6.2493286 3.8346558 -7.7506714 13.3333435 -3.0 18.91864c0.4173584 0.49868774 1.1259766 -0.16796875 0.7506714 -0.6666565l-6.624695 -8.624664c-1.3753052 -1.8346558 -3.209961 -5.0 -5.91864 -4.834656c-2.4146729 0.16796875 -3.2913208 3.1259766 -2.5406494 5.0839844c1.0419922 2.582672 4.041992 4.0 6.2493286 5.417328c10.209961 6.4566956 21.167969 12.832031 28.083984 23.08136c4.2073364 6.209961 6.708679 13.417328 7.291382 20.916016c0.041992188 0.6272888 1.0419922 0.6666565 1.0 0.041992188"/><path fill-rule="evenodd" stroke="#000" stroke-linecap="butt" stroke-miterlimit="15.875" stroke-width="1.583" d="m566.34906 455.6063c-0.6246338 -6.2073364 -2.8345947 -12.165344 -6.4592896 -17.29132c-0.12597656 -0.20736694 -0.4173584 -0.29135132 -0.666687 -0.16799927c-6.2493286 3.8346558 -7.7506714 13.3333435 -3.0 18.91864c0.4173584 0.49868774 1.1259766 -0.16796875 0.7506714 -0.6666565l-6.624695 -8.624664c-1.3753052 -1.8346558 -3.209961 -5.0 -5.91864 -4.834656c-2.4146729 0.16796875 -3.2913208 3.1259766 -2.5406494 5.0839844c1.0419922 2.582672 4.041992 4.0 6.2493286 5.417328c10.209961 6.4566956 21.167969 12.832031 28.083984 23.08136c4.2073364 6.209961 6.708679 13.417328 7.291382 20.916016c0.041992188 0.6272888 1.0419922 0.6666565 1.0 0.041992188"/><path fill="#000" fill-opacity="0" fill-rule="evenodd" d="m933.8478 266.1076l-93.75067 0l0 53.75067l93.75067 0z"/><path fill-rule="evenodd" stroke="#973896" stroke-linecap="butt" stroke-miterlimit="15.875" stroke-width="1.583" d="m933.8478 266.1076l-93.75067 0l0 53.75067l93.75067 0z"/><path fill="#000" fill-opacity="0" fill-rule="evenodd" d="m836.34906 252.35695l-11.251953 0l0 11.249344l11.251953 0z"/><path fill-rule="evenodd" stroke="#000" stroke-linecap="butt" stroke-miterlimit="15.875" stroke-width="1.042" d="m836.34906 252.35695l-11.251953 0l0 11.249344l11.251953 0z"/><path fill="#000" fill-opacity="0" fill-rule="evenodd" d="m853.8478 252.35695l-11.249329 0l0 11.249344l11.249329 0z"/><path fill-rule="evenodd" stroke="#000" stroke-linecap="butt" stroke-miterlimit="15.875" stroke-width="1.042" d="m853.8478 252.35695l-11.249329 0l0 11.249344l11.249329 0z"/><path fill="#000" fill-opacity="0" fill-rule="evenodd" d="m871.34906 252.35695l-11.251953 0l0 11.249344l11.251953 0z"/><path fill-rule="evenodd" stroke="#000" stroke-linecap="butt" stroke-miterlimit="15.875" stroke-width="1.042" d="m871.34906 252.35695l-11.251953 0l0 11.249344l11.251953 0z"/><path fill="#000" fill-opacity="0" fill-rule="evenodd" d="m888.8478 252.35695l-11.249329 0l0 11.249344l11.249329 0z"/><path fill-rule="evenodd" stroke="#000" stroke-linecap="butt" stroke-miterlimit="15.875" stroke-width="1.042" d="m888.8478 252.35695l-11.249329 0l0 11.249344l11.249329 0z"/><path fill="#000" fill-opacity="0" fill-rule="evenodd" d="m906.34906 252.35695l-11.251953 0l0 11.249344l11.251953 0z"/><path fill-rule="evenodd" stroke="#000" stroke-linecap="butt" stroke-miterlimit="15.875" stroke-width="1.042" d="m906.34906 252.35695l-11.251953 0l0 11.249344l11.251953 0z"/><path fill="#000" fill-opacity="0" fill-rule="evenodd" d="m923.8478 252.35695l-11.249329 0l0 11.249344l11.249329 0z"/><path fill-rule="evenodd" stroke="#000" stroke-linecap="butt" stroke-miterlimit="15.875" stroke-width="1.042" d="m923.8478 252.35695l-11.249329 0l0 11.249344l11.249329 0z"/><path fill="#000" fill-opacity="0" fill-rule="evenodd" d="m836.34906 268.6063l-11.251953 0l0 11.251984l11.251953 0z"/><path fill-rule="evenodd" stroke="#000" stroke-linecap="butt" stroke-miterlimit="15.875" stroke-width="1.042" d="m836.34906 268.6063l-11.251953 0l0 11.251984l11.251953 0z"/><path fill="#000" fill-opacity="0" fill-rule="evenodd" d="m853.8478 268.6063l-11.249329 0l0 11.251984l11.249329 0z"/><path fill-rule="evenodd" stroke="#000" stroke-linecap="butt" stroke-miterlimit="15.875" stroke-width="1.042" d="m853.8478 268.6063l-11.249329 0l0 11.251984l11.249329 0z"/><path fill="#000" fill-opacity="0" fill-rule="evenodd" d="m871.34906 268.6063l-11.251953 0l0 11.251984l11.251953 0z"/><path fill-rule="evenodd" stroke="#000" stroke-linecap="butt" stroke-miterlimit="15.875" stroke-width="1.042" d="m871.34906 268.6063l-11.251953 0l0 11.251984l11.251953 0z"/><path fill="#000" fill-opacity="0" fill-rule="evenodd" d="m888.8478 268.6063l-11.249329 0l0 11.251984l11.249329 0z"/><path fill-rule="evenodd" stroke="#000" stroke-linecap="butt" stroke-miterlimit="15.875" stroke-width="1.042" d="m888.8478 268.6063l-11.249329 0l0 11.251984l11.249329 0z"/><path fill="#000" fill-opacity="0" fill-rule="evenodd" d="m906.34906 268.6063l-11.251953 0l0 11.251984l11.251953 0z"/><path fill-rule="evenodd" stroke="#000" stroke-linecap="butt" stroke-miterlimit="15.875" stroke-width="1.042" d="m906.34906 268.6063l-11.251953 0l0 11.251984l11.251953 0z"/><path fill="#000" fill-opacity="0" fill-rule="evenodd" d="m923.8478 268.6063l-11.249329 0l0 11.251984l11.249329 0z"/><path fill-rule="evenodd" stroke="#000" stroke-linecap="butt" stroke-miterlimit="15.875" stroke-width="1.042" d="m923.8478 268.6063l-11.249329 0l0 11.251984l11.249329 0z"/><path fill="#000" fill-opacity="0" fill-rule="evenodd" d="m836.34906 284.85828l-11.251953 0l0 11.249329l11.251953 0z"/><path fill-rule="evenodd" stroke="#000" stroke-linecap="butt" stroke-miterlimit="15.875" stroke-width="1.042" d="m836.34906 284.85828l-11.251953 0l0 11.249329l11.251953 0z"/><path fill="#000" fill-opacity="0" fill-rule="evenodd" d="m853.8478 284.85828l-11.249329 0l0 11.249329l11.249329 0z"/><path fill-rule="evenodd" stroke="#000" stroke-linecap="butt" stroke-miterlimit="15.875" stroke-width="1.042" d="m853.8478 284.85828l-11.249329 0l0 11.249329l11.249329 0z"/><path fill="#000" fill-opacity="0" fill-rule="evenodd" d="m871.34906 284.85828l-11.251953 0l0 11.249329l11.251953 0z"/><path fill-rule="evenodd" stroke="#000" stroke-linecap="butt" stroke-miterlimit="15.875" stroke-width="1.042" d="m871.34906 284.85828l-11.251953 0l0 11.249329l11.251953 0z"/><path fill="#000" fill-opacity="0" fill-rule="evenodd" d="m888.8478 284.85828l-11.249329 0l0 11.249329l11.249329 0z"/><path fill-rule="evenodd" stroke="#000" stroke-linecap="butt" stroke-miterlimit="15.875" stroke-width="1.042" d="m888.8478 284.85828l-11.249329 0l0 11.249329l11.249329 0z"/><path fill="#000" fill-opacity="0" fill-rule="evenodd" d="m906.34906 284.85828l-11.251953 0l0 11.249329l11.251953 0z"/><path fill-rule="evenodd" stroke="#000" stroke-linecap="butt" stroke-miterlimit="15.875" stroke-width="1.042" d="m906.34906 284.85828l-11.251953 0l0 11.249329l11.251953 0z"/><path fill="#000" fill-opacity="0" fill-rule="evenodd" d="m923.8478 284.85828l-11.249329 0l0 11.249329l11.249329 0z"/><path fill-rule="evenodd" stroke="#000" stroke-linecap="butt" stroke-miterlimit="15.875" stroke-width="1.042" d="m923.8478 284.85828l-11.249329 0l0 11.249329l11.249329 0z"/><path fill="#000" fill-opacity="0" fill-rule="evenodd" d="m836.34906 299.85828l-11.251953 0l0 11.249329l11.251953 0z"/><path fill-rule="evenodd" stroke="#000" stroke-linecap="butt" stroke-miterlimit="15.875" stroke-width="1.042" d="m836.34906 299.85828l-11.251953 0l0 11.249329l11.251953 0z"/><path fill="#000" fill-opacity="0" fill-rule="evenodd" d="m853.8478 299.85828l-11.249329 0l0 11.249329l11.249329 0z"/><path fill-rule="evenodd" stroke="#000" stroke-linecap="butt" stroke-miterlimit="15.875" stroke-width="1.042" d="m853.8478 299.85828l-11.249329 0l0 11.249329l11.249329 0z"/><path fill="#000" fill-opacity="0" fill-rule="evenodd" d="m871.34906 299.85828l-11.251953 0l0 11.249329l11.251953 0z"/><path fill-rule="evenodd" stroke="#000" stroke-linecap="butt" stroke-miterlimit="15.875" stroke-width="1.042" d="m871.34906 299.85828l-11.251953 0l0 11.249329l11.251953 0z"/><path fill="#000" fill-opacity="0" fill-rule="evenodd" d="m888.8478 299.85828l-11.249329 0l0 11.249329l11.249329 0z"/><path fill-rule="evenodd" stroke="#000" stroke-linecap="butt" stroke-miterlimit="15.875" stroke-width="1.042" d="m888.8478 299.85828l-11.249329 0l0 11.249329l11.249329 0z"/><path fill="#000" fill-opacity="0" fill-rule="evenodd" d="m906.34906 299.85828l-11.251953 0l0 11.249329l11.251953 0z"/><path fill-rule="evenodd" stroke="#000" stroke-linecap="butt" stroke-miterlimit="15.875" stroke-width="1.042" d="m906.34906 299.85828l-11.251953 0l0 11.249329l11.251953 0z"/><path fill="#000" fill-opacity="0" fill-rule="evenodd" d="m923.8478 299.85828l-11.249329 0l0 11.249329l11.249329 0z"/><path fill-rule="evenodd" stroke="#000" stroke-linecap="butt" stroke-miterlimit="15.875" stroke-width="1.042" d="m923.8478 299.85828l-11.249329 0l0 11.249329l11.249329 0z"/><path fill="#99c941" fill-rule="evenodd" d="m835.1811 340.5328c-1.112854 0 -2.209961 0.52493286 -2.9160156 1.4908142c-1.6167603 2.3858337 0.1784668 5.4829407 2.892395 5.4829407c0.2230835 0 0.45410156 -0.020996094 0.6903076 -0.06561279c3.0419922 -0.6246643 3.8346558 -4.5852966 1.2493286 -6.3333435c-0.59051514 -0.38845825 -1.2545776 -0.5747986 -1.9160156 -0.5747986z"/><path fill="#a19e94" fill-rule="evenodd" d="m961.95276 391.47507c-2.1102295 0 -4.230957 1.0 -5.522339 3.1312256c-2.7086182 4.438324 0.6640625 9.863525 5.482971 9.863525c0.5196533 0 1.0551147 -0.06298828 1.6010742 -0.19683838c3.5012817 -0.83203125 5.624634 -4.3753357 4.7926025 -7.8320312c-0.784729 -3.207367 -3.559021 -4.9658813 -6.354309 -4.9658813z"/><path fill="#000" fill-opacity="0" fill-rule="evenodd" d="m873.2231 486.85565c-5.708618 0 -10.333313 4.582672 -10.333313 10.291321l0 0c0 5.708679 4.624695 10.3333435 10.333313 10.3333435l0 0c5.666687 0 10.291382 -4.6246643 10.333374 -10.291351l0 0c0 -5.7086487 -4.624695 -10.333313 -10.333374 -10.333313z"/><path fill-rule="evenodd" stroke="#452391" stroke-linecap="butt" stroke-miterlimit="15.875" stroke-width="1.583" d="m873.2231 486.85565c-5.708618 0 -10.333313 4.582672 -10.333313 10.291321l0 0c0 5.708679 4.624695 10.3333435 10.333313 10.3333435l0 0c5.666687 0 10.291382 -4.6246643 10.333374 -10.291351l0 0c0 -5.7086487 -4.624695 -10.333313 -10.333374 -10.333313z"/><path fill="#000" fill-opacity="0" fill-rule="evenodd" d="m492.51443 353.81628c-0.041992188 6.6666565 8.041992 10.08136 12.792664 5.3726807c4.750641 -4.6666565 1.4566956 -12.790009 -5.249359 -12.832001c-4.1259766 0 -7.5013123 3.333313 -7.5433044 7.45932z"/><path fill-rule="evenodd" stroke="#452391" stroke-linecap="butt" stroke-miterlimit="15.875" stroke-width="1.583" d="m492.51443 353.81628c-0.041992188 6.6666565 8.041992 10.08136 12.792664 5.3726807c4.750641 -4.6666565 1.4566956 -12.790009 -5.249359 -12.832001c-4.1259766 0 -7.5013123 3.333313 -7.5433044 7.45932z"/><path fill="#000" fill-opacity="0" fill-rule="evenodd" d="m356.22308 395.35696c-3.7506409 1.6246643 -7.54068 -2.0839844 -6.041992 -5.834656c1.5013123 -3.790039 6.7926636 -3.8740234 8.417328 -0.12335205c0.9580078 2.2913208 -0.083984375 4.958008 -2.3753357 5.958008z"/><path fill-rule="evenodd" stroke="#452391" stroke-linecap="butt" stroke-miterlimit="15.875" stroke-width="1.583" d="m356.22308 395.35696c-3.7506409 1.6246643 -7.54068 -2.0839844 -6.041992 -5.834656c1.5013123 -3.790039 6.7926636 -3.8740234 8.417328 -0.12335205c0.9580078 2.2913208 -0.083984375 4.958008 -2.3753357 5.958008z"/><path fill="#000" fill-opacity="0" fill-rule="evenodd" d="m494.51443 316.31497c1.0839844 2.582672 4.7506714 2.5433044 5.7926636 -0.041992188c1.0 -2.6246948 -1.6246948 -5.1653748 -4.1679993 -4.0420227c-1.5826721 0.7086792 -2.333313 2.5013123 -1.6246643 4.084015z"/><path fill-rule="evenodd" stroke="#452391" stroke-linecap="butt" stroke-miterlimit="15.875" stroke-width="1.583" d="m494.51443 316.31497c1.0839844 2.582672 4.7506714 2.5433044 5.7926636 -0.041992188c1.0 -2.6246948 -1.6246948 -5.1653748 -4.1679993 -4.0420227c-1.5826721 0.7086792 -2.333313 2.5013123 -1.6246643 4.084015z"/></g></svg>