<svg xmlns="http://www.w3.org/2000/svg" id="Layer_1" viewBox="0 0 100 72.44"><defs><style>.cls-1{fill:#452391;}.cls-2{fill:#99c941;}</style></defs><path d="m11.73,9.74c0,1.16-.2,2.03-.59,2.59-.4.57-1.02.85-1.86.85s-1.45-.28-1.85-.83c-.4-.55-.61-1.38-.62-2.48v-1.33c0-1.15.2-2,.6-2.56.4-.56,1.02-.84,1.87-.84s1.46.27,1.86.81c.4.54.6,1.37.61,2.49v1.29Zm-.99-1.36c0-.84-.12-1.45-.35-1.84-.24-.39-.61-.58-1.12-.58s-.88.19-1.11.57c-.23.38-.35.97-.36,1.77v1.59c0,.84.12,1.47.37,1.87.24.4.62.6,1.11.6s.85-.19,1.09-.57c.24-.38.36-.98.37-1.79v-1.63Z"></path><polygon points="20.22 13.07 19.23 13.07 19.23 6.45 17.22 7.19 17.22 6.29 20.07 5.22 20.22 5.22 20.22 13.07"></polygon><path d="m31.99,9.74c0,1.16-.2,2.03-.59,2.59-.4.57-1.02.85-1.86.85s-1.45-.28-1.85-.83c-.4-.55-.61-1.38-.62-2.48v-1.33c0-1.15.2-2,.6-2.56.4-.56,1.02-.84,1.87-.84s1.46.27,1.86.81c.4.54.6,1.37.61,2.49v1.29Zm-.99-1.36c0-.84-.12-1.45-.35-1.84-.24-.39-.61-.58-1.12-.58s-.88.19-1.11.57c-.23.38-.35.97-.36,1.77v1.59c0,.84.12,1.47.37,1.87.24.4.62.6,1.11.6s.85-.19,1.09-.57c.24-.38.36-.98.37-1.79v-1.63Z"></path><polygon points="40.48 13.07 39.49 13.07 39.49 6.45 37.48 7.19 37.48 6.29 40.33 5.22 40.48 5.22 40.48 13.07"></polygon><path d="m52.25,9.74c0,1.16-.2,2.03-.59,2.59-.4.57-1.02.85-1.86.85s-1.45-.28-1.85-.83c-.4-.55-.61-1.38-.62-2.48v-1.33c0-1.15.2-2,.6-2.56.4-.56,1.02-.84,1.87-.84s1.46.27,1.86.81c.4.54.6,1.37.61,2.49v1.29Zm-.99-1.36c0-.84-.12-1.45-.35-1.84-.24-.39-.61-.58-1.12-.58s-.88.19-1.11.57c-.23.38-.35.97-.36,1.77v1.59c0,.84.12,1.47.37,1.87.24.4.62.6,1.11.6s.85-.19,1.09-.57c.24-.38.36-.98.37-1.79v-1.63Z"></path><polygon points="60.74 13.07 59.75 13.07 59.75 6.45 57.74 7.19 57.74 6.29 60.59 5.22 60.74 5.22 60.74 13.07"></polygon><path d="m72.51,9.74c0,1.16-.2,2.03-.59,2.59-.4.57-1.02.85-1.86.85s-1.45-.28-1.85-.83c-.4-.55-.61-1.38-.62-2.48v-1.33c0-1.15.2-2,.6-2.56.4-.56,1.02-.84,1.87-.84s1.46.27,1.86.81c.4.54.6,1.37.61,2.49v1.29Zm-.99-1.36c0-.84-.12-1.45-.35-1.84-.24-.39-.61-.58-1.12-.58s-.88.19-1.11.57c-.23.38-.35.97-.36,1.77v1.59c0,.84.12,1.47.37,1.87.24.4.62.6,1.11.6s.85-.19,1.09-.57c.24-.38.36-.98.37-1.79v-1.63Z"></path><path d="m82.64,9.74c0,1.16-.2,2.03-.59,2.59-.4.57-1.02.85-1.86.85s-1.45-.28-1.85-.83c-.4-.55-.61-1.38-.62-2.48v-1.33c0-1.15.2-2,.6-2.56.4-.56,1.02-.84,1.87-.84s1.46.27,1.86.81c.4.54.6,1.37.61,2.49v1.29Zm-.99-1.36c0-.84-.12-1.45-.35-1.84-.24-.39-.61-.58-1.12-.58s-.88.19-1.11.57c-.23.38-.35.97-.36,1.77v1.59c0,.84.12,1.47.37,1.87.24.4.62.6,1.11.6s.85-.19,1.09-.57c.24-.38.36-.98.37-1.79v-1.63Z"></path><path d="m92.77,9.74c0,1.16-.2,2.03-.59,2.59-.4.57-1.02.85-1.86.85s-1.45-.28-1.85-.83c-.4-.55-.61-1.38-.62-2.48v-1.33c0-1.15.2-2,.6-2.56.4-.56,1.02-.84,1.87-.84s1.46.27,1.86.81c.4.54.6,1.37.61,2.49v1.29Zm-.99-1.36c0-.84-.12-1.45-.35-1.84-.24-.39-.61-.58-1.12-.58s-.88.19-1.11.57c-.23.38-.35.97-.36,1.77v1.59c0,.84.12,1.47.37,1.87.24.4.62.6,1.11.6s.85-.19,1.09-.57c.24-.38.36-.98.37-1.79v-1.63Z"></path><path d="m11.73,27.54c0,1.16-.2,2.03-.59,2.59-.4.57-1.02.85-1.86.85s-1.45-.28-1.85-.83c-.4-.55-.61-1.38-.62-2.48v-1.33c0-1.15.2-2,.6-2.56.4-.56,1.02-.84,1.87-.84s1.46.27,1.86.81c.4.54.6,1.37.61,2.49v1.29Zm-.99-1.36c0-.84-.12-1.45-.35-1.84-.24-.39-.61-.58-1.12-.58s-.88.19-1.11.57c-.23.38-.35.97-.36,1.77v1.59c0,.84.12,1.47.37,1.87.24.4.62.6,1.11.6s.85-.19,1.09-.57c.24-.38.36-.98.37-1.79v-1.63Z"></path><polygon points="20.22 30.87 19.23 30.87 19.23 24.25 17.22 24.99 17.22 24.09 20.07 23.02 20.22 23.02 20.22 30.87"></polygon><path d="m31.99,27.54c0,1.16-.2,2.03-.59,2.59-.4.57-1.02.85-1.86.85s-1.45-.28-1.85-.83c-.4-.55-.61-1.38-.62-2.48v-1.33c0-1.15.2-2,.6-2.56.4-.56,1.02-.84,1.87-.84s1.46.27,1.86.81c.4.54.6,1.37.61,2.49v1.29Zm-.99-1.36c0-.84-.12-1.45-.35-1.84-.24-.39-.61-.58-1.12-.58s-.88.19-1.11.57c-.23.38-.35.97-.36,1.77v1.59c0,.84.12,1.47.37,1.87.24.4.62.6,1.11.6s.85-.19,1.09-.57c.24-.38.36-.98.37-1.79v-1.63Z"></path><path d="m42.12,27.54c0,1.16-.2,2.03-.59,2.59-.4.57-1.02.85-1.86.85s-1.45-.28-1.85-.83c-.4-.55-.61-1.38-.62-2.48v-1.33c0-1.15.2-2,.6-2.56.4-.56,1.02-.84,1.87-.84s1.46.27,1.86.81c.4.54.6,1.37.61,2.49v1.29Zm-.99-1.36c0-.84-.12-1.45-.35-1.84-.24-.39-.61-.58-1.12-.58s-.88.19-1.11.57c-.23.38-.35.97-.36,1.77v1.59c0,.84.12,1.47.37,1.87.24.4.62.6,1.11.6s.85-.19,1.09-.57c.24-.38.36-.98.37-1.79v-1.63Z"></path><polygon points="50.61 30.87 49.62 30.87 49.62 24.25 47.61 24.99 47.61 24.09 50.46 23.02 50.61 23.02 50.61 30.87"></polygon><path d="m62.38,27.54c0,1.16-.2,2.03-.59,2.59-.4.57-1.02.85-1.86.85s-1.45-.28-1.85-.83c-.4-.55-.61-1.38-.62-2.48v-1.33c0-1.15.2-2,.6-2.56.4-.56,1.02-.84,1.87-.84s1.46.27,1.86.81c.4.54.6,1.37.61,2.49v1.29Zm-.99-1.36c0-.84-.12-1.45-.35-1.84-.24-.39-.61-.58-1.12-.58s-.88.19-1.11.57c-.23.38-.35.97-.36,1.77v1.59c0,.84.12,1.47.37,1.87.24.4.62.6,1.11.6s.85-.19,1.09-.57c.24-.38.36-.98.37-1.79v-1.63Z"></path><polygon points="70.88 30.87 69.88 30.87 69.88 24.25 67.87 24.99 67.87 24.09 70.72 23.02 70.88 23.02 70.88 30.87"></polygon><path d="m82.64,27.54c0,1.16-.2,2.03-.59,2.59-.4.57-1.02.85-1.86.85s-1.45-.28-1.85-.83c-.4-.55-.61-1.38-.62-2.48v-1.33c0-1.15.2-2,.6-2.56.4-.56,1.02-.84,1.87-.84s1.46.27,1.86.81c.4.54.6,1.37.61,2.49v1.29Zm-.99-1.36c0-.84-.12-1.45-.35-1.84-.24-.39-.61-.58-1.12-.58s-.88.19-1.11.57c-.23.38-.35.97-.36,1.77v1.59c0,.84.12,1.47.37,1.87.24.4.62.6,1.11.6s.85-.19,1.09-.57c.24-.38.36-.98.37-1.79v-1.63Z"></path><path d="m92.77,27.54c0,1.16-.2,2.03-.59,2.59-.4.57-1.02.85-1.86.85s-1.45-.28-1.85-.83c-.4-.55-.61-1.38-.62-2.48v-1.33c0-1.15.2-2,.6-2.56.4-.56,1.02-.84,1.87-.84s1.46.27,1.86.81c.4.54.6,1.37.61,2.49v1.29Zm-.99-1.36c0-.84-.12-1.45-.35-1.84-.24-.39-.61-.58-1.12-.58s-.88.19-1.11.57c-.23.38-.35.97-.36,1.77v1.59c0,.84.12,1.47.37,1.87.24.4.62.6,1.11.6s.85-.19,1.09-.57c.24-.38.36-.98.37-1.79v-1.63Z"></path><path d="m11.73,45.34c0,1.16-.2,2.03-.59,2.59-.4.57-1.02.85-1.86.85s-1.45-.28-1.85-.83c-.4-.55-.61-1.38-.62-2.48v-1.33c0-1.15.2-2,.6-2.56.4-.56,1.02-.84,1.87-.84s1.46.27,1.86.81c.4.54.6,1.37.61,2.49v1.29Zm-.99-1.36c0-.84-.12-1.45-.35-1.84-.24-.39-.61-.58-1.12-.58s-.88.19-1.11.57c-.23.38-.35.97-.36,1.77v1.59c0,.84.12,1.47.37,1.87.24.4.62.6,1.11.6s.85-.19,1.09-.57c.24-.38.36-.98.37-1.79v-1.63Z"></path><polygon points="20.22 48.67 19.23 48.67 19.23 42.05 17.22 42.79 17.22 41.89 20.07 40.82 20.22 40.82 20.22 48.67"></polygon><path d="m31.99,45.34c0,1.16-.2,2.03-.59,2.59-.4.57-1.02.85-1.86.85s-1.45-.28-1.85-.83c-.4-.55-.61-1.38-.62-2.48v-1.33c0-1.15.2-2,.6-2.56.4-.56,1.02-.84,1.87-.84s1.46.27,1.86.81c.4.54.6,1.37.61,2.49v1.29Zm-.99-1.36c0-.84-.12-1.45-.35-1.84-.24-.39-.61-.58-1.12-.58s-.88.19-1.11.57c-.23.38-.35.97-.36,1.77v1.59c0,.84.12,1.47.37,1.87.24.4.62.6,1.11.6s.85-.19,1.09-.57c.24-.38.36-.98.37-1.79v-1.63Z"></path><polygon points="40.48 48.67 39.49 48.67 39.49 42.05 37.48 42.79 37.48 41.89 40.33 40.82 40.48 40.82 40.48 48.67"></polygon><path d="m52.25,45.34c0,1.16-.2,2.03-.59,2.59-.4.57-1.02.85-1.86.85s-1.45-.28-1.85-.83c-.4-.55-.61-1.38-.62-2.48v-1.33c0-1.15.2-2,.6-2.56.4-.56,1.02-.84,1.87-.84s1.46.27,1.86.81c.4.54.6,1.37.61,2.49v1.29Zm-.99-1.36c0-.84-.12-1.45-.35-1.84-.24-.39-.61-.58-1.12-.58s-.88.19-1.11.57c-.23.38-.35.97-.36,1.77v1.59c0,.84.12,1.47.37,1.87.24.4.62.6,1.11.6s.85-.19,1.09-.57c.24-.38.36-.98.37-1.79v-1.63Z"></path><polygon points="60.74 48.67 59.75 48.67 59.75 42.05 57.74 42.79 57.74 41.89 60.59 40.82 60.74 40.82 60.74 48.67"></polygon><path d="m72.51,45.34c0,1.16-.2,2.03-.59,2.59-.4.57-1.02.85-1.86.85s-1.45-.28-1.85-.83c-.4-.55-.61-1.38-.62-2.48v-1.33c0-1.15.2-2,.6-2.56.4-.56,1.02-.84,1.87-.84s1.46.27,1.86.81c.4.54.6,1.37.61,2.49v1.29Zm-.99-1.36c0-.84-.12-1.45-.35-1.84-.24-.39-.61-.58-1.12-.58s-.88.19-1.11.57c-.23.38-.35.97-.36,1.77v1.59c0,.84.12,1.47.37,1.87.24.4.62.6,1.11.6s.85-.19,1.09-.57c.24-.38.36-.98.37-1.79v-1.63Z"></path><path d="m82.64,45.34c0,1.16-.2,2.03-.59,2.59-.4.57-1.02.85-1.86.85s-1.45-.28-1.85-.83c-.4-.55-.61-1.38-.62-2.48v-1.33c0-1.15.2-2,.6-2.56.4-.56,1.02-.84,1.87-.84s1.46.27,1.86.81c.4.54.6,1.37.61,2.49v1.29Zm-.99-1.36c0-.84-.12-1.45-.35-1.84-.24-.39-.61-.58-1.12-.58s-.88.19-1.11.57c-.23.38-.35.97-.36,1.77v1.59c0,.84.12,1.47.37,1.87.24.4.62.6,1.11.6s.85-.19,1.09-.57c.24-.38.36-.98.37-1.79v-1.63Z"></path><path d="m92.77,45.34c0,1.16-.2,2.03-.59,2.59-.4.57-1.02.85-1.86.85s-1.45-.28-1.85-.83c-.4-.55-.61-1.38-.62-2.48v-1.33c0-1.15.2-2,.6-2.56.4-.56,1.02-.84,1.87-.84s1.46.27,1.86.81c.4.54.6,1.37.61,2.49v1.29Zm-.99-1.36c0-.84-.12-1.45-.35-1.84-.24-.39-.61-.58-1.12-.58s-.88.19-1.11.57c-.23.38-.35.97-.36,1.77v1.59c0,.84.12,1.47.37,1.87.24.4.62.6,1.11.6s.85-.19,1.09-.57c.24-.38.36-.98.37-1.79v-1.63Z"></path><path d="m11.73,63.14c0,1.16-.2,2.03-.59,2.59-.4.57-1.02.85-1.86.85s-1.45-.28-1.85-.83c-.4-.55-.61-1.38-.62-2.48v-1.33c0-1.15.2-2,.6-2.56.4-.56,1.02-.84,1.87-.84s1.46.27,1.86.81c.4.54.6,1.37.61,2.49v1.29Zm-.99-1.36c0-.84-.12-1.45-.35-1.84-.24-.39-.61-.58-1.12-.58s-.88.19-1.11.57c-.23.38-.35.97-.36,1.77v1.59c0,.84.12,1.47.37,1.87.24.4.62.6,1.11.6s.85-.19,1.09-.57c.24-.38.36-.98.37-1.79v-1.63Z"></path><polygon points="20.22 66.47 19.23 66.47 19.23 59.86 17.22 60.59 17.22 59.69 20.07 58.62 20.22 58.62 20.22 66.47"></polygon><path d="m31.99,63.14c0,1.16-.2,2.03-.59,2.59-.4.57-1.02.85-1.86.85s-1.45-.28-1.85-.83c-.4-.55-.61-1.38-.62-2.48v-1.33c0-1.15.2-2,.6-2.56.4-.56,1.02-.84,1.87-.84s1.46.27,1.86.81c.4.54.6,1.37.61,2.49v1.29Zm-.99-1.36c0-.84-.12-1.45-.35-1.84-.24-.39-.61-.58-1.12-.58s-.88.19-1.11.57c-.23.38-.35.97-.36,1.77v1.59c0,.84.12,1.47.37,1.87.24.4.62.6,1.11.6s.85-.19,1.09-.57c.24-.38.36-.98.37-1.79v-1.63Z"></path><polygon points="40.48 66.47 39.49 66.47 39.49 59.86 37.48 60.59 37.48 59.69 40.33 58.62 40.48 58.62 40.48 66.47"></polygon><path d="m52.25,63.14c0,1.16-.2,2.03-.59,2.59-.4.57-1.02.85-1.86.85s-1.45-.28-1.85-.83c-.4-.55-.61-1.38-.62-2.48v-1.33c0-1.15.2-2,.6-2.56.4-.56,1.02-.84,1.87-.84s1.46.27,1.86.81c.4.54.6,1.37.61,2.49v1.29Zm-.99-1.36c0-.84-.12-1.45-.35-1.84-.24-.39-.61-.58-1.12-.58s-.88.19-1.11.57c-.23.38-.35.97-.36,1.77v1.59c0,.84.12,1.47.37,1.87.24.4.62.6,1.11.6s.85-.19,1.09-.57c.24-.38.36-.98.37-1.79v-1.63Z"></path><path d="m62.38,63.14c0,1.16-.2,2.03-.59,2.59-.4.57-1.02.85-1.86.85s-1.45-.28-1.85-.83c-.4-.55-.61-1.38-.62-2.48v-1.33c0-1.15.2-2,.6-2.56.4-.56,1.02-.84,1.87-.84s1.46.27,1.86.81c.4.54.6,1.37.61,2.49v1.29Zm-.99-1.36c0-.84-.12-1.45-.35-1.84-.24-.39-.61-.58-1.12-.58s-.88.19-1.11.57c-.23.38-.35.97-.36,1.77v1.59c0,.84.12,1.47.37,1.87.24.4.62.6,1.11.6s.85-.19,1.09-.57c.24-.38.36-.98.37-1.79v-1.63Z"></path><path d="m72.51,63.14c0,1.16-.2,2.03-.59,2.59-.4.57-1.02.85-1.86.85s-1.45-.28-1.85-.83c-.4-.55-.61-1.38-.62-2.48v-1.33c0-1.15.2-2,.6-2.56.4-.56,1.02-.84,1.87-.84s1.46.27,1.86.81c.4.54.6,1.37.61,2.49v1.29Zm-.99-1.36c0-.84-.12-1.45-.35-1.84-.24-.39-.61-.58-1.12-.58s-.88.19-1.11.57c-.23.38-.35.97-.36,1.77v1.59c0,.84.12,1.47.37,1.87.24.4.62.6,1.11.6s.85-.19,1.09-.57c.24-.38.36-.98.37-1.79v-1.63Z"></path><path d="m82.64,63.14c0,1.16-.2,2.03-.59,2.59-.4.57-1.02.85-1.86.85s-1.45-.28-1.85-.83c-.4-.55-.61-1.38-.62-2.48v-1.33c0-1.15.2-2,.6-2.56.4-.56,1.02-.84,1.87-.84s1.46.27,1.86.81c.4.54.6,1.37.61,2.49v1.29Zm-.99-1.36c0-.84-.12-1.45-.35-1.84-.24-.39-.61-.58-1.12-.58s-.88.19-1.11.57c-.23.38-.35.97-.36,1.77v1.59c0,.84.12,1.47.37,1.87.24.4.62.6,1.11.6s.85-.19,1.09-.57c.24-.38.36-.98.37-1.79v-1.63Z"></path><path d="m92.77,63.14c0,1.16-.2,2.03-.59,2.59-.4.57-1.02.85-1.86.85s-1.45-.28-1.85-.83c-.4-.55-.61-1.38-.62-2.48v-1.33c0-1.15.2-2,.6-2.56.4-.56,1.02-.84,1.87-.84s1.46.27,1.86.81c.4.54.6,1.37.61,2.49v1.29Zm-.99-1.36c0-.84-.12-1.45-.35-1.84-.24-.39-.61-.58-1.12-.58s-.88.19-1.11.57c-.23.38-.35.97-.36,1.77v1.59c0,.84.12,1.47.37,1.87.24.4.62.6,1.11.6s.85-.19,1.09-.57c.24-.38.36-.98.37-1.79v-1.63Z"></path><path class="cls-1" d="m61.73,52.62l17.21-19.94c3.1.95,6.6.06,8.86-2.55,1.99-2.31,2.51-5.38,1.65-8.08l-3.26,3.78c-.8.92-2.19,1.02-3.11.23l-3.32-2.87c-.92-.8-1.02-2.19-.23-3.11l3.26-3.78c-2.8-.46-5.76.51-7.75,2.81-2.25,2.61-2.62,6.21-1.23,9.14l-17.42,20.18c-3-.76-6.31.16-8.47,2.66-1.99,2.3-2.51,5.38-1.65,8.08l3.27-3.79c.79-.91,2.17-1.02,3.09-.23l3.35,2.89c.91.79,1.02,2.17.23,3.09l-3.27,3.79c2.8.46,5.76-.51,7.75-2.81,2.35-2.72,2.65-6.5,1.05-9.49"></path><line class="cls-1" x1="76.21" y1="31.2" x2="59.58" y2="50.09"></line><rect class="cls-2" x="61.85" y="19.43" width="2.88" height="25.86" transform="translate(-5.26 51.15) rotate(-42.41)"></rect><polygon class="cls-2" points="51.27 21.93 53.99 19.44 55.63 21.84 53.51 23.78 51.27 21.93"></polygon><polygon class="cls-2" points="53.99 19.44 51.27 21.93 48.33 17.66 50 16.13 53.99 19.44"></polygon><path class="cls-2" d="m70.3,43.38l3.33-3.05c1.19-1.09,3.06-1.01,4.15.19l15.06,16.49c1.09,1.19,1.01,3.06-.19,4.15l-3.33,3.05c-1.19,1.09-3.06,1.01-4.15-.19l-15.06-16.49c-1.09-1.19-1-3.06.19-4.15"></path><path class="cls-2" d="m68.51,42.46l4.37-3.99c.46-.42,1.18-.39,1.6.07l.19.21c.42.46.39,1.18-.07,1.6l-4.37,3.99c-.46.42-1.18.39-1.6-.07l-.19-.21c-.42-.46-.39-1.18.07-1.6"></path><path class="cls-2" d="m73.95,44.03h0c.28-.25.71-.23.96.04l14.29,15.65c.25.28.23.71-.04.96s-.71.23-.96-.04l-14.29-15.65c-.25-.28-.23-.71.04-.96"></path><path class="cls-2" d="m76.11,42.05h0c.28-.25.71-.23.96.04l14.29,15.65c.25.28.23.71-.04.96s-.71.23-.96-.04l-14.29-15.65c-.25-.28-.23-.71.04-.96"></path><path class="cls-2" d="m71.78,46h0c.28-.25.71-.23.96.04l14.29,15.65c.25.28.23.71-.04.96s-.71.23-.96-.04l-14.29-15.65c-.25-.28-.23-.71.04-.96"></path></svg>